<svg width="36" height="36" viewBox="0 0 36 36" fill="none" xmlns="http://www.w3.org/2000/svg">
<path d="M18.012 1C24.9176 1 31.1217 5.14337 33.7743 11.5009C36.427 17.8804 34.9582 25.2025 30.0914 30.0913C25.2245 34.9581 17.8805 36.4269 11.501 33.7743C5.12153 31.1216 0.978164 24.9175 1.00009 18.0119C1.00009 8.62906 8.62915 1 18.012 1Z" stroke="#C1C1C1" stroke-width="0.5" stroke-miterlimit="10"/>
<path d="M18.034 11.4787C20.1605 11.4787 20.4236 11.4787 21.2566 11.5225C22.0459 11.5664 22.4624 11.6979 22.7474 11.8075C23.1201 11.961 23.3831 12.1364 23.6681 12.3994C23.9531 12.6844 24.1285 12.9475 24.26 13.3202C24.3696 13.6052 24.5012 14.0217 24.545 14.8109C24.5889 15.644 24.5889 15.907 24.5889 18.0335C24.5889 20.16 24.5889 20.4231 24.545 21.2561C24.5012 22.0454 24.3696 22.4619 24.26 22.7469C24.1066 23.1196 23.9312 23.3826 23.6681 23.6676C23.3831 23.9526 23.1201 24.128 22.7474 24.2595C22.4624 24.3692 22.0459 24.5007 21.2566 24.5445C20.4236 24.5884 20.1605 24.5884 18.034 24.5884C15.9075 24.5884 15.6445 24.5884 14.8114 24.5445C14.0222 24.5007 13.6057 24.3692 13.3207 24.2595C12.948 24.1061 12.6849 23.9307 12.3999 23.6676C12.1149 23.3826 11.9395 23.1196 11.808 22.7469C11.6984 22.4619 11.5669 22.0454 11.523 21.2561C11.4792 20.4231 11.4792 20.16 11.4792 18.0335C11.4792 15.907 11.4792 15.644 11.523 14.8109C11.5669 14.0217 11.6984 13.6052 11.808 13.3202C11.9615 12.9475 12.1368 12.6844 12.3999 12.3994C12.6849 12.1144 12.948 11.9391 13.3207 11.8075C13.6057 11.6979 14.0222 11.5664 14.8114 11.5225C15.6664 11.5006 15.9075 11.4787 18.034 11.4787ZM18.034 10.0537C15.8637 10.0537 15.6006 10.0537 14.7456 10.0976C13.8907 10.1414 13.3207 10.2729 12.8164 10.4702C12.2903 10.6675 11.8519 10.9525 11.3915 11.391C10.953 11.8294 10.668 12.2898 10.4707 12.794C10.2734 13.2983 10.1419 13.8902 10.098 14.7232C10.0542 15.5782 10.0542 15.8413 10.0542 18.0116C10.0542 20.1819 10.0542 20.445 10.098 21.3C10.1419 22.155 10.2734 22.725 10.4707 23.2292C10.668 23.7553 10.953 24.1938 11.3915 24.6541C11.8299 25.0926 12.2903 25.3776 12.7945 25.5749C13.2987 25.7722 13.8907 25.9037 14.7237 25.9476C15.5787 25.9914 15.8418 25.9914 18.0121 25.9914C20.1824 25.9914 20.4455 25.9914 21.3005 25.9476C22.1555 25.9037 22.7254 25.7722 23.2297 25.5749C23.7558 25.3776 24.1943 25.0926 24.6327 24.6541C25.0712 24.2157 25.3562 23.7553 25.5535 23.2511C25.7508 22.7469 25.8823 22.155 25.9261 21.3219C25.97 20.4669 25.97 20.2039 25.97 18.0335C25.97 15.8632 25.97 15.6001 25.9261 14.7451C25.8823 13.8902 25.7508 13.3202 25.5535 12.816C25.3562 12.2898 25.0931 11.8294 24.6327 11.391C24.1943 10.9525 23.7339 10.6675 23.2297 10.4702C22.7254 10.2729 22.1335 10.1414 21.3005 10.0976C20.4893 10.0537 20.2044 10.0537 18.034 10.0537Z" fill="#D20F3B"/>
<path d="M18.0339 13.9355C15.7759 13.9355 13.9344 15.777 13.9344 18.0351C13.9344 20.2931 15.7759 22.1346 18.0339 22.1346C20.2919 22.1346 22.1334 20.2931 22.1334 18.0351C22.1554 15.777 20.3139 13.9355 18.0339 13.9355ZM18.0339 20.7096C16.5651 20.7096 15.3813 19.5258 15.3813 18.057C15.3813 16.5882 16.5651 15.4044 18.0339 15.4044C19.5027 15.4044 20.6865 16.5882 20.6865 18.057C20.7085 19.5039 19.5027 20.7096 18.0339 20.7096Z" fill="#D20F3B"/>
<path d="M23.2734 13.78C23.2734 14.3062 22.835 14.7446 22.3088 14.7446C21.7827 14.7446 21.3442 14.3062 21.3442 13.78C21.3442 13.2539 21.7827 12.8154 22.3088 12.8154C22.835 12.8154 23.2734 13.2539 23.2734 13.78Z" fill="#D20F3B"/>
</svg>
