<svg width="35" height="36" viewBox="0 0 35 36" fill="none" xmlns="http://www.w3.org/2000/svg">
<path d="M17.6491 1C8.22408 1 0.609863 8.6611 0.609863 18.0952C0.609863 27.5293 8.2459 35.1904 17.6491 35.1904C27.0524 35.1904 34.6884 27.5293 34.6884 18.0952C34.6884 8.6611 27.0742 1 17.6491 1Z" stroke="#C1C1C1" stroke-width="0.5" stroke-miterlimit="10"/>
<path d="M26.2669 14.7461C26.5288 20.5029 22.2526 26.9163 14.6602 26.9163C12.3475 26.9163 10.2095 26.2378 8.39862 25.0777C10.5585 25.3403 12.7184 24.7274 14.442 23.3922C12.653 23.3703 11.1476 22.1664 10.624 20.5467C11.2567 20.678 11.8894 20.6342 12.4784 20.481C10.5149 20.087 9.16222 18.314 9.20586 16.4097C9.75129 16.7161 10.384 16.8912 11.0603 16.9131C9.24949 15.6873 8.72588 13.2796 9.79492 11.4409C11.8021 13.9144 14.8129 15.556 18.2164 15.7092C17.6273 13.1482 19.5472 10.6748 22.1871 10.6748C23.3653 10.6748 24.4125 11.1782 25.1543 11.9662C26.0924 11.7911 26.9651 11.4409 27.7505 10.9813C27.4451 11.9444 26.7906 12.7324 25.9615 13.2358C26.7906 13.1264 27.576 12.9075 28.296 12.5791C27.7723 13.4547 27.0742 14.177 26.2669 14.7461Z" stroke="#D20F3B" stroke-width="0.5" stroke-miterlimit="10"/>
</svg>
