<svg width="218" height="41" viewBox="0 0 218 41" fill="none" xmlns="http://www.w3.org/2000/svg">
<path d="M2.02484 3.50586V38.5711H38.4706V3.50586H2.02484ZM21.0575 10.3836L21.5974 12.0018L27.8065 12.8116L29.5608 18.476L31.451 18.6105L32.1255 20.9027L27.6706 20.4978L25.9164 14.563L22.0013 14.1582L23.2157 18.7438L20.651 18.4734L18.4915 9.84164L21.0562 10.381L21.0575 10.3836ZM7.2889 16.4529L9.71896 16.7232L8.50457 10.5194L15.6588 11.3292L15.2536 9.57642L17.8183 9.84677L19.9778 18.4785L17.2784 18.2082L16.1987 13.6226L11.7438 13.0832L13.0941 19.4215L7.69412 19.0167L7.2889 16.4542V16.4529ZM20.5177 32.3673L19.9778 30.0751L12.149 29.9406L10.7987 22.658L8.23399 22.5235L7.82877 19.8264L13.2288 20.2313L14.5791 27.109L19.3033 27.2436L18.0889 21.984L20.7882 22.1186L23.3529 32.234L20.5177 32.3686V32.3673ZM27.132 32.5018H24.4327L21.868 22.3864L24.4327 22.5209L25.783 27.6459L29.9673 27.7804L28.0771 21.3063L32.532 21.5766L33.3425 23.8688L31.3176 23.7342L33.3425 30.3429L26.5934 30.2084L27.1333 32.5005L27.132 32.5018Z" fill="#B4123B"/>
<path d="M123.78 25.6249C127.695 24.951 130.395 22.9279 130.395 19.9605C130.395 14.4306 123.915 13.4863 119.596 13.4863H107.987V38.5719H119.731C123.915 38.5719 131.475 37.6276 131.475 31.2893C131.475 28.1874 128.37 25.894 123.78 25.6249ZM114.737 17.5325H117.302C120.407 17.5325 123.782 17.8029 123.782 20.6344C123.782 23.1969 120.272 23.7363 117.438 23.7363H114.739V17.5325H114.737ZM117.842 34.6615H114.737V27.3789H117.842C121.217 27.3789 124.725 27.9183 124.725 31.1548C124.725 34.1221 120.946 34.6615 117.842 34.6615Z" fill="#B4123B"/>
<path d="M134.31 13.4863H141.059V38.5719H134.31V13.4863Z" fill="#B4123B"/>
<path d="M199.912 17.5325H190.328V13.4863H216.246L213.007 17.5325H206.663V38.5719H199.914L199.912 17.5325Z" fill="#B4123B"/>
<path d="M51.9686 2.9668H50.4837L45.2196 12.0035H46.434L47.7843 9.57548H54.264L55.6144 12.0035H56.9647L51.9699 2.9668H51.9686ZM48.3242 8.76574L51.1595 3.77527L53.9947 8.76574H48.3255H48.3242Z" fill="#B4123B"/>
<path d="M57.5033 2.42773H63.5778V3.23748H58.8536V6.60973H63.4432V7.41948H58.8536V12.0051H57.5033V2.42773Z" fill="#B4123B"/>
<path d="M92.8693 14.2969H85.3098L72.2157 38.5727H79.2353L82.2052 33.0428H95.7033L98.5386 38.5727H105.962L92.868 14.2969H92.8693ZM83.9608 29.1325L88.2797 19.1528H88.4144L92.7334 29.1325H83.9595H83.9608Z" fill="#B4123B"/>
<path d="M153.612 17.5325H144.027V13.4863H169.809V17.5325H160.225V38.5719H153.61L153.612 17.5325Z" fill="#B4123B"/>
<path d="M64.5229 14.2969V24.142H51.6993V14.2969H45.2196V38.5727H51.6993V27.9178H64.5229V38.5727H70.8667V14.2969H64.5229Z" fill="#B4123B"/>
<path d="M183.714 13.4863H176.154L163.196 38.5719H170.08L173.05 32.773H186.548L189.383 38.5719H196.807L183.712 13.4863H183.714ZM174.94 28.8613L179.799 18.4768H179.933L184.792 28.8613H174.939H174.94Z" fill="#B4123B"/>
<path d="M69.3817 2.42773H66.2771V12.0038H67.4915V7.82308H69.2457C71.5399 7.82308 73.2954 6.8788 73.2954 5.12605C73.2954 3.3733 71.8105 2.42902 69.3804 2.42902L69.3817 2.42773ZM68.4366 7.01333H67.4915V3.23748H69.5163C71.1359 3.23748 72.081 3.91142 72.081 5.12605C72.081 6.8788 70.3268 7.01461 68.4366 7.01461V7.01333Z" fill="#B4123B"/>
</svg>
