<?xml version="1.0" encoding="UTF-8"?>
<svg width="26px" height="39px" viewBox="0 0 26 39" version="1.1" xmlns="http://www.w3.org/2000/svg" xmlns:xlink="http://www.w3.org/1999/xlink">
    <!-- Generator: Sketch 54 (76480) - https://sketchapp.com -->
    <title>Shape</title>
    <desc>Created with Sketch.</desc>
    <g id="principal" stroke="none" stroke-width="1" fill="none" fill-rule="evenodd">
        <g id="Intro-simulador-version-terceros-1.1" transform="translate(-99.000000, -521.000000)" fill="#196690" fill-rule="nonzero">
            <g id="Group-4" transform="translate(36.000000, 425.000000)">
                <g id="Group-3" transform="translate(43.000000, 96.000000)">
                    <g id="female" transform="translate(20.000000, 0.000000)">
                        <path d="M22.1966971,21.8654136 C27.2677676,16.8700441 27.2677676,8.74195322 22.1966971,3.74658367 C17.1256265,-1.24886122 8.87445,-1.24886122 3.80330294,3.74658367 C-1.26776765,8.74195322 -1.26776765,16.8700441 3.80330294,21.8654136 C5.94983235,23.9798912 8.66614412,25.1990257 11.4697853,25.5234953 L11.4697853,29.8128082 L8.40958529,29.8128082 C7.56450882,29.8128082 6.87948529,30.4876688 6.87948529,31.3200922 C6.87948529,32.1525156 7.56450882,32.8273762 8.40958529,32.8273762 L11.4697853,32.8273762 L11.4697853,37.0733612 C11.4698618,37.9057846 12.1548853,38.5806452 13.0000382,38.5806452 C13.8451147,38.5806452 14.5301382,37.9057846 14.5301382,37.0733612 L14.5301382,32.8273762 L17.5904147,32.8273762 C18.4354912,32.8273762 19.1205147,32.1525156 19.1205147,31.3200922 C19.1205147,30.4876688 18.4354912,29.8128082 17.5904147,29.8128082 L14.5301382,29.8128082 L14.5301382,25.5235707 C17.3338559,25.1990257 20.0501676,23.9798912 22.1966971,21.8654136 Z M5.96726765,19.7337555 C2.08936765,15.9137405 2.08936765,9.69818147 5.96726765,5.8781664 C9.84509118,2.05830204 16.1547559,2.05807598 20.0328088,5.8781664 C23.9107088,9.69818147 23.9107088,15.9137405 20.0328088,19.7337555 C16.1549088,23.5536953 9.84516765,23.5536953 5.96726765,19.7337555 Z" id="Shape"></path>
                    </g>
                </g>
            </g>
        </g>
    </g>
</svg>