<?xml version="1.0" encoding="UTF-8"?>
<svg width="89px" height="100px" viewBox="0 0 89 100" version="1.1" xmlns="http://www.w3.org/2000/svg" xmlns:xlink="http://www.w3.org/1999/xlink">
    <!-- Generator: Sketch 54 (76480) - https://sketchapp.com -->
    <title>business-and-finance</title>
    <desc>Created with Sketch.</desc>
    <g id="principal" stroke="none" stroke-width="1" fill="none" fill-rule="evenodd">
        <g id="Intro-simulador-version-loading-v1" transform="translate(-143.000000, -211.000000)" fill="#FFFFFF">
            <g id="business-and-finance" transform="translate(143.000000, 211.000000)">
                <path d="M45.2596697,54.5442174 C45.0747631,54.5041945 44.8850537,54.4969902 44.6977459,54.5250064 C42.8206648,54.3064805 41.4046492,52.7183658 41.4014471,50.8292777 C41.4014471,49.9239561 40.6674244,49.1899334 39.7621029,49.1899334 C38.8567816,49.1899334 38.1227586,49.9239561 38.1227586,50.8292777 C38.1275615,53.9838947 40.2375768,56.7470863 43.2793289,57.5819672 L43.2793289,59.2213115 C43.2793289,60.126633 44.0133516,60.8606557 44.9186732,60.8606557 C45.8239947,60.8606557 46.5580174,60.126633 46.5580174,59.2213115 L46.5580174,57.6812244 C50.0688398,56.9464012 52.4550141,53.6765176 52.0860016,50.1088627 C51.7161885,46.5412078 48.7104572,43.8300461 45.1235912,43.8292457 C43.0680072,43.8292457 41.4014471,42.1626857 41.4014471,40.1071016 C41.4014471,38.0515176 43.0680072,36.3849578 45.1235912,36.3849578 C47.1791752,36.3849578 48.8457352,38.0515176 48.8457352,40.1071016 C48.8457352,41.0124232 49.579758,41.7464459 50.4850795,41.7464459 C51.3904008,41.7464459 52.1244238,41.0124232 52.1244238,40.1071016 C52.1196209,36.7947939 49.7990842,33.9379484 46.5580174,33.2543545 L46.5580174,31.7622951 C46.5580174,30.8569736 45.8239947,30.1229508 44.9186732,30.1229508 C44.0133516,30.1229508 43.2793289,30.8569736 43.2793289,31.7622951 L43.2793289,33.3544121 C39.8965803,34.2781443 37.7193262,37.5624361 38.1851947,41.0380379 C38.6510631,44.5136398 41.6167713,47.1079342 45.1235912,47.1071336 C47.1519594,47.1071336 48.8065125,48.7312693 48.8433338,50.7588371 C48.8809553,52.7864049 47.2864369,54.470575 45.2596697,54.5442174 L45.2596697,54.5442174 Z" id="Path"></path>
                <path d="M21.3514984,45.5942623 C21.3514984,58.7234246 31.9944287,69.3663549 45.1235912,69.3663549 C58.2527537,69.3663549 68.895684,58.7234246 68.895684,45.5942623 C68.895684,32.4651 58.2527537,21.8221697 45.1235912,21.8221697 C32.0008324,21.8365779 21.3667072,32.4715037 21.3514984,45.5942623 Z M45.1235912,25.1008582 C56.4421107,25.1008582 65.6169955,34.2757428 65.6169955,45.5942623 C65.6169955,56.9127818 56.4421107,66.0876664 45.1235912,66.0876664 C33.8050717,66.0876664 24.6301869,56.9127818 24.6301869,45.5942623 C24.6429943,34.2813461 33.810675,25.1136656 45.1235912,25.1008582 Z" id="Shape" fill-rule="nonzero"></path>
                <path d="M76.9771389,73.407883 L64.135342,79.4753779 C62.3623207,76.1774783 58.9611617,74.0786693 55.2182057,73.9730084 L43.3633773,73.6472209 C41.4862961,73.59359 39.6444352,73.118116 37.9754738,72.2560195 L36.7691791,71.6308594 C30.5928215,68.4114049 23.2309811,68.4194096 17.061027,71.6516713 L17.1362705,68.9188973 C17.1610848,68.0135758 16.447874,67.2595414 15.5425525,67.2347273 L2.54306475,66.8769211 C1.63774344,66.8521068 0.884509426,67.5653176 0.859695082,68.4706391 L0.0744428279,96.9974705 C0.0496286885,97.902792 0.762839344,98.6568262 1.66816086,98.6816406 L14.6676486,99.0394467 L14.7124744,99.0394467 C15.6009861,99.0394467 16.3278049,98.3326395 16.3518186,97.4449283 L16.3894404,96.0801422 L19.7665857,94.2719006 C21.0921492,93.5586898 22.6418418,93.388992 24.0898758,93.7988281 L44.2566918,99.4588883 C44.2919121,99.4692943 44.3271324,99.477299 44.3631533,99.4853035 C45.8207928,99.7902791 47.3064486,99.9431672 48.7953061,99.9423668 C51.9491227,99.9439676 55.066118,99.2643762 57.9325693,97.9484182 C58.0030098,97.9163998 58.071049,97.8787783 58.1358863,97.8363537 L87.3759285,78.9230596 C88.1043482,78.4515881 88.3396836,77.4950371 87.9130379,76.7394018 C85.7421875,72.8875832 80.9274141,71.4203381 76.9771389,73.407883 L76.9771389,73.407883 Z M3.39715676,95.4493789 L4.09195697,70.199635 L13.8135566,70.4669889 L13.1187564,95.7175332 L3.39715676,95.4493789 Z M56.4557184,95.0203318 C52.8944672,96.6276576 48.9169762,97.0711129 45.0891713,96.2890625 L24.9767867,90.6434107 C22.7130828,90.0038422 20.2900871,90.2687949 18.2192943,91.3822361 L16.4935002,92.3067686 L16.9553664,75.5186988 C22.4241164,71.8814037 29.4377561,71.5075883 35.2619109,74.5421363 L36.4682057,75.1672963 C38.5766201,76.2559234 40.9019594,76.8562693 43.2737256,76.9251088 L55.1293545,77.2508965 C58.4592725,77.3469518 61.2873014,79.7179176 61.9628906,82.9805967 L44.3039191,82.493116 C43.3985975,82.4683016 42.6453637,83.1823131 42.619749,84.086834 C42.5949346,84.9921555 43.3089459,85.7461898 44.213467,85.7710041 L63.701492,86.3073131 L63.7471184,86.3073131 C64.6348297,86.3065125 65.360848,85.5997053 65.3848617,84.7127947 C65.4048732,84.0003842 65.3520428,83.2871734 65.2263705,82.5859695 L78.3979572,76.3623848 C78.4107645,76.3567816 78.4235719,76.3503779 78.4363793,76.3439742 C80.3046555,75.3986295 82.5635566,75.7148117 84.1004418,77.1372311 L56.4557184,95.0203318 Z" id="Shape" fill-rule="nonzero"></path>
                <path d="M46.7629355,17.2131148 L46.7629355,1.63934426 C46.7629355,0.734022746 46.0289127,0 45.1235912,0 C44.2182697,0 43.4842469,0.734022746 43.4842469,1.63934426 L43.4842469,17.2131148 C43.4842469,18.1184363 44.2182697,18.852459 45.1235912,18.852459 C46.0289127,18.852459 46.7629355,18.1184363 46.7629355,17.2131148 Z" id="Path"></path>
                <path d="M59.0580174,17.2131148 L59.0580174,9.83606557 C59.0580174,8.93074406 58.3239947,8.19672131 57.4186732,8.19672131 C56.5133516,8.19672131 55.7793289,8.93074406 55.7793289,9.83606557 L55.7793289,17.2131148 C55.7793289,18.1184363 56.5133516,18.852459 57.4186732,18.852459 C58.3239947,18.852459 59.0580174,18.1184363 59.0580174,17.2131148 Z" id="Path"></path>
                <path d="M34.4678535,17.2131148 L34.4678535,9.83606557 C34.4678535,8.93074406 33.7338307,8.19672131 32.8285092,8.19672131 C31.9231877,8.19672131 31.189165,8.93074406 31.189165,9.83606557 L31.189165,17.2131148 C31.189165,18.1184363 31.9231877,18.852459 32.8285092,18.852459 C33.7338307,18.852459 34.4678535,18.1184363 34.4678535,17.2131148 Z" id="Path"></path>
            </g>
        </g>
    </g>
</svg>