<?xml version="1.0" encoding="UTF-8"?>
<svg width="31px" height="31px" viewBox="0 0 31 31" version="1.1" xmlns="http://www.w3.org/2000/svg" xmlns:xlink="http://www.w3.org/1999/xlink">
    <!-- Generator: Sketch 54 (76480) - https://sketchapp.com -->
    <title>male</title>
    <desc>Created with Sketch.</desc>
    <g id="principal" stroke="none" stroke-width="1" fill="none" fill-rule="evenodd">
        <g id="Intro-simulador-version-terceros-1.1" transform="translate(-245.000000, -521.000000)" fill="#9B9B9B" fill-rule="nonzero" stroke="#9B9B9B" stroke-width="0.4">
            <g id="Group-4" transform="translate(36.000000, 425.000000)">
                <g id="Group-2" transform="translate(189.000000, 97.000000)">
                    <g id="Group">
                        <g id="male" transform="translate(20.500000, 0.000000)">
                            <path d="M29.4843648,1.05257161 C29.4710897,0.948435484 29.4480794,0.848134378 29.410024,0.75402832 C29.408844,0.751668294 29.408844,0.74842324 29.408254,0.745473245 C29.408254,0.744883201 29.407664,0.744293232 29.407074,0.743703188 C29.3651835,0.644582094 29.3079529,0.55460612 29.2433471,0.47112018 C29.227417,0.451354943 29.2117818,0.431884766 29.1949667,0.413299542 C29.1259359,0.335418682 29.0510051,0.263437888 28.9639791,0.204732297 C28.9616191,0.20296224 28.958669,0.202372271 28.956309,0.200602214 C28.8722331,0.145141602 28.779307,0.103251177 28.681956,0.0702108125 C28.6577657,0.0616556615 28.6341654,0.054280599 28.6093852,0.0477904896 C28.5073141,0.0200602214 28.4022929,0 28.2916667,0 L19.8333333,0 C19.166331,0 18.625,0.541330992 18.625,1.20833333 C18.625,1.87533567 19.166331,2.41666667 19.8333333,2.41666667 L25.3740845,2.41666667 L18.1621399,9.62861127 C16.2390137,8.09046426 13.8713176,7.25 11.375,7.25 C5.3787638,7.25 0.5,12.1287638 0.5,18.125 C0.5,24.1212362 5.3787638,29 11.375,29 C17.3712362,29 22.25,24.1212362 22.25,18.125 C22.25,15.6298625 21.4101257,13.2627564 19.8707988,11.3378601 L27.0833333,4.12532552 L27.0833333,9.66666667 C27.0833333,10.333669 27.6246643,10.875 28.2916667,10.875 C28.958669,10.875 29.5,10.333669 29.5,9.66666667 L29.5,1.20833333 C29.5,1.18296302 29.4940999,1.15877279 29.4926249,1.13399251 C29.4908549,1.10626224 29.4879049,1.07971191 29.4843648,1.05257161 Z M11.375,26.5833333 C6.71070351,26.5833333 2.91666667,22.7892965 2.91666667,18.125 C2.91666667,13.4607035 6.71070351,9.66666667 11.375,9.66666667 C13.6332499,9.66666667 15.7593384,10.5457764 17.357961,12.1387939 C18.9542236,13.7406616 19.8333333,15.8667501 19.8333333,18.125 C19.8333333,22.7892965 16.0392965,26.5833333 11.375,26.5833333 Z" id="Shape"></path>
                        </g>
                    </g>
                </g>
            </g>
        </g>
    </g>
</svg>