<svg width="36" height="36" viewBox="0 0 36 36" fill="none" xmlns="http://www.w3.org/2000/svg">
<path d="M18.04 1C8.61453 1 1 8.63635 1 18.04C1 27.4654 8.63635 35.08 18.04 35.08C27.4436 35.08 35.08 27.4436 35.08 18.04C35.1018 8.63635 27.4654 1 18.04 1Z" stroke="#C1C1C1" stroke-width="0.5" stroke-miterlimit="10"/>
<path d="M25.1527 23.735H22.3163V19.6769C22.3163 17.015 19.4799 17.2332 19.4799 19.6769V23.735H16.6218V15.2041H19.4581V16.7532C20.7018 14.4623 25.1308 14.2878 25.1308 18.9569V23.735H25.1527Z" fill="#D20F3B"/>
<path d="M13.7854 13.9387C14.653 13.9387 15.3564 13.2354 15.3564 12.3678C15.3564 11.5002 14.653 10.7969 13.7854 10.7969C12.9179 10.7969 12.2145 11.5002 12.2145 12.3678C12.2145 13.2354 12.9179 13.9387 13.7854 13.9387Z" fill="#D20F3B"/>
<path d="M15.2037 15.2031H12.3673V23.734H15.2037V15.2031Z" fill="#D20F3B"/>
</svg>
