<?xml version="1.0" encoding="UTF-8"?>
<svg width="257px" height="157px" viewBox="0 0 257 157" version="1.1" xmlns="http://www.w3.org/2000/svg" xmlns:xlink="http://www.w3.org/1999/xlink">
    <!-- Generator: Sketch 54 (76480) - https://sketchapp.com -->
    <title>Group 2</title>
    <desc>Created with Sketch.</desc>
    <g id="principal" stroke="none" stroke-width="1" fill="none" fill-rule="evenodd">
        <g id="Comparador-rentabilidad-v2" transform="translate(-59.000000, -210.000000)">
            <g id="Group-2" transform="translate(59.000000, 211.000000)">
                <g id="undraw_all_the_data_h4ki">
                    <ellipse id="Oval" fill="#828383" fill-rule="nonzero" cx="228.398387" cy="152.265957" rx="28.6016129" ry="3.73404255"></ellipse>
                    <path d="M219.329857,18.2033682 C219.329857,18.2033682 218.519899,24.3451603 220.602646,25.053831 C222.685394,25.7625017 222.106851,31.1956251 222.106851,31.1956251 L215.858612,36.0381918 L210.304627,36.5106383 L208.916129,29.1877311 L209.726077,27.2979411 C209.726077,27.2979411 212.850198,23.5183774 210.651744,19.6207016 C208.45329,15.7230258 219.329857,18.2033682 219.329857,18.2033682 Z" id="Path" fill="#FFB9B9" fill-rule="nonzero"></path>
                    <path d="M219.329857,18.2033682 C219.329857,18.2033682 218.519899,24.3451603 220.602646,25.053831 C222.685394,25.7625017 222.106851,31.1956251 222.106851,31.1956251 L215.858612,36.0381918 L210.304627,36.5106383 L208.916129,29.1877311 L209.726077,27.2979411 C209.726077,27.2979411 212.850198,23.5183774 210.651744,19.6207016 C208.45329,15.7230258 219.329857,18.2033682 219.329857,18.2033682 Z" id="Path" fill="#000000" fill-rule="nonzero" opacity="0.1"></path>
                    <path d="M213.890323,65.8563784 L206.537691,82.9787234 C206.537691,82.9787234 200.81898,79.7393619 197.434435,80.0864365 C194.04989,80.4335111 189.848387,76.3843102 189.848387,76.3843102 L194.04989,56.2539881 L201.869354,34.8510638 L212.723237,41.6768614 L213.890323,65.8563784 Z" id="Path" fill="#196690" fill-rule="nonzero"></path>
                    <path d="M213.890323,65.8563784 L206.537691,82.9787234 C206.537691,82.9787234 200.81898,79.7393619 197.434435,80.0864365 C194.04989,80.4335111 189.848387,76.3843102 189.848387,76.3843102 L194.04989,56.2539881 L201.869354,34.8510638 L212.723237,41.6768614 L213.890323,65.8563784 Z" id="Path" fill="#196690" fill-rule="nonzero" opacity="0.1"></path>
                    <polygon id="Path" fill="#828383" fill-rule="nonzero" points="224.667742 138.69298 224.667742 144.382979 219.693548 144.382979 220.46727 137.744681"></polygon>
                    <polygon id="Path" fill="#828383" fill-rule="nonzero" points="239.15874 129.446809 242.906452 131.6596 240.180807 137.744681 237.341773 137.412705 234.616129 133.651074"></polygon>
                    <path d="M226.167856,64.7234043 L232.958065,80.7863353 C232.958065,80.7863353 230.54121,98.5826648 230.656299,100.084962 C230.771388,101.58726 230.886475,102.165055 230.311034,103.436222 C229.735593,104.707389 229.505417,105.516312 229.850682,107.018602 C230.195947,108.520892 230.311034,109.098692 230.080858,109.676495 C229.850682,110.254298 228.239446,134.059792 227.433827,135.677641 C226.628208,137.29549 227.894181,139.953386 227.088562,140.184514 C226.282943,140.415643 220.298354,139.837832 219.953089,138.451106 C219.607824,137.06438 221.103978,133.713118 220.298354,132.673072 C219.492729,131.633026 220.413443,94.191377 219.262559,91.6490431 C218.111675,89.1067091 205.451966,86.7954959 205.451966,86.7954959 C205.451966,86.7954959 204.301076,79.3996149 204.991614,78.2440093 C205.682152,77.0884037 206.602844,69.8080741 206.602844,69.8080741 L226.167856,64.7234043 Z" id="Path" fill="#4D4F51" fill-rule="nonzero"></path>
                    <path d="M219.86985,143.648387 C219.86985,143.648387 222.997543,139.700154 225.678421,143.648387 C225.678421,143.648387 225.901827,148.314489 227.800778,149.27163 C229.699728,150.228771 228.806108,154.057366 226.125229,154.17701 C223.444351,154.296655 219.981547,154.775227 219.869845,153.219863 C219.758143,151.664499 220.316657,150.70735 219.311329,150.228778 C218.306,149.750205 219.311329,146.998405 219.311329,146.998405 L219.86985,143.648387 Z" id="Path" fill="#2F2E41" fill-rule="nonzero"></path>
                    <path d="M220.205307,87.613087 C220.205307,87.613087 220.090137,95.9549398 219.283957,97.1135317 C218.477777,98.2721236 218.0171,98.9672763 218.477775,100.241726 C218.938451,101.516176 219.629469,103.833357 219.283957,104.296795 C218.938445,104.760232 219.629462,107.193271 219.629462,107.193271 C219.629462,107.193271 228.497446,111.480058 232.643525,120.401205 C232.643525,120.401205 236.904767,127.468609 238.171616,127.584468 C239.438466,127.700328 240.935664,126.773454 240.244654,129.438213 C239.553643,132.102972 236.904761,135.578744 234.946893,135.231166 C232.989025,134.883589 231.491845,131.523677 231.491845,131.523677 C231.491845,131.523677 216.174407,115.882706 214.562045,115.419264 C212.949684,114.955823 208.342935,111.248338 207.536756,108.931156 C206.730576,106.613974 205.003045,87.2655096 205.809224,85.9910599 C206.615404,84.7166102 209.609793,82.9787234 209.609793,82.9787234 L220.205307,87.613087 Z" id="Path" fill="#4D4F51" fill-rule="nonzero"></path>
                    <path d="M239.772381,128.617021 C239.772381,128.617021 246.932987,128.846659 247.048479,130.568946 C247.163972,132.291233 244.045646,142.510131 244.507619,144.921331 C244.969593,147.332531 240.927316,152.84385 238.270964,151.695658 C235.614611,150.547466 237.693494,144.576874 237.693494,144.576874 C237.693494,144.576874 235.037142,136.42472 235.499121,136.3099 C235.9611,136.19508 240.580841,134.817253 240.349854,133.439423 C240.118868,132.061593 239.772381,128.617021 239.772381,128.617021 Z" id="Path" fill="#2F2E41" fill-rule="nonzero"></path>
                    <ellipse id="Oval" fill="#FFB9B9" fill-rule="nonzero" cx="214.304839" cy="17.8404255" rx="7.04677419" ry="7.05319149"></ellipse>
                    <path d="M221.798014,28.9074228 C221.798014,28.9074228 217.822911,33.1172509 214.900041,32.4156126 C211.977171,31.7139742 210.457279,26.6855694 210.457279,26.6855694 L205.196113,25.7500503 C205.196113,25.7500503 201.454839,42.3554859 201.454839,43.9926413 C201.454839,45.6297968 205.196113,63.287688 205.196113,66.4450585 C205.196113,69.6024291 202.156328,71.4734654 206.83292,71.356525 C211.509513,71.2395846 209.28813,69.7193695 216.06919,69.6024311 C222.85025,69.4854927 223.902482,71.0057058 225.305458,68.5499736 C226.262304,66.9477781 227.44342,65.4907585 228.812903,64.2232051 L226.357691,55.5696681 L226.006939,31.1292702 C226.006939,31.1292702 223.009471,25.2822867 221.643792,25.7500442 C221.6438,25.7500442 222.382588,28.3227189 221.798014,28.9074228 Z" id="Path" fill="#BE0A3D" fill-rule="nonzero"></path>
                    <path d="M219.852066,24.893617 C219.852066,24.893617 225.916261,25.5739805 227.622331,26.854509 C229.328402,28.1350375 234.105398,29.0663213 233.991659,29.9976191 C233.877921,30.9289169 228.418498,44.1998227 228.418498,44.1998227 C228.418498,44.1998227 225.916261,54.6768591 228.077284,57.1215019 C230.238308,59.5661446 238.313702,86.2243805 236.948848,88.4361988 C235.583993,90.6480171 231.261948,81.6843297 231.261948,81.6843297 C231.261948,81.6843297 225.46131,62.4764303 222.276646,59.2169099 C219.091982,55.9573896 218.864516,38.3792474 218.864516,37.5643678 C218.864516,36.7494882 219.852066,24.893617 219.852066,24.893617 Z" id="Path" fill="#196690" fill-rule="nonzero"></path>
                    <path d="M210.574194,26.0418377 C210.574194,26.0418377 203.035118,23.1840647 200.395697,24.338532 C197.756275,25.4929993 196.149671,25.7238829 196.149671,25.7238829 L195.231618,37.0375954 C195.231618,37.0375954 194.887346,53.3154857 191.903652,57.2406509 C188.919958,61.165816 186.969084,77.5591511 187.428105,79.1753955 C187.887125,80.7916398 186.624804,83.5623456 188.575686,82.8696691 C190.526568,82.1769927 195.920161,66.2454406 195.920161,66.2454406 C195.920161,66.2454406 195.920161,57.1252041 199.133369,54.5853919 C202.346577,52.0455796 207.625418,41.5399922 207.854934,39.0001819 C208.08445,36.4603716 210.264839,29.4181625 210.264839,29.4181625 L210.574194,26.0418377 Z" id="Path" fill="#196690" fill-rule="nonzero"></path>
                    <path d="M237.103226,63.0385456 C237.103226,63.0385456 233.71091,69.4268921 233.258601,70.5676763 C232.806291,71.7084605 229.640129,79.4657402 225.117043,77.7545737 C220.593956,76.0434072 229.527061,67.7157334 229.527061,67.7157334 L231.56245,60.7569929 C231.56245,60.7569929 236.877072,59.6162145 237.103226,63.0385456 Z" id="Path" fill="#FFB9B9" fill-rule="nonzero"></path>
                    <path d="M197.309677,25.658143 L196.154214,25.658143 C196.154214,25.658143 194.998751,24.7459503 193.612211,25.3160705 C192.22567,25.8861907 188.990385,25.0880228 188.990385,25.4300953 C188.990385,25.7721678 185.40847,24.4038778 183.906378,25.0880228 C182.404286,25.7721678 176.97364,26.0002155 176.97364,26.0002155 C176.97364,26.0002155 174.778279,31.4733678 176.280367,32.4995912 C177.782456,33.5258146 179.977826,32.7276389 181.017737,33.5258088 C182.057649,34.3239786 184.021924,33.4117839 184.715196,34.4380015 C185.408468,35.464219 187.950474,37.2886044 188.528204,36.148364 C189.105933,35.0081236 187.950474,33.981912 190.376933,35.2361694 C192.803392,36.4904268 196.616397,36.4904365 196.616397,36.4904365 L197.309677,25.658143 Z" id="Path" fill="#196690" fill-rule="nonzero"></path>
                    <path d="M214.901672,12.5298114 C213.912343,12.3089307 212.88534,12.5536978 211.883311,12.7123683 C210.881282,12.8710388 209.777012,12.9233484 208.929395,12.3831388 C208.303423,11.9841853 207.918564,11.3241764 207.557174,10.6893087 C207.406375,10.4625771 207.305868,10.2080958 207.262002,9.94193454 C207.219455,9.47240482 207.528567,9.0440195 207.856819,8.69537991 C209.381542,7.07595137 211.609672,6.18959835 213.856638,5.90804784 C215.703719,5.67661183 217.629434,5.83159968 219.335134,6.55446583 C221.040834,7.27733198 222.507086,8.60109906 223.177695,10.2800735 C223.486566,11.1393861 223.679454,12.0335997 223.751588,12.9405888 C223.852917,13.6079113 223.865916,14.2849831 223.790271,14.9554778 C223.69996,15.4525342 223.564738,15.9409867 223.386158,16.4152291 L222.275302,19.6562794 C222.195439,19.9625493 222.046255,20.2478871 221.838501,20.4917302 C221.619246,20.7370276 221.258883,20.8133132 220.953569,20.6790624 C221.042467,20.3270294 221.056017,19.961162 220.993389,19.6038896 C220.922279,19.2396037 220.628945,18.9537682 220.252546,18.8819852 C219.843094,18.8400003 219.49332,19.1466843 219.104907,19.278767 C218.727241,19.3869429 218.319977,19.3377489 217.981495,19.1430687 C217.643013,18.9483885 217.404095,18.6259262 217.322454,18.2535778 C217.26114,17.8830417 217.364092,17.4863713 217.218738,17.1384041 C217.048437,16.7307171 216.596834,16.5171001 216.257557,16.2241478 C215.625498,15.6605666 215.388747,14.7941208 215.65051,14.0025185 C215.741342,13.732788 215.997856,13.610168 215.946535,13.3003057 C215.879208,12.8937895 215.258927,12.6095747 214.901672,12.5298114 Z" id="Path" fill="#2F2E41" fill-rule="nonzero"></path>
                    <rect id="Rectangle" fill="#2660AA" fill-rule="nonzero" opacity="0.799920945" x="143.422581" y="37.3404255" width="38.9645161" height="42.3191489"></rect>
                    <rect id="Rectangle-Copy" fill="#2E8ECD" fill-rule="nonzero" opacity="0.799920945" x="95.3387097" y="82.9787234" width="38.9645161" height="42.3191489"></rect>
                    <rect id="Rectangle-Copy-3" fill="#B52A29" fill-rule="nonzero" opacity="0.799920945" x="0" y="4.9787234" width="38.9645161" height="42.3191489"></rect>
                    <rect id="Rectangle-Copy-5" fill="#EB6915" fill-rule="nonzero" opacity="0.799920945" x="33.9903226" y="63.893617" width="38.9645161" height="42.3191489"></rect>
                    <rect id="Rectangle-Copy-7" fill="#5CAE3B" fill-rule="nonzero" opacity="0.799920945" x="87.0483871" y="7.46808511" width="38.9645161" height="42.3191489"></rect>
                    <rect id="Rectangle" stroke="#3F3D56" stroke-width="0.7" x="146.73871" y="32.3617021" width="39.7935484" height="42.3191489"></rect>
                    <rect id="Rectangle-Copy-2" stroke="#3F3D56" stroke-width="0.7" x="98.6548387" y="78" width="39.7935484" height="42.3191489"></rect>
                    <rect id="Rectangle-Copy-4" stroke="#3F3D56" stroke-width="0.7" x="3.31612903" y="0" width="39.7935484" height="42.3191489"></rect>
                    <rect id="Rectangle-Copy-6" stroke="#3F3D56" stroke-width="0.7" x="37.3064516" y="58.9148936" width="39.7935484" height="42.3191489"></rect>
                    <rect id="Rectangle-Copy-8" stroke="#3F3D56" stroke-width="0.7" x="90.3645161" y="2.4893617" width="39.7935484" height="42.3191489"></rect>
                    <path d="M177.912921,26.5564626 C180.128381,26.6448034 181.774532,28.4873939 181.534872,30.5092313 C181.317757,32.3409577 180.516824,34.6202376 177.993913,35.495729 C173.498333,37.055767 173.741337,28.2526947 174.591851,27.918393 C175.158871,27.6955386 176.049887,26.4821765 177.912921,26.5564626 Z" id="Path" fill="#FFB9B9" fill-rule="nonzero"></path>
                    <path d="M233.311586,29.0425532 L234.613974,29.6611157 C234.613974,29.6611157 237.455549,35.3343784 237.573949,36.1448457 C237.692349,36.9553129 239.586732,39.9656146 238.876338,40.7760819 C238.165944,41.5865491 237.100354,43.670604 237.810747,44.4810693 C238.521139,45.2915345 240.178727,48.5334015 240.178727,49.6912095 C240.178727,50.8490176 238.402743,53.9751029 239.586732,54.3224457 C240.770721,54.6697886 240.415526,59.1852432 240.178727,59.532586 C239.941927,59.8799288 236.863555,65.5531915 236.863555,65.5531915 C236.863555,65.5531915 236.27156,59.0694616 230.470011,61.7324225 C230.470011,61.7324225 229.996414,58.4905575 230.470011,58.2589963 C230.943607,58.0274351 232.127597,56.6380639 231.180403,56.4065006 C230.233209,56.1749374 228.930828,53.3961989 229.16762,53.0488541 C229.404411,52.7015093 229.996414,52.2383869 229.404419,51.8910381 C228.812425,51.5436893 228.338828,49.575422 228.457228,49.2280791 C228.575627,48.8807363 227.154839,47.2598039 227.154839,47.2598039 L233.311586,29.0425532 Z" id="Path" fill="#196690" fill-rule="nonzero"></path>
                </g>
                <path d="M24.774125,24.12125 L23.229875,20.083 C23.1187078,19.8074986 23.0075422,19.4595021 22.896375,19.039 C22.8432081,19.2468344 22.7888336,19.4401658 22.73325,19.619 C22.6776664,19.7978342 22.6232919,19.9573326 22.570125,20.0975 L21.033125,24.12125 L24.774125,24.12125 Z M27.826375,28 L26.637375,28 C26.502041,28 26.3908754,27.966167 26.303875,27.8985 C26.2168746,27.830833 26.1540419,27.7438339 26.115375,27.6375 L25.194625,25.22325 L20.605375,25.22325 L19.684625,27.6375 C19.6507915,27.7293338 19.5879588,27.812708 19.496125,27.887625 C19.4042912,27.962542 19.2931257,28 19.162625,28 L17.973625,28 L22.120625,17.589 L23.679375,17.589 L27.826375,28 Z" id="A" fill="#FFFFFF" fill-rule="nonzero"></path>
                <path d="M52.235125,88 L52.235125,77.5165 L55.852875,77.5165 C56.5392118,77.5165 57.1252476,77.5817493 57.611,77.71225 C58.0967524,77.8427507 58.4954984,78.0288321 58.80725,78.2705 C59.1190016,78.5121679 59.3473743,78.8045816 59.492375,79.14775 C59.6373757,79.4909184 59.709875,79.8775812 59.709875,80.30775 C59.709875,80.5542512 59.6736254,80.7898739 59.601125,81.014625 C59.5286246,81.2393761 59.4162508,81.449624 59.264,81.645375 C59.1117492,81.841126 58.9184178,82.0187492 58.684,82.17825 C58.4495822,82.3377508 58.17046,82.4730828 57.846625,82.58425 C59.2869655,82.908085 60.007125,83.6862438 60.007125,84.91875 C60.007125,85.3634189 59.9225425,85.7742481 59.753375,86.15125 C59.5842075,86.5282519 59.33771,86.8532903 59.013875,87.126375 C58.69004,87.3994597 58.291294,87.6133326 57.817625,87.768 C57.343956,87.9226674 56.802628,88 56.193625,88 L52.235125,88 Z M54.185375,83.4035 L54.185375,86.4775 L56.164625,86.4775 C56.5271268,86.4775 56.8304154,86.4340004 57.0745,86.347 C57.3185846,86.2599996 57.5143326,86.1440007 57.66175,85.999 C57.8091674,85.8539993 57.9154997,85.6848343 57.98075,85.4915 C58.0460003,85.2981657 58.078625,85.0927511 58.078625,84.87525 C58.078625,84.6480822 58.0423754,84.4438759 57.969875,84.262625 C57.8973746,84.0813741 57.7837924,83.926709 57.629125,83.798625 C57.4744576,83.670541 57.2762929,83.572667 57.034625,83.505 C56.7929571,83.437333 56.5005434,83.4035 56.157375,83.4035 L54.185375,83.4035 Z M54.185375,82.055 L55.744125,82.055 C56.406295,82.055 56.9089566,81.9341679 57.252125,81.6925 C57.5952934,81.4508321 57.766875,81.066586 57.766875,80.53975 C57.766875,79.9935806 57.6122099,79.6045012 57.302875,79.3725 C56.9935401,79.1404988 56.5102116,79.0245 55.852875,79.0245 L54.185375,79.0245 L54.185375,82.055 Z" id="B" fill="#FFFFFF" fill-rule="nonzero"></path>
                <path d="M113.622875,28.767 C113.709875,28.767 113.784791,28.800833 113.847625,28.8685 L114.456625,29.5355 C114.03129,30.0381692 113.51292,30.4272486 112.9015,30.70275 C112.29008,30.9782514 111.554213,31.116 110.693875,31.116 C109.939871,31.116 109.25717,30.9855013 108.64575,30.7245 C108.03433,30.4634987 107.512335,30.0985857 107.07975,29.62975 C106.647165,29.1609143 106.31246,28.6002533 106.075625,27.94775 C105.83879,27.2952467 105.720375,26.5775039 105.720375,25.7945 C105.720375,25.0114961 105.844832,24.2937533 106.09375,23.64125 C106.342668,22.9887467 106.691873,22.4280857 107.141375,21.95925 C107.590877,21.4904143 108.12858,21.1255013 108.7545,20.8645 C109.38042,20.6034987 110.072788,20.473 110.831625,20.473 C111.571129,20.473 112.228455,20.5938321 112.803625,20.8355 C113.378795,21.0771679 113.87904,21.3985813 114.304375,21.79975 L113.796875,22.5175 C113.763041,22.5706669 113.72075,22.6141665 113.67,22.648 C113.61925,22.6818335 113.552792,22.69875 113.470625,22.69875 C113.378791,22.69875 113.271251,22.6528338 113.148,22.561 C113.024749,22.4691662 112.862834,22.3664589 112.66225,22.252875 C112.461666,22.1392911 112.21396,22.0365838 111.919125,21.94475 C111.62429,21.8529162 111.256961,21.807 110.817125,21.807 C110.299956,21.807 109.826294,21.8976241 109.396125,22.078875 C108.965956,22.2601259 108.595002,22.5211233 108.28325,22.861875 C107.971498,23.2026267 107.729834,23.6207059 107.55825,24.116125 C107.386666,24.6115441 107.300875,25.1709969 107.300875,25.7945 C107.300875,26.4276698 107.390291,26.9907475 107.569125,27.48375 C107.747959,27.9767525 107.994457,28.3948316 108.308625,28.738 C108.622793,29.0811684 108.99254,29.3421658 109.417875,29.521 C109.84321,29.6998342 110.302373,29.78925 110.795375,29.78925 C111.095043,29.78925 111.364499,29.7711252 111.60375,29.734875 C111.843001,29.6986248 112.062916,29.6442504 112.2635,29.57175 C112.464084,29.4992496 112.653791,29.4062089 112.832625,29.292625 C113.011459,29.1790411 113.187874,29.0425008 113.361875,28.883 C113.400542,28.8491665 113.441625,28.8213751 113.485125,28.799625 C113.528625,28.7778749 113.574541,28.767 113.622875,28.767 Z" id="C" fill="#FFFFFF" fill-rule="nonzero"></path>
                <path d="M123.753875,98.7945 C123.753875,99.5726706 123.629418,100.280747 123.3805,100.91875 C123.131582,101.556753 122.779961,102.104123 122.325625,102.560875 C121.871289,103.017627 121.327545,103.371665 120.694375,103.623 C120.061205,103.874335 119.357962,104 118.584625,104 L114.669625,104 L114.669625,93.589 L118.584625,93.589 C119.357962,93.589 120.061205,93.7146654 120.694375,93.966 C121.327545,94.2173346 121.871289,94.5713727 122.325625,95.028125 C122.779961,95.4848773 123.131582,96.0334551 123.3805,96.673875 C123.629418,97.3142949 123.753875,98.0211628 123.753875,98.7945 Z M122.173375,98.7945 C122.173375,98.1758302 122.088793,97.6212108 121.919625,97.130625 C121.750457,96.6400392 121.510002,96.2243767 121.19825,95.883625 C120.886498,95.5428733 120.509502,95.2830842 120.06725,95.10425 C119.624998,94.9254158 119.130794,94.836 118.584625,94.836 L116.221125,94.836 L116.221125,102.753 L118.584625,102.753 C119.130794,102.753 119.624998,102.663584 120.06725,102.48475 C120.509502,102.305916 120.886498,102.046127 121.19825,101.705375 C121.510002,101.364623 121.750457,100.950169 121.919625,100.462 C122.088793,99.9738309 122.173375,99.4180031 122.173375,98.7945 Z" id="D" fill="#FFFFFF" fill-rule="nonzero"></path>
                <polygon id="E" fill="#FFFFFF" fill-rule="nonzero" points="170.45975 59.74575 170.4525 61 164 61 164 50.589 170.4525 50.589 170.4525 51.84325 165.5515 51.84325 165.5515 55.142 169.4955 55.142 169.4955 56.35275 165.5515 56.35275 165.5515 59.74575"></polygon>
            </g>
        </g>
    </g>
</svg>