<?xml version="1.0" encoding="UTF-8"?>
<svg width="275px" height="229px" viewBox="0 0 275 229" version="1.1" xmlns="http://www.w3.org/2000/svg" xmlns:xlink="http://www.w3.org/1999/xlink">
    <!-- Generator: Sketch 54 (76480) - https://sketchapp.com -->
    <title>undraw_questions_75e0</title>
    <desc>Created with Sketch.</desc>
    <defs>
        <linearGradient x1="50.0120973%" y1="100.018084%" x2="50.0120973%" y2="-0.0230630906%" id="linearGradient-1">
            <stop stop-color="#808080" stop-opacity="0.25" offset="0%"></stop>
            <stop stop-color="#808080" stop-opacity="0.12" offset="54%"></stop>
            <stop stop-color="#808080" stop-opacity="0.1" offset="100%"></stop>
        </linearGradient>
    </defs>
    <g id="alternativo" stroke="none" stroke-width="1" fill="none" fill-rule="evenodd">
        <g id="Intro-simulador-version-terceros-1" transform="translate(-56.000000, -134.000000)">
            <g id="undraw_questions_75e0" transform="translate(56.000000, 134.000000)">
                <ellipse id="Oval" fill="#BF0C3F" opacity="0.1" cx="195.210872" cy="226.171016" rx="28.0600239" ry="2.76605735"></ellipse>
                <path d="M120.253728,3.3488172 C132.612067,-1.2448626 147.657121,2.70586619 160.505197,8.46780167 C200.857897,26.5689247 230.255806,60.9298686 253.612712,95.9364994 C262.06957,108.61221 270.102354,121.846057 273.281541,135.996452 C279.754827,164.797921 262.871207,194.614432 234.157288,205.06307 C224.39264,208.619821 213.664934,210.078088 202.920812,210.890669 C183.815591,212.337993 164.034588,211.763441 145.082581,206.403692 C131.56693,202.573345 118.78178,196.411959 106.5192,189.604886 C72.2731661,170.58448 40.9983871,145.884217 18.4786858,115.712031 C8.6018638,102.478184 0.246236559,87.5589845 0.00547192354,72.2895818 C-0.235292712,57.0201792 9.71540024,41.6769056 26.0873955,39.0804779 C32.8561649,38.0079809 40.0161768,39.1242533 47.0010872,40.2733572 C57.2855675,41.9669176 67.7095818,43.7480287 77.8764158,43.009319 C88.379773,42.2405137 102.04043,38.1365711 103.955603,28.1092712 C105.982951,17.3432616 107.911804,7.93702509 120.253728,3.3488172 Z" id="Path" fill="#6BA4B8" opacity="0.3"></path>
                <path d="M66.7629391,210.343477 C66.7629391,210.343477 79.9666906,209.547312 78.4099283,218.800335 C78.4099283,218.800335 78.719092,220.441912 77.2362007,221.177885 C77.2362007,221.177885 77.214313,220.491159 75.8818996,220.723716 C75.4086245,220.805055 74.9272581,220.828939 74.4482557,220.794851 C73.8004587,220.749992 73.1848654,220.495496 72.6945042,220.069821 L72.6945042,220.069821 C72.6945042,220.069821 68.9818041,218.537682 67.5399522,212.469319 C67.5399522,212.469319 66.4701912,211.147849 66.5139665,210.805854 L68.7410394,211.757969 C68.7410394,211.757969 67.9804421,213.366714 68.5796177,214.701864 C68.5796177,214.701864 68.6507527,211.81816 69.0802987,211.883823 C69.1651135,211.897503 70.2376105,212.431016 70.2376105,212.431016 C70.2376105,212.431016 68.9270848,215.229904 69.914767,217.26546 C69.914767,217.26546 69.5399403,213.815412 70.6452688,212.633477 L72.2157109,213.550024 C72.2157109,213.550024 70.6835723,216.441935 71.7232378,218.800335 C71.7232378,218.800335 71.4496416,215.180657 72.5440263,213.771637 L73.9667264,214.866022 C73.9667264,214.866022 72.5276105,217.716894 73.4058542,219.675842 C73.4058542,219.675842 73.5180287,215.459725 74.2731541,215.142354 C74.2731541,215.142354 75.5180167,216.236738 75.7067981,216.690908 C75.7067981,216.690908 74.7218519,218.759295 75.3319713,219.850944 C75.3319713,219.850944 75.7067981,217.043847 76.0159618,217.030167 C76.0159618,217.030167 77.2526165,218.890621 77.3839427,220.165579 C77.3839427,220.165579 77.3292234,218.269558 76.3141816,216.85233 C76.3141816,216.85233 77.5125329,217.057527 78.2129391,217.83454 C78.2129391,217.83454 78.0186858,216.518542 76.0104898,216.403632 C76.0104898,216.403632 74.9872401,214.994612 74.710908,214.907061 C74.710908,214.907061 76.7108961,214.740167 77.9229271,215.279152 C77.9229271,215.279152 76.855902,214.037025 74.3442891,214.600633 L72.9407407,213.457001 C72.9407407,213.457001 75.5754719,213.095854 76.6890084,213.495305 C76.6890084,213.495305 75.4058423,212.40092 72.563178,213.197085 L71.0365114,212.283274 C71.0365114,212.283274 73.28,211.799008 74.6178853,211.97411 C74.6178853,211.97411 73.206129,211.213513 70.5878136,212.037037 L69.4934289,211.5473 C69.4934289,211.5473 71.135006,211.224456 71.6192712,211.172473 C72.1035364,211.12049 72.1254241,210.989164 72.1254241,210.989164 C71.0839944,210.814655 70.0145555,210.933061 69.0365233,211.331159 C69.0365233,211.331159 66.7218996,210.502162 66.7629391,210.343477 Z" id="Path" fill="#BF0C3F"></path>
                <ellipse id="Oval" fill="#BF0C3F" opacity="0.1" cx="75.857276" cy="221.984994" rx="9.3460454" ry="1.57864994"></ellipse>
                <path d="M49.0749462,204.119164 C49.0749462,204.119164 56.5194982,203.670466 55.6412545,208.887945 C55.7364216,209.430663 55.4698509,209.972653 54.9818877,210.228566 C54.9818877,210.228566 54.9682079,209.842796 54.2185544,209.974122 C53.9520824,210.019716 53.6810378,210.032579 53.4114456,210.012425 C53.0452987,209.98985 52.6969772,209.84648 52.4210275,209.604767 L52.4210275,209.604767 C52.4210275,209.604767 50.3307527,208.737467 49.5099642,205.317515 C49.5099642,205.317515 48.9080526,204.570597 48.9299403,204.37908 L50.1884827,204.926272 C50.1884827,204.926272 49.7589367,205.834612 50.09546,206.587001 C50.09546,206.587001 50.1364994,204.959104 50.3690562,204.997407 C50.4183035,204.997407 51.022951,205.312043 51.022951,205.312043 C51.022951,205.312043 50.2842413,206.890693 50.8423775,208.048005 C50.8423775,208.048005 50.6289725,206.102736 51.2527718,205.435161 L52.1364875,205.952258 C52.1364875,205.952258 51.2746595,207.593835 51.8628913,208.912569 C51.8628913,208.912569 51.7124134,206.871541 52.3252688,206.078112 L53.1269056,206.701912 C53.1269056,206.701912 52.3061171,208.307921 52.81227,209.41325 C52.81227,209.41325 52.8751971,207.035699 53.3020072,206.857861 C53.3020072,206.857861 54.0024134,207.476189 54.1091159,207.730633 C54.1091159,207.730633 53.5619235,208.896153 53.8984468,209.511744 C53.8984468,209.511744 54.1091159,207.930358 54.2842174,207.922151 C54.2842174,207.922151 54.9818877,208.970024 55.0530227,209.689582 C55.0181309,209.024981 54.8106796,208.380939 54.4511111,207.82092 C54.85362,207.894532 55.2256201,208.084813 55.5208722,208.368112 C55.5208722,208.368112 55.4141697,207.626667 54.2787455,207.561004 C54.2787455,207.561004 53.7014576,206.764839 53.5482437,206.718327 C53.5482437,206.718327 54.67546,206.622569 55.3594504,206.92626 C55.3594504,206.92626 54.7575388,206.225854 53.3403106,206.543226 L52.5496177,205.897539 C52.5496177,205.897539 54.0352449,205.695078 54.6645161,205.919427 C54.6645161,205.919427 53.9394863,205.301099 52.3362127,205.752533 L51.4771207,205.235436 C52.1389465,205.090847 52.8167605,205.032906 53.4935245,205.06307 C53.4935245,205.06307 52.7000956,204.633524 51.2226762,205.098638 L50.6070848,204.825042 C50.6070848,204.825042 51.5345759,204.641732 51.8054361,204.614373 C52.0762963,204.587013 52.0927121,204.510406 52.0927121,204.510406 C51.5049843,204.412977 50.9017559,204.480213 50.3499044,204.704659 C50.3499044,204.704659 49.0530585,204.20945 49.0749462,204.119164 Z" id="Path" fill="#BF0C3F"></path>
                <ellipse id="Oval" fill="#BF0C3F" opacity="0.1" cx="54.2021386" cy="210.68" rx="5.26946237" ry="1"></ellipse>
                <path d="M232.222963,209.134182 C232.222963,209.134182 241.210597,208.586989 240.157252,214.879701 C240.267697,215.535329 239.945779,216.187984 239.358351,216.499391 C239.358351,216.499391 239.341935,216.031541 238.436332,216.190227 C238.113824,216.245103 237.785857,216.260721 237.459594,216.236738 C237.018661,216.208095 236.599436,216.035021 236.266714,215.744265 L236.266714,215.744265 C236.266714,215.744265 233.738686,214.701864 232.756476,210.570562 C232.756476,210.570562 232.02871,209.67043 232.058805,209.440609 L233.574528,210.086296 C233.574528,210.086296 233.057431,211.180681 233.46509,212.091756 C233.46509,212.091756 233.514337,210.127336 233.804349,210.176583 C233.86454,210.176583 234.592306,210.554146 234.592306,210.554146 C234.592306,210.554146 233.700382,212.469319 234.373429,213.8373 C234.373429,213.8373 234.118984,211.489845 234.871374,210.685472 L235.938399,211.306535 C235.938399,211.306535 234.895998,213.276428 235.604612,214.882437 C235.604612,214.882437 235.421302,212.420072 236.151804,211.459749 L237.120335,212.214875 C237.120335,212.214875 236.14086,214.154671 236.7373,215.498029 C236.7373,215.498029 236.816643,212.630741 237.331004,212.411864 C237.331004,212.411864 238.176416,213.158781 238.305006,213.465209 C238.305006,213.465209 237.634695,214.874229 238.050562,215.618411 C238.050562,215.618411 238.305006,213.703238 238.515675,213.703238 C238.515675,213.703238 239.358351,214.969988 239.445902,215.837288 C239.405157,215.035406 239.155194,214.258162 238.720872,213.582855 C239.207143,213.67491 239.655962,213.906926 240.012246,214.25043 C240.012246,214.25043 239.88092,213.355771 238.510203,213.276428 C238.510203,213.276428 237.815269,212.316105 237.629223,212.25865 C237.629223,212.25865 238.997204,212.14374 239.817993,212.510358 C239.817993,212.510358 239.090227,211.667682 237.380251,212.050717 L236.4254,211.270968 C236.4254,211.270968 238.217455,211.024731 238.978053,211.295591 C238.978053,211.295591 238.102545,210.548674 236.16822,211.09313 L235.128554,210.472067 C235.128554,210.472067 236.655221,210.143751 237.566296,210.261398 C237.566296,210.261398 236.605974,209.744301 234.830335,210.305173 L234.086153,209.971386 C234.086153,209.971386 235.205161,209.749773 235.533477,209.716941 C235.861792,209.68411 235.878208,209.591087 235.878208,209.591087 C235.16977,209.47289 234.442434,209.55339 233.776989,209.823644 C233.776989,209.823644 232.195603,209.238148 232.222963,209.134182 Z" id="Path" fill="#BF0C3F"></path>
                <ellipse id="Oval" fill="#BF0C3F" opacity="0.1" cx="238.411708" cy="217.060263" rx="6.36111111" ry="1.07523297"></ellipse>
                <path d="M223.26816,142.713238 C223.095778,141.74991 222.99609,140.774982 222.96994,139.796703 C222.96994,138.622975 221.374875,137.583309 221.374875,137.583309 C221.374875,137.583309 220.389928,135.304253 219.733297,134.96773 C219.076667,134.631207 217.049319,131.649008 217.049319,131.649008 C217.025997,131.060742 216.811837,130.49605 216.4392,130.040263 C215.831847,129.241791 215.277099,128.404642 214.778471,127.534122 C214.504875,127.200335 214.641673,126.965042 214.231278,125.019773 C214.209391,124.918542 214.184767,124.820048 214.154671,124.727025 C214.154671,124.68325 214.127312,124.644946 214.110896,124.601171 C214.999569,123.709725 215.300341,122.388669 214.885173,121.20037 C214.811439,120.968784 214.677339,120.761022 214.496667,120.598459 C214.034289,120.220896 213.295579,120.376846 212.819522,120.018435 L213.325675,117.780418 C213.446057,117.233226 213.508984,116.541027 213.030191,116.245544 C212.850554,116.160287 212.661331,116.096907 212.466583,116.056762 C211.645795,115.783166 211.169737,114.915866 210.956332,114.081398 C210.751185,113.277603 210.695541,112.442945 210.792174,111.619032 C210.885197,110.825603 211.117754,110.054062 211.202569,109.257897 C211.35687,107.7853 211.002537,106.304246 210.198471,105.060932 C209.885762,104.524407 209.425068,104.08936 208.871529,103.807861 C208.365376,103.580777 207.777145,103.534265 207.303823,103.260669 C206.286045,102.612246 206.338029,101.0719 205.525448,100.188184 C204.712867,99.3044683 203.273751,99.3072043 202.08908,99.6108961 C200.904409,99.9145878 199.725209,100.431685 198.510442,100.303094 C197.727957,100.215544 196.994719,99.8598686 196.209498,99.7777897 C195.984842,99.7564441 195.758306,99.7665737 195.536452,99.8078853 L195.536452,99.7832616 C194.956428,99.8872282 194.422915,100.210072 194.286117,100.76 C194.255409,100.890816 194.242525,101.025183 194.247814,101.15945 C194.247814,101.479558 194.324421,101.813345 194.329892,102.119773 C194.350305,102.365717 194.270373,102.609462 194.10828,102.795556 C193.95233,102.962449 193.722509,103.05 193.561087,103.222366 C193.428083,103.355544 193.355837,103.537644 193.361362,103.725783 C193.361362,104.212784 193.968746,104.64233 194.376404,104.839319 L194.39282,104.839319 C194.283381,104.948757 194.173943,105.063668 194.072712,105.181314 C192.904005,106.501153 192.259624,108.203603 192.261505,109.966511 C192.281785,112.876461 194.027262,115.496826 196.704707,116.636786 L196.647252,116.814624 C196.53204,117.166392 196.397779,117.511633 196.245066,117.848817 C195.672123,117.656118 195.043331,117.726206 194.526882,118.040335 C193.744397,118.587527 192.214994,118.543751 191.807336,118.442521 C191.399677,118.34129 187.156201,117.805042 186.814205,117.939104 C186.47221,118.073166 185.796428,117.471254 185.355938,118.275627 C184.915448,119.08 184.710251,119.515018 184.261553,119.717479 C183.812855,119.91994 183.038578,120.554683 183.142545,120.688746 C183.246511,120.822808 182.0208,121.62718 182.0208,121.62718 C182.0208,121.62718 180.967455,122.721565 180.357336,122.866571 C179.747216,123.011577 178.455842,123.840573 178.455842,123.840573 L176.959271,125.011565 C176.959271,125.011565 175.840263,125.181195 176.179522,124.409654 C176.518781,123.638112 175.566667,122.666846 175.566667,122.666846 C175.566667,122.666846 173.665173,118.811876 173.665173,118.015711 C173.665173,117.219546 172.102939,113.824217 172.102939,113.824217 L171.911422,113.805066 L171.823871,113.556093 C171.536595,112.748984 171.164504,111.758566 170.879964,111.178542 C170.332772,110.070478 169.996249,109.955568 169.996249,109.955568 C169.996249,109.955568 163.408053,105.008949 159.129008,106.516464 C154.849964,108.023978 166.940179,112.516428 168.026356,112.987013 C168.406655,113.151171 168.680251,113.681947 168.871768,114.303011 C167.907941,114.767806 167.096511,115.497618 166.532521,116.406965 C166.532521,116.406965 169.1481,122.204468 169.216499,123.64632 C169.284898,125.088172 171.016762,129.118244 171.016762,129.118244 C171.016762,129.118244 171.662449,132.103178 175.159008,131.933548 C175.159008,131.933548 179.982509,132.82 181.035854,131.933548 C182.0892,131.047097 183.038578,130.352162 183.550203,130.250932 C183.926489,130.127292 184.257143,129.893832 184.499582,129.580621 C184.499582,129.580621 182.904516,139.635281 182.122031,140.508053 C181.339546,141.380824 174.425771,152.669403 176.907288,154.688542 C178.872606,156.210344 180.949586,157.582193 183.120657,158.792485 C183.331326,158.896452 183.963333,157.843106 184.866201,157.096189 C184.866201,157.28497 184.866201,157.476487 184.866201,157.678949 C184.882616,161.695341 185.413393,167.802007 186.146631,169.169988 C187.241016,171.18092 186.792318,175.068722 186.792318,175.068722 C187.367713,175.33951 187.992526,175.489428 188.628148,175.509211 C188.66098,175.640538 188.699283,175.782808 188.734851,175.919606 C189.334026,178.182246 190.305293,181.681541 190.800502,182.611768 C191.547419,184.020789 192.08914,188.480406 192.08914,188.480406 C192.08914,188.480406 192.532366,192.857945 192.362736,193.473536 C192.297073,193.706093 192.584349,195.528244 193.035783,197.851075 L193.035783,197.851075 C192.762186,200.994695 192.242354,207.054851 192.154803,209.246356 L192.154803,209.246356 C192.154803,209.287395 192.154803,209.328435 192.154803,209.366738 L192.154803,209.405042 C192.156166,209.429647 192.156166,209.454308 192.154803,209.478913 C192.154803,209.52816 192.154803,209.571935 192.154803,209.612975 L192.154803,209.612975 C192.146314,209.750886 192.151814,209.889302 192.171219,210.026105 C192.205121,210.234797 192.189183,210.448548 192.124707,210.649904 C191.931125,211.255761 191.68486,211.843502 191.388734,212.406392 C191.263994,212.682944 191.154393,212.966079 191.060418,213.25454 C190.786822,213.374922 190.453035,213.66767 190.266989,214.381756 C189.92773,215.689546 189.418841,219.306487 189.418841,219.306487 C189.418841,219.306487 189.213644,221.519881 188.808722,222.023297 C188.403799,222.526714 187.987933,225.675806 190.879845,226.077993 C193.771756,226.480179 195.022091,224.545854 195.022091,224.545854 L194.92086,215.768889 L194.92086,215.752473 C194.979304,215.67868 195.029746,215.59889 195.071338,215.514444 L195.071338,215.492557 C195.09049,215.451517 195.112378,215.407742 195.131529,215.358495 L195.156153,215.292832 L195.199928,215.186129 C195.198354,215.17341 195.198354,215.160545 195.199928,215.147826 C195.480555,214.307129 195.56479,213.413304 195.446165,212.534982 L195.446165,212.491207 L195.446165,212.422808 C195.446165,212.40092 195.446165,212.376296 195.446165,212.354409 L195.446165,212.217611 C195.446165,212.201195 195.446165,212.182043 195.446165,212.165627 C195.446165,212.10726 195.451637,212.047069 195.462581,211.985054 C195.462581,211.985054 195.462581,211.963166 195.462581,211.952222 L195.478996,211.84552 L195.478996,211.799008 C195.478996,211.763441 195.478996,211.727873 195.500884,211.68957 C195.499844,211.68048 195.499844,211.671301 195.500884,211.66221 C195.528244,211.536356 195.561075,211.388614 195.596643,211.268232 L195.596643,211.238136 L195.637682,211.10681 L195.637682,211.10681 C195.678722,210.967276 195.725233,210.833214 195.77448,210.685472 L195.77448,210.658112 C195.77448,210.614337 195.804576,210.570562 195.820992,210.529522 L195.820992,210.513106 C195.870239,210.379044 195.922222,210.23951 195.97147,210.1246 L195.985149,210.089032 L196.028925,209.979594 L196.042605,209.946762 L196.146571,209.703262 L196.146571,209.703262 L196.948208,212.179307 C196.948208,212.179307 197.391434,214.023345 197.153405,214.458363 C196.915376,214.893381 197.427001,216.704588 197.763524,216.737419 L197.448889,219.016476 C197.278805,220.273113 197.177423,221.538096 197.145197,222.805783 C197.123309,222.950789 197.101422,223.079379 197.085006,223.16693 C196.866129,224.335185 197.391434,226.146392 197.391434,226.146392 C200.072676,229.317372 203.26828,226.392628 203.26828,226.392628 C203.26828,226.392628 203.64037,224.715484 203.26828,224.381697 C202.896189,224.047909 203.063082,222.838614 203.063082,222.838614 C203.063082,222.838614 203.232712,219.85368 203.265544,217.675854 C203.298375,215.498029 201.484432,213.571912 201.484432,213.571912 L201.383202,213.662198 C201.052151,212.808578 200.674588,211.812688 200.753931,211.366726 C200.890729,210.595185 200.379104,202.450227 200.379104,202.450227 C200.56816,200.266724 200.60838,198.072884 200.499486,195.883919 L200.499486,195.883919 C200.543262,195.514564 200.584301,195.150681 200.625341,194.789534 C200.830538,193.038519 200.997431,191.541947 201.063094,190.756726 L201.063094,190.756726 L201.063094,190.663704 C201.07951,190.453035 201.087718,190.302557 201.084982,190.231422 C201.084982,189.957826 201.084982,189.645926 201.112342,189.303931 C201.175269,188.36276 201.323011,187.314886 201.323011,187.314886 L202.034361,182.989331 C202.034361,182.989331 202.581553,180.877168 203.361302,179.706177 L203.454325,179.558435 L203.454325,179.558435 C203.484421,179.506452 203.514516,179.448996 203.547348,179.388805 L203.561027,179.364182 C203.591123,179.306726 203.623955,179.246535 203.65405,179.183608 L203.66773,179.158984 C203.777168,178.942843 203.894815,178.693871 204.017933,178.420275 C204.017933,178.398387 204.037085,178.379235 204.045293,178.357348 L204.138315,178.149415 C204.138315,178.122055 204.160203,178.094695 204.173883,178.067336 C204.187563,178.039976 204.231338,177.927802 204.261434,177.859403 C204.274931,177.831848 204.286807,177.803528 204.297001,177.774588 C204.332569,177.692509 204.370872,177.607694 204.40644,177.520143 L204.458423,177.394289 C204.483047,177.331362 204.510406,177.268435 204.537766,177.205508 L204.603429,177.038614 C204.622581,176.997575 204.638996,176.956535 204.655412,176.915496 L204.729283,176.726714 C204.729283,176.699355 204.753907,176.669259 204.764851,176.6419 C204.959104,176.157634 205.145149,175.678841 205.312043,175.243823 L205.312043,175.243823 C205.364026,175.107025 205.41601,174.970227 205.462521,174.849845 C207.202593,174.956547 208.384528,175.052306 208.384528,175.052306 C208.384528,175.052306 208.93172,171.131673 208.756619,168.551661 C208.641708,166.789701 208.970024,164.573572 209.186165,163.353333 C209.210789,163.219271 209.232676,163.098889 209.254564,162.98945 L209.301075,163.027754 C210.151959,163.698065 210.762079,161.484671 210.762079,161.484671 C210.762079,161.484671 210.532258,159.41902 210.214886,156.915615 L210.182055,156.666643 C210.672413,156.771236 211.168469,156.847061 211.667682,156.893728 C211.667682,156.893728 211.941278,156.869104 212.316105,156.822593 C213.352985,157.422849 214.447355,157.91779 215.582843,158.300012 L217.391314,154.962139 C217.731169,154.270189 218.129321,153.608432 218.581458,152.984038 C219.12865,152.313728 221.060239,150.168734 221.027407,149.766547 C220.994576,149.364361 221.673094,147.049737 222.351613,146.010072 C223.030131,144.970406 223.300992,142.880131 223.26816,142.713238 Z M215.727849,145.260418 C215.013763,145.561374 214.335245,147.238519 214.302413,147.741935 C214.269582,148.245352 213.519928,150.45601 212.740179,150.724134 C212.020621,150.97037 210.647168,152.234385 210.428292,152.436846 C210.203943,152.455998 209.949498,152.486093 209.68411,152.529869 C209.38589,150.41497 209.090406,148.663955 208.901625,148.311016 C208.354432,147.304182 209.5008,144.086691 209.5008,144.086691 C209.5008,144.086691 209.612975,140.836368 210.321589,140.064827 C211.030203,139.293286 210.868781,137.348017 210.868781,137.348017 C210.868781,137.348017 211.038411,136.543644 211.10681,136.177025 C211.175209,135.810406 212.11638,136.177025 212.124588,136.177025 L212.124588,136.177025 C212.124588,136.177025 213.957682,137.181123 214.231278,138.688638 C214.504875,140.196153 216.507599,142.811732 216.507599,142.811732 C216.507599,142.811732 216.201171,143.717336 216.507599,144.179713 C216.814026,144.642091 216.441935,144.959462 215.727849,145.260418 L215.727849,145.260418 Z" id="Shape" fill="url(#linearGradient-1)" fill-rule="nonzero"></path>
                <path d="M166.609128,116.612162 C167.749394,114.731448 169.904876,113.716216 172.081051,114.034886 L172.081051,117.950048 L169.703501,117.950048 L167.843047,117.479462 L166.609128,116.612162 Z" id="Path" fill="#4C4981"></path>
                <path d="M166.609128,116.612162 C167.749394,114.731448 169.904876,113.716216 172.081051,114.034886 L172.081051,117.950048 L169.703501,117.950048 L167.843047,117.479462 L166.609128,116.612162 Z" id="Path" fill="#000000" opacity="0.1"></path>
                <path d="M172.258889,115.071816 L169.34509,117.112843 C169.34509,117.112843 169.320466,116.705185 169.246595,116.147049 C169.101589,115.090968 168.77601,113.506846 168.072867,113.200418 C167.003106,112.729833 155.093465,108.248327 159.31779,106.740812 C163.542115,105.233297 170.023608,110.174444 170.023608,110.174444 C170.023608,110.174444 170.357395,110.289355 170.890908,111.391947 C171.164504,111.971971 171.539331,112.959654 171.821135,113.766762 C172.081051,114.494528 172.258889,115.071816 172.258889,115.071816 Z" id="Path" fill="#AE6E79"></path>
                <polygon id="Path" fill="#4C4981" points="195.536452 118.215436 195.867503 118.059486 196.79773 119.121039 196.037133 120.743465 194.740287 120.223632 195.041243 118.926786"></polygon>
                <path d="M191.128817,213.238124 C191.128817,213.238124 190.291613,213.13963 189.957826,214.444683 C189.624038,215.749737 189.120621,219.369415 189.120621,219.369415 C189.120621,219.369415 188.920896,221.577336 188.51871,222.080753 C188.116523,222.58417 187.717073,225.72779 190.559737,226.12724 C193.402401,226.526691 194.641792,224.597838 194.641792,224.597838 L194.540562,215.823608 L191.128817,213.238124 Z" id="Path" fill="#444053"></path>
                <path d="M201.049415,213.632103 C201.049415,213.632103 202.838734,215.547276 202.805902,217.71963 C202.77307,219.891983 202.603441,222.871446 202.603441,222.871446 C202.603441,222.871446 202.439283,224.078005 202.805902,224.411792 C203.172521,224.745579 202.805902,226.419988 202.805902,226.419988 C202.805902,226.419988 199.659546,229.339259 197.016607,226.173751 C197.016607,226.173751 196.502246,224.365281 196.715651,223.199761 C196.929056,222.034241 197.525496,216.794875 197.525496,216.794875 L201.049415,213.632103 Z" id="Path" fill="#444053"></path>
                <path d="M205.481673,173.624134 C205.481673,173.624134 203.675938,178.674719 202.904397,179.845711 C202.132855,181.016703 201.602079,183.128865 201.602079,183.128865 L200.898937,187.443477 C200.76167,188.408176 200.683095,189.380318 200.663644,190.35454 C200.696476,191.325806 198.923572,205.476201 198.923572,205.476201 L196.11374,209.057575 C196.11374,209.057575 194.877085,211.566452 195.07681,212.614325 C195.276535,213.662198 194.942748,215.325663 194.529618,215.826344 C194.529618,215.826344 194.463955,219.109498 194.362724,219.84 C194.261493,220.570502 194.732079,222.652569 194.362724,223.019188 C193.993369,223.385806 189.076846,223.221649 188.942784,222.617001 C188.808722,222.012354 189.544695,219.104026 189.544695,219.104026 L189.979713,216.294194 C189.979713,216.294194 190.849749,214.756583 190.650024,214.253166 C190.450299,213.749749 191.016643,212.581493 191.049474,212.480263 C191.082306,212.379032 191.987909,210.740191 191.821016,210.105448 C191.654122,209.470705 192.874361,195.97147 192.874361,195.97147 L196.318937,171.782832 L205.481673,173.624134 Z" id="Path" fill="#AE6E79"></path>
                <path d="M205.481673,173.624134 C205.481673,173.624134 205.208076,174.384731 204.83325,175.383357 C204.23681,176.959271 203.377718,179.128889 202.904397,179.845711 C202.135591,181.016703 201.599343,183.128865 201.599343,183.128865 L200.896201,187.446213 C200.760301,188.411017 200.682642,189.383132 200.663644,190.357276 C200.663644,190.740311 200.406464,193.183524 200.078148,195.998829 C199.571995,200.302497 198.923572,205.478937 198.923572,205.478937 L196.11374,209.060311 C196.11374,209.060311 195.97147,209.333907 195.793632,209.766189 C195.440693,210.586977 194.942748,211.919391 195.07681,212.606117 C195.276535,213.643047 194.942748,215.314719 194.529618,215.818136 C194.529618,215.818136 194.461219,219.10129 194.362724,219.831792 C194.264229,220.562294 194.732079,222.641625 194.362724,223.01098 C193.993369,223.380335 189.076846,223.213441 188.942784,222.611529 C188.808722,222.009618 189.544695,219.098554 189.544695,219.098554 L189.979713,216.285986 C189.979713,216.285986 190.849749,214.748375 190.647288,214.244958 C190.444827,213.741541 191.016643,212.573286 191.049474,212.472055 C191.082306,212.370824 191.987909,210.731983 191.821016,210.09724 C191.692425,209.612975 192.368208,201.686894 192.682843,197.927682 C192.789546,196.745747 192.857945,195.976941 192.857945,195.976941 L195.820992,175.167216 L196.061756,173.490072 L196.302521,171.788303 L205.481673,173.624134 Z" id="Path" fill="#000000" opacity="0.1"></path>
                <path d="M202.472115,223.941207 C202.50221,224.310562 197.752581,224.84681 197.074062,224.444624 C196.395544,224.042437 197.074062,219.057515 197.074062,219.057515 L197.383226,216.783931 C197.052174,216.748363 196.548757,214.942628 196.781314,214.507611 C197.013871,214.072593 196.581589,212.234026 196.581589,212.234026 L195.793632,209.771661 L195.312103,208.264146 C194.529618,206.537754 193.39693,201.613023 192.693787,197.93589 C192.250562,195.626738 191.968757,193.807324 192.031685,193.574767 C192.198578,192.972855 191.758088,188.589845 191.758088,188.589845 C191.758088,188.589845 191.210896,184.138435 190.488602,182.734886 C189.998865,181.804659 189.044014,178.310836 188.453047,176.056404 C188.152091,174.899092 187.944158,174.06736 187.944158,174.06736 C187.944158,174.06736 193.000215,173.643286 196.067228,173.495544 C197.476249,173.427145 198.466667,173.418937 198.351756,173.533847 C198.236846,173.648757 198.20675,174.261613 198.212222,175.148065 C198.225902,177.443536 198.54601,181.481816 198.885269,182.567993 C199.353118,184.072772 199.820968,188.587109 199.621243,189.024863 C199.421517,189.462616 199.48718,192.370944 199.48718,192.370944 C199.831901,193.55243 200.030373,194.771744 200.078148,196.001565 C200.185146,198.180435 200.146757,200.364015 199.963238,202.537778 C199.963238,202.537778 200.463919,210.669056 200.329857,211.437861 C200.195795,212.206667 201.399618,214.617049 201.399618,215.084898 C201.399618,215.552748 201.733405,218.731935 201.733405,218.731935 C201.733405,218.731935 202.450227,223.574588 202.472115,223.941207 Z" id="Path" fill="#AE6E79"></path>
                <path d="M205.112318,126.212652 L204.537766,126.833716 L204.162939,127.238638 L201.97417,129.591565 L196.318937,130.229044 L193.309379,129.424671 L192.565197,129.224946 C192.565197,129.224946 192.565197,127.714695 192.699259,125.903489 C192.890777,123.580657 193.347682,120.759881 194.439331,119.991075 C194.985983,119.563193 195.422222,119.010624 195.711553,118.379594 C195.929896,117.944473 196.112884,117.492494 196.258746,117.028029 C196.280633,116.967838 196.297049,116.910382 196.316201,116.850191 C196.562405,116.039368 196.739957,115.209268 196.846977,114.368674 C196.846977,114.368674 197.569271,113.969223 198.573369,113.50411 C201.191685,112.281135 205.714229,110.593047 204.141051,114.368674 C203.909839,114.921596 203.712485,115.488075 203.550084,116.06497 C203.52546,116.149785 203.503572,116.2346 203.484421,116.316679 C202.959116,118.417897 203.306583,119.692855 203.697826,120.395998 L203.697826,120.395998 C203.763962,120.517793 203.839908,120.633999 203.92491,120.743465 C204.031779,120.890259 204.159957,121.020281 204.305209,121.129235 L204.956368,125.263274 L205.011087,125.605269 L205.112318,126.212652 Z" id="Path" fill="#AE6E79"></path>
                <path d="M204.143787,114.571135 C203.845568,115.287957 204.288793,113.985639 204.143787,114.571135 C202.950908,115.419283 200.141075,117.835137 198.562425,117.835137 C197.4954,117.835137 197.175293,117.640884 196.261481,117.227754 C196.538026,116.361969 196.734921,115.472736 196.849713,114.571135 C196.849713,114.571135 206.318877,109.35092 204.143787,114.571135 Z" id="Path" fill="#000000" opacity="0.1"></path>
                <path d="M206.55417,110.174444 C206.551147,113.905999 203.734231,117.034464 200.023429,117.427479 C199.77172,117.452103 199.517276,117.468519 199.260096,117.468519 C195.23169,117.468519 191.966022,114.20285 191.966022,110.174444 C191.966022,106.146039 195.23169,102.88037 199.260096,102.88037 C203.288501,102.88037 206.55417,106.146039 206.55417,110.174444 L206.55417,110.174444 Z" id="Path" fill="#AE6E79"></path>
                <path d="M207.591099,142.508041 L206.551434,145.219379 C206.551434,145.219379 205.706022,145.254946 204.387288,145.295986 C199.935878,145.438256 190.127455,145.618829 189.689701,144.475197 C189.591555,144.185092 189.539847,143.881305 189.536487,143.575066 C189.479032,141.832258 190.291613,139.156487 190.291613,139.156487 C190.291613,139.156487 190.759462,133.80221 190.759462,133.569654 C190.759462,133.337097 190.357276,129.586093 190.357276,129.586093 L191.161649,126.576535 L193.402401,125.003357 C193.402401,125.003357 194.406499,126.543704 195.008411,126.67503 C195.610323,126.806356 196.414695,127.547802 196.414695,127.547802 C196.414695,127.547802 198.387324,128.751625 199.024803,128.081314 C199.662282,127.411004 204.611637,124.467109 204.611637,124.467109 L207.221744,127.345341 L207.591099,142.508041 Z" id="Path" fill="#000000" opacity="0.1"></path>
                <path d="M207.591099,142.923907 L206.551434,145.632509 C206.551434,145.632509 205.706022,145.670812 204.387288,145.711852 L204.258698,145.711852 C203.689618,145.731004 203.038459,145.750155 202.343524,145.763835 C198.805926,145.845914 193.933178,145.867802 191.385998,145.490239 C190.428411,145.353441 189.801876,145.156452 189.697909,144.888327 C189.640247,144.727081 189.599893,144.560161 189.577527,144.390382 C189.561111,144.264528 189.550167,144.116786 189.544695,143.988196 C189.48724,142.245388 190.299821,139.569618 190.299821,139.569618 C190.299821,139.569618 190.76767,134.215341 190.76767,133.982784 C190.76767,133.750227 190.365484,129.999223 190.365484,129.999223 L191.169857,126.989665 L192.710203,125.911697 L193.410609,125.419223 C193.646194,125.771878 193.902933,126.109933 194.179415,126.431529 C194.395356,126.721396 194.684218,126.948899 195.016619,127.090896 C195.621266,127.224958 196.422903,127.963668 196.422903,127.963668 C196.422903,127.963668 198.395532,129.167491 199.033011,128.49718 C199.517276,127.985556 202.526834,126.144253 203.916703,125.304313 C204.343513,125.044397 204.619845,124.882975 204.619845,124.882975 L204.970048,125.271481 L207.229952,127.761207 L207.591099,142.923907 Z" id="Path" fill="#FFFFFF"></path>
                <path d="M172.258889,115.071816 L169.34509,117.112843 C169.34509,117.112843 169.320466,116.705185 169.246595,116.147049 C170.685711,115.539665 171.561219,114.196308 171.812927,113.766762 C172.081051,114.494528 172.258889,115.071816 172.258889,115.071816 Z" id="Path" fill="#000000" opacity="0.1"></path>
                <path d="M182.496858,121.999271 L181.862115,121.829642 C181.862115,121.829642 180.822449,122.924026 180.220538,123.069032 C179.618626,123.214038 178.34914,124.037563 178.34914,124.037563 L176.874456,125.208554 C176.874456,125.208554 175.780072,125.378184 176.105651,124.606643 C176.431231,123.835102 175.50374,122.866571 175.50374,122.866571 C175.50374,122.866571 173.629606,119.019809 173.629606,118.215436 C173.629606,117.411063 172.081051,114.034886 172.081051,114.034886 C172.081051,114.034886 170.138519,117.815986 166.592712,116.612162 C166.592712,116.612162 169.169988,122.398722 169.235651,123.837838 C169.301314,125.276953 171.008554,129.290609 171.008554,129.290609 C171.008554,129.290609 171.646033,132.270072 175.090609,132.103178 C175.090609,132.103178 179.842975,132.986894 180.879904,132.103178 C181.916834,131.219462 182.852533,130.524528 183.34227,130.423297 C183.832007,130.322067 184.277969,129.755723 184.277969,129.755723 L184.277969,125.777634 L182.496858,121.999271 Z" id="Path" fill="#196690"></path>
                <path d="M176.540669,125.777634 C176.540669,125.777634 177.377873,128.891159 176.841625,129.224946 L176.540669,125.777634 Z" id="Path" fill="#000000" opacity="0.1"></path>
                <path d="M204.387288,145.698172 C199.935878,145.840442 190.127455,146.01828 189.689701,144.877384 C189.591555,144.587278 189.539847,144.283491 189.536487,143.977252 L204.078124,144.743321 L204.387288,145.698172 Z" id="Path" fill="#000000" opacity="0.1"></path>
                <path d="M205.481673,173.624134 C205.481673,173.624134 205.208076,174.384731 204.83325,175.383357 C202.986476,175.271183 200.540526,175.153536 198.217694,175.137121 C197.396906,175.137121 196.592533,175.137121 195.831935,175.16448 C194.217718,175.213728 192.822378,175.345054 191.93319,175.596762 C190.808925,175.942905 189.633834,176.094649 188.458519,176.04546 C188.157563,174.888148 187.94963,174.056416 187.94963,174.056416 C187.94963,174.056416 193.005687,173.632342 196.0727,173.4846 L196.313465,171.782832 L205.481673,173.624134 Z" id="Path" fill="#000000" opacity="0.1"></path>
                <path d="M209.396834,161.377969 L208.827754,162.581792 C208.827754,162.581792 208.748411,162.940203 208.64718,163.509283 C208.433775,164.734994 208.099988,166.945651 208.225842,168.707611 C208.392736,171.284886 207.856487,175.197312 207.856487,175.197312 C207.856487,175.197312 195.544659,174.160382 191.93319,175.197312 C188.32172,176.234241 186.543345,175.197312 186.543345,175.197312 C186.543345,175.197312 186.981099,171.317718 185.908602,169.309522 C185.1781,167.941541 184.66374,161.834875 184.647324,157.818483 C184.647324,155.966237 184.740346,154.562688 184.972903,154.278148 C185.708877,153.375281 188.852497,144.341135 188.852497,144.341135 L189.569319,144.379438 L191.484492,144.480669 L202.37362,145.055221 L204.083596,145.145508 L204.26417,145.6927 L209.396834,161.377969 Z" id="Path" fill="#828383"></path>
                <path d="M214.816774,157.361577 L214.918005,158.434074 C214.918005,158.434074 209.525424,156.677587 209.79902,154.518913 C210.072616,152.360239 209.79902,152.60374 209.79902,152.60374 L214.132784,152.970358 L214.816774,157.361577 Z" id="Path" fill="#4C4981"></path>
                <path d="M214.816774,157.361577 L214.918005,158.434074 C214.918005,158.434074 209.525424,156.677587 209.79902,154.518913 C210.072616,152.360239 209.79902,152.60374 209.79902,152.60374 L214.132784,152.970358 L214.816774,157.361577 Z" id="Path" fill="#000000" opacity="0.1"></path>
                <path d="M180.138459,126.642198 C180.68906,127.11001 181.338082,127.447614 182.037216,127.629881 C181.834783,127.58595 181.646628,127.491872 181.490024,127.356284 C181.104253,127.082688 180.737634,126.784468 180.365544,126.494456 C180.064588,126.259164 179.689761,125.867921 179.320406,125.772162 C179.562219,126.089726 179.836375,126.381304 180.138459,126.642198 Z" id="Path" fill="#000000" opacity="0.1"></path>
                <path d="M180.220538,128.051219 C180.393941,128.247045 180.534391,128.469733 180.636404,128.710585 C180.809045,129.391551 180.798663,130.106047 180.606308,130.781708 L179.741744,128.696906 C179.591266,128.341231 179.440789,127.985556 179.260215,127.646296 C179.180872,127.50129 178.682927,126.896643 178.740382,126.770789 C178.893596,126.415114 180.059116,127.851493 180.220538,128.051219 Z" id="Path" fill="#000000" opacity="0.1"></path>
                <path d="M204.343513,139.596977 C204.932946,139.525606 205.484148,139.267739 205.916691,138.861004 C205.027503,138.973178 204.184827,139.323381 203.309319,139.506691 C202.496448,139.69553 201.644329,139.616843 200.879785,139.282342 C201.886619,139.774815 203.271016,139.791231 204.343513,139.596977 Z" id="Path" fill="#000000" opacity="0.1"></path>
                <path d="M201.829164,133.471159 C201.669777,133.494848 201.507491,133.454523 201.37773,133.358984 C200.710155,132.97595 200.051701,132.576499 199.402366,132.160633 C198.770358,131.752975 198.007025,131.339845 197.468041,130.825484 C198.794982,132.023835 200.031637,133.036141 201.829164,133.471159 Z" id="Path" fill="#000000" opacity="0.1"></path>
                <path d="M203.684146,140.568244 C204.034707,140.584123 204.385869,140.555626 204.729283,140.483429 C205.076697,140.411153 205.383734,140.209721 205.588375,139.919821 C205.464215,139.891176 205.333786,139.91177 205.224492,139.977276 C204.164354,140.423403 203.000215,140.562758 201.864731,140.379462 C202.409188,140.612019 203.106858,140.565508 203.684146,140.568244 Z" id="Path" fill="#000000" opacity="0.1"></path>
                <path d="M197.347658,156.103035 C196.651035,156.31306 195.93525,156.453285 195.210872,156.521637 C194.647152,156.547656 194.082333,156.536689 193.520048,156.488805 L190.784086,156.31644 L189.416105,156.228889 C189.254683,156.228889 188.595317,156.228889 188.920896,155.903309 C189.085054,155.744624 189.998865,155.845854 190.234158,155.837646 C190.688327,155.823055 191.144321,155.814847 191.602139,155.813023 C192.507742,155.813023 193.416081,155.813023 194.321685,155.867742 C195.336726,155.916989 196.335352,155.993596 197.347658,156.103035 Z" id="Path" fill="#000000" opacity="0.1"></path>
                <path d="M194.176679,157.457336 C193.711565,157.438184 193.112389,157.714516 192.633596,157.774707 C192.098011,157.838043 191.558269,157.859084 191.019379,157.837634 C189.953031,157.812039 188.899721,157.597115 187.90859,157.202891 C189.996129,157.309594 192.08914,157.372521 194.176679,157.457336 Z" id="Path" fill="#000000" opacity="0.1"></path>
                <path d="M188.316249,158.89098 C188.518612,158.93187 188.717901,158.98672 188.912688,159.055137 C190.067264,159.383453 191.295711,159.093441 192.469438,158.803429 C192.176691,159.243919 191.64865,159.4327 191.120609,159.553082 C190.261766,159.770674 189.366494,159.803314 188.494086,159.648841 C188.22049,159.594122 187.533763,159.495627 187.399701,159.211087 C187.175352,158.792485 188.059068,158.84994 188.316249,158.89098 Z" id="Path" fill="#000000" opacity="0.1"></path>
                <path d="M194.789534,161.049654 C195.135735,161.120508 195.47742,161.211867 195.812784,161.32325 C197.112366,161.646093 198.461195,161.202867 199.766249,160.904648 C201.335088,160.548402 202.943864,160.39939 204.551446,160.461422 C204.26417,160.461422 203.807264,160.71313 203.52546,160.797945 C203.156105,160.910119 202.781278,161.014086 202.406452,161.107109 C201.670478,161.287682 200.92356,161.435424 200.171171,161.542127 C198.652273,161.76173 197.115198,161.828639 195.582963,161.741852 C194.882557,161.703548 193.66779,161.774683 193.068614,161.421744 C193.586561,161.113958 194.190699,160.983333 194.789534,161.049654 L194.789534,161.049654 Z" id="Path" fill="#000000" opacity="0.1"></path>
                <path d="M195.279271,119.785878 C195.279271,119.785878 195.344934,122.866571 194.844253,124.272855 C194.685568,124.710609 194.439331,125.517718 194.171207,126.423321 C193.878459,127.427419 193.558351,128.5519 193.312115,129.432879 C193.065878,130.313859 192.90172,130.904827 192.90172,130.904827 C192.90172,130.904827 191.771768,140.108602 191.47902,144.494349 C191.47902,144.570956 191.47902,144.650299 191.462605,144.72417 C191.446189,144.970406 191.418829,145.227587 191.37779,145.492975 C190.726631,149.848626 186.970155,156.565412 185.708877,157.101661 C185.315563,157.28215 184.956422,157.529292 184.647324,157.832162 C184.647324,155.979916 184.740346,154.576368 184.972903,154.291828 C185.708877,153.388961 188.852497,144.354815 188.852497,144.354815 L189.569319,144.393118 C189.552903,144.267264 189.541959,144.119522 189.536487,143.990932 C189.479032,142.248124 190.291613,139.572354 190.291613,139.572354 C190.291613,139.572354 190.759462,134.218076 190.759462,133.98552 C190.759462,133.752963 190.357276,130.001959 190.357276,130.001959 L191.161649,126.992401 L192.701995,125.914432 C192.893513,123.591601 193.350418,120.770824 194.442067,120.002019 C194.988719,119.574137 195.424958,119.021568 195.714289,118.390538 C195.93043,118.420633 195.536452,118.229116 195.536452,118.229116 L195.279271,119.785878 Z" id="Path" fill="#000000" opacity="0.1"></path>
                <path d="M195.867503,118.059486 C195.3028,117.866375 194.68126,117.936662 194.173943,118.251004 C193.402401,118.798196 191.897622,118.751685 191.495436,118.65319 C191.09325,118.554695 186.9127,118.015711 186.570705,118.149773 C186.22871,118.283835 185.566607,117.681924 185.131589,118.486296 C184.696571,119.290669 184.496846,119.722951 184.061828,119.922676 C183.62681,120.122401 182.855269,120.759881 182.967443,120.893943 C183.079618,121.028005 181.873059,121.829642 181.873059,121.829642 L184.313536,129.763931 C184.313536,129.763931 182.740358,139.799438 181.971553,140.669474 C181.202748,141.53951 174.376523,152.814409 176.819737,154.822605 C178.753984,156.343545 180.800892,157.715467 182.94282,158.926547 C183.216416,159.060609 184.179474,157.254875 185.51736,156.685795 C186.855245,156.116714 191.005699,148.587348 191.262879,144.305568 C191.52006,140.023787 192.701995,130.488961 192.701995,130.488961 C192.701995,130.488961 194.141111,125.268746 194.641792,123.862461 C195.142473,122.456177 195.07681,119.375484 195.07681,119.375484 L195.867503,118.059486 Z" id="Path" fill="#196690"></path>
                <path d="M209.396834,161.377969 L208.827754,162.581792 C208.827754,162.581792 208.748411,162.940203 208.64718,163.509283 C208.545727,163.496507 208.45043,163.453623 208.373584,163.386165 C207.53638,162.715854 202.628065,157.665269 202.384564,153.181027 C202.212198,149.87325 202.294277,147.022378 202.348996,145.752891 C202.365412,145.353441 202.381828,145.112676 202.381828,145.060693 L202.381828,145.060693 C202.381828,145.060693 206.195759,140.442389 205.760741,138.806284 C205.325723,137.170179 204.321625,128.40963 204.321625,128.40963 L204.173883,127.260526 L203.919438,125.317993 L203.312055,120.617611 L203.941326,120.765352 C204.048195,120.912146 204.176373,121.042169 204.321625,121.151123 L204.972784,125.285161 L207.232688,127.774886 L207.602043,142.932115 L206.562378,145.640717 C206.562378,145.640717 205.716965,145.67902 204.398232,145.72006 L204.269642,145.72006 L209.396834,161.377969 Z" id="Path" fill="#000000" opacity="0.1"></path>
                <path d="M211.503524,136.357599 C211.503524,136.357599 210.567826,135.988244 210.502162,136.357599 C210.436499,136.726953 210.26687,137.525854 210.26687,137.525854 C210.26687,137.525854 210.433763,139.468387 209.719677,140.237192 C209.005591,141.005998 208.898889,144.250848 208.898889,144.250848 C208.898889,144.250848 207.771673,147.462867 208.305185,148.466965 C208.499438,148.830848 208.800394,150.655735 209.10135,152.844504 C209.292867,154.212485 209.481649,155.714528 209.648542,157.087981 C209.952234,159.583178 210.179319,161.648829 210.179319,161.648829 C210.179319,161.648829 209.574671,163.85675 208.737467,163.18644 C207.900263,162.516129 202.991947,157.465544 202.751183,152.981302 C202.587025,149.83221 202.652688,147.096249 202.707407,145.747419 C202.729295,145.175603 202.751183,144.85276 202.751183,144.85276 C202.751183,144.85276 206.565114,140.234456 206.130096,138.595615 C205.695078,136.956774 204.69098,128.198961 204.69098,128.198961 L204.515878,126.844659 L204.327097,125.389128 L204.283321,125.06902 L203.678674,120.417885 L203.678674,120.417885 C203.785376,120.442509 207.539116,121.290657 208.034325,121.785866 C208.529534,122.281075 211.591075,122.989689 211.591075,122.989689 C212.531474,123.244864 213.258816,123.991072 213.489833,124.937694 C213.519928,125.030717 213.541816,125.129211 213.563704,125.230442 C213.96589,127.172975 213.8373,127.405532 214.110896,127.742055 C214.384492,128.078578 211.503524,136.357599 211.503524,136.357599 Z" id="Path" fill="#196690"></path>
                <path d="M209.67043,157.085245 C208.302449,156.811649 206.272366,156.179642 206.318877,154.784301 C206.359916,153.479247 207.930358,153.008662 209.120502,152.841768 C209.312019,154.204277 209.5008,155.711792 209.67043,157.085245 Z" id="Path" fill="#000000" opacity="0.1"></path>
                <path d="M213.913907,156.390311 C213.859188,156.507957 213.640311,156.609188 213.328411,156.699474 C212.596588,156.873638 211.853246,156.995243 211.104074,157.063357 C211.104074,157.063357 206.452939,156.694002 206.518602,154.584576 C206.567849,153.071589 208.669068,152.669403 209.848268,152.579116 C210.109274,152.554744 210.371359,152.543786 210.633489,152.546284 C210.633489,152.546284 214.113632,155.958029 213.913907,156.390311 Z" id="Path" fill="#AE6E79"></path>
                <path d="M213.913907,156.390311 C213.859188,156.507957 213.640311,156.609188 213.328411,156.699474 C212.11638,155.077049 210.425556,152.994982 209.596559,152.811673 L209.848268,152.579116 C210.109274,152.554744 210.371359,152.543786 210.633489,152.546284 C210.633489,152.546284 214.113632,155.958029 213.913907,156.390311 Z" id="Path" fill="#000000" opacity="0.1"></path>
                <path d="M212.742915,127.517706 L214.110896,127.720167 C214.604755,128.590167 215.153037,129.428125 215.752473,130.229044 C216.120055,130.686032 216.331064,131.249041 216.354385,131.835054 C216.354385,131.835054 218.362581,134.81178 218.997324,135.145568 C219.632067,135.479355 220.603333,137.755675 220.603333,137.755675 C220.603333,137.755675 222.176511,138.792605 222.176511,139.963596 C222.2044,140.940078 222.304997,141.913125 222.477467,142.874659 C222.513035,143.041553 222.24491,145.118148 221.5746,146.157814 C220.904289,147.197479 220.233978,149.490215 220.269546,149.900609 C220.305114,150.311004 218.395412,152.445054 217.8619,153.112628 C217.41659,153.736901 217.024864,154.39771 216.690908,155.087993 L214.918005,158.434074 C214.918005,158.434074 211.169737,152.912903 209.79902,152.611947 C209.79902,152.611947 211.336631,151.14 212.105436,150.871876 C212.874241,150.603751 213.612951,148.40951 213.645783,147.895149 C213.678614,147.380789 214.348925,145.72006 215.049331,145.432784 C215.749737,145.145508 216.121828,144.830872 215.820872,144.360287 C215.519916,143.889701 215.820872,142.992306 215.820872,142.992306 C215.820872,142.992306 213.845508,140.382198 213.577384,138.888363 C213.309259,137.394528 211.503524,136.379486 211.503524,136.379486 L210.466595,133.835042 L212.742915,127.517706 Z" id="Path" fill="#196690"></path>
                <path d="M217.71963,140.007372 C218.476651,139.368181 219.42951,139.007118 220.420024,138.984122 C219.785281,139.09356 219.117706,139.233094 218.652593,139.67632 C218.469898,139.868221 218.305911,140.077098 218.162855,140.300119 C218.00417,140.527204 216.712796,142.168781 216.521278,141.908865 C216.201171,141.528566 217.459713,140.228984 217.71963,140.007372 Z" id="Path" fill="#000000" opacity="0.1"></path>
                <path d="M214.688184,138.42325 C215.105266,138.387266 215.470402,138.128846 215.643035,137.747467 C215.806147,137.370446 215.906867,136.96941 215.941254,136.56006 C216.039146,135.874966 216.177093,135.196197 216.354385,134.52724 C216.462174,134.259319 216.440993,133.956743 216.29693,133.706452 C216.223516,133.492722 216.124287,133.288752 216.001446,133.099068 C215.755209,133.372664 215.684074,134.010143 215.582843,134.376762 C215.456989,134.830932 215.342079,135.287838 215.23264,135.744743 C215.175185,135.96362 214.721016,138.42325 214.688184,138.42325 Z" id="Path" fill="#000000" opacity="0.1"></path>
                <path d="M213.503513,124.915806 C213.368675,125.09215 213.213473,125.251943 213.041135,125.391864 C212.493943,125.826882 211.768913,126.193501 211.700514,126.880227 C211.71958,127.103338 211.691618,127.327966 211.618435,127.539594 C211.443333,127.84055 211.013787,127.81319 210.671792,127.755735 C210.383183,127.729721 210.106604,127.627773 209.870155,127.460251 C209.511744,127.153823 209.478913,126.606631 209.205317,126.22086 C208.868361,125.81728 208.362607,125.593737 207.837336,125.616213 C207.325711,125.599797 206.816822,125.714707 206.305197,125.736595 C205.976352,125.753186 205.646697,125.731148 205.322987,125.670932 C205.216126,125.654579 205.110192,125.632661 205.005615,125.605269 C204.776957,125.548971 204.553599,125.472993 204.338041,125.378184 C204.226486,125.333812 204.117756,125.282645 204.012461,125.22497 C203.66999,125.049102 203.352547,124.828272 203.068554,124.568339 C202.567873,124.108698 202.152007,123.473955 202.193047,122.7927 C202.21767,122.374098 202.406452,121.988327 202.466643,121.575197 C202.67184,120.393262 201.886619,119.276989 201.035735,118.431577 C200.696476,118.095054 200.335329,117.769474 199.996069,117.427479 C199.467793,116.940204 199.050675,116.344855 198.773094,115.681935 C198.544839,114.976312 198.47021,114.230016 198.554217,113.493166 C198.63109,112.74612 198.652124,111.994381 198.617145,111.244205 C198.365436,108.584851 196.094588,106.546559 193.82374,105.438495 L193.722509,105.386511 C195.560752,103.276884 198.444136,102.405331 201.143171,103.143488 C203.842207,103.881645 205.88073,106.099285 206.389505,108.850796 C206.89828,111.602308 205.787549,114.402268 203.530932,116.056762 C203.506308,116.141577 203.484421,116.226392 203.465269,116.308471 C202.939964,118.409689 203.287431,119.684648 203.678674,120.38779 L203.678674,120.38779 C203.785376,120.412413 207.539116,121.260562 208.034325,121.755771 C208.529534,122.25098 211.591075,122.959594 211.591075,122.959594 C212.538908,123.211869 213.27275,123.962508 213.503513,124.915806 L213.503513,124.915806 Z" id="Path" fill="#000000" opacity="0.1"></path>
                <path d="M193.24098,103.457658 C193.391458,103.285293 193.618542,103.197742 193.771756,103.030848 C194.245078,102.516487 193.771756,101.676547 193.944122,100.998029 C194.130167,100.245639 195.054922,99.9173238 195.826464,99.9966667 C196.598005,100.07601 197.320299,100.431685 198.09184,100.519235 C199.290191,100.653297 200.450239,100.133465 201.618495,99.829773 C202.78675,99.5260812 204.198507,99.5096655 205.002879,100.404325 C205.807252,101.298984 205.752533,102.822915 206.753895,103.471338 C207.216272,103.769558 207.799032,103.802389 208.299713,104.01853 C208.847635,104.299717 209.302,104.73412 209.607503,105.268865 C210.400088,106.513677 210.749081,107.989665 210.597921,109.457622 C210.513106,110.251051 210.283286,111.022593 210.190263,111.816022 C210.095843,112.639989 210.15146,113.474245 210.354421,114.278387 C210.56509,115.099176 211.021995,115.985627 211.840048,116.24828 C212.029125,116.289861 212.212746,116.35321 212.38724,116.437061 C212.860562,116.732545 212.797634,117.427479 212.677252,117.9692 L212.190251,120.215424 C212.6581,120.571099 213.385866,120.417885 213.831828,120.792712 C214.010499,120.955937 214.142673,121.163638 214.214863,121.394624 C214.66523,122.680689 214.274378,124.11127 213.232652,124.989677 C212.68546,125.424695 211.96043,125.791314 211.892031,126.475305 C211.912878,126.698446 211.88487,126.923451 211.809952,127.134671 C211.637587,127.435627 211.205305,127.408268 210.863309,127.350812 C210.575649,127.324327 210.300071,127.222401 210.064409,127.055329 C209.703262,126.748901 209.673166,126.201708 209.39957,125.815938 C209.062097,125.413046 208.5567,125.189661 208.031589,125.21129 C207.517228,125.194875 207.011075,125.309785 206.496714,125.334409 C205.310384,125.383026 204.152279,124.964576 203.271016,124.168889 C202.767599,123.706511 202.354468,123.074504 202.392772,122.390514 C202.417395,121.974648 202.606177,121.586141 202.666368,121.173011 C202.868829,119.993811 202.086344,118.874803 201.23546,118.029391 C200.384576,117.183978 199.38595,116.404229 198.970084,115.279749 C198.450251,113.887145 198.953668,112.333118 198.814134,110.855699 C198.562425,108.193608 196.294313,106.158053 194.020729,105.047252 C193.514576,104.787336 192.652748,104.127969 193.24098,103.457658 Z" id="Path" fill="#444053"></path>
                <path d="M211.13417,126.434265 C210.773023,126.125102 210.742927,125.580645 210.469331,125.194875 C210.131885,124.791647 209.626762,124.567372 209.10135,124.587491 C208.586989,124.571075 208.0781,124.685986 207.566476,124.710609 C206.375806,124.762876 205.212634,124.343033 204.329833,123.542354 C203.826416,123.082712 203.416022,122.447969 203.454325,121.766714 C203.478949,121.348112 203.66773,120.959606 203.727921,120.549211 C203.933118,119.367276 203.147897,118.248268 202.297013,117.402855 C201.446129,116.557443 200.450239,115.777694 200.031637,114.653214 C199.51454,113.263345 200.031637,111.709319 199.878423,110.229164 C199.623978,107.567073 197.355866,105.531517 195.085018,104.420717 C194.554241,104.1608 193.692413,103.501434 194.280645,102.831123 C194.428387,102.658757 194.655472,102.571207 194.808686,102.404313 C195.282007,101.892688 194.808686,101.050012 194.983787,100.374229 C195.017454,100.239663 195.075908,100.11255 195.156153,99.9994026 C194.584337,100.106105 194.061768,100.428949 193.922234,100.976141 C193.755341,101.654659 194.22319,102.4946 193.749869,103.008961 C193.596655,103.175854 193.36957,103.263405 193.219092,103.433035 C192.63086,104.103345 193.492688,104.765448 194.023465,105.022628 C196.297049,106.133429 198.565161,108.17172 198.81687,110.831075 C198.956404,112.311231 198.452987,113.865257 198.97282,115.257861 C199.388686,116.379606 200.387312,117.173035 201.238196,118.007503 C202.08908,118.841971 202.879773,119.969188 202.669104,121.151123 C202.5538,121.551162 202.46244,121.957717 202.395508,122.368626 C202.357204,123.049881 202.770335,123.684624 203.273751,124.144265 C204.155245,124.945301 205.317739,125.365254 206.507658,125.312521 C207.022019,125.287897 207.528172,125.175723 208.042533,125.189403 C208.567864,125.169702 209.072812,125.393898 209.410514,125.796786 C209.68411,126.182557 209.714205,126.729749 210.075352,127.036177 C210.311296,127.202276 210.586852,127.303251 210.874253,127.328925 C211.216249,127.391852 211.64853,127.41374 211.820896,127.11552 C211.882302,126.99378 211.908817,126.857421 211.897503,126.721541 C211.622229,126.694552 211.358936,126.595463 211.13417,126.434265 Z" id="Path" fill="#000000" opacity="0.1"></path>
                <path d="M171.306774,110.174444 L152.382127,110.174444 L152.382127,91.526129 L171.320454,91.526129 L171.306774,110.174444 Z M171.033178,82.0569654 L152.655723,82.0569654 C152.655723,53.0776583 180.201386,54.7712186 180.201386,36.4375388 C180.201386,26.3391039 171.936045,18.248865 161.837611,18.248865 C151.739176,18.248865 143.476571,26.9711111 143.476571,36.7248148 L125.112796,36.7248148 C125.096055,26.9796658 128.959889,17.6288353 135.85076,10.7379642 C142.741631,3.84709306 152.092461,-0.0167411528 161.837611,-4.86003111e-15 C182.122031,-4.86003111e-15 198.562425,16.1832139 198.562425,36.4375388 C198.562425,59.3621625 171.019498,61.97227 171.019498,82.0569654 L171.033178,82.0569654 Z" id="Shape" fill="#BF0C3F" fill-rule="nonzero"></path>
                <path d="M76.9188292,104.620442 L72.0378734,104.620442 L72.0378734,99.7996774 L76.9188292,99.7996774 L76.9188292,104.620442 Z M76.8449582,97.3701434 L72.1117443,97.3701434 C72.1117443,89.9009677 79.2115651,90.3359857 79.2115651,85.6055078 C79.2064973,84.3555071 78.7048829,83.1587584 77.8171515,82.2787241 C76.9294201,81.3986898 75.7283487,80.9075158 74.4783513,80.9133333 C71.8807175,80.9733299 69.7950913,83.0758731 69.7560812,85.6739068 L65.0228674,85.6739068 C65.0882145,80.5057218 69.2857749,76.3446981 74.4543337,76.3245347 C79.6228925,76.3043713 83.8527904,80.432518 83.9584588,85.6000358 C83.944779,91.5097133 76.8449582,92.1827599 76.8449582,97.3591995 L76.8449582,97.3701434 Z" id="Shape" fill="#BF0C3F" fill-rule="nonzero" opacity="0.1"></path>
                <path d="M113.876201,138.11135 L108.995245,138.11135 L108.995245,133.304265 L113.876201,133.304265 L113.876201,138.11135 Z M113.805066,130.863787 L109.071852,130.863787 C109.071852,123.391876 116.171673,123.82963 116.171673,119.099152 C116.166606,117.8494 115.664904,116.652931 114.777093,115.773331 C113.889283,114.893731 112.688203,114.403167 111.438459,114.409713 C108.829108,114.45672 106.728066,116.56624 106.691565,119.175759 L101.958351,119.175759 C102.023698,114.007574 106.221259,109.84655 111.389818,109.826387 C116.558376,109.806223 120.788274,113.93437 120.893943,119.101888 C120.902151,125.011565 113.805066,125.687348 113.805066,130.863787 Z" id="Shape" fill="#BF0C3F" fill-rule="nonzero" opacity="0.1"></path>
                <path d="M136.349391,78.8230585 L132.811792,78.8230585 L132.811792,75.3456511 L136.349391,75.3456511 L136.349391,78.8230585 Z M136.297407,73.567276 L132.866511,73.567276 C132.866511,68.1555436 138.012855,68.4701792 138.012855,65.0447551 C138.008512,64.1391753 137.644601,63.2724123 137.001181,62.6351494 C136.357761,61.9978864 135.487539,61.6423263 134.581959,61.6466906 C132.694668,61.6848527 131.177223,63.2119784 131.151063,65.0994743 L127.720167,65.0994743 C127.710393,62.6479921 129.009211,60.3775144 131.127369,59.1433082 C133.245528,57.909102 135.861228,57.8986726 137.989161,59.1159486 C140.117095,60.3332246 141.433977,62.5932729 141.443751,65.0447551 C141.43828,69.3265352 136.297407,69.8162724 136.297407,73.567276 L136.297407,73.567276 Z" id="Shape" fill="#BF0C3F" fill-rule="nonzero" opacity="0.1"></path>
                <path d="M196.77037,83.731374 L194.770382,83.731374 L194.770382,81.7614815 L196.77037,81.7614815 L196.77037,83.731374 Z M196.740275,80.7628554 L194.789534,80.7628554 C194.789534,77.7040502 197.697861,77.8818877 197.697861,75.9448268 C197.697895,75.4330761 197.493116,74.9425977 197.129204,74.5827972 C196.765291,74.2229967 196.272518,74.0238049 195.7608,74.0296535 C194.694471,74.051631 193.836982,74.9139583 193.821004,75.9803943 L191.881207,75.9803943 C191.928291,73.8779773 193.641847,72.1958529 195.744775,72.1876934 C197.847703,72.1795339 199.57426,73.8483104 199.637658,75.9502987 C199.648602,78.3552091 196.740275,78.6424851 196.740275,80.7628554 L196.740275,80.7628554 Z" id="Shape" fill="#BF0C3F" fill-rule="nonzero" opacity="0.1"></path>
                <path d="M227.347479,173.325914 L225.347491,173.325914 L225.347491,171.356022 L227.347479,171.356022 L227.347479,173.325914 Z M227.317384,170.357395 L225.377587,170.357395 C225.377587,167.295854 228.28865,167.476428 228.28865,165.539367 C228.281119,164.475155 227.413075,163.618129 226.348853,163.624194 C225.28192,163.644758 224.423618,164.507902 224.409056,165.574934 L222.469259,165.574934 C222.516344,163.472517 224.229899,161.790393 226.332828,161.782233 C228.435756,161.774074 230.162313,163.44285 230.225711,165.544839 C230.236655,167.960693 227.328327,168.237025 227.328327,170.357395 L227.317384,170.357395 Z" id="Shape" fill="#BF0C3F" fill-rule="nonzero" opacity="0.1"></path>
            </g>
        </g>
    </g>
</svg>