<?xml version="1.0" encoding="UTF-8"?>
<svg width="130px" height="108px" viewBox="0 0 130 108" version="1.1" xmlns="http://www.w3.org/2000/svg" xmlns:xlink="http://www.w3.org/1999/xlink">
    <!-- Generator: Sketch 54 (76480) - https://sketchapp.com -->
    <title>undraw_investing_7u74</title>
    <desc>Created with Sketch.</desc>
    <g id="principal" stroke="none" stroke-width="1" fill="none" fill-rule="evenodd">
        <g id="home" transform="translate(-210.000000, -340.000000)">
            <g id="Group-6" transform="translate(196.000000, 329.000000)">
                <g id="undraw_investing_7u74" transform="translate(14.000000, 12.000000)">
                    <path d="M24.463365,82.8270014 C24.463365,82.8270014 72.7367707,42.5386703 100.539349,82.8270014" id="Path" fill="#196690" opacity="0.331054688"></path>
                    <ellipse id="Oval" fill="#F2F2F2" cx="103.677779" cy="103.479308" rx="22.358209" ry="3.4843962"></ellipse>
                    <ellipse id="Oval" stroke="#3F3D56" stroke-width="0.4" cx="107.307359" cy="102.172659" rx="22.358209" ry="3.4843962"></ellipse>
                    <path d="M116.815172,66.1236843 C117.715031,66.4508164 118.723363,66.1738852 119.329906,65.4330304 C119.93645,64.6921756 120.008885,63.6490186 119.510556,62.8314434 C119.012227,62.0138683 118.051847,61.6002333 117.115411,61.7998564 L117.171842,62.9602591 L116.622834,61.9657834 C116.084014,62.21896 115.667752,62.6757016 115.465524,63.2356382 C115.393704,63.4317766 115.350043,63.6371037 115.335844,63.8454946 C115.264636,64.8500983 115.868489,65.7800421 116.815172,66.1236843 L116.815172,66.1236843 Z" id="Path" fill="#57B894"></path>
                    <path d="M119.53168,79.5823795 C119.337881,78.5955085 120.177657,77.7206158 121.007164,77.1519391 C121.836671,76.5832624 122.805902,76.0245134 123.088931,75.0594387 C123.495693,73.6724574 122.284072,72.4022425 121.341034,71.3068631 C120.641388,70.4939673 120.040557,69.6010106 119.551113,68.646679 C119.338326,68.271823 119.193393,67.8623421 119.122988,67.4370912 C119.048633,66.8222956 119.246147,66.2105155 119.445137,65.6240814 C120.108033,63.6704966 120.816785,61.7332788 121.571391,59.812428" id="Path" stroke="#3F3D56" stroke-width="0.4"></path>
                    <path d="M116.90802,65.8249293 C117.807879,66.1520626 118.816211,65.8751321 119.422756,65.134277 C120.0293,64.393422 120.101735,63.3502641 119.603405,62.5326886 C119.105076,61.7151131 118.144695,61.3014786 117.208259,61.5011028 L117.264689,62.6615041 L116.715681,61.6670298 C116.176861,61.9202054 115.760599,62.3769467 115.558371,62.9368831 C115.486552,63.1330217 115.442891,63.3383487 115.428692,63.5467396 C115.357483,64.5513434 115.961336,65.4812874 116.90802,65.8249293 L116.90802,65.8249293 Z" id="Path" stroke="#3F3D56" stroke-width="0.4"></path>
                    <path d="M119.256123,59.4116934 C119.517828,58.6896002 120.129521,58.1506884 120.878835,57.9820558 L121.064462,59.0852171 L121.408614,57.926606 C122.38907,57.941148 123.247666,58.5878288 123.532339,59.5261607 C123.817011,60.4644925 123.462455,61.4792211 122.65535,62.0360755 C121.848245,62.5929299 120.773742,62.5641672 119.997584,61.9649313 C119.221426,61.3656955 118.921664,60.3334519 119.256128,59.4116934 L119.256123,59.4116934 Z" id="Path" fill="#57B894"></path>
                    <path d="M119.379919,59.0133543 C119.641625,58.2912614 120.253317,57.7523498 121.002631,57.5837167 L121.188258,58.686878 L121.53241,57.5282669 C122.512866,57.5428089 123.371463,58.1894898 123.656135,59.1278216 C123.940807,60.0661534 123.586251,61.080882 122.779147,61.6377364 C121.972042,62.1945908 120.897539,62.1658281 120.121381,61.5665923 C119.345223,60.9673565 119.045461,59.9351129 119.379925,59.0133543 L119.379919,59.0133543 Z" id="Path" stroke="#3F3D56" stroke-width="0.4"></path>
                    <path d="M120.94528,71.3292198 C122.022646,71.7200301 123.221769,71.2402788 123.732256,70.214192 C124.242743,69.1881053 123.902096,67.9423054 122.940532,67.3187306 L122.676084,68.2090882 L122.488568,67.0929199 C122.486715,67.0920457 122.484796,67.0913176 122.482829,67.0907422 C121.725698,66.816086 120.879552,66.9662178 120.263128,67.4845844 C119.646703,68.0029511 119.353648,68.8108004 119.494354,69.6038233 C119.635061,70.3968462 120.188151,71.0545636 120.945282,71.3292198 L120.94528,71.3292198 Z" id="Path" fill="#57B894"></path>
                    <path d="M121.052545,70.9257442 C122.129911,71.3165545 123.329035,70.8368031 123.839521,69.8107164 C124.350008,68.7846297 124.009362,67.5388297 123.047798,66.9152549 L122.783352,67.8056082 L122.595835,66.6894399 C122.593982,66.6885657 122.592064,66.6878376 122.590097,66.6872622 C121.832966,66.4126059 120.986821,66.5627378 120.370396,67.0811044 C119.753971,67.5994711 119.460917,68.4073204 119.601623,69.2003433 C119.742329,69.9933661 120.29542,70.6510836 121.052551,70.9257398 L121.052545,70.9257442 Z" id="Path" stroke="#3F3D56" stroke-width="0.4"></path>
                    <path d="M118.598206,75.0732253 C118.782623,76.1225913 119.676817,76.8993726 120.741661,76.9352333 C121.806504,76.971094 122.750932,76.2562318 123.00553,75.2216506 C123.260128,74.1870693 122.755304,73.1155638 121.795426,72.6531648 C120.835548,72.1907659 119.682991,72.4638666 119.032654,73.3078095 L120.037117,74.8196556 L118.664642,74.0172152 C118.558225,74.3588147 118.535441,74.7209822 118.598206,75.0732253 Z" id="Path" fill="#57B894"></path>
                    <path d="M118.691054,74.7744717 C118.875472,75.8238365 119.769666,76.6006159 120.834509,76.6364753 C121.899352,76.6723346 122.843778,75.9574721 123.098375,74.9228914 C123.352971,73.8883108 122.848147,72.8168067 121.88827,72.3544088 C120.928392,71.8920109 119.775836,72.165112 119.1255,73.0090545 L120.129964,74.5209006 L118.75749,73.7184616 C118.651073,74.0600611 118.628288,74.4222286 118.691054,74.7744717 L118.691054,74.7744717 Z" id="Path" stroke="#3F3D56" stroke-width="0.4"></path>
                    <path d="M116.401576,80.9191217 C116.401576,80.9191217 118.391021,80.139472 118.990587,79.7125275 C119.590153,79.285583 122.050851,78.7757883 122.199588,79.4605128 C122.348325,80.1452373 125.189345,82.8660237 122.94328,82.8841411 C120.697215,82.9022585 117.724411,83.2526581 117.125998,82.8881394 C116.527585,82.5236208 116.401576,80.9191217 116.401576,80.9191217 Z" id="Path" fill="#656380"></path>
                    <path d="M122.983364,82.6457852 C120.737293,82.6639069 117.764496,83.0143051 117.166082,82.6497864 C116.710352,82.372186 116.528755,81.3760944 116.467993,80.9165316 C116.425913,80.9183406 116.401578,80.9191202 116.401578,80.9191202 C116.401578,80.9191202 116.527585,82.5236193 117.125999,82.888138 C117.724414,83.2526566 120.697215,82.90226 122.943282,82.8841382 C123.591633,82.8789116 123.815584,82.6482344 123.803289,82.3065865 C123.713217,82.5130021 123.465941,82.6418928 122.983364,82.6457852 Z" id="Path" fill="#000000" opacity="0.2"></path>
                    <rect id="Rectangle" fill="#BF0C3F" x="23.0841248" y="59.9606513" width="8.7109905" height="22.9389417" rx="4.35549525"></rect>
                    <rect id="Rectangle" fill="#BF0C3F" x="39.6350068" y="46.1682497" width="8.7109905" height="36.7313433" rx="4.35549525"></rect>
                    <rect id="Rectangle" fill="#BF0C3F" x="56.1858887" y="36.5861601" width="8.7109905" height="46.3134328" rx="4.35549525"></rect>
                    <rect id="Rectangle" fill="#BF0C3F" x="72.7367707" y="27.4396201" width="8.7109905" height="55.4599729" rx="4.35549525"></rect>
                    <rect id="Rectangle" fill="#BF0C3F" x="89.2876526" y="11.4694708" width="8.7109905" height="71.4301221" rx="4.35549525"></rect>
                    <rect id="Rectangle" stroke="#3F3D56" stroke-width="0.4" x="24.2455902" y="58.7991859" width="8.7109905" height="22.9389417" rx="4.35549525"></rect>
                    <rect id="Rectangle" stroke="#3F3D56" stroke-width="0.4" x="40.7964722" y="45.0067843" width="8.7109905" height="36.7313433" rx="4.35549525"></rect>
                    <rect id="Rectangle" stroke="#3F3D56" stroke-width="0.4" x="57.3473541" y="35.4246947" width="8.7109905" height="46.3134328" rx="4.35549525"></rect>
                    <rect id="Rectangle" stroke="#3F3D56" stroke-width="0.4" x="73.8982361" y="26.2781547" width="8.7109905" height="55.4599729" rx="4.35549525"></rect>
                    <rect id="Rectangle" stroke="#3F3D56" stroke-width="0.4" x="90.449118" y="10.3080054" width="8.7109905" height="71.4301221" rx="4.35549525"></rect>
                    <path d="M125.002714,82.9721845 L0,82.9721845" id="Path" stroke="#3F3D56" stroke-width="0.4"></path>
                    <path d="M117.119723,69.0456336 C117.119723,69.0456336 118.486022,73.9643046 116.755377,74.6929964 C115.024733,75.4216882 115.571253,69.2278066 115.571253,69.2278066 L117.119723,69.0456336 Z" id="Path" fill="#EFADB7"></path>
                    <path d="M104.731962,100.561562 C104.731962,100.561562 103.456751,100.470475 103.001319,100.743735 C102.725386,100.9051 102.392876,100.938351 102.090454,100.834821 C102.090454,100.834821 100.08655,100.652648 100.815243,101.654599 C101.543936,102.656551 102.272621,103.020894 102.272621,103.476326 C102.272621,103.931758 105.278475,103.931758 105.369561,103.476326 C105.460647,103.020894 105.551734,100.652645 105.369561,100.561559 C105.187388,100.470472 104.731962,100.561562 104.731962,100.561562 Z" id="Path" fill="#4D4F51"></path>
                    <path d="M108.102161,100.561562 C108.102161,100.561562 109.377373,100.470475 109.832805,100.743735 C110.108738,100.9051 110.441248,100.938351 110.74367,100.834821 C110.74367,100.834821 112.747573,100.652648 112.018881,101.654599 C111.290189,102.656551 110.561497,103.020896 110.561497,103.476329 C110.561497,103.931761 107.555642,103.931761 107.464556,103.476329 C107.373469,103.020896 107.282383,100.652648 107.464556,100.561562 C107.646729,100.470475 108.102161,100.561562 108.102161,100.561562 Z" id="Path" fill="#4D4F51"></path>
                    <path d="M100.997416,68.0436825 C100.997416,68.0436825 100.359809,82.435348 100.724157,83.1640397 C101.088504,83.8927315 102.36371,96.1894067 102.18154,96.9180999 C101.99937,97.6467932 101.088503,100.652647 102.18154,101.108078 C103.274578,101.563509 105.642826,101.108078 105.642826,101.108078 C105.642826,101.108078 106.280432,97.4646188 106.007172,95.5518014 C105.733913,93.638984 105.642826,85.6233745 105.642826,85.6233745 L107.464556,77.2434176 L108.102161,85.1679421 C108.102161,85.1679421 108.284334,96.0072338 107.009123,98.1933106 C105.733913,100.379387 107.464556,101.290251 107.464556,101.290251 C107.464556,101.290251 110.925843,101.745683 111.290189,101.654596 C111.654535,101.56351 111.01693,98.0111376 111.290189,96.4626661 C111.563448,94.9141947 112.201054,86.2609798 112.747573,84.1659909 C113.294091,82.0710021 116.391031,70.4119307 114.11387,68.0436897 C111.836708,65.6754487 100.997416,68.0436825 100.997416,68.0436825 Z" id="Path" fill="#9B9B9B"></path>
                    <circle id="Oval" fill="#EFADB7" cx="107.646729" cy="35.7990655" r="3.18802653"></circle>
                    <path d="M105.27848,37.2564491 C105.27848,37.2564491 105.824999,41.6286012 105.55174,41.7196876 C105.27848,41.8107741 110.379324,41.7196876 110.379324,41.7196876 C110.379324,41.7196876 109.377373,39.0781799 110.379324,36.9831896 L105.27848,37.2564491 Z" id="Path" fill="#EFADB7"></path>
                    <path d="M105.27848,40.8088229 C105.27848,40.8088229 107.498501,38.6227476 110.123037,40.8088229 L110.292961,41.4604515 L108.921941,41.4464282 L105.27848,41.4464282 L105.27848,40.8088229 Z" id="Path" fill="#F2F2F2"></path>
                    <path d="M116.117772,68.7723742 C115.907358,68.8142712 115.391815,68.8998915 114.719585,69.0019088 C112.481607,69.3398415 108.515698,69.8517473 108.37542,69.501066 C108.193247,69.0456336 107.555642,67.4060728 107.10021,68.1347689 C106.644777,68.8634651 106.918037,69.501066 105.005217,69.5921525 C103.703587,69.6540905 101.81172,69.4628059 100.764224,69.1622215 C100.272366,69.0210382 99.9663064,68.8561754 99.9954591,68.6812878 C100.086546,68.1347689 101.088498,57.7509096 101.088498,56.7489585 C101.088498,55.7470073 101.452844,50.9194184 101.452844,50.9194184 L98.8350187,45.7684791 L98.6291621,45.3631422 C98.6291621,45.3631422 98.9024215,44.361191 99.7221997,44.179018 C100.541978,43.9968451 104.458702,41.719692 104.458702,41.719692 C104.458702,41.719692 105.27848,40.4444814 106.82695,40.5355679 C108.37542,40.6266543 108.739766,39.989049 110.834757,41.719692 C110.834757,41.719692 113.385178,42.8127297 114.296043,43.3592456 C115.206907,43.9057615 116.208858,43.9057644 116.299945,44.8166291 C116.318158,44.9997138 116.218866,45.3522186 116.048546,45.7976319 C115.424617,47.429906 113.847904,50.3182541 113.601048,50.7682218 C113.579188,50.8073878 113.567346,50.8283421 113.567346,50.8283421 C113.567346,50.8283421 113.51998,52.4660751 113.570082,54.3834425 L113.570082,54.3879955 C113.619273,56.2270307 113.757725,58.3229328 114.113865,59.4815555 C114.842561,61.8498009 117.028637,68.590194 116.117772,68.7723742 Z" id="Path" fill="#196690"></path>
                    <path d="M111.785383,34.4903873 C111.721625,34.2001893 111.598997,33.9261613 111.425084,33.685258 C111.355732,33.019073 111.133488,32.3778992 110.77567,31.8117025 C110.635528,31.5463867 110.436508,31.3166743 110.19386,31.1401679 C109.916024,30.9801483 109.598943,30.9010938 109.278503,30.9119516 C109.220395,30.9109832 109.115843,30.928607 109.021744,30.9328942 C108.961545,30.9142527 108.90077,30.8976147 108.839848,30.8819683 C108.804278,30.8028682 108.733807,30.5723391 108.71416,30.5879506 L108.448539,30.7989991 C108.336238,30.7794908 108.223347,30.7642916 108.110044,30.7522385 C108.068793,30.6345714 108.027538,30.5169048 107.98628,30.3992386 C107.919368,30.5044908 107.860696,30.6147605 107.81079,30.7290614 C107.698011,30.7235338 107.585155,30.721598 107.472223,30.7232541 L107.246463,30.5063896 C107.219296,30.6299709 107.121527,30.725736 106.99741,30.7503395 C106.893526,30.7609974 106.790064,30.774919 106.686946,30.7915076 C106.678551,30.7914524 106.670035,30.7915076 106.661806,30.7913014 C106.105836,30.7774364 105.5076,30.7525085 105.042685,31.0577343 C104.825152,31.2071067 104.648065,31.4081027 104.527285,31.6427195 C104.470373,31.6814079 104.41326,31.7198117 104.357954,31.7608303 C104.171494,31.888025 104.009874,32.048255 103.881073,32.2336092 C103.787447,32.393479 103.716433,32.5655552 103.670058,32.7449254 C103.492632,33.2847806 103.410436,33.8513775 103.427142,34.4193956 C103.446148,34.9912955 103.661929,35.5391162 104.038048,35.9703526 C104.276494,36.2265457 104.579608,36.4157281 104.818376,36.6716207 C105.310013,37.1985137 105.402166,37.9333598 105.822673,38.4908646 C106.267443,39.0805305 107.079216,39.4685543 107.792141,39.5797718 C108.657844,39.7102403 109.539846,39.4902679 110.242893,38.9685507 C110.409943,38.8522131 110.551854,38.7034269 110.660165,38.5310644 C110.907607,38.1030644 110.802735,37.5651215 110.894597,37.0793561 C111.066801,36.1688427 111.935755,35.4047538 111.785383,34.4903873 Z" id="Path" fill="#3F3D56"></path>
                    <path d="M99.6311176,69.3188931 C99.6311176,69.3188931 100.997416,74.237564 99.2667717,74.9662558 C97.5361273,75.6949476 98.0826476,69.501066 98.0826476,69.501066 L99.6311176,69.3188931 Z" id="Path" fill="#EFADB7"></path>
                    <path d="M101.269764,58.157151 C101.269764,58.157151 100.672231,67.0253357 100.764229,69.1622215 C100.27237,69.0210382 99.9663107,68.8561754 99.9954635,68.6812878 C100.08655,68.1347689 101.088503,57.7509096 101.088503,56.7489585 C101.088503,55.7470073 101.452849,50.9194184 101.452849,50.9194184 L98.8350231,45.7684791 C98.8769201,45.5134314 98.9024258,45.3631422 98.9024258,45.3631422 L100.22318,48.1412803 L102.090454,48.6422566 L101.269764,58.157151 Z" id="Path" fill="#000000" opacity="0.1"></path>
                    <path d="M99.2667717,44.8166277 L98.6291664,45.3631465 C98.6291664,45.3631465 97.8093882,50.190731 97.9004746,51.3748551 C97.9915611,52.5589793 95.9876587,70.5030172 97.5361288,70.5030172 C99.0845988,70.5030172 100.815243,70.2297578 100.541984,69.5921525 C100.268724,68.9545472 100.996883,58.1571743 100.996883,58.1571743 L101.817194,48.642261 L99.2667717,44.8166277 Z" id="Path" fill="#196690"></path>
                    <path d="M116.048546,45.7976261 C115.424617,47.4299002 113.847904,50.3182483 113.601048,50.768216 C113.608332,49.6032226 113.61289,48.77889 113.61289,48.77889 L115.525706,44.8621717 L115.935595,44.5433683 C115.935595,44.5433683 115.979319,45.0252138 116.048546,45.7976261 Z" id="Path" fill="#000000" opacity="0.1"></path>
                    <path d="M116.117772,68.7723742 C115.907358,68.8142712 115.391815,68.8998915 114.719585,69.0019088 C114.370739,66.4223435 113.438016,59.00426 113.497213,58.3056226 C113.526367,57.9613193 113.550961,56.2598247 113.570086,54.3879926 C113.619277,56.2270278 113.757729,58.3229299 114.11387,59.4815526 C114.842561,61.8498009 117.028637,68.590194 116.117772,68.7723742 Z" id="Path" fill="#000000" opacity="0.1"></path>
                    <path d="M114.933648,44.1790224 L116.299945,44.5433683 C116.299945,44.5433683 117.210811,54.6539681 117.301898,56.3846126 C117.392984,58.115257 118.486022,68.7723742 118.303849,69.2278066 C118.121676,69.683239 115.297994,70.3208443 115.206907,69.8654119 C115.115821,69.4099795 113.79167,59.1332742 113.861684,58.3054629 C113.931697,57.4776517 113.476264,48.9155204 113.476264,48.9155204 L114.933648,44.1790224 Z" id="Path" fill="#196690"></path>
                    <polyline id="Path" stroke="#3F3D56" stroke-width="0.4" points="28.5284939 50.0156038 45.0793758 36.2232022 61.775441 26.7862958 78.3263229 17.6397558 94.8772049 1.66960651"></polyline>
                    <circle id="Oval" fill="#F2F2F2" cx="28.0929444" cy="50.7415197" r="1.59701493"></circle>
                    <circle id="Oval" fill="#F2F2F2" cx="44.6438263" cy="36.949118" r="1.59701493"></circle>
                    <circle id="Oval" fill="#F2F2F2" cx="61.3398915" cy="27.5122117" r="1.59701493"></circle>
                    <circle id="Oval" fill="#F2F2F2" cx="77.8907734" cy="18.3656716" r="1.59701493"></circle>
                    <circle id="Oval" fill="#F2F2F2" cx="94.4416554" cy="2.39552239" r="1.59701493"></circle>
                    <circle id="Oval" stroke="#3F3D56" stroke-width="0.4" cx="28.5284939" cy="50.0156038" r="1.59701493"></circle>
                    <circle id="Oval" stroke="#3F3D56" stroke-width="0.4" cx="45.0793758" cy="36.2232022" r="1.59701493"></circle>
                    <circle id="Oval" stroke="#3F3D56" stroke-width="0.4" cx="61.775441" cy="26.7862958" r="1.59701493"></circle>
                    <circle id="Oval" stroke="#3F3D56" stroke-width="0.4" cx="78.3263229" cy="17.6397558" r="1.59701493"></circle>
                    <circle id="Oval" stroke="#3F3D56" stroke-width="0.4" cx="94.8772049" cy="1.66960651" r="1.59701493"></circle>
                </g>
            </g>
        </g>
    </g>
</svg>