<?xml version="1.0" encoding="UTF-8"?>
<svg width="367px" height="307px" viewBox="0 0 367 307" version="1.1" xmlns="http://www.w3.org/2000/svg" xmlns:xlink="http://www.w3.org/1999/xlink">
    <!-- Generator: Sketch 54 (76480) - https://sketchapp.com -->
    <title>undraw_High_five_u364</title>
    <desc>Created with Sketch.</desc>
    <defs>
        <linearGradient x1="50.0049089%" y1="100.006199%" x2="50.0049089%" y2="0.00039645933%" id="linearGradient-1">
            <stop stop-color="#808080" stop-opacity="0.25" offset="0%"></stop>
            <stop stop-color="#808080" stop-opacity="0.12" offset="54%"></stop>
            <stop stop-color="#808080" stop-opacity="0.1" offset="100%"></stop>
        </linearGradient>
    </defs>
    <g id="principal" stroke="none" stroke-width="1" fill="none" fill-rule="evenodd">
        <g id="onboarding_v0" transform="translate(-5.000000, -296.000000)">
            <g id="undraw_High_five_u364" transform="translate(5.000000, 296.000000)">
                <path d="M66.8239001,254.384221 C63.3076752,254.031653 59.6342544,253.654488 56.3041827,254.576903 C52.9741109,255.499318 50.2149086,258.192771 51.2035883,260.767335 C53.4126048,266.506809 66.3771327,262.509676 72.3547149,266.433016 C74.4892703,267.835087 75.320754,270.040685 76.9878583,271.762527 C79.6850096,274.558471 84.3222896,275.862152 88.798237,276.579586 C115.687015,280.888291 146.340223,269.798807 169.907202,280.478328 C177.539479,283.938411 183.558428,289.444206 191.927044,291.752295 C203.013494,294.810614 215.154811,291.543214 226.625978,289.448306 C240.932169,286.857485 255.515044,286.099679 270.016192,287.193513 C280.742747,288.013438 295.010346,288.288112 298.443836,280.56852 C300.652853,275.603875 295.978342,270.077582 289.773239,267.728497 C283.568137,265.379413 276.30403,265.453206 269.374998,265.678685 C256.000934,266.154242 242.622732,267.113554 229.248668,266.646196 C203.3858,265.73608 178.954242,255.577211 153.769799,255.241042 C124.440347,254.888474 96.2898643,257.327751 66.8239001,254.384221 Z" id="Path" fill="#029E83"></path>
                <path d="M39.412254,124.506965 C35.2536734,128.649276 35,135 35,135 C35,135 41.4416413,134.639443 45.5835875,130.493035 C49.7255337,126.346627 50,120 50,120 C50,120 43.5542002,120.372849 39.412254,124.506965 Z" id="Path" fill="#B3143C"></path>
                <path d="M55.4455195,22.0387784 C57.0401141,27.5641953 62.8899724,31 62.8899724,31 C62.8899724,31 66.1559551,25.4826201 64.5613605,19.9572031 C62.9667659,14.4317862 57.1169076,11 57.1169076,11 C57.1169076,11 53.8328559,16.5173799 55.4455195,22.0387784 Z" id="Path" fill="#196690"></path>
                <path d="M298.416413,37.5098307 C294.257832,41.6510104 294,48 294,48 C294,48 300.4458,47.6395412 304.587746,43.4942654 C308.729692,39.3489896 309,33 309,33 C309,33 302.558359,33.3891316 298.416413,37.5098307 Z" id="Path" fill="#B3143C"></path>
                <path d="M172.037741,96.1472656 C171.594946,101.946875 175.19457,107 175.19457,107 C175.19457,107 179.519463,102.648242 179.962259,96.8445313 C180.405054,91.0408203 176.80543,86 176.80543,86 C176.80543,86 172.480537,90.3435547 172.037741,96.1472656 Z" id="Path" fill="#B3143C"></path>
                <path d="M308.037741,178.149385 C307.594946,183.947862 311.19457,189 311.19457,189 C311.19457,189 315.519463,184.649092 315.962259,178.850615 C316.405054,173.052138 312.80543,168 312.80543,168 C312.80543,168 308.480537,172.350908 308.037741,178.149385 Z" id="Path" fill="#196690"></path>
                <path d="M299.482633,108.430024 C298.325514,108.725015 297.380415,109.555317 296.941229,110.662736 L296.527319,110.596704 L294.983437,110.349083 C294.983437,110.349083 286.804584,109.676381 285.277258,109.779556 C283.749932,109.882731 282.793801,108.3805 282.793801,108.3805 L276.71347,103.250628 L276.241614,102.837927 C276.89973,102.590306 277.3095,102.462369 277.3095,102.462369 C277.3095,102.462369 260.993187,82.2400244 257.474956,81.8479586 C253.956725,81.4558927 248.141296,76.7345943 248.083349,76.6891972 L248.021263,76.3672905 C247.892951,75.686334 247.797752,74.9971234 247.727387,74.3037859 L248.592458,74.8320431 L248.592458,74.8320431 C248.592458,74.5926766 248.592458,74.35331 248.617292,74.1139435 L248.617292,74.1139435 C248.746436,71.6182222 249.591127,69.211866 251.05108,67.1805682 C252.752248,64.828173 255.268818,62.9792729 256.274618,60.267828 C256.675498,59.101806 256.856527,57.8718881 256.808562,56.640187 C256.834269,54.4213783 256.247163,52.2382963 255.111533,50.32999 C253.940651,48.4004261 251.996939,47.0633314 249.7721,46.6569519 C249.192627,46.5661577 248.600736,46.5537767 248.029541,46.4217124 C244.631344,45.6251997 243.381337,41.0813626 240.078339,39.9670702 C238.538596,39.447067 236.82501,39.7896088 235.339075,40.4334222 C233.85314,41.0772356 232.507934,42.0016857 231.055112,42.7156583 C229.602289,43.4296308 227.954929,43.953761 226.634558,44.9648782 C226.497968,45.0680534 226.353099,45.1918637 226.220648,45.319801 L226.220648,45.319801 L225.959885,45.5715486 L225.959885,45.5715486 C225.414914,46.1230514 224.940803,46.739953 224.548454,47.4080676 L224.486368,47.5112428 C224.444977,47.581402 224.407725,47.6556881 224.370473,47.7299743 C224.333221,47.8042605 224.308386,47.8455306 224.283552,47.9033087 C224.258717,47.9610868 224.217326,48.035373 224.188353,48.1014051 L224.101432,48.2995016 L224.026928,48.489344 C224.002093,48.5595031 223.97312,48.6296623 223.952424,48.7039485 C223.931729,48.7782346 223.911033,48.8236317 223.894477,48.8855369 L223.83239,49.1042683 L223.795139,49.2817297 C223.795139,49.3560159 223.766165,49.4344291 223.753748,49.5087152 C223.74133,49.5830014 223.753748,49.6201445 223.753748,49.6737956 C223.753748,49.7274467 223.753748,49.8306219 223.753748,49.9090351 C223.753748,49.9874483 223.753748,50.0122103 223.753748,50.0617345 C223.753748,50.1112586 223.753748,50.2268148 223.753748,50.313482 C223.753748,50.4001492 223.753748,50.3960222 223.753748,50.4372923 C223.769782,50.5586245 223.794683,50.678627 223.828251,50.7963421 L223.828251,50.7963421 C224.051763,51.5557117 224.821634,52.3315895 225.409386,53.008419 C225.34316,53.0703241 225.276935,53.1281022 225.210709,53.1941344 C222.387701,55.9067347 220.79329,59.6479492 220.794295,63.5570542 C220.794954,64.4167053 220.873922,65.27452 221.030223,66.1199269 C220.277914,65.5533526 219.469321,65.0651882 218.617131,64.6630927 C215.813944,63.32314 212.74805,62.6184508 209.639433,62.5995881 C204.569042,62.54181 197.445659,60.6433858 197.445659,60.6433858 C197.627538,60.9898802 197.766527,61.357123 197.859568,61.7370432 C197.549136,61.5595818 197.213869,61.3697394 196.84549,61.171643 C193.875818,59.581902 190.656615,58.5073157 187.325571,57.9938459 C187.325571,57.9938459 185.214633,58.2868636 184.933174,53.8668368 C184.836485,52.4857804 184.586615,51.1196586 184.188137,49.7934789 C182.976461,45.7510388 182.13689,41.606882 181.679845,37.4124516 L180.97206,30.9247932 C180.97206,30.9247932 184.159163,14.0040559 182.242762,6.79004402 C182.859487,4.52844304 182.511803,2.45668447 180.479508,0.966834181 C172.46208,-4.9182808 164.374288,17.9866197 164.374288,17.9866197 L161.369305,20.8961611 C160.59853,20.3952263 159.729174,20.0645408 158.819623,19.926314 C158.819623,19.926314 157.201236,21.5771176 156.075402,26.0838116 C155.479373,28.4733498 151.406503,32.4641676 147.722708,35.6791077 C145.1068,37.9613438 142.581952,40.334374 140.061243,42.7156583 C138.19865,44.4820181 134.047138,47.0077477 124.990798,48.4356929 C123.571088,48.6585514 122.27969,48.8690288 121.100048,49.0629983 C121.401502,47.9966394 121.554699,46.8940632 121.555349,45.786153 C121.526365,40.0425423 117.51149,35.0848716 111.886422,33.8467157 C111.9278,33.5579154 111.9278,33.2647171 111.886422,32.9759168 C111.73374,32.3544978 111.418034,31.7847533 110.971682,31.3251131 C109.06356,28.9727179 106.994012,26.5542906 104.154593,25.4399982 C102.983732,24.9859128 101.729551,24.7847608 100.474937,24.8498359 L99.8457946,24.8498359 C99.7174826,24.8498359 99.5933098,24.8498359 99.4649978,24.8498359 L99.4649978,24.8498359 C96.7566449,24.9993414 94.2440579,26.3045978 92.5692652,28.4320798 C91.5510478,29.7898657 90.9384617,31.3993993 90.0609736,32.8479795 C88.4301701,35.5305354 85.9218784,37.598167 83.2024929,39.2324626 C81.5675503,40.2188177 79.8498258,41.0689816 78.3059433,42.1874011 C72.7057475,46.244251 70.1229521,53.7430266 71.5302445,60.4452894 C72.1511088,63.3878468 73.4632019,66.2850072 73.1113788,69.2688348 C72.8340595,71.5840869 71.5840527,73.6640995 70.3092114,75.6285558 C69.0343701,77.5930122 67.6850251,79.5904846 67.1800555,81.8644666 C66.6750858,84.1384486 67.20489,86.8168775 69.117152,88.1952986 C69.8207982,88.6987937 70.6734518,89.0207004 71.2736206,89.6314977 C71.6728529,90.1021299 72.0069603,90.6240362 72.2670034,91.1832531 C74.3188739,94.8792957 77.799706,97.5758869 81.8986779,98.6448856 C82.5419706,98.8087441 83.2052853,98.8809954 83.8688872,98.8594901 L83.9392518,98.8594901 L84.0675638,98.8594901 C85.5866117,98.9544113 87.1429115,98.5499644 87.6520202,97.2086864 C87.7292667,96.9038282 87.8446887,96.6098761 87.9955651,96.3337605 C88.1385109,96.1278798 88.3519304,95.9811238 88.5957339,95.9210596 C89.0854017,96.0325933 89.5574867,96.2103232 89.9988871,96.4493168 C92.1192683,97.5458464 94.4388271,98.2068428 96.820116,98.393138 C97.2180311,98.4247998 97.6175391,98.4316916 98.0163145,98.4137731 C98.844993,98.4910587 99.6802679,98.3722841 100.454242,98.0671043 C101.198587,97.6903915 101.841546,97.141297 102.329252,96.4658248 C102.436868,96.3296335 102.536206,96.1851882 102.639684,96.0531239 C102.092823,99.3491627 101.063633,102.5473 99.5850316,105.545245 C99.5850316,105.545245 97.1015745,109.672254 97.2795556,113.832279 C97.1839687,115.347891 97.5060241,116.8607 98.210852,118.206909 C98.210852,118.206909 98.2812166,118.02532 98.4260849,117.740557 C99.1380093,118.929135 101.472459,122.730111 103.003924,124.063135 C103.078428,127.98792 103.061872,132.903188 102.569319,133.914305 C101.7415,135.643522 99.125592,147.946136 110.375653,156.336346 L112.970865,162.002729 L102.287861,162.757972 C101.207557,162.6094 87.2381107,160.735738 87.167746,163.463691 C87.0973814,166.298946 89.2786846,193.908637 96.5221011,192.039102 C103.272965,190.297504 101.046132,182.245709 100.710865,181.164433 L100.950933,181.0984 L100.686031,181.024114 L106.08755,175.919004 C106.189375,175.297502 106.040587,174.661068 105.673641,174.148517 L105.727449,174.119628 L118.773877,174.701536 L121.840946,181.346021 C121.840946,181.346021 127.043789,189.236862 122.826051,195.87722 C118.608313,202.517578 114.245707,212.901133 113.54206,219.198948 C112.966726,224.349456 109.142202,229.409169 107.772162,231.076481 C105.325957,231.901882 95.9426278,235.574921 99.6885089,241.134002 C103.976612,247.49785 117.900528,259.610622 123.529697,259.193794 C129.158867,258.776966 126.90306,254.695354 126.90306,254.695354 L122.196908,250.14739 C122.196908,250.14739 121.369089,240.457172 121.704356,237.621917 C121.886476,236.148575 120.797894,235.087934 119.634809,234.63809 C120.077692,231.480928 121.199387,225.496764 123.60834,222.19103 C126.981703,217.552272 137.813715,197.140085 137.813715,197.140085 C137.813715,197.140085 141.257442,194.094352 140.483431,185.03144 C140.172999,181.37491 139.999157,178.164097 139.899819,175.625986 L152.159818,176.174879 C152.159818,176.174879 165.309724,174.858363 156.377556,160.810024 C147.445389,146.761685 128.459359,132.993982 128.459359,132.993982 L128.289657,124.298374 C129.150588,124.512979 129.655558,124.620281 129.655558,124.620281 C129.655558,124.620281 129.581054,124.306628 129.456881,123.745355 L129.655558,123.790752 C129.655558,123.790752 126.911338,111.950363 126.066962,102.536655 L126.840973,102.891578 C134.99913,112.305286 140.499987,104.348412 140.499987,104.348412 C140.499987,104.348412 157.731041,80.1971549 156.04229,81.3031934 C155.689107,81.4777336 155.28029,81.5030241 154.908178,81.3733525 L156.149906,77.4279318 C156.149906,77.4279318 161.236854,69.6774087 153.852708,65.3192871 C147.826186,61.7618053 147.983471,72.9129838 148.244234,77.1266601 L147.94622,76.8749126 C147.94622,76.8749126 142.18046,85.5416317 139.084417,90.3702323 C135.988374,95.198833 133.389022,92.021036 133.389022,92.021036 L129.477577,87.6257713 C130.119992,85.8649085 130.435568,84.0021533 130.408873,82.1285952 C130.581557,79.4850025 129.620125,76.8926672 127.763992,74.9971234 C124.779704,71.9637718 123.906355,69.0253413 123.815295,66.7637403 C123.844642,65.5919969 124.11071,64.4381918 124.597584,63.3713388 L144.92468,52.6411151 C144.92468,52.6411151 149.212783,52.7071473 154.978542,43.8505858 C158.715156,38.1862257 162.827557,32.7774019 167.288211,27.6603291 C167.288211,27.6603291 167.168178,27.4869947 166.961223,27.202231 C167.168178,26.9587375 167.288211,26.8266732 167.288211,26.8266732 C167.288211,26.8266732 167.052283,26.4841315 166.650791,25.9558743 L169.784086,22.3529953 C169.685123,23.9813663 169.672688,25.6138193 169.746834,27.2435011 L171.369359,32.7117882 L172.27996,63.1567343 C172.27996,63.1567343 171.294855,66.0456407 177.627671,68.9716902 C182.98366,71.4478956 191.468805,75.5749047 193.943984,76.7923724 C193.852924,77.0152309 193.799116,77.1349142 193.799116,77.1349142 L194.535875,77.0853901 L194.643491,77.1349142 L194.643491,77.1349142 C207.015247,76.0288757 206.593059,88.3438709 206.593059,88.3438709 C206.593059,88.3438709 207.420878,113.394816 203.641884,122.115186 C199.86289,130.835557 200.405112,141.627685 200.405112,141.627685 C200.405112,141.627685 200.781769,139.787039 202.888569,142.193086 C202.847178,142.403563 202.801648,142.630549 202.751979,142.865788 C201.543363,148.903602 199.026793,161.746855 198.559075,166.95514 C198.043961,171.70138 197.125929,176.39549 195.814855,180.986971 L194.573127,204.028063 L202.482938,204.411875 L202.396017,205.237277 C202.3083,206.086578 201.806702,206.838321 201.05495,207.24713 C198.347981,208.712218 191.94894,213.850345 192.462188,229.706314 L192.189008,232.256805 C191.750928,236.576184 190.437084,240.761748 188.327232,244.559419 C188.145112,244.881326 187.983687,245.190852 187.847097,245.487996 C187.867821,245.321097 187.943524,245.165779 188.06233,245.046406 C188.06233,245.046406 183.952208,245.89657 184.796584,256.969336 C185.640959,268.042101 186.907522,269.977668 188.596273,270.11386 C190.285024,270.250051 198.530102,272.259904 198.087218,268.178292 C197.644335,264.09668 197.259399,255.029641 197.80576,253.647093 C198.352121,252.264545 200.59551,248.533729 198.468015,247.634041 L198.468015,247.634041 C199.084952,245.094365 199.383865,242.488247 199.357921,239.875264 C199.357921,239.875264 203.497016,233.371098 206.456469,230.948543 C209.415922,228.525989 211.009474,224.411361 212.081499,219.116408 C212.156003,218.76974 220.802573,213.024943 219.531871,208.25412 C219.308359,207.428719 219.146935,206.698238 219.022762,206.037916 C218.968954,205.744899 218.923424,205.468389 218.882033,205.212515 L219.035179,205.212515 L220.794295,194.692768 L220.794295,204.936005 L221.837347,205.072196 L221.800095,205.897598 L221.357212,215.71988 C221.27692,217.632962 220.856481,219.516618 220.115483,221.283088 C218.25289,225.678353 214.817441,235.463491 215.752877,246.045143 L215.653538,255.479485 C215.355524,255.537264 211.059143,256.548381 211.874545,267.241461 C212.702364,278.3101 213.981344,280.249794 215.670095,280.385985 C217.358846,280.522177 225.603923,282.53203 225.165179,278.450418 C224.726435,274.368806 224.33736,265.301767 224.883721,263.919219 C225.430081,262.536671 226.415186,258.880141 224.287691,257.980453 C224.298767,256.740421 224.602192,255.52037 225.173457,254.418844 C226.100615,252.846454 229.196658,245.37244 231.526968,239.623517 C233.9093,233.804928 235.233776,227.609946 235.438413,221.328485 C235.438413,221.258326 235.438413,221.188167 235.438413,221.118008 C235.501046,218.99889 235.957155,216.909714 236.783619,214.956383 C237.736339,212.770801 238.489932,210.504192 239.035287,208.183961 C239.093234,207.907452 239.138764,207.639196 239.180155,207.358559 L241.200034,207.626815 L248.095766,177.871079 C248.095766,177.871079 249.983194,161.742728 249.060176,154.458557 C249.022924,154.157285 248.981533,153.880775 248.931864,153.61252 L249.345773,153.649663 C249.345773,153.649663 250.753065,150.055038 250.330878,134.690183 C249.90869,119.325328 253.145462,114.467838 253.145462,114.467838 C254.892161,108.9459 256.820979,107.097 257.946813,106.477949 L257.946813,106.477949 C258.236524,106.293797 258.56833,106.185884 258.911222,106.164296 L264.130621,112.11957 L264.130621,112.11957 L265.090891,113.217355 C265.092949,113.195392 265.092949,113.173285 265.090891,113.151323 L265.504801,113.634183 C265.473222,113.389281 265.462146,113.142182 265.471688,112.895448 C268.257299,114.509109 274.693592,118.281195 278.534672,120.988513 C283.542977,124.517106 284.917157,124.104405 289.29632,123.737101 C291.953619,123.518369 295.546353,122.032646 297.955307,120.901846 L298.174679,120.79867 C298.822878,121.14362 299.505378,121.42025 300.211114,121.624072 C300.211114,121.624072 307.280688,127.595854 307.963639,116.696423 C308.64659,105.796992 299.482633,108.430024 299.482633,108.430024 Z M116.120717,235.360316 C115.400883,235.146724 114.706846,234.854696 114.051169,234.489517 L116.120717,235.360316 Z M105.052776,117.37738 L105.077611,118.925008 L104.969994,118.974532 C105.003107,118.429767 105.027942,117.893256 105.052776,117.37738 Z M215.624565,255.516629 L215.624565,256.119172 C215.465791,255.949519 215.465791,255.686281 215.624565,255.516629 L215.624565,255.516629 Z" id="Shape" fill="url(#linearGradient-1)" fill-rule="nonzero"></path>
                <rect id="Rectangle" fill="#FF7590" x="226" y="74" width="12" height="13"></rect>
                <path d="M210.485323,219.384878 C209.418361,224.671463 207.836746,228.780488 204.907829,231.201951 C201.978913,233.623415 197.865877,240.116585 197.865877,240.116585 C197.794747,248.753415 195.493455,251.378049 195.493455,251.378049 L193.121033,252 L187.2632,252 C187.2632,252 186.217158,249.097561 186.00795,247.372683 C185.936819,246.796341 186.351052,245.830244 186.928466,244.793659 C189.022393,240.994009 190.324343,236.816081 190.756979,232.508049 L191.02895,229.958049 C190.535218,214.131463 196.886782,208.994146 199.552096,207.530488 C200.299369,207.117351 200.794922,206.367573 200.878477,205.523659 L200.878477,205.523659 L201.351288,201 L217.108859,201.767073 C217.108859,201.767073 216.774125,203.143659 217.372461,206.328049 C217.493802,206.987317 217.656984,207.72122 217.874561,208.538049 C219.129811,213.302195 210.55227,219.036585 210.485323,219.384878 Z" id="Path" fill="#E1A9B8"></path>
                <path d="M236.727288,207.755182 C236.198885,210.027691 235.469319,212.249185 234.547134,214.393644 C233.744688,216.310868 233.301098,218.357875 233.238223,220.433789 C233.238223,220.502982 233.238223,220.572175 233.238223,220.641369 C233.039114,226.793894 231.755705,232.863823 229.446473,238.574577 C227.184512,244.207705 224.186289,251.538098 223.286413,253.080696 C221.789347,255.657119 222.672861,260 222.672861,260 L214.001329,259.389473 L214.152672,244.871144 C213.248705,234.504398 216.578246,224.927267 218.382089,220.600667 C219.110947,218.870245 219.526385,217.025152 219.609192,215.150697 L220.018227,205.520653 L220.145028,202.671528 C220.145028,202.671528 235.475642,200.502123 236.768191,203.961775 C237.124051,204.877565 237.038154,206.241075 236.727288,207.755182 Z" id="Path" fill="#E1A9B8"></path>
                <path d="M217,206 L201,205.245136 L201.458186,201 L216.744551,201.719844 C216.744551,201.719844 216.408008,203.007782 217,206 Z" id="Path" fill="#000000" opacity="0.1"></path>
                <path d="M237.727716,208 L221,205.670418 L221.126911,202.700094 C221.126911,202.700094 236.470886,200.438405 237.764562,204.045226 C238.124826,204.999973 238.038854,206.421485 237.727716,208 Z" id="Path" fill="#000000" opacity="0.1"></path>
                <path d="M245.797378,177.246886 L238.999986,207 L218.882537,204.301587 L218.882537,194.060073 L217.142604,204.583883 L193,203.404884 L194.248755,180.364591 C195.542502,175.766809 196.44755,171.068963 196.954392,166.320391 C197.424757,161.11453 199.897292,148.274237 201.091935,142.242247 C201.508187,140.253724 201.741288,139 201.741288,139 C201.741288,139 243.091741,147.576801 245.797378,150.690354 C246.259418,151.221734 246.563281,152.350916 246.750595,153.849573 C247.658024,161.122833 245.797378,177.246886 245.797378,177.246886 Z" id="Path" fill="#196690"></path>
                <path d="M198,180 C198,180 214.080609,171.443389 218,173.250713 L198,180 Z" id="Path" fill="#000000" opacity="0.1"></path>
                <path d="M207,152 C207,152 220.58209,162.236515 221,165 L207,152 Z" id="Path" fill="#000000" opacity="0.1"></path>
                <path d="M203,187.024691 C203,187.024691 212.854839,186.62963 216,189 L203,187.024691 Z" id="Path" fill="#000000" opacity="0.1"></path>
                <path d="M221.26742,177 C221.26742,177 225.312298,192.212347 223.559638,196.373274 C221.806978,200.5342 220,195.399617 220,195.399617 L221.26742,177 Z" id="Path" fill="#000000" opacity="0.1"></path>
                <path d="M213.949044,255 C213.949044,255 209.249355,255.679094 210.103844,266.520191 C210.958333,277.361289 212.240066,279.264377 213.949044,279.398569 C215.658021,279.532761 223.989287,281.500913 223.562042,277.499547 C223.134798,273.498182 222.707553,264.625236 223.275788,263.267049 C223.844023,261.908862 224.826686,258.334471 222.673374,257.452056 L222.207677,259.5422 C222.207677,259.5422 217.64898,255.540835 214.944523,258.456464 C214.828371,257.745691 214.640951,257.047141 214.384833,256.370386 C214.115669,255.736024 213.526072,255.406643 213.949044,255 Z" id="Path" fill="#494457"></path>
                <path d="M298,120.709901 C298,120.709901 296.950243,121.282366 295.408933,121.996934 C293.030317,123.101265 289.485304,124.55476 286.860912,124.769942 C282.536913,125.127226 281.183059,125.53323 276.238371,122.082195 C272.443416,119.435048 266.09072,115.74447 263.324693,114.169174 L262.120805,113.474907 L262,113.405886 L262,113.357166 L264.295302,107.210263 L272.418422,103 L274.434622,104.684917 L280.437399,109.699068 C280.437399,109.699068 281.374682,111.168803 282.886832,111.067302 C284.398982,110.965801 292.467947,111.623528 292.467947,111.623528 L293.992594,111.86713 L297.204351,112.386816 L298,120.709901 Z" id="Path" fill="#E1A9B8"></path>
                <path d="M297,120.600722 C297,120.600722 296.068958,121.223114 294.701951,122 C293.257358,121.117175 291.461777,119.461878 292.152669,116.738363 C292.777059,114.288523 292.947011,112.377207 293.460562,111 L296.309108,111.565008 L297,120.600722 Z" id="Path" fill="#000000" opacity="0.1"></path>
                <path d="M297.277781,109.267599 C297.277781,109.267599 306.661752,106.695975 305.962808,117.496793 C305.263864,128.29761 298.032814,122.384934 298.032814,122.384934 C298.032814,122.384934 291.884695,120.84196 293.179036,116.776738 C294.473377,112.711516 294.098018,110.246873 297.277781,109.267599 Z" id="Path" fill="#E1A9B8"></path>
                <path d="M204,74.01466 L194.61791,77.9381798 L194.472997,78 L194.369487,77.9505439 L193.785694,77.6579284 C191.359434,76.4544959 183.020719,72.3372729 177.774863,69.8933156 C171.5643,67.0083746 172.529008,64.1234335 172.529008,64.1234335 L171.634687,33.9016154 L170.044782,28.4738048 C170.044782,28.4738048 168.922741,10.0761236 177.911495,5.46433928 C186.90025,0.852554938 181.087163,32.1129519 181.087163,32.1129519 L181.782746,38.6081906 C182.23199,42.7632973 183.056498,46.8696519 184.24627,50.8774328 C184.634799,52.1950428 184.87912,53.5505945 184.974976,54.9204716 C185.252381,59.3138247 187.322568,59.0212092 187.322568,59.0212092 C190.592406,59.5323018 193.749364,60.6002321 196.654974,62.178159 C197.734042,62.7452308 198.76678,63.3956489 199.743694,64.1234335 L204,74.01466 Z" id="Path" fill="#E1A9B8"></path>
                <path d="M236.730899,88 L229,87.1711072 C229,87.1711072 231.278497,83.6566015 232.281835,80.2374186 C232.423747,79.7686195 232.537227,79.291073 232.621611,78.8075784 C232.853458,77.4523387 232.793497,76.196566 232.19789,75.2889284 C229.935383,71.8365897 245.65701,67 245.65701,67 C245.465948,68.9106959 245.408503,70.8332225 245.485124,72.7525163 C245.530025,74.0880663 245.663586,75.4188247 245.88486,76.7353464 C246.360546,79.4168147 247.307921,81.9407934 249.114729,83.2338662 C254.051472,86.7566607 236.730899,88 236.730899,88 Z" id="Path" fill="#E1A6B5"></path>
                <path d="M236.728926,89 L229,88.1169978 C229,88.1169978 231.277915,84.3730684 232.280997,80.7306843 C233.172181,82.1302428 233.4799,82.0993377 234.730755,82.3774834 C234.730755,82.3774834 242.531615,83.6534216 245.888542,77 C246.364107,79.8565121 247.31124,82.5452539 249.117587,83.9227373 C254.045076,87.6754967 236.728926,89 236.728926,89 Z" id="Path" fill="#000000" opacity="0.1"></path>
                <path d="M263.38057,113.270741 C263.370631,113.514316 263.382285,113.758246 263.41541,114 L262.108878,112.57016 L262,112.451349 L264.399665,106.248549 L272.892127,102 L275,103.700239 C271.98191,104.785934 263.515578,108.231478 263.38057,113.270741 Z" id="Path" fill="#000000" opacity="0.1"></path>
                <path d="M204,73.9822871 L194.033587,77.949987 L193.769692,77.949987 L193,78 C193,78 193.057177,77.8791352 193.14954,77.6540766 C193.980808,75.7410784 197.838065,66.4011461 196.171132,62 C197.317404,62.5734572 198.414462,63.2311992 199.452219,63.967179 L204,73.9822871 Z" id="Path" fill="#000000" opacity="0.1"></path>
                <path d="M247,154 C243.301213,153.668531 206.296563,150.244755 202.8452,144.794406 C202.299639,143.906398 201.682522,143.06444 201,142.276923 C201.419364,140.267133 201.654207,139 201.654207,139 C201.654207,139 243.313793,147.668531 246.039657,150.815385 C246.505151,151.344056 246.811286,152.481119 247,154 Z" id="Path" fill="#000000" opacity="0.1"></path>
                <path d="M234.776888,82.9464286 C234.776888,82.9464286 242.930612,84.1457143 246.377245,77.8494643 C246.377245,77.8494643 252.134031,82.5480357 255.576531,82.9505357 C259.019031,83.3530357 275,103.346607 275,103.346607 C275,103.346607 262.188776,107.45375 263.015306,114.025179 L256.952704,107.043036 C256.952704,107.043036 253.923469,106.903393 251.3075,115.257321 C251.3075,115.257321 248.137755,120.04625 248.55102,135.242679 C248.964286,150.439107 247.588112,154 247.588112,154 C247.588112,154 207.360867,150.57875 203.78199,144.964286 C200.203112,139.349821 199.649337,142.089286 199.649337,142.089286 C199.649337,142.089286 199.095561,131.410714 202.814949,122.785714 C206.534337,114.160714 205.707806,89.3823214 205.707806,89.3823214 C205.707806,89.3823214 206.121071,77.1964286 194,78.2930357 C194,78.2930357 199.095561,66.5178571 196.75648,62 C196.75648,62 203.728265,63.8810714 208.695714,63.9385714 C211.744633,63.9621216 214.749561,64.6638085 217.49,65.9921429 C218.981888,66.7191071 220.358061,67.635 221.139133,68.7275 C223.478214,72.0132143 227.338112,70.51 227.338112,70.51 C228.310996,73.5166799 229.512943,76.4453324 230.93352,79.2705357 C231.094694,79.5703571 231.255867,79.8660714 231.421173,80.1494643 C231.660867,80.5601786 231.908827,80.9708929 232.156786,81.3076786 C233.148622,82.7164286 233.429643,82.6794643 234.776888,82.9464286 Z" id="Path" fill="#B3143C"></path>
                <path d="M245.811845,72.809556 C245.376857,73.4414977 244.89262,74.0363924 244.363872,74.5884186 C241.676482,77.4104094 237.988706,79.0013767 234.138069,78.9999979 C233.644943,79.0002644 233.152117,78.9751192 232.661463,78.9246578 C232.898702,77.55598 232.837347,76.2877556 232.227889,75.3711182 C229.912767,71.8845475 246,67 246,67 C245.800401,68.929338 245.737518,70.8709283 245.811845,72.809556 L245.811845,72.809556 Z" id="Path" fill="#000000" opacity="0.1"></path>
                <path d="M247.999899,64.5000505 C247.999899,72.5081515 241.508051,79 233.49995,79 C225.491849,79 219,72.5081515 219,64.5000505 C219,56.4919495 225.491849,50.0001009 233.49995,50.0001009 C237.349966,49.9857206 241.046446,51.5087712 243.768837,54.2311627 C246.491229,56.9535542 248.014279,60.6500343 247.999899,64.5000505 L247.999899,64.5000505 Z" id="Path" fill="#E1A9B8"></path>
                <path d="M256,97.0170503 L256.250287,107 C256.250287,107 259.882929,103.410912 259.997644,100.000853 C260.112359,96.5907928 256,97.0170503 256,97.0170503 Z" id="Path" fill="#000000" opacity="0.1"></path>
                <path d="M221,108 C221,108 232.242962,123.321383 238.784322,124.875844 C245.325682,126.430304 223.45301,112.967781 221,108 Z" id="Path" fill="#000000" opacity="0.1"></path>
                <path d="M233,109 C233,109 239.404482,116.112936 244,117 L233,109 Z" id="Path" fill="#000000" opacity="0.1"></path>
                <path d="M210,127 C210,127 221.454545,138.312993 228,139 L210,127 Z" id="Path" fill="#000000" opacity="0.1"></path>
                <path d="M247.999998,65.1280172 C248.001924,68.8207385 246.555677,72.3662755 243.973153,75 L242.426844,74.0354031 C241.828664,73.7233043 241.312607,73.2738425 240.920804,72.7237129 C240.409395,71.8680872 240.558388,70.7945192 240.598656,69.7976346 C240.68322,67.6868222 240.103354,65.4024631 238.456375,64.0827009 C235.786576,61.9396008 231.50604,63.126176 228.791946,61.0234356 C228.138368,60.4671804 227.562701,59.8250444 227.080537,59.1144217 L224.53557,55.6959551 C224.38255,55.4941566 224.197315,55.292358 224,55.0542358 C228.051511,51.061181 234.099181,49.8971262 239.338267,52.1019285 C244.577352,54.3067307 247.983029,59.4491061 247.975837,65.144161 L247.999998,65.1280172 Z" id="Path" fill="#000000" opacity="0.1"></path>
                <path d="M224.933885,46.2254107 C226.250118,45.2370598 227.856511,44.7160045 229.336748,43.9881812 C230.816984,43.2603579 232.124807,42.3340373 233.605044,41.7137334 C235.08528,41.0934294 236.796804,40.7295178 238.331708,41.2464377 C241.624393,42.3588495 242.869138,46.8829329 246.254338,47.676922 C246.826247,47.8092535 247.414978,47.8216595 247.991092,47.9085021 C250.215359,48.3231645 252.152137,49.6556345 253.310692,51.5682954 C254.440638,53.4762882 255.022053,55.6503919 254.992779,57.8581773 C255.039577,59.0834964 254.858592,60.3069276 254.458717,61.4683463 C253.457875,64.1687361 250.94736,66.0172419 249.252658,68.3537201 C247.648434,70.5896318 246.796941,73.2636486 246.817837,76 L242.713545,73.4898367 C242.087958,73.1713679 241.548753,72.7105913 241.140793,72.1458448 C240.606731,71.2691486 240.762324,70.1691429 240.804376,69.1477091 C240.892685,66.984916 240.287134,64.6443025 238.571405,63.2920399 C235.779141,61.0961639 231.308995,62.3119597 228.478884,60.1574373 C227.796355,59.5874838 227.195188,58.9295346 226.691666,58.2014122 L224.033969,54.6987626 C223.457854,53.9378564 222.351882,52.9908591 222.099569,52.0645385 C221.540275,50.0712952 223.453649,47.3460932 224.933885,46.2254107 Z" id="Path" fill="#362133"></path>
                <path d="M243.457996,72.9780529 C242.853726,72.6530199 242.332893,72.1827459 241.938834,71.606359 C241.422969,70.7115926 241.57326,69.5889139 241.61388,68.5464266 C241.69918,66.3390546 241.114262,63.950197 239.452933,62.5700619 C236.759872,60.3289252 232.44204,61.5697805 229.704299,59.3708497 C229.045026,58.7891485 228.464343,58.1176379 227.977978,57.3745076 L225.410838,53.7996624 C224.850291,53.0230726 223.786065,52.056556 223.542349,51.1111424 C223.099599,49.4819921 224.220692,47.3590321 225.418961,46 C224.074462,47.2915025 222.599982,49.7436691 223.099599,51.5711874 C223.359563,52.516601 224.411603,53.4831176 224.968087,54.2597074 L227.535227,57.8345526 C228.021593,58.5776829 228.602276,59.2491935 229.261548,59.8308948 C231.987104,62.0298255 236.304936,60.7889702 239.010182,63.0301069 C240.66745,64.410242 241.252368,66.7990996 241.167067,69.0064716 C241.126448,70.0489589 240.976157,71.1716376 241.492022,72.0664041 C241.886081,72.6427909 242.406913,73.1130649 243.011184,73.4380979 L246.975628,76 C246.975628,75.7552054 246.975628,75.5104108 247,75.2698368 L243.457996,72.9780529 Z" id="Path" fill="#000000" opacity="0.1"></path>
                <path d="M186.452103,245 C186.452103,245 182.254761,245.80829 183.116638,256.602998 C183.978515,267.397705 185.271331,269.268896 186.995085,269.402264 C188.71884,269.535632 197.122142,271.491692 196.691204,267.514907 C196.260265,263.538123 195.829327,254.719683 196.402475,253.369839 C196.975623,252.019995 199.250979,248.394816 197.079048,247.517822 L195.325128,249.667873 C195.325128,249.667873 190.727014,245.691088 187.999172,248.588806 C187.999172,248.588806 185.448016,245.941657 186.452103,245 Z" id="Path" fill="#494457"></path>
                <path d="M190,252 C190.809981,252.416429 191.566219,252.924472 192.372361,253.340901 C193.166243,253.791874 194.052211,254.018182 194.948177,253.998859 C195.328554,253.991129 195.69685,253.852607 196,253.603251" id="Path" fill="#000000" opacity="0.1"></path>
                <path d="M216,263 C216.527797,263.457116 216.937368,264.04143 217.532723,264.419047 C218.377199,264.951687 219.458128,264.983486 220.488388,264.995411 C220.659872,265.010012 220.832685,264.989676 220.995074,264.935787 C221.179096,264.841572 221.334585,264.704772 221.446868,264.538295 L222,263.866533" id="Path" fill="#000000" opacity="0.1"></path>
                <path d="M148.225542,78.8388694 C148.225542,78.8388694 146.270148,61.3842152 153.874459,65.6803677 C161.478769,69.9765203 156.242658,77.6113972 156.242658,77.6113972 L154.456731,83 L148.225542,78.8388694 Z" id="Path" fill="#FFC1C7"></path>
                <path d="M160,22.6650165 L164.150225,18.4772037 C164.150225,18.4772037 172.106206,-5.05045729 179.991633,0.992445675 C187.87706,7.03534864 169.997892,22.3153213 169.997892,22.3153213 L165.258335,28 L160,22.6650165 Z" id="Path" fill="#FFC1C7"></path>
                <path d="M100.18174,113.207349 L100,117.890731 C100,117.890731 103.333105,124.50451 104.725231,124.988143 C106.117356,125.471775 105.997408,111 105.997408,111 L100.18174,113.207349 Z" id="Path" fill="#6BA4B8"></path>
                <path d="M100.18174,113.207349 L100,117.890731 C100,117.890731 103.333105,124.50451 104.725231,124.988143 C106.117356,125.471775 105.997408,111 105.997408,111 L100.18174,113.207349 Z" id="Path" fill="#6BA4B8" opacity="0.1"></path>
                <polygon id="Path" fill="#FFC1C7" points="106 108 106.273903 125 125 125 123.590206 115.095546"></polygon>
                <path d="M110.157158,151 L111.064335,156.538068 L122.422861,181.60686 C122.422861,181.60686 127.577466,189.50058 123.396927,196.147923 C119.216387,202.795266 114.89789,213.181739 114.19974,219.480097 C113.50159,225.778454 108,231.943865 108,231.943865 L119.985606,237 C119.985606,237 120.821714,227.099614 124.166146,222.458937 C127.510577,217.818261 138.237841,197.3943 138.237841,197.3943 C138.237841,197.3943 141.653342,194.344831 140.888303,185.275362 C140.123265,176.205894 140.190153,169.832754 140.190153,169.832754 L139.007061,155.362319 L110.157158,151 Z" id="Path" fill="#941234"></path>
                <path d="M110.157158,151 L111.064335,156.538068 L122.422861,181.60686 C122.422861,181.60686 127.577466,189.50058 123.396927,196.147923 C119.216387,202.795266 114.89789,213.181739 114.19974,219.480097 C113.50159,225.778454 108,231.943865 108,231.943865 L119.985606,237 C119.985606,237 120.821714,227.099614 124.166146,222.458937 C127.510577,217.818261 138.237841,197.3943 138.237841,197.3943 C138.237841,197.3943 141.653342,194.344831 140.888303,185.275362 C140.123265,176.205894 140.190153,169.832754 140.190153,169.832754 L139.007061,155.362319 L110.157158,151 Z" id="Path" fill="#941234" opacity="0.1"></path>
                <path d="M108.344509,230 C108.344509,230 95.6445446,233.967589 99.8557817,240.490934 C104.067019,247.014279 117.7318,259.414589 123.251543,258.989338 C128.771287,258.564088 126.564217,254.379621 126.564217,254.379621 L121.938896,249.701864 C121.938896,249.701864 121.110728,239.780765 121.458558,236.876303 C121.806389,233.971841 117.524758,232.623797 116.969885,234.324799 C116.415012,236.025802 108.344509,230 108.344509,230 Z" id="Path" fill="#C4747B"></path>
                <path d="M116.983097,118 L106.957248,119.103239 C105.099961,119.307205 103.709175,120.891664 103.756895,122.749258 C103.864123,126.735681 103.934234,133.076227 103.373347,134.232782 C102.548514,135.943007 100.008028,148.111441 111.003055,156.379579 L125.920166,161.096026 L102,162.806251 L102.758847,176 L106.470596,173.949371 L151.836428,176 C151.836428,176 164.691455,174.699901 155.960595,160.825343 C147.229734,146.950785 128.675109,133.34691 128.675109,133.34691 L128.468901,122.544195 L127.091429,119.40263 L116.983097,118 Z" id="Path" fill="#B3143C"></path>
                <path d="M129,161 C132.506832,159.666667 136.493168,159.666667 140,161 L129,161 Z" id="Path" fill="#000000" opacity="0.1"></path>
                <path d="M103.228914,163.772227 C103.228914,163.772227 88.0736119,161.639605 88.0017057,164.462436 C87.9297994,167.285267 90.1165958,194.769638 97.3791284,192.909793 C104.641661,191.049949 101.537002,181.957375 101.537002,181.957375 L106.96804,176.8614 C106.96804,176.8614 107.530601,174.03857 103.935288,174.311347 L103.228914,163.772227 Z" id="Path" fill="#C4747B"></path>
                <path d="M127.889257,85.5459443 L133.733811,92.3431857 C133.733811,92.3431857 136.280485,95.5673566 139.305949,90.6617407 C142.331414,85.7561249 147.97372,77 147.97372,77 C147.97372,77 154.235153,82.6034155 155.886157,81.4852546 C157.53716,80.3670936 140.684538,104.819508 140.684538,104.819508 C140.684538,104.819508 135.318775,112.873629 127.336171,103.348243 L125,102.225879 L127.889257,85.5459443 Z" id="Path" fill="#6BA4B8"></path>
                <path d="M127.889257,85.5459443 L133.733811,92.3431857 C133.733811,92.3431857 136.280485,95.5673566 139.305949,90.6617407 C142.331414,85.7561249 147.97372,77 147.97372,77 C147.97372,77 154.235153,82.6034155 155.886157,81.4852546 C157.53716,80.3670936 140.684538,104.819508 140.684538,104.819508 C140.684538,104.819508 135.318775,112.873629 127.336171,103.348243 L125,102.225879 L127.889257,85.5459443 Z" id="Path" fill="#6BA4B8" opacity="0.1"></path>
                <circle id="Oval" fill="#FFC1C7" cx="110" cy="47" r="12"></circle>
                <path d="M109.680354,53.3607147 C109.680354,53.3607147 99.1372327,58.3013551 100.384939,66.9474757 C101.632646,75.5935964 101.840597,86.5041772 101.840597,86.5041772 C101.840597,86.5041772 106.627632,93.5034177 100.280964,106.884319 C100.280964,106.884319 96.225917,113.677699 98.9292816,118.61834 C98.9292816,118.61834 101.927937,110.795659 109.680354,116.559739 C117.432772,122.32382 129.913998,125 129.913998,125 C129.913998,125 123.467513,97.0030379 127.418585,93.0916976 C127.418585,93.0916976 134.280971,83.0045569 128.042438,76.6228964 C121.803904,70.241236 124.923171,64.2712955 124.923171,64.2712955 L144.957182,53.6365671 C144.957182,53.6365671 149.182748,53.7024423 154.868132,44.9204541 C158.548818,39.3083089 162.601679,33.9441618 167,28.8633729 C167,28.8633729 162.699571,22.4817124 158.681955,22 C158.681955,22 157.084891,23.6468801 155.978591,28.1099253 C155.38801,30.4773154 151.374553,34.4339449 147.743727,37.6247752 C145.165133,39.8892353 142.678037,42.2401567 140.195101,44.6240157 C138.356813,46.3738258 134.264335,48.8770836 125.339073,50.2934005 C110.649406,52.6113843 109.680354,53.3607147 109.680354,53.3607147 Z" id="Path" fill="#000000" opacity="0.1"></path>
                <path d="M109.680354,52.3607147 C109.680354,52.3607147 99.1372327,57.3013551 100.384939,65.9474757 C101.632646,74.5935964 101.840597,85.5041772 101.840597,85.5041772 C101.840597,85.5041772 106.627632,92.5034177 100.280964,105.884319 C100.280964,105.884319 96.225917,112.677699 98.9292816,117.61834 C98.9292816,117.61834 101.927937,109.795659 109.680354,115.559739 C117.432772,121.32382 129.913998,124 129.913998,124 C129.913998,124 123.467513,96.0030379 127.418585,92.0916976 C127.418585,92.0916976 134.280971,82.0045569 128.042438,75.6228964 C121.803904,69.241236 124.923171,63.2712955 124.923171,63.2712955 L144.957182,52.6365671 C144.957182,52.6365671 149.182748,52.7024423 154.868132,43.9204541 C158.548818,38.3083089 162.601679,32.9441618 167,27.8633729 C167,27.8633729 162.699571,21.4817124 158.681955,21 C158.681955,21 157.084891,22.6468801 155.978591,27.1099253 C155.38801,29.4773154 151.374553,33.4339449 147.743727,36.6247752 C145.165133,38.8892353 142.678037,41.2401567 140.195101,43.6240157 C138.356813,45.3738258 134.264335,47.8770836 125.339073,49.2934005 C110.649406,51.6113843 109.680354,52.3607147 109.680354,52.3607147 Z" id="Path" fill="#6BA4B8"></path>
                <path d="M119,104 C119,104 126.801578,115.941176 127,118 C127.003958,118 125.813484,105.165294 119,104 Z" id="Path" fill="#000000" opacity="0.1"></path>
                <path d="M108,64 C108,64 113.726134,70.041457 122,64.9776176 C117.378533,66.3533127 112.314777,65.9997115 108,64 L108,64 Z" id="Path" fill="#000000" opacity="0.1"></path>
                <path d="M112.97258,34.0202671 C112.821201,33.4068386 112.507619,32.8424631 112.062871,32.3829985 C110.159222,30.0621702 108.09132,27.6799443 105.256904,26.5788811 C101.395016,25.1766446 97.0436362,26.3811403 94.5215026,29.5505237 C93.5022923,30.8848977 92.89582,32.4730482 92.0155928,33.9015651 C90.3899102,36.545754 87.8755772,38.5841535 85.1717215,40.1968631 C83.5418273,41.1669448 81.8234891,42.006045 80.2862503,43.1071081 C74.6974397,47.1061368 72.1157209,54.4984048 73.5223997,61.1170633 C74.1415068,64.0150288 75.4513185,66.8720626 75.097543,69.815053 C74.8237881,72.0990428 73.572939,74.1456286 72.3052435,76.0857919 C71.037548,78.0259553 69.6856202,79.9906777 69.1802266,82.2255494 C68.674833,84.4604211 69.2054963,87.1087031 71.113357,88.463543 C71.8166964,88.9629099 72.6632306,89.2821773 73.2654913,89.8797803 C73.664053,90.3449647 73.996905,90.8597977 74.2552204,91.4106265 C76.2827741,95.0459491 79.7599805,97.7104051 83.8703331,98.7783355 C85.6813267,99.2408638 88.1114275,99.0730438 88.7726508,97.3702844 C88.8485709,97.06961 88.963188,96.7794361 89.1137914,96.5066252 C89.7118405,95.6879909 91.0300754,96.1464261 91.9566303,96.6171408 C94.0659313,97.688774 96.3769628,98.3334834 98.7499622,98.5122793 C99.6911406,98.6329084 100.64842,98.5217159 101.533838,98.1889187 C102.281405,97.819972 102.924811,97.2789722 103.408006,96.6130477 C105.623315,93.8092251 106.259268,90.1458365 106.638314,86.6298021 C106.886799,84.3417191 107.059475,82.0127045 106.608832,79.7532737 C105.892858,76.1267237 103.622799,72.7375776 103.959728,69.0619094 C104.317715,65.1324647 107.598561,61.9193249 108.099743,58.010346 C108.354503,55.9637212 107.828574,53.8973261 106.621467,52.2021355 C106.176049,51.6786602 105.798395,51.1040528 105.496966,50.4911898 C105.202834,49.8569652 105.336335,49.1125434 105.833895,48.612424 C106.100587,48.4298192 106.396615,48.2915006 106.709911,48.2031068 C109.417978,47.1920934 110.862562,44.5560909 111.056296,41.8586908 C111.132105,40.8353979 111.056296,39.8939684 111.346897,38.8952345 C111.810174,37.3521088 113.212642,35.6657221 112.97258,34.0202671 Z" id="Path" fill="#000000" opacity="0.1"></path>
                <path d="M112.97258,34.0202671 C112.821201,33.4068386 112.507619,32.8424631 112.062871,32.3829985 C110.159222,30.0621702 108.09132,27.6799443 105.256904,26.5788811 C101.395016,25.1766446 97.0436362,26.3811403 94.5215026,29.5505237 C93.5022923,30.8848977 92.89582,32.4730482 92.0155928,33.9015651 C90.3899102,36.545754 87.8755772,38.5841535 85.1717215,40.1968631 C83.5418273,41.1669448 81.8234891,42.006045 80.2862503,43.1071081 C74.6974397,47.1061368 72.1157209,54.4984048 73.5223997,61.1170633 C74.1415068,64.0150288 75.4513185,66.8720626 75.097543,69.815053 C74.8237881,72.0990428 73.572939,74.1456286 72.3052435,76.0857919 C71.037548,78.0259553 69.6856202,79.9906777 69.1802266,82.2255494 C68.674833,84.4604211 69.2054963,87.1087031 71.113357,88.463543 C71.8166964,88.9629099 72.6632306,89.2821773 73.2654913,89.8797803 C73.664053,90.3449647 73.996905,90.8597977 74.2552204,91.4106265 C76.2827741,95.0459491 79.7599805,97.7104051 83.8703331,98.7783355 C85.6813267,99.2408638 88.1114275,99.0730438 88.7726508,97.3702844 C88.8485709,97.06961 88.963188,96.7794361 89.1137914,96.5066252 C89.7118405,95.6879909 91.0300754,96.1464261 91.9566303,96.6171408 C94.0659313,97.688774 96.3769628,98.3334834 98.7499622,98.5122793 C99.6911406,98.6329084 100.64842,98.5217159 101.533838,98.1889187 C102.281405,97.819972 102.924811,97.2789722 103.408006,96.6130477 C105.623315,93.8092251 106.259268,90.1458365 106.638314,86.6298021 C106.886799,84.3417191 107.059475,82.0127045 106.608832,79.7532737 C105.892858,76.1267237 103.622799,72.7375776 103.959728,69.0619094 C104.317715,65.1324647 107.598561,61.9193249 108.099743,58.010346 C108.354503,55.9637212 107.828574,53.8973261 106.621467,52.2021355 C106.176049,51.6786602 105.798395,51.1040528 105.496966,50.4911898 C105.202834,49.8569652 105.336335,49.1125434 105.833895,48.612424 C106.100587,48.4298192 106.396615,48.2915006 106.709911,48.2031068 C109.417978,47.1920934 110.862562,44.5560909 111.056296,41.8586908 C111.132105,40.8353979 111.056296,39.8939684 111.346897,38.8952345 C111.810174,37.3521088 113.212642,35.6657221 112.97258,34.0202671 Z" id="Path" fill="#BB7684"></path>
                <g id="Group" opacity="0.1" transform="translate(85.000000, 26.000000)" fill="#000000">
                    <path d="M3.19941176,71.1263333 C3.05238378,71.4008959 2.93901813,71.6921421 2.86176471,71.9937778 C2.47882353,73.0133333 1.47823529,73.482 0.362352941,73.5971111 C1.91470588,73.7533333 3.57411765,73.3792222 4.09705882,71.9937778 C4.17431225,71.6921421 4.2876779,71.4008959 4.43470588,71.1263333 C4.53834134,70.975318 4.68049494,70.8546792 4.84647059,70.7768889 C4.22058824,70.596 3.57823529,70.6042222 3.19941176,71.1263333 Z" id="Path"></path>
                    <path d="M27.7735294,8.38255556 C27.6295863,7.76489669 27.3224599,7.19704677 26.8841176,6.73811111 C25.0229412,4.40711111 23.0011765,2.01444444 20.23,0.908555556 C19.0256169,0.439059053 17.7311118,0.245191496 16.4417647,0.341222222 C17.3171749,0.396226438 18.1785737,0.587652808 18.9947059,0.908555556 C21.7658824,2.01444444 23.7876471,4.40711111 25.6488235,6.73811111 C26.0871658,7.19704677 26.3942922,7.76489669 26.5382353,8.38255556 C26.7729412,10.027 25.4058824,11.7331111 24.9529412,13.2542222 C24.6523529,14.2573333 24.7388235,15.1987778 24.6688235,16.2306667 C24.4752941,18.9357778 23.0670588,21.5751111 20.4152941,22.6028889 C20.108988,22.6916701 19.819565,22.8305949 19.5588235,23.014 C19.0719876,23.5180019 18.9430099,24.2678188 19.2335294,24.9051111 C19.526763,25.5205484 19.8946165,26.0976863 20.3288235,26.6235556 C21.510166,28.3241932 22.0258581,30.3983145 21.7782353,32.4531111 C21.2841176,36.3874444 18.0723529,39.6105556 17.7264706,43.5531111 C17.3970588,47.2531111 19.6205882,50.6488889 20.3164706,54.2872222 C20.7529412,56.5565556 20.5882353,58.8957778 20.3452941,61.1938889 C19.9747059,64.7253333 19.3570588,68.4088889 17.1870588,71.2208889 C16.7162994,71.8896707 16.0885873,72.4331066 15.3588235,72.8036667 C14.9322462,72.9903473 14.4768842,73.1029644 14.0123529,73.1366667 C14.8872816,73.2406705 15.774386,73.1262504 16.5941176,72.8036667 C17.325149,72.4429022 17.9569557,71.9094708 18.4347059,71.2496667 C20.6047059,68.4376667 21.2223529,64.7541111 21.5929412,61.2226667 C21.8358824,58.9245556 22.0047059,56.5853333 21.5641176,54.316 C20.8682353,50.6776667 18.6447059,47.2695556 18.9741176,43.5818889 C19.3282353,39.6311111 22.5317647,36.408 23.0258824,32.4818889 C23.2735052,30.4270923 22.7578131,28.352971 21.5764706,26.6523333 C21.1422635,26.126464 20.7744101,25.5493262 20.4811765,24.9338889 C20.190657,24.2965966 20.3196346,23.5467796 20.8064706,23.0427778 C21.0672121,22.8593726 21.3566351,22.7204478 21.6629412,22.6316667 C24.3147059,21.6121111 25.7229412,18.9645556 25.9164706,16.2594444 C25.9864706,15.2275556 25.9164706,14.2861111 26.2005882,13.283 C26.6411765,11.7331111 28.0082353,10.0393333 27.7735294,8.38255556 Z" id="Path"></path>
                </g>
                <path d="M97,180 C98.2643144,181.741254 100.206389,182.417878 102,181.742013" id="Path" fill="#000000" opacity="0.1"></path>
                <path d="M123,250 C122.159027,250.828611 121.062534,251.16589 120,250.922795" id="Path" fill="#000000" opacity="0.1"></path>
                <ellipse id="Oval" fill="#029E83" opacity="0.1" cx="11" cy="261" rx="11" ry="2"></ellipse>
                <ellipse id="Oval" fill="#4A4A4A" cx="316" cy="299" rx="11" ry="2"></ellipse>
                <ellipse id="Oval" fill="#B3143C" opacity="0.1" cx="316" cy="262" rx="11" ry="2"></ellipse>
                <ellipse id="Oval" fill="#029E83" opacity="0.1" cx="43" cy="278" rx="11" ry="2"></ellipse>
                <ellipse id="Oval" fill="#4A4A4A" cx="350.5" cy="278.5" rx="16.5" ry="2.5"></ellipse>
                <ellipse id="Oval" fill="#029E83" opacity="0.1" cx="111.5" cy="300.5" rx="37.5" ry="6.5"></ellipse>
                <path d="M358.362412,273.242224 C359.120659,272.575931 359.673748,271.678069 359.948881,270.666817 C360.151321,269.643771 359.746441,268.420564 358.841658,268.04693 C357.825326,267.628815 356.73876,268.38498 355.916605,269.154488 C355.094451,269.923997 354.148353,270.791362 353.07005,270.631233 C354.198119,269.531505 354.706443,267.874468 354.408633,266.267719 C354.361822,265.940398 354.233303,265.632915 354.036804,265.378114 C353.470798,264.728702 352.450335,265.008928 351.77278,265.520451 C349.624437,267.148429 349.025379,270.288735 349.012985,273.117679 C348.79815,272.099081 348.979933,271.036003 348.975802,270.004061 C348.971671,268.972119 348.703128,267.780048 347.885104,267.232941 C347.379314,266.933114 346.80987,266.779844 346.232532,266.788138 C345.265777,266.752554 344.191605,266.854859 343.530577,267.615471 C342.70429,268.562901 342.923256,270.146398 343.637994,271.173892 C344.352731,272.201386 345.435166,272.864142 346.430841,273.584722 C347.232145,274.097612 347.91565,274.798526 348.430453,275.635262 C348.489907,275.75189 348.539677,275.873944 348.579185,276 L354.63173,276 C355.984953,275.265786 357.239859,274.338141 358.362412,273.242224 Z" id="Path" fill="#029E83"></path>
                <path d="M323.366276,294.225593 C324.123371,293.560398 324.675057,292.664273 324.948586,291.655383 C325.151023,290.634401 324.750281,289.435857 323.841382,289.040782 C322.825068,288.623511 321.73852,289.37815 320.91638,290.146105 C320.09424,290.914061 319.148159,291.779676 318.069874,291.61987 C319.197924,290.522361 319.706239,288.868668 319.408434,287.265162 C319.363895,286.937783 319.235113,286.630287 319.036612,286.377351 C318.474747,285.72925 317.45017,286.00891 316.776759,286.519401 C314.628452,288.144094 314.029405,291.278063 314.017011,294.1013 C313.798049,293.084757 313.979829,292.023824 313.975698,290.993964 C313.971566,289.964104 313.703028,288.774439 312.885019,288.228436 C312.377767,287.935585 311.808108,287.790214 311.232476,287.806726 C310.265738,287.771213 309.191585,287.873311 308.530567,288.632389 C307.704296,289.577907 307.923258,291.158209 308.637983,292.18363 C309.352708,293.209051 310.435124,293.870469 311.434912,294.589595 C312.234703,295.101983 312.916747,295.801444 313.430358,296.635998 C313.489811,296.752391 313.539581,296.874198 313.579087,297 L319.631528,297 C320.986682,296.25948 322.242881,295.326296 323.366276,294.225593 Z" id="Path" fill="#029E83"></path>
                <path d="M55.1142319,256 C55.1142319,256 49.7426511,236.265708 56.1235539,221.743155 C58.840705,215.667631 59.661772,208.802092 58.4633457,202.178452 C57.872045,199.040772 57.0158848,195.968409 55.9056321,193" id="Path" stroke="#535461" stroke-width="2"></path>
                <path d="M59.9981037,184.532512 C59.9981037,186.96167 55.9981114,194 55.9981114,194 C55.9981114,194 52.0018963,186.96167 52.0018963,184.532512 C51.9570868,182.929999 52.7091689,181.427677 53.964625,180.611862 C55.2200811,179.796046 56.7799189,179.796046 58.035375,180.611862 C59.2908311,181.427677 60.0429132,182.929999 59.9981037,184.532512 L59.9981037,184.532512 Z" id="Path" fill="#029E83"></path>
                <path d="M67.3219142,197.553882 C65.9288838,199.54835 58,203 58,203 C58,203 58.1445598,194.859316 59.5375902,192.868919 C60.9609135,190.945233 63.7736873,190.423944 65.8823708,191.693046 C67.9910543,192.962149 68.629234,195.56038 67.3219142,197.553882 L67.3219142,197.553882 Z" id="Path" fill="#029E83"></path>
                <path d="M67.6482442,220.463288 C65.4363924,221.453144 57,220.770743 57,220.770743 C57,220.770743 61.3940427,214.362925 63.6058944,213.376819 C65.8039847,212.46423 68.4236822,213.264268 69.5177692,215.182265 C70.6118562,217.100261 69.7834235,219.440413 67.6482442,220.463288 Z" id="Path" fill="#029E83"></path>
                <path d="M63.3825417,237.904523 C61.4013015,239.358784 53,240 53,240 C53,240 56.094107,232.204824 58.0584856,230.746372 C60.0385397,229.433243 62.706601,229.895516 64.1231419,231.797146 C65.5396829,233.698776 65.2064481,236.370881 63.3656801,237.870995 L63.3825417,237.904523 Z" id="Path" fill="#029E83"></path>
                <path d="M49.2493661,204.530882 C50.975142,206.234056 59,208 59,208 C59,208 57.0359026,199.877494 55.3019087,198.17432 C53.5673898,196.544741 50.8735816,196.620184 49.2296202,198.34438 C47.5856588,200.068577 47.5907728,202.813053 49.2411481,204.530882 L49.2493661,204.530882 Z" id="Path" fill="#029E83"></path>
                <path d="M44.3821849,223.467249 C46.5885939,224.451611 55,223.770418 55,223.770418 C55,223.770418 50.6167698,217.373938 48.4103608,216.389576 C46.2124876,215.457618 43.5765074,216.25371 42.4798049,218.180662 C41.3831024,220.107614 42.2286616,222.457367 44.3821849,223.467249 L44.3821849,223.467249 Z" id="Path" fill="#029E83"></path>
                <path d="M42.6174583,244.903644 C44.5986985,246.362708 53,247 53,247 C53,247 49.905893,239.201556 47.9415144,237.746685 C45.9614603,236.433005 43.293399,236.895472 41.8768581,238.797899 C40.4603171,240.700326 40.7935519,243.373552 42.6343199,244.874295 L42.6174583,244.903644 Z" id="Path" fill="#029E83"></path>
                <path d="M41,255.927124 C41,255.927124 48.1314916,254.515484 50.0362793,252.63468 C51.941067,250.753877 60.4938553,247.465585 61.4441651,249.815551 C62.3944749,252.165517 74.2816837,260.157894 66.1998822,261.569534 C58.1180808,262.981175 47.1811818,263.450338 44.8054073,262.512012 C42.4296327,261.573686 41,255.927124 41,255.927124 Z" id="Path" fill="#A8A8A8"></path>
                <path d="M66.2122304,259.727811 C58.1304789,261.112355 47.1936476,261.572512 44.8178878,260.648126 C43.0048079,259.947709 41.746072,256.575937 41.25008,255 L41,255.061083 C41,255.061083 42.4254559,260.595187 44.8053838,261.519574 C47.1853116,262.443961 58.1179749,261.979731 66.1997264,260.595187 C68.5338062,260.187968 69.2006862,259.259509 68.9506062,258.07043 C68.7630462,258.831929 67.9502863,259.430541 66.2122304,259.727811 Z" id="Path" fill="#000000" opacity="0.2"></path>
                <path d="M318.609023,236 C318.609023,236 321.012543,238.890775 317.503404,243.236989 C313.994265,247.583203 311.101301,251.278088 312.259361,254 C312.259361,254 317.555844,245.898593 321.87344,245.786017 C326.191036,245.673442 323.341772,240.860844 318.609023,236 Z" id="Path" fill="#029E83"></path>
                <path d="M318.54126,236 C318.753881,236.279823 318.922016,236.585513 319.040694,236.908036 C323.292513,241.448214 325.555435,245.687054 321.467148,245.791518 C317.661726,245.891964 313.096103,252.079464 312,253.642411 C312.036051,253.763499 312.078831,253.882849 312.128173,254 C312.128173,254 317.484935,245.904018 321.851668,245.791518 C326.218401,245.679018 323.327871,240.857589 318.54126,236 Z" id="Path" fill="#000000" opacity="0.1"></path>
                <path d="M323,238.526826 C323,239.34061 322.771654,240 322.496063,240 C322.220472,240 322,239.356693 322,238.526826 C322,237.69696 322.275591,238.09581 322.551181,238.09581 C322.826772,238.09581 323,237.713043 323,238.526826 Z" id="Path" fill="#FFD037"></path>
                <path d="M323.523831,240.504023 C322.742689,240.856777 322.06007,241.069595 322.003771,240.97922 C321.947473,240.888845 322.528051,240.533177 323.309193,240.180423 C324.090335,239.82767 323.784212,240.084218 323.844029,240.180423 C323.903846,240.276629 324.304973,240.15127 323.523831,240.504023 Z" id="Path" fill="#FFD037"></path>
                <path d="M306.393172,236 C306.393172,236 303.99045,238.890775 307.498424,243.236989 C311.006397,247.583203 313.898401,251.278088 312.740726,254 C312.740726,254 307.450369,245.898593 303.129839,245.786017 C298.809309,245.673442 301.653258,240.860844 306.393172,236 Z" id="Path" fill="#029E83"></path>
                <path d="M305.462681,236 C305.250188,236.279823 305.082155,236.585513 304.963548,236.908036 C300.71429,241.448214 298.452731,245.687054 302.538556,245.791518 C306.341685,245.891964 310.904557,252.079464 312,253.642411 C311.96448,253.764117 311.920214,253.88357 311.867487,254 C311.867487,254 306.51837,245.904018 302.14985,245.791518 C297.781331,245.679018 300.670119,240.857589 305.462681,236 Z" id="Path" fill="#000000" opacity="0.1"></path>
                <path d="M302,238.526826 C302,239.34061 302.228346,240 302.503937,240 C302.779528,240 303,239.356693 303,238.526826 C303,237.69696 302.724409,238.09581 302.448819,238.09581 C302.173228,238.09581 302,237.713043 302,238.526826 Z" id="Path" fill="#FFD037"></path>
                <path d="M300.476064,240.504023 C301.257033,240.856777 301.935983,241.069595 301.995787,240.97922 C302.055591,240.888845 301.471623,240.533177 300.690654,240.180423 C299.909685,239.82767 300.21574,240.084218 300.155936,240.180423 C300.096133,240.276629 299.695094,240.15127 300.476064,240.504023 Z" id="Path" fill="#FFD037"></path>
                <path d="M302,253.442354 C302,253.442354 308.179722,253.243579 310.046513,251.881145 C311.913304,250.518712 319.553468,248.887104 320.016142,251.052918 C320.478817,253.218732 329.301818,261.939965 322.325492,261.997941 C315.349165,262.055917 306.115791,260.879834 304.257047,259.716175 C302.398302,258.552516 302,253.442354 302,253.442354 Z" id="Path" fill="#A8A8A8"></path>
                <path d="M322.451307,260.295206 C315.473234,260.349274 306.237549,259.252482 304.37834,258.167277 C302.961799,257.340822 302.394378,254.370989 302.209262,253 L302,253 C302,253 302.402426,257.784945 304.253588,258.87015 C306.104749,259.955356 315.348482,261.052147 322.326555,260.99808 C324.338686,260.99808 325.034884,260.295206 324.998665,259.279516 C324.716967,259.901288 323.948333,260.283621 322.451307,260.295206 Z" id="Path" fill="#000000" opacity="0.2"></path>
            </g>
        </g>
    </g>
</svg>