<?xml version="1.0" encoding="UTF-8"?>
<svg width="343px" height="254px" viewBox="0 0 343 254" version="1.1" xmlns="http://www.w3.org/2000/svg" xmlns:xlink="http://www.w3.org/1999/xlink">
    <!-- Generator: Sketch 55 (78076) - https://sketchapp.com -->
    <title>undraw_lost_bqr2</title>
    <desc>Created with Sketch.</desc>
    <defs>
        <linearGradient x1="50.012528%" y1="99.9850584%" x2="50.012528%" y2="0.00588387637%" id="linearGradient-1">
            <stop stop-color="#808080" stop-opacity="0.25" offset="0%"></stop>
            <stop stop-color="#808080" stop-opacity="0.12" offset="54%"></stop>
            <stop stop-color="#808080" stop-opacity="0.1" offset="100%"></stop>
        </linearGradient>
    </defs>
    <g id="principal" stroke="none" stroke-width="1" fill="none" fill-rule="evenodd">
        <g id="Error-generico" transform="translate(-17.000000, -192.000000)">
            <g id="undraw_lost_bqr2" transform="translate(17.000000, 192.000000)">
                <path d="M4.07917197,134.506561 C9.49726115,157.664522 20.9670064,177.682739 39.0938854,187.385987 C76.764586,207.550892 161.721847,197.151656 225.128471,185.201274 C257.166291,179.186574 286.248058,162.565751 307.691911,138.014586 L4.07917197,134.506561 Z" id="Path" fill="#196690" fill-rule="nonzero" opacity="0.2773391"></path>
                <path d="M249.77828,203.090955 C249.77828,203.090955 228.664586,215.824713 267.577452,235.421592 C267.577452,235.421592 276.147771,219.504395 266.672357,206.530318 C262.864615,201.29391 255.742059,199.73317 250.093503,202.897452 L249.77828,203.090955 Z" id="Path" fill="#02C6A3" fill-rule="nonzero"></path>
                <path d="M250.02172,202.822548 C250.02172,202.822548 268.086178,216.64242 267.577452,235.421592" id="Path" stroke="#535461"></path>
                <path d="M6.0266879,206.836178 C6.0266879,206.836178 -15.0870064,219.569936 23.8258599,239.166815 C23.8258599,239.166815 32.3961783,223.249618 22.9207643,210.275541 C19.1130226,205.039133 11.9904666,203.478393 6.34191083,206.642675 L6.0266879,206.836178 Z" id="Path" fill="#029E83" fill-rule="nonzero"></path>
                <path d="M6.27012739,206.567771 C6.27012739,206.567771 24.334586,220.387643 23.8258599,239.166815" id="Path" stroke="#535461"></path>
                <path d="M268.613631,237.22242 C268.613631,237.22242 262.000191,214.751083 269.862038,198.237771 C273.200751,191.325899 274.207194,183.517476 272.730255,175.984904 C271.99156,172.41404 270.926997,168.91843 269.549936,165.541975" id="Path" stroke="#535461"></path>
                <path d="M274.446815,155.099045 C274.446815,157.851783 269.453185,165.832229 269.453185,165.832229 C269.453185,165.832229 264.459554,157.851783 264.459554,155.099045 C264.633401,152.475038 266.812502,150.435531 269.442261,150.435531 C272.072021,150.435531 274.251121,152.475038 274.424968,155.099045 L274.446815,155.099045 Z" id="Path" fill="#029E83" fill-rule="nonzero"></path>
                <path d="M282.683185,170.342102 C281.188217,172.651656 272.667834,176.643439 272.667834,176.643439 C272.667834,176.643439 272.823885,167.236688 274.318854,164.927134 C275.890745,162.817354 278.829945,162.289079 281.038123,163.719451 C283.246301,165.149823 283.965898,168.048125 282.683185,170.345223 L282.683185,170.342102 Z" id="Path" fill="#029E83" fill-rule="nonzero"></path>
                <path d="M282.324268,196.393248 C279.868025,197.641656 270.498726,196.777134 270.498726,196.777134 C270.498726,196.777134 275.38,188.734268 277.839363,187.495223 C280.260954,186.466863 283.065049,187.493716 284.249854,189.842729 C285.43466,192.191742 284.59373,195.057088 282.327389,196.393248 L282.324268,196.393248 Z" id="Path" fill="#029E83" fill-rule="nonzero"></path>
                <path d="M277.611529,216.043185 C275.398726,217.678599 266.020064,218.41828 266.020064,218.41828 C266.020064,218.41828 269.471911,209.679427 271.684713,208.028408 C273.897876,206.596575 276.842798,207.131524 278.410999,209.250246 C279.979199,211.368967 279.630539,214.341705 277.61465,216.040064 L277.611529,216.043185 Z" id="Path" fill="#029E83" fill-rule="nonzero"></path>
                <path d="M262.203057,177.177134 C264.175541,179.093439 273.373185,181.081529 273.373185,181.081529 C273.373185,181.081529 271.119809,171.946306 269.147325,170.03 C267.144117,168.32739 264.163886,168.469556 262.331844,170.355118 C260.499802,172.24068 260.443487,175.223769 262.203057,177.177134 Z" id="Path" fill="#029E83" fill-rule="nonzero"></path>
                <path d="M256.987834,200.22586 C259.444076,201.474268 268.813376,200.609745 268.813376,200.609745 C268.813376,200.609745 263.932102,192.566879 261.472739,191.327834 C259.868524,190.382042 257.871307,190.407489 256.291711,191.393847 C254.712114,192.380204 253.812609,194.163576 253.958283,196.020134 C254.103958,197.876691 255.270606,199.497942 256.984713,200.22586 L256.987834,200.22586 Z" id="Path" fill="#029E83" fill-rule="nonzero"></path>
                <path d="M254.990382,223.324522 C257.203185,224.959936 266.581847,225.699618 266.581847,225.699618 C266.581847,225.699618 263.13,216.960764 260.917197,215.309745 C259.495399,214.1119 257.525875,213.803072 255.805678,214.508241 C254.08548,215.213411 252.899438,216.815816 252.727534,218.666976 C252.555629,220.518136 253.426327,222.311536 254.987261,223.321401 L254.990382,223.324522 Z" id="Path" fill="#029E83" fill-rule="nonzero"></path>
                <path d="M274.446815,155.099045 C274.446815,157.851783 269.453185,165.832229 269.453185,165.832229 C269.453185,165.832229 264.459554,157.851783 264.459554,155.099045 C264.633401,152.475038 266.812502,150.435531 269.442261,150.435531 C272.072021,150.435531 274.251121,152.475038 274.424968,155.099045 L274.446815,155.099045 Z" id="Path" fill="#029E83" fill-rule="nonzero" opacity="0.25"></path>
                <path d="M282.683185,170.342102 C281.188217,172.651656 272.667834,176.643439 272.667834,176.643439 C272.667834,176.643439 272.823885,167.236688 274.318854,164.927134 C275.890745,162.817354 278.829945,162.289079 281.038123,163.719451 C283.246301,165.149823 283.965898,168.048125 282.683185,170.345223 L282.683185,170.342102 Z" id="Path" fill="#029E83" fill-rule="nonzero" opacity="0.25"></path>
                <path d="M282.324268,196.393248 C279.868025,197.641656 270.498726,196.777134 270.498726,196.777134 C270.498726,196.777134 275.38,188.734268 277.839363,187.495223 C280.260954,186.466863 283.065049,187.493716 284.249854,189.842729 C285.43466,192.191742 284.59373,195.057088 282.327389,196.393248 L282.324268,196.393248 Z" id="Path" fill="#029E83" fill-rule="nonzero" opacity="0.25"></path>
                <path d="M277.611529,216.043185 C275.398726,217.678599 266.020064,218.41828 266.020064,218.41828 C266.020064,218.41828 269.471911,209.679427 271.684713,208.028408 C273.897876,206.596575 276.842798,207.131524 278.410999,209.250246 C279.979199,211.368967 279.630539,214.341705 277.61465,216.040064 L277.611529,216.043185 Z" id="Path" fill="#029E83" fill-rule="nonzero" opacity="0.25"></path>
                <path d="M262.203057,177.177134 C264.175541,179.093439 273.373185,181.081529 273.373185,181.081529 C273.373185,181.081529 271.119809,171.946306 269.147325,170.03 C267.144117,168.32739 264.163886,168.469556 262.331844,170.355118 C260.499802,172.24068 260.443487,175.223769 262.203057,177.177134 Z" id="Path" fill="#029E83" fill-rule="nonzero" opacity="0.25"></path>
                <path d="M256.987834,200.22586 C259.444076,201.474268 268.813376,200.609745 268.813376,200.609745 C268.813376,200.609745 263.932102,192.566879 261.472739,191.327834 C259.868524,190.382042 257.871307,190.407489 256.291711,191.393847 C254.712114,192.380204 253.812609,194.163576 253.958283,196.020134 C254.103958,197.876691 255.270606,199.497942 256.984713,200.22586 L256.987834,200.22586 Z" id="Path" fill="#029E83" fill-rule="nonzero" opacity="0.25"></path>
                <path d="M254.990382,223.324522 C257.203185,224.959936 266.581847,225.699618 266.581847,225.699618 C266.581847,225.699618 263.13,216.960764 260.917197,215.309745 C259.495399,214.1119 257.525875,213.803072 255.805678,214.508241 C254.08548,215.213411 252.899438,216.815816 252.727534,218.666976 C252.555629,220.518136 253.426327,222.311536 254.987261,223.321401 L254.990382,223.324522 Z" id="Path" fill="#029E83" fill-rule="nonzero" opacity="0.25"></path>
                <path d="M283.906624,237.65 C283.906624,237.65 277.293185,215.178662 285.155032,198.66535 C288.493744,191.753478 289.500188,183.945055 288.023248,176.412484 C287.294666,172.842641 286.240557,169.347055 284.87414,165.969554" id="Path" stroke="#535461"></path>
                <path d="M289.752293,155.523503 C289.752293,158.276242 284.758662,166.256688 284.758662,166.256688 C284.758662,166.256688 279.765032,158.276242 279.765032,155.523503 C279.938879,152.899496 282.117979,150.85999 284.747739,150.85999 C287.377498,150.85999 289.556599,152.899496 289.730446,155.523503 L289.752293,155.523503 Z" id="Path" fill="#02C6A3" fill-rule="nonzero"></path>
                <path d="M297.988662,170.769682 C296.493694,173.079236 287.963949,177.058535 287.963949,177.058535 C287.963949,177.058535 288.12,167.651783 289.614968,165.342229 C291.18686,163.23245 294.12606,162.704175 296.334238,164.134547 C298.542415,165.564919 299.262012,168.46322 297.979299,170.760318 L297.988662,170.769682 Z" id="Path" fill="#02C6A3" fill-rule="nonzero"></path>
                <path d="M297.639108,196.820828 C295.182866,198.069236 285.813567,197.204713 285.813567,197.204713 C285.813567,197.204713 290.694841,189.161847 293.154204,187.922803 C295.574502,186.901821 298.372,187.9305 299.554319,190.276213 C300.736637,192.621926 299.899496,195.482586 297.639108,196.820828 Z" id="Path" fill="#02C6A3" fill-rule="nonzero"></path>
                <path d="M292.917006,216.470764 C290.704204,218.106178 281.325541,218.84586 281.325541,218.84586 C281.325541,218.84586 284.777389,210.107006 286.990191,208.455987 C289.203354,207.024155 292.148276,207.559104 293.716476,209.677825 C295.284677,211.796547 294.936017,214.769285 292.920127,216.467643 L292.917006,216.470764 Z" id="Path" fill="#02C6A3" fill-rule="nonzero"></path>
                <path d="M277.508535,177.604713 C279.481019,179.521019 288.678662,181.509108 288.678662,181.509108 C288.678662,181.509108 286.425287,172.373885 284.452803,170.45758 C282.449595,168.75497 279.469363,168.897136 277.637322,170.782698 C275.80528,172.66826 275.748965,175.651349 277.508535,177.604713 Z" id="Path" fill="#02C6A3" fill-rule="nonzero"></path>
                <path d="M272.290191,200.653439 C274.746433,201.901847 284.115732,201.037325 284.115732,201.037325 C284.115732,201.037325 279.225096,192.994459 276.778217,191.755414 C274.356626,190.727054 271.552531,191.753907 270.367725,194.10292 C269.18292,196.451933 270.02385,199.317279 272.290191,200.653439 Z" id="Path" fill="#02C6A3" fill-rule="nonzero"></path>
                <path d="M270.292739,223.752102 C272.505541,225.387516 281.884204,226.127197 281.884204,226.127197 C281.884204,226.127197 278.432357,217.388344 276.219554,215.737325 C274.797756,214.53948 272.828232,214.230652 271.108034,214.935821 C269.387837,215.64099 268.201795,217.243396 268.02989,219.094556 C267.857986,220.945715 268.728684,222.739116 270.289618,223.748981 L270.292739,223.752102 Z" id="Path" fill="#02C6A3" fill-rule="nonzero"></path>
                <path d="M336.580064,25.5049682 L301.790064,25.5049682 C300.129287,25.5049682 298.782962,24.1586428 298.782962,22.4978662 C298.782962,20.8370897 300.129287,19.4907643 301.790064,19.4907643 L307.804268,19.4907643 C306.143491,19.4907643 304.797166,18.1444389 304.797166,16.4836624 C304.797166,14.8228859 306.143491,13.4765605 307.804268,13.4765605 L303.506624,13.4765605 C301.845848,13.4765605 300.499522,12.1302351 300.499522,10.4694586 C300.499522,8.80868207 301.845848,7.46235669 303.506624,7.46235669 L321.670955,7.46235669 C317.64172,5.58974522 312.932102,4.25707006 307.507771,3.55796178 C257.995924,-2.80267516 240.318471,1.4044586 234.082675,5.74267516 C226.389363,11.0796178 217.806561,15.0058599 208.633885,16.8971975 C178.079108,23.192293 120.948854,30.7732484 69.1805096,14.4534395 C43.444586,6.33878981 24.3158599,20.0463057 12.8523567,42.9421019 L342.622357,42.9421019 C342.191656,36.2880892 340.902675,30.1459236 338.536943,24.7652866 C337.995003,25.2394475 337.300146,25.5020968 336.580064,25.5049682 Z" id="Path" fill="#196690" fill-rule="nonzero" opacity="0.2773391"></path>
                <path d="M1.14229299,86.1713376 C-0.193342844,99.6401629 0.261076665,113.226572 2.49369427,126.576051 L307.938471,137.733694 C316.441178,127.952741 323.580342,117.065514 329.161401,105.368726 L1.14229299,86.1713376 Z M121.925732,114.993949 L115.924013,114.993949 C117.584789,114.993949 118.931115,116.340274 118.931115,118.001051 C118.931115,119.661827 117.584789,121.008153 115.924013,121.008153 L81.1340127,121.008153 C79.4732362,121.008153 78.1269108,119.661827 78.1269108,118.001051 C78.1269108,116.340274 79.4732362,114.993949 81.1340127,114.993949 L87.1482166,114.993949 C85.48744,114.993949 84.1411146,113.647624 84.1411146,111.986847 C84.1411146,110.326071 85.48744,108.979745 87.1482166,108.979745 L82.8505732,108.979745 C81.1897967,108.979745 79.8434713,107.63342 79.8434713,105.972643 C79.8434713,104.311867 81.1897967,102.965541 82.8505732,102.965541 L117.640573,102.965541 C119.30135,102.965541 120.647675,104.311867 120.647675,105.972643 C120.647675,107.63342 119.30135,108.979745 117.640573,108.979745 L121.925732,108.979745 C123.586509,108.979745 124.932834,110.326071 124.932834,111.986847 C124.932834,113.647624 123.586509,114.993949 121.925732,114.993949 Z" id="Shape" fill="#196690" fill-rule="nonzero" opacity="0.2773391"></path>
                <path d="M342.634841,43.1668153 L9.15707006,51.281465 C5.09974522,61.7087898 2.41254777,73.5 1.17038217,85.7187898 L336.792293,85.7187898 C338.985839,78.5403213 340.608619,71.1997177 341.645478,63.7655414 C342.634841,56.5871975 343.037452,49.6304459 342.634841,43.1668153 Z M68.8684076,69.739172 L62.8666879,69.739172 C64.5274644,69.739172 65.8737898,71.0854974 65.8737898,72.7462739 C65.8737898,74.4070504 64.5274644,75.7533758 62.8666879,75.7533758 L28.0766879,75.7533758 C26.4159114,75.7533758 25.069586,74.4070504 25.069586,72.7462739 C25.069586,71.0854974 26.4159114,69.739172 28.0766879,69.739172 L34.0908917,69.739172 C32.4301152,69.739172 31.0837898,68.3928466 31.0837898,66.7320701 C31.0837898,65.0712935 32.4301152,63.7249682 34.0908917,63.7249682 L29.7932484,63.7249682 C28.1324719,63.7249682 26.7861465,62.3786428 26.7861465,60.7178662 C26.7861465,59.0570897 28.1324719,57.7107643 29.7932484,57.7107643 L64.5832484,57.7107643 C66.2440249,57.7107643 67.5903503,59.0570897 67.5903503,60.7178662 C67.5903503,62.3786428 66.2440249,63.7249682 64.5832484,63.7249682 L68.8684076,63.7249682 C70.5291842,63.7249682 71.8755096,65.0712935 71.8755096,66.7320701 C71.8755096,68.3928466 70.5291842,69.739172 68.8684076,69.739172 L68.8684076,69.739172 Z" id="Shape" fill="#196690" fill-rule="nonzero" opacity="0.2773391"></path>
                <ellipse id="Oval" fill="#029E83" fill-rule="nonzero" opacity="0.487606957" cx="172.071146" cy="243.00879" rx="166.350318" ry="10.2993631"></ellipse>
                <path d="M225.992994,84.3018471 C225.992994,84.3018471 206.701975,66.146879 203.914904,63.4315924 C202.944268,62.4952866 202.026688,61.5589809 201.243312,60.7693631 C199.736544,59.2626729 197.806191,58.2512247 195.709745,57.8699363 C188.481465,56.4998089 181.087771,52.0554777 181.087771,52.0554777 L181.087771,52.0554777 C181.047197,52.0024204 181.006624,51.9556051 180.969172,51.8994268 C180.342642,51.0232455 179.882453,50.0393919 179.611529,48.996879 C179.570955,48.843949 179.530382,48.6847771 179.496051,48.5224841 C179.612569,48.3726752 179.725966,48.2197452 179.836242,48.0636943 C179.962672,48.0196074 180.084883,47.9642467 180.201401,47.8982803 C181.11586,47.3770701 181.630828,46.4126752 181.977261,45.4638854 C182.289363,44.6243312 182.539045,43.6973885 183.281847,43.1512102 C183.547847,43.0037235 183.787307,42.8127883 183.990318,42.5863057 C184.140891,42.2886929 184.198523,41.9526894 184.155732,41.6219108 C184.155732,39.4902548 183.815541,37.8548408 184.311783,35.776242 C185.104522,32.4492357 185.83172,28.2857962 183.319299,25.8170701 C182.021889,24.5638831 180.369728,23.7410719 178.587834,23.4607006 C176.974268,23.2047771 174.586688,25.4019745 172.951274,25.3333121 C168.784713,25.1741401 165.273567,21.4164331 161.312994,22.6305096 C159.589246,23.1536629 158.086284,24.2309688 157.037197,25.6953503 C155.083439,28.4792994 155.270701,32.0809554 155.551592,35.4017197 C155.54743,35.654599 155.622755,35.9024049 155.766943,36.1101911 C155.913631,36.2818471 156.147707,36.3723567 156.291274,36.5440127 C156.444813,36.7719104 156.503065,37.0508474 156.453567,37.3211465 C156.407888,37.8585072 156.277263,38.3852213 156.066561,38.8816561 C155.957302,39.0495363 155.935246,39.2596514 156.007261,39.4465605 C156.085245,39.5495752 156.194894,39.6241366 156.319363,39.6587898 C156.486852,39.715318 156.659258,39.7560685 156.834331,39.7805096 C156.806242,40.0551592 156.781274,40.3298089 156.771911,40.6075796 C156.771911,40.7636306 156.771911,40.9196815 156.771911,41.0788535 C156.787059,45.1990676 158.878216,49.0340295 162.333567,51.2783439 C162.367898,51.5030573 162.40535,51.7340127 162.439682,51.9743312 C162.545796,52.7140127 162.642548,53.5348408 162.714331,54.4274522 C162.714331,54.5897452 162.739299,54.7395541 162.751783,54.9174522 L162.667516,54.7457962 L149.247134,61.3249045 C148.255552,61.5541895 147.329816,62.0079814 146.54121,62.6513376 L146.275924,62.7824204 L146.275924,62.8604459 C146.165648,62.9519958 146.053291,63.0497877 145.938854,63.1538217 L134.294331,50.0018471 L107.141465,73.5717834 L122.07242,89.6481529 L138.851019,88.2499363 C138.023949,93.9301911 137.459045,98.2840127 137.459045,98.2840127 C137.459045,98.2840127 134.391083,111.432866 149.253376,108.917325 C149.156624,117.209873 145.604904,131.048471 145.604904,131.048471 C146.017882,131.588816 146.504251,132.068882 147.049936,132.474777 L146.965669,133.039682 L146.029363,139.397197 C146.029363,139.397197 140.455223,154.84 139.600064,168.613057 C138.744904,182.386115 137.671274,190.107516 137.671274,190.107516 L135.742484,217.656752 L133.030318,230.253185 C128.563012,235.138876 123.361262,239.29817 117.612484,242.58121 C117.099879,242.85337 116.718382,243.320387 116.553984,243.876991 C116.389586,244.433595 116.456124,245.032942 116.738599,245.539936 C117.837197,247.431274 121.217261,249.394395 131.454204,246.248408 C147.745924,241.254777 146.244713,241.44828 146.244713,241.44828 C146.244713,241.44828 146.485032,234.763057 145.792166,230.799363 C145.770318,230.680764 145.748471,230.565287 145.726624,230.449809 C149.627898,226.052293 147.742803,218.902038 147.742803,218.902038 C147.742803,218.902038 155.457962,203.877452 151.800127,194.068089 C151.800127,194.068089 150.941847,185.719363 155.445478,181.755669 C155.507898,181.69949 155.573439,181.63707 155.638981,181.571529 L155.69828,181.509108 L155.844968,181.353057 L155.91051,181.281274 L156.082166,181.081529 L156.119618,181.037834 C156.18828,180.953567 156.260064,180.863057 156.331847,180.769427 L156.388025,180.694522 L156.569045,180.491656 L156.637707,180.391783 L156.806242,180.145223 L156.86242,180.064076 L157.090255,179.717643 L157.133949,179.648981 L157.324331,179.336879 L157.396115,179.21828 L157.570892,178.924904 L157.636433,178.812548 L157.876752,178.394331 L157.876752,178.394331 L158.11707,177.963631 L158.185732,177.835669 L158.369873,177.495478 L158.441656,177.358153 L158.663248,176.936815 L158.691338,176.883758 L158.947261,176.384395 L159.009682,176.262675 L159.209427,175.866306 L159.284331,175.716497 L159.493439,175.292038 L159.546497,175.185924 L159.808662,174.639745 L159.852357,174.549236 L160.070828,174.084204 L160.145732,173.925032 L160.348599,173.49121 L160.41414,173.350764 L160.682548,172.767134 L160.682548,172.767134 L160.941592,172.189745 L161.013376,172.030573 L161.216242,171.571783 L161.284904,171.412611 L161.562675,170.816497 L161.562675,170.791529 L161.834204,170.167325 L161.893503,170.033121 L162.105732,169.54 L162.177516,169.374586 L162.399108,168.847134 L162.442803,168.747261 L162.71121,168.123057 L162.754904,168.020064 L162.976497,167.48949 L163.04828,167.317834 L163.251146,166.821592 L163.310446,166.678025 L163.56949,166.053822 L163.591338,166.000764 L163.825414,165.423376 L163.897197,165.245478 L164.08758,164.771083 L164.156242,164.599427 L164.380955,164.031401 L164.402803,163.972102 L164.646242,163.347898 L164.718025,163.166879 L164.892803,162.720573 L164.967707,162.523949 L165.151847,162.049554 L165.204904,161.909108 L165.432739,161.319236 L165.495159,161.156943 L165.660573,160.726242 L165.744841,160.507771 L165.891529,160.127006 L165.969554,159.921019 L166.175541,159.374841 L166.234841,159.215669 L166.38465,158.816178 L166.468917,158.594586 L166.593758,158.260637 L166.678025,158.032803 L166.818471,157.655159 L166.908981,157.41172 L167.049427,157.030955 L167.139936,156.787516 L167.236688,156.52535 L167.327197,156.275669 L167.405223,156.060318 L167.614331,155.492293 L167.648662,155.395541 L167.745414,155.127134 L167.810955,154.949236 L167.910828,154.677707 L167.957643,154.549745 C168.853376,152.081019 169.402675,150.49242 169.402675,150.49242 C169.402675,150.49242 173.46,164.683694 172.835796,169.065605 C172.211592,173.447516 176.693376,189.726752 176.693376,189.726752 C176.693376,189.726752 174.121656,206.005987 175.622866,209.969682 C177.124076,213.933376 173.478726,228.751975 173.478726,228.751975 C173.478726,228.751975 173.756497,228.904904 174.227771,229.138981 L174.199682,229.541592 C173.965605,232.799936 173.456879,239.060701 172.835796,241.482611 C171.977516,244.822102 172.408217,248.370701 179.265096,247.952484 C186.121975,247.534268 186.337325,243.361465 186.337325,243.361465 C186.337325,243.361465 184.074586,236.064522 183.796815,231.760637 C183.796815,231.620191 183.796815,231.482866 183.778089,231.348662 L183.778089,231.348662 L183.971592,231.276879 L184.027771,231.255032 C184.105796,231.220701 184.180701,231.186369 184.252484,231.148917 L184.252484,231.148917 C184.321146,231.111465 184.383567,231.074013 184.449108,231.033439 L184.505287,230.995987 C184.559384,230.958535 184.612442,230.919002 184.664459,230.877389 L184.701911,230.846178 C184.764331,230.794161 184.823631,230.740064 184.879809,230.683885 L184.920382,230.643312 C184.964076,230.595456 185.00673,230.546561 185.048344,230.496624 L185.092038,230.440446 C185.141975,230.374904 185.191911,230.306242 185.238726,230.231338 C187.595096,226.486115 187.810446,218.543121 187.810446,218.543121 C187.810446,218.543121 192.526306,191.830318 190.812866,188.269236 C189.099427,184.708153 189.954586,176.375032 189.954586,176.375032 C189.954586,176.375032 188.025796,163.853503 190.169936,157.801847 C191.77414,153.270127 192.779108,137.621338 192.732293,130.134013 C192.732293,129.977962 192.732293,129.825032 192.732293,129.675223 C192.732293,129.622166 192.732293,129.569108 192.732293,129.516051 C194.330255,127.531083 195.54121,124.048025 194.679809,117.943312 C194.629873,117.596879 194.59242,117.247325 194.554968,116.891529 C196.989363,115.071975 199.392548,112.934076 199.392548,112.934076 L200.222739,112.078917 L200.488025,111.804268 C200.718981,111.901019 200.96242,111.988408 201.215223,112.066433 C202.151529,112.490892 202.819427,112.728089 202.819427,112.728089 C202.819427,112.728089 215.038217,102.709618 224.254586,97.9094904 C233.470955,93.1093631 225.992994,84.3018471 225.992994,84.3018471 Z M211.417834,93.0656688 C211.417834,93.0656688 198.556115,101.217771 196.205987,105.38121 C196.070296,105.614286 195.965388,105.863967 195.893885,106.124013 L195.581783,106.255096 L195.581783,106.255096 L195.188535,106.404904 C197.157898,95.1692357 202.429299,84.0927389 202.429299,84.0927389 C202.429299,84.0927389 206.486624,87.6413376 209.295541,89.0863694 C212.104459,90.5314013 211.417834,93.0687898 211.417834,93.0687898 L211.417834,93.0656688 Z" id="Shape" fill="url(#linearGradient-1)" fill-rule="nonzero"></path>
                <path d="M132.765032,244.956306 C122.890127,248.077325 119.628662,246.129809 118.570637,244.254076 C118.010588,243.210289 118.384378,241.910331 119.413312,241.323439 C125.025643,238.024505 130.081589,233.859669 134.394204,228.98293 C135.492803,227.734522 136.070191,226.969873 136.070191,226.969873 C136.070191,226.969873 143.719809,225.52172 145.579936,226.969873 C146.044968,227.331911 146.369554,228.343121 146.591146,229.653949 C147.259045,233.580191 147.028089,240.202994 147.028089,240.202994 C147.028089,240.202994 148.476242,239.993885 132.765032,244.956306 Z" id="Path" fill="#4D4F51" fill-rule="nonzero"></path>
                <path d="M185.688153,242.06 C185.688153,242.06 185.482166,246.19535 178.865605,246.607325 C172.249045,247.019299 171.83707,243.505032 172.66414,240.199873 C173.263376,237.80293 173.753376,231.601465 173.978089,228.37121 C174.062357,227.14465 174.109172,226.34879 174.109172,226.34879 C174.109172,226.34879 184.445987,225.315732 183.41293,228.221401 C183.20957,228.990374 183.150313,229.790348 183.238153,230.580892 C183.506561,234.834841 185.688153,242.06 185.688153,242.06 Z" id="Path" fill="#4D4F51" fill-rule="nonzero"></path>
                <path d="M146.581783,229.653949 L146.397643,229.866178 C142.46828,234.207516 134.200701,229.866178 134.200701,229.866178 L134.384841,228.986051 C135.483439,227.737643 136.060828,226.972994 136.060828,226.972994 C136.060828,226.972994 143.710446,225.524841 145.570573,226.972994 C146.048089,227.331911 146.372675,228.343121 146.581783,229.653949 Z" id="Path" fill="#000000" fill-rule="nonzero" opacity="0.1"></path>
                <path d="M183.409809,228.208917 C183.206449,228.97789 183.147191,229.777864 183.235032,230.568408 C180.532229,231.504713 175.744586,229.28879 173.974968,228.383694 C174.059236,227.157134 174.106051,226.361274 174.106051,226.361274 C174.106051,226.361274 184.449108,225.315732 183.409809,228.208917 Z" id="Path" fill="#000000" fill-rule="nonzero" opacity="0.1"></path>
                <path d="M190.02949,187.482739 C191.683631,190.997006 187.136306,217.444522 187.136306,217.444522 C187.136306,217.444522 186.930318,225.300127 184.655096,229.020382 C182.379873,232.740637 173.285223,227.572229 173.285223,227.572229 C173.285223,227.572229 176.79949,212.903439 175.351338,208.964713 C173.903185,205.025987 176.384395,188.918408 176.384395,188.918408 C176.384395,188.918408 172.043057,172.792102 172.66414,168.450764 C173.285223,164.109427 169.35586,150.036752 169.35586,150.036752 C169.35586,150.036752 160.258089,177.120955 155.916752,181.047197 C151.575414,184.973439 152.402484,193.24414 152.402484,193.24414 C155.916752,202.959873 148.473121,217.847134 148.473121,217.847134 C148.473121,217.847134 150.345732,225.081656 146.407006,229.422994 C142.46828,233.764331 134.210064,229.422994 134.210064,229.422994 L136.906624,216.633057 L138.779236,189.342866 C138.779236,189.342866 139.812293,181.693248 140.651847,168.048153 C141.491401,154.403057 146.853312,139.103822 146.853312,139.103822 L147.752166,132.805605 L148.507452,127.524841 C148.507452,127.524841 190.475796,126.076688 191.508854,125.870701 C191.767898,125.817643 191.898981,127.396879 191.911465,129.884331 C191.95828,137.302994 190.975159,152.801975 189.439618,157.293121 C187.373503,163.288599 189.233631,175.707134 189.233631,175.707134 C189.233631,175.707134 188.37535,183.968471 190.02949,187.482739 Z" id="Path" fill="#196690" fill-rule="nonzero"></path>
                <g id="Group" opacity="0.05" transform="translate(140.133758, 125.777070)" fill="#000000" fill-rule="nonzero">
                    <path d="M26.95,24.2846497 C26.95,24.2846497 17.8522293,51.3688535 13.5108917,55.2950955 C9.16955414,59.2213376 9.9966242,67.4920382 9.9966242,67.4920382 C13.5108917,77.2077707 6.06726115,92.0950318 6.06726115,92.0950318 C6.06726115,92.0950318 7.93987261,99.3295541 4.0011465,103.670892 C3.00478835,104.744745 1.64621488,105.411803 0.187261146,105.543503 C2.37197452,105.771338 4.67840764,105.44051 6.27324841,103.670892 C10.2026115,99.3295541 8.33936306,92.0950318 8.33936306,92.0950318 C8.33936306,92.0950318 15.7829936,77.2108917 12.2687261,67.4920382 C12.2687261,67.4920382 11.4416561,59.2213376 15.7829936,55.2950955 C19.1193631,52.2770701 25.2584076,35.5983439 27.926879,28.0267516 C27.3775796,25.8170701 26.95,24.2846497 26.95,24.2846497 Z" id="Path"></path>
                    <path d="M49.0686624,49.9207006 C49.0686624,49.9207006 47.196051,37.5177707 49.2746497,31.5066879 C50.8351592,27.0155414 51.7901911,11.5165605 51.7464968,4.09789809 C51.7464968,1.6010828 51.6029299,0.0405732484 51.3438854,0.0842675159 C51.2159236,0.109235669 50.4450318,0.156050955 49.1997452,0.215350318 C49.3745223,0.639808917 49.4619108,2.06299363 49.4743949,4.10101911 C49.5212102,11.5196815 48.5380892,27.0186624 47.0025478,31.5098089 C44.9364331,37.5052866 46.7965605,49.9238217 46.7965605,49.9238217 C46.7965605,49.9238217 45.9694904,58.1945223 47.6236306,61.7087898 C49.2777707,65.2230573 44.7304459,91.6705732 44.7304459,91.6705732 C44.7304459,91.6705732 44.5244586,99.5261783 42.2492357,103.246433 C41.8252911,103.915718 41.1340879,104.370457 40.3516561,104.494841 C42.1212739,104.757006 43.7317197,104.538535 44.5213376,103.246433 C46.7965605,99.5261783 47.0025478,91.6705732 47.0025478,91.6705732 C47.0025478,91.6705732 51.5498726,65.2074522 49.8957325,61.7087898 C48.2415924,58.2101274 49.0686624,49.9207006 49.0686624,49.9207006 Z" id="Path"></path>
                </g>
                <path d="M183.828025,54.9642675 L182.379873,69.2273248 C182.379873,69.2273248 159.431019,74.1897452 161.912229,66.1250318 C163.085732,62.3080255 163.160637,58.2101274 162.889108,54.9549045 C162.817325,54.0747771 162.726815,53.2570701 162.623822,52.5236306 C162.455898,51.2568696 162.218341,50.0003174 161.912229,48.7596815 C161.912229,48.7596815 179.702038,35.3205732 178.865605,44.4183439 C178.673806,46.137773 178.784718,47.8775098 179.193312,49.5586624 C179.453565,50.5879439 179.89764,51.5617372 180.50414,52.433121 C181.967898,54.4992357 183.828025,54.9642675 183.828025,54.9642675 Z" id="Path" fill="#FDC2CC" fill-rule="nonzero"></path>
                <path d="M179.196433,49.5617834 C179.031019,49.7864968 178.856242,50.0080892 178.678344,50.2203185 C174.687425,54.9510976 167.786421,55.9438548 162.623822,52.5298726 C162.455898,51.2631116 162.218341,50.0065594 161.912229,48.7659236 C161.912229,48.7659236 179.702038,35.3268153 178.865605,44.424586 C178.675194,46.1431689 178.787161,47.8818192 179.196433,49.5617834 L179.196433,49.5617834 Z" id="Path" fill="#000000" fill-rule="nonzero" opacity="0.1"></path>
                <path d="M181.552803,41.7311465 C181.552803,48.4673319 176.092045,53.9280892 169.35586,53.9280892 C162.619674,53.9280892 157.158917,48.4673319 157.158917,41.7311465 C157.158917,41.5750955 157.158917,41.4190446 157.158917,41.2629936 C157.419038,34.6268835 162.940641,29.4185447 169.580624,29.5460242 C176.220606,29.6735037 181.538227,35.0899423 181.543439,41.7311465 L181.552803,41.7311465 Z" id="Path" fill="#FDC2CC" fill-rule="nonzero"></path>
                <path d="M191.880255,129.890573 C190.834667,131.293497 189.27814,132.227638 187.54828,132.490382 L178.047898,135.814268 L178.026051,135.814268 L175.14535,136.822357 L173.937516,133.851146 L172.458153,130.205796 L172.458153,136.822357 C172.458153,136.822357 154.306306,138.070764 147.720955,132.799363 L148.476242,127.518599 C148.476242,127.518599 190.444586,126.070446 191.477643,125.864459 C191.736688,125.823885 191.867771,127.4 191.880255,129.890573 Z" id="Path" fill="#000000" fill-rule="nonzero" opacity="0.1"></path>
                <path d="M183.828025,54.9642675 L182.379873,69.2273248 C182.379873,69.2273248 159.431019,74.1897452 161.912229,66.1250318 C163.085732,62.3080255 163.160637,58.2101274 162.889108,54.9549045 C163.285478,55.7850955 166.203631,61.6588535 169.976943,62.6794268 L169.976943,62.6794268 C170.446586,62.8109578 170.935962,62.8574644 171.421975,62.8167516 C172.224451,62.7216349 172.989894,62.4253343 173.647261,61.9553503 C177.04293,59.6988535 179.889299,53.7595541 180.513503,52.436242 C181.967898,54.4992357 183.828025,54.9642675 183.828025,54.9642675 Z" id="Path" fill="#000000" fill-rule="nonzero" opacity="0.1"></path>
                <path d="M222.282102,97.9656688 C213.393439,102.722102 201.608471,112.634459 201.608471,112.634459 C201.608471,112.634459 192.925796,109.532166 195.201019,105.399936 C197.476242,101.267707 209.869809,93.2029936 209.869809,93.2029936 C209.869809,93.2029936 210.494013,90.7217834 207.803694,89.2736306 C205.113376,87.8254777 201.187134,84.3112102 201.187134,84.3112102 C201.187134,84.3112102 191.883376,104.363758 193.743503,117.802866 C195.603631,131.241975 187.542038,131.847452 187.542038,131.847452 L178.041656,135.171338 L178.019809,135.171338 L175.139108,136.179427 L173.931274,133.208217 L172.451911,129.562866 L172.451911,136.179427 C172.451911,136.179427 151.363185,137.62758 146.403885,130.805032 C146.403885,130.805032 150.95121,112.612611 149.712166,105.584076 C148.473121,98.5555414 147.024968,63.203758 147.024968,63.203758 L162.839172,55.2451592 C162.839172,55.2451592 165.932102,61.9959236 169.989427,63.0976433 L169.989427,63.0976433 C170.45907,63.2291744 170.948447,63.275681 171.434459,63.2349682 C172.236935,63.1398515 173.002378,62.8435509 173.659745,62.3735669 C177.489236,59.8299363 180.635223,52.589172 180.635223,52.589172 C180.635223,52.589172 187.766752,56.9898089 194.739108,58.3474522 C196.771857,58.7306439 198.636158,59.7336599 200.076051,61.2187898 C200.831338,62.0084076 201.717707,62.9166242 202.654013,63.856051 C205.34121,66.5432484 223.948726,84.5296815 223.948726,84.5296815 C223.948726,84.5296815 231.161401,93.2092357 222.282102,97.9656688 Z" id="Path" fill="#B3143C" fill-rule="nonzero"></path>
                <path d="M201.823822,109.129554 L199.108535,112.004013 L198.309554,112.85293 C198.309554,112.85293 191.075032,119.46949 189.211783,119.260382 C187.348535,119.051274 184.249363,106.442357 187.963376,107.269427 C190.222994,107.771911 192.866497,106.979172 194.589299,106.276943 L194.589299,106.276943 C195.22151,106.02386 195.838436,105.734154 196.436943,105.409299 L201.823822,109.129554 Z" id="Path" fill="#FDC2CC" fill-rule="nonzero"></path>
                <path d="M181.552803,41.7311465 C181.557558,44.6121966 180.537598,47.4010472 178.675223,49.5992357 C178.026101,49.6617874 177.395589,49.3603425 177.036688,48.8158599 C176.693376,48.2135032 176.836943,47.4582166 176.609108,46.8090446 C176.381274,46.1598726 175.863185,45.7135669 175.535478,45.1361783 C174.705287,43.6817834 175.054841,41.4783439 173.534904,40.6980892 C172.835796,40.342293 171.99,40.4608917 171.209745,40.5919745 C169.677325,40.8447771 168.135541,41.3472611 166.624968,41.5563694 C164.902166,41.7998089 163.351019,40.6793631 161.650064,40.6543949 C160.133248,40.6294268 158.610191,41.5189172 157.171401,41.2629936 C157.431522,34.6268835 162.953125,29.4185447 169.593108,29.5460242 C176.23309,29.6735037 181.550711,35.0899423 181.555924,41.7311465 L181.552803,41.7311465 Z" id="Path" fill="#000000" fill-rule="nonzero" opacity="0.1"></path>
                <path d="M171.209745,39.7649045 C171.99,39.6369427 172.835796,39.5152229 173.534904,39.8741401 C175.054841,40.6512739 174.705287,42.8547134 175.535478,44.3091083 C175.863185,44.8864968 176.393758,45.3577707 176.612229,45.9819745 C176.830701,46.6061783 176.696497,47.3864331 177.039809,47.9887898 C177.536051,48.8595541 178.88121,48.9875159 179.764459,48.4694268 C180.647707,47.9513376 181.140828,46.9994268 181.474777,46.056879 C181.768153,45.2266879 182.014713,44.3091083 182.723185,43.766051 C182.980688,43.6194078 183.211736,43.4305606 183.406688,43.2073885 C183.553082,42.9117869 183.609511,42.5797232 183.568981,42.2523567 C183.568981,40.1425478 183.241274,38.5071338 183.71879,36.4628662 C184.483439,33.1670701 185.182548,29.0410828 182.760637,26.5973248 C181.520809,25.3616925 179.925174,24.5453213 178.197707,24.2628025 C176.637197,24.006879 174.340127,26.1853503 172.760892,26.135414 C168.74414,25.976242 165.354713,22.2559873 161.525223,23.4575796 C159.850834,23.983571 158.399187,25.0519917 157.399236,26.4943312 C155.526624,29.2533121 155.695159,32.8175159 155.966688,36.1101911 C155.962612,36.3601887 156.035624,36.6053767 156.175796,36.8124204 C156.316242,36.9809554 156.544076,37.071465 156.681401,37.243121 C156.829153,37.4698912 156.884955,37.7444357 156.837452,38.0108917 C156.79567,38.5472284 156.670359,39.0737459 156.466051,39.5714013 C156.361707,39.7399839 156.340978,39.9472783 156.409873,40.1331847 C156.486676,40.2374329 156.596792,40.3123116 156.721975,40.345414 C158.282484,40.9071975 159.967834,39.8242038 161.63758,39.852293 C163.307325,39.8803822 164.892803,40.997707 166.615605,40.7542675 C168.135541,40.5201911 169.677325,40.017707 171.209745,39.7649045 Z" id="Path" fill="#474847" fill-rule="nonzero"></path>
                <path d="M178.051019,135.193185 L178.029172,135.193185 L175.042357,136.304268 L173.937516,133.230064 L169.255987,120.177962 L169.989427,63.0976433 L169.989427,63.0976433 C170.45907,63.2291744 170.948447,63.275681 171.434459,63.2349682 C172.236935,63.1398515 173.002378,62.8435509 173.659745,62.3735669 L173.659745,62.3735669 L172.773376,118.551911 L178.051019,135.193185 Z" id="Path" fill="#000000" fill-rule="nonzero" opacity="0.05"></path>
                <circle id="Oval" fill="#FFFFFF" fill-rule="nonzero" cx="172.252166" cy="65.3010828" r="1"></circle>
                <circle id="Oval" fill="#FFFFFF" fill-rule="nonzero" cx="171.01" cy="86.3866879" r="1"></circle>
                <circle id="Oval" fill="#FFFFFF" fill-rule="nonzero" cx="169.976943" cy="108.302484" r="1"></circle>
                <circle id="Oval" fill="#FFFFFF" fill-rule="nonzero" cx="171.219108" cy="119.257261" r="1"></circle>
                <polygon id="Path" fill="#000000" fill-rule="nonzero" opacity="0.05" points="192.513822 88.8678981 179.280701 88.8678981 179.280701 75.6378981 185.897261 73.7746497 192.513822 75.6378981"></polygon>
                <circle id="Oval" fill="#FFFFFF" fill-rule="nonzero" cx="171.631083" cy="75.0168153" r="1"></circle>
                <circle id="Oval" fill="#FFFFFF" fill-rule="nonzero" cx="186.309236" cy="75.6378981" r="1"></circle>
                <circle id="Oval" fill="#FFFFFF" fill-rule="nonzero" cx="170.392038" cy="97.7565605" r="1"></circle>
                <path d="M149.924395,61.7868153 C149.924395,61.7868153 144.134904,62.6138854 142.274777,73.1566879 C140.41465,83.6994904 138.554522,98.3776433 138.554522,98.3776433 C138.554522,98.3776433 135.452229,112.022739 150.95121,108.708217 L151.77828,103.951783 C151.77828,103.951783 150.217771,109.429172 150.642229,98.4743949 C151.066688,87.5196178 151.160318,80.3724841 151.160318,80.3724841 L149.924395,61.7868153 Z" id="Path" fill="#B3143C" fill-rule="nonzero"></path>
                <path d="M149.924395,61.7868153 C149.924395,61.7868153 144.134904,62.6138854 142.274777,73.1566879 C140.41465,83.6994904 138.554522,98.3776433 138.554522,98.3776433 C138.554522,98.3776433 135.452229,112.022739 150.95121,108.708217 L151.77828,103.951783 C151.77828,103.951783 149.400064,109.223185 149.815159,98.2652866 C150.230255,87.3073885 151.160318,80.3818471 151.160318,80.3818471 L149.924395,61.7868153 Z" id="Path" fill="#B3143C" fill-rule="nonzero" opacity="0.05"></path>
                <path d="M201.823822,109.129554 L199.108535,112.004013 C195.247834,110.443503 194.49879,106.351847 194.49879,106.351847 L194.598662,106.276943 L194.598662,106.276943 C195.230873,106.02386 195.847799,105.734154 196.446306,105.409299 L201.823822,109.129554 Z" id="Path" fill="#B3143C" fill-rule="nonzero" opacity="0.1"></path>
                <path d="M197.99121,103.858153 L194.904522,106.14586 C194.904522,106.14586 195.925096,111.713758 201.711465,112.334841 L204.192675,107.993503 L197.99121,103.858153 Z" id="Path" fill="#B3143C" fill-rule="nonzero"></path>
                <polygon id="Path" fill="#F2F5FB" fill-rule="nonzero" points="109.313694 73.8963694 135.492803 50.5480255 147.474395 64.4896178 168.035669 63.4284713 174.268344 76.3182803 154.693312 101.885669 145.523758 87.9565605 123.714076 89.8229299"></polygon>
                <polygon id="Path" fill="#DDE0ED" fill-rule="nonzero" points="172.099236 76.3494904 165.211146 85.2974522 157.861146 94.8477707 154.465478 99.2640127 146.609873 87.0421019 138.370382 87.7661783 124.956242 88.9428025 114.962739 77.8912739 111.526497 74.0929936 125.468089 61.6588535 135.942229 52.3207643 141.338471 58.6002548 147.112357 65.3198089 152.88 65.0233121 166.287898 64.3304459 171.521847 75.1541401"></polygon>
                <polygon id="Path" fill="#ABB1D1" fill-rule="nonzero" points="128.795096 66.9396178 114.962739 77.8912739 111.526497 74.0929936 125.468089 61.6588535"></polygon>
                <polygon id="Path" fill="#ABB1D1" fill-rule="nonzero" points="144.574968 75.0074522 143.485732 68.1443312 136.207516 59.6021019 141.338471 58.6002548 147.112357 65.3198089 152.88 65.0233121 154.996051 73.1972611 144.718535 75.9031847"></polygon>
                <polygon id="Path" fill="#ABB1D1" fill-rule="nonzero" points="172.099236 76.3494904 165.211146 85.2974522 161.634459 79.9043312 171.521847 75.1541401"></polygon>
                <polygon id="Path" fill="#ABB1D1" fill-rule="nonzero" points="157.861146 94.8477707 154.465478 99.2640127 146.609873 87.0421019 138.370382 87.7661783 136.875414 77.4324841 144.574968 75.0074522 145.49879 82.0671975 150.707771 82.8755414"></polygon>
                <g id="Group-2" transform="translate(137.349589, 72.550841)" fill="#B3143C" fill-rule="nonzero" stroke="#B3143C">
                    <path d="M5.18494315,7.3363357 C3.96530116,5.58685793 2.47269443,4.12441887 0.786513175,3.02680413 C0.659238761,2.94464358 0.612987317,2.75731902 0.683207683,2.60840301 C0.753428049,2.45948701 0.913529202,2.40537102 1.04080362,2.48753158 C2.78485184,3.62320019 4.32868004,5.13610765 5.59021854,6.94582798 C5.64955541,7.02974067 5.66642789,7.14416788 5.63455203,7.24649275 C5.60267618,7.34881763 5.5268296,7.42370361 5.4352603,7.44326043 C5.34409204,7.46539138 5.24628044,7.42426329 5.18494315,7.3363357 Z" id="Path"></path>
                    <path d="M1.69754369,7.32036435 C1.63684218,7.22194015 1.63459526,7.09245599 1.69183643,6.99147 L5.15510011,0.592359351 C5.23200968,0.451443039 5.39646259,0.40696206 5.52241595,0.493008304 C5.64836932,0.579054547 5.68812716,0.763044052 5.61121758,0.903960363 L2.14795391,7.30307101 C2.10922231,7.3758502 2.04464238,7.42675493 1.97035065,7.44306567 C1.86564801,7.46709548 1.7582452,7.41878854 1.69754369,7.32036435 Z" id="Path"></path>
                </g>
                <polygon id="Path" fill="#FFFFFF" fill-rule="nonzero" opacity="0.1" points="147.065541 65.2729936 166.247325 64.3398089 146.66293 86.9609554 124.962484 88.6681529"></polygon>
                <path d="M144.134904,100.019299 C144.134904,100.019299 149.303312,87.3385987 151.784522,88.6556688 C154.265732,89.9727389 161.500255,97.8782803 156.540955,101.336369 C151.581656,104.794459 148.064268,106.442357 148.064268,106.442357 L144.134904,105.949236 L144.134904,100.019299 Z" id="Path" fill="#FDC2CC" fill-rule="nonzero"></path>
                <path d="M141.344713,100.134777 C141.344713,100.134777 146.085541,96.4145223 149.915032,107.681401 L146.304013,108.19949 L142.168662,105.71828 L141.344713,100.134777 Z" id="Path" fill="#B3143C" fill-rule="nonzero"></path>
                <path d="M141.344713,100.134777 C141.344713,100.134777 146.085541,96.4145223 149.915032,107.681401 L146.304013,108.19949 L142.168662,105.71828 L141.344713,100.134777 Z" id="Path" fill="#B3143C" fill-rule="nonzero" opacity="0.05"></path>
            </g>
        </g>
    </g>
</svg>