<?xml version="1.0" encoding="UTF-8"?>
<svg width="264px" height="204px" viewBox="0 0 264 204" version="1.1" xmlns="http://www.w3.org/2000/svg" xmlns:xlink="http://www.w3.org/1999/xlink">
    <!-- Generator: Sketch 55 (78076) - https://sketchapp.com -->
    <title>undraw_report_mx0a</title>
    <desc>Created with Sketch.</desc>
    <defs>
        <linearGradient x1="49.9850541%" y1="99.9893978%" x2="49.9850541%" y2="0.00591134653%" id="linearGradient-1">
            <stop stop-color="#808080" stop-opacity="0.25" offset="0%"></stop>
            <stop stop-color="#808080" stop-opacity="0.12" offset="54%"></stop>
            <stop stop-color="#808080" stop-opacity="0.1" offset="100%"></stop>
        </linearGradient>
    </defs>
    <g id="principal" stroke="none" stroke-width="1" fill="none" fill-rule="evenodd">
        <g id="Intro-simulador-version-terceros-4" transform="translate(-52.000000, -159.000000)" fill-rule="nonzero">
            <g id="undraw_report_mx0a" transform="translate(52.000000, 159.000000)">
                <path d="M57.2493079,0.158137421 C48.7603156,-0.15299109 39.8927865,-0.371753325 32.2170377,3.249977 C24.5412889,6.87170733 18.6068093,15.6465036 21.1808593,23.7139687 C22.0209667,26.3439769 23.6572224,28.636119 25.03705,31.0303501 C31.9361879,43.0039364 32.2561125,58.4801491 25.8600622,70.7284036 C20.936642,80.1570559 12.5917379,87.3324572 6.58399309,96.1169762 C0.576248248,104.901495 -2.83790918,117.076829 3.07214875,125.926977 C7.11882891,131.986691 14.62851,134.935119 21.9037424,135.649743 C29.1789749,136.364366 36.4957243,135.238956 43.802705,134.949704 C58.0215193,134.405906 72.1797023,137.070833 85.2170696,142.744931 C103.164597,150.576619 118.625992,163.974591 137.523524,169.144671 C139.792303,169.764498 142.163653,170.26522 144.483717,169.844711 C148.598778,169.098488 151.590439,165.712535 154.811665,163.038774 C165.095654,154.562953 179.333521,152.980573 192.682437,152.586801 C206.031353,152.193029 219.934642,152.496865 232.001418,146.792033 C242.536951,141.811546 250.647406,132.54575 255.690493,122.079192 C260.733579,111.612635 262.924208,99.9817757 263.749663,88.3995307 C264.238097,81.5060897 264.221002,74.389025 261.742197,67.9355391 C258.955678,60.6799249 253.30449,54.9021713 247.377337,49.8511943 C241.183987,44.5717324 234.433822,39.7881315 226.787379,36.9393611 C217.653653,33.536393 207.738432,33.0502547 198.0137,32.2432651 C178.072043,30.5856166 158.285654,27.4231067 138.825203,22.7830139 C120.35505,18.3883236 100.075248,13.5877079 83.2535628,4.63547115 C74.8109718,0.14112258 66.7664549,0.49843423 57.2493079,0.158137421 Z" id="Path" fill="#6BA4B8" opacity="0.354933966"></path>
                <g id="Group" opacity="0.1" transform="translate(170.000000, 111.000000)" fill="#BF0C3F">
                    <path d="M4.67326733,42.9184483 C4.67326733,42.9184483 5.54950495,30.6585057 12.460396,23.9737356 C15.3779249,21.1885873 17.3113933,17.5333965 17.970297,13.5573563 C18.2677946,11.6672363 18.3920714,9.75397267 18.3415842,7.84132184" id="Path"></path>
                    <path d="M22.6707921,3.60310345 C22.1633663,4.95735632 18.240099,7.96735632 18.240099,7.96735632 C18.240099,7.96735632 17.25,3.12614943 17.7623762,1.77189655 C18.2688651,0.418656151 19.7782418,-0.26843231 21.1336633,0.237241495 C22.4890849,0.742915299 23.1772809,2.249863 22.6707921,3.60310345 L22.6707921,3.60310345 Z" id="Path"></path>
                    <path d="M23.9232673,12.6158046 C22.759901,13.4758046 17.8292079,13.8736782 17.8292079,13.8736782 C17.8292079,13.8736782 19.6361386,9.27465517 20.799505,8.41218391 C21.9622202,7.59817472 23.5627405,7.85659281 24.4092037,8.99500155 C25.2556669,10.1334103 25.0402054,11.7377584 23.9232673,12.6133333 L23.9232673,12.6158046 Z" id="Path"></path>
                    <path d="M18.950495,25.3601149 C17.509901,25.5182759 13.0519802,23.3831034 13.0519802,23.3831034 C13.0519802,23.3831034 16.9381188,20.3236782 18.3762376,20.1704598 C19.7643366,20.0944046 20.9700615,21.1144676 21.1227154,22.4940251 C21.2753693,23.8735825 20.3217479,25.131818 18.950495,25.3601149 L18.950495,25.3601149 Z" id="Path"></path>
                    <path d="M13.0123762,34.1578161 C11.6212871,34.5556897 6.86386139,33.1964943 6.86386139,33.1964943 C6.86386139,33.1964943 10.1757426,29.5266667 11.5668317,29.1287931 C12.4762451,28.839984 13.4710168,29.0674328 14.1638998,29.7225976 C14.8567828,30.3777625 15.1382883,31.3571148 14.8988311,32.2794101 C14.659374,33.2017054 13.936793,33.9212033 13.0123762,34.1578161 L13.0123762,34.1578161 Z" id="Path"></path>
                    <path d="M12.5767327,12.2129885 C13.1955446,13.5178161 17.3589109,16.1843103 17.3589109,16.1843103 C17.3589109,16.1843103 17.9331683,11.2788506 17.3118812,9.97155172 C16.6676557,8.70997568 15.1352,8.18883568 13.8535959,8.79549767 C12.5719918,9.40215965 12.0061806,10.9165383 12.5767327,12.2129885 L12.5767327,12.2129885 Z" id="Path"></path>
                    <path d="M5.76237624,22.5898276 C6.75247525,23.65 11.5173267,24.9523563 11.5173267,24.9523563 C11.5173267,24.9523563 10.5940594,20.0987931 9.61138614,19.0361494 C8.62720358,17.9810391 6.97364956,17.9193982 5.91339899,18.8982966 C4.85314843,19.8771949 4.78561864,21.527862 5.76237624,22.5898276 Z" id="Path"></path>
                    <path d="M0.527227723,33.5820115 C1.31435644,34.792931 5.79950495,36.8811494 5.79950495,36.8811494 C5.79950495,36.8811494 5.71039604,31.9386207 4.92079208,30.7301724 C4.11411002,29.5648366 2.52514729,29.25185 1.33560128,30.0239779 C0.146055268,30.7961059 -0.212217282,32.3730325 0.527227723,33.5820115 Z" id="Path"></path>
                    <path d="M22.6707921,3.60310345 C22.1633663,4.95735632 18.240099,7.96735632 18.240099,7.96735632 C18.240099,7.96735632 17.25,3.12614943 17.7623762,1.77189655 C18.2688651,0.418656151 19.7782418,-0.26843231 21.1336633,0.237241495 C22.4890849,0.742915299 23.1772809,2.249863 22.6707921,3.60310345 L22.6707921,3.60310345 Z" id="Path"></path>
                    <path d="M23.9232673,12.6158046 C22.759901,13.4758046 17.8292079,13.8736782 17.8292079,13.8736782 C17.8292079,13.8736782 19.6361386,9.27465517 20.799505,8.41218391 C21.9622202,7.59817472 23.5627405,7.85659281 24.4092037,8.99500155 C25.2556669,10.1334103 25.0402054,11.7377584 23.9232673,12.6133333 L23.9232673,12.6158046 Z" id="Path"></path>
                    <path d="M18.950495,25.3601149 C17.509901,25.5182759 13.0519802,23.3831034 13.0519802,23.3831034 C13.0519802,23.3831034 16.9381188,20.3236782 18.3762376,20.1704598 C19.7643366,20.0944046 20.9700615,21.1144676 21.1227154,22.4940251 C21.2753693,23.8735825 20.3217479,25.131818 18.950495,25.3601149 L18.950495,25.3601149 Z" id="Path"></path>
                    <path d="M13.0123762,34.1578161 C11.6212871,34.5556897 6.86386139,33.1964943 6.86386139,33.1964943 C6.86386139,33.1964943 10.1757426,29.5266667 11.5668317,29.1287931 C12.4762451,28.839984 13.4710168,29.0674328 14.1638998,29.7225976 C14.8567828,30.3777625 15.1382883,31.3571148 14.8988311,32.2794101 C14.659374,33.2017054 13.936793,33.9212033 13.0123762,34.1578161 L13.0123762,34.1578161 Z" id="Path"></path>
                    <path d="M12.5767327,12.2129885 C13.1955446,13.5178161 17.3589109,16.1843103 17.3589109,16.1843103 C17.3589109,16.1843103 17.9331683,11.2788506 17.3118812,9.97155172 C16.6676557,8.70997568 15.1352,8.18883568 13.8535959,8.79549767 C12.5719918,9.40215965 12.0061806,10.9165383 12.5767327,12.2129885 L12.5767327,12.2129885 Z" id="Path"></path>
                    <path d="M5.76237624,22.5898276 C6.75247525,23.65 11.5173267,24.9523563 11.5173267,24.9523563 C11.5173267,24.9523563 10.5940594,20.0987931 9.61138614,19.0361494 C8.62720358,17.9810391 6.97364956,17.9193982 5.91339899,18.8982966 C4.85314843,19.8771949 4.78561864,21.527862 5.76237624,22.5898276 Z" id="Path"></path>
                    <path d="M0.527227723,33.5820115 C1.31435644,34.792931 5.79950495,36.8811494 5.79950495,36.8811494 C5.79950495,36.8811494 5.71039604,31.9386207 4.92079208,30.7301724 C4.11411002,29.5648366 2.52514729,29.25185 1.33560128,30.0239779 C0.146055268,30.7961059 -0.212217282,32.3730325 0.527227723,33.5820115 Z" id="Path"></path>
                </g>
                <g id="Group" opacity="0.1" transform="translate(172.000000, 65.000000)" fill="#BF0C3F">
                    <path d="M4.62376238,42.9728161 C4.62376238,42.9728161 5.5,30.7128736 12.4108911,24.0281034 C15.3274096,21.2421934 17.2606885,17.5873606 17.9207921,13.6117241 C18.2206602,11.721867 18.3449511,9.80838548 18.2920792,7.89568966" id="Path"></path>
                    <path d="M22.6212871,3.65747126 C22.1262376,5.00925287 18.1930693,8.01925287 18.1930693,8.01925287 C18.1930693,8.01925287 17.2029703,3.17804598 17.7128713,1.82626437 C18.2193601,0.473023898 19.7287368,-0.214064626 21.0841584,0.291609195 C22.43958,0.797283017 23.127776,2.3042308 22.6212871,3.65747126 L22.6212871,3.65747126 Z" id="Path"></path>
                    <path d="M23.8811881,12.6677011 C22.720297,13.5301724 17.7871287,13.9255747 17.7871287,13.9255747 C17.7871287,13.9255747 19.5940594,9.32902299 20.7574257,8.46655172 C21.5073002,7.87872034 22.5177259,7.74373343 23.3960164,8.11405161 C24.274307,8.48436979 24.8819524,9.30159241 24.9828006,10.2481184 C25.0836489,11.1946444 24.6617958,12.1212029 23.8811881,12.6677011 L23.8811881,12.6677011 Z" id="Path"></path>
                    <path d="M18.9009901,25.4144828 C17.4628713,25.5726437 13.0049505,23.4374713 13.0049505,23.4374713 C13.0049505,23.4374713 16.8910891,20.3805172 18.3292079,20.2248276 C19.2695401,20.1041712 20.2018446,20.4998531 20.7673199,21.2595932 C21.3327952,22.0193333 21.4433021,23.0247129 21.0563115,23.8888072 C20.6693209,24.7529015 19.8451521,25.3410262 18.9009901,25.4268391 L18.9009901,25.4144828 Z" id="Path"></path>
                    <path d="M12.9628713,34.2121839 C11.5717822,34.6100575 6.81435644,33.2508621 6.81435644,33.2508621 C6.81435644,33.2508621 10.1287129,29.5810345 11.5173267,29.1806897 C12.9014298,28.8041173 14.3316134,29.608322 14.7265266,30.9852506 C15.1214398,32.3621793 14.3343617,33.8002658 12.960396,34.2121839 L12.9628713,34.2121839 Z" id="Path"></path>
                    <path d="M12.5272277,12.2648851 C13.1460396,13.5721839 17.3118812,16.2386782 17.3118812,16.2386782 C17.3118812,16.2386782 17.8836634,11.3307471 17.2648515,10.0259195 C16.8757148,9.16216682 16.0495156,8.57572094 15.1045515,8.49251317 C14.1595874,8.40930539 13.243331,8.84232127 12.7087749,9.62473924 C12.1742188,10.4071572 12.1047867,11.4168717 12.5272277,12.2648851 Z" id="Path"></path>
                    <path d="M5.71287129,22.6417241 C6.7029703,23.7043678 11.470297,25.0042529 11.470297,25.0042529 C11.470297,25.0042529 10.5445545,20.1506897 9.56188119,19.0905172 C8.57068451,18.0730997 6.94785311,18.0299297 5.90379668,18.9932061 C4.85974025,19.9564825 4.77504026,21.5750699 5.71287129,22.6417241 L5.71287129,22.6417241 Z" id="Path"></path>
                    <path d="M0.477722772,33.6363793 C1.26732673,34.8472989 5.75,36.9355172 5.75,36.9355172 C5.75,36.9355172 5.66089109,31.9929885 4.87128713,30.7845402 C4.37401506,29.9715095 3.47352078,29.4924695 2.52025639,29.5338517 C1.566992,29.5752339 0.711542947,30.1305013 0.286830746,30.9835563 C-0.137881454,31.8366113 -0.0647657885,32.8526984 0.477722772,33.6363793 L0.477722772,33.6363793 Z" id="Path"></path>
                    <path d="M22.6212871,3.65747126 C22.1262376,5.00925287 18.1930693,8.01925287 18.1930693,8.01925287 C18.1930693,8.01925287 17.2029703,3.17804598 17.7128713,1.82626437 C18.2193601,0.473023898 19.7287368,-0.214064626 21.0841584,0.291609195 C22.43958,0.797283017 23.127776,2.3042308 22.6212871,3.65747126 L22.6212871,3.65747126 Z" id="Path"></path>
                    <path d="M23.8811881,12.6677011 C22.720297,13.5301724 17.7871287,13.9255747 17.7871287,13.9255747 C17.7871287,13.9255747 19.5940594,9.32902299 20.7574257,8.46655172 C21.5073002,7.87872034 22.5177259,7.74373343 23.3960164,8.11405161 C24.274307,8.48436979 24.8819524,9.30159241 24.9828006,10.2481184 C25.0836489,11.1946444 24.6617958,12.1212029 23.8811881,12.6677011 L23.8811881,12.6677011 Z" id="Path"></path>
                    <path d="M18.9009901,25.4144828 C17.4628713,25.5726437 13.0049505,23.4374713 13.0049505,23.4374713 C13.0049505,23.4374713 16.8910891,20.3805172 18.3292079,20.2248276 C19.2695401,20.1041712 20.2018446,20.4998531 20.7673199,21.2595932 C21.3327952,22.0193333 21.4433021,23.0247129 21.0563115,23.8888072 C20.6693209,24.7529015 19.8451521,25.3410262 18.9009901,25.4268391 L18.9009901,25.4144828 Z" id="Path"></path>
                    <path d="M12.9628713,34.2121839 C11.5717822,34.6100575 6.81435644,33.2508621 6.81435644,33.2508621 C6.81435644,33.2508621 10.1287129,29.5810345 11.5173267,29.1806897 C12.9014298,28.8041173 14.3316134,29.608322 14.7265266,30.9852506 C15.1214398,32.3621793 14.3343617,33.8002658 12.960396,34.2121839 L12.9628713,34.2121839 Z" id="Path"></path>
                    <path d="M12.5272277,12.2648851 C13.1460396,13.5721839 17.3118812,16.2386782 17.3118812,16.2386782 C17.3118812,16.2386782 17.8836634,11.3307471 17.2648515,10.0259195 C16.8757148,9.16216682 16.0495156,8.57572094 15.1045515,8.49251317 C14.1595874,8.40930539 13.243331,8.84232127 12.7087749,9.62473924 C12.1742188,10.4071572 12.1047867,11.4168717 12.5272277,12.2648851 Z" id="Path"></path>
                    <path d="M5.71287129,22.6417241 C6.7029703,23.7043678 11.470297,25.0042529 11.470297,25.0042529 C11.470297,25.0042529 10.5445545,20.1506897 9.56188119,19.0905172 C8.57068451,18.0730997 6.94785311,18.0299297 5.90379668,18.9932061 C4.85974025,19.9564825 4.77504026,21.5750699 5.71287129,22.6417241 L5.71287129,22.6417241 Z" id="Path"></path>
                    <path d="M0.477722772,33.6363793 C1.26732673,34.8472989 5.75,36.9355172 5.75,36.9355172 C5.75,36.9355172 5.66089109,31.9929885 4.87128713,30.7845402 C4.37401506,29.9715095 3.47352078,29.4924695 2.52025639,29.5338517 C1.566992,29.5752339 0.711542947,30.1305013 0.286830746,30.9835563 C-0.137881454,31.8366113 -0.0647657885,32.8526984 0.477722772,33.6363793 L0.477722772,33.6363793 Z" id="Path"></path>
                </g>
                <g id="Group" opacity="0.1" transform="translate(16.000000, 89.000000)" fill="#BF0C3F">
                    <path d="M30.8053488,33.9732857 C30.8053488,33.9732857 20.5417054,27.7901429 17.7468992,18.785 C16.6022489,14.9974003 14.2712503,11.6879927 11.1047287,9.35485714 C9.59272953,8.25728625 7.98385913,7.30286948 6.29852713,6.50371429" id="Path"></path>
                    <path d="M4.50821705,0.830571429 C5.46945736,1.87242857 6.36581395,6.64214286 6.36581395,6.64214286 C6.36581395,6.64214286 1.73023256,5.36714286 0.77620155,4.32528571 C-0.132385467,3.27795765 -0.0508590688,1.68999718 0.960100845,0.743319427 C1.97106076,-0.203358327 3.54401479,-0.164677692 4.50821705,0.830571429 L4.50821705,0.830571429 Z" id="Path"></path>
                    <path d="M12.8830233,3.72785714 C13.1233333,5.12671429 11.3162016,9.62442857 11.3162016,9.62442857 C11.3162016,9.62442857 8.11046512,6.00828571 7.87015504,4.60942857 C7.6891677,3.69346608 8.01380722,2.75034134 8.71823041,2.14564703 C9.4226536,1.54095272 10.3961111,1.36975885 11.261252,1.69842698 C12.1263929,2.02709511 12.7471998,2.80395205 12.8830233,3.72785714 L12.8830233,3.72785714 Z" id="Path"></path>
                    <path d="M21.7841085,13.7044286 C21.3034884,15.0352857 17.4849612,17.9957143 17.4849612,17.9957143 C17.4849612,17.9957143 16.5237209,13.2381429 17.0163566,11.9097143 C17.3151365,11.0236652 18.0666925,10.3716438 18.9785835,10.2073608 C19.8904745,10.0430778 20.8186789,10.3924797 21.402019,11.1196093 C21.9853592,11.8467388 22.131704,12.836755 21.7841085,13.7044286 L21.7841085,13.7044286 Z" id="Path"></path>
                    <path d="M26.8330233,22.7945714 C26.5734884,24.191 23.3148837,27.7707143 23.3148837,27.7707143 C23.3148837,27.7707143 21.5726357,23.2462857 21.8345736,21.8522857 C22.0032777,20.9499349 22.6355163,20.2070848 23.4931313,19.90356 C24.3507462,19.6000352 25.3034454,19.7819483 25.9923562,20.3807743 C26.681267,20.9796004 27.0017274,21.9043635 26.8330233,22.8067143 L26.8330233,22.7945714 Z" id="Path"></path>
                    <path d="M7.58178295,13.481 C8.9851938,13.515 13.1209302,11.0524286 13.1209302,11.0524286 C13.1209302,11.0524286 9.10775194,8.381 7.70193798,8.347 C6.31595518,8.34147247 5.1804466,9.45781774 5.14772087,10.8581111 C5.11499515,12.2584044 6.19708733,13.4276809 7.58178295,13.4882857 L7.58178295,13.481 Z" id="Path"></path>
                    <path d="M13.6207752,24.038 C14.9713178,23.6445714 18.1866667,20.0357143 18.1866667,20.0357143 C18.1866667,20.0357143 13.567907,18.7024286 12.2173643,19.0958571 C10.8982833,19.5132042 10.1500012,20.9182995 10.5318798,22.260795 C10.9137585,23.6032905 12.2861611,24.3922925 13.6231783,24.038 L13.6207752,24.038 Z" id="Path"></path>
                    <path d="M20.8829457,33.4827143 C22.2815504,33.3272857 26.0520155,30.3255714 26.0520155,30.3255714 C26.0520155,30.3255714 21.7264341,28.2224286 20.3254264,28.3827143 C19.3849866,28.4348719 18.5501296,29.0081579 18.1558114,29.8725621 C17.7614932,30.7369663 17.8723279,31.750845 18.4438471,32.5074162 C19.0153663,33.2639874 19.9539193,33.6392772 20.8829457,33.4827143 L20.8829457,33.4827143 Z" id="Path"></path>
                    <path d="M4.50821705,0.830571429 C5.46945736,1.87242857 6.36581395,6.64214286 6.36581395,6.64214286 C6.36581395,6.64214286 1.73023256,5.36714286 0.77620155,4.32528571 C-0.132385467,3.27795765 -0.0508590688,1.68999718 0.960100845,0.743319427 C1.97106076,-0.203358327 3.54401479,-0.164677692 4.50821705,0.830571429 L4.50821705,0.830571429 Z" id="Path"></path>
                    <path d="M12.8830233,3.72785714 C13.1233333,5.12671429 11.3162016,9.62442857 11.3162016,9.62442857 C11.3162016,9.62442857 8.11046512,6.00828571 7.87015504,4.60942857 C7.6891677,3.69346608 8.01380722,2.75034134 8.71823041,2.14564703 C9.4226536,1.54095272 10.3961111,1.36975885 11.261252,1.69842698 C12.1263929,2.02709511 12.7471998,2.80395205 12.8830233,3.72785714 L12.8830233,3.72785714 Z" id="Path"></path>
                    <path d="M21.7841085,13.7044286 C21.3034884,15.0352857 17.4849612,17.9957143 17.4849612,17.9957143 C17.4849612,17.9957143 16.5237209,13.2381429 17.0163566,11.9097143 C17.3151365,11.0236652 18.0666925,10.3716438 18.9785835,10.2073608 C19.8904745,10.0430778 20.8186789,10.3924797 21.402019,11.1196093 C21.9853592,11.8467388 22.131704,12.836755 21.7841085,13.7044286 L21.7841085,13.7044286 Z" id="Path"></path>
                    <path d="M26.8330233,22.7945714 C26.5734884,24.191 23.3148837,27.7707143 23.3148837,27.7707143 C23.3148837,27.7707143 21.5726357,23.2462857 21.8345736,21.8522857 C22.0032777,20.9499349 22.6355163,20.2070848 23.4931313,19.90356 C24.3507462,19.6000352 25.3034454,19.7819483 25.9923562,20.3807743 C26.681267,20.9796004 27.0017274,21.9043635 26.8330233,22.8067143 L26.8330233,22.7945714 Z" id="Path"></path>
                    <path d="M7.58178295,13.481 C8.9851938,13.515 13.1209302,11.0524286 13.1209302,11.0524286 C13.1209302,11.0524286 9.10775194,8.381 7.70193798,8.347 C6.31595518,8.34147247 5.1804466,9.45781774 5.14772087,10.8581111 C5.11499515,12.2584044 6.19708733,13.4276809 7.58178295,13.4882857 L7.58178295,13.481 Z" id="Path"></path>
                    <path d="M13.6207752,24.038 C14.9713178,23.6445714 18.1866667,20.0357143 18.1866667,20.0357143 C18.1866667,20.0357143 13.567907,18.7024286 12.2173643,19.0958571 C10.8982833,19.5132042 10.1500012,20.9182995 10.5318798,22.260795 C10.9137585,23.6032905 12.2861611,24.3922925 13.6231783,24.038 L13.6207752,24.038 Z" id="Path"></path>
                    <path d="M20.8829457,33.4827143 C22.2815504,33.3272857 26.0520155,30.3255714 26.0520155,30.3255714 C26.0520155,30.3255714 21.7264341,28.2224286 20.3254264,28.3827143 C19.3849866,28.4348719 18.5501296,29.0081579 18.1558114,29.8725621 C17.7614932,30.7369663 17.8723279,31.750845 18.4438471,32.5074162 C19.0153663,33.2639874 19.9539193,33.6392772 20.8829457,33.4827143 L20.8829457,33.4827143 Z" id="Path"></path>
                </g>
                <path d="M175,196.920912 C181.984015,199.831355 190.505437,198.060389 198.43087,198.265448 C199.51338,198.293411 200.664003,198.379629 201.532444,198.882956 C202.400885,199.386283 202.831456,200.19953 203.427445,200.898595 C205.648415,203.494459 210.199822,204.328677 214.177135,203.888266 C218.154447,203.447855 221.800925,201.989138 225.554437,200.879953 C232.0422,198.959853 239.456786,198.083691 245.856975,200.180888 C246.443233,200.371966 247.073278,200.593337 247.691161,200.516439 C249.094775,200.346333 249.513183,198.952863 250.493524,198.158258 C252.264462,196.720513 256.112846,197.11199 256.89128,195.217522 C257.346178,194.108338 256.297724,192.971191 255.154399,192.21387 C250.775706,189.315078 244.523906,188.837383 238.799982,189.284785 C233.076058,189.732187 227.449438,190.964873 221.696323,190.969533 C214.52743,190.969533 207.601798,189.077395 200.503451,188.301433 C195.587153,187.765482 190.220822,187.835389 185.611031,189.412947 C180.614457,191.118667 179.514918,194.961198 175,196.920912 Z" id="Path" fill="#828383" opacity="0.1"></path>
                <path d="M42,187.591187 C54.0078,191.045961 68.6622172,188.942736 82.2873944,189.187581 C84.1522793,189.22186 86.1274399,189.322247 87.624739,189.922119 C89.1220382,190.521991 89.8572096,191.489132 90.883999,192.316711 C94.7019893,195.399319 102.526664,196.390945 109.363758,195.866975 C116.200853,195.343005 122.474315,193.611945 128.929121,192.294675 C140.084122,190.01516 152.836896,188.977014 163.839961,191.462199 C164.849597,191.689906 165.913145,191.951891 166.996297,191.861298 C169.40766,191.658076 170.125677,190.005366 171.814121,189.060262 C174.860181,187.346341 181.474273,187.818893 182.812285,185.571209 C183.596468,184.253939 181.792848,182.90239 179.827489,182.003806 C172.309136,178.563722 161.551128,177.99568 151.707182,178.526995 C141.863237,179.058311 132.188381,180.52004 122.300325,180.527386 C109.973951,180.527386 98.0641733,178.28215 85.857877,177.359081 C77.4034055,176.722482 68.1770041,176.800833 60.2494055,178.681248 C51.6552515,180.71102 49.7609597,185.272497 42,187.591187 Z" id="Path" fill="#828383" opacity="0.1"></path>
                <path d="M10,195.696849 C13.4146897,197.87659 17.5610986,196.551142 21.4294542,196.703879 C21.9587311,196.724589 22.5197158,196.789308 22.944113,197.16468 C23.3685101,197.540051 23.5782696,198.153588 23.8685183,198.676519 C24.9514627,200.620683 27.171011,201.247164 29.1100669,200.915802 C31.0491229,200.58444 32.8296396,199.494569 34.6613767,198.660986 C37.83216,197.224221 41.4444139,196.569263 44.5639768,198.143233 C44.8313057,198.324631 45.1444912,198.41496 45.4615524,198.40211 C46.1444903,198.272672 46.3493717,197.229399 46.8274283,196.633982 C47.690857,195.557056 49.5689363,195.857353 49.9469912,194.430942 C50.168946,193.599948 49.6567426,192.748244 49.100636,192.181304 C46.968894,190.009329 43.9151858,189.65208 41.1224574,189.98603 C38.3297291,190.319981 35.585782,191.226049 32.7784193,191.226049 C29.2832405,191.226049 25.9051368,189.809994 22.4416658,189.227522 C20.0416267,188.823674 17.424511,188.87545 15.1756939,190.061105 C12.7390689,191.355488 12.2024748,194.234196 10,195.696849 Z" id="Path" fill="#BF0C3F" opacity="0.1"></path>
                <rect id="Rectangle" stroke="#979797" stroke-width="2" fill="#F6F7F9" x="54" y="28" width="118" height="141"></rect>
                <circle id="Oval" fill="#F6F7F9" cx="112" cy="177" r="5"></circle>
                <circle id="Oval" fill="#F6F7F9" cx="58" cy="31" r="2"></circle>
                <circle id="Oval" fill="#F6F7F9" cx="62" cy="31" r="2"></circle>
                <circle id="Oval" fill="#F6F7F9" cx="65" cy="31" r="2"></circle>
                <rect id="Rectangle" fill="#DCE0ED" x="57" y="69" width="110" height="1"></rect>
                <rect id="Rectangle" fill="#DCE0ED" x="57" y="76" width="110" height="1"></rect>
                <rect id="Rectangle" fill="#DCE0ED" x="57" y="85" width="110" height="1"></rect>
                <rect id="Rectangle" fill="#DCE0ED" x="57" y="93" width="110" height="1"></rect>
                <rect id="Rectangle" fill="#DCE0ED" x="57" y="102" width="110" height="1"></rect>
                <g id="Group" opacity="0.2" transform="translate(57.000000, 74.000000)" fill="#BF0C3F">
                    <polygon id="Path" points="110.869557 28.942 0.223968958 28.942 0.223968958 12.3878333 10.3714856 17.2985 20.8734146 18.69775 30.0881375 15.9693333 41.2053659 7.50375 46.7972062 4.33308333 50.885255 3.55975 54.7960976 3.76516667 61.2272062 6.88508333 69.9718404 12.354 76.8336585 13.2191667 82.2729047 11.3776667 93.8060754 2.10491667 99.6932594 0.0435 105.853636 0.97875 110.869557 3.82316667"></polygon>
                </g>
                <path d="M76.1503021,91.999133 C66.2562644,91.999133 57.1148481,85.9232638 57,85.8447389 L57.2736805,85.4373906 C57.4154079,85.5330929 71.4855163,94.8800177 83.4419318,90.1979666 C87.8012707,88.480233 90.9046117,85.8349232 93.9077661,83.2656845 C97.0428736,80.5835662 100.002044,78.051136 104.038831,76.9517865 C108.666963,75.6929332 113.725164,76.8315452 117.568909,80.0044445 C120.855518,82.7160098 127.399414,87.0692375 134.312289,85.7686678 C137.835925,85.1036595 140.804869,82.5196973 143.949751,79.7835931 C149.978052,74.5371438 156.214057,69.1115595 167,76.8953467 L166.714102,77.2928793 C156.240937,69.7348514 150.156433,75.0328327 144.26986,80.1541328 C141.073663,82.9344073 138.055847,85.5527241 134.402701,86.2496332 C127.291896,87.5894654 120.61116,83.1478971 117.258575,80.3823459 C113.537009,77.3125106 108.644971,76.2107071 104.165897,77.4253902 C100.236627,78.4952929 97.3238848,80.9933683 94.2229874,83.6386781 C91.19051,86.2349098 88.0554025,88.9170281 83.6203128,90.654393 C81.2356191,91.5665818 78.7020295,92.0226748 76.1503021,91.999133 Z" id="Path" fill="#BF0C3F"></path>
                <circle id="Oval" fill="#BF0C3F" cx="110.5" cy="77.5" r="2.5"></circle>
                <g id="Group" opacity="0.2" transform="translate(111.000000, 42.000000)" fill="#BF0C3F">
                    <path d="M34.4448276,0.0875 L0.555172414,0.0875 C0.251225358,0.0875 0.00482758621,0.342697693 0.00482758621,0.6575 L0.00482758621,24.395 C0.00511872812,24.6285358 0.142923565,24.8382622 0.352571611,24.9242346 C0.562219657,25.010207 0.801293049,24.9550308 0.955862069,24.785 L6.82862069,18.2975 C6.93232542,18.1825775 7.07743309,18.1173914 7.22931034,18.1175 L34.4448276,18.1175 C34.7487746,18.1175 34.9951724,17.8623023 34.9951724,17.5475 L34.9951724,0.6525 C34.9925227,0.339652058 34.7468993,0.087487963 34.4448276,0.0875 Z" id="Path"></path>
                </g>
                <rect id="Rectangle" fill="#F6F7F9" x="119" y="46" width="20" height="3"></rect>
                <rect id="Rectangle" fill="#F6F7F9" x="119" y="51" width="5" height="3"></rect>
                <g id="Group" opacity="0.2" transform="translate(67.000000, 120.000000)" fill="#BF0C3F">
                    <rect id="Rectangle" x="0.0826086957" y="0.0872727273" width="4.77173913" height="2.72727273"></rect>
                </g>
                <g id="Group" opacity="0.2" transform="translate(67.000000, 125.000000)" fill="#BF0C3F">
                    <rect id="Rectangle" x="0.0826086957" y="0.177272727" width="4.77173913" height="2.72727273"></rect>
                </g>
                <g id="Group" opacity="0.2" transform="translate(67.000000, 129.000000)" fill="#BF0C3F">
                    <rect id="Rectangle" x="0.0826086957" y="0.267272727" width="4.77173913" height="2.72727273"></rect>
                </g>
                <g id="Group" opacity="0.2" transform="translate(67.000000, 134.000000)" fill="#BF0C3F">
                    <rect id="Rectangle" x="0.0826086957" y="0.0872727273" width="4.77173913" height="2.72727273"></rect>
                </g>
                <g id="Group" opacity="0.2" transform="translate(67.000000, 139.000000)" fill="#BF0C3F">
                    <rect id="Rectangle" x="0.0826086957" y="0.177272727" width="4.77173913" height="2.72727273"></rect>
                </g>
                <g id="Group" opacity="0.2" transform="translate(67.000000, 144.000000)" fill="#BF0C3F">
                    <rect id="Rectangle" x="0.0826086957" y="0.267272727" width="4.77173913" height="2.72727273"></rect>
                </g>
                <g id="Group" opacity="0.2" transform="translate(67.000000, 149.000000)" fill="#BF0C3F">
                    <rect id="Rectangle" x="0.0826086957" y="0.0872727273" width="4.77173913" height="2.72727273"></rect>
                </g>
                <g id="Group" opacity="0.2" transform="translate(67.000000, 153.000000)" fill="#BF0C3F">
                    <rect id="Rectangle" x="0.0826086957" y="0.177272727" width="4.77173913" height="2.72727273"></rect>
                </g>
                <g id="Group" opacity="0.2" transform="translate(77.000000, 156.000000)" fill="#BF0C3F">
                    <rect id="Rectangle" x="0.154347826" y="0.177272727" width="4.77173913" height="2.72727273"></rect>
                </g>
                <g id="Group" opacity="0.2" transform="translate(86.000000, 156.000000)" fill="#BF0C3F">
                    <rect id="Rectangle" x="0.0826086957" y="0.177272727" width="4.77173913" height="2.72727273"></rect>
                </g>
                <g id="Group" opacity="0.2" transform="translate(96.000000, 156.000000)" fill="#BF0C3F">
                    <rect id="Rectangle" x="0.0113636364" y="0.177272727" width="4.98863636" height="2.72727273"></rect>
                </g>
                <g id="Group" opacity="0.2" transform="translate(105.000000, 156.000000)" fill="#BF0C3F">
                    <rect id="Rectangle" x="0.154347826" y="0.177272727" width="4.77173913" height="2.72727273"></rect>
                </g>
                <g id="Group" opacity="0.2" transform="translate(115.000000, 156.000000)" fill="#BF0C3F">
                    <rect id="Rectangle" x="0.0826086957" y="0.177272727" width="4.77173913" height="2.72727273"></rect>
                </g>
                <g id="Group" opacity="0.2" transform="translate(125.000000, 156.000000)" fill="#BF0C3F">
                    <rect id="Rectangle" x="0.0113636364" y="0.177272727" width="4.98863636" height="2.72727273"></rect>
                </g>
                <g id="Group" opacity="0.2" transform="translate(134.000000, 156.000000)" fill="#BF0C3F">
                    <rect id="Rectangle" x="0.154347826" y="0.177272727" width="4.77173913" height="2.72727273"></rect>
                </g>
                <g id="Group" opacity="0.2" transform="translate(144.000000, 156.000000)" fill="#BF0C3F">
                    <rect id="Rectangle" x="0.0826086957" y="0.177272727" width="4.77173913" height="2.72727273"></rect>
                </g>
                <g id="Group" opacity="0.2" transform="translate(153.000000, 156.000000)" fill="#BF0C3F">
                    <rect id="Rectangle" x="0.0108695652" y="0.177272727" width="4.77173913" height="2.72727273"></rect>
                </g>
                <rect id="Rectangle" fill="#F6F7F9" x="130" y="51" width="8" height="3"></rect>
                <rect id="Rectangle" fill="#BF0C3F" x="77" y="138" width="5" height="15"></rect>
                <rect id="Rectangle" fill="#BF0C3F" x="86" y="130" width="5" height="23"></rect>
                <rect id="Rectangle" fill="#BF0C3F" x="96" y="125" width="5" height="28"></rect>
                <rect id="Rectangle" fill="#BF0C3F" x="105" y="128" width="5" height="25"></rect>
                <rect id="Rectangle" fill="#BF0C3F" x="115" y="123" width="5" height="30"></rect>
                <g id="Group" opacity="0.2" transform="translate(125.000000, 134.000000)" fill="#BF0C3F">
                    <rect id="Rectangle" x="0.0113636364" y="0.0779487179" width="4.98863636" height="18.8367949"></rect>
                </g>
                <g id="Group" opacity="0.2" transform="translate(134.000000, 134.000000)" fill="#BF0C3F">
                    <rect id="Rectangle" x="0.154347826" y="0.0779487179" width="4.77173913" height="18.8367949"></rect>
                </g>
                <g id="Group" opacity="0.2" transform="translate(144.000000, 134.000000)" fill="#BF0C3F">
                    <rect id="Rectangle" x="0.0826086957" y="0.0779487179" width="4.77173913" height="18.8367949"></rect>
                </g>
                <g id="Group" opacity="0.2" transform="translate(153.000000, 134.000000)" fill="#BF0C3F">
                    <rect id="Rectangle" x="0.0108695652" y="0.0779487179" width="4.77173913" height="18.8367949"></rect>
                </g>
                <path d="M240.618173,66.6205635 C234.802419,63.3058153 232.605303,62.4837966 232.593069,62.4789469 L232.475629,62.3940777 C231.841323,61.9112712 231.337073,61.280756 231.007622,60.5584783 C231.007622,60.4251124 231.007622,60.2941714 231.007622,60.1632304 L231.007622,60.2020277 C231.100596,58.4464478 232.360635,56.8484822 233.55706,55.4542026 L236.612961,51.8896965 C236.961477,51.5378141 237.230086,51.1161755 237.400792,50.6530311 C237.463838,50.4050764 237.491834,50.1496458 237.483979,49.8940581 C237.483979,49.7897902 237.483979,49.6855223 237.483979,49.5836793 C237.469299,48.6986149 237.442385,47.8111256 237.410578,46.9163618 C237.381218,46.1428397 237.180591,45.1680564 236.4001,45.0080174 C235.993952,44.925573 235.458129,45.0710631 235.242821,44.7243118 C235.170615,44.5826497 235.152373,44.4199337 235.191441,44.2660182 C235.190292,44.2781156 235.190292,44.2902933 235.191441,44.3023907 L235.191441,44.2587437 C235.343379,43.6616044 235.440823,43.0521329 235.482596,42.4376933 C235.497967,42.1253964 235.45483,41.8129797 235.355369,41.5162563 C234.902733,40.2310943 233.346646,39.7049053 231.969166,39.4624219 C230.591687,39.2199385 229.050279,39.0114027 228.186602,37.9444757 C227.919914,37.6146983 227.73886,37.2170255 227.435472,36.9187709 C227.03695,36.5688889 226.551192,36.3311088 226.028632,36.2301181 C224.320227,35.8116662 222.520007,35.9668835 220.910181,36.6714379 C220.244685,36.9648428 219.576742,37.3625156 218.847632,37.3188686 C218.118522,37.2752215 217.440792,36.7538822 216.692108,36.6277908 C215.483449,36.4241048 214.326171,37.3043195 213.731628,38.3445734 C213.37849,38.9633183 213.189897,39.6608934 213.183572,40.3717347 C213.183572,40.410532 213.183572,40.4517542 213.183572,40.4905515 L213.183572,40.4905515 C213.165673,41.25472 213.447163,41.9960496 213.968956,42.558935 C214.490098,43.0948233 215.268142,43.4633981 215.483449,44.1690248 C215.57153,44.4551552 215.54951,44.765534 215.627803,45.0565141 C215.627803,45.0928866 215.649824,45.1292591 215.662057,45.1632068 L215.62291,45.2141283 C214.375311,46.7987441 213.699909,48.7522184 213.704715,50.7621487 C213.730901,54.7630062 216.365821,58.2873605 220.220218,59.4770023 C220.220218,59.5667212 220.220218,59.6588649 220.220218,59.7485837 C220.220218,60.8494584 219.904597,61.9721566 218.955286,62.799025 L210.719767,66.0822503 C210.719767,66.0822503 205.755458,65.4978653 203.964489,72.6899232 C203.676328,73.8839665 203.572388,75.1143906 203.656208,76.3392984 C203.722268,77.4231993 203.570574,79.3339685 202.298301,81.8048744 C200.260219,85.757354 200.725087,94.8310831 204.889333,95.7306965 C208.821145,96.5793884 210.360106,96.2156633 210.516693,96.1841405 L210.516693,96.3417547 C210.453079,98.0391386 209.829176,112.731208 207.561106,114.508612 C206.934756,114.993578 207.052197,115.333055 207.561106,115.55614 C207.561106,115.55614 207.561106,115.650708 207.546426,115.820447 C207.477919,116.894648 207.128044,120.985343 205.611104,123.313184 C203.851942,126.007175 204.035443,141.552786 204.035443,141.552786 L202.853697,150.725933 C202.853697,150.725933 203.587701,156.385496 202.853697,157.374828 C202.193094,158.255043 201.31229,179.198335 201.141023,183.7352 L201.062729,183.7352 C200.32682,183.778955 199.660614,184.181286 199.283994,184.809401 C198.305323,186.375844 194.90444,189.268671 194.90444,189.268671 C194.170437,190.308925 191.432604,191.303107 189.986617,191.773524 C189.792807,191.835272 189.605885,191.916523 189.428775,192.016008 C188.888583,192.308126 188.45466,192.761077 188.188309,193.310869 C187.998103,193.638616 187.949575,194.028621 188.053742,194.392345 C188.425637,195.289534 196.108206,195.917566 198.050868,195.020377 C199.580042,194.312326 205.63557,193.383614 208.148309,193.019889 C209.086738,192.901649 209.826034,192.16995 209.946617,191.240061 C209.991423,190.921983 209.903025,190.599581 209.701949,190.347722 L209.701949,190.347722 C209.212614,189.756063 208.967946,188.143548 208.862739,187.09117 C209.067054,187.009508 209.257633,186.89749 209.427921,186.758968 C209.221609,183.494621 209.69378,180.223054 210.815188,177.146925 C212.667323,172.297257 213.222719,163.308397 212.77253,157.469397 C212.77253,157.469397 218.419463,133.390795 222.862631,131.142973 L222.862631,131.142973 C222.931138,131.227843 225.086661,133.972755 225.360689,142.462099 C225.63961,151.087234 228.786038,156.746796 228.786038,156.746796 C228.786038,156.746796 227.396325,171.392794 228.786038,176.872919 L226.968156,185.519877 C226.836036,185.40591 226.750402,185.318616 226.750402,185.318616 C226.750402,185.318616 226.804229,185.5611 226.880076,185.944223 L226.840929,186.126086 L226.919223,186.145485 C227.124744,187.226961 227.430578,189.111057 227.305798,190.216781 C227.232398,190.844813 227.06113,191.708054 226.933903,192.554321 C226.743062,193.885555 226.689235,195.175567 227.396325,195.464122 C228.553604,195.92484 235.357815,196.555297 236.515094,195.073724 C237.044635,194.4572 237.175494,193.596356 236.852736,192.852576 C236.768449,192.649006 236.654709,192.458682 236.515094,192.287589 C236.515094,192.287589 234.709446,189.360815 235.218355,187.297281 C235.315902,186.889552 235.237901,186.459981 235.003047,186.111537 C235.081341,185.097956 235.492383,180.410752 236.561581,176.429174 C237.71886,172.105695 240.163091,162.627019 238.364783,156.392771 L238.364783,156.392771 C238.296276,156.150287 238.217982,155.907804 238.134795,155.66532 C237.097102,152.26269 236.751146,148.689779 237.116977,145.153665 C236.449386,142.134193 236.449386,139.007263 237.116977,135.987792 C238.227769,130.956261 239.003366,126.014449 239.003366,126.014449 C239.003366,126.014449 239.617482,119.367979 239.081659,115.291833 L239.044959,115.029951 L239.338561,114.96448 C239.338561,114.96448 237.765347,108.046429 237.209951,103.645355 C237.07783,102.605101 236.906563,101.288416 236.720615,99.8820125 C237.233478,99.800789 237.738481,99.6766793 238.230215,99.5110128 C243.211652,97.7966552 244.777526,82.3456124 244.777526,82.3456124 L244.777526,77.4474476 C244.777526,77.4474476 246.451054,69.945011 240.618173,66.6205635 Z M203.379733,185.939374 C203.225592,185.861779 203.135065,185.810857 203.135065,185.810857 L203.135065,185.810857 L203.379733,185.939374 Z" id="Shape" fill="url(#linearGradient-1)"></path>
                <path d="M237.867532,157.241163 C240.019535,163.465897 237.508055,173.567654 236.342184,178.077411 C235.176313,182.587167 234.816836,188.003272 234.816836,188.003272 C230.243222,188.723954 226.925348,187.820048 226.925348,187.820048 L228.807743,178.536692 C227.462134,173.035082 228.807743,158.330735 228.807743,158.330735 C228.807743,158.330735 225.759477,152.648344 225.489869,143.987951 C225.225119,135.461921 223.136267,132.708673 223.060972,132.623169 L223.060972,132.623169 C218.756965,134.878047 213.284658,159.056303 213.284658,159.056303 C213.734005,164.919475 213.194789,173.938988 211.402263,178.810307 C210.315044,181.904488 209.85744,185.186947 210.056653,188.462554 C209.429998,188.995126 208.558024,189.085516 207.615611,188.934051 C205.06284,188.506528 202,186.288295 202,186.288295 C202,186.288295 202.971559,159.950437 203.700228,158.95614 C204.428898,157.961844 203.700228,152.279453 203.700228,152.279453 L204.86367,143.079159 C204.86367,143.079159 204.686361,127.470906 206.389018,124.756746 C207.86093,122.418806 208.198547,118.312143 208.264127,117.234785 C208.264127,117.063775 208.2787,116.968499 208.2787,116.968499 L210.872763,113.841474 C210.872763,113.841474 235.987565,111.948158 237.86996,113.841474 C238.33388,114.308085 238.618061,115.363456 238.788084,116.694884 C239.305439,120.78689 238.712788,127.461134 238.712788,127.461134 C238.712788,127.461134 237.95983,132.422843 236.883828,137.477386 C236.235736,140.509513 236.235736,143.645554 236.883828,146.677681 C236.52666,150.229683 236.860782,153.817651 237.867532,157.241163 L237.867532,157.241163 Z" id="Path" fill="#828383"></path>
                <path d="M237.502325,195.076047 C236.375509,196.553489 229.756076,195.925151 228.629261,195.466635 C227.941464,195.182791 227.995122,193.897004 228.180486,192.569975 C228.297557,191.725722 228.470726,190.871766 228.541457,190.238576 C228.721943,188.625277 228,185.355011 228,185.355011 C228,185.355011 229.487787,186.922216 229.846319,185.355011 C230.004854,184.670876 230.558506,184.319104 231.13167,184.142005 C231.903817,183.911335 232.733445,183.962964 233.470666,184.287565 C234.638945,184.792176 236.59258,185.869326 236.241364,187.324934 C235.753565,189.382193 237.502325,192.300687 237.502325,192.300687 C237.637837,192.47174 237.747906,192.661293 237.82915,192.863523 C238.14371,193.603925 238.017706,194.456938 237.502325,195.076047 Z" id="Path" fill="#4D4F51"></path>
                <path d="M237.498685,195.922511 C236.365183,197.645463 229.706474,196.912714 228.572972,196.378004 C227.881095,196.046994 227.935071,194.547545 228.121534,193 C228.835493,193.384764 230.052413,193.707287 232.078976,193.489443 C232.552763,193.438526 233.02883,193.421519 233.504441,193.438518 C234.945767,193.514894 236.38989,193.481816 237.827449,193.339498 C238.14488,194.203723 238.018085,195.199913 237.498685,195.922511 Z" id="Path" fill="#000000" opacity="0.1"></path>
                <path d="M213.872621,157.113681 C214.338103,162.965618 213.779525,171.967848 211.922629,176.829833 C210.796369,179.918084 210.322333,183.194253 210.528699,186.463584 C209.879541,186.995135 208.976254,187.085352 208,186.934177 C208.561095,183.130418 210.948891,166.774254 212.491272,153.848788 C214.222362,139.128728 222.374587,129 222.374587,129 L224,130.733636 C219.536405,132.981756 213.872621,157.113681 213.872621,157.113681 Z" id="Path" fill="#000000" opacity="0.1"></path>
                <path d="M235,63.7025671 L233.861161,69.0466126 L228.285646,78 L221.409683,75.1940745 C221.409683,75.1940745 212.066656,65.8401853 217.937612,64.5035707 C218.640952,64.3600417 219.305019,64.0773171 219.887022,63.6736151 C221.041012,62.8436595 221.402108,61.634916 221.402108,60.4527118 C221.402108,58.5008686 220.447604,56.6189925 220.447604,56.6189925 L232.474858,53 C231.978057,54.5100745 231.687782,56.075206 231.611259,57.656437 C231.520354,60.7928971 232.737472,62.3273499 233.734904,63.0632117 C234.108258,63.3540857 234.538238,63.5713892 235,63.7025671 L235,63.7025671 Z" id="Path" fill="#FBBEBE"></path>
                <path d="M232,53 C231.504325,54.5321307 231.214708,56.1201225 231.138358,57.724449 C230.920223,57.9772296 230.687207,58.217526 230.440479,58.4441319 C227.916978,60.7879734 224.27284,61.596522 220.952341,60.5493268 C220.952341,58.5689749 220,56.6596121 220,56.6596121 L232,53 Z" id="Path" fill="#000000" opacity="0.1"></path>
                <path d="M232.999902,51.5024101 C232.99888,55.3454242 230.682585,58.8092722 227.131428,60.2782786 C223.580272,61.747285 219.493857,60.9320456 216.778248,58.2128201 C214.062639,55.4935946 213.25283,51.406089 214.726548,47.8568775 C216.200265,44.3076659 219.667178,41.9959672 223.510179,42.0000488 C226.031672,41.991954 228.452042,42.9908987 230.233831,44.7750607 C232.01562,46.5592226 233.011346,48.980924 232.999902,51.5024101 L232.999902,51.5024101 Z" id="Path" fill="#FBBEBE"></path>
                <path d="M235,63.6304559 L233.861161,69.0014549 L228.285646,78 L221.409683,75.1799224 C221.409683,75.1799224 212.066656,65.7788555 217.937612,64.4354995 C218.640952,64.2912466 219.305019,64.007096 219.887022,63.6013579 C218.826462,66.4020369 223.205059,72.2264791 223.205059,72.2264791 C223.710088,72.9539282 224.884279,72.4932105 224.884279,72.4932105 C227.702338,72.085839 232.896556,64.2948594 233.742479,63 C234.114629,63.2871808 234.541887,63.5013858 235,63.6304559 L235,63.6304559 Z" id="Path" fill="#000000" opacity="0.1"></path>
                <path d="M239,116.29293 C237.436381,116.617337 228.775603,118.367825 225.490809,117.930203 C221.878969,117.446859 214.851038,117.126807 214.851038,117.126807 C214.851038,117.126807 210.377417,117.344529 209,116.774097 C209,116.621691 209.014323,116.536779 209.014323,116.536779 L211.563858,113.749933 C211.563858,113.749933 236.247553,112.062584 238.097637,113.749933 C238.553593,114.161428 238.832896,115.101989 239,116.29293 Z" id="Path" fill="#000000" opacity="0.1"></path>
                <path d="M222.482586,71.85604 C222.482586,71.85604 217.697451,65.3386747 219.500474,62.8065576 L211.416348,66.0628264 C211.416348,66.0628264 206.55015,65.483505 204.783974,72.6188132 C204.502056,73.8044796 204.400239,75.0246143 204.481832,76.2395717 C204.5457,77.3161439 204.398314,79.2110075 203.150445,81.6610541 C201.153363,85.5835425 201.607804,94.5847482 205.690398,95.4778686 C209.772993,96.3709891 211.222289,95.922015 211.222289,95.922015 C211.222289,95.922015 210.679417,112.234739 208.32124,114.105464 C205.963062,115.97619 214.332136,115.532043 214.332136,115.532043 C214.332136,115.532043 221.563879,115.889291 225.282922,116.42275 C229.001964,116.956208 239.431986,114.552025 239.431986,114.552025 C239.431986,114.552025 237.889345,107.687066 237.346473,103.320432 C236.803601,98.9537968 235.531167,89.6532751 235.531167,89.6532751 L244.784557,77.3426961 C244.784557,77.3426961 246.41563,69.9008304 240.701962,66.6035263 C234.988295,63.3062222 232.841371,62.5 232.841371,62.5 C232.841371,62.5 227.108053,71.6725883 224.116115,72.1239762 C224.116115,72.1239762 222.978786,72.5729502 222.482586,71.85604 Z" id="Path" fill="#196690"></path>
                <path d="M211.700975,74 C211.700975,74 211.600758,77.0229386 212.19935,78.2157471 C212.797941,79.4085555 215,86 215,86 L210,86 C210,86 212.708559,83.3440794 212.5,82.0619963 C212.291441,80.7799132 211.700975,74 211.700975,74 Z" id="Path" fill="#000000" opacity="0.1"></path>
                <path d="M225.76835,97 C225.76835,97 215.538126,94.488408 214.584843,92.3610896 C213.631561,90.2337713 211,85.4567233 211,85.4567233 L212.078714,84 L217.055852,87.9105487 C217.055852,87.9105487 222.983763,92.6398764 225.763333,93.1045209 C228.542904,93.5691654 225.76835,97 225.76835,97 Z" id="Path" fill="#FBBEBE"></path>
                <path d="M225.76835,97 C225.76835,97 215.538126,94.488408 214.584843,92.3610896 C213.631561,90.2337713 211,85.4567233 211,85.4567233 L212.078714,84 L217.055852,87.9105487 C217.055852,87.9105487 222.983763,92.6398764 225.763333,93.1045209 C228.542904,93.5691654 225.76835,97 225.76835,97 Z" id="Path" fill="#000000" opacity="0.05"></path>
                <path d="M235,85.0472183 L235,90.575986 L234.130175,90.575986 C229.837606,90.5768289 225.615837,91.6950019 221.862223,93.8252618 L220.234967,94.7500557 L219.797611,95 L217,88.5564362 L219.616805,86.156971 L219.751188,86.156971 C220.39134,86.219457 223.159631,86.4569041 224.332428,86.0519944 C225.446586,85.6645807 226.82951,84.4373542 230.1109,85.3021615 C231.728383,85.7245673 233.108864,87.579154 234.677481,86.9992832 L235,85.0472183 Z" id="Path" fill="#FBBEBE"></path>
                <path d="M243.148179,76.1614359 L245,78.1968077 L245,83.1331975 C245,83.1331975 243.426328,98.7074704 238.429669,100.428954 C233.433009,102.150437 224.514699,99.4308857 224.514699,99.4308857 C224.514699,99.4308857 222.20932,93.4547397 223.286834,93.0942582 C224.364348,92.7337767 232.809053,90.5488173 232.809053,90.5488173 C232.809053,90.5488173 232.691278,81.4117143 234.540594,78.6946155 C234.540594,78.6946155 233.337787,70.1852899 237.502505,70.0038231 C241.667223,69.8223562 243.148179,76.1614359 243.148179,76.1614359 Z" id="Path" fill="#000000" opacity="0.1"></path>
                <path d="M244.149042,76.1614359 L246,78.1968077 L246,83.1331975 C246,83.1331975 244.432071,98.7074704 239.422712,100.428954 C234.413354,102.150437 225.511724,99.4308857 225.511724,99.4308857 C225.511724,99.4308857 223.209924,93.4547397 224.286936,93.0942582 C225.363948,92.7337767 233.804717,90.5488173 233.804717,90.5488173 C233.804717,90.5488173 233.684492,81.4117143 235.53545,78.6946155 C235.53545,78.6946155 234.333204,70.1852899 238.495981,70.0038231 C242.658758,69.8223562 244.149042,76.1614359 244.149042,76.1614359 Z" id="Path" fill="#196690"></path>
                <path d="M230.541831,55.22298 C230.577287,54.6242081 230.589105,53.9909391 230.343277,53.4513052 C230.097449,52.9116714 229.520698,52.4804571 228.958129,52.6184456 C228.211189,52.8007877 227.889721,53.8135252 227.156964,54.0574693 C226.540029,54.2619881 225.866365,53.8110612 225.573262,53.2048971 C225.280159,52.598733 225.270704,51.8989338 225.268341,51.2336317 C225.268341,50.4746946 225.268341,49.7132933 225.268341,48.9543562 C225.268341,48.1264247 225.242339,47.229499 224.753047,46.5839096 C224.145567,45.7732268 222.715508,45.4208631 221.76056,45.4528961 C221.124457,45.4606021 220.514405,45.7174452 220.05158,46.172408 C219.541014,46.6233349 218.95008,46.95845 218.252779,46.83771 C217.661596,46.7443104 217.174359,46.3053893 217,45.7091606 L217,45.6795916 C219.023326,42.892893 222.376983,41.5275905 225.676448,42.1473348 C228.975914,42.7670792 231.661531,45.2667488 232.624571,48.6143817 C233.587611,51.9620145 232.664722,55.5897824 230.236909,58 C230.388542,57.0810375 230.490344,56.1538923 230.541831,55.22298 L230.541831,55.22298 Z" id="Path" fill="#000000" opacity="0.1"></path>
                <path d="M217.718889,46.1364402 C217.099352,46.0428758 216.589158,45.6068408 216.406822,45.0150892 C216.330079,44.7243686 216.349884,44.4141037 216.263238,44.123383 C216.050337,43.4149042 215.272999,43.0460066 214.77788,42.5085398 C213.748032,41.4287203 213.814873,39.6550801 214.545174,38.3553879 C215.134366,37.3097708 216.278091,36.4278367 217.468853,36.6306083 C218.211532,36.7576459 218.847761,37.2780114 219.597866,37.324429 C220.347972,37.3708465 220.976773,36.9701895 221.635282,36.6745828 C223.220039,35.9662775 225.001641,35.8103599 226.687974,36.2323943 C227.206317,36.3351447 227.686967,36.5739966 228.07926,36.9237719 C228.344625,37.2537434 228.592516,37.5970408 228.821939,37.9522878 C229.676019,39.0247782 231.200987,39.2348789 232.560089,39.4767389 C233.919192,39.7185989 235.454062,40.2487366 235.902144,41.5386567 C236.19674,42.3937174 235.902144,43.322069 235.741231,44.2113321 C235.68391,44.392533 235.696248,44.5882231 235.775889,44.761014 C235.98879,45.1079244 236.518568,44.9637856 236.919615,45.0468486 C237.692001,45.2056456 237.890048,46.1853008 237.909853,46.9621846 C237.942861,47.8514477 237.967617,48.7407108 237.984121,49.6299739 C238.077152,50.4664387 237.757612,51.2961268 237.125089,51.8604609 L234.107337,55.4395006 C232.768039,57.0274705 231.347047,58.8768447 231.616887,60.9241043 C230.983134,61.2050528 230.230553,60.6627 230.022603,60.0079678 C229.814653,59.3532356 229.982993,58.6496428 230.121627,57.9778094 C230.365891,56.8162852 230.525563,55.6389915 230.599417,54.4549593 C230.636551,53.8588599 230.648929,53.233444 230.391467,52.6984203 C230.134005,52.1633966 229.529959,51.7212081 228.940767,51.870233 C228.158479,52.0510172 227.821798,53.0551028 227.054363,53.2969628 C226.410708,53.4997344 225.702687,53.0526598 225.395713,52.4516743 C225.088739,51.8506887 225.078837,51.1568681 225.076361,50.4972498 L225.076361,48.2350035 C225.076361,47.4165882 225.04913,46.5248821 224.536681,45.8848081 C223.900453,45.081051 222.402717,44.7316976 221.402576,44.763457 C220.736466,44.771574 220.097713,45.0261555 219.61272,45.476822 C219.068089,45.9238966 218.449189,46.2537057 217.718889,46.1364402 Z" id="Path" fill="#7C5C5C"></path>
                <path d="M219,74 L222.409254,86 C222.409254,86 225.098909,85.9873684 219,74 Z" id="Path" fill="#000000" opacity="0.1"></path>
                <path d="M231,72 C231,72 226.714646,78.3665087 228.387463,84.94609 L229.185659,85 C229.185659,85 227.759095,81.9528041 231,72 Z" id="Path" fill="#000000" opacity="0.1"></path>
                <path d="M233,107.418934 C233,107.418934 237.661484,105.464062 238,110 C238,110 237.11986,106.891277 233,107.418934 Z" id="Path" fill="#000000" opacity="0.1"></path>
                <path d="M218.309353,87 C218.309353,87 217.459856,93.3409114 219,95.877276 C219,95.877276 215.887482,97.2362179 211.517986,96.9639389 L211,87 L218.309353,87 Z" id="Path" fill="#000000" opacity="0.1"></path>
                <path d="M220,94.745619 L219.459215,95 L216,88.4420577 L219.23565,86 L219.401813,86 L219.401813,86 C219.350453,86.3154324 218.450151,91.9626908 220,94.745619 Z" id="Path" fill="#000000" opacity="0.1"></path>
                <path d="M219.207398,86 C219.207398,86 218.232497,92.3400136 220,94.8770005 C220,94.8770005 216.428005,96.2362759 211.413474,95.9639301 L208,86 L219.207398,86 Z" id="Path" fill="#196690"></path>
                <path d="M210.984399,191.686642 C210.873841,192.629904 210.132832,193.379033 209.183891,193.506881 C206.672722,193.880391 200.600714,194.831596 199.068901,195.553715 C197.122745,196.47255 189.426011,195.830113 189.054358,194.911278 C188.949608,194.539791 188.99746,194.142289 189.18745,193.805689 C189.455372,193.243744 189.894584,192.779479 190.443035,192.478483 C190.620076,192.377358 190.806822,192.293946 191.000514,192.229476 C192.449459,191.748894 195.186634,190.735436 195.927428,189.664708 C195.927428,189.664708 199.340107,186.704019 200.31193,185.102906 C200.684235,184.464431 201.35276,184.051748 202.09486,184.002296 C202.908479,183.964945 203.8125,184.370826 204.181642,186.136283 C204.181642,186.136283 208.631434,188.653741 209.834284,186.445052 C209.834284,186.445052 210.02011,189.836522 210.758394,190.762827 L210.758394,190.762827 C210.955528,191.028293 211.036951,191.361114 210.984399,191.686642 L210.984399,191.686642 Z" id="Path" fill="#4D4F51"></path>
                <path d="M210.985053,191.878059 C210.874492,192.779462 210.133461,193.495346 209.184492,193.61752 C206.673248,193.974454 200.60106,194.883447 199.069201,195.57352 C197.122987,196.451579 189.426024,195.837652 189.05436,194.959593 C188.949607,194.604592 188.99746,194.224729 189.187456,193.903067 C189.455386,193.36606 189.89461,192.922398 190.443078,192.63476 C191.6987,193.424775 194.483669,194.195753 200.611105,193.28914 C206.454769,192.425358 209.347722,191.578234 210.759041,191 L210.759041,191 C210.954857,191.252451 211.036215,191.568528 210.985053,191.878059 L210.985053,191.878059 Z" id="Path" fill="#000000" opacity="0.1"></path>
                <g id="Group" opacity="0.1" transform="translate(214.000000, 41.000000)" fill="#000000">
                    <path d="M22.5714286,4.06569767 L22.5714286,4.02174419 C22.7066327,3.34534884 22.9081633,2.64697674 22.8622449,1.97302326 C22.8017852,2.52615942 22.7046506,3.07505705 22.5714286,3.61639535 C22.5357772,3.76421883 22.5357772,3.9178742 22.5714286,4.06569767 L22.5714286,4.06569767 Z" id="Path"></path>
                    <path d="M17.0714286,12.5047674 C17.2199389,12.8299654 17.2988734,13.1803499 17.3035714,13.5352326 C17.3472481,13.0457449 17.2676406,12.5533692 17.0714286,12.0994186 C16.8163265,11.5597674 16.1862245,11.1348837 15.5790816,11.2716279 C14.7729592,11.4523256 14.4260204,12.4559302 13.6352041,12.6976744 C12.9693878,12.9003488 12.2423469,12.4534884 11.9234694,11.8527907 C11.6045918,11.252093 11.5994898,10.5586047 11.5969388,9.89930233 C11.5969388,9.14476744 11.5969388,8.39267442 11.5969388,7.63813953 C11.5969388,6.82011628 11.5688776,5.92883721 11.0408163,5.28906977 C10.3852041,4.48569767 8.83928571,4.13651163 7.81122449,4.16825581 C7.12472073,4.17589234 6.46633244,4.43041916 5.96683673,4.88127907 C5.41326531,5.3305814 4.77806122,5.66023256 4.0255102,5.54302326 C3.38709871,5.44950369 2.86136047,5.01367753 2.67346939,4.4222093 C2.59438776,4.13162791 2.61479592,3.82151163 2.5255102,3.53093023 C2.30357143,2.8227907 1.50510204,2.45406977 0.994897959,1.91686047 C0.49886499,1.39352453 0.217107755,0.716237695 0.201530612,0.00976744186 C0.122074021,0.852265119 0.409091151,1.68883903 0.994897959,2.3222093 C1.5255102,2.8594186 2.31377551,3.2305814 2.5255102,3.93872093 C2.61479592,4.22686047 2.59438776,4.53697674 2.67346939,4.82755814 C2.86136047,5.41902637 3.38709871,5.85485252 4.0255102,5.94837209 C4.79081633,6.0655814 5.41326531,5.73593023 5.96683673,5.28662791 C6.46633244,4.835768 7.12472073,4.58124117 7.81122449,4.57360465 C8.83163265,4.54186047 10.3852041,4.89348837 11.0408163,5.6944186 C11.5688776,6.33906977 11.5943878,7.22546512 11.5969388,8.04348837 C11.5969388,8.79802326 11.5969388,9.55011628 11.5969388,10.3046512 C11.5969388,10.9737209 11.5969388,11.6696512 11.9234694,12.2581395 C12.25,12.8466279 12.9693878,13.3056977 13.6352041,13.1030233 C14.4260204,12.8588372 14.7729592,11.8576744 15.5790816,11.6769767 C16.1938776,11.5426744 16.8086735,11.9651163 17.0714286,12.5047674 Z" id="Path"></path>
                    <path d="M24.8137755,10.0213953 C24.6418642,10.4846588 24.3687934,10.9075378 24.0127551,11.2618605 C22.9770408,12.4551163 21.9404762,13.6475581 20.9030612,14.839186 C19.5943878,16.345814 18.2066327,18.0893023 18.3086735,20.0110465 C18.4030612,18.2480233 19.6862245,16.6437209 20.9030612,15.2445349 L24.0127551,11.6696512 C24.3682977,11.3140224 24.6412735,10.8904581 24.8137755,10.4267442 C24.8907759,10.1067411 24.9182801,9.77765096 24.8954082,9.45 C24.8928187,9.64295159 24.8654013,9.83486263 24.8137755,10.0213953 Z" id="Path"></path>
                    <path d="M16.7040816,19.4054651 C16.6538026,19.2466308 16.6229835,19.0827401 16.6122449,18.917093 C16.5855072,19.2162569 16.6166401,19.5175756 16.7040816,19.8059302 C16.9183673,20.4603488 17.6964286,21 18.3494898,20.719186 C18.3316327,20.5873256 18.3214286,20.4554651 18.3163265,20.3236047 C17.6581633,20.5824419 16.9030612,20.0501163 16.7040816,19.4054651 Z" id="Path"></path>
                </g>
                <path d="M199,186 C199,186 200.081839,188.074618 204,186.247488" id="Path" fill="#000000" opacity="0.1"></path>
                <path d="M229,186 C229,186 232.096845,189.571222 236,187.16945" id="Path" fill="#000000" opacity="0.1"></path>
                <path d="M238,145 C238,145 236.063844,146.713835 236.002559,147.694547 C235.941273,148.675259 237.001279,146.980717 237.001279,146.980717 L238,145 Z" id="Path" fill="#000000" opacity="0.1"></path>
                <path d="M239,155 C238.225181,155.694505 237.26192,156.099472 236.255008,156.154027 C234.589713,156.232839 234.72827,158.571854 235.815809,157.868179 C236.903349,157.164504 239,155 239,155 Z" id="Path" fill="#000000" opacity="0.1"></path>
                <path d="M239,158 C239,158 237.896086,162.809402 237,161.88102" id="Path" fill="#000000" opacity="0.1"></path>
                <path d="M32.8561445,179 C32.8561445,179 34.2550434,180.764522 32.2089308,183.423592 C30.1628182,186.082663 28.4759856,188.338695 29.1512282,190 C29.1512282,190 32.2369597,185.050492 34.7570162,184.98168 C37.2770727,184.912869 35.6208172,181.976095 32.8561445,179 Z" id="Path" fill="#BF0C3F"></path>
                <path d="M32.2695322,179 C32.3758209,179.169783 32.4591794,179.35595 32.5169563,179.552579 C34.6421523,182.327752 35.7754428,184.918732 33.7319852,184.985041 C31.8299127,185.043983 29.5346127,188.828533 29,189.78388 C29.0180253,189.857088 29.0394083,189.929222 29.0640652,190 C29.0640652,190 31.7393378,185.053807 33.9241807,184.985041 C36.1090235,184.916276 34.6664528,181.974101 32.2695322,179 Z" id="Path" fill="#000000" opacity="0.1"></path>
                <path d="M35.1549353,181.260621 C35.1549353,181.669055 35.0866174,182 35.00122,182 C34.9158226,182 34.8450647,181.669055 34.8450647,181.260621 C34.8450647,180.852187 34.932902,181.04591 35.0182994,181.04591 C35.1036969,181.04591 35.1549353,180.855415 35.1549353,181.260621 Z" id="Path" fill="#FFD037"></path>
                <path d="M35.7630051,182.503134 C35.3728839,182.855265 35.0319671,183.067708 35.002093,182.980403 C34.9722188,182.893098 35.2656884,182.532236 35.6558096,182.180105 C36.0459308,181.827974 35.8912882,182.084069 35.9211623,182.180105 C35.9510365,182.276141 36.1531263,182.151003 35.7630051,182.503134 Z" id="Path" fill="#FFD037"></path>
                <path d="M26.1435265,179 C26.1435265,179 24.7445082,180.764522 26.7907954,183.423592 C28.8370826,186.082663 30.5240591,188.338695 29.8487589,190 C29.8487589,190 26.7627641,185.050492 24.2424926,184.98168 C21.722221,184.912869 23.3811662,181.976095 26.1435265,179 Z" id="Path" fill="#BF0C3F"></path>
                <path d="M25.7301862,179 C25.6248598,179.170421 25.541566,179.356427 25.4827409,179.552579 C23.3573619,182.327752 22.2239738,184.918732 24.2676074,184.985041 C26.172053,185.043983 28.4653413,188.828533 29,189.78388 C28.9829603,189.857414 28.9615566,189.929612 28.9359293,190 C28.9359293,190 26.2604263,185.053807 24.0753954,184.985041 C21.8903644,184.916276 23.3352686,181.974101 25.7301862,179 Z" id="Path" fill="#000000" opacity="0.1"></path>
                <path d="M24.8450647,181.260621 C24.8450647,181.669055 24.9133826,182 24.99878,182 C25.0841774,182 25.1549353,181.669055 25.1549353,181.260621 C25.1549353,180.852187 25.067098,181.04591 24.9817006,181.04591 C24.8963031,181.04591 24.8450647,180.855415 24.8450647,181.260621 Z" id="Path" fill="#FFD037"></path>
                <path d="M24.2380345,182.503134 C24.6285235,182.855265 24.9680027,183.067708 24.997905,182.980403 C25.0278073,182.893098 24.7340611,182.532236 24.343572,182.180105 C23.953083,181.827974 24.1078714,182.084069 24.0779691,182.180105 C24.0480668,182.276141 23.8475454,182.151003 24.2380345,182.503134 Z" id="Path" fill="#FFD037"></path>
                <path d="M23,190.001502 C23,190.001502 27.0309585,189.888146 28.2486439,189.092244 C29.4663293,188.296342 34.4472924,187.348495 34.7490894,188.62435 C35.0508864,189.900205 40.8060244,194.965035 36.2554502,194.998801 C31.7048759,195.032566 25.682057,194.347608 24.4696203,193.667474 C23.2571836,192.98734 23,190.001502 23,190.001502 Z" id="Path" fill="#A8A8A8"></path>
                <path d="M36.337347,194.55972 C31.7856919,194.593496 25.7614424,193.908332 24.5487177,193.227992 C23.624737,192.711707 23.2572446,190.856455 23.1338722,190 L23,190 C23,190 23.2624945,192.98915 24.4673444,193.667077 C25.6721943,194.345003 31.7043186,195.03258 36.2559737,194.998804 C37.5684464,194.998804 38.0251869,194.55972 37.9989374,193.922807 C37.8178162,194.311227 37.3164516,194.552483 36.337347,194.55972 Z" id="Path" fill="#000000" opacity="0.2"></path>
            </g>
        </g>
    </g>
</svg>