<?xml version="1.0" encoding="UTF-8"?>
<svg width="240px" height="145px" viewBox="0 0 240 145" version="1.1" xmlns="http://www.w3.org/2000/svg" xmlns:xlink="http://www.w3.org/1999/xlink">
    <!-- Generator: Sketch 54 (76480) - https://sketchapp.com -->
    <title>undraw_mobile_user_efh5</title>
    <desc>Created with Sketch.</desc>
    <defs>
        <linearGradient x1="50.0000137%" y1="100%" x2="50.0000137%" y2="-2.20489551e-13%" id="linearGradient-1">
            <stop stop-color="#808080" stop-opacity="0.25" offset="0%"></stop>
            <stop stop-color="#808080" stop-opacity="0.12" offset="53.514%"></stop>
            <stop stop-color="#808080" stop-opacity="0.1" offset="100%"></stop>
        </linearGradient>
    </defs>
    <g id="principal" stroke="none" stroke-width="1" fill="none" fill-rule="evenodd">
        <g id="Comparador-rentabilidad-v1" transform="translate(-68.000000, -222.000000)">
            <g id="undraw_mobile_user_efh5" transform="translate(68.000000, 222.000000)">
                <path d="M38,45 L38,52.1612903 C44.2621964,52.1612903 49.3387097,57.2378036 49.3387097,63.5 C49.3387097,69.7621964 44.2621964,74.8387097 38,74.8387097 L38,82 L75,82 L75,45 L38,45 Z" id="Path" fill="#B3143C" fill-rule="nonzero" opacity="0.425130208"></path>
                <circle id="Oval" fill="#B3143C" fill-rule="nonzero" opacity="0.425130208" cx="37.5" cy="64.5" r="9.5"></circle>
                <polygon id="Path" fill="#F2F2F2" fill-rule="nonzero" points="175 73.0523502 160 64 160 134 175 134"></polygon>
                <polygon id="Path" fill="#B3143C" fill-rule="nonzero" opacity="0.425130208" points="137 134 152 134 152 59.0643772 137 50"></polygon>
                <polygon id="Path" fill="#B3143C" fill-rule="nonzero" opacity="0.425130208" points="130 45.2662462 56 0 56 40.8438438 79.7205479 40.8438438 79.7205479 87.9249249 56 87.9249249 56 134 130 134"></polygon>
                <polygon id="Path" fill="#F2F2F2" fill-rule="nonzero" points="183 78 183 135 190.815603 135 212 95.761536"></polygon>
                <path d="M210.930194,107.906752 C198.503785,116.988526 195,132.944004 195,132.944004 C195,132.944004 211.643402,134.175022 224.069817,125.093248 C236.496231,116.011474 240,100.055996 240,100.055996 C240,100.055996 223.356602,98.8249778 210.930194,107.906752 Z" id="Path" fill="#029E83" fill-rule="nonzero"></path>
                <path d="M195.956979,133 C195.956979,133 195.773523,132.899966 195.441495,132.700874 C195.176707,132.541914 194.813258,132.320106 194.374122,132.036809 C190.446414,129.509642 180.271992,122.076503 176.098765,110.607648 C170.877521,96.2480975 177.042845,81 177.042845,81 C177.042845,81 190.491899,88.3830142 196.204915,101.644421 C196.453846,102.215501 196.684253,102.798328 196.901058,103.392358 C201.444353,115.886525 197.366695,129.05312 196.231216,132.262515 C196.060354,132.743148 195.956979,133 195.956979,133 Z" id="Path" fill="#029E83" fill-rule="nonzero"></path>
                <path d="M199.152719,103.566335 C202.464964,118.478022 194.997351,133 194.997351,133 C194.997351,133 182.159534,123.345354 178.847283,108.433667 C175.535032,93.5219802 183.002651,79 183.002651,79 C183.002651,79 195.840474,88.6546461 199.152719,103.566335 Z" id="Path" stroke="#3F3D56" stroke-width="2"></path>
                <path d="M195.441024,132.160664 C195.159324,132.337081 194.913252,132.485477 194.711145,132.606797 C194.265783,132.868284 194.018855,133 194.018855,133 C194.018855,133 193.902019,132.622238 193.724653,131.930964 C192.746685,128.148988 189.946722,114.968123 194.632758,102.861614 C194.879179,102.22742 195.140498,101.606882 195.416715,101 C195.646783,101.5812 195.859731,102.174355 196.060107,102.778911 C200.259129,115.494483 196.49046,128.894397 195.441024,132.160664 Z" id="Path" fill="#000000" fill-rule="nonzero" opacity="0.1"></path>
                <path d="M216.160866,111.644035 C210.184225,125.727298 195.178334,133 195.178334,133 C195.178334,133 189.862492,117.439219 195.839134,103.355963 C201.815775,89.2727057 216.821666,82 216.821666,82 C216.821666,82 222.137508,97.5607747 216.160866,111.644035 Z" id="Path" fill="#029E83" fill-rule="nonzero"></path>
                <path d="M196,133 L217,83" id="Path" stroke="#3F3D56" stroke-width="2"></path>
                <path d="M238,137.5 C238,139.372551 227.111828,141.085253 209.110232,142.399965 C205.837224,142.638111 202.328681,142.863205 198.609157,143.075261 C195.393491,143.25795 192.024215,143.429759 188.50133,143.590689 C185.086982,143.744026 181.54224,143.886486 177.867104,144.018068 C166.257949,144.435631 153.426028,144.735756 139.793259,144.885828 C136.485422,144.921708 133.132527,144.949982 129.734574,144.970651 C126.197352,144.990225 122.61916,145.000008 119,145 C53.2775906,145 0,141.643111 0,137.5 C0,133.356889 53.2775906,130 119,130 C147.293739,130 173.279159,130.623088 193.701682,131.660513 C194.453377,131.69966 195.197556,131.737718 195.934217,131.774687 C195.938506,131.777299 195.943543,131.778446 195.948555,131.777953 C221.673865,133.154629 238,135.206621 238,137.5 Z" id="Path" fill="#828383" fill-rule="nonzero"></path>
                <path d="M238,137.5 C238,139.372551 227.111828,141.085253 209.110232,142.399965 C205.837224,142.638111 202.328681,142.863205 198.609157,143.075261 C195.393491,143.25795 192.024215,143.429759 188.50133,143.590689 C185.086982,143.744026 181.54224,143.886486 177.867104,144.018068 C166.257949,144.435631 153.426028,144.735756 139.793259,144.885828 C136.485422,144.921708 133.132527,144.949982 129.734574,144.970651 C126.197352,144.990225 122.61916,145.000008 119,145 C53.2775906,145 0,141.643111 0,137.5 C0,133.356889 53.2775906,130 119,130 C147.293739,130 173.279159,130.623088 193.701682,131.660513 C194.453377,131.69966 195.197556,131.737718 195.934217,131.774687 C195.938506,131.777299 195.943543,131.778446 195.948555,131.777953 C221.673865,133.154629 238,135.206621 238,137.5 Z" id="Path" fill="#9B9B9B" fill-rule="nonzero" opacity="0.15"></path>
                <path d="M228,135.999983 C228,137.498066 217.889665,138.86796 201.173992,139.920253 C198.13606,140.109666 194.876675,140.289512 191.424022,140.459792 C188.438433,140.60519 185.309907,140.742307 182.038442,140.871143 C178.867638,140.995505 175.576042,141.109663 172.163653,141.213617 C161.38292,141.548437 149.466737,141.787595 136.807679,141.90813 C133.737536,141.936829 130.624444,141.95915 127.468404,141.975094 C124.182847,141.992306 120.860381,142.000597 117.501007,141.999967 C56.4725939,141.999967 7,139.31375 7,135.999983 C7,132.686217 56.4725939,130 117.501007,130 C130.995545,130 143.924373,130.132015 155.878807,130.373086 L155.909005,130.373086 C167.215186,130.600764 177.649657,130.926018 186.866117,131.329716 C187.564701,131.360328 188.255902,131.390302 188.939722,131.419639 C188.943703,131.422635 188.94877,131.42401 188.953815,131.423465 C193.175514,131.618618 197.125429,131.829077 200.765311,132.054841 C200.805575,132.056754 200.845839,132.060581 200.886103,132.062494 C217.774906,133.116701 228,134.492334 228,135.999983 Z" id="Path" fill="#9B9B9B" fill-rule="nonzero"></path>
                <path d="M201,131.817848 C199.499394,141.808771 190.037296,138.46054 178.587855,138.46054 C166.492123,138.46054 156.615996,142.197571 156,130 C167.342399,130.246102 177.810297,130.597677 187.056281,131.034043 C187.757102,131.067132 188.450518,131.099532 189.136529,131.131243 C189.140522,131.134481 189.145605,131.135968 189.150666,131.135379 C193.385897,131.346324 197.348466,131.573813 201,131.817848 Z" id="Path" fill="#000000" fill-rule="nonzero" opacity="0.1"></path>
                <path d="M65,128.529157 C65,131.843007 62.7616189,133 60,133 C59.9360309,133 59.8720662,132.999188 59.8085598,132.997972 C59.6806239,132.995542 59.5536111,132.990281 59.4284384,132.982587 C56.936034,132.827483 55,131.610951 55,128.529157 C55,125.340442 59.6304644,121.316279 59.9792889,121.017819 L59.9797494,121.017413 C59.9930963,121.00567 60,121 60,121 C60,121 65,125.215712 65,128.529157 Z" id="Path" fill="#BF0C3F" fill-rule="nonzero"></path>
                <path d="M58.9176614,132.494926 L60.6627477,130.246158 L58.9132689,132.741992 L58.9088785,133 C58.7867993,132.99757 58.665601,132.992308 58.5461586,132.984612 L58.7341124,129.668981 L58.7327961,129.643061 L58.7358702,129.638604 L58.7538733,129.325106 L57,126.823207 L58.7591364,129.090197 L58.7635289,129.156623 L58.905367,126.651471 L57.4039935,124.066126 L58.9238096,126.212009 L59.0717938,121.017822 L59.0722333,121 L59.0722333,121.017416 L59.0476425,125.113144 L60.5424304,123.489353 L59.0414963,125.465927 L59.0019765,127.709019 L60.3979577,125.556248 L58.9962677,128.039122 L58.9743116,129.28623 L61,126.289775 L58.9663973,129.721239 L58.9176614,132.494926 Z" id="Path" fill="#3F3D56" fill-rule="nonzero"></path>
                <path d="M156,127.055665 C156,113.770088 166.297451,103 179,103 C191.702549,103 202,113.770088 202,127.055665 C202,140.341241 191.702551,136.477467 179,136.477467 C166.297449,136.477467 156,140.341241 156,127.055665 Z" id="Path" fill="#3F3D56" fill-rule="nonzero"></path>
                <path d="M31,138 L31,111" id="Path" stroke="#3F3D56" stroke-width="2" fill="#3F3D56" fill-rule="nonzero"></path>
                <circle id="Oval" fill="#3F3D56" fill-rule="nonzero" cx="30" cy="110" r="4"></circle>
                <path d="M31,128 C31,128 30.4883709,115.684244 20,117.115784" id="Path" fill="#3F3D56" fill-rule="nonzero"></path>
                <path d="M142.673088,115.878333 C142.771894,116.254764 142.882127,116.628707 143,117 C142.471317,116.440113 141.952621,115.865023 141.423944,115.308554 C141.636011,115.379762 141.847459,115.450864 142.047372,115.53526 C142.265365,115.628469 142.474839,115.743321 142.673088,115.878333 L142.673088,115.878333 Z M140.112416,114.008452 C136.996709,111.089593 133.386571,108.829824 130.193636,106 C131.937205,106.9242 133.633179,108.001106 135.315612,109.033793 C137.311202,110.258701 139.330505,111.435984 141.373519,112.565642 C141.040693,113.1274 140.612911,113.616819 140.112416,114.008452 L140.112416,114.008452 Z M141.445139,106.658599 C141.494773,106.603984 141.544495,106.549044 141.594305,106.493778 C141.595736,106.908468 141.598649,107.296195 141.603261,107.64822 C141.324104,107.548435 141.045725,107.446107 140.768123,107.341235 C141.006864,107.129218 141.232983,106.901222 141.445139,106.658599 L141.445139,106.658599 Z M114,114.56074 C115.28392,112.998281 116.399284,111.284022 117.32472,109.450805 C118.561625,111.77908 120.571584,113.457918 122.281296,115.407874 C119.526656,115.016174 116.767746,114.692861 114,114.56074 Z" id="Shape" fill="url(#linearGradient-1)" fill-rule="nonzero"></path>
                <path d="M24,134.529157 C24,137.843007 21.7616189,139 19,139 C18.9360309,139 18.8720662,138.999188 18.8085598,138.997972 C18.6806239,138.995542 18.5536111,138.990281 18.4284384,138.982587 C15.936034,138.827483 14,137.610951 14,134.529157 C14,131.340442 18.6304644,127.316279 18.9792889,127.017819 L18.9797494,127.017413 C18.9930963,127.00567 19,127 19,127 C19,127 24,131.215712 24,134.529157 Z" id="Path" fill="#BF0C3F" fill-rule="nonzero"></path>
                <path d="M18.9176614,138.494926 L20.6627477,136.246158 L18.9132689,138.741992 L18.9088785,139 C18.7867993,138.99757 18.665601,138.992308 18.5461586,138.984612 L18.7341124,135.668981 L18.7327961,135.643061 L18.7358702,135.638604 L18.7538733,135.325106 L17,132.823207 L18.7591364,135.090197 L18.7635289,135.156623 L18.905367,132.651471 L17.4039935,130.066126 L18.9238096,132.212009 L19.0717938,127.017822 L19.0722333,127 L19.0722333,127.017416 L19.0476425,131.113144 L20.5424304,129.489353 L19.0414963,131.465927 L19.0019765,133.709019 L20.3979577,131.556248 L18.9962677,134.039122 L18.9743116,135.28623 L21,132.289775 L18.9663973,135.721239 L18.9176614,138.494926 Z" id="Path" fill="#3F3D56" fill-rule="nonzero"></path>
                <circle id="Oval" fill="#BF0C3F" fill-rule="nonzero" cx="27" cy="104" r="2"></circle>
                <path d="M156.536836,76.174408 C156.536836,76.174408 164.072997,74.6129286 164.90394,80.8343649 C165.734882,87.0558012 160.90173,88.2301459 160.90173,88.2301459 L157.840929,89 L146,86.0837017 L147.661885,81.6120444 L156.536836,76.174408 Z" id="Path" fill="#6BA4B8" fill-rule="nonzero"></path>
                <circle id="Oval" fill="#2F2E41" fill-rule="nonzero" cx="153.5" cy="66.5" r="9.5"></circle>
                <polygon id="Path" fill="#2F2E41" fill-rule="nonzero" points="118 87 120.04552 87.4073923 127 97.5926077 123.931823 98"></polygon>
                <path d="M70,128.157875 C70.5625964,129.813666 71.2556214,131.431755 72.0738748,133 C74.4256846,132.55992 76.7394033,131.97044 78.9974266,131.236044 C79.0670392,131.213402 77.7024477,129.617513 77.5591664,129.487139 C77.0185377,128.995243 76.318699,128.420491 75.6039518,128.142418 C74.8832735,127.862039 73.9955558,128.076029 73.2240869,128.111257 C72.1504276,128.160286 71.075732,128.175825 70,128.157875 Z" id="Path" fill="#FBBEBE" fill-rule="nonzero"></path>
                <path d="M74.6894409,130.697632 C73.6003885,130.343217 72.9385656,129.203476 72.4955987,128.104327 C72.0526317,127.005177 71.6954013,125.806651 70.8552075,125 C70.5332947,125.016011 70.2739768,125.288095 70.1147051,125.581086 C69.9554334,125.874077 69.8605935,126.204393 69.6765236,126.481036 C69.3261037,127.007662 68.7101993,127.262146 68.269663,127.708666 C67.8078142,128.176788 67.5553476,128.839127 67.0772783,129.289081 C66.4767855,129.854255 65.6279345,129.99459 64.8400877,130.181529 C63.6215296,130.470995 62.4445652,130.924833 61.3390878,131.531517 C60.9318765,131.786817 60.4963918,131.989798 60.042176,132.136013 C59.5423398,132.235883 59.0305416,132.253658 58.5254131,132.188689 L55.0420903,131.930522 C54.732113,131.888997 54.4175749,131.90331 54.1122689,131.972832 C53.3962019,132.181935 52.9516017,133.013124 53.0042086,133.788672 C53.0568155,134.564219 53.5207107,135.259205 54.1065446,135.737898 C54.7128795,136.189161 55.3818069,136.541666 56.0902812,136.78327 C59.124586,137.97456 62.2484777,138.902641 65.4299738,139.558011 L65.4316867,140.275054 C67.643947,141.406469 70.0761192,141.995452 72.5413795,141.996762 C72.7236605,142.011017 72.9064966,141.978059 73.0735337,141.900837 C73.3180123,141.762826 73.4311967,141.465845 73.521612,141.191118 C74.3573627,138.649366 74.8464111,135.998317 74.9744823,133.315351 C75.0363088,132.635181 74.9855842,131.949022 74.8245119,131.286677 C74.6348011,130.634429 75.2880444,130.908522 74.6835653,130.653228" id="Path" fill="#2F2E41" fill-rule="nonzero"></path>
                <path d="M144.245162,116.79978 C133.5133,117.430205 122.90625,114.348247 112.160569,114.018822 C110.824631,113.977866 109.474153,113.9809 108.169716,114.268342 C106.789817,114.572414 105.503439,115.185014 104.220243,115.770761 C98.4569909,118.401554 92.4948203,120.580629 86.5399145,122.756743 L79.6993635,125.256494 C78.3323797,125.756034 76.9159111,126.263298 75.4608427,126.176052 C74.8086082,126.136943 74.0079232,126.040109 73.6409646,126.573493 C72.5281215,128.191047 73.0539942,130.567535 73.789274,132.382908 C74.0279396,132.97216 74.4316192,133.607909 75.0712351,133.674944 C75.5215231,133.722138 75.9402281,133.466401 76.3777865,133.351428 C77.622944,133.024256 78.8643118,133.845983 80.1457227,133.979752 C81.7288642,134.145022 83.1989237,133.26025 84.6931583,132.71841 C87.1714048,131.819747 89.8811773,131.847982 92.4860538,131.422363 C96.8539156,130.708685 100.902244,128.718858 104.686507,126.451798 C106.127558,125.588497 107.585612,124.663723 109.240909,124.347988 C111.144278,123.984933 113.099281,124.465981 114.965426,124.984014 C119.415239,126.21935 123.795924,127.682898 128.089417,129.368623 C130.350035,130.256197 132.59448,131.207997 134.94662,131.82195 C140.034587,133.136158 145.416766,132.828275 150.314587,130.94284 C152.032357,130.276767 153.898859,129.099306 153.997264,127.281074 C154.053371,126.244367 153.233952,125.330972 152.686307,124.444432 C152.335113,123.875913 151.983696,123.307061 151.601263,122.758499 C149.750701,120.104128 147.504974,116.608288 144.245162,116.79978 Z" id="Path" fill="#4D4F51" fill-rule="nonzero"></path>
                <path d="M144.245162,116.79978 C133.5133,117.430205 122.90625,114.348247 112.160569,114.018822 C110.824631,113.977866 109.474153,113.9809 108.169716,114.268342 C106.789817,114.572414 105.503439,115.185014 104.220243,115.770761 C98.4569909,118.401554 92.4948203,120.580629 86.5399145,122.756743 L79.6993635,125.256494 C78.3323797,125.756034 76.9159111,126.263298 75.4608427,126.176052 C74.8086082,126.136943 74.0079232,126.040109 73.6409646,126.573493 C72.5281215,128.191047 73.0539942,130.567535 73.789274,132.382908 C74.0279396,132.97216 74.4316192,133.607909 75.0712351,133.674944 C75.5215231,133.722138 75.9402281,133.466401 76.3777865,133.351428 C77.622944,133.024256 78.8643118,133.845983 80.1457227,133.979752 C81.7288642,134.145022 83.1989237,133.26025 84.6931583,132.71841 C87.1714048,131.819747 89.8811773,131.847982 92.4860538,131.422363 C96.8539156,130.708685 100.902244,128.718858 104.686507,126.451798 C106.127558,125.588497 107.585612,124.663723 109.240909,124.347988 C111.144278,123.984933 113.099281,124.465981 114.965426,124.984014 C119.415239,126.21935 123.795924,127.682898 128.089417,129.368623 C130.350035,130.256197 132.59448,131.207997 134.94662,131.82195 C140.034587,133.136158 145.416766,132.828275 150.314587,130.94284 C152.032357,130.276767 153.898859,129.099306 153.997264,127.281074 C154.053371,126.244367 153.233952,125.330972 152.686307,124.444432 C152.335113,123.875913 151.983696,123.307061 151.601263,122.758499 C149.750701,120.104128 147.504974,116.608288 144.245162,116.79978 Z" id="Path" fill="#4D4F51" fill-rule="nonzero" opacity="0.1"></path>
                <path d="M90,128.429769 C91.8309476,128.999085 93.6778959,129.522495 95.5408447,130 C96.5837168,128.440013 98.534604,127.35447 98.979248,125.571103 C99.0068096,125.493491 99.0069195,125.409953 98.9795622,125.332282 C98.931999,125.25598 98.8583523,125.195944 98.7698519,125.161328 C97.4354196,124.487709 95.9536263,124.092102 94.4311976,124.003001 C93.2289326,123.933768 92.6802771,125.077463 92.1351982,125.881292 C91.914536,126.206703 90.4899018,128.5821 90,128.429769 Z" id="Path" fill="#FBBEBE" fill-rule="nonzero"></path>
                <path d="M92.8832137,127.547332 C91.8738607,127.340796 90.8860846,126.811184 90.3707745,125.934569 C90.1293498,125.523868 89.8725417,124.970243 89.3905229,125.001247 C88.9430914,125.030027 88.7375133,125.551149 88.6367802,125.980044 C88.2595511,127.586171 87.8890445,129.2051 87.2272,130.719923 C86.5653554,132.234745 85.5862112,133.656928 84.2052894,134.594646 C83.5719904,135.024695 82.8658395,135.345934 82.2467816,135.795519 C81.6905224,136.199497 81.2055709,136.706135 80.5911869,137.018596 C80.1799888,137.202511 79.7556472,137.35702 79.3215127,137.480902 C78.6827022,137.698056 78.072366,137.988028 77.5031593,138.344803 C77.0026499,138.628713 76.5783018,139.024525 76.2649942,139.499705 C75.9522617,139.986684 75.9138491,140.595262 76.1629732,141.116039 C76.4297822,141.542795 76.8708884,141.837706 77.3749183,141.926313 C77.8725238,142.010089 78.3799914,142.022507 78.8812715,141.963173 C80.8720471,141.819944 82.8604581,141.646909 84.8487769,141.473883 C85.6899474,141.420993 86.5259651,141.307499 87.3500021,141.134328 C87.7855818,141.031751 88.2123243,140.895918 88.6462223,140.78669 C89.3899638,140.599529 90.1522007,140.491159 90.9197306,140.463458 C91.1426654,140.444995 91.3671891,140.465015 91.5830087,140.5226 C92.0436435,140.669509 92.3705205,141.116904 92.8459438,141.207695 C93.1509708,141.236189 93.4586298,141.196051 93.7452878,141.090362 C95.1778518,140.707921 96.6831571,140.718242 98.16562,140.640125 C98.8188121,140.605703 99.5833647,140.484562 99.8830394,139.913787 C100.256745,139.202008 99.6370618,138.406097 99.3901368,137.642915 C99.2669455,137.155201 99.1982652,136.65589 99.185299,136.153727 C99.0714016,134.912795 98.6982326,133.707811 98.0888182,132.613126 C97.582056,131.704692 96.8901625,130.700294 97.2462763,129.725351 C97.3671117,129.394534 97.6074105,129.086516 97.5835285,128.735822 C97.4785625,127.195741 93.7984537,127.734609 92.8832137,127.547332 Z" id="Path" fill="#2F2E41" fill-rule="nonzero"></path>
                <path d="M127.877803,99.5834902 C126.016941,98.7338812 124.526158,97.1995734 123.693661,95.2771884 C123.518292,94.8640574 123.374187,94.4326596 123.205315,94.0155965 C122.654661,92.63014 121.7982,91.3977472 120.704679,90.4173434 C120.431257,90.1770258 120.110475,89.9476462 119.776417,90.0105276 C119.455868,90.0708665 119.203635,90.3994915 119.093655,90.7680999 C118.999649,91.147583 118.976135,91.5421257 119.024365,91.9307101 C119.117813,92.8466591 119.269824,93.7551724 119.479395,94.6502612 L119.988272,97.0529143 C120.051275,97.4224587 120.157653,97.7826338 120.305037,98.1254207 C120.524597,98.5297656 120.814179,98.8887326 121.15928,99.1843445 C121.624141,99.6280292 122.09655,100.059838 122.576507,100.47977 C123.243122,101.142674 124.112453,101.543198 125.034009,101.612007 C127.119356,102.012716 129.240301,102.589895 131,104 C130.980473,103.984357 130.992531,102.388459 130.962073,102.205527 C130.881572,101.722031 130.81884,101.243194 130.515141,100.916298 C129.832907,100.181957 128.708787,99.9662065 127.877803,99.5834902 Z" id="Path" fill="#FBBEBE" fill-rule="nonzero"></path>
                <path d="M127.877803,99.5834902 C126.016941,98.7338812 124.526158,97.1995734 123.693661,95.2771884 C123.518292,94.8640574 123.374187,94.4326596 123.205315,94.0155965 C122.654661,92.63014 121.7982,91.3977472 120.704679,90.4173434 C120.431257,90.1770258 120.110475,89.9476462 119.776417,90.0105276 C119.455868,90.0708665 119.203635,90.3994915 119.093655,90.7680999 C118.999649,91.147583 118.976135,91.5421257 119.024365,91.9307101 C119.117813,92.8466591 119.269824,93.7551724 119.479395,94.6502612 L119.988272,97.0529143 C120.051275,97.4224587 120.157653,97.7826338 120.305037,98.1254207 C120.524597,98.5297656 120.814179,98.8887326 121.15928,99.1843445 C121.624141,99.6280292 122.09655,100.059838 122.576507,100.47977 C123.243122,101.142674 124.112453,101.543198 125.034009,101.612007 C127.119356,102.012716 129.240301,102.589895 131,104 C130.980473,103.984357 130.992531,102.388459 130.962073,102.205527 C130.881572,101.722031 130.81884,101.243194 130.515141,100.916298 C129.832907,100.181957 128.708787,99.9662065 127.877803,99.5834902 Z" id="Path" fill="#000000" fill-rule="nonzero" opacity="0.1"></path>
                <circle id="Oval" fill="#2F2E41" fill-rule="nonzero" cx="149.5" cy="78.5" r="2.5"></circle>
                <path d="M148.888854,77.0556183 C148.186954,76.9761783 147.407343,76.9172407 146.844947,77.3554499 C146.546543,77.624743 146.308077,77.9560973 146.145575,78.327246 C145.604971,79.3630845 145.071904,80.4185451 144.799814,81.5599198 C144.568964,82.5283026 144.530668,83.5409263 144.244829,84.4937382 C143.71459,86.2612268 142.356159,87.7530707 142.200906,89.5955345 C142.131431,90.4200131 142.266679,91.3853208 141.67727,91.9501699 C141.531705,92.0750924 141.376305,92.1875699 141.212648,92.2864619 C140.803905,92.5658642 140.45718,92.9297061 140.194894,93.3544571 C139.974224,93.7122318 139.804306,94.123228 139.472154,94.3744475 C138.946333,94.772147 138.073356,94.731676 137.814136,95.3469161 C137.547774,95.979121 138.223713,96.682796 138.067126,97.3525496 C137.939584,97.898072 137.343697,98.1480464 136.933302,98.5187164 C136.407541,98.9936001 136.167158,99.7100379 135.947943,100.39266 C134.19757,100.730729 132.389864,100.27069 131,99.1334694 C131.721869,100.947705 131.737387,102.949909 131.768754,104.909272 C131.778938,105.544905 131.759513,106.258243 131.314845,106.700897 C133.373383,106.745881 135.381097,107.315002 137.389983,107.778321 C138.267966,107.980814 139.221115,108.156653 140.039821,107.773387 C140.499203,107.522362 140.910332,107.188655 141.253376,106.788364 C142.346189,105.657416 143.492669,104.423639 143.760039,102.854811 C143.90985,101.975792 143.764761,101.073642 143.804415,100.182219 C143.853538,99.0777067 144.184494,98.0103392 144.467818,96.943583 C145.047566,94.7600895 145.436177,92.5283738 145.629076,90.2747272 C145.748045,88.8840302 146.925092,87.7647392 147.544703,86.5218793 C148.714432,84.1755582 149.909817,81.7318623 149.997951,79.0979039 C150.027435,78.2170717 149.742579,77.1522412 148.888854,77.0556183 Z" id="Path" fill="#6BA4B8" fill-rule="nonzero"></path>
                <path d="M148.888854,77.0556183 C148.186954,76.9761783 147.407343,76.9172407 146.844947,77.3554499 C146.546543,77.624743 146.308077,77.9560973 146.145575,78.327246 C145.604971,79.3630845 145.071904,80.4185451 144.799814,81.5599198 C144.568964,82.5283026 144.530668,83.5409263 144.244829,84.4937382 C143.71459,86.2612268 142.356159,87.7530707 142.200906,89.5955345 C142.131431,90.4200131 142.266679,91.3853208 141.67727,91.9501699 C141.531705,92.0750924 141.376305,92.1875699 141.212648,92.2864619 C140.803905,92.5658642 140.45718,92.9297061 140.194894,93.3544571 C139.974224,93.7122318 139.804306,94.123228 139.472154,94.3744475 C138.946333,94.772147 138.073356,94.731676 137.814136,95.3469161 C137.547774,95.979121 138.223713,96.682796 138.067126,97.3525496 C137.939584,97.898072 137.343697,98.1480464 136.933302,98.5187164 C136.407541,98.9936001 136.167158,99.7100379 135.947943,100.39266 C134.19757,100.730729 132.389864,100.27069 131,99.1334694 C131.721869,100.947705 131.737387,102.949909 131.768754,104.909272 C131.778938,105.544905 131.759513,106.258243 131.314845,106.700897 C133.373383,106.745881 135.381097,107.315002 137.389983,107.778321 C138.267966,107.980814 139.221115,108.156653 140.039821,107.773387 C140.499203,107.522362 140.910332,107.188655 141.253376,106.788364 C142.346189,105.657416 143.492669,104.423639 143.760039,102.854811 C143.90985,101.975792 143.764761,101.073642 143.804415,100.182219 C143.853538,99.0777067 144.184494,98.0103392 144.467818,96.943583 C145.047566,94.7600895 145.436177,92.5283738 145.629076,90.2747272 C145.748045,88.8840302 146.925092,87.7647392 147.544703,86.5218793 C148.714432,84.1755582 149.909817,81.7318623 149.997951,79.0979039 C150.027435,78.2170717 149.742579,77.1522412 148.888854,77.0556183 Z" id="Path" fill="#6BA4B8" fill-rule="nonzero" opacity="0.1"></path>
                <path d="M146.156179,119.333266 C143.899361,118.258103 142.248097,116.253214 140.423346,114.537456 C136.939829,111.262011 132.679845,108.943263 129.017204,105.872302 C126.589368,103.836671 124.418065,101.466342 121.750215,99.7622667 C119.400497,98.2640601 116.736978,97.3295043 113.967299,97.031454 C113.649972,96.977073 113.324577,96.9933556 113.014245,97.0791445 C112.664302,97.2340491 112.359438,97.4755069 112.128303,97.7808256 C110.946382,99.1163418 109.895856,100.562898 108.991317,102.100403 C104.348847,109.991997 97.7546495,116.627395 92.2912691,123.966788 C91.9295494,124.324592 91.9012102,124.899993 92.2260154,125.291701 L93.3373625,127.472409 C93.959229,128.692644 94.955535,130.114051 96.2962132,129.871556 C96.9088516,129.760745 97.3970459,129.309362 97.8481673,128.877547 L102.837255,124.101968 L108.06799,119.09507 C111.132772,116.161442 114.249983,113.159651 116.247873,109.407046 C117.809352,112.118866 120.579608,113.893727 122.480379,116.37627 C123.203355,117.320529 123.793899,118.358917 124.439311,119.358532 C125.473922,120.960933 126.650398,122.464835 127.825047,123.966174 L133.825135,131.635035 C134.643398,132.680877 135.484366,133.74763 136.603315,134.457025 C138.024377,135.357948 139.752661,135.595319 141.425339,135.745314 C143.679316,135.94741 145.942431,136.029329 148.205098,135.990725 C149.930166,135.961271 151.709314,135.84789 153.257265,135.080699 C154.805216,134.313509 156.076853,132.738652 155.996379,131.00336 C155.954529,130.100942 155.562763,129.254567 155.131543,128.462343 C152.988205,124.524682 150.187322,121.253729 146.156179,119.333266 Z" id="Path" fill="#828383" fill-rule="nonzero"></path>
                <circle id="Oval" fill="#2F2E41" fill-rule="nonzero" cx="152" cy="81" r="2"></circle>
                <path d="M151.672609,79.1848358 C152.148092,80.031289 152.148437,81.0848174 151.886756,82.0220333 C151.625075,82.9592492 151.125391,83.8070153 150.631109,84.6423321 C150.144636,85.4644556 149.652592,86.2940612 149,86.9879719 C152.011172,87.1332376 154.930426,85.9426798 157.587824,84.5001027 C159.72568,83.3395622 161.859019,81.9069073 163,79.7379582 C162.332722,79.940017 161.59734,79.7405996 161.006732,79.3665921 C160.433124,78.9635988 159.918929,78.480879 159.479415,77.9327666 L157.967626,76.2185904 C157.612564,75.8452845 157.300645,75.4325987 157.037849,74.9884424 C156.710572,74.3807545 156.571549,73.6881276 156.638731,73 C156.038138,73.6335993 155.366867,74.1950674 154.638295,74.673216 C153.558518,75.38155 152.368243,75.8953962 151.286202,76.5995568 C150.902401,76.8493215 150.049266,77.2509596 150.268876,77.7564036 C150.483037,78.2493157 151.368356,78.643211 151.672609,79.1848358 Z" id="Path" fill="#FBBEBE" fill-rule="nonzero"></path>
                <path d="M151.672609,79.1848358 C152.148092,80.031289 152.148437,81.0848174 151.886756,82.0220333 C151.625075,82.9592492 151.125391,83.8070153 150.631109,84.6423321 C150.144636,85.4644556 149.652592,86.2940612 149,86.9879719 C152.011172,87.1332376 154.930426,85.9426798 157.587824,84.5001027 C159.72568,83.3395622 161.859019,81.9069073 163,79.7379582 C162.332722,79.940017 161.59734,79.7405996 161.006732,79.3665921 C160.433124,78.9635988 159.918929,78.480879 159.479415,77.9327666 L157.967626,76.2185904 C157.612564,75.8452845 157.300645,75.4325987 157.037849,74.9884424 C156.710572,74.3807545 156.571549,73.6881276 156.638731,73 C156.038138,73.6335993 155.366867,74.1950674 154.638295,74.673216 C153.558518,75.38155 152.368243,75.8953962 151.286202,76.5995568 C150.902401,76.8493215 150.049266,77.2509596 150.268876,77.7564036 C150.483037,78.2493157 151.368356,78.643211 151.672609,79.1848358 Z" id="Path" fill="#000000" fill-rule="nonzero" opacity="0.1"></path>
                <path d="M151.732563,79.362662 C151.126192,80.3432606 150.996165,81.5010581 151.732563,82.3945476 C151.824192,82.505721 152.164723,83.1958364 152.311593,83.2022259 C152.453914,83.1909014 152.586027,83.1266312 152.679836,83.0230835 C153.463364,82.3342294 154.037454,81.4557064 154.725846,80.6776 C155.414238,79.8994936 156.282554,79.190341 157.329044,79.0336061 C158.592133,78.8444317 159.811711,79.4880754 160.916854,80.1089908 C161.376178,80.3670565 161.852492,80.6404158 162.141718,81.0712889 C162.374478,81.4758413 162.511795,81.924701 162.543925,82.3860149 C162.925687,85.1520791 162.917265,87.9529138 162.908193,90.7434802 C162.901633,92.7606465 162.893713,94.7920266 162.496975,96.772386 C162.291917,97.795967 161.983854,98.8006339 161.838207,99.833686 C161.731213,100.745441 161.68784,101.663063 161.708379,102.580392 L161.705305,106.420789 C161.67864,107.126062 161.730562,107.832054 161.860181,108.526697 C162.049873,109.368244 162.46388,110.145107 162.740704,110.96376 C163.02606,111.904762 163.221338,112.868886 163.324097,113.84409 L163.870664,117.820869 C164.042793,119.073263 164.169977,120.443352 163.382493,121.451505 C163.026451,121.907314 162.55863,122.272182 162.197606,122.724312 C160.845745,124.41733 161.279541,126.832973 160.715483,128.901202 C160.270457,130.415888 159.355878,131.764131 158.09368,132.766178 C157.127669,133.555459 155.879913,134.176514 154.636242,133.95446 C152.957119,133.654647 151.948569,131.970998 151.490832,130.380332 C151.033094,128.789665 150.866182,127.058193 149.874282,125.71425 C149.064434,124.616973 147.809601,123.926763 146.675009,123.143429 C145.540418,122.360096 144.431767,121.350311 144.184766,120.023569 C144.076886,119.444094 144.14403,118.847281 144.080046,118.26175 C143.896168,116.750687 142.870875,115.455962 141.405011,114.883755 C140.545503,114.562289 139.483955,114.447475 139,113.689129 C140.249735,113.011895 141.079311,111.760262 141.516348,110.441019 C141.953385,109.121777 142.042487,107.721978 142.128406,106.339204 L142.41554,101.718079 C142.543861,99.6528969 142.602027,97.6061164 143.547785,95.7503005 C143.970573,94.9206891 144.496645,94.144062 144.936723,93.3228945 C145.518899,92.1707325 146.016041,90.9806006 146.424466,89.7613175 C147.110063,87.8678128 147.795845,85.9737632 148.406979,84.0565675 C148.698185,83.1430176 148.978007,82.2120108 149.497058,81.3984013 C150.016108,80.5847917 150.760776,79.5383291 151.732563,79.362662 Z" id="Path" fill="#BF0C3F" fill-rule="nonzero"></path>
                <path d="M141.129271,109.954775 L142.352966,110 L142.613702,108.104962 C142.647973,107.72586 142.735271,107.353774 142.872917,107.00012 C143.074695,106.62622 143.310306,106.272554 143.576645,105.94378 C144.781587,104.200251 144.693773,101.885193 144.992238,99.7672721 C145.390312,96.9424942 146.542275,94.2979194 147.68186,91.6960282 L150.058128,86.2705119 C150.532129,85.3494678 150.758889,84.316025 150.715235,83.2758041 C150.736275,82.4370608 150.978895,79.3853234 150.999933,78.546576 C151.00772,78.2362046 150.331855,78.4086532 150.194971,78.1320336 C149.896891,77.5296827 149.489223,79.1632334 148.932636,79.521632 C148.376049,79.8800305 148.068874,80.5292414 147.832552,81.159986 C147.320476,82.5267122 147.007349,83.9640295 146.530213,85.3441019 C146.053078,86.7241743 145.385465,88.0800355 144.311834,89.0409257 C143.823972,89.4775602 143.261841,89.8238603 142.80104,90.2906311 C141.322617,91.7881816 141.178623,94.1530575 141.126616,96.2881137 C141.095702,97.557376 140.856251,109.954775 141.129271,109.954775 Z" id="Path" fill="#6BA4B8" fill-rule="nonzero"></path>
                <path d="M158.934979,77.1402593 C157.771541,77.6033641 157.133578,78.8807075 156.806601,80.1080235 C156.479625,81.3353396 156.346455,82.6434127 155.721536,83.7445237 C154.26073,86.318446 150.536131,87.0685413 149.50551,89.849848 C149.168274,90.7599382 149.182846,91.7584468 149.092024,92.7267261 C148.905091,94.7196644 148.257832,96.6450491 148.066499,98.6375551 C147.918275,100.181138 148.046243,101.736812 148.174233,103.282271 L149.475971,119.000418 C149.664001,121.270821 149.659175,123.709732 149.086044,125.912224 C150.404021,126.172492 151.774345,125.824148 152.997068,125.259763 C154.219791,124.695379 155.335806,123.920594 156.512839,123.263223 C158.536617,122.132947 160.768423,121.332092 162.540682,119.826475 C162.861445,119.573546 163.136268,119.26602 163.352847,118.917668 C163.707924,118.296204 163.737062,117.544421 163.906015,116.84636 C164.059297,116.289473 164.254356,115.745248 164.489493,115.21843 C165.138162,113.634452 165.703406,112.016765 166.182844,110.372184 C166.512191,109.280828 166.772304,108.169278 166.961595,107.044331 C167.103649,106.148405 167.180378,105.243261 167.256989,104.339095 C167.351384,102.923502 167.629226,101.526619 168.08337,100.184363 C169.215616,96.983425 169.856758,93.6257643 169.984483,90.228239 C170.022879,89.7374692 169.989922,89.2436514 169.886666,88.7625707 C169.732406,88.1659297 169.384562,87.6443817 169.099171,87.1000976 C168.558253,86.0684836 168.233401,84.9331685 167.722853,83.8856293 C166.569155,81.5185029 164.531836,79.7237924 162.397608,78.2196009 C161.349482,77.4809037 160.122265,76.6676638 158.934979,77.1402593 Z" id="Path" fill="#6BA4B8" fill-rule="nonzero"></path>
                <path d="M131.609145,103.468989 C130.679725,102.916978 129.750579,102.32253 129.051053,101.486727 C128.71591,101.086293 128.439281,100.636878 128.098561,100.241424 C127.269757,99.2794775 126.095305,98.6829811 124.881084,98.371181 C123.666862,98.0593809 122.404153,98.0120359 121.152487,98.0013079 C120.315159,97.9941289 119.4572,98.0063255 118.673286,98.3081923 C117.889372,98.6100591 117.182434,99.260938 117.030907,100.105489 C116.848592,101.121649 117.499551,102.11185 118.281237,102.76372 C119.008344,103.369094 119.864112,103.792772 120.780266,104.000951 C121.527653,104.134463 122.281869,104.224589 123.039274,104.270892 C127.486631,104.745853 131.454094,107.214585 135.35133,109.462567 C138.774084,111.436859 142.263382,113.28267 145.819225,115 C145.960277,113.913863 146.018935,112.818244 145.994675,111.722901 C145.976522,110.904876 145.937027,109.65788 145.179392,109.177604 C144.296651,108.618023 142.843398,108.489449 141.847595,108.156563 C139.55615,107.390437 137.31814,106.467106 135.148891,105.392893 C133.946086,104.797249 132.76617,104.155948 131.609145,103.468989 Z" id="Path" fill="#FBBEBE" fill-rule="nonzero"></path>
                <circle id="Oval" fill="#FBBEBE" fill-rule="nonzero" cx="150.5" cy="70.5" r="7.5"></circle>
                <path d="M161.429325,87.017373 C160.725085,87.8464563 160.372544,88.9142677 159.899362,89.8980159 C158.925698,91.9222505 157.398753,93.6596379 156.63403,95.7743111 C155.827267,98.0052336 155.854303,100.65885 154.27289,102.411092 C153.99792,102.715766 153.66603,103.00981 153.586509,103.415067 C153.539309,103.655604 153.588301,103.913075 153.506176,104.143734 C153.27952,104.780314 152.247473,104.812412 152.05479,105.460431 C151.998408,105.650049 152.030163,105.860087 151.960344,106.045038 C151.802134,106.46415 151.253925,106.528163 150.887416,106.779181 C150.122115,107.303326 150.276436,108.522058 149.730264,109.27764 C149.298156,109.875426 148.483554,110.075738 147.760035,109.974363 C147.036516,109.872987 146.373844,109.523317 145.714935,109.203426 C145.488567,109.074714 145.238015,108.995281 144.979404,108.970239 C144.673874,108.980785 144.378324,109.08268 144.130218,109.263008 C142.673708,110.197961 141.99001,112.049901 142.00011,113.799299 C142.01021,115.548697 142.605566,117.23423 143.215313,118.870481 C143.29846,119.146643 143.43503,119.403413 143.617119,119.625932 C144.100025,120.141487 144.941015,120.058192 145.582335,119.771396 C146.223654,119.4846 146.806198,119.033356 147.495879,118.907229 C148.715953,118.684106 149.908341,119.530547 151.146155,119.460873 C152.052981,119.40983 152.855478,118.877467 153.608873,118.362554 C154.81147,117.540633 156.036135,116.698008 156.920296,115.531647 C157.461709,114.817428 157.858301,114.003263 158.330338,113.239999 C158.937212,112.303388 159.602303,111.406575 160.321608,110.554959 L164.868086,104.936211 C165.960583,103.735494 166.712783,102.259988 167.045732,100.664569 C167.477964,99.1670945 167.913139,97.6524673 167.987959,96.0938771 C168.049543,94.8109737 167.865093,93.5299332 167.657788,92.2628687 C167.453727,91.0156248 167.221434,89.7544847 166.67875,88.6164999 C165.691018,86.5452713 163.286194,84.8313297 161.429325,87.017373 Z" id="Path" fill="#6BA4B8" fill-rule="nonzero"></path>
                <circle id="Oval" fill="#2F2E41" fill-rule="nonzero" cx="164.5" cy="53.5" r="9.5"></circle>
                <path d="M172.727017,61.7304441 C170.222427,63.5025147 166.995979,63.9767687 164.0702,63.0029055 C161.144421,62.0290422 158.882021,59.7277919 158,56.8284673 C158.448467,60.3197365 160.864068,63.2676155 164.248277,64.4535541 C167.632487,65.6394927 171.410386,64.8620205 174.020324,62.4425172 C176.630262,60.023014 177.628856,56.3725115 176.60332,53 C177.038455,56.384975 175.5521,59.7326329 172.727017,61.7304441 L172.727017,61.7304441 Z" id="Path" fill="#2F2E41" fill-rule="nonzero"></path>
                <circle id="Oval" fill="#2F2E41" fill-rule="nonzero" cx="155.5" cy="68.5" r="7.5"></circle>
                <ellipse id="Oval" fill="#2F2E41" fill-rule="nonzero" cx="150" cy="65" rx="6" ry="5"></ellipse>
                <ellipse id="Oval" fill="#FBBEBE" fill-rule="nonzero" transform="translate(151.239539, 73.206839) rotate(-39.117550) translate(-151.239539, -73.206839) " cx="151.239539" cy="73.2068389" rx="1.0094497" ry="1.51432671"></ellipse>
                <path d="M145,137.529157 C145,140.843007 142.761619,142 140,142 C139.936031,142 139.872066,141.999188 139.80856,141.997972 C139.680624,141.995542 139.553611,141.990281 139.428438,141.982587 C136.936034,141.827483 135,140.610951 135,137.529157 C135,134.340442 139.630464,130.316279 139.979289,130.017819 L139.979749,130.017413 C139.993096,130.00567 140,130 140,130 C140,130 145,134.215712 145,137.529157 Z" id="Path" fill="#BF0C3F" fill-rule="nonzero"></path>
                <path d="M138.917661,141.494926 L140.662748,139.246158 L138.913269,141.741992 L138.908878,142 C138.786799,141.99757 138.665601,141.992308 138.546159,141.984612 L138.734112,138.668981 L138.732796,138.643061 L138.73587,138.638604 L138.753873,138.325106 L137,135.823207 L138.759136,138.090197 L138.763529,138.156623 L138.905367,135.651471 L137.403993,133.066126 L138.92381,135.212009 L139.071794,130.017822 L139.072233,130 L139.072233,130.017416 L139.047642,134.113144 L140.54243,132.489353 L139.041496,134.465927 L139.001977,136.709019 L140.397958,134.556248 L138.996268,137.039122 L138.974312,138.28623 L141,135.289775 L138.966397,138.721239 L138.917661,141.494926 Z" id="Path" fill="#3F3D56" fill-rule="nonzero"></path>
            </g>
        </g>
    </g>
</svg>