<?xml version="1.0" encoding="UTF-8"?>
<svg width="375px" height="276px" viewBox="0 0 375 276" version="1.1" xmlns="http://www.w3.org/2000/svg" xmlns:xlink="http://www.w3.org/1999/xlink">
    <!-- Generator: Sketch 54 (76480) - https://sketchapp.com -->
    <title>undraw_business_deal_cpi9 (2)</title>
    <desc>Created with Sketch.</desc>
    <defs>
        <linearGradient x1="50.0059443%" y1="100.000891%" x2="50.0059443%" y2="-0.00326906072%" id="linearGradient-1">
            <stop stop-color="#808080" stop-opacity="0.25" offset="0%"></stop>
            <stop stop-color="#808080" stop-opacity="0.12" offset="54%"></stop>
            <stop stop-color="#808080" stop-opacity="0.1" offset="100%"></stop>
        </linearGradient>
    </defs>
    <g id="principal" stroke="none" stroke-width="1" fill="none" fill-rule="evenodd">
        <g id="onboarding_v1" transform="translate(0.000000, -134.000000)">
            <g id="undraw_business_deal_cpi9-(2)" transform="translate(-8.000000, 134.000000)">
                <path d="M275.336613,110.147197 L274.22359,110.147197 L274.22359,110.545268 L274.22359,111.047918 L275.485016,111.047918 L275.336613,110.147197 Z M262.712228,110.147197 C262.71059,110.154983 262.71059,110.163025 262.712228,110.170811 C262.681872,110.417076 262.648144,110.66334 262.614416,110.912978 L262.614416,110.980448 L262.614416,111.047918 L272.260621,111.047918 L272.260621,110.993942 L272.935181,110.147197 L262.712228,110.147197 Z M236.859725,110.147197 L236.859725,81.0778728 L247.956233,81.0778728 C247.838185,81.0002826 247.716765,80.9193189 247.591971,80.8451023 L247.430077,80.7405242 L247.220963,80.6123318 C247.099542,80.5414886 246.978122,80.4706454 246.849955,80.4031757 C246.721789,80.335706 246.644215,80.2884772 246.536285,80.2311279 L246.462083,80.1906461 L246.445219,80.1906461 L236.859725,80.1906461 L236.859725,78.5882405 L236.60002,78.6894451 L236.326823,78.8176375 L236.306586,78.8176375 L236.249249,78.8479989 L236.077236,78.939083 L235.905223,79.0301671 C235.736583,79.1212512 235.567943,79.2224558 235.399304,79.3270338 L235.237409,79.4349853 L234.900129,79.6508884 C234.465038,79.9410082 234.036693,80.2446219 233.594856,80.5279946 C233.483554,80.5988378 233.372252,80.669681 233.257576,80.7337772 C233.018108,80.8754636 232.771893,81.0104031 232.518933,81.1318485 C232.411004,81.1858243 232.306447,81.2330531 232.181654,81.2769084 L231.999522,81.3477516 L231.830882,81.4051009 L231.830882,81.4051009 C231.435195,81.5428434 231.029178,81.6488805 230.616675,81.7222085 L230.616675,110.14045 L213.978659,110.14045 C213.978659,110.174185 214.002268,110.201173 214.012387,110.234908 C214.103452,110.504786 214.194518,110.771292 214.282211,111.041171 L230.640285,111.041171 L230.640285,142.198682 C230.725729,142.198682 230.810049,142.198682 230.893244,142.198682 L231.186678,142.21555 L231.716207,142.245911 L232.56278,142.347116 L232.950652,142.384224 L233.372252,142.428079 L233.436335,142.428079 L234.181723,142.519164 L234.340245,142.539404 L234.701134,142.590007 L235.217172,142.664223 L235.217172,142.664223 L236.45499,142.610248 L236.45499,142.610248 L236.623629,142.640609 C236.691085,142.640609 236.761914,142.66085 236.832743,142.674344 L236.832743,111.047918 L262.580688,111.047918 L262.580688,110.980448 L262.580688,110.912978 C262.614416,110.66334 262.648144,110.417076 262.6785,110.170811 C262.676862,110.163025 262.676862,110.154983 262.6785,110.147197 L236.859725,110.147197 Z M275.336613,110.147197 L274.22359,110.147197 L274.22359,110.545268 L274.22359,111.047918 L275.485016,111.047918 L275.336613,110.147197 Z M262.017431,110.147197 C261.976958,110.447437 261.939857,110.747677 261.899383,111.047918 L272.655238,111.047918 L273.387136,110.147197 L262.017431,110.147197 Z M236.859725,110.147197 L236.859725,81.0778728 L247.956233,81.0778728 C247.838185,81.0002826 247.716765,80.9193189 247.591971,80.8451023 L247.430077,80.7405242 L247.220963,80.6123318 C247.099542,80.5414886 246.978122,80.4706454 246.849955,80.4031757 C246.721789,80.335706 246.644215,80.2884772 246.536285,80.2311279 L246.462083,80.1906461 L246.438474,80.1906461 L236.859725,80.1906461 L236.859725,78.5882405 L236.60002,78.6894451 L236.326823,78.8176375 L236.306586,78.8176375 L236.249249,78.8479989 L236.077236,78.939083 L235.905223,79.0301671 C235.736583,79.1212512 235.567943,79.2224558 235.399304,79.3270338 L235.237409,79.4349853 L234.900129,79.6508884 C234.465038,79.9410082 234.036693,80.2446219 233.594856,80.5279946 C233.483554,80.5988378 233.372252,80.669681 233.257576,80.7337772 C233.018108,80.8754636 232.771893,81.0104031 232.518933,81.1318485 C232.411004,81.1858243 232.306447,81.2330531 232.181654,81.2769084 L231.999522,81.3477516 L231.830882,81.4051009 L231.830882,81.4051009 C231.435195,81.5428434 231.029178,81.6488805 230.616675,81.7222085 L230.616675,110.14045 L213.978659,110.14045 C213.978659,110.174185 214.002268,110.201173 214.012387,110.234908 C214.103452,110.501413 214.197891,110.771292 214.285584,111.041171 L230.640285,111.041171 L230.640285,142.195309 L230.893244,142.195309 L231.186678,142.212176 L231.716207,142.242538 L232.56278,142.347116 L232.950652,142.384224 L233.372252,142.428079 L233.436335,142.428079 L234.181723,142.519164 L234.340245,142.539404 L234.701134,142.590007 L235.217172,142.664223 L235.217172,142.664223 L236.45499,142.610248 L236.45499,142.610248 L236.623629,142.640609 C236.691085,142.640609 236.761914,142.66085 236.832743,142.674344 L236.832743,111.047918 L261.906129,111.047918 C261.946602,110.747677 261.983703,110.447437 262.024177,110.147197 L236.859725,110.147197 Z M321.024545,49.6133738 L391,49.6133738 C391,49.3131336 391,49.0128934 390.979763,48.7160267 L321.024545,48.7160267 L321.024545,13.4226218 C318.946901,13.8724198 316.87263,14.3379608 314.801731,14.8192448 L314.801731,48.7160267 L238.697901,48.7160267 L238.505651,48.5439789 L238.795712,48.2875941 L238.795712,48.2875941 L267.103612,22.8447667 C264.270461,22.9527182 261.438434,22.9774571 258.607532,22.9189834 L236.856353,42.4649581 L236.856353,21.0804338 C234.778709,20.7858161 232.705562,20.4597125 230.636912,20.102123 L230.636912,41.4799004 L198.834793,12.8896111 C194.841399,11.8202162 190.844632,10.7305804 186.84112,9.66793246 L230.090518,48.5439789 L229.898269,48.7160267 L150.502587,48.7160267 L150.502587,2.43180614 C149.443528,2.33285057 148.384469,2.24626444 147.32541,2.17204776 C146.313571,2.09783108 145.301731,2.04385531 144.289892,2 L144.289892,48.7160267 L88.6589494,48.7160267 L88.6589494,12.7108163 C86.55882,13.6733842 84.4856731,14.6955503 82.4395085,15.7773146 L82.4395085,48.7160267 L52.2158591,48.7160267 C52.1416575,49.0128934 52.0640832,49.3131336 52,49.6133738 L82.4395085,49.6133738 L82.4395085,80.1805256 L53.6729082,80.1805256 C53.7572281,80.4807658 53.8449209,80.781006 53.9326137,81.0778728 L82.4395085,81.0778728 L82.4395085,110.147197 L58.3037608,110.147197 C58.2430504,110.446313 58.1789673,110.746553 58.1115113,111.047918 L82.4395085,111.047918 L82.4395085,192.325303 C84.4631877,192.639037 86.5576958,192.858314 88.6589494,193 L88.6589494,111.047918 L144.279773,111.047918 L144.279773,185.780741 C146.367536,185.224116 148.438434,184.64725 150.502587,184.036649 L150.502587,111.047918 L230.640285,111.047918 L230.640285,176.341729 C232.728684,175.88648 234.78761,175.305177 236.805761,174.60101 L236.859725,174.580769 L236.859725,111.047918 L314.801731,111.047918 L314.801731,141.672419 C316.870381,141.368805 318.944652,141.077561 321.024545,140.798686 L321.024545,111.047918 L376.446373,111.047918 C376.628505,110.747677 376.807263,110.447437 376.986021,110.147197 L321.024545,110.147197 L321.024545,81.0778728 L388.190459,81.0778728 C388.261287,80.781006 388.321998,80.4807658 388.386081,80.1805256 L321.024545,80.1805256 L321.024545,49.6133738 Z M88.6589494,49.6133738 L144.279773,49.6133738 L144.279773,80.1805256 L88.6589494,80.1805256 L88.6589494,49.6133738 Z M88.6589494,110.147197 L88.6589494,81.0778728 L144.279773,81.0778728 L144.279773,110.147197 L88.6589494,110.147197 Z M150.502587,49.6133738 L230.640285,49.6133738 L230.640285,80.1805256 L150.502587,80.1805256 L150.502587,49.6133738 Z M150.502587,110.147197 L150.502587,81.0778728 L230.640285,81.0778728 L230.640285,110.147197 L150.502587,110.147197 Z M314.801731,110.147197 L236.859725,110.147197 L236.859725,81.0778728 L314.801731,81.0778728 L314.801731,110.147197 Z M314.801731,80.1805256 L236.859725,80.1805256 L236.859725,50.4331308 L237.952512,49.6133738 L314.801731,49.6133738 L314.801731,80.1805256 Z M262.712228,110.147197 C262.71059,110.154983 262.71059,110.163025 262.712228,110.170811 C262.681872,110.417076 262.648144,110.66334 262.614416,110.912978 L262.614416,110.980448 L262.614416,111.047918 L272.260621,111.047918 L272.260621,110.993942 L272.935181,110.147197 L262.712228,110.147197 Z M275.336613,110.147197 L274.22359,110.147197 L274.22359,110.545268 L274.22359,111.047918 L275.485016,111.047918 L275.336613,110.147197 Z M236.859725,110.147197 L236.859725,81.0778728 L247.956233,81.0778728 C247.838185,81.0002826 247.716765,80.9193189 247.591971,80.8451023 L247.430077,80.7405242 L247.220963,80.6123318 C247.099542,80.5414886 246.978122,80.4706454 246.849955,80.4031757 C246.721789,80.335706 246.644215,80.2884772 246.536285,80.2311279 L246.462083,80.1906461 L246.445219,80.1906461 L236.859725,80.1906461 L236.859725,78.5882405 L236.60002,78.6894451 L236.326823,78.8176375 L236.306586,78.8176375 L236.249249,78.8479989 L236.077236,78.939083 L235.905223,79.0301671 C235.736583,79.1212512 235.567943,79.2224558 235.399304,79.3270338 L235.237409,79.4349853 L234.900129,79.6508884 C234.465038,79.9410082 234.036693,80.2446219 233.594856,80.5279946 C233.483554,80.5988378 233.372252,80.669681 233.257576,80.7337772 C233.018108,80.8754636 232.771893,81.0104031 232.518933,81.1318485 C232.411004,81.1858243 232.306447,81.2330531 232.181654,81.2769084 L231.999522,81.3477516 L231.830882,81.4051009 L231.830882,81.4051009 C231.435195,81.5428434 231.029178,81.6488805 230.616675,81.7222085 L230.616675,110.14045 L213.978659,110.14045 C213.978659,110.174185 214.002268,110.201173 214.012387,110.234908 C214.103452,110.504786 214.194518,110.771292 214.282211,111.041171 L230.640285,111.041171 L230.640285,142.198682 C230.725729,142.198682 230.810049,142.198682 230.893244,142.198682 L231.186678,142.21555 L231.716207,142.245911 L232.56278,142.347116 L232.950652,142.384224 L233.372252,142.428079 L233.436335,142.428079 L234.181723,142.519164 L234.340245,142.539404 L234.701134,142.590007 L235.217172,142.664223 L235.217172,142.664223 L236.45499,142.610248 L236.45499,142.610248 L236.623629,142.640609 C236.691085,142.640609 236.761914,142.66085 236.832743,142.674344 L236.832743,111.047918 L262.580688,111.047918 L262.580688,110.980448 L262.580688,110.912978 C262.614416,110.66334 262.648144,110.417076 262.6785,110.170811 C262.676862,110.163025 262.676862,110.154983 262.6785,110.147197 L236.859725,110.147197 Z" id="Shape" fill="#B3143C" fill-rule="nonzero" opacity="0.1"></path>
                <path d="M116.041915,29.0977801 L116.520594,29.0977801 C116.199404,28.9475953 115.975786,28.6185215 115.934798,28.2357294 L115.934798,28.2357294 C115.934798,27.5549683 116.855334,27 117.980061,27 L132.293553,27 C133.41828,27 134.335468,27.5549683 134.335468,28.2357294 L134.335468,28.2357294 C134.335468,28.9127907 133.41828,29.4714588 132.293553,29.4714588 L131.814874,29.4714588 C132.136451,29.619093 132.360576,29.9474974 132.400669,30.3298097 C132.400669,30.9106765 131.731189,31.3990486 130.837433,31.5285412 L134.958085,31.5285412 C136.079464,31.5285412 137,32.0835095 137,32.7642706 C137,33.4450317 136.079464,34 134.958085,34 L120.641246,34 C119.519866,34 118.599331,33.4413319 118.599331,32.7642706 C118.599331,32.1834038 119.268811,31.6987315 120.162567,31.5655391 L116.041915,31.5655391 C114.917188,31.5655391 114,31.0105708 114,30.3298097 C114,29.6490486 114.917188,29.0977801 116.041915,29.0977801 Z" id="Path" fill="#B3143C" opacity="0.1"></path>
                <path d="M271.041915,40.0977801 L271.520594,40.0977801 C271.200705,39.9465566 270.978499,39.617681 270.938146,39.2357294 L270.938146,39.2357294 C270.938146,38.5549683 271.855334,38 272.980061,38 L287.293553,38 C288.41828,38 289.338815,38.5549683 289.338815,39.2357294 L289.338815,39.2357294 C289.338815,39.9127907 288.41828,40.467759 287.293553,40.467759 L286.818222,40.467759 C287.138111,40.6189825 287.360317,40.9478581 287.400669,41.3298097 C287.400669,41.9106765 286.731189,42.3990486 285.837433,42.5285412 L289.958085,42.5285412 C291.082812,42.5285412 292,43.0835095 292,43.7642706 C292,44.4450317 291.082812,45 289.958085,45 L275.644593,45 C274.519866,45 273.599331,44.4413319 273.599331,43.7642706 C273.599331,43.1834038 274.268811,42.6950317 275.162567,42.5655391 L271.041915,42.5655391 C269.920536,42.5655391 269,42.0105708 269,41.3298097 C269,40.6490486 269.920536,40.0977801 271.041915,40.0977801 Z" id="Path" fill="#B3143C" opacity="0.1"></path>
                <path d="M93.0449651,85.0977801 L93.520227,85.0977801 C93.1999376,84.9471849 92.9775389,84.6179763 92.9378638,84.2357294 L92.9378638,84.2357294 C92.9378638,83.5586681 93.8582654,83 94.979482,83 L109.294237,83 C110.415454,83 111.335856,83.5586681 111.335856,84.2357294 L111.335856,84.2357294 C111.335856,84.9164905 110.415454,85.4714588 109.294237,85.4714588 L108.815629,85.4714588 C109.13631,85.6195015 109.359217,85.9480454 109.397992,86.3298097 C109.397992,86.9106765 108.728609,87.3990486 107.834983,87.5285412 L111.955035,87.5285412 C113.079598,87.5285412 114,88.0872093 114,88.7642706 C114,89.4413319 113.079598,90 111.955035,90 L97.657014,90 C96.5324505,90 95.6153958,89.4450317 95.6153958,88.7642706 C95.6153958,88.1871036 96.2847788,87.6987315 97.1784051,87.5655391 L93.0449651,87.5655391 C91.9204016,87.5655391 91,87.0105708 91,86.3298097 C91,85.6490486 91.9337893,85.0977801 93.0449651,85.0977801 Z" id="Path" fill="#B3143C" opacity="0.1"></path>
                <ellipse id="Oval" fill="#474847" opacity="0.1" transform="translate(294.139000, 190.812908) rotate(-78.450000) translate(-294.139000, -190.812908) " cx="294.139" cy="190.812908" rx="21.8435458" ry="72.0015913"></ellipse>
                <path d="M287,130.136003 C287,130.136003 290.750412,111.375831 305.069269,113.113693 C305.069269,113.113693 314.964816,113.806149 317,120.408008 L317,135 L287,130.136003 Z" id="Path" fill="#3A3768"></path>
                <polygon id="Path" fill="#4D4F51" points="236.605667 126 220 129.484933 221.037645 152.824544 222.169013 152.962728 223.457701 188.010904 350.42863 211 363.92471 199.503767 363.92471 161.509913 365.651887 160.488699 366 136.801943"></polygon>
                <polygon id="Path" fill="#000000" opacity="0.05" points="366 137 365.664671 160.447509 352.167665 167 352 142.514902"></polygon>
                <polygon id="Path" fill="#000000" opacity="0.05" points="364.822873 160 365 197.450073 351 209 351.899529 165.60058"></polygon>
                <polygon id="Path" fill="#000000" opacity="0.05" points="222.097524 154.181908 351.932742 170 352 166.998222 222 153"></polygon>
                <polygon id="Path" fill="#000000" opacity="0.05" points="364 162.414087 364 161 351 166.879257 351 170"></polygon>
                <polygon id="Path" fill="#828383" points="220 129.405517 236.605667 126 366 136.555784 351.469623 142"></polygon>
                <polygon id="Path" fill="#000000" opacity="0.1" points="351.603372 138 358 138.349296 347.398525 141 342 140.676056"></polygon>
                <polygon id="Path" fill="#FFFFFF" points="351.603372 137 358 137.348968 347.398525 140 342 139.673546"></polygon>
                <path d="M352,137.839559 C352.231839,137.731963 352.476043,137.937068 352.723338,137.987503 C352.865533,138.017765 353.010819,137.987503 353.153014,138.017765 C353.440495,138.058113 353.724884,138.26658 354,138.162347" id="Path" fill="#D3DAE1"></path>
                <path d="M351,137.839739 C351.228748,137.732143 351.476043,137.933885 351.723338,137.987683 C351.865533,138.014582 352.010819,137.987683 352.153014,138.014582 C352.440495,138.058293 352.724884,138.26676 353,138.162526" id="Path" fill="#D3DAE1"></path>
                <path d="M351,137.840619 C351.231839,137.733023 351.479134,137.934765 351.72643,137.985201 C351.865533,138.015462 352.01391,137.985201 352.153014,138.015462 C352.443586,138.059173 352.727975,138.26764 353,138.160044" id="Path" fill="#D3DAE1"></path>
                <polygon id="Path" fill="#000000" opacity="0.1" points="324.603372 135 331 135.351782 320.398525 138 315 137.673546"></polygon>
                <polygon id="Path" fill="#FFFFFF" points="324.603372 134 331 134.349296 320.398525 137 315 136.676056"></polygon>
                <path d="M324,134.839739 C324.231839,134.732143 324.476043,134.933885 324.723338,134.987683 C324.865533,135.014582 325.010819,134.987683 325.153014,135.014582 C325.440495,135.058293 325.724884,135.26676 326,135.162526" id="Path" fill="#D3DAE1"></path>
                <path d="M324,134.840619 C324.228748,134.733023 324.476043,134.934765 324.723338,134.985201 C324.865533,135.015462 325.010819,134.985201 325.153014,135.015462 C325.440495,135.059173 325.724884,135.26764 326,135.160044" id="Path" fill="#D3DAE1"></path>
                <path d="M323,135.838918 C323.231839,135.731322 323.479134,135.936426 323.72643,135.986862 C323.865533,136.017123 324.01391,135.986862 324.153014,136.017123 C324.443586,136.057472 324.727975,136.269301 325,136.161705" id="Path" fill="#D3DAE1"></path>
                <polygon id="Path" fill="#000000" opacity="0.1" points="337.601349 136 344 136.348968 333.400759 139 328 138.673546"></polygon>
                <polygon id="Path" fill="#FFFFFF" points="337.601349 136 344 136.349296 333.400759 139 328 138.673239"></polygon>
                <path d="M337,135.84078 C337.231839,135.733184 337.479134,135.934927 337.72643,135.985362 C337.865533,136.015623 338.010819,135.985362 338.153014,136.015623 C338.440495,136.055972 338.727975,136.267801 339,136.160205" id="Path" fill="#D3DAE1"></path>
                <path d="M337,136.838918 C337.231839,136.731322 337.479134,136.936426 337.72643,136.986862 C337.865533,137.017123 338.010819,136.986862 338.153014,137.017123 C338.440495,137.057472 338.727975,137.269301 339,137.161705" id="Path" fill="#D3DAE1"></path>
                <path d="M336,136.839739 C336.228748,136.732143 336.476043,136.933885 336.723338,136.987683 C336.865533,137.014582 337.010819,136.987683 337.153014,137.014582 C337.440495,137.058293 337.724884,137.26676 338,137.162526" id="Path" fill="#D3DAE1"></path>
                <ellipse id="Oval" fill="#474847" opacity="0.1" cx="193.5" cy="252" rx="68.5" ry="14"></ellipse>
                <path d="M267.797162,137.35598 C267.071757,130.969617 264.200361,124.87599 264.200361,124.87599 L264.418654,122.722527 C264.418654,122.722527 264.465671,121.645796 264.395146,120.030699 C264.402853,119.022313 264.534828,118.018741 264.788074,117.042769 C265.375786,115.175313 264.052593,112.88053 263.904826,112.668548 C263.757058,112.456567 263.978709,108.361623 262.655516,106.352846 C261.332324,104.344069 252.519993,100.609157 252.519993,100.609157 C252.519993,100.609157 252.046465,99.6165448 251.378152,98.4556938 L251.438602,98.3379263 C250.891819,97.3441196 250.214068,96.4285364 249.423588,95.6158148 C248.882892,95.0370716 248.362347,94.7073227 247.942552,94.8688324 C247.771813,94.3103379 247.641617,93.7402017 247.552982,93.1628861 C247.6403,93.1864396 247.730975,93.2099931 247.818293,93.226817 C248.182024,93.3113416 248.559159,93.3205017 248.926551,93.2537353 C249.74599,93.0686721 250.290044,92.331784 250.746781,91.6386382 C253.023747,88.1729091 254.985028,84.3707014 255.384672,80.2690278 C255.492082,79.43186 255.4523,78.5823123 255.26713,77.7588977 C255.078227,77.118734 254.814445,76.5031921 254.481274,75.9250896 C253.892648,74.7389322 253.147094,73.6377013 252.264758,72.6511532 C250.696405,70.9956787 248.533623,69.9828783 246.31039,69.3839464 C243.805799,68.7091227 241.196598,68.5139143 238.619751,68.8085681 C237.94808,68.8859582 237.276408,68.9969961 236.604737,69.0407383 C235.75274,69.0783407 234.899245,69.0637327 234.049027,68.9969961 L229.652937,68.7412724 L229.632786,68.6739767 L228.900665,68.6302345 C228.611846,69.2056128 228.900665,69.8886643 229.260009,70.42703 C229.619353,70.9653957 230.032431,71.5273148 230.002206,72.1632593 C229.971981,72.7992038 229.511886,73.3106512 229.152541,73.8456521 C228.793197,74.380653 228.52117,75.0805284 228.880514,75.605435 C228.93105,75.678024 228.990894,75.7436391 229.058507,75.8005925 C229.438002,76.1942724 230.099598,76.2380146 230.673877,76.2312851 L230.774628,76.2312851 C229.32837,78.1397058 228.546255,80.4704484 228.548037,82.8666422 C228.567887,87.041098 230.911882,90.8552715 234.623306,92.7523822 C234.687115,92.9710933 234.750923,93.1965339 234.811374,93.4253394 C235.477099,95.788776 235.715937,98.2523856 235.516629,100.700006 L235.439387,100.868245 L235.39237,100.689911 C235.39237,100.689911 230.213782,104.209477 228.675655,105.141523 C227.137527,106.073568 225.592682,109.233102 225.518798,110.094487 C225.444915,110.955872 223.02018,123.947309 223.02018,123.947309 C222.527414,125.256033 222.121291,126.595879 221.804455,127.958134 L218.711408,130.680245 C218.711408,130.680245 212.330528,131.255624 210.483432,130.824931 L210.537165,131.181598 C208.908293,130.80905 207.249317,130.583827 205.580229,130.508641 C204.668653,130.39123 203.742282,130.515369 202.893543,130.868673 L202.829735,130.898956 L202.779359,130.92251 C201.806982,131.055662 200.857652,131.322889 199.958339,131.716599 C199.850871,131.760341 199.753479,131.804084 199.659445,131.847826 L199.679595,131.407039 L192.774812,131.050372 L189.248537,130.333672 C189.248537,130.333672 187.999228,129.324237 187.263747,129.472287 C186.528267,129.620338 184.986781,128.610902 184.986781,128.610902 C184.63512,128.334794 184.254503,128.097863 183.851656,127.904297 C183.734113,127.090019 183.66023,126.595396 183.66023,126.595396 C183.66023,126.595396 180.916451,115.686761 178.861137,109.273479 C177.48421,104.990107 175.502779,102.880387 174.334071,101.9618 C173.813525,101.053308 173.470973,100.467836 173.470973,100.467836 C173.245963,99.6804757 172.010087,97.9072337 171.694402,97.8634915 C171.644026,97.7827367 171.607084,97.7423592 171.586934,97.7423592 C171.519384,97.7351221 171.451115,97.745556 171.388791,97.7726423 C170.811154,94.8923859 170.475318,91.2819709 171.358566,88.1358964 C173.806649,86.1201412 175.227987,83.1140716 175.23411,79.9392788 C175.23411,79.8921718 175.23411,79.8450648 175.23411,79.7979578 C175.23411,79.7508508 175.23411,79.700379 175.23411,79.653272 C175.233428,77.1526625 174.349492,74.7329782 172.738851,72.8227573 L172.624667,72.6948954 C172.655227,72.6732061 172.684391,72.6496057 172.711984,72.6242349 C173.226097,72.2064469 173.469862,71.5396557 173.346713,70.8880056 C173.195587,70.2419668 172.691834,69.7338841 172.43324,69.1214932 C172.277925,68.6500627 172.153403,68.169003 172.060463,67.6813649 C171.862582,66.9887625 171.499517,66.3547817 171.00258,65.8340977 L171.052955,65.9686891 C169.736479,64.4848186 167.472946,63.7479306 165.434423,64.0776796 C163.919804,64.3199442 162.509294,65.0265491 160.987958,65.2452602 C159.896491,65.4000403 158.784875,65.2990968 157.686692,65.4101347 C156.667787,65.5151062 155.675927,65.8022934 154.758204,66.2580606 C154.518479,66.3602442 154.305772,66.5169117 154.136908,66.7156715 C153.980712,66.9819617 153.8759,67.2753113 153.827939,67.5804214 C153.455162,68.9431595 152.27302,69.9155826 151.416639,71.0528801 C150.438392,72.3522323 149.872124,73.915966 149.791193,75.541504 C149.757751,75.9546281 149.797546,76.3704221 149.908736,76.7696508 C149.98262,77.0085505 150.096804,77.2339912 150.150538,77.4762557 C150.318456,78.2165086 149.932244,78.9533966 149.744176,79.6869199 C149.507265,80.622649 149.591246,81.6110114 149.98262,82.493151 C151.309171,85.4676215 155.664961,86.4602332 156.571717,89.5827542 C157.265487,89.9022774 157.998354,90.1285547 158.751291,90.2557113 C158.811742,90.5652716 158.865476,90.8781967 158.909134,91.1944865 C158.888708,91.2031356 158.869512,91.2144493 158.852042,91.2281344 C157.676617,92.3755263 157.38444,94.5929199 157.38444,94.5929199 L157.243389,94.7073227 C156.763144,95.1043674 155.120907,96.4368224 153.636513,97.463082 C151.873375,98.6844992 148.934812,102.776078 146.879497,103.997496 C144.824183,105.218913 143.13157,112.745938 143.574874,115.481509 C144.018177,118.217079 145.85184,125.888791 145.11636,128.688292 C144.380879,131.487794 146.217901,144.263885 146.217901,144.263885 C147.450626,144.499122 148.656709,144.857581 149.81806,145.333886 L149.781118,145.892441 L149.670293,147.574834 C149.670293,147.574834 146.34216,159.634225 147.614978,168.917668 C148.887795,178.201112 147.027265,179.156711 147.027265,179.156711 C147.027265,179.156711 147.416835,183.271844 146.439553,184.708607 C145.462271,186.145371 145.264127,189.301539 145.264127,189.301539 C145.264127,189.301539 145.166735,196.384413 145.36152,198.386461 C145.556305,200.388508 145.653697,204.035935 144.968592,204.897321 C144.283487,205.758706 143.01067,211.401451 143.108062,213.124221 C143.205454,214.846992 140.659819,218.773696 142.030029,223.844428 C143.400239,228.91516 138,229.012739 138,229.012739 C138,229.012739 138.688463,236.751746 140.156066,238.965775 L140.371,239.282064 C140.334059,239.409926 140.297117,239.544518 140.256816,239.689203 C139.702687,241.708075 138.943698,244.894527 139.470961,245.665063 C140.253458,246.815819 140.646386,246.620662 140.646386,246.620662 L140.938563,251.788972 C140.938563,251.788972 146.815689,256.76549 151.322605,256.577062 C155.82952,256.388634 154.946272,251.788972 154.946272,251.788972 L151.10767,241.815748 L150.976694,241.479269 L155.241808,233.403784 C155.241808,233.403784 156.417233,229.86403 156.70941,228.619059 C157.001587,227.374088 158.596807,222.962854 158.596807,222.962854 C158.596807,222.962854 162.626836,213.393404 162.710795,212.242647 C162.794754,211.091891 163.103723,204.877132 163.88622,203.628796 C164.668718,202.380461 166.824783,195.216832 166.824783,195.216832 L166.878517,195.263939 C167.623756,195.997532 167.905184,197.082715 167.610639,198.086995 C167.11696,199.903979 167.412496,203.635526 167.412496,203.635526 C167.412496,203.635526 167.217711,206.79506 166.824783,208.423616 C166.431855,210.052172 166.337821,223.353169 167.022926,226.509338 C167.570338,229.036292 167.553547,233.767181 167.52668,235.557247 C167.066585,237.458351 166.663582,239.82043 167.412496,240.099707 C168.688672,240.580872 175.15351,240.483293 175.15351,240.483293 C175.15351,240.483293 177.89393,239.524329 181.618348,242.875655 C185.342767,246.226982 196.798124,241.920056 196.798124,241.920056 C196.798124,241.920056 200.3244,240.961092 193.369241,238.188509 C188.516415,236.253757 185.383067,234.965044 183.334469,233.585482 C183.381486,233.494633 183.431861,233.403784 183.47552,233.306205 C183.47552,233.306205 180.634349,230.614377 182.9852,225.843111 C185.33605,221.071845 185.238658,217.037467 185.238658,217.037467 L185.631585,200.957157 L184.45616,179.610957 L183.546045,157.208215 L183.707247,157.154378 C183.861731,161.272876 184.664379,171.077861 188.865684,169.176757 C194.155097,166.784394 189.648181,160.562906 189.648181,160.562906 L187.273822,155.926231 L187.982436,155.683967 L185.325975,147.083575 C185.071045,145.405033 185.037172,143.700221 185.225224,142.012843 C185.277808,141.025693 185.257603,140.036001 185.164774,139.051832 C188.644032,138.442806 191.975523,137.796767 192.573311,137.944817 C193.278566,138.116421 197.224636,138.150069 198.776197,138.156799 C198.269085,138.553843 197.862724,138.947523 197.862724,138.947523 L204.179794,143.207342 C204.179794,143.207342 206.322427,142.033032 206.769088,140.788061 C207.208618,140.67666 207.614393,140.459525 207.95123,140.155481 C208.018397,141.625893 208.407967,143.217436 209.764743,143.254449 C210.104064,143.261569 210.4409,143.194991 210.7521,143.059291 L221.082408,141.010137 L220.195802,146.558668 L220.813739,147.658953 C220.501412,152.33937 220.142068,157.309158 219.826382,161.680015 L219.681973,162.635614 L219.755857,162.652438 C219.265537,169.382009 218.872609,174.479659 218.872609,174.479659 C219.451233,173.375001 220.348946,172.470879 221.448469,171.885409 L221.515636,181.872093 C221.515636,181.872093 222.032823,197.663032 222.032823,199.816494 C222.032823,201.969957 222.103349,206.778236 222.103349,206.778236 C222.103349,206.778236 223.208248,212.663246 223.866486,214.601362 C224.524725,216.539479 225.041912,225.368676 225.041912,225.368676 C225.041912,225.368676 226.586756,227.808146 225.92516,228.733462 C225.263563,229.658778 228.497662,231.674284 228.497662,231.674284 C228.497662,231.674284 226.438988,234.473786 226.291221,236.341242 C226.274429,236.556588 226.486005,236.785393 226.868858,237.014199 C226.747957,237.111778 226.623698,237.209356 226.486005,237.30357 C225.532232,237.94288 224.135155,238.387031 222.032823,238.205333 C216.300107,237.700615 212.260003,243.013612 215.786278,244.090343 C219.312554,245.167074 229.89138,245.382421 229.89138,245.382421 C229.89138,245.382421 233.095253,243.380373 235.600588,244.282136 C235.563646,246.388491 235.667755,248.319878 235.684547,248.575602 L235.654322,248.599156 C234.156494,249.94507 231.288457,252.260042 228.487587,253.205547 C224.457557,254.568285 223.564234,260.096628 228.779764,260.813327 C233.995293,261.530027 241.635556,259.951942 241.635556,259.951942 C241.635556,259.951942 245.601777,257.01112 248.614223,256.365081 C251.62667,255.719042 254.199172,254.282278 253.685343,252.559508 C253.349508,251.459223 252.48641,248.575602 251.902056,246.637486 C251.868472,246.52084 251.834888,246.40868 251.801305,246.301007 C251.89198,246.09912 251.982656,245.890503 252.066615,245.675157 C252.066615,245.675157 250.525129,237.636684 251.774438,235.627907 C253.023747,233.61913 252.362151,213.517901 252.362151,213.517901 C252.362151,213.517901 250.229593,208.423616 251.334493,205.338107 C252.439393,202.252599 249.571355,197.871648 249.571355,197.871648 C249.571355,197.871648 249.883683,189.092923 250.723272,184.200525 C250.761333,183.991908 250.798275,183.790021 250.834098,183.594863 C252.239801,183.176831 253.609897,182.646871 254.931294,182.010049 C254.931294,182.010049 255.666774,170.953364 256.106719,168.443234 C256.150378,168.207699 256.210828,167.827478 256.284712,167.332854 L256.620548,165.559612 L256.620548,165.559612 L257.016834,163.540741 L257.016834,163.540741 L258.360177,156.659755 L260.784911,153.517045 L267.031456,147.123952 C267.031456,147.123952 268.532642,143.745708 267.797162,137.35598 Z M171.466033,97.8769507 L171.419016,97.9105985 C171.411827,97.8863134 171.406217,97.8615863 171.402224,97.8365732 C171.421727,97.8526505 171.443163,97.8662153 171.466033,97.8769507 L171.466033,97.8769507 Z M233.18257,105.713536 L232.940769,106.241808 L233.824017,105.360234 L232.625083,106.706148 L233.028086,105.858222 L233.18257,105.713536 Z M227.218127,118.062299 C226.986401,118.678055 226.737882,119.344283 226.479289,120.037428 L226.952817,118.620854 L227.218127,118.062299 Z" id="Shape" fill="url(#linearGradient-1)" fill-rule="nonzero"></path>
                <path d="M208.111668,137.205803 C208.111668,137.205803 207.413742,142.925459 209.507521,142.999103 C211.601299,143.072747 213,138.587498 213,138.587498 L212.145397,135 L208.111668,137.205803 Z" id="Path" fill="#196690"></path>
                <path d="M208.111668,137.205803 C208.111668,137.205803 207.413742,142.925459 209.507521,142.999103 C211.601299,143.072747 213,138.587498 213,138.587498 L212.145397,135 L208.111668,137.205803 Z" id="Path" fill="#196690" opacity="0.2"></path>
                <path d="M151.478334,256.994756 C147.178497,257.180739 141.5703,252.35821 141.5703,252.35821 L141.290876,247.349697 C141.290876,247.349697 140.919407,247.535681 140.169894,246.423041 C139.666931,245.675842 140.390145,242.579374 140.919407,240.631437 C141.175819,239.678678 141.386209,239 141.386209,239 L150.820867,241.505888 L151.271232,242.690312 L154.933326,252.354947 C154.933326,252.354947 155.774884,256.808772 151.478334,256.994756 Z" id="Path" fill="#474847"></path>
                <path d="M196.123683,241.805175 C196.123683,241.805175 184.919249,246.039549 181.296763,242.745411 C177.674277,239.451274 174.975104,240.39151 174.975104,240.39151 C174.975104,240.39151 168.653444,240.48752 167.406635,240.014091 C166.672029,239.739304 167.06966,237.385403 167.527946,235.511552 C167.837964,234.217071 168.174939,233.147718 168.174939,233.147718 C168.174939,233.147718 179.187297,229.476162 180.912611,231.734053 C181.430834,232.397452 182.050321,232.978162 182.749128,233.455612 C184.744022,234.872588 187.861045,236.157136 192.790996,238.133619 C199.570942,240.861628 196.123683,241.805175 196.123683,241.805175 Z" id="Path" fill="#474847"></path>
                <path d="M185.926625,155 L189.154996,161.133348 C189.154996,161.133348 193.800441,167.364479 188.348791,169.758474 C182.897141,172.152469 183.000137,155.96097 183.000137,155.96097 L185.926625,155 Z" id="Path" fill="#FFD6D6"></path>
                <path d="M174,102 C174,102 177.289256,103.527212 179.26281,109.918005 C181.236364,116.308799 183.867769,127.187245 183.867769,127.187245 C183.867769,127.187245 185.652893,139.492208 185.368595,142.546632 C185.187713,144.228837 185.219931,145.927646 185.464463,147.601534 L188,156.187485 L182.92562,158 L175.127273,127.66387 L174,102 Z" id="Path" fill="#DCE6F2"></path>
                <path d="M174,102 C174,102 177.289256,103.527212 179.26281,109.918005 C181.236364,116.308799 183.867769,127.187245 183.867769,127.187245 C183.867769,127.187245 185.652893,139.492208 185.368595,142.546632 C185.187713,144.228837 185.219931,145.927646 185.464463,147.601534 L188,156.187485 L182.92562,158 L175.127273,127.66387 L174,102 Z" id="Path" fill="#000000" opacity="0.05"></path>
                <path d="M151.521891,241.406039 L152,242.54475 L151.413706,243.551711 C149.131345,244.442604 143.477792,243.730517 143.477792,243.730517 C143.477792,243.730517 142.430838,242.53534 141,240.568474 C141.272208,239.652485 141.495558,239 141.495558,239 L151.521891,241.406039 Z" id="Path" fill="#000000" opacity="0.1"></path>
                <path d="M183,234.267725 C180.314255,241.275413 171.184665,238.674583 168.647948,237.797689 C168.230022,237.652162 168,237.555144 168,237.555144 C168,237.555144 168.016199,236.98423 168.022678,236.084947 C168.320734,234.625945 168.644708,233.420682 168.644708,233.420682 C168.644708,233.420682 179.232181,229.282489 180.890929,231.827348 C181.389157,232.575061 181.984743,233.229576 182.656587,233.767709 C182.757984,233.945759 182.872906,234.113088 183,234.267725 Z" id="Path" fill="#000000" opacity="0.1"></path>
                <path d="M183.37453,226.111158 C181.055137,230.878123 183.860854,233.553666 183.860854,233.553666 C181.041534,239.854789 171.457887,237.518305 168.795007,236.726048 C168.356295,236.598482 168.114834,236.511199 168.114834,236.511199 C168.114834,236.511199 168.308683,229.92473 167.63191,226.775847 C166.955137,223.626965 167.050362,210.366744 167.438061,208.745305 C167.82576,207.123865 168.016208,203.971625 168.016208,203.971625 C168.016208,203.971625 167.727135,200.252049 168.210058,198.43926 C168.506003,197.441887 168.229895,196.364548 167.489074,195.626079 L167.438061,195.575724 C167.438061,195.575724 165.312518,202.732886 164.53712,203.968268 C163.761722,205.203651 163.476049,211.410777 163.377424,212.55552 C163.278799,213.700263 159.316787,223.244265 159.316787,223.244265 C159.316787,223.244265 157.772793,227.631887 157.483719,228.870627 C157.194645,230.109366 156.031548,233.644306 156.031548,233.644306 L151.372359,242.520261 C149.148191,243.473654 143.638784,242.711611 143.638784,242.711611 C143.638784,242.711611 142.577713,241.368804 141.125543,239.180028 C139.673372,236.991253 139,229.260041 139,229.260041 C139,229.260041 144.315557,229.162687 142.962012,224.107018 C141.608466,219.051349 144.121708,215.137067 144.026483,213.418273 C143.931259,211.69948 145.186179,206.073118 145.862952,205.213722 C146.539725,204.354325 146.4411,200.728746 146.24725,198.724606 C146.053401,196.720467 146.152026,189.660658 146.152026,189.660658 C146.152026,189.660658 146.345876,186.511775 147.311722,185.081686 C148.277569,183.651596 147.893271,179.545963 147.893271,179.545963 C147.893271,179.545963 149.726339,178.59257 148.471418,169.337272 C147.216498,160.081974 150.511939,148.060493 150.511939,148.060493 L150.624168,146.381984 L150.801013,143.6628 C150.801013,143.6628 178.446671,141.944006 180.670839,144.042143 C181.252206,144.624485 181.729413,145.299851 182.0822,146.039568 C182.843141,147.654284 183.380757,149.362634 183.680608,151.118736 L184.840304,180.029374 L186,201.306153 L185.612301,217.335913 C185.612301,217.335913 185.697323,221.337479 183.37453,226.111158 Z" id="Path" fill="#196690"></path>
                <path d="M175,169 L172.114745,231.319278 L168.651085,237 C168.214746,236.871813 167.974589,236.784106 167.974589,236.784106 C167.974589,236.784106 168.167391,230.165592 167.494277,227.001389 C166.821164,223.837186 166.915873,210.512452 167.301476,208.883123 C167.687079,207.253795 167.876498,204.086219 167.876498,204.086219 C167.876498,204.086219 167.588987,200.348546 168.069299,198.526937 C168.363644,197.524712 168.089028,196.442132 167.352213,195.700069 L167.399568,195.362734 L175,169 Z" id="Path" fill="#000000" opacity="0.1"></path>
                <path d="M144.190808,235.712537 C144.190808,235.712537 151.744769,233.410221 152.906655,234.144558 C154.068541,234.878895 144,236 144,236 L144.190808,235.712537 Z" id="Path" fill="#000000" opacity="0.1"></path>
                <path d="M181,228 C180.711017,228.113505 173.367449,231.131182 174.044009,234.340643 C174.720569,237.550104 181,228 181,228 Z" id="Path" fill="#000000" opacity="0.1"></path>
                <path d="M159,86.5927085 C159,86.5927085 161.350317,92.5895444 160.106986,95.6634374 C158.863656,98.7373305 173.530415,104 173.530415,104 C173.530415,104 169.24206,92.2979363 173.39407,85.7144533 C177.546081,79.1309704 159,86.5927085 159,86.5927085 Z" id="Path" fill="#FFD6D6"></path>
                <path d="M246.971343,256.442094 C244.02179,257.077399 240.137425,259.969357 240.137425,259.969357 C240.137425,259.969357 232.655551,261.52122 227.546142,260.816429 C222.436734,260.111638 223.304051,254.678463 227.259286,253.338368 C230.002978,252.411883 232.814165,250.125449 234.282192,248.815134 C234.930148,248.229463 235.314873,247.822472 235.314873,247.822472 L249.63404,245 C249.63404,245 249.866899,245.784204 250.190878,246.866206 C250.764589,248.775428 251.611658,251.607826 251.935636,252.68652 C252.438477,254.397209 249.920896,255.80679 246.971343,256.442094 Z" id="Path" fill="#474847"></path>
                <path d="M243,245.854627 C243,245.854627 237.114393,246.501458 234.662878,245.066302 C232.211363,243.631147 228.70826,245.928743 228.70826,245.928743 C228.70826,245.928743 218.619587,245.713133 215.257791,244.635082 C211.895995,243.557031 215.747437,238.234153 221.212409,238.746228 C223.203854,238.931518 224.551201,238.483453 225.461482,237.84336 C226.412366,237.175201 227.075105,236.156679 227.31162,235 L239.141986,235.717578 L240.785093,240.016307 L243,245.854627 Z" id="Path" fill="#474847"></path>
                <path d="M242,242 C242,242 227.810937,239.688073 226,237.852728 C226.981282,237.182367 227.665208,236.16049 227.909284,235 L240.117847,235.719942 L241.81348,240.032834 L242,242 Z" id="Path" fill="#000000" opacity="0.1"></path>
                <path d="M220,161.933164 L220.145575,182.971469 C220.145575,182.971469 220.650008,198.771253 220.650008,200.9273 C220.650008,203.083347 220.721103,207.890659 220.721103,207.890659 C220.721103,207.890659 221.804449,213.779363 222.454458,215.719805 C223.104466,217.660248 223.608899,226.500042 223.608899,226.500042 C223.608899,226.500042 225.125584,228.942439 224.475576,229.868865 C223.825568,230.795292 227.001128,232.813217 227.001128,232.813217 C227.001128,232.813217 224.969853,235.616079 224.83782,237.482407 C224.705788,239.348736 241,242 241,242 L234.652265,177.227624 L229.597775,161 L220,161.933164 Z" id="Path" fill="#474847"></path>
                <path d="M220,161.933164 L220.145575,182.971469 C220.145575,182.971469 220.650008,198.771253 220.650008,200.9273 C220.650008,203.083347 220.721103,207.890659 220.721103,207.890659 C220.721103,207.890659 221.804449,213.779363 222.454458,215.719805 C223.104466,217.660248 223.608899,226.500042 223.608899,226.500042 C223.608899,226.500042 225.125584,228.942439 224.475576,229.868865 C223.825568,230.795292 227.001128,232.813217 227.001128,232.813217 C227.001128,232.813217 224.969853,235.616079 224.83782,237.482407 C224.705788,239.348736 241,242 241,242 L234.652265,177.227624 L229.597775,161 L220,161.933164 Z" id="Path" fill="#474847" opacity="0.1"></path>
                <path d="M251,247.00454 C246.271956,258.704148 235.027153,249.674911 235.027153,249.674911 C235.027153,249.674911 235.027153,249.449444 235,249.061924 C235.651676,248.438367 236.038608,248.005048 236.038608,248.005048 L250.439966,245 C250.439966,245 250.674162,245.852546 251,247.00454 Z" id="Path" fill="#000000" opacity="0.1"></path>
                <path d="M250.551681,246.889577 C246.043279,258.642663 234.849891,249.824491 234.849891,249.824491 C234.849891,249.824491 234.496485,243.73975 235.203297,240.949232 C235.910108,238.158713 234.427125,229.780442 234.427125,229.780442 C234.427125,229.780442 233.581593,222.335701 232.808724,220.619751 C232.035855,218.9038 232.105215,215.465183 232.105215,215.179751 C232.105215,214.894319 232.385958,212.600788 231.751809,211.025875 C231.11766,209.450961 230.760952,205.585875 230.760952,205.585875 C230.760952,205.585875 230.760952,200.145875 230.126803,196.925529 L227.943613,185.844048 L224,163.150518 L225.231966,162.935605 L247.304971,159 C247.304971,159 251.459967,180.491357 250.049646,182.694221 C249.745783,183.177777 249.478252,184.235555 249.25696,185.598913 C248.451063,190.474764 248.150503,199.229134 248.150503,199.229134 C248.150503,199.229134 250.895178,203.594566 249.841566,206.673875 C248.787954,209.753183 250.832424,214.833875 250.832424,214.833875 C250.832424,214.833875 251.466573,234.877923 250.267635,236.882664 C249.068697,238.887405 250.551681,246.889577 250.551681,246.889577 Z" id="Path" fill="#474847"></path>
                <path d="M249,99.6244375 C249,99.6244375 229.541583,114.275129 233.925673,106.948065 C236.288067,103.002723 235.854158,97.9782538 234.928485,94.1841269 C234.460521,92.2543501 233.814524,90.3790194 233,88.5857277 C233,88.5857277 249.533548,81.0662081 247.341503,87.8055947 C246.82784,89.3756867 246.609381,91.0388277 246.698674,92.6994685 C246.830008,95.1957481 247.628748,97.5992532 249,99.6244375 L249,99.6244375 Z" id="Path" fill="#D28690"></path>
                <path d="M211.463213,132.135813 C211.463213,132.135813 202.917342,129.612408 201.494144,132.088008 C200.070946,134.563609 201.921772,139.996272 204.500901,140.870415 C207.08003,141.744558 213,137.909938 213,137.909938 L211.463213,132.135813 Z" id="Path" fill="#D28690"></path>
                <path d="M221.922434,128 L218.456572,131.331777 C218.456572,131.331777 212.425453,131.909149 210.692522,131.474422 C210.692522,131.474422 212.288899,142.624496 210,144 L224,141.031628 L221.922434,128 Z" id="Path" fill="#196690"></path>
                <path d="M221.922434,128 L218.456572,131.331777 C218.456572,131.331777 212.425453,131.909149 210.692522,131.474422 C210.692522,131.474422 212.288899,142.624496 210,144 L224,141.031628 L221.922434,128 Z" id="Path" fill="#196690" opacity="0.1"></path>
                <path d="M176,80.2131522 C176,86.1705637 171.077063,91 165.004312,91 C159.36215,88.3403678 154.008625,86.1762565 154.008625,80.2131522 C153.849273,76.2607294 155.907852,72.5397641 159.37288,70.5170418 C162.837908,68.4943194 167.153536,68.4943194 170.618564,70.5170418 C174.083592,72.5397641 176.142171,76.2607294 175.982819,80.2131522 L176,80.2131522 Z" id="Path" fill="#000000" opacity="0.1"></path>
                <path d="M175.999998,79.9928088 C176.003395,85.3431331 172.156285,89.9198032 166.884999,90.8363623 C161.613713,91.7529214 156.447519,88.7434639 154.644679,83.7060223 C152.84184,78.6685808 154.925382,73.0645819 159.581239,70.4284077 C164.237096,67.7922334 170.114542,68.8886719 173.506737,73.0262112 C175.115918,74.9916507 175.996684,77.4526601 175.999998,79.9928088 L175.999998,79.9928088 Z" id="Path" fill="#FFD6D6"></path>
                <path d="M182,146.434449 C180.938745,147.180224 179.828135,147.832056 178.678093,148.384123 C178.678093,148.384123 173.247729,147.492735 172.463343,148.543434 C171.678958,149.594134 164.753568,150 164.753568,150 C164.753568,150 154.177768,149.434822 152.605644,147.898601 C152.119536,147.453131 151.578634,147.090231 151,146.821349 L151.174308,143.748906 C151.174308,143.748906 178.423335,141.806819 180.615593,144.177531 C181.186231,144.836114 181.654303,145.599186 182,146.434449 L182,146.434449 Z" id="Path" fill="#000000" opacity="0.1"></path>
                <path d="M183.968899,143.480436 C183.751376,144.698666 179.258164,146.563028 179.258164,146.563028 C179.258164,146.563028 173.752109,145.775554 172.95679,146.707735 C172.161471,147.639916 165.139553,148 165.139553,148 C165.139553,148 154.416342,147.495209 152.822305,146.132273 C151.228268,144.769336 147.676523,144.113108 147.676523,144.113108 C147.676523,144.113108 145.864964,131.345256 146.592307,128.548713 C147.31965,125.75217 145.504691,118.072613 145.069645,115.346741 C144.634598,112.620869 146.30001,105.089384 148.329093,103.871155 C150.358176,102.652925 153.257351,98.5607516 154.994138,97.3425222 C156.45902,96.3161134 158.076848,94.98683 158.549281,94.5863623 L158.688632,94.471943 C158.688632,94.471943 158.980929,92.2474965 160.139919,91.1066684 C161.29891,89.9658404 171.947347,98.3521045 171.947347,98.3521045 C171.947347,98.3521045 172.022121,98.9982373 172.746065,97.7800079 C172.909207,97.5074206 174.312911,99.5131243 174.557625,100.361173 C174.557625,100.361173 180.352577,110.406518 180.716248,112.476162 C181.07992,114.545806 182.599183,121.299912 182.888081,122.948896 C182.962855,123.372921 183.085211,124.860372 183.227961,126.852615 C183.255151,127.242987 183.278943,127.656915 183.309532,128.08767 C183.523656,131.39237 183.754775,135.612424 183.894125,138.802705 C183.894125,139.166154 183.924715,139.516143 183.934911,139.85267 C184.00829,141.060575 184.019634,142.271392 183.968899,143.480436 L183.968899,143.480436 Z" id="Path" fill="#DCE6F2"></path>
                <path d="M147,118 C147,118 150.648101,122 151.843383,122 C153.038665,122 147,118 147,118 Z" id="Path" fill="#000000" opacity="0.1"></path>
                <path d="M155,128 C155,128 149.310741,135.494887 150.069704,136.872597 C150.828667,138.250307 155,128 155,128 Z" id="Path" fill="#000000" opacity="0.1"></path>
                <path d="M150,142 C150,142 157.652174,133.821296 158,131 L150,142 Z" id="Path" fill="#000000" opacity="0.1"></path>
                <path d="M160,143 C160,143 169.188842,138.372893 169.960314,134.700149 C170.731785,131.027404 160,143 160,143 Z" id="Path" fill="#000000" opacity="0.1"></path>
                <path d="M170.17635,99.9282137 L169,102.772955 L170.958355,103.69783 L172.88329,109.073456 C172.88329,109.073456 178.190231,119.677796 177.97635,125.193656 C177.762468,130.709516 178.938817,139 178.938817,139 L182,138.432387 L180.556298,122.208681 C180.331494,119.696771 179.70178,117.237679 178.691517,114.926544 C176.245244,109.330551 171.693573,99 171.40617,99 C171.015167,99 171.289203,99.1435726 171.289203,99.1435726 L170.17635,99.9282137 Z" id="Path" fill="#000000" opacity="0.1"></path>
                <path d="M170.176047,99.9248748 L169,102.772955 L170.961192,103.69783 L172.882292,109.073456 C172.882292,109.073456 178.187869,119.677796 177.974043,125.193656 C177.760216,130.709516 178.936263,139 178.936263,139 L182,138.432387 L180.553328,122.208681 C180.331214,119.69669 179.702727,117.237356 178.692367,114.926544 C176.246723,109.327212 171.696222,99 171.412233,99 C171.01799,99 171.291956,99.1435726 171.291956,99.1435726 L170.176047,99.9248748 Z" id="Path" fill="#575989"></path>
                <path d="M206.065489,140.995635 C204.579771,140.881122 201.01538,139.059011 199.599617,138.301202 L199,137.964398 L199.073287,132.403763 C199.423364,132.195626 199.786075,132.010015 200.15926,131.848036 C202.051385,131.012762 205.932241,129.877732 207.877666,133.532057 C210.502657,138.432556 207.947621,141.12362 206.065489,140.995635 Z" id="Path" fill="#FFD6D6"></path>
                <path d="M174,72.9620732 C173.838724,73.0584412 173.661323,73.1277217 173.475505,73.1669044 C172.169549,73.4388934 170.684068,72.3677269 169.564676,73.0560941 C168.881777,73.4791881 168.723373,74.355597 168.63185,75.1279114 C168.472273,76.4710668 168.312695,77.8052679 168.153117,79.1305146 C168.119647,79.6023183 168.015326,80.0670925 167.843349,80.5106068 C167.290693,81.7160888 165.773531,82.283572 164.390132,82.2634247 C163.848223,82.3002242 163.313024,82.1312525 162.901131,81.7933202 C162.658244,81.558268 162.528001,81.229195 162.260473,81.0142901 C160.500424,79.6073348 159.965369,83.0558864 160.430022,84.0363898 C161.176283,85.6381027 163.826917,87.1827315 162.714566,89.217612 C162.527488,89.5483268 162.243786,89.8201219 161.897903,90 C157.29934,88.6262239 154.126167,84.6142506 154.003669,80.0189962 C153.881171,75.4237417 156.836483,71.2631079 161.355907,69.668154 C165.875331,68.0732002 170.957762,69.3972269 174,72.9620732 Z" id="Path" fill="#000000" opacity="0.1"></path>
                <path d="M161.991592,81.7412733 C162.242093,81.9513835 162.369014,82.2782215 162.599475,82.5116773 C162.990478,82.8469934 163.49816,83.0147725 164.012301,82.9785888 C165.324926,82.9985993 166.764472,82.4383055 167.285514,81.2343409 C167.45167,80.7957016 167.551844,80.334907 167.582775,79.8669572 L168.037017,75.8915395 C168.123857,75.1244706 168.270818,74.2540142 168.92212,73.8337939 C169.984245,73.1667775 171.39373,74.2139932 172.632875,73.9438516 C173.559877,73.7085814 174.144558,72.7949074 173.968881,71.8560903 C173.82526,71.2190896 173.337618,70.7154922 173.087117,70.1085073 C172.935264,69.6421125 172.813659,69.1664342 172.723056,68.6844273 C172.031673,66.0964036 168.988921,64.6423079 166.34363,65.0758685 C164.874024,65.3193295 163.507959,66.0196968 162.035013,66.233142 C160.979568,66.3865558 159.900744,66.2865033 158.83528,66.3998961 C157.845374,66.5018916 156.882872,66.7856932 155.996268,67.2370017 C155.763513,67.3398643 155.557747,67.4951024 155.395066,67.6905728 C155.243777,67.9545795 155.141914,68.2438952 155.094465,68.5443538 C154.737083,69.8783866 153.588119,70.8622358 152.756455,71.9861585 C151.805211,73.2793195 151.254763,74.8227037 151.173289,76.4251526 C151.14053,76.834424 151.17895,77.2462692 151.286849,77.6424575 C151.35699,77.8759133 151.46721,78.1026989 151.52065,78.3428248 C151.684311,79.0732077 151.310229,79.8035907 151.126529,80.5306386 C150.898276,81.4584158 150.980389,82.4352918 151.36033,83.312097 C152.642895,86.2569744 156.868012,87.2408236 157.746435,90.3324446 C158.526478,90.7058955 159.368976,90.9320391 160.231405,90.999461 C161.093129,91.0161364 162.021653,90.6459423 162.422454,89.8822085 C163.474558,87.8811593 160.962868,86.3270111 160.254785,84.7395121 C159.810564,83.762333 160.308226,80.3405389 161.991592,81.7412733 Z" id="Path" fill="#353045"></path>
                <path d="M245.793591,88.6912744 C245.263855,90.1973895 245.03856,91.792762 245.130647,93.3857363 C244.620181,93.8176004 244.063308,92.5253047 243.473288,92.8582687 C241.855705,93.7879303 239.986203,95.9999977 237.984113,95.9999977 C236.247895,96.0011198 234.536091,95.5932916 232.988831,94.8098989 C232.506223,92.9587552 231.840012,91.1598391 231,89.4396191 C231,89.4396191 248.05423,82.2264994 245.793591,88.6912744 Z" id="Path" fill="#000000" opacity="0.1"></path>
                <path d="M250,83.5 C249.999999,89.8512747 244.851274,95 238.5,95 C232.148725,95 227,89.8512747 227,83.5 C227,77.1487258 232.148725,72.0000005 238.5,72 C241.55027,71.999083 244.475874,73.210392 246.632741,75.3672592 C248.789608,77.5241265 250.000917,80.4497295 250,83.5 Z" id="Path" fill="#D28690"></path>
                <path d="M250,101.295632 C250,101.295632 247.866342,103.584343 247.576628,103.772272 C247.286914,103.960201 241.10067,129.612553 240.991601,129.911226 C240.882532,130.2099 233.62605,153.372188 233.62605,153.372188 L222,159 L222.971394,130.669655 L231.492392,107.306014 C231.492392,107.306014 234.304321,104.158198 235.173463,103.013843 C236.042605,101.869488 246.894948,95 246.894948,95 L248.749117,98.7619422 L250,101.295632 Z" id="Path" fill="#F0F3F7"></path>
                <path d="M248,100.709086 L235.205521,110 L235,104.897938 C235.835132,103.769661 246.218821,97 246.218821,97 L248,100.709086 Z" id="Path" fill="#000000" opacity="0.1"></path>
                <path d="M248,99.7090863 L235.199096,109 L235,103.901247 C235.835551,102.769661 246.224454,96 246.224454,96 L248,99.7090863 Z" id="Path" fill="#F0F3F7"></path>
                <path d="M233.57759,101 L234,103.315453 L231.172108,106.322843 L233.429262,101.033753 C233.429262,101.033753 228.592503,104.560938 227.141475,105.495895 C225.690447,106.430852 224.23942,109.59688 224.184603,110.460956 C224.129786,111.325032 221.846836,124.346926 221.846836,124.346926 C221.846836,124.346926 220.128174,129.166849 220.61185,130.533844 C221.095526,131.900839 218,175 218,175 C218.837781,173.305369 220.35295,172.089252 222.133817,171.682084 L221.031036,146.212096 C221.031036,146.212096 222.37243,129.268108 222.440145,129.052089 C222.50786,128.83607 225.567916,119.013957 225.567916,119.013957 L233.57759,101 Z" id="Path" fill="#196690"></path>
                <path d="M234,104 L233.776952,108.769153 C233.776952,108.769153 230.664115,118.971733 229.617756,120.640936 C228.571397,122.31014 225.386398,132.260636 225.386398,132.260636 L223.592171,149.545408 L220.515417,151 L219,148.101036 L221.519134,131.409002 C221.519134,131.409002 226.272031,117.322969 226.973978,115.868377 L230.480429,108.196854 L234,104 Z" id="Path" fill="#000000" opacity="0.1"></path>
                <path d="M234,103 L233.780376,107.769844 C233.780376,107.769844 230.66958,117.973904 229.620629,119.643349 C228.571678,121.312794 225.395323,131.264734 225.395323,131.264734 L223.612107,148.548605 L220.537369,150 L219,147.097209 L221.517483,130.402755 C221.517483,130.402755 226.267264,116.311272 226.965472,114.859877 L230.495848,107.197463 L234,103 Z" id="Path" fill="#B3143C"></path>
                <path d="M198,139.34083 L204.324147,143 C204.324147,143 208.785207,140.909458 206.187235,139.557093 C203.589263,138.204729 201.284554,138 200.449615,138 C199.614676,138 198,139.34083 198,139.34083 Z" id="Path" fill="#D28690"></path>
                <path d="M202.46505,131.543084 C202.174168,131.709804 201.998102,132.00364 202.000015,132.31918 C202.000015,133.571883 202.153861,136.888807 203.293719,135.391361 C204.692318,133.559001 204.437074,131.913421 206.573433,133.101717 C207.90123,133.863326 209.063263,134.846205 210,136 L209.405596,132.064775 C209.405596,132.064775 205.013996,130.06818 202.46505,131.543084 Z" id="Path" fill="#D28690"></path>
                <path d="M250.699449,181.028878 C250.386986,181.519263 250.111884,182.591981 249.884329,183.974595 C237.188841,187.792108 227.899874,179.721184 227.899874,179.721184 C226.776024,175.902537 225.85769,172.02608 225.148845,168.108589 C224.921291,166.76684 224.972236,164.165074 225.182809,160.991191 L247.880494,157 C247.880494,157 252.149683,178.777874 250.699449,181.028878 Z" id="Path" fill="#196690" opacity="0.1"></path>
                <path d="M263.852335,117.268202 C263.27344,119.140762 263.491377,122.949987 263.491377,122.949987 L258.264291,147.404606 C258.264291,147.404606 255.723961,166.248294 255.288087,168.765284 C254.852212,171.282275 254.12689,182.359057 254.12689,182.359057 C239.317381,189.552385 227.906329,179.771213 227.906329,179.771213 C226.77974,175.986658 225.858993,172.144914 225.148062,168.262561 C224.419335,163.9911 226.564654,146.878265 227.579423,139.276685 C227.882492,137.026239 228.086808,135.609167 228.086808,135.609167 L231.897303,121.583525 C231.897303,121.583525 236.579546,109.750971 238.323043,106.299388 C240.06654,102.847805 247.06777,95.0943947 247.06777,95.0943947 C247.936114,94.5478096 249.325463,96.4777272 250.357259,98.2355716 C251.137065,99.5649204 251.719366,100.799798 251.719366,100.799798 C251.719366,100.799798 260.430041,104.538169 261.734259,106.535567 C263.038476,108.532964 262.823944,112.649221 262.970371,112.865156 C263.116797,113.081091 264.434636,115.399016 263.852335,117.268202 Z" id="Path" fill="#196690"></path>
                <path d="M242.579758,109.195923 C242.579758,109.195923 243.239946,112.984409 241.548213,114.12766 C239.914935,115.234032 227.756466,138.544953 227,140 C227.306025,137.760435 227.512334,136.352325 227.512334,136.352325 L231.359994,122.418744 C231.359994,122.418744 236.091344,110.661028 237.848408,107.227922 C239.605472,103.794817 246.681866,96.0937977 246.681866,96.0937977 C247.558678,95.5506696 248.95814,97.468381 250,99.2151075 C248.428614,102.396765 245.151742,108.411405 242.579758,109.195923 Z" id="Path" fill="#000000" opacity="0.1"></path>
                <path d="M242.586635,109.196929 C242.586635,109.196929 243.243385,112.985703 241.55509,114.129041 C239.866796,115.27238 227.766781,138.544842 227,140 C227.306025,137.763617 227.512334,136.3554 227.512334,136.3554 L231.359994,122.417405 C231.359994,122.417405 236.087906,110.658792 237.848408,107.228778 C239.60891,103.798764 246.678427,96.0938048 246.678427,96.0938048 C247.55524,95.5506354 248.95814,97.4684929 250,99.2153525 C248.435491,102.3939 245.15518,108.412351 242.586635,109.196929 Z" id="Path" fill="#196690"></path>
                <polygon id="Path" fill="#B3143C" points="259 142.500443 255.00465 163.472751 255.00465 163.476101 254.622717 165.483197 254.622717 165.486548 253.762537 170 250.09266 169.215926 248.382265 168.850695 224.712388 163.791071 222.972102 163.419139 219 162.5714 219.77715 157.364344 220.099303 155.199763 222.96546 136"></polygon>
                <path d="M236.402255,160 C236.402255,160 227.298449,163.528054 229.282982,167.718264 C231.267516,171.908475 244,164.483353 244,164.483353 L236.402255,160 Z" id="Path" fill="#D28690"></path>
                <path d="M244,190 C244,190.264618 244.333283,193.651722 245.660185,194.844057 C246.987088,196.036392 244,190 244,190 Z" id="Path" fill="#000000" opacity="0.1"></path>
                <path d="M234,203 C234,203 235.673003,207.76383 242.302809,209.714054 C248.932615,211.664278 234,203 234,203 Z" id="Path" fill="#000000" opacity="0.1"></path>
                <path d="M250,84.2355489 C250.001091,88.2662232 247.777825,91.990118 244.170358,94 C243.502354,93.6379815 242.909478,93.1591017 242.421815,92.58766 C241.914737,91.9915645 241.519567,91.178707 241.823813,90.4674567 C242.068609,89.8950695 242.71557,89.5326705 242.872939,88.9399619 C242.947079,88.5775023 242.927862,88.2029339 242.816986,87.849378 C242.687593,87.2905385 242.565195,86.7316989 242.4393,86.1762463 C242.330891,85.7020794 242.138551,85.1432398 241.652456,85.028085 C241.166361,84.9129302 240.760699,85.3058113 240.379517,85.5970853 C239.445795,86.3117225 237.655287,86.7960501 236.532723,86.2101153 C235.410158,85.6241805 235.724896,83.6631617 235.543047,82.60306 C235.538453,82.416631 235.44881,82.2417538 235.298251,82.1255062 C235.134875,82.0730045 234.960446,82.0613539 234.791174,82.0916372 C234.186178,82.0916372 233.700083,81.5666667 233.525229,81.0044402 C233.401341,80.4304601 233.333432,79.8464729 233.322398,79.2601835 C233.255953,78.6742487 233.035637,78.0544448 232.518068,77.7530101 C232.104522,77.5665947 231.645996,77.4939485 231.192673,77.5430219 L229,77.5667303 C231.983409,73.6603541 237.216827,72.0468248 241.982926,73.5639295 C246.749024,75.0810343 249.973659,79.3868608 249.982514,84.2457096 L250,84.2355489 Z" id="Path" fill="#000000" opacity="0.1"></path>
                <path d="M241.175097,84.7760541 C241.541085,84.4821365 241.944009,84.0925248 242.397297,84.2053071 C242.850586,84.3180894 243.045332,84.8888364 243.149421,85.3604716 L243.512052,87.0453713 C243.619364,87.4030712 243.638961,87.7820815 243.569132,88.1492711 C243.39789,88.7507769 242.780074,89.1130474 242.541678,89.6906297 C242.249559,90.4083354 242.632336,91.2285706 243.115844,91.8266587 C243.997762,92.9085153 245.21711,93.6502922 246.570911,93.9285113 C246.924357,94.0149442 247.291918,94.0231027 247.64873,93.9524348 C248.447861,93.7644643 248.991808,93.0159997 249.421593,92.3153822 C251.641028,88.7952063 253.551556,84.9366834 253.941048,80.77399 C254.047908,79.9249396 254.009282,79.0634573 253.826887,78.2278434 C253.644924,77.5783558 253.387945,76.953119 253.061333,76.3652261 C252.489821,75.1641693 251.763779,74.0458916 250.902335,73.0398561 C249.374585,71.3652093 247.265953,70.3364977 245.100241,69.7281566 C242.664284,69.040163 240.120781,68.8370879 237.609226,69.1300685 C236.937687,69.2086744 236.29301,69.3214567 235.631544,69.3658861 C234.801048,69.4051902 233.968949,69.3914928 233.140136,69.3248743 L228.19761,69.0241214 C227.915564,69.608539 228.19761,70.3023212 228.53338,70.8491447 C228.869149,71.3959681 229.285503,71.9632974 229.258642,72.6126502 C229.23178,73.2620031 228.778491,73.77465 228.429291,74.3214735 C228.080091,74.8682969 227.814833,75.5757497 228.164033,76.1089026 C228.513234,76.6420554 229.225065,76.6762319 229.84288,76.6693966 L232.334289,76.6420554 C232.768266,76.5966461 233.206158,76.6734928 233.60014,76.8642025 C234.097078,77.168373 234.308613,77.7972199 234.372409,78.3850551 C234.386348,78.9764387 234.451516,79.5654177 234.567155,80.1451431 C234.738398,80.7124724 235.201759,81.2490429 235.78264,81.2422076 C235.945253,81.2091831 236.113649,81.2221861 236.269506,81.2798017 C236.413916,81.3957318 236.500074,81.5711231 236.504545,81.7582722 C236.679145,82.8279956 236.356806,84.8033952 237.454772,85.3980657 C238.552738,85.9927362 240.278592,85.4971775 241.175097,84.7760541 Z" id="Path" fill="#663D5C"></path>
                <path d="M255.829493,107.030686 C253.325364,106.761994 250.970787,108.280699 250.158342,110.688585 C248.835625,114.493468 246.629993,121.358293 247.182228,124.070817 C247.959324,127.915787 248.875306,134.326297 248.875306,134.326297 C248.875306,134.326297 252.89306,136.66468 250.859382,139.023106 C248.825704,141.381533 248.250322,144.72208 248.250322,144.72208 C248.250322,144.72208 245.641262,145.861206 245.079107,148.283103 C244.516952,150.705 240.707526,154.048887 240.707526,154.048887 L235,159.818012 C235,159.818012 244.444203,169.505599 246.348916,170 L252.198634,163.091748 L259.106526,153.835092 L265.098436,147.488053 C265.098436,147.488053 266.50713,144.147506 265.802783,137.800466 C265.098436,131.453426 262.347183,125.410377 262.347183,125.410377 L262.558818,123.272426 C262.558818,123.272426 263.20695,107.956018 255.829493,107.030686 Z" id="Path" fill="#000000" opacity="0.1"></path>
                <path d="M255.836446,107.030001 C253.333423,106.7646 250.981416,108.282688 250.169118,110.68794 C248.845749,114.492864 246.639031,121.357763 247.191537,124.070317 C247.965708,127.915329 248.882141,134.325909 248.882141,134.325909 C248.882141,134.325909 252.901875,136.664317 250.867195,139.022769 C248.832515,141.381221 248.260158,144.721804 248.260158,144.721804 C248.260158,144.721804 245.649812,145.860943 245.084072,148.282867 C244.518332,150.70479 240.713646,154.048714 240.713646,154.048714 L235,159.817901 C235,159.817901 244.448855,169.505594 246.354506,170 L252.207106,163.091673 L259.101859,153.834916 L265.096721,147.487808 C265.096721,147.487808 266.509417,144.147224 265.801415,137.800115 C265.093412,131.453007 262.347421,125.409891 262.347421,125.409891 L262.55916,123.271918 C262.55916,123.271918 263.217537,107.955342 255.836446,107.030001 Z" id="Path" fill="#196690"></path>
                <path d="M250,128 C250,128 256.0524,136.633398 258.617656,134.724388 C261.182911,132.815379 250,128 250,128 Z" id="Path" fill="#000000" opacity="0.1"></path>
                <path d="M252,122 C252.638805,122.221631 257.888982,129.826337 260.58394,128.925962 C263.278898,128.025587 252,122 252,122 Z" id="Path" fill="#000000" opacity="0.1"></path>
                <path d="M254,136 C254,136 254.303943,139.421648 257.996704,138.956543 C261.689466,138.491438 254,136 254,136 Z" id="Path" fill="#000000" opacity="0.1"></path>
                <polygon id="Path" fill="#000000" opacity="0.1" points="233.40205 102 231 107 234 104.156988"></polygon>
                <polygon id="Path" fill="#F0F3F7" points="233.40205 101 231 106 234 103.156988"></polygon>
                <polygon id="Path" fill="#000000" opacity="0.3" points="225 165 223.236878 164.610374 220 158.267551 220.32638 156"></polygon>
                <polygon id="Path" fill="#000000" opacity="0.3" points="255 164 254.596289 165.748395 254.596289 165.751313 249.807924 169 248 168.681845"></polygon>
                <path d="M184,140.574083 C183.102015,140.721302 182.231242,140.855138 181.4353,140.955515 C177.013404,141.527664 166.496094,136.391711 166.496094,136.391711 C166.496094,136.391711 153.66239,125.835406 149.965005,115.851248 C146.267619,105.867091 154.386901,104.368129 154.386901,104.368129 C157.448214,102.65503 164.104868,107.432971 165.047072,108.219257 C165.989276,109.005543 166.788619,110.999697 166.713787,112.284522 C166.638955,113.569346 168.890721,115.208836 168.890721,115.208836 C168.890721,115.208836 172.734369,121.770141 173.676573,122.482817 C174.618777,123.195493 174.83647,123.837905 175.125594,125.052466 C175.414718,126.267026 177.952207,127.264104 179.040673,127.190494 C180.12914,127.116884 181.421694,127.548505 181.421694,128.117308 C181.421694,128.575695 182.486351,128.803217 183.360526,128.876826 C183.619037,132.533892 183.874146,137.325217 184,140.574083 Z" id="Path" fill="#000000" opacity="0.1"></path>
                <path d="M183,139.671114 C182.327179,139.778183 181.681271,139.875214 181.075733,139.955515 C176.702397,140.527664 166.303952,135.391711 166.303952,135.391711 C166.303952,135.391711 153.611188,124.835406 149.954407,114.851248 C146.297626,104.867091 154.327742,103.368129 154.327742,103.368129 C157.355436,101.65503 163.935623,106.432971 164.86748,107.219257 C165.799337,108.005543 166.589901,109.999697 166.519255,111.284522 C166.448609,112.569346 168.668917,114.208836 168.668917,114.208836 C168.668917,114.208836 172.470355,120.770141 173.402212,121.482817 C174.334068,122.195493 174.549371,122.837905 174.838684,124.052466 C175.127997,125.267026 177.634254,126.260758 178.710768,126.190494 C179.787281,126.12023 181.06564,126.548505 181.06564,127.117308 C181.06564,127.451897 181.664451,127.676072 182.330543,127.786487 C182.357456,128.174611 182.381005,128.586156 182.411282,129.014431 C182.633313,132.303448 182.862072,136.499203 183,139.671114 Z" id="Path" fill="#000000" opacity="0.1"></path>
                <path d="M200,132 L199.767241,139 L199.517241,139 L199,138.634656 L199.063218,132.602818 C199.365202,132.377044 199.678084,132.175705 200,132 L200,132 Z" id="Path" fill="#000000" opacity="0.1"></path>
                <path d="M154.334199,103.367023 C154.334199,103.367023 146.294351,104.865913 149.955564,114.849589 C153.616777,124.833265 166.324924,135.392408 166.324924,135.392408 C166.324924,135.392408 176.735973,140.524767 181.117976,139.955992 C185.49998,139.387216 192.172347,137.888327 193.034601,138.102454 C193.896856,138.316581 199.713705,138.316581 199.713705,138.316581 L200,131.625109 L193.263638,131.267115 L189.817988,130.554473 C189.817988,130.554473 188.595339,129.550753 187.877916,129.697965 C187.160493,129.845177 185.654916,128.841457 185.654916,128.841457 C185.654916,128.841457 184.502998,127.914688 183.634008,127.914688 C182.765017,127.914688 181.121344,127.700561 181.121344,127.131786 C181.121344,126.56301 179.827963,126.128065 178.763618,126.205017 C177.699272,126.281969 175.156296,125.278248 174.859896,124.050363 C174.563496,122.822478 174.358037,122.196825 173.42505,121.484183 C172.492064,120.771542 168.68602,114.207208 168.68602,114.207208 C168.68602,114.207208 166.459652,112.567797 166.530384,111.28638 C166.601115,110.004963 165.812961,108.004213 164.879975,107.217965 C163.946989,106.431717 157.345353,101.657352 154.334199,103.367023 Z" id="Path" fill="#DCE6F2"></path>
                <path d="M175,127 C175,127 172.457082,129.530819 173.105983,130 L175,127 Z" id="Path" fill="#000000" opacity="0.1"></path>
                <path d="M178,129 C178,129 174.142109,131.796232 175.17605,131.991388 C176.20999,132.186545 178,129 178,129 Z" id="Path" fill="#000000" opacity="0.1"></path>
                <path d="M172,134 C172.559585,134.272456 180.858467,139.068946 184,138.999248 L172,134 Z" id="Path" fill="#000000" opacity="0.1"></path>
                <path d="M172,99.1687597 C172,99.1687597 170.522577,104 169.95865,104 C169.516743,104 162.096651,98.015962 159,95.50017 L159.135211,95.388503 C159.135211,95.388503 159.415525,93.2175649 160.540081,92.1041791 C161.664637,90.9907934 172,99.1687597 172,99.1687597 Z" id="Path" fill="#000000" opacity="0.1"></path>
                <path d="M172,99.1687597 C172,99.1687597 170.525875,104 169.961948,104 C169.516743,104 162.096651,98.015962 159,95.50017 L159.135211,95.388503 C159.135211,95.388503 159.418823,93.2175649 160.543379,92.1041791 C161.667935,90.9907934 172,99.1687597 172,99.1687597 Z" id="Path" fill="#DCE6F2"></path>
                <g id="Group" opacity="0.15" transform="translate(151.000000, 66.000000)" fill="#000000">
                    <path d="M0.126666667,17.0650685 L0.126666667,17.0650685 C1.12666667,19.4109589 3.88,20.5479452 5.47666667,22.4178082 C4.52666667,20.119863 1.75,18.9931507 0.126666667,17.0650685 Z" id="Path"></path>
                    <path d="M10.3166667,22.4691781 C9.92,23.2534247 8.98333333,23.6335616 8.13,23.6164384 C7.37135331,23.5605127 6.62855249,23.3656655 5.93666667,23.0410959 C6.18766135,23.4212527 6.37888747,23.8396079 6.50333333,24.2808219 C7.28154622,24.665049 8.12249746,24.8973046 8.98333333,24.9657534 C9.84666667,24.9863014 10.7733333,24.6061644 11.17,23.8184932 C11.8066667,22.5684932 11.1433333,21.5 10.3666667,20.489726 C10.6603115,21.1195195 10.6417114,21.8558804 10.3166667,22.4691781 L10.3166667,22.4691781 Z" id="Path"></path>
                    <path d="M22.6866667,5.30479452 C22.5433333,4.64726027 22.0566667,4.13013699 21.8066667,3.51027397 C21.6535614,3.0306546 21.5321738,2.54095482 21.4433333,2.04452055 C21.2539347,1.34255403 20.9029491,0.697699743 20.42,0.164383562 C20.4870998,0.332950066 20.5438772,0.505661315 20.59,0.681506849 C20.6834157,1.18012969 20.8081204,1.67202378 20.9633333,2.15410959 C21.2133333,2.7739726 21.7,3.29109589 21.8433333,3.94863014 C22.018659,4.91266255 21.4351479,5.85087649 20.51,6.09246575 C19.2766667,6.36986301 17.87,5.2739726 16.81,5.97945205 C16.16,6.40753425 16.01,7.30136986 15.9233333,8.0890411 C15.7744444,9.45890411 15.6233333,10.8207763 15.47,12.1746575 C15.4399106,12.6549603 15.3410704,13.1280826 15.1766667,13.5787671 C14.6533333,14.8116438 13.2166667,15.390411 11.9066667,15.369863 C11.3948174,15.4049883 10.8899162,15.2328964 10.5,14.890411 C10.3104846,14.6146749 10.1068652,14.3494621 9.89,14.0958904 C8.22333333,12.6575342 7.71666667,16.1746575 8.15666667,17.1780822 C8.37699395,17.6294704 8.65012471,18.0515411 8.97,18.4349315 C8.60333333,17.3047945 9.11666667,14.0513699 10.7433333,15.4452055 C10.9601218,15.6979563 11.1626743,15.9632289 11.35,16.239726 C11.7414687,16.5817753 12.2472069,16.753745 12.76,16.7191781 C14.07,16.739726 15.5066667,16.1609589 16.03,14.9280822 C16.1947237,14.4763092 16.2935689,14.002009 16.3233333,13.5205479 C16.4744444,12.1506849 16.6255556,10.7899543 16.7766667,9.43835616 C16.8633333,8.65068493 17.0133333,7.75684932 17.66,7.32876712 C18.7233333,6.62328767 20.13,7.71917808 21.3633333,7.43835616 C22.2809345,7.19397581 22.8586601,6.26253004 22.6866667,5.30479452 L22.6866667,5.30479452 Z" id="Path"></path>
                </g>
                <path d="M248.396969,93.1547335 C248.040576,93.2225738 247.674204,93.2132503 247.321564,93.1273666 C245.972465,92.8490641 244.757195,92.1078954 243.877586,91.026955 C243.391811,90.4248826 243.009892,89.6038748 243.304707,88.885493 C243.539219,88.3073667 244.155651,87.9447549 244.309759,87.3426825 C244.379431,86.975147 244.359877,86.5957797 244.252806,86.2377429 L243.890987,84.551256 C243.787132,84.0723348 243.606222,83.5078919 243.140548,83.3950034 C242.674874,83.2821148 242.286254,83.6720935 241.921086,83.9662879 C241.026589,84.6880906 239.307951,85.1806953 238.235896,84.5854647 C237.163841,83.990234 237.462006,82.0129736 237.287797,80.9422426 C237.281965,80.7552684 237.196274,80.5802697 237.053285,80.4633214 C236.896234,80.4074989 236.727629,80.3945277 236.56416,80.4256918 C235.98458,80.4256918 235.522256,79.8954576 235.351397,79.3275939 C235.235286,78.7475166 235.171366,78.1578126 235.160437,77.565848 C235.093434,76.9774591 234.885723,76.3480198 234.386548,76.0435627 C233.992933,75.8543387 233.556478,75.7774999 233.123533,75.8212064 L230.637705,75.8485734 C230.024623,75.8485734 229.297636,75.807523 228.962618,75.2875514 C228.627601,74.7675798 228.875514,74.0286728 229.227282,73.4984385 C229.57905,72.9682043 230.024623,72.441391 230.054775,71.7880056 C230.084926,71.1346203 229.669505,70.5701774 229.331137,70.0228389 C229.137104,69.7235242 228.99436,69.3926806 228.909016,69.0444713 L228.195429,69 C227.917365,69.5815472 228.195429,70.2759829 228.530446,70.8267423 C228.865463,71.3775017 229.284235,71.9419446 229.254083,72.5884882 C229.223932,73.2350319 228.778359,73.7550035 228.426591,74.2989212 C228.074823,74.8428388 227.816859,75.5543789 228.165277,76.088034 C228.513695,76.621689 229.220582,76.6593186 229.840364,76.6524768 L232.326192,76.621689 C232.759448,76.5788742 233.195962,76.6569057 233.589207,76.8474662 C234.088382,77.1519232 234.299443,77.7813626 234.363096,78.3697515 C234.373667,78.9619194 234.438723,79.5517621 234.557406,80.1314974 C234.724915,80.6959402 235.190589,81.236437 235.770169,81.2261744 C235.932618,81.1968367 236.099688,81.2097784 236.255944,81.263804 C236.399448,81.3818172 236.485145,81.5580785 236.490456,81.746146 C236.664665,82.8134562 236.343048,84.7941375 237.438555,85.3893681 C238.534061,85.9845988 240.242649,85.4919941 241.123744,84.7701914 C241.488913,84.475997 241.894284,84.0860183 242.346557,84.195486 C242.798831,84.3049537 242.993141,84.8796591 243.093646,85.3517386 L243.458815,87.0416463 C243.564907,87.3999412 243.583313,87.7793389 243.512417,88.146586 C243.344909,88.7452375 242.725127,89.1112701 242.490615,89.6859756 C242.19915,90.4043574 242.577719,91.2287861 243.063494,91.8274376 C243.949078,92.9130447 245.173348,93.6546519 246.530923,93.9278492 C246.883564,94.0137329 247.249935,94.0230564 247.606328,93.9552161 C248.182197,93.7759786 248.67644,93.3926219 249,92.8742225 C248.817025,93.0037775 248.612783,93.0987842 248.396969,93.1547335 Z" id="Path" fill="#000000" opacity="0.1"></path>
                <ellipse id="Oval" fill="#B3143C" opacity="0.1" cx="94" cy="241" rx="8" ry="1"></ellipse>
                <ellipse id="Oval" fill="#B3143C" opacity="0.1" cx="378" cy="208" rx="8" ry="1"></ellipse>
                <ellipse id="Oval" fill="#474847" opacity="0.1" cx="294.5" cy="258" rx="23.5" ry="4"></ellipse>
                <ellipse id="Oval" fill="#474847" opacity="0.1" cx="361.5" cy="242.5" rx="18.5" ry="2.5"></ellipse>
                <ellipse id="Oval" fill="#474847" opacity="0.1" cx="359" cy="271" rx="31" ry="5"></ellipse>
                <g id="Group-2" transform="translate(0.000000, 180.000000)">
                    <ellipse id="Oval" fill="#B3143C" opacity="0.1" cx="23.8802856" cy="41.9449379" rx="23.8802856" ry="3.60878971"></ellipse>
                    <path d="M37.2361882,2.50026161 C36.9096249,2.94370514 36.6478042,3.43006008 36.4583732,3.94512155 C36.4106126,4.06944671 36.362852,4.2139327 36.3150914,4.35169842 C36.2285321,4.31188524 36.1382798,4.2803784 36.0455854,4.25761451 C35.6479409,4.15868687 35.2365207,4.12463394 34.8276908,4.15681033 C34.8276908,3.99888378 34.8481596,3.82079639 34.8515711,3.66286984 C34.9027431,1.89207638 34.691232,-0.574265931 32.9752629,0.470737419 C31.3309347,1.47877924 32.5044802,3.15884893 33.5654471,4.23409354 C33.6575568,4.32817744 33.7496665,4.41554107 33.8383647,4.49954455 C32.8695074,5.17157243 32.685288,6.76091836 32.524949,8.4107468 C32.3646099,10.0605752 30.9420272,11.8649701 29.9970502,12.8898126 C29.901529,12.9939769 29.8162423,13.0880608 29.7309556,13.1754245 C28.9583106,12.5681016 27.9589678,12.3149943 26.9847227,12.4798756 C26.9471966,12.3353896 26.9028475,12.1841833 26.8584984,12.0262568 C26.0943292,9.30790402 24.507996,4.60034873 22.4849946,3.56878594 L22.7510892,3.232772 C23.6107795,2.12728614 24.5796368,0.480817838 23.1502311,0.0608004136 C21.7208255,-0.35921701 21.5911896,1.48549952 21.6696534,2.86987694 C21.6832993,3.04460419 21.6969452,3.20925102 21.7105911,3.36381744 C21.1330104,3.38974887 20.5921038,3.65005105 20.2163675,4.08288727 L19.994622,3.82415653 C18.8347224,2.48010078 16.709377,0.339691983 16.0646093,1.95591903 C15.4641907,3.46126148 17.3370873,5.4168626 18.6539145,6.54922958 L18.7357898,6.61979251 C17.8522192,10.151299 21.7105911,13.0309385 23.7881759,14.2909907 L24.057682,14.4522774 C21.1920477,17.7788154 19.4214951,24.0152341 19.4214951,24.0152341 L27.4452711,25.4264927 C27.4452711,25.4264927 32.7671633,20.9037451 32.0848694,16.6565289 L32.1394529,16.6565289 C37.4579337,15.6081654 38.6655938,10.0236137 37.8366068,6.70715613 L37.9321279,6.6701946 C38.9011178,6.27994371 39.7500649,5.64760186 40.3952088,4.83555849 C41.8826095,2.80267416 38.7713494,0.504338813 37.2361882,2.50026161 Z" id="Path" fill="#B3143C"></path>
                    <path d="M37.2361882,2.50026161 C36.9096249,2.94370514 36.6478042,3.43006008 36.4583732,3.94512155 C36.4106126,4.06944671 36.362852,4.2139327 36.3150914,4.35169842 C36.2285321,4.31188524 36.1382798,4.2803784 36.0455854,4.25761451 C35.6479409,4.15868687 35.2365207,4.12463394 34.8276908,4.15681033 C34.8276908,3.99888378 34.8481596,3.82079639 34.8515711,3.66286984 C34.9027431,1.89207638 34.691232,-0.574265931 32.9752629,0.470737419 C31.3309347,1.47877924 32.5044802,3.15884893 33.5654471,4.23409354 C33.6575568,4.32817744 33.7496665,4.41554107 33.8383647,4.49954455 C32.8695074,5.17157243 32.685288,6.76091836 32.524949,8.4107468 C32.3646099,10.0605752 30.9420272,11.8649701 29.9970502,12.8898126 C29.901529,12.9939769 29.8162423,13.0880608 29.7309556,13.1754245 C28.9583106,12.5681016 27.9589678,12.3149943 26.9847227,12.4798756 C26.9471966,12.3353896 26.9028475,12.1841833 26.8584984,12.0262568 C26.0943292,9.30790402 24.507996,4.60034873 22.4849946,3.56878594 L22.7510892,3.232772 C23.6107795,2.12728614 24.5796368,0.480817838 23.1502311,0.0608004136 C21.7208255,-0.35921701 21.5911896,1.48549952 21.6696534,2.86987694 C21.6832993,3.04460419 21.6969452,3.20925102 21.7105911,3.36381744 C21.1330104,3.38974887 20.5921038,3.65005105 20.2163675,4.08288727 L19.994622,3.82415653 C18.8347224,2.48010078 16.709377,0.339691983 16.0646093,1.95591903 C15.4641907,3.46126148 17.3370873,5.4168626 18.6539145,6.54922958 L18.7357898,6.61979251 C17.8522192,10.151299 21.7105911,13.0309385 23.7881759,14.2909907 L24.057682,14.4522774 C21.1920477,17.7788154 19.4214951,24.0152341 19.4214951,24.0152341 L27.4452711,25.4264927 C27.4452711,25.4264927 32.7671633,20.9037451 32.0848694,16.6565289 L32.1394529,16.6565289 C37.4579337,15.6081654 38.6655938,10.0236137 37.8366068,6.70715613 L37.9321279,6.6701946 C38.9011178,6.27994371 39.7500649,5.64760186 40.3952088,4.83555849 C41.8826095,2.80267416 38.7713494,0.504338813 37.2361882,2.50026161 Z" id="Path" fill="#000000" opacity="0.1"></path>
                    <path d="M21.2636886,4.79859696 L20.3255345,7.48670847 C20.3255345,7.48670847 19.8035797,7.12381341 19.1451661,6.55258972 C17.8283389,5.42022274 15.9554422,3.46462162 16.5558609,1.95927917 C17.2006286,0.343052123 19.325974,2.47674064 20.4858736,3.82751667 C20.9532449,4.36513897 21.2636886,4.79859696 21.2636886,4.79859696 Z" id="Path" fill="#B3143C"></path>
                    <path d="M23.2423408,3.23613214 C22.9573624,3.60613898 22.6521533,3.96059768 22.328067,4.29793619 C22.2479832,3.82611775 22.1921912,3.35061001 22.160905,2.87323708 C22.0824412,1.48885966 22.2325459,-0.349136592 23.6414827,0.064160553 C25.0504196,0.477457698 24.1020311,2.13064628 23.2423408,3.23613214 Z" id="Path" fill="#B3143C"></path>
                    <path d="M35.35988,3.66286984 C35.3325883,4.55330678 35.2438901,5.26565633 35.2438901,5.26565633 C34.8312348,4.94752539 34.4403411,4.6029226 34.0737561,4.23409354 C33.0127891,3.14876851 31.8392436,1.4754191 33.4835719,0.470737419 C35.1824836,-0.577626071 35.3939947,1.89207638 35.35988,3.66286984 Z" id="Path" fill="#B3143C"></path>
                    <path d="M40.8864604,4.82883821 C40.2413165,5.64088158 39.3923694,6.27322343 38.4233795,6.66347432 C38.1543967,6.77810688 37.878716,6.87684605 37.5978039,6.95916658 L36.4924879,5.43030316 C36.6085425,4.92509417 36.7613151,4.42875478 36.9496248,3.94512155 C37.1390558,3.43006008 37.4008765,2.94370514 37.7274398,2.50026161 C39.255778,0.504338813 42.3738611,2.80267416 40.8864604,4.82883821 Z" id="Path" fill="#B3143C"></path>
                    <path d="M20.4858736,3.82751667 C20.9532449,4.36513897 21.2636886,4.78179626 21.2636886,4.78179626 L20.3255345,7.46990777 C20.3255345,7.46990777 19.8035797,7.10701272 19.1451661,6.53578902 C19.2914517,5.66956394 19.6549586,4.8530075 20.2027216,4.16017047 C20.2948313,4.04928587 20.3937639,3.93504113 20.4858736,3.82751667 Z" id="Path" fill="#000000" opacity="0.1"></path>
                    <path d="M23.2423408,3.23613214 C22.9573624,3.60613898 22.6521533,3.96059768 22.328067,4.29793619 C22.2479832,3.82611775 22.1921912,3.35061001 22.160905,2.87323708 C22.5508001,2.88120118 22.928608,3.00798135 23.2423408,3.23613214 L23.2423408,3.23613214 Z" id="Path" fill="#000000" opacity="0.1"></path>
                    <path d="M27.8546474,13.9751376 L25.5212024,14.9831795 C25.5212024,14.9831795 25.0128934,14.7412494 24.2794275,14.2909907 C21.826581,12.8058091 16.8970078,9.06597398 20.1856643,4.6574711 C23.4743207,0.24896822 26.2478453,8.15537621 27.3497499,12.0228966 C27.6806625,13.1989454 27.8546474,13.9751376 27.8546474,13.9751376 Z" id="Path" fill="#B3143C"></path>
                    <path d="M34.0566987,4.23409354 C34.3961108,3.88959708 34.8559848,3.68534702 35.3428227,3.66286984 C35.3155309,4.55330678 35.2268327,5.26565633 35.2268327,5.26565633 C34.8141775,4.94752539 34.4232837,4.6029226 34.0566987,4.23409354 Z" id="Path" fill="#000000" opacity="0.1"></path>
                    <path d="M38.4302025,6.66347432 C38.1612197,6.77810688 37.885539,6.87684605 37.6046269,6.95916658 L36.4993108,5.43030316 C36.6153655,4.92509417 36.768138,4.42875478 36.9564477,3.94512155 C37.6626218,4.35505856 38.1879881,5.37654093 38.4302025,6.66347432 Z" id="Path" fill="#000000" opacity="0.1"></path>
                    <path d="M32.6307045,16.6498086 C32.5044802,16.6766897 32.3714329,16.7002107 32.2383856,16.7203715 C24.4158863,17.8897 29.6593147,13.7332076 29.6593147,13.7332076 C29.6593147,13.7332076 30.0004616,13.3971937 30.4883018,12.8898126 C31.4332788,11.8649701 32.85245,10.0706557 33.0162006,8.4107468 C33.2618264,5.91416323 33.5449783,3.57214608 36.536837,4.25761451 C39.4741121,4.93636267 40.0370045,15.188148 32.6307045,16.6498086 Z" id="Path" fill="#B3143C"></path>
                    <rect id="Rectangle" fill="#D4DFEC" x="17.538364" y="35.8328444" width="14.9456473" height="3.87088058"></rect>
                    <rect id="Rectangle" fill="#D4DFEC" x="15.1639814" y="23.2524825" width="19.5272507" height="13.5077604"></rect>
                    <rect id="Rectangle" fill="#000000" opacity="0.1" x="17.538364" y="35.8328444" width="14.9456473" height="3.87088058"></rect>
                    <rect id="Rectangle" fill="#000000" opacity="0.1" x="15.1639814" y="23.2524825" width="19.5272507" height="13.5077604"></rect>
                    <rect id="Rectangle" fill="#D4DFEC" x="18.5208672" y="35.8328444" width="14.9456473" height="3.87088058"></rect>
                    <path d="M27.3497499,12.0262568 C27.6908969,13.1821447 27.8546474,13.9751376 27.8546474,13.9751376 L25.5212024,14.9831795 C25.5212024,14.9831795 25.0128934,14.7412494 24.2794275,14.2909907 C25.1937013,13.1519035 26.2239651,12.2917078 27.3497499,12.0262568 Z" id="Path" fill="#000000" opacity="0.1"></path>
                    <path d="M32.6307045,16.6498086 C32.5044802,16.6766897 32.3714329,16.7002107 32.2383856,16.7203715 C24.4158863,17.8897 29.6593147,13.7332076 29.6593147,13.7332076 C29.6593147,13.7332076 30.0004616,13.3971937 30.4883018,12.8898126 C31.9484107,14.0423404 32.5522407,15.3393542 32.6307045,16.6498086 Z" id="Path" fill="#000000" opacity="0.1"></path>
                    <path d="M19.9127467,24.0185943 C19.9127467,24.0185943 24.2930734,8.56195307 30.4371297,13.3299909 C36.5811861,18.0980287 27.9365227,25.4264927 27.9365227,25.4264927 L19.9127467,24.0185943 Z" id="Path" fill="#B3143C"></path>
                    <ellipse id="Oval" fill="#000000" opacity="0.1" cx="22.1233789" cy="7.0801316" rx="1" ry="1"></ellipse>
                    <ellipse id="Oval" fill="#000000" opacity="0.1" cx="22.0824412" cy="9.33814527" rx="1" ry="1"></ellipse>
                    <ellipse id="Oval" fill="#000000" opacity="0.1" cx="36.3321488" cy="7.52367" rx="1" ry="1"></ellipse>
                    <ellipse id="Oval" fill="#000000" opacity="0.1" cx="24.8696117" cy="19.0993502" rx="1" ry="1"></ellipse>
                    <ellipse id="Oval" fill="#000000" opacity="0.1" cx="35.308708" cy="11.2735856" rx="1" ry="1"></ellipse>
                    <ellipse id="Oval" fill="#000000" opacity="0.1" cx="30.2324416" cy="16.2768331" rx="1" ry="1"></ellipse>
                    <ellipse id="Oval" fill="#000000" opacity="0.1" cx="23.8018218" cy="8.04785175" rx="1" ry="1"></ellipse>
                    <ellipse id="Oval" fill="#000000" opacity="0.1" cx="34.9812069" cy="8.97525022" rx="1" ry="1"></ellipse>
                    <ellipse id="Oval" fill="#000000" opacity="0.1" cx="33.302764" cy="12.7251658" rx="1" ry="1"></ellipse>
                    <ellipse id="Oval" fill="#000000" opacity="0.1" cx="28.1446223" cy="18.7364552" rx="1" ry="1"></ellipse>
                    <ellipse id="Oval" fill="#000000" opacity="0.1" cx="27.0802439" cy="16.3574765" rx="1" ry="1"></ellipse>
                    <ellipse id="Oval" fill="#000000" opacity="0.1" cx="24.5386992" cy="10.9913339" rx="1" ry="1"></ellipse>
                    <rect id="Rectangle" fill="#000000" opacity="0.1" x="18.5208672" y="35.8328444" width="14.9456473" height="1.41461868"></rect>
                    <rect id="Rectangle" fill="#D4DFEC" x="16.1464845" y="23.2524825" width="19.5272507" height="13.5077604"></rect>
                    <ellipse id="Oval" fill="#000000" opacity="0.1" cx="28.7996244" cy="20.9138255" rx="1" ry="1"></ellipse>
                    <ellipse id="Oval" fill="#000000" opacity="0.1" cx="25.8521149" cy="21.5186506" rx="1" ry="1"></ellipse>
                </g>
                <path d="M93.1965035,200 C93.1965035,200 93.9938908,201.282005 92.8298217,203.222919 C91.6657526,205.163832 90.7053956,206.803939 91.083718,208 C91.083718,208 92.8298217,204.418979 94.2849081,204.354521 C95.7399945,204.290063 94.7709069,202.162936 93.1965035,200 Z" id="Path" fill="#B3143C"></path>
                <path d="M93.1694016,200 C93.2413148,200.122554 93.2969427,200.258146 93.3342408,200.401794 C94.7471482,202.425112 95.4977552,204.30852 94.1407754,204.347982 C92.8779894,204.391031 91.3620575,207.146188 91,207.842152 C91.0110487,207.895755 91.0248117,207.948472 91.0412098,208 C91.0412098,208 92.807344,204.412556 94.2791226,204.347982 C95.7509011,204.283408 94.7618659,202.166816 93.1694016,200 Z" id="Path" fill="#000000" opacity="0.1"></path>
                <path d="M96.1077895,202.262164 C96.1077895,202.669916 96.0572632,203 96,203 C95.9427368,203 95.8922105,202.676388 95.8922105,202.262164 C95.8922105,201.847941 95.9528421,202.04858 96.0101053,202.04858 C96.0673685,202.04858 96.1077895,201.854413 96.1077895,202.262164 Z" id="Path" fill="#FFD037"></path>
                <path d="M96.7621793,202.503652 C96.3732019,202.850885 96.0301946,203.082373 96.0019053,202.972416 C95.9736161,202.862459 96.263581,202.532588 96.6560945,202.179569 C97.0486081,201.826549 96.8930171,202.086973 96.9213064,202.179569 C96.9495957,202.272164 97.1546928,202.150633 96.7621793,202.503652 Z" id="Path" fill="#FFD037"></path>
                <path d="M88.7948346,200 C88.7948346,200 87.9946493,201.282005 89.162803,203.222919 C90.3309567,205.163832 91.297604,206.803939 90.9150336,208 C90.9150336,208 89.162803,204.418979 87.7172128,204.354521 C86.2716225,204.290063 87.2061455,202.162936 88.7948346,200 Z" id="Path" fill="#B3143C"></path>
                <path d="M88.8210097,200 C88.7504466,200.123694 88.694771,200.258989 88.6556663,200.401794 C87.2384368,202.425112 86.4855337,204.30852 87.8466645,204.347982 C89.1133133,204.391031 90.6338824,207.146188 91,207.842152 C90.9878952,207.895815 90.9731049,207.948528 90.9557116,208 C90.9557116,208 89.1841748,204.412556 87.7226569,204.347982 C86.261139,204.283408 87.2148163,202.166816 88.8210097,200 Z" id="Path" fill="#000000" opacity="0.1"></path>
                <path d="M87.8938947,202.262164 C87.8938947,202.669916 87.9410526,203 87.9983158,203 C88.055579,203 88.1061053,202.676388 88.1061053,202.262164 C88.1061053,201.847941 88.0454737,202.04858 87.9882105,202.04858 C87.9309473,202.04858 87.8938947,201.854413 87.8938947,202.262164 Z" id="Path" fill="#FFD037"></path>
                <path d="M87.2368808,202.503652 C87.627843,202.850885 87.9659725,203.082373 87.9976722,202.972416 C88.0293718,202.862459 87.7335085,202.532588 87.3425463,202.179569 C86.951584,201.826549 87.1065601,202.086973 87.0783826,202.179569 C87.0502051,202.272164 86.8459186,202.150633 87.2368808,202.503652 Z" id="Path" fill="#FFD037"></path>
                <ellipse id="Oval" fill="#B3143C" opacity="0.1" cx="91" cy="215.5" rx="10" ry="1.5"></ellipse>
                <path d="M96.99797,206.56229 L96.9504995,206.939394 L96.8860751,207.47138 L96.8589491,207.693603 L96.7945248,208.225589 L96.764008,208.447811 L96.6995837,208.979798 L95.9570088,215.040404 C95.8925845,215.579125 95.0042072,216 93.9225569,216 L90.0774429,216 C89.0059649,216 88.1175876,215.579125 88.042991,215.040404 L87.3004161,208.979798 L87.2359918,208.447811 L87.2088658,208.225589 L87.1410507,207.693603 L87.1139247,207.47138 L87.0495004,206.939394 L87.0020298,206.56229 C86.9647316,206.255892 87.4462185,206 88.0531633,206 L95.9502273,206 C96.5537813,206 97.0352683,206.255892 96.99797,206.56229 Z" id="Path" fill="#65617D"></path>
                <polygon id="Path" fill="#9D9CB5" points="97 207 96.9349315 208 87.0650685 208 87 207"></polygon>
                <polygon id="Path" fill="#9D9CB5" points="97 208 96.9337055 209 87.0697837 209 87 208"></polygon>
                <polygon id="Path" fill="#9D9CB5" points="97 208 96.9288509 209 87.0675916 209 87 208"></polygon>
                <path d="M371.100802,195 C371.100802,195 370.053256,201.260674 374.712078,202 L375,201.303933 C375,201.303933 371.388724,196.942697 371.100802,195 Z" id="Path" fill="#B3143C"></path>
                <path d="M378,201.698304 L376.928177,201.970921 L376.822206,202 C376.822206,202 373.96401,199.21567 374.000343,193 C374.382296,193.916461 374.839751,194.784687 375.365858,195.59168 C376.498236,197.390953 377.78503,199.789984 378,201.698304 Z" id="Path" fill="#B3143C"></path>
                <path d="M377.680169,201.875702 C377.500634,202.002392 377.277831,202.034167 377.074171,201.962126 C374.17814,201.229244 375.160494,191 375.160494,191 C375.319967,191.079511 375.47944,192.382797 376.161985,194.062896 C377.326138,197.011712 378.611491,201.135905 377.680169,201.875702 Z" id="Path" fill="#B3143C"></path>
                <path d="M383.999018,195 C383.999018,195 384.188448,201.260674 379.305014,202 L379,201.292135 C379,201.292135 383.697215,196.942697 383.999018,195 Z" id="Path" fill="#B3143C"></path>
                <path d="M382.999727,193 C383.037155,199.21567 379.213284,202 379.213284,202 L379.101,201.970921 L378,201.698304 C378.218329,199.789984 379.559491,197.390953 380.710395,195.59168 C381.371072,194.612833 382.140992,193.741231 382.999727,193 Z" id="Path" fill="#B3143C"></path>
                <path d="M378.926906,201.343913 C378.743279,201.573739 378.509449,201.757241 378.243844,201.879956 L378.243844,201.879956 C378.161583,201.917509 378.075757,201.946479 377.987696,201.966415 C377.226082,202.146249 376.963103,201.589455 377.004087,200.641868 C377.075808,198.957654 378.120893,196.035352 379.053273,193.846219 C379.502318,192.772201 380.164992,191.803336 381,191 C381,191 380.952186,198.964571 378.926906,201.343913 Z" id="Path" fill="#B3143C"></path>
                <path d="M378.754951,188 C378.754951,188 375.163876,200.046047 378.2556,201.846262 C381.347325,203.646477 379.548246,189.064068 378.754951,188 Z" id="Path" fill="#B3143C"></path>
                <path d="M371.100802,195 C371.100802,195 370.053256,201.260674 374.712078,202 L375,201.303933 C375,201.303933 371.388724,196.942697 371.100802,195 Z" id="Path" fill="#000000" opacity="0.1"></path>
                <path d="M378,201.698304 L376.928177,201.970921 L376.822206,202 C376.822206,202 373.96401,199.21567 374.000343,193 C374.382296,193.916461 374.839751,194.784687 375.365858,195.59168 C376.498236,197.390953 377.78503,199.789984 378,201.698304 Z" id="Path" fill="#000000" opacity="0.1"></path>
                <path d="M377.680169,201.875702 C377.500634,202.002392 377.277831,202.034167 377.074171,201.962126 C374.17814,201.229244 375.160494,191 375.160494,191 C375.319967,191.079511 375.47944,192.382797 376.161985,194.062896 C377.326138,197.011712 378.611491,201.135905 377.680169,201.875702 Z" id="Path" fill="#000000" opacity="0.1"></path>
                <path d="M383.999018,195 C383.999018,195 384.188448,201.260674 379.305014,202 L379,201.292135 C379,201.292135 383.697215,196.942697 383.999018,195 Z" id="Path" fill="#000000" opacity="0.1"></path>
                <path d="M382.999727,193 C383.037155,199.21567 379.213284,202 379.213284,202 L379.101,201.970921 L378,201.698304 C378.218329,199.789984 379.559491,197.390953 380.710395,195.59168 C381.371072,194.612833 382.140992,193.741231 382.999727,193 Z" id="Path" fill="#000000" opacity="0.1"></path>
                <path d="M378.926906,201.343913 C378.743279,201.573739 378.509449,201.757241 378.243844,201.879956 L378.243844,201.879956 C378.161583,201.917509 378.075757,201.946479 377.987696,201.966415 C377.226082,202.146249 376.963103,201.589455 377.004087,200.641868 C377.075808,198.957654 378.120893,196.035352 379.053273,193.846219 C379.502318,192.772201 380.164992,191.803336 381,191 C381,191 380.952186,198.964571 378.926906,201.343913 Z" id="Path" fill="#000000" opacity="0.1"></path>
                <path d="M378.754951,188 C378.754951,188 375.163876,200.046047 378.2556,201.846262 C381.347325,203.646477 379.548246,189.064068 378.754951,188 Z" id="Path" fill="#000000" opacity="0.1"></path>
                <path d="M371.024406,195 C371.024406,195 370.462087,201.260674 374.73571,202 L375,201.303933 C375,201.303933 371.288696,196.942697 371.024406,195 Z" id="Path" fill="#B3143C"></path>
                <path d="M378,201.697938 L376.791855,201.970886 L376.672405,202 C376.672405,202 372.969474,199.212293 373.00019,193 C373.00019,193 373.948959,194.091791 375.020591,195.594824 C376.307232,197.385362 377.757688,199.787303 378,201.697938 Z" id="Path" fill="#B3143C"></path>
                <path d="M378,201.786325 L376.77931,202 C375.624138,201.162393 375.165517,198.974359 375,197 C376.289655,198.410256 377.755172,200.290598 378,201.786325 Z" id="Path" fill="#000000" opacity="0.1"></path>
                <path d="M378.713323,201.875635 C378.550651,202.002439 378.349159,202.034189 378.164858,201.962059 C375.557494,201.229181 376.034171,191 376.034171,191 C376.177748,191.07951 376.740571,192.382789 377.340724,194.062877 C378.394582,197.011675 379.548943,201.135843 378.713323,201.875635 Z" id="Path" fill="#B3143C"></path>
                <path d="M383.975594,195 C383.975594,195 384.537913,201.260674 380.26429,202 L380,201.303933 C380,201.303933 383.711304,196.942697 383.975594,195 Z" id="Path" fill="#B3143C"></path>
                <path d="M382.999662,193 C383.040699,199.21567 379.330279,202 379.330279,202 L379.210588,201.970921 L378,201.698304 C378.239382,199.789984 379.709871,197.390953 380.975175,195.59168 C382.048974,194.090468 382.999662,193 382.999662,193 Z" id="Path" fill="#B3143C"></path>
                <path d="M381,197 C380.841379,198.840456 380.434483,200.866097 379.444828,201.811966 C379.377202,201.880153 379.302178,201.943093 379.22069,202 L378,201.786325 C378.241379,200.290598 379.710345,198.410256 381,197 Z" id="Path" fill="#000000" opacity="0.1"></path>
                <path d="M379.62474,201.343913 C379.470695,201.574757 379.273255,201.758462 379.04862,201.879956 L379.04862,201.879956 C378.980085,201.917056 378.90869,201.946013 378.835456,201.966415 C378.190201,202.146249 377.971275,201.589455 378.002962,200.641869 C378.066335,198.957654 378.947799,196.035352 379.731323,193.84622 C380.307443,192.272672 380.828832,191.079543 380.967101,191.000001 C380.967101,190.996543 381.332937,198.964571 379.62474,201.343913 Z" id="Path" fill="#B3143C"></path>
                <path d="M378.683869,201.999947 C378.52015,202.001995 378.360218,201.944884 378.22788,201.837116 C376.875749,200.895529 376.84725,197.362809 377.170241,194 C378.332378,197.019449 379.605344,201.24243 378.683869,201.999947 Z" id="Path" fill="#000000" opacity="0.1"></path>
                <path d="M379.65283,201.463787 C379.508978,201.832157 379.315218,202.024949 379.065679,201.997407 L379.065679,201.997407 C378.938043,201.979314 378.816104,201.924952 378.710453,201.839042 C378.383843,201.576728 378.135417,201.201137 378,200.764918 C378.064587,199.08832 378.962928,196.179233 379.761453,194 C380.049157,197.019254 380.146037,200.22097 379.65283,201.463787 Z" id="Path" fill="#000000" opacity="0.1"></path>
                <path d="M378.401059,188 C378.401059,188 375.248677,200.046047 378.401059,201.846262 C381.553441,203.646477 379.210845,189.064068 378.401059,188 Z" id="Path" fill="#B3143C"></path>
                <polygon id="Path" fill="#4B4770" points="383 200 371 200 371 202.287656 372.830901 202.287656 372.877169 202.557912 373.610851 207 380.587441 207 381.321124 202.557912 381.364087 202.287656 383 202.287656"></polygon>
                <polygon id="Path" fill="#000000" opacity="0.1" points="383 200 371 200 371 202.287656 372.830901 202.287656 372.877169 202.557912 373.610851 207 380.587441 207 381.321124 202.557912 381.364087 202.287656 383 202.287656"></polygon>
                <polygon id="Path" fill="#4B4770" points="382 202 381.79492 203.073351 381.048562 207 373.951438 207 373.20508 203.073351 373 202"></polygon>
                <polygon id="Path" fill="#000000" opacity="0.1" points="382 202 381.79492 203 373.20508 203 373 202"></polygon>
                <rect id="Rectangle" fill="#4B4770" x="372" y="201" width="12" height="2"></rect>
                <circle id="Oval" fill="#B3143C" opacity="0.1" cx="42.5" cy="17.5" r="3.5"></circle>
                <circle id="Oval" fill="#B3143C" opacity="0.1" cx="381" cy="129" r="5"></circle>
                <circle id="Oval" fill="#B3143C" opacity="0.1" cx="48" cy="5" r="5"></circle>
                <circle id="Oval" fill="#B3143C" opacity="0.1" cx="30" cy="27" r="5"></circle>
            </g>
        </g>
    </g>
</svg>