<?xml version="1.0" encoding="UTF-8"?>
<svg width="315px" height="240px" viewBox="0 0 315 240" version="1.1" xmlns="http://www.w3.org/2000/svg" xmlns:xlink="http://www.w3.org/1999/xlink">
    <!-- Generator: Sketch 54 (76480) - https://sketchapp.com -->
    <title>undraw_Calculator_0evy</title>
    <desc>Created with Sketch.</desc>
    <defs>
        <linearGradient x1="50.0022696%" y1="100.00331%" x2="50.0022696%" y2="-0.000368254062%" id="linearGradient-1">
            <stop stop-color="#808080" stop-opacity="0.25" offset="0%"></stop>
            <stop stop-color="#808080" stop-opacity="0.12" offset="54%"></stop>
            <stop stop-color="#808080" stop-opacity="0.1" offset="100%"></stop>
        </linearGradient>
    </defs>
    <g id="alternativo" stroke="none" stroke-width="1" fill="none" fill-rule="evenodd">
        <g id="Intro-simulador-version-loading" transform="translate(-30.000000, -206.000000)">
            <g id="undraw_Calculator_0evy" transform="translate(30.000000, 206.000000)">
                <path d="M179.330446,38.2104459 C159.543439,37.5225478 140.698089,31.1357962 122.699618,24.1467516 C104.701146,17.157707 86.88,9.41656051 67.566879,5.7110828 C55.1449682,3.32942675 40.9406369,2.99312102 30.9309554,9.65197452 C21.3003822,16.0723567 18.1880255,27.124586 16.5126115,37.3910828 C15.256051,45.1138854 14.5161783,53.2433121 17.9648408,60.4738854 C20.3587261,65.4940127 24.611465,69.713121 27.5526115,74.5192357 C37.7824204,91.2489172 30.5518471,111.891975 19.4690446,128.215032 C14.2715924,135.879745 8.23643312,143.195924 4.22216561,151.346752 C0.207898089,159.49758 -1.64789809,168.849936 1.86191083,177.171975 C5.34420382,185.426752 13.6387261,191.614777 22.6242038,195.971465 C40.8703185,204.837707 62.3694268,207.353885 83.3457325,208.787771 C129.762038,211.964331 176.429045,210.588535 222.967643,209.212739 C240.192611,208.702166 257.490955,208.185478 274.437707,205.522548 C283.845096,204.04586 293.561274,201.697834 300.391338,196.044841 C309.061911,188.850955 311.21121,176.670573 305.402293,167.648408 C295.655541,152.517707 268.714395,148.760255 261.893503,132.522803 C258.142166,123.583185 261.994395,113.628535 267.442548,105.33707 C279.133758,87.5556688 298.728153,71.9541401 299.761529,51.6290446 C300.470828,37.6692994 291.05121,23.6881529 276.486115,17.0812739 C261.217834,10.1594904 240.048917,11.030828 228.791847,22.4896815 C217.180127,34.2756688 196.793885,38.8219108 179.330446,38.2104459 Z" id="Path" fill="#6BA4B8" opacity="0.3"></path>
                <ellipse id="Oval" fill="#BF0C3F" opacity="0.1" cx="177.260637" cy="222.444841" rx="113.420637" ry="8.43210191"></ellipse>
                <path d="M89.5612739,195.133758 C89.5612739,195.133758 95.9816561,194.106497 99.8338854,198.646624 C99.8338854,198.646624 97.0089172,200.872357 90.9309554,197.790573 L89.5612739,195.133758 Z" id="Path" fill="#BF0C3F"></path>
                <path d="M88.8703185,195.05121 C88.8703185,195.05121 84.7765605,200.101911 86.7852229,205.705987 C86.7852229,205.705987 90.1238217,204.366879 90.4876433,197.561274 L88.8703185,195.05121 Z" id="Path" fill="#BF0C3F"></path>
                <path d="M85.2015287,186.744459 C85.2015287,186.744459 87.7696815,182.036178 98.042293,188.627771 C98.042293,188.627771 96.6726115,191.795159 92.1355414,191.538344 C87.5984713,191.281529 86.3938854,189.242293 85.2015287,186.744459 Z" id="Path" fill="#BF0C3F"></path>
                <path d="M84.5319745,186.405096 C84.5319745,186.405096 79.2030573,185.793631 78.6863694,197.995414 C78.6863694,197.995414 82.0647134,198.695541 84.4647134,194.837197 C86.8647134,190.978854 85.8741401,188.814268 84.5319745,186.405096 Z" id="Path" fill="#BF0C3F"></path>
                <path d="M81.4287898,176.676688 C81.4287898,176.676688 84.4249682,168.372994 95.2968153,174.279745 C95.2968153,174.279745 92.8142675,181.898599 82.5416561,179.501656 L81.4287898,176.676688 Z" id="Path" fill="#BF0C3F"></path>
                <path d="M78.0871338,164.263949 C78.0871338,164.263949 83.7401274,155.871592 93.7559236,163.652484 C93.7559236,163.652484 90.2461146,171.528153 78.9431847,167.247898 L78.0871338,164.263949 Z" id="Path" fill="#BF0C3F"></path>
                <path d="M76.8886624,152.447389 C76.8886624,152.447389 83.4833121,144.74293 93.4135032,152.447389 C93.4135032,152.447389 87.1643312,159.210191 76.8886624,154.416306 L76.8886624,152.447389 Z" id="Path" fill="#BF0C3F"></path>
                <path d="M75.8614013,140.976306 C75.8614013,140.976306 82.5416561,132.929427 92.0438217,140.54828 C92.0438217,140.54828 84.5105732,147.653503 75.8614013,142.859618 L75.8614013,140.976306 Z" id="Path" fill="#BF0C3F"></path>
                <path d="M76.4606369,130.789299 C76.4606369,130.789299 83.4924841,120.428025 92.386242,127.450701 C92.386242,127.450701 84.8529936,136.353631 76.4606369,132.758217 L76.4606369,130.789299 Z" id="Path" fill="#BF0C3F"></path>
                <path d="M78.0871338,118.887134 C78.0871338,118.887134 85.5378344,108.614522 94.183949,116.490191 C94.183949,116.490191 85.3666242,125.396178 78.0871338,120.770446 L78.0871338,118.887134 Z" id="Path" fill="#BF0C3F"></path>
                <path d="M80.5727389,108.250701 C80.5727389,108.250701 89.3900637,98.5987261 97.082293,102.441783 C97.082293,102.441783 87.8919745,112.692994 80.1875159,110.809682 L80.5727389,108.250701 Z" id="Path" fill="#BF0C3F"></path>
                <path d="M83.6545223,98.1707006 C83.6545223,98.1707006 93.8415287,86.3571975 99.7482803,90.2950318 C99.7482803,90.2950318 92.2517197,99.4670064 82.9329936,100.384204 L83.6545223,98.1707006 Z" id="Path" fill="#BF0C3F"></path>
                <path d="M88.1029299,86.4764331 C88.1029299,86.4764331 97.0089172,76.8214013 103.514904,79.2183439 C103.514904,79.2183439 95.896051,89.2341401 86.9075159,89.4909554 L88.1029299,86.4764331 Z" id="Path" fill="#BF0C3F"></path>
                <path d="M92.1294268,75.5373248 C92.1294268,75.5373248 101.974013,66.2889172 106.254268,67.915414 C106.254268,67.915414 99.1490446,78.1910828 91.7014013,77.5918471 L92.1294268,75.5373248 Z" id="Path" fill="#BF0C3F"></path>
                <path d="M96.0672611,65.4206369 C96.0672611,65.4206369 104.542166,54.3775796 109.164841,55.2336306 C109.164841,55.2336306 104.028535,65.0782166 96.0672611,66.5457325 L96.0672611,65.4206369 Z" id="Path" fill="#BF0C3F"></path>
                <path d="M100.341401,51.8155414 C100.341401,51.8155414 107.831847,43.3467516 111.876688,43.3681124 C111.876688,43.3681124 105.963822,54.6802548 100.032611,54.5763057 L100.341401,51.8155414 Z" id="Path" fill="#BF0C3F"></path>
                <path d="M102.872866,42.7475159 L110.106497,25.1098089 C110.106497,25.1098089 110.470318,41.053758 101.952611,46.0188535 L102.872866,42.7475159 Z" id="Path" fill="#BF0C3F"></path>
                <path d="M105.810955,23.2968153 C105.810955,23.2968153 107.009427,8.57273885 106.238981,7.37426752 C106.238981,7.37426752 111.411975,19.6035669 105.758981,29.8028025 L105.810955,23.2968153 Z" id="Path" fill="#BF0C3F"></path>
                <path d="M81.1475159,176.477962 C81.1475159,176.477962 73.6448408,171.827771 68.7867516,183.204076 C68.7867516,183.204076 75.463949,187.63414 82.0280255,179.379363 L81.1475159,176.477962 Z" id="Path" fill="#BF0C3F"></path>
                <path d="M77.863949,163.790064 C77.863949,163.790064 68.6614013,159.592357 64.1946497,171.470064 C64.1946497,171.470064 71.3059873,176.361783 78.7016561,166.792357 L77.863949,163.790064 Z" id="Path" fill="#BF0C3F"></path>
                <path d="M76.4606369,153.16586 C76.4606369,153.16586 69.8690446,145.461401 59.9510828,153.16586 C59.9510828,153.16586 66.2002548,159.928662 76.4606369,155.134777 L76.4606369,153.16586 Z" id="Path" fill="#BF0C3F"></path>
                <path d="M75.6382166,140.976306 C75.6382166,140.976306 68.9610191,132.929427 59.4557962,140.54828 C59.4557962,140.54828 66.9921019,147.653503 75.6382166,142.859618 L75.6382166,140.976306 Z" id="Path" fill="#BF0C3F"></path>
                <path d="M76.4606369,131.082803 C76.4606369,131.082803 71.7768153,119.464968 61.5959236,124.469809 C61.5959236,124.469809 67.0991083,134.757707 76.0478981,133.00586 L76.4606369,131.082803 Z" id="Path" fill="#BF0C3F"></path>
                <path d="M78.6771975,118.829045 C78.6771975,118.829045 74.023949,107.024713 63.6963057,112.500382 C63.6963057,112.500382 70.0188535,123.320255 78.2185987,120.654268 L78.6771975,118.829045 Z" id="Path" fill="#BF0C3F"></path>
                <path d="M81.5633121,108.311847 C81.5633121,108.311847 79.7289172,95.3701911 71.1684076,94.211465 C71.1684076,94.211465 72.9814013,107.859363 80.4076433,110.644586 L81.5633121,108.311847 Z" id="Path" fill="#BF0C3F"></path>
                <path d="M83.8715924,98.1921019 C83.8715924,98.1921019 83.1561783,82.5997452 76.0784713,82.0585987 C76.0784713,82.0585987 76.3169427,93.8935032 83.0736306,100.402548 L83.8715924,98.1921019 Z" id="Path" fill="#BF0C3F"></path>
                <path d="M88.8366879,86.0300637 C88.8366879,86.0300637 86.7240764,73.063949 79.9704459,71.4771975 C79.9704459,71.4771975 80.8081529,84.0366879 88.1701911,89.2096815 L88.8366879,86.0300637 Z" id="Path" fill="#BF0C3F"></path>
                <path d="M92.9304459,75.6290446 C92.9304459,75.6290446 92.8570701,62.1248408 88.7327389,60.1375796 C88.7327389,60.1375796 86.1707006,72.366879 91.7350318,77.3533758 L92.9304459,75.6290446 Z" id="Path" fill="#BF0C3F"></path>
                <path d="M96.3821656,65.2830573 C96.3821656,65.2830573 95.8043312,51.3752866 91.5301911,49.4155414 C91.5301911,49.4155414 90.0657325,60.4219108 95.7401274,66.1941401 L96.3821656,65.2830573 Z" id="Path" fill="#BF0C3F"></path>
                <path d="M100.93758,52.922293 C100.93758,52.922293 100.910064,41.6101911 97.8619108,38.9594904 C97.8619108,38.9594904 94.8259873,51.350828 99.3447134,55.2 L100.93758,52.922293 Z" id="Path" fill="#BF0C3F"></path>
                <path d="M102.512102,42.1849682 L99.5464968,23.3549045 C99.5464968,23.3549045 95.5138854,38.7821656 102.655796,45.5785987 L102.512102,42.1849682 Z" id="Path" fill="#BF0C3F"></path>
                <path d="M103.092994,23.4771975 C103.092994,23.4771975 95.4741401,10.8198726 95.6300637,9.41350318 C95.6300637,9.41350318 96.4402548,22.6792357 106.024968,29.2861146 L103.092994,23.4771975 Z" id="Path" fill="#BF0C3F"></path>
                <path d="M103.985732,19.7380892 C103.985732,19.7380892 96.7949045,1.76101911 93.5419108,0.299617834 C93.5419108,0.299617834 103.814522,5.52152866 104.584968,19.2183439 L103.985732,19.7380892 Z" id="Path" fill="#BF0C3F"></path>
                <path d="M99.9928662,54.6833121 L99.5036943,54.5304459 C105.572484,34.7434395 107.08586,22.1228025 103.765605,18.9615287 L104.120255,18.588535 C107.639236,21.9271338 106.211465,34.4071338 99.9928662,54.6833121 Z" id="Path" fill="#444053"></path>
                <path d="M83.284586,101.004841 L82.5569427,100.748025 C83.1989809,98.9350318 83.896051,97.0945223 84.6236943,95.2815287 C90.9584713,79.4843312 96.348535,64.809172 99.8063694,53.5307006 L100.439236,53.2249682 C96.9752866,64.5034395 91.68,79.7594904 85.3391083,95.5689172 C84.6145223,97.3727389 83.9235669,99.2010191 83.284586,101.004841 Z" id="Path" fill="#444053"></path>
                <path d="M98.5956688,209.946497 C98.4978344,209.836433 88.6593631,198.762803 81.8048408,179.850191 C77.7850936,168.780573 75.5458311,157.143631 75.1704459,145.372739 C74.7026752,130.657834 77.7875159,114.224713 83.0797452,99.3019108 L83.6545223,99.9745223 C71.7798726,133.470573 76.4973248,162.175796 82.7556688,179.458854 C89.5398726,198.197197 99.2652229,209.151592 99.36,209.261656 L98.5956688,209.946497 Z" id="Path" fill="#444053"></path>
                <path d="M55.7289172,207.53121 C55.7289172,207.53121 44.0957962,206.831083 45.468535,214.981911 C45.468535,214.981911 45.1964331,216.421911 46.5019108,217.076178 C46.5019108,217.076178 46.5202548,216.464713 47.6942675,216.675669 C48.1112671,216.745849 48.5351132,216.766374 48.9569427,216.736815 C49.5279826,216.698444 50.0710114,216.475223 50.503949,216.100892 L50.503949,216.100892 C50.503949,216.100892 53.7722293,214.749554 55.0440764,209.40535 C55.0440764,209.40535 55.9857325,208.24051 55.9459873,207.940892 L53.9831847,208.778599 C53.9831847,208.778599 54.6557962,210.19414 54.126879,211.37121 C54.126879,211.37121 54.0626752,208.830573 53.6866242,208.888662 C53.6101911,208.888662 52.6654777,209.380892 52.6654777,209.380892 C52.6654777,209.380892 53.8211465,211.848153 52.9498089,213.639745 C52.9498089,213.639745 53.28,210.600764 52.3077707,209.558217 L50.9258599,210.36535 C50.9258599,210.36535 52.2741401,212.912102 51.36,214.991083 C51.36,214.991083 51.5923567,211.802293 50.635414,210.561019 L49.3819108,211.539363 C49.3819108,211.539363 50.6476433,214.049427 49.8771975,215.773758 C49.8771975,215.773758 49.7763057,212.062166 49.1098089,211.780892 C49.1098089,211.780892 48.0152866,212.747006 47.8471338,213.144459 C47.8471338,213.144459 48.715414,214.978854 48.1773248,215.929682 C48.1773248,215.929682 47.8471338,213.456306 47.5658599,213.444076 C47.5658599,213.444076 46.4743949,215.082803 46.3612739,216.195669 C46.4141346,215.158169 46.737732,214.152593 47.2998726,213.278981 C46.6708202,213.397995 46.0904566,213.698807 45.6305732,214.144204 C45.6305732,214.144204 45.7987261,212.985478 47.5689172,212.884586 C47.5689172,212.884586 48.4861146,211.640255 48.7123567,211.563822 C48.7123567,211.563822 46.9513376,211.41707 45.8843312,211.890955 C45.8843312,211.890955 46.8229299,210.79949 49.0364331,211.27949 L50.2593631,210.270573 C50.2593631,210.270573 47.9419108,209.964841 46.9574522,210.304204 C46.9574522,210.304204 48.0886624,209.338089 50.5926115,210.041274 L51.9378344,209.237197 C51.9378344,209.237197 49.9628025,208.812229 48.7826752,208.965096 C48.7826752,208.965096 50.0270064,208.295541 52.3322293,209.020127 L53.2952866,208.589045 C53.2952866,208.589045 51.8461146,208.304713 51.4242038,208.258854 C51.002293,208.212994 50.9747771,208.096815 50.9747771,208.096815 C51.8925779,207.944136 52.8347625,208.049999 53.6957962,208.402548 C53.6957962,208.402548 55.7625478,207.659618 55.7289172,207.53121 Z" id="Path" fill="#BF0C3F"></path>
                <path d="M21.9149045,211.313121 C21.9149045,211.313121 10.2970701,210.612994 11.6575796,218.763822 C11.6575796,218.763822 11.3824204,220.203822 12.6878981,220.858089 C12.6878981,220.858089 12.7092994,220.246624 13.8833121,220.45758 C14.300148,220.529262 14.7241754,220.549796 15.1459873,220.518726 C15.7162684,220.481025 16.2585306,220.257677 16.6899363,219.882803 L16.6899363,219.882803 C16.6899363,219.882803 19.9612739,218.531465 21.233121,213.187261 C21.233121,213.187261 22.1717197,212.02242 22.1503185,211.722803 L20.1875159,212.56051 C20.1875159,212.56051 20.8601274,213.976051 20.3312102,215.153121 C20.3312102,215.153121 20.2670064,212.612484 19.8909554,212.670573 C19.8145223,212.670573 18.8698089,213.162803 18.8698089,213.162803 C18.8698089,213.162803 20.0254777,215.630064 19.1541401,217.421656 C19.1541401,217.421656 19.4843312,214.382675 18.5090446,213.340127 L17.1271338,214.147261 C17.1271338,214.147261 18.475414,216.694013 17.5612739,218.772994 C17.5612739,218.772994 17.7966879,215.584204 16.8366879,214.34293 L15.586242,215.321274 C15.586242,215.321274 16.8519745,217.831338 16.0815287,219.555669 C16.0815287,219.555669 15.9806369,215.844076 15.3141401,215.562803 C15.3141401,215.562803 14.2196178,216.528917 14.051465,216.926369 C14.051465,216.926369 14.9197452,218.760764 14.3816561,219.711592 C14.3816561,219.711592 14.051465,217.238217 13.7701911,217.225987 C13.7701911,217.225987 12.6817834,218.864713 12.5656051,219.97758 C12.6202278,218.939953 12.9448176,217.934568 13.5072611,217.060892 C12.8774147,217.180197 12.2961486,217.480925 11.8349045,217.926115 C11.8349045,217.926115 12.0061146,216.767389 13.7763057,216.666497 C13.7763057,216.666497 14.6935032,215.422166 14.9197452,215.34879 C14.9197452,215.34879 13.1587261,215.198981 12.0917197,215.672866 C12.0917197,215.672866 13.0303185,214.581401 15.2438217,215.061401 L16.4667516,214.052484 C16.4667516,214.052484 14.1492994,213.746752 13.1648408,214.086115 C13.1648408,214.086115 14.296051,213.12 16.8,213.823185 L18.1452229,213.019108 C18.1452229,213.019108 16.1671338,212.59414 14.9900637,212.747006 C14.9900637,212.747006 16.2343949,212.077452 18.5396178,212.802038 L19.5026752,212.370955 C19.5026752,212.370955 18.0535032,212.086624 17.628535,212.040764 C17.2035669,211.994904 17.1821656,211.878726 17.1821656,211.878726 C18.1000168,211.727984 19.041672,211.833788 19.9031847,212.184459 C19.9031847,212.184459 21.9393631,211.441529 21.9149045,211.313121 Z" id="Path" fill="#BF0C3F"></path>
                <path d="M40.7602548,220.191592 C40.7602548,220.191592 29.1424204,219.491465 30.4998726,227.642293 C30.4998726,227.642293 30.2277707,229.082293 31.5332484,229.736561 C31.5332484,229.736561 31.5546497,229.125096 32.7256051,229.336051 C33.1436256,229.406301 33.568492,229.426826 33.9913376,229.397197 C34.561311,229.358176 35.1031693,229.134994 35.5352866,228.761274 L35.5352866,228.761274 C35.5352866,228.761274 38.8035669,227.409936 40.075414,222.065732 C40.075414,222.065732 41.0170701,220.900892 40.9926115,220.601274 L39.0298089,221.438981 C39.0298089,221.438981 39.6993631,222.854522 39.1735032,224.031592 C39.1735032,224.031592 39.1092994,221.490955 38.7301911,221.549045 C38.653758,221.549045 37.7121019,222.041274 37.7121019,222.041274 C37.7121019,222.041274 38.8647134,224.505478 37.9933758,226.300127 C37.9933758,226.300127 38.3235669,223.261146 37.3513376,222.218599 L35.9694268,223.025732 C35.9694268,223.025732 37.317707,225.572484 36.4035669,227.651465 C36.4035669,227.651465 36.6389809,224.462675 35.6789809,223.221401 L34.4254777,224.199745 C34.4254777,224.199745 35.6942675,226.709809 34.9207643,228.43414 C34.9207643,228.43414 34.8198726,224.722548 34.1564331,224.441274 C34.1564331,224.441274 33.0588535,225.407389 32.893758,225.804841 C32.893758,225.804841 33.7620382,227.639236 33.2208917,228.590064 C33.2208917,228.590064 32.8907006,226.116688 32.6094268,226.104459 C32.6094268,226.104459 31.5179618,227.743185 31.4048408,228.856051 C31.4577015,227.818551 31.7812989,226.812975 32.3434395,225.939363 C31.7143871,226.058378 31.1340235,226.359189 30.6741401,226.804586 C30.6741401,226.804586 30.842293,225.64586 32.6155414,225.544968 C32.6155414,225.544968 33.5143949,224.300637 33.7559236,224.224204 C33.7559236,224.224204 31.9949045,224.077452 30.9278981,224.551338 C30.9278981,224.551338 31.8695541,223.459873 34.08,223.955159 L35.3029299,222.946242 C35.3029299,222.946242 32.9854777,222.64051 32.0010191,222.979873 C32.0010191,222.979873 33.1352866,222.013758 35.6361783,222.716943 L36.9844586,221.912866 C36.9844586,221.912866 35.0185987,221.49707 33.8384713,221.649936 C33.8384713,221.649936 35.0797452,220.980382 37.3880255,221.704968 L38.3480255,221.273885 C38.3480255,221.273885 36.9019108,220.989554 36.4769427,220.943694 C36.0519745,220.897834 36.0305732,220.781656 36.0305732,220.781656 C36.9483741,220.628977 37.8905587,220.73484 38.7515924,221.087389 C38.7515924,221.087389 40.7938854,220.32 40.7602548,220.191592 Z" id="Path" fill="#BF0C3F"></path>
                <ellipse id="Oval" fill="#BF0C3F" opacity="0.1" cx="31.6922293" cy="230.592611" rx="8.2333758" ry="1.3910828"></ellipse>
                <ellipse id="Oval" fill="#BF0C3F" opacity="0.1" cx="292.842803" cy="230.592611" rx="8.2333758" ry="1.3910828"></ellipse>
                <ellipse id="Oval" fill="#BF0C3F" opacity="0.1" cx="213.997452" cy="238.599745" rx="8.2333758" ry="1.3910828"></ellipse>
                <ellipse id="Oval" fill="#BF0C3F" opacity="0.1" cx="305.863949" cy="218.534522" rx="8.2333758" ry="1.3910828"></ellipse>
                <ellipse id="Oval" fill="#BF0C3F" opacity="0.1" cx="47.7156688" cy="217.666242" rx="8.2333758" ry="1.3910828"></ellipse>
                <ellipse id="Oval" fill="#BF0C3F" opacity="0.1" cx="13.8924841" cy="221.570446" rx="8.2333758" ry="1.3910828"></ellipse>
                <rect id="Rectangle" fill="#196690" x="92.5574522" y="24.6848408" width="131.877707" height="196.090701" rx="9.8"></rect>
                <rect id="Rectangle" fill="#000000" opacity="0.1" x="104.627771" y="41.5398726" width="109.369682" height="38.5498089" rx="19.2749045"></rect>
                <rect id="Rectangle" fill="#E6E8EC" x="105.330955" y="42.2919745" width="107.712611" height="37.2840764" rx="10.2"></rect>
                <rect id="Rectangle" fill="#000000" opacity="0.204468936" x="108.437197" y="96.1467516" width="21.7498089" height="24.1650955" rx="10.79"></rect>
                <rect id="Rectangle" fill="#000000" opacity="0.204468936" x="135.020637" y="96.1467516" width="21.7498089" height="24.1650955" rx="10.79"></rect>
                <rect id="Rectangle" fill="#000000" opacity="0.204468936" x="161.604076" y="96.1467516" width="21.7498089" height="24.1650955" rx="10.79"></rect>
                <rect id="Rectangle" fill="#000000" opacity="0.1" x="188.187516" y="96.6603822" width="21.7498089" height="24.1650955" rx="10.8749045"></rect>
                <rect id="Rectangle" fill="#BF0C3F" x="188.187516" y="96.1467516" width="21.7498089" height="24.1650955" rx="10.79"></rect>
                <rect id="Rectangle" fill="#000000" opacity="0.204468936" x="108.437197" y="122.730191" width="21.7498089" height="24.1650955" rx="10.79"></rect>
                <rect id="Rectangle" fill="#000000" opacity="0.204468936" x="135.020637" y="122.730191" width="21.7498089" height="24.1650955" rx="10.79"></rect>
                <rect id="Rectangle" fill="#000000" opacity="0.204468936" x="161.604076" y="122.730191" width="21.7498089" height="24.1650955" rx="10.79"></rect>
                <rect id="Rectangle" fill="#000000" opacity="0.204468936" x="108.437197" y="152.074395" width="21.7498089" height="24.1650955" rx="10.79"></rect>
                <rect id="Rectangle" fill="#000000" opacity="0.2" x="135.020637" y="152.074395" width="21.7498089" height="24.1650955" rx="10.79"></rect>
                <rect id="Rectangle" fill="#000000" opacity="0.204468936" x="161.604076" y="152.074395" width="21.7498089" height="24.1650955" rx="10.79"></rect>
                <rect id="Rectangle" fill="#000000" opacity="0.204468936" x="161.604076" y="181.418599" width="21.7498089" height="24.1650955" rx="10.79"></rect>
                <rect id="Rectangle" fill="#000000" opacity="0.1" x="188.187516" y="123.243822" width="21.7498089" height="24.1650955" rx="10.8749045"></rect>
                <rect id="Rectangle" fill="#BF0C3F" x="188.187516" y="122.730191" width="21.7498089" height="24.1650955" rx="10.8749045"></rect>
                <rect id="Rectangle" fill="#000000" opacity="0.2" x="188.187516" y="122.730191" width="21.7498089" height="24.1650955" rx="10.8749045"></rect>
                <rect id="Rectangle" fill="#000000" opacity="0.204468936" x="108.437197" y="181.418599" width="48.3332484" height="24.1650955" rx="10.04"></rect>
                <rect id="Rectangle" fill="#000000" opacity="0.204468936" x="186.11465" y="152.074395" width="23.8196178" height="53.5123567" rx="11.66"></rect>
                <rect id="Rectangle" fill="#BF0C3F" x="198.686369" y="73.063949" width="9.52050955" height="1.03031847"></rect>
                <rect id="Rectangle" fill="#BF0C3F" x="184.748025" y="73.063949" width="9.52050955" height="1.03031847"></rect>
                <rect id="Rectangle" fill="#BF0C3F" x="170.806624" y="73.063949" width="9.52050955" height="1.03031847"></rect>
                <rect id="Rectangle" fill="#BF0C3F" x="156.86828" y="73.063949" width="9.52050955" height="1.03031847"></rect>
                <path d="M269.004841,145.388025 C269.986242,142.086115 269.004841,138.784204 269.004841,138.784204 L269.004841,135.66879 C269.004841,135.66879 270.126879,129.578599 265.118981,125.671338 L261.798726,122.74242 C261.798726,122.74242 259.936815,121.143439 259.395669,121.042548 C259.294827,121.020829 259.192712,121.005512 259.089936,120.996688 L258.992102,120.938599 C258.706755,120.450542 258.463334,119.939154 258.264459,119.409936 C258.700108,119.466287 259.137231,119.317191 259.447643,119.006369 C259.567616,118.868343 259.661848,118.709909 259.72586,118.538599 L259.72586,118.538599 C259.918471,118.107516 259.952102,117.584713 260.11414,117.126115 C260.256277,116.754246 260.463312,116.410568 260.725605,116.111083 C260.691975,116.166115 260.655287,116.218089 260.624713,116.276178 C261.095541,115.689172 261.710064,115.187771 262.153376,114.570191 C262.24135,114.447676 262.322001,114.320065 262.394904,114.188025 C262.376561,114.215541 262.352102,114.24 262.330701,114.267516 C262.942166,113.286115 263.128662,112.096815 263.305987,110.950318 C263.391439,110.560118 263.397677,110.156732 263.324331,109.764076 C263.238405,109.503457 263.127842,109.251619 262.99414,109.011975 C262.272611,107.523057 262.284841,105.648917 261.132229,104.459618 C260.263949,103.569936 258.949299,103.297834 257.711083,103.144968 C256.472866,102.992102 255.170446,102.903439 254.106497,102.255287 C253.809381,102.030107 253.480771,101.849835 253.13121,101.720255 C252.768455,101.593677 252.366917,101.74249 252.174268,102.074904 C252.152252,102.170334 252.108286,102.259315 252.04586,102.334777 C251.933527,102.398501 251.797961,102.406409 251.678981,102.356178 L250.031083,101.915924 L250.049427,101.998471 L250.006624,101.998471 L250.067771,102.258344 C250.134293,102.246618 250.199756,102.283842 250.223694,102.347006 L249.957707,102.756688 C249.447793,102.747383 248.944011,102.643724 248.471847,102.450955 C248.468789,102.477364 248.468789,102.504037 248.471847,102.530446 L248.447389,102.530446 C248.416815,102.995159 248.945732,103.297834 249.107771,103.735032 C249.172766,103.92635 249.172766,104.133777 249.107771,104.325096 C249.041564,104.502531 248.937194,104.66326 248.802038,104.795924 C248.218089,105.373758 247.469045,105.260637 246.796433,105.624459 C246.6788,105.674699 246.58931,105.774257 246.551847,105.896561 C246.525235,105.94172 246.517543,105.995565 246.530446,106.046369 C246.557033,106.11656 246.605204,106.176506 246.668025,106.21758 C246.86384,106.375871 247.078459,106.509366 247.307006,106.615032 C247.239745,106.676178 247.175541,106.737325 247.114395,106.801529 C245.380482,108.563673 244.645834,111.07793 245.158195,113.49642 C245.670556,115.914909 247.361633,117.915273 249.661146,118.82293 C249.685605,118.951338 249.703949,119.082803 249.722293,119.220382 C249.722293,119.235669 249.722293,119.244841 249.722293,119.260127 L249.740637,119.437452 L247.521019,120.382166 C246.837617,120.376909 246.218511,119.978062 245.93121,119.357962 C245.414522,118.290955 243.589299,119.357962 243.589299,119.357962 C243.589299,119.357962 238.021911,118.942166 235.945987,119.969427 C235.945987,119.969427 232.622675,118.575287 232.154904,118.48051 C231.687134,118.385732 230.987006,118.015796 230.659873,118.110573 C230.332739,118.20535 229.910828,117.499108 229.675414,117.551083 C229.44,117.603057 229.34828,117.086369 228.599236,116.899873 C227.850191,116.713376 227.568917,116.94879 226.728153,116.111083 C225.887389,115.273376 219.05121,111.971465 219.05121,111.971465 L215.981656,109.446115 L212.707261,106.841274 L212.649172,106.94828 C212.627771,106.871847 212.606369,106.792357 212.584968,106.706752 C212.259186,105.409105 211.850708,104.133634 211.362038,102.888153 C211.151083,102.383694 211.056306,101.747771 210.771975,102.084076 C210.597707,102.28586 210.301146,101.842548 209.854777,101.54293 C209.66314,101.410525 209.422039,101.371528 209.198433,101.436771 C208.974828,101.502014 208.792529,101.664549 208.702166,101.879236 L208.702166,101.879236 C206.152357,105.878217 205.238217,106.15949 206.714904,107.630064 C208.032611,108.935541 208.907006,110.075924 209.980127,110.436688 L210.108535,110.476433 C210.085491,110.482524 210.06126,110.482524 210.038217,110.476433 L216.26293,117.917962 C216.26293,117.917962 220.75414,121.825223 223.845096,123.078726 C226.936051,124.332229 226.69758,124.70828 226.69758,124.70828 C226.69758,124.70828 236.059108,129.450191 237.50828,129.358471 C238.957452,129.266752 238.679236,139.077707 238.070828,140.670573 C237.46242,142.263439 236.481019,153.69172 236.481019,153.69172 C236.481019,153.69172 235.54242,156.110064 236.526879,157.78242 C236.526879,157.78242 236.743949,160.986497 236.54828,161.756943 C235.695287,163.071592 234.478471,165.303439 234.279745,167.59949 C234.279745,167.721783 234.255287,167.834904 234.243057,167.95414 C234.180678,168.026558 234.106195,168.087592 234.02293,168.134522 L234.230828,168.073376 C234.142351,169.030372 233.937001,169.97293 233.619363,170.88 C233.12442,172.153873 232.862422,173.506321 232.84586,174.872866 L232.84586,182.259363 L232.234395,186.84535 C232.234395,186.84535 231.48535,190.315414 232.234395,191.125605 C232.550185,191.529596 232.697037,192.040292 232.644076,192.550318 C232.612788,193.142428 232.780698,193.727958 233.121019,194.213503 C233.3847,194.501501 233.497901,194.896572 233.426752,195.28051 C233.179108,196.084586 233.793631,204.642038 233.793631,204.642038 C233.793631,204.642038 233.613248,206.999236 233.365605,207.124586 C233.117962,207.249936 233.793631,209.85172 233.793631,209.85172 C233.793631,209.85172 231.265223,211.961274 231.910318,213.077197 L232.555414,214.067771 L232.384204,214.235924 L232.280255,214.34293 C232.085207,214.230475 231.857832,214.18737 231.635159,214.220637 C230.840518,215.033551 229.990591,215.790517 229.091465,216.486115 C227.951083,217.308535 224.847898,218.500892 224.847898,218.500892 L222.402038,218.699618 L222.356178,218.699618 C222.356178,218.699618 221.185223,218.589554 221.842548,220.402548 C222.499873,222.215541 228.376051,221.659108 228.376051,221.659108 L231.806369,221.117962 C231.806369,221.117962 237.921019,221.148535 239.672866,220.760255 C240.403567,220.598217 240.590064,220.206879 240.528917,219.812484 L240.528917,219.812484 L240.510573,219.79414 C240.426473,219.418001 240.25467,219.067063 240.009172,218.769936 C239.99657,218.750355 239.982246,218.731938 239.966369,218.714904 L240.076433,217.461401 C242.672102,215.966369 239.342675,213.025223 239.342675,213.025223 C239.342675,213.025223 240.483057,210.545732 241.067006,209.741656 C241.650955,208.93758 241.650955,197.090446 241.650955,197.090446 C241.650955,197.090446 241.956688,192.810191 241.152611,191.819618 C241.124394,191.162335 241.460529,190.542953 242.027006,190.208408 C242.604841,189.814013 244.350573,184.381146 245.720255,179.871592 L246.58242,185.185223 C246.58242,185.185223 246.395924,187.728917 246.955414,188.471847 C247.168011,188.755003 247.252282,189.114264 247.187771,189.46242 C247.055082,190.175387 247.098107,190.909947 247.313121,191.602548 C247.378865,191.899667 247.538607,192.16769 247.768662,192.366879 C248.267006,192.614522 248.29758,193.498089 248.484076,193.684586 C248.670573,193.871083 249.826242,193.421656 249.887389,194.103439 C249.922311,194.702166 249.922311,195.30242 249.887389,195.901146 L250.263439,206.938089 C250.263439,206.938089 249.651975,207.855287 249.514395,210.301146 C249.46242,211.343694 249.266752,211.936815 249.064968,212.276178 C248.835321,212.649706 248.872352,213.128634 249.156688,213.46242 L249.263694,213.587771 L248.802038,213.94242 C248.419522,214.239577 248.299331,214.765093 248.51465,215.198981 C248.210024,215.463998 248.097421,215.887771 248.230318,216.269045 C248.249217,216.330308 248.275934,216.38888 248.309809,216.443312 C247.959101,216.498271 247.633661,216.659391 247.377325,216.904968 C246.916215,217.538531 246.36042,218.097419 245.729427,218.562038 C244.813729,219.263766 243.937011,220.014947 243.103185,220.812229 C242.71011,221.347276 242.182804,221.769121 241.574522,222.035159 C241.425379,222.095643 241.270788,222.141713 241.112866,222.172739 C239.889936,222.423439 240.272102,223.701401 241.26879,223.912357 C242.265478,224.123312 245.573503,225.135287 248.147771,224.545223 C248.147771,224.545223 248.912102,224.850955 250.03414,224.282293 C251.156178,223.713631 253.660127,223.016561 253.660127,223.016561 C253.660127,223.016561 255.063439,223.016561 255.252994,222.460127 C255.302327,222.282803 255.329036,222.099951 255.332484,221.915924 L255.372229,221.876178 L255.335541,221.842548 C255.338961,221.425845 255.307256,221.009595 255.240764,220.598217 C255.204076,220.384204 255.164331,220.19465 255.127643,220.041783 C255.008408,219.57707 254.785223,218.974777 254.690446,218.721019 C254.706457,218.700833 254.720773,218.679359 254.733248,218.656815 C255.26828,217.739618 254.378599,215.562803 254.378599,215.562803 C254.670746,215.099269 255.025714,214.678452 255.433376,214.312357 C255.93172,213.939363 257.243312,204.265987 257.243312,204.265987 C257.243312,204.265987 257.179108,201.786497 257.854777,200.670573 C258.530446,199.55465 256.919236,192.797962 256.919236,192.797962 C256.919236,192.797962 256.231338,191.247898 256.482038,190.688408 C256.732739,190.128917 256.231338,188.083567 256.231338,188.083567 L256.231338,185.637707 C256.229875,185.346478 256.181351,185.057401 256.087643,184.781656 C255.895032,184.206879 255.610701,183.103185 255.91949,182.311338 C256.356688,181.195414 257.353376,174.313376 257.353376,174.313376 C257.353376,174.313376 256.573758,171.277452 257.717197,168.859108 C257.806466,168.665976 257.908606,168.479059 258.02293,168.299618 C258.869809,166.969682 258.616051,164.606369 258.197197,162.701656 C258.136051,162.395924 258.065732,162.120764 257.995414,161.854777 C257.967898,161.738599 257.937325,161.628535 257.906752,161.518471 L258.041274,161.463439 C258.041274,161.463439 258.041274,161.283057 258.084076,160.974268 C259.017199,160.789348 259.831924,160.225904 260.334268,159.418089 C260.334268,159.418089 263.189809,156.207898 265.715159,154.859618 C268.24051,153.511338 268.430064,151.557707 268.430064,151.557707 C268.05707,150.906497 269.099618,148.255796 269.099618,148.255796 L269.004841,145.388025 Z M260.768408,149.66828 L258.065732,152.802038 L258.065732,152.783694 C257.362548,151.80535 258.72,149.619363 258.72,149.619363 L260.967134,144.60535 C260.94879,145.247389 260.869299,145.82828 260.661401,146.082038 C260.049936,146.919745 261.786497,148.316943 261.786497,148.316943 C260.860127,148.32 260.768408,149.66828 260.768408,149.66828 L260.768408,149.66828 Z" id="Shape" fill="url(#linearGradient-1)" fill-rule="nonzero"></path>
                <path d="M213.184204,108.580892 L211.707516,111.445605 C211.240009,111.405602 210.77907,111.309103 210.334777,111.158217 C208.910337,110.732843 207.736224,109.717875 207.109299,108.369936 C205.791592,105.459363 207.971465,103.579108 208.986497,103.022675 C210.001529,102.466242 210.946242,101.833376 211.707516,103.658599 C212.185351,104.896925 212.584615,106.164153 212.90293,107.452739 C213.080255,108.122293 213.184204,108.580892 213.184204,108.580892 Z" id="Path" fill="#CC818C"></path>
                <path d="M260.08051,123.482293 L257.723312,126.992102 C257.723312,126.992102 246.585478,132.305732 248.713376,126.074904 C249.648917,123.323312 249.758981,121.31465 249.590828,119.923567 C249.590828,119.90828 249.590828,119.899108 249.590828,119.883822 C249.370701,118.144204 248.716433,117.389045 248.716433,117.389045 C248.716433,117.389045 259.572994,111.830828 257.955669,115.631083 C257.625698,116.420922 257.494477,117.279636 257.573503,118.131975 C257.706852,119.359604 258.105343,120.543603 258.741401,121.602038 C259.123745,122.27201 259.572362,122.901918 260.08051,123.482293 L260.08051,123.482293 Z" id="Path" fill="#CC818C"></path>
                <path d="M256.689936,193.008917 C256.689936,193.008917 258.291975,199.735032 257.607134,200.832611 C256.922293,201.930191 256.995669,204.406624 256.995669,204.406624 C256.995669,204.406624 255.70242,214.018854 255.210191,214.385732 C254.806123,214.743272 254.45325,215.154786 254.161529,215.608662 C254.161529,215.608662 255.042038,217.785478 254.513121,218.684331 C254.431571,218.821167 254.308362,218.928305 254.161529,218.990064 C253.336051,219.338599 250.284841,217.791592 248.54828,216.849936 C248.264426,216.694692 248.074273,216.410612 248.038946,216.089013 C248.003619,215.767414 248.12757,215.448829 248.370955,215.235669 C248.155614,214.805955 248.273311,214.283994 248.652229,213.98828 L249.110828,213.633631 L249.003822,213.50828 C248.722386,213.175667 248.685436,212.700256 248.912102,212.328153 C249.110828,211.994904 249.303439,211.410955 249.355414,210.368408 C249.480764,207.96535 250.095287,207.042038 250.095287,207.042038 L249.72535,196.072357 C249.760291,195.47771 249.760291,194.881525 249.72535,194.286879 C249.664204,193.61121 248.523822,194.05758 248.340382,193.871083 C248.156943,193.684586 248.123312,192.810191 247.631083,192.562548 C247.404299,192.363394 247.247767,192.09643 247.184713,191.801274 C246.967102,191.109147 246.924041,190.373945 247.059363,189.661146 C247.123342,189.315381 247.040241,188.958597 246.830064,188.676688 C246.276688,187.936815 246.460127,185.414522 246.460127,185.414522 L245.610191,180.131465 C244.255796,184.613503 242.534522,190.012739 241.962803,190.404076 C241.403993,190.738691 241.073134,191.352305 241.100637,192.003057 C241.901656,192.990573 241.592866,197.243312 241.592866,197.243312 C241.592866,197.243312 241.592866,209.007898 241.015032,209.811975 C240.437197,210.616051 239.318217,213.089427 239.318217,213.089427 C239.318217,213.089427 242.620127,216.027516 240.021401,217.510318 L239.993885,217.510318 C237.343185,218.990064 231.861401,214.862675 231.861401,214.862675 L232.433121,214.290955 L232.601274,214.122803 L231.953121,213.156688 C231.317197,212.046879 233.811975,209.952611 233.811975,209.952611 C233.811975,209.952611 233.145478,207.363057 233.390064,207.240764 C233.63465,207.118471 233.811975,204.776561 233.811975,204.776561 C233.811975,204.776561 233.20051,196.27414 233.45121,195.473121 C233.51891,195.091236 233.406023,194.69952 233.145478,194.412229 C232.808879,193.929785 232.643159,193.348692 232.67465,192.761274 C232.727982,192.254534 232.582164,191.746914 232.268025,191.345732 C231.528153,190.544713 232.268025,187.096051 232.268025,187.096051 L232.87949,182.534522 L232.87949,175.29172 C232.887734,173.89358 233.149821,172.508561 233.652994,171.204076 C234.026562,170.146589 234.252887,169.042739 234.325605,167.923567 C234.527389,165.587771 235.783949,163.319236 236.627771,162.025987 C237.07414,161.341146 237.407389,160.931465 237.407389,160.931465 L257.121019,160.161019 C257.121019,160.161019 257.426752,161.038471 257.756943,162.258344 C257.824204,162.524331 257.891465,162.805605 257.955669,163.099108 C258.368408,164.99465 258.616051,167.342675 257.781401,168.663439 C257.6682,168.842486 257.566098,169.028314 257.475669,169.219873 C256.347516,171.62293 257.117962,174.64051 257.117962,174.64051 C257.117962,174.64051 256.133503,181.476688 255.70242,182.589554 C255.396688,183.375287 255.677962,184.472866 255.870573,185.035414 C255.960573,185.310846 256.006993,185.598647 256.008153,185.888408 L256.008153,188.325096 C256.008153,188.325096 256.503439,190.358217 256.255796,190.91465 C256.008153,191.471083 256.689936,193.008917 256.689936,193.008917 Z" id="Path" fill="#444053"></path>
                <path d="M257.597962,168.859108 C257.483688,169.036461 257.381544,169.221342 257.292229,169.412484 L256.18242,169.351338 C256.289427,168.779618 255.534268,163.420127 255.534268,163.420127 L257.769172,163.294777 C258.181911,165.187261 258.432611,167.535287 257.597962,168.859108 Z" id="Path" fill="#000000" opacity="0.1"></path>
                <path d="M257.781401,168.672611 C257.6682,168.851658 257.566098,169.037486 257.475669,169.229045 L256.36586,169.164841 C256.472866,168.596178 255.717707,163.233631 255.717707,163.233631 L257.952611,163.10828 C258.368408,165.003822 258.616051,167.351847 257.781401,168.672611 Z" id="Path" fill="#444053"></path>
                <path d="M257.781401,168.672611 C257.6682,168.851658 257.566098,169.037486 257.475669,169.229045 L256.36586,169.164841 C256.472866,168.596178 255.717707,163.233631 255.717707,163.233631 L257.952611,163.10828 C258.368408,165.003822 258.616051,167.351847 257.781401,168.672611 Z" id="Path" fill="#000000" opacity="0.05"></path>
                <path d="M254.516178,218.696561 C254.434629,218.833396 254.31142,218.940534 254.164586,219.002293 C253.339108,219.350828 250.287898,217.803822 248.551338,216.862166 C248.33459,216.742253 248.170077,216.546144 248.089682,216.311847 C249.080255,216.131465 249.728408,217.229045 249.728408,217.229045 C250.062025,217.019839 250.465951,216.954123 250.84868,217.046784 C251.231409,217.139444 251.560547,217.382639 251.761529,217.721274 C252.608408,218.968662 254.424459,218.442803 254.424459,218.442803 L254.516178,218.696561 Z" id="Path" fill="#000000" opacity="0.1"></path>
                <path d="M255.026752,222.472357 C254.843312,223.02879 253.455287,223.02879 253.455287,223.02879 C253.455287,223.02879 250.975796,223.738089 249.865987,224.291465 C248.756178,224.844841 248.004076,224.554395 248.004076,224.554395 C245.463439,225.138344 242.195159,224.123312 241.210701,223.921529 C240.226242,223.719745 239.841019,222.444841 241.057834,222.197197 C241.21387,222.165152 241.366431,222.118053 241.513376,222.056561 C242.123034,221.792805 242.650889,221.370521 243.042038,220.833631 C243.865776,220.041795 244.732299,219.295708 245.637707,218.598726 C246.260977,218.135863 246.809527,217.580095 247.264204,216.950828 C248.713376,215.672866 249.743694,217.427771 249.743694,217.427771 C250.077686,217.218826 250.481892,217.15358 250.864663,217.246827 C251.247433,217.340073 251.576343,217.583912 251.776815,217.923057 C252.623694,219.170446 254.439745,218.641529 254.439745,218.641529 C254.439745,218.641529 254.766879,219.476178 254.919745,220.075414 C254.956433,220.22828 254.996178,220.417834 255.032866,220.631847 C255.115414,221.252484 255.167389,222.056561 255.026752,222.472357 Z" id="Path" fill="#FF748F"></path>
                <circle id="Oval" fill="#575988" cx="250.789299" cy="218.409172" r="1"></circle>
                <circle id="Oval" fill="#575988" cx="249.343185" cy="219.763567" r="1"></circle>
                <circle id="Oval" fill="#575988" cx="247.872611" cy="220.980382" r="1"></circle>
                <circle id="Oval" fill="#575988" cx="248.633885" cy="220.436178" r="1"></circle>
                <circle id="Oval" fill="#575988" cx="250.098344" cy="219.045096" r="1"></circle>
                <path d="M255.026752,222.472357 C254.843312,223.02879 253.455287,223.02879 253.455287,223.02879 C253.455287,223.02879 250.975796,223.738089 249.865987,224.291465 C248.756178,224.844841 248.004076,224.554395 248.004076,224.554395 C245.463439,225.138344 242.195159,224.123312 241.210701,223.921529 C240.226242,223.719745 239.841019,222.444841 241.057834,222.197197 C241.21387,222.165152 241.366431,222.118053 241.513376,222.056561 C242.58802,222.42656 243.710391,222.639708 244.84586,222.689427 C247.355924,222.796433 249.343185,222.689427 249.343185,222.689427 L251.883822,221.873121 C252.364806,221.58135 252.89897,221.388053 253.455287,221.304459 C254.017742,221.189823 254.54994,220.958614 255.01758,220.625732 C255.115414,221.252484 255.167389,222.056561 255.026752,222.472357 Z" id="Path" fill="#DCE6F2"></path>
                <path d="M248.704204,224.065223 C248.562588,224.066211 248.421233,224.052895 248.282293,224.025478 L248.318981,223.845096 C248.838501,223.924598 249.36993,223.850198 249.847643,223.631083 C250.073885,223.54242 250.300127,223.435414 250.520255,223.32535 C250.740382,223.215287 251.049172,223.077707 251.324331,222.976815 L251.575032,222.89121 C251.712611,222.842293 251.853248,222.796433 251.987771,222.738344 C252.064204,222.707771 252.140637,222.671083 252.214013,222.634395 C252.394421,222.540038 252.585281,222.467183 252.782675,222.417325 C252.883781,222.398485 252.985846,222.385216 253.088408,222.37758 C253.182686,222.371261 253.276571,222.360035 253.369682,222.343949 C253.554672,222.297202 253.734061,222.230572 253.904713,222.145223 C254.08714,222.051342 254.280088,221.979499 254.47949,221.93121 L254.614013,221.909809 C254.759063,221.906099 254.898809,221.8545 255.011465,221.763057 L255.149045,221.888408 C255.008768,222.011566 254.831013,222.083745 254.644586,222.093248 L254.516178,222.11465 C254.330763,222.160024 254.151224,222.22671 253.981146,222.313376 C253.79783,222.404467 253.605089,222.475207 253.406369,222.524331 C253.305525,222.544225 253.203325,222.556489 253.100637,222.561019 C253.004258,222.568148 252.908327,222.580394 252.813248,222.597707 C252.629595,222.645244 252.452096,222.713987 252.284331,222.802548 L252.051975,222.909554 C251.911338,222.967643 251.764586,223.016561 251.623949,223.065478 L251.379363,223.151083 C251.110318,223.248917 250.847389,223.374268 250.590573,223.493503 C250.333758,223.612739 250.138089,223.707516 249.905732,223.799236 C249.525187,223.961652 249.117744,224.05185 248.704204,224.065223 Z" id="Path" fill="#575988" opacity="0.5"></path>
                <path d="M249.297325,193.455287 C249.297325,193.455287 250.575287,191.620892 252.764331,191.620892 C254.953376,191.620892 255.888917,191.373248 255.888917,191.373248 C255.888917,191.373248 254.488662,192.204841 253.51949,192.311847 C252.550318,192.418854 249.297325,193.455287 249.297325,193.455287 Z" id="Path" fill="#000000" opacity="0.1"></path>
                <path d="M250.037197,193.886369 C250.037197,193.886369 251.192866,193.08535 251.853248,193.054777 C252.513631,193.024204 253.076178,192.963057 253.076178,192.963057 C252.766371,193.180421 252.423662,193.346614 252.061146,193.455287 C251.52,193.608153 250.037197,193.886369 250.037197,193.886369 Z" id="Path" fill="#000000" opacity="0.1"></path>
                <path d="M250.29707,194.439745 C250.29707,194.439745 252.036688,194.577325 252.051975,195.05121" id="Path" fill="#000000" opacity="0.1"></path>
                <path d="M234.071847,168.452484 C234.163567,168.467771 235.719745,166.835159 235.826752,166.190064 C235.911651,165.7817 236.154517,165.423445 236.50242,165.193376 C236.50242,165.193376 237.505223,165.593885 236.612484,166.82293 C235.719745,168.051975 234.071847,168.452484 234.071847,168.452484 Z" id="Path" fill="#000000" opacity="0.1"></path>
                <path d="M257.940382,115.624968 C257.585732,116.462675 257.273885,116.542166 257.328917,117.340127 C256.916224,117.777343 256.441306,118.151303 255.91949,118.449936 C254.818854,119.104204 253.620382,120.385223 252.250701,120.385223 C251.333009,120.385852 250.423405,120.21368 249.569427,119.877707 C249.349299,118.138089 248.695032,117.38293 248.695032,117.38293 C248.695032,117.38293 259.55465,111.824713 257.940382,115.624968 Z" id="Path" fill="#000000" opacity="0.1"></path>
                <path d="M259.603567,112.668535 C259.603567,116.720968 256.318421,120.006115 252.265987,120.006115 C248.213554,120.006115 244.928408,116.720968 244.928408,112.668535 C244.928408,108.616102 248.213554,105.330955 252.265987,105.330955 C254.212034,105.330955 256.078376,106.10402 257.45444,107.480083 C258.830503,108.856146 259.603567,110.722488 259.603567,112.668535 L259.603567,112.668535 Z" id="Path" fill="#CC818C"></path>
                <path d="M260.08051,123.482293 L257.723312,126.992102 C257.723312,126.992102 246.585478,132.305732 248.713376,126.074904 C249.648917,123.323312 249.758981,121.31465 249.590828,119.923567 L249.609172,119.923567 C249.740889,120.384575 249.815838,120.859937 249.832357,121.339108 C249.865987,122.299108 249.890446,123.512866 252.278217,123.913376 C256.252739,124.579873 258.374522,122.097325 258.747516,121.61121 C259.128444,122.277729 259.574992,122.904534 260.08051,123.482293 Z" id="Path" fill="#000000" opacity="0.1"></path>
                <path d="M213.184204,108.580892 L211.707516,111.445605 C211.240009,111.405602 210.77907,111.309103 210.334777,111.158217 L210.206369,111.00535 C210.817834,111.237707 212.838726,107.400764 212.838726,107.400764 L212.90293,107.452739 C213.080255,108.122293 213.184204,108.580892 213.184204,108.580892 Z" id="Path" fill="#000000" opacity="0.1"></path>
                <path d="M257.756943,162.267516 C252.999745,164.334268 236.545223,162.573248 236.545223,162.573248 C236.594384,162.397881 236.622103,162.217199 236.627771,162.035159 C237.07414,161.350318 237.407389,160.940637 237.407389,160.940637 L257.121019,160.170191 C257.121019,160.170191 257.442038,161.047643 257.756943,162.267516 Z" id="Path" fill="#000000" opacity="0.1"></path>
                <path d="M249.596943,120.094777 L247.401783,121.033376 C246.725533,121.02772 246.113845,120.630659 245.833376,120.015287 C245.322803,118.954395 243.522038,120.015287 243.522038,120.015287 C243.522038,120.015287 238.018854,119.59949 235.98879,120.626752 C235.98879,120.626752 232.70828,119.238726 232.246624,119.147006 C231.784968,119.055287 231.090955,118.68535 230.766879,118.77707 C230.442803,118.86879 230.030064,118.165605 229.797707,118.223694 C229.56535,118.281783 229.473631,117.762038 228.733758,117.575541 C227.993885,117.389045 227.718726,117.621401 226.899363,116.789809 C226.08,115.958217 219.320255,112.677707 219.320255,112.677707 L216.26293,110.18293 L213.02828,107.596433 C213.02828,107.596433 210.995159,111.430318 210.392866,111.197962 L216.538089,118.593631 C216.538089,118.593631 220.974268,122.473376 224.025478,123.720764 C227.076688,124.968153 226.844331,125.338089 226.844331,125.338089 C226.844331,125.338089 236.086624,130.052484 237.517452,129.960764 C238.94828,129.869045 238.679236,139.606624 238.067771,141.178089 C237.456306,142.749554 236.499363,154.116688 236.499363,154.116688 C236.499363,154.116688 235.582166,156.519745 236.545223,158.18293 C236.545223,158.18293 236.774522,161.604076 236.545223,162.203312 C236.545223,162.203312 253.100637,163.973503 257.799745,161.879236 C257.799745,161.879236 258.493758,154.208408 257.799745,153.239236 C257.105732,152.270064 258.447898,150.108535 258.447898,150.108535 L261.404331,143.501656 L268.613503,136.246624 C268.613503,136.246624 269.720255,130.193121 264.776561,126.313376 L261.496051,123.399745 C261.496051,123.399745 259.661656,121.812994 259.123567,121.712102 C258.585478,121.61121 258.784204,121.712102 258.784204,121.712102 C258.784204,121.712102 256.644076,124.833631 252.253758,124.093758 C249.875159,123.693248 249.850701,122.47949 249.807898,121.522548 C249.795359,121.039863 249.724527,120.560463 249.596943,120.094777 L249.596943,120.094777 Z" id="Path" fill="#6BA4B8"></path>
                <path d="M258.631338,144.969172 C258.631338,144.969172 248.462675,145.384968 246.432611,148.579873 C246.432611,148.579873 249.068025,147.329427 251.422166,147.699363 C253.776306,148.069299 258.631338,144.969172 258.631338,144.969172 Z" id="Path" fill="#000000" opacity="0.1"></path>
                <path d="M247.401783,156.103949 C247.401783,156.103949 252.207898,156.428025 253.225987,155.409936 C254.244076,154.391847 254.247134,153.792611 254.247134,153.792611 L247.401783,156.103949 Z" id="Path" fill="#000000" opacity="0.1"></path>
                <path d="M259.603567,135.170446 C259.603567,135.170446 255.534268,139.976561 260.481019,142.055541 L259.603567,135.170446 Z" id="Path" fill="#000000" opacity="0.1"></path>
                <path d="M235.527134,125.88535 C235.527134,125.88535 237.006879,128.90293 237.746752,129.101656 L235.527134,125.88535 Z" id="Path" fill="#000000" opacity="0.1"></path>
                <path d="M230.53758,124.589045 C230.53758,124.589045 234.233885,127.918471 234.927898,128.23949 C234.927898,128.23949 231.090955,124.589045 230.53758,124.589045 Z" id="Path" fill="#000000" opacity="0.1"></path>
                <path d="M245.276943,121.403312 C245.276943,121.403312 241.718217,126.716943 244.029554,129.963822 C244.029554,129.951592 242.736306,126.11465 245.276943,121.403312 Z" id="Path" fill="#000000" opacity="0.1"></path>
                <path d="M254.247134,161.649936 L253.158726,162.67414 L253.00586,162.814777 L251.746242,164.007134 C251.65758,164.074395 251.568917,164.141656 251.477197,164.202803 C246.350064,167.871592 245.322803,162.295032 245.322803,162.295032 C245.322803,162.295032 243.060382,163.774777 242.736306,162.573248 C242.412229,161.37172 248.004076,159.662675 248.850955,159.754395 C248.925157,159.761978 248.999938,159.761978 249.07414,159.754395 C249.478178,159.687209 249.867274,159.549576 250.223694,159.347771 L250.471338,159.216306 C250.756073,159.055984 251.032598,158.881498 251.299873,158.693503 L254.247134,161.649936 Z" id="Path" fill="#CC818C"></path>
                <path d="M259.774777,112.668535 C259.78033,115.257652 258.420957,117.658049 256.197707,118.984968 C256.095319,118.813302 256.005406,118.634498 255.928662,118.449936 C255.665732,117.838471 255.503694,117.178089 255.237707,116.563567 C254.946841,115.892703 254.531932,115.282786 254.014777,114.76586 C253.927128,114.66343 253.814415,114.585479 253.687643,114.539618 C253.447321,114.50647 253.20397,114.573945 253.015032,114.726115 C252.703801,114.93696 252.356719,115.089261 251.990828,115.175541 C251.618482,115.260972 251.228604,115.144937 250.963567,114.869809 C250.676178,114.527389 250.715924,114.025987 250.798471,113.58879 C250.978854,112.631847 251.278471,111.690191 251.281529,110.717962 C251.284586,109.745732 250.911592,108.700127 250.058599,108.21707 C249.312611,107.792102 248.386242,107.911338 247.557707,107.672866 C247.429401,107.639265 247.303717,107.596349 247.181656,107.544459 C249.265291,105.405865 252.437017,104.743125 255.202656,105.868449 C257.968296,106.993774 259.776239,109.682716 259.774777,112.668535 L259.774777,112.668535 Z" id="Path" fill="#000000" opacity="0.1"></path>
                <path d="M246.680255,106.370446 C246.54879,106.440764 246.402038,106.569172 246.441783,106.715924 C246.46719,106.785895 246.514332,106.845894 246.576306,106.887134 C246.918584,107.16343 247.314041,107.366362 247.738089,107.483312 C248.566624,107.709554 249.496051,107.602548 250.242038,108.027516 C251.08586,108.507516 251.464968,109.556178 251.464968,110.528408 C251.464968,111.500637 251.159236,112.442293 250.984968,113.396178 C250.90242,113.836433 250.859618,114.337834 251.147006,114.680255 C251.41301,114.95379 251.801983,115.069556 252.174268,114.985987 C252.540188,114.90137 252.887385,114.750054 253.198471,114.539618 C253.388209,114.386526 253.632459,114.318003 253.87414,114.350064 C253.99988,114.397906 254.112135,114.47554 254.201274,114.576306 C254.718746,115.094138 255.133673,115.705118 255.424204,116.37707 C255.693248,116.988535 255.852229,117.64586 256.115159,118.263439 C256.344238,118.893258 256.773918,119.430358 257.338089,119.792102 C257.925096,120.116178 258.738344,120.097834 259.190828,119.596433 C259.643312,119.095032 259.606624,118.407134 259.820637,117.804841 C260.187516,116.756178 261.21172,116.098854 261.853758,115.193885 C262.572229,114.175796 262.770955,112.897834 262.966624,111.665732 C263.053618,111.277779 263.059862,110.876075 262.984968,110.485605 C262.901112,110.227127 262.792587,109.977314 262.660892,109.739618 C261.945478,108.259873 261.960764,106.397962 260.826497,105.217834 C259.970446,104.33121 258.671083,104.062166 257.448153,103.909299 C256.225223,103.756433 254.941146,103.670828 253.892484,103.025732 C253.598457,102.803419 253.274157,102.624282 252.929427,102.493758 C252.569307,102.367045 252.170131,102.516414 251.981656,102.848408 C251.960103,102.942487 251.917215,103.030353 251.856306,103.105223 C251.745198,103.169348 251.610344,103.177281 251.492484,103.126624 L249.865987,102.689427 L250.052484,103.50879 C249.461315,103.533579 248.871844,103.429248 248.325096,103.203057 C248.294522,103.667771 248.817325,103.967389 248.979363,104.401529 C249.098517,104.804199 248.980191,105.239637 248.673631,105.526624 C248.083567,106.119745 247.346752,106.006624 246.680255,106.370446 Z" id="Path" fill="#585268"></path>
                <path d="M240.088662,216.776561 L240.021401,217.513376 L239.993885,217.513376 C237.343185,218.993121 231.861401,214.865732 231.861401,214.865732 L232.433121,214.294013 C232.622843,214.504487 232.714009,214.785767 232.683822,215.067516 L233.802803,215.128662 L235.141911,216.574777 C235.141911,216.574777 238.764841,216.993631 239.746242,216.761274 L240.088662,216.776561 Z" id="Path" fill="#000000" opacity="0.1"></path>
                <path d="M239.623949,220.793885 C237.899618,221.179108 231.861401,221.151592 231.861401,221.151592 L228.473885,221.686624 C228.473885,221.686624 222.664968,222.243057 222.019873,220.439236 C221.374777,218.635414 222.527389,218.748535 222.527389,218.748535 L222.573248,218.748535 L224.991592,218.552866 C224.991592,218.552866 228.048917,217.366624 229.183185,216.550318 C230.070878,215.859174 230.909577,215.107307 231.693248,214.300127 C231.693248,214.300127 232.702166,214.104459 232.683822,215.272357 L233.802803,215.333503 L235.141911,216.782675 C235.141911,216.782675 238.764841,217.201529 239.746242,216.966115 L240.088662,216.966115 L239.932739,218.75465 L239.975541,218.806624 C240.207898,219.087898 241.164841,220.451465 239.623949,220.793885 Z" id="Path" fill="#FF748F"></path>
                <circle id="Oval" fill="#575988" cx="233.37172" cy="216.311847" r="1"></circle>
                <circle id="Oval" fill="#575988" cx="229.027261" cy="218.195159" r="1"></circle>
                <circle id="Oval" fill="#575988" cx="226.789299" cy="218.873885" r="1"></circle>
                <circle id="Oval" fill="#575988" cx="230.167643" cy="217.834395" r="1"></circle>
                <circle id="Oval" fill="#575988" cx="227.905223" cy="218.534522" r="1"></circle>
                <circle id="Oval" fill="#575988" cx="231.320255" cy="217.299363" r="1"></circle>
                <circle id="Oval" fill="#575988" cx="232.460637" cy="216.804076" r="1"></circle>
                <path d="M239.623949,220.793885 C237.899618,221.179108 231.861401,221.151592 231.861401,221.151592 L228.473885,221.686624 C228.473885,221.686624 222.664968,222.243057 222.019873,220.439236 C221.374777,218.635414 222.527389,218.748535 222.527389,218.748535 L222.573248,218.748535 C222.943185,219.228535 223.686115,219.772739 225.144459,219.800255 L229.320764,219.968408 L233.646879,219.662675 C233.646879,219.662675 237.700892,219.543439 238.361274,219.402803 C238.91593,219.253492 239.45616,219.054998 239.975541,218.809682 C240.207898,219.087898 241.164841,220.451465 239.623949,220.793885 Z" id="Path" fill="#DCE6F2"></path>
                <path d="M228.801019,221.28 C228.569882,221.283213 228.339413,221.254405 228.116178,221.194395 L228.165096,221.01707 C228.734896,221.139557 229.326638,221.113234 229.883312,220.940637 C230.088153,220.885605 230.289936,220.827516 230.494777,220.766369 C230.864775,220.649015 231.241509,220.554066 231.62293,220.482038 C232.239177,220.401942 232.861877,220.383507 233.481783,220.427006 L233.613248,220.427006 C235.465568,220.524356 237.322965,220.441418 239.159236,220.179363 C239.594979,220.149138 240.010087,219.982239 240.345478,219.70242 L240.476943,219.833885 C240.11456,220.14176 239.663962,220.326923 239.189809,220.362803 C237.341364,220.626332 235.471652,220.709271 233.607134,220.610446 L233.472611,220.610446 C232.860841,220.5676 232.246319,220.586036 231.638217,220.665478 C231.264878,220.735115 230.89626,220.828035 230.534522,220.943694 C230.329682,221.004841 230.124841,221.065987 229.923057,221.117962 C229.557059,221.217564 229.180243,221.271981 228.801019,221.28 L228.801019,221.28 Z" id="Path" fill="#575988" opacity="0.5"></path>
                <path d="M254.247134,161.649936 L253.158726,162.67414 L250.456051,159.213248 C250.740787,159.052927 251.017312,158.878441 251.284586,158.690446 L254.247134,161.649936 Z" id="Path" fill="#000000" opacity="0.1"></path>
                <path d="M266.500892,133.293248 L268.641019,136.249682 L268.641019,139.346752 C268.641019,139.346752 269.610191,142.627261 268.641019,145.907771 L268.744968,148.772484 C268.744968,148.772484 267.71465,151.404841 268.084586,152.052994 C268.084586,152.052994 267.901146,153.994395 265.406369,155.333503 C262.911592,156.672611 260.08051,159.846115 260.08051,159.846115 C260.08051,159.846115 259.016561,161.879236 256.151847,161.41758 L253.424713,162.573248 L250.284841,158.552866 L254.534522,156.241529 C254.534522,156.241529 256.014268,154.257325 256.89172,154.349045 L260.496306,150.142166 C260.496306,150.142166 260.588025,148.803057 261.511338,148.803057 C261.511338,148.803057 259.802293,147.418089 260.401529,146.586497 C261.000764,145.754904 260.496306,142.055541 260.496306,142.055541 L266.500892,133.293248 Z" id="Path" fill="#6BA4B8"></path>
                <path d="M262.526369,146.769936 C262.526369,146.769936 267.378344,146.678217 267.97758,147.925605 C268.576815,149.172994 263.990828,146.075924 262.526369,146.769936 Z" id="Path" fill="#000000" opacity="0.1"></path>
                <path d="M253.027261,162.573248 C253.027854,162.654257 253.020688,162.735135 253.00586,162.814777 C252.89073,163.581842 252.251781,164.162008 251.477197,164.202803 L251.391592,164.202803 C250.489926,164.202803 249.758981,163.471857 249.758981,162.570191 C249.759352,162.389961 249.790368,162.211106 249.850701,162.041274 C249.080255,161.429809 249.037452,160.304713 249.058854,159.74828 C249.462891,159.681094 249.851988,159.543461 250.208408,159.341656 C250.409457,159.919252 250.679432,160.470493 251.012484,160.983439 C251.136752,160.954089 251.26391,160.938707 251.391592,160.93758 C252.294947,160.93758 253.027261,161.669893 253.027261,162.573248 L253.027261,162.573248 Z" id="Path" fill="#000000" opacity="0.1"></path>
                <path d="M250.355159,158.974777 C250.355159,158.974777 249.260637,159.22242 249.260637,159.421146 C249.260637,159.619873 249.012994,161.423694 250.214522,162.172739 C251.416051,162.921783 251.293758,161.139363 251.293758,161.139363 C251.293758,161.139363 250.260382,159.555669 250.355159,158.974777 Z" id="Path" fill="#575988"></path>
                <circle id="Oval" fill="#E4AAB4" cx="251.575032" cy="162.573248" r="1.63261146"></circle>
                <circle id="Oval" fill="#DCE6F2" cx="251.575032" cy="162.573248" r="1.40025478"></circle>
                <path d="M245.215796,163.206115 C245.215796,163.206115 248.667516,166.067771 253.100637,164.25172 L253.100637,165.639745 C253.100637,165.639745 250.144204,167.672866 247.465987,166.440764 C244.787771,165.208662 245.215796,163.206115 245.215796,163.206115 Z" id="Path" fill="#000000" opacity="0.1"></path>
                <path d="M245.215796,162.836178 C245.215796,162.836178 248.667516,165.700892 253.100637,163.881783 L253.100637,165.269809 C253.100637,165.269809 250.144204,167.30293 247.465987,166.070828 C244.787771,164.838726 245.215796,162.836178 245.215796,162.836178 Z" id="Path" fill="#000000" opacity="0.1"></path>
                <path d="M245.215796,162.836178 C245.215796,162.836178 248.667516,165.700892 253.100637,163.881783 L253.100637,165.269809 C253.100637,165.269809 250.144204,167.30293 247.465987,166.070828 C244.787771,164.838726 245.215796,162.836178 245.215796,162.836178 Z" id="Path" fill="#444053"></path>
                <path d="M245.307516,162.836178 C245.307516,162.836178 248.759236,165.700892 253.195414,163.881783 L253.195414,165.269809 C253.195414,165.269809 250.238981,167.30293 247.557707,166.070828 C244.876433,164.838726 245.307516,162.836178 245.307516,162.836178 Z" id="Path" fill="#000000" opacity="0.05"></path>
                <path d="M234.371465,214.294013 C234.371465,214.294013 238.99414,215.143949 239.669809,215.327389 C240.345478,215.510828 239.486369,215.834904 239.486369,215.834904 C239.486369,215.834904 235.267261,215.079745 234.371465,214.294013 Z" id="Path" fill="#000000" opacity="0.1"></path>
                <path d="M234.264459,211.845096 C234.340892,211.845096 237.407389,210.98293 238.067771,209.506242" id="Path" fill="#000000" opacity="0.1"></path>
                <path d="M238.737325,194.164586 C238.737325,194.164586 239.978599,195.797197 240.779618,195.751338 C241.580637,195.705478 239.464968,194.103439 238.737325,194.164586 Z" id="Path" fill="#000000" opacity="0.1"></path>
                <path d="M239.425223,196.885605 C239.425223,196.885605 239.948025,198.038217 240.718471,197.66828" id="Path" fill="#000000" opacity="0.1"></path>
                <path d="M242.348025,171.509809 L245.625478,180.152866 C245.625478,180.152866 246.087134,174.591592 245.111847,172.928408 C244.545905,171.957175 243.467074,171.403439 242.348025,171.509809 Z" id="Path" fill="#000000" opacity="0.05"></path>
                <g id="Group" opacity="0.1" transform="translate(246.114650, 102.726115)" fill="#000000">
                    <path d="M4.28636943,0.299617834 L4.2588535,0.174267516 L3.73299363,0.0336305732 L3.7910828,0.29044586 C3.95588129,0.302668871 4.12123139,0.30573091 4.28636943,0.299617834 L4.28636943,0.299617834 Z" id="Path"></path>
                    <path d="M2.84025478,2.38471338 L2.89528662,2.33579618 C3.20248533,2.04919326 3.32091759,1.61336257 3.20101911,1.21070064 C3.13744037,1.05734884 3.0485612,0.915762259 2.93808917,0.791847134 C2.6790614,0.740777501 2.42526058,0.666070001 2.17987261,0.56866242 C2.14929936,1.03031847 2.66904459,1.32993631 2.8310828,1.76407643 C2.90617625,1.96360246 2.9094194,2.18305545 2.84025478,2.38471338 L2.84025478,2.38471338 Z" id="Path"></path>
                    <path d="M11.5811465,16.5921019 C11.0112665,16.2328776 10.5759845,15.6954924 10.3429299,15.0634395 C10.0830573,14.4519745 9.92101911,13.7915924 9.65503185,13.1801274 C9.36450135,12.5081751 8.94957439,11.8971952 8.43210191,11.3793631 C8.34381279,11.2776448 8.23129967,11.199832 8.10496815,11.153121 C7.86474566,11.1214319 7.62196095,11.1887495 7.43235669,11.3396178 C7.1211259,11.5504627 6.77404348,11.7027646 6.40815287,11.7890446 C6.03584722,11.8732297 5.64657589,11.7573752 5.38089172,11.4833121 C5.09350318,11.1408917 5.13324841,10.6364331 5.21579618,10.1992357 C5.39617834,9.24535032 5.69579618,8.30063694 5.6988535,7.33146497 C5.70191083,6.36229299 5.3289172,5.31057325 4.47592357,4.83057325 C3.72993631,4.4056051 2.80356688,4.52484076 1.97503185,4.28636943 C1.55003285,4.16948104 1.15356415,3.96656399 0.810191083,3.69019108 C0.788352981,3.67242069 0.767910798,3.65300061 0.749044586,3.63210191 C0.679566371,3.65874109 0.612125933,3.69041766 0.547261146,3.72687898 C0.412738854,3.79719745 0.269044586,3.9256051 0.305732484,4.07235669 C0.333369139,4.14194165 0.381307866,4.20159873 0.443312102,4.24356688 C0.785204849,4.52045568 1.18079097,4.72345382 1.60509554,4.83974522 C2.43363057,5.06598726 3.36,4.95898089 4.10598726,5.38394904 C4.94980892,5.86394904 5.3289172,6.91261146 5.3289172,7.88484076 C5.3289172,8.85707006 5.02318471,9.79872611 4.84585987,10.7526115 C4.7633121,11.1928662 4.72356688,11.6942675 5.01095541,12.0366879 C5.27663958,12.3107509 5.66591091,12.4266055 6.03821656,12.3424204 C6.40413691,12.2578027 6.75133423,12.1064868 7.06242038,11.896051 C7.25105038,11.7431227 7.49430598,11.6745688 7.73503185,11.7064968 C7.86118147,11.7535569 7.97361403,11.831314 8.06216561,11.9327389 C8.57845624,12.4515469 8.99322203,13.0622896 9.28509554,13.7335032 C9.55414013,14.3449682 9.71312102,15.002293 9.97605096,15.6198726 C10.2051298,16.2496911 10.6348094,16.7867907 11.1989809,17.148535 C11.7829299,17.4726115 12.5992357,17.4542675 13.0333758,16.9528662 C13.1536427,16.8167451 13.2470112,16.6590561 13.308535,16.4881529 C12.8048137,16.8636961 12.1262678,16.9045289 11.5811465,16.5921019 L11.5811465,16.5921019 Z" id="Path"></path>
                    <path d="M14.2226752,14.2410191 C14.6843312,13.6570701 15.2927389,13.1587261 15.726879,12.5472611 C15.8124841,12.4249682 15.8919745,12.2965605 15.9653503,12.1681529 C15.4058599,12.8805096 14.6384713,13.4461146 14.2226752,14.2410191 Z" id="Path"></path>
                </g>
            </g>
        </g>
    </g>
</svg>