<?xml version="1.0" encoding="UTF-8"?>
<svg width="302px" height="232px" viewBox="0 0 302 232" version="1.1" xmlns="http://www.w3.org/2000/svg" xmlns:xlink="http://www.w3.org/1999/xlink">
    <!-- Generator: Sketch 54 (76480) - https://sketchapp.com -->
    <title>Group 3</title>
    <desc>Created with Sketch.</desc>
    <g id="alternativo" stroke="none" stroke-width="1" fill="none" fill-rule="evenodd">
        <g id="Intro-Simulador-v0" transform="translate(-37.000000, -202.000000)">
            <g id="Group-3" transform="translate(37.000000, 202.000000)">
                <g id="Group-2">
                    <g id="undraw_savings_hjfl" transform="translate(0.000000, 15.631206)">
                        <ellipse id="Oval" fill="#BF0C3F" opacity="0.1" cx="150.622859" cy="198.011128" rx="150.622859" ry="18.3091651"></ellipse>
                        <path d="M171.677726,25.6193586 C156.793277,25.1020135 142.617483,20.2977102 129.082982,15.0407299 C115.548481,9.78374959 102.137927,3.95822863 87.6091529,1.18827694 C78.2673022,-0.603569239 67.5808933,-0.85685276 60.0524448,4.15223303 C52.8123085,8.9592309 50.4680886,17.279864 49.2097546,25.0023168 C48.2612886,30.8116708 47.703526,36.9255038 50.2875568,42.363016 C52.090181,46.1353237 55.288559,49.3148403 57.5007481,52.9308667 C65.1962559,65.5142075 59.7560492,81.0318649 51.4165546,93.3215046 C47.5041326,99.085052 42.9665852,104.581843 39.9460445,110.719927 C36.9255038,116.85801 35.5324445,123.885281 38.1730599,130.144617 C40.7921193,136.34198 47.0298996,141.008864 53.7877195,144.285382 C67.5135306,150.943505 83.6967309,152.848521 99.4622828,153.926323 C134.377685,156.31635 169.479009,155.273576 204.486025,154.244275 C217.443902,153.861655 230.455669,153.473646 243.20068,151.471629 C250.279146,150.358798 257.586645,148.591202 262.722373,144.328494 C269.245771,138.917927 270.862474,129.753914 266.494681,122.969149 C259.162931,111.587558 238.892166,108.761021 233.767217,96.5468278 C230.948764,89.8240365 233.845357,82.3360056 237.9437,76.1009198 C246.735872,62.7226998 261.474817,50.9881282 262.253529,35.6995038 C262.79243,25.1909322 255.700492,14.6823607 244.739243,9.71369245 C233.255261,4.50790776 217.330733,5.1626726 208.859207,13.7823958 C200.150566,22.6607915 184.818829,26.07473 171.677726,25.6193586 Z" id="Path" fill="#6BA4B8" opacity="0.1"></path>
                        <ellipse id="Oval" fill="#BF0C3F" cx="24.2882729" cy="198.175493" rx="12.4998112" ry="2.11249234"></ellipse>
                        <path d="M29.4563345,194.718442 C29.9952356,194.219959 30.4937191,193.64064 30.6500004,192.918513 C30.8062818,192.196385 30.4991081,191.35031 29.8173982,191.088943 C29.0521587,190.795242 28.233029,191.32606 27.6132927,191.862267 C26.9935564,192.398473 26.2849015,193.007431 25.4738553,192.894262 C26.3225588,192.125349 26.7051772,190.967264 26.4816004,189.844082 C26.4495756,189.61691 26.3564428,189.402705 26.2121498,189.224346 C25.7891125,188.771669 25.0184839,188.954895 24.5092223,189.324042 C22.892519,190.461124 22.4425366,192.657146 22.4344531,194.632218 C22.2700882,193.918174 22.407508,193.177185 22.4048135,192.44428 C22.402119,191.711374 22.2000311,190.903023 21.5964618,190.509625 C21.2117247,190.303731 20.7796743,190.202455 20.3435168,190.215924 C19.6160003,190.188979 18.8076486,190.26173 18.3118596,190.792548 C17.6948178,191.455396 17.8537937,192.562838 18.3900003,193.290354 C18.9262069,194.017871 19.737253,194.470548 20.4944091,194.97442 C21.0964163,195.333879 21.61019,195.823714 21.9979432,196.407897 C22.044153,196.493574 22.0811834,196.583892 22.1084179,196.677348 L26.6648268,196.677348 C27.6793925,196.153223 28.6184066,195.494282 29.4563345,194.718442 L29.4563345,194.718442 Z" id="Path" fill="#BF0C3F"></path>
                    </g>
                    <g id="undraw_a_day_at_the_park_owg1" transform="translate(66.638298, 0.000000)">
                        <ellipse id="Oval" fill="#BF0C3F" opacity="0.1" cx="95.788833" cy="199.225429" rx="28.9840877" ry="4.31633785"></ellipse>
                        <ellipse id="Oval" fill="#BF0C3F" opacity="0.1" cx="136.871799" cy="196.084075" rx="7.0810058" ry="1"></ellipse>
                        <ellipse id="Oval" fill="#BF0C3F" opacity="0.1" cx="163.993191" cy="198.834919" rx="7.0810058" ry="1"></ellipse>
                        <ellipse id="Oval" fill="#BF0C3F" opacity="0.1" cx="195.942386" cy="195.112985" rx="7.0810058" ry="1"></ellipse>
                        <ellipse id="Oval" fill="#BF0C3F" opacity="0.1" cx="153.138414" cy="206.665841" rx="5.03515152" ry="1"></ellipse>
                        <ellipse id="Oval" fill="#BF0C3F" opacity="0.1" cx="181.289645" cy="205.974674" rx="5.03515152" ry="1"></ellipse>
                        <path d="M164.145248,198.617202 C164.145248,198.617202 154.216634,166.063237 165.700374,153.020916 C174.29158,143.268549 184.043946,144.436622 188.412121,145.642708 C190.697348,146.249701 192.601154,147.828837 193.620064,149.962502 C195.147544,153.259368 194.871077,158.602089 184.092328,164.846783 C166.045957,175.293772 164.922811,189.628575 164.922811,189.628575 L164.145248,198.617202 Z" id="Path" fill="#BF0C3F"></path>
                        <path d="M186.870819,150.259703 C186.870819,150.259703 157.596441,159.410754 164.159072,198.617202" id="Path" stroke="#565987"></path>
                        <path d="M169.76098,153.539291 C169.76098,153.539291 173.790484,156.255577 172.525648,160.340374" id="Path" stroke="#565987"></path>
                        <path d="M183.919536,155.958375 C183.919536,155.958375 181.455525,153.452895 178.459317,154.835229" id="Path" stroke="#565987"></path>
                        <path d="M172.356312,168.565261 C172.356312,168.565261 168.029607,166.370806 166.909916,169.121651" id="Path" stroke="#565987"></path>
                        <path d="M161.643224,173.140787 C161.643224,173.140787 164.891709,172.885055 164.950458,174.436725" id="Path" stroke="#565987"></path>
                        <path d="M163.744371,198.876389 C163.744371,198.876389 175.376712,175.214288 178.569903,175.722295 C180.087015,175.96766 180.788549,177.450213 181.10303,178.960413 C181.494615,180.899829 181.273612,182.913013 180.470613,184.721289 C178.818723,188.515796 174.388343,195.707389 163.744371,198.876389 Z" id="Path" fill="#BF0C3F"></path>
                        <path d="M178.483507,180.221792 C178.483507,180.221792 166.277498,197.926035 163.917163,198.703598" id="Path" stroke="#565987"></path>
                        <path d="M179.606654,182.98646 L176.75559,182.98646" id="Path" stroke="#565987"></path>
                        <path d="M176.192289,189.462695 L171.72735,189.652766" id="Path" stroke="#565987"></path>
                        <path d="M173.476003,184.282398 L173.959819,186.608175" id="Path" stroke="#565987"></path>
                        <path d="M168.727685,191.363404 L168.810625,193.478375" id="Path" stroke="#565987"></path>
                        <path d="M164.089955,198.876389 C164.089955,198.876389 152.46107,175.214288 149.264423,175.722295 C147.747311,175.96766 147.049233,177.450213 146.731296,178.960413 C146.339711,180.899829 146.560714,182.913013 147.363714,184.721289 C149.015603,188.515796 153.449439,195.707389 164.089955,198.876389 Z" id="Path" fill="#BF0C3F"></path>
                        <path d="M149.350819,180.221792 C149.350819,180.221792 161.560284,197.926035 163.917163,198.703598" id="Path" stroke="#565987"></path>
                        <path d="M148.227672,182.98646 L151.078736,182.98646" id="Path" stroke="#565987"></path>
                        <path d="M151.642037,189.462695 L156.106976,189.652766" id="Path" stroke="#565987"></path>
                        <path d="M154.358324,184.282398 L153.874507,186.608175" id="Path" stroke="#565987"></path>
                        <path d="M159.110097,191.363404 L159.023701,193.478375" id="Path" stroke="#565987"></path>
                        <path d="M184.061225,204.40227 C184.377684,204.144221 184.607943,203.795819 184.721289,203.403533 C184.826717,202.997921 184.635428,202.573632 184.261663,202.384062 C183.836596,202.221638 183.380426,202.515384 183.038298,202.812585 C182.69617,203.109787 182.298749,203.451915 181.849491,203.386254 C182.320998,202.959588 182.533601,202.316531 182.409336,201.692895 C182.389713,201.565099 182.334637,201.44537 182.250368,201.347311 C182.015371,201.095035 181.590303,201.202166 181.306925,201.399149 C180.408407,202.031567 180.156132,203.251476 180.152676,204.350432 C180.109406,203.946102 180.109406,203.538308 180.152676,203.133978 C180.188608,202.722187 180.017667,202.319441 179.696505,202.059213 C179.483907,201.946565 179.245859,201.890623 179.005338,201.896789 C178.600071,201.838087 178.189002,201.954996 177.87528,202.218182 C177.529697,202.5845 177.623005,203.199639 177.920206,203.600516 C178.252621,203.97774 178.64781,204.294592 179.088279,204.537047 C179.4233,204.735698 179.709172,205.007395 179.924591,205.331889 C179.948826,205.377503 179.969619,205.424865 179.986796,205.473578 L182.516467,205.473578 C183.076668,205.186647 183.596156,204.826376 184.061225,204.40227 Z" id="Path" fill="#BF0C3F"></path>
                        <path d="M139.743598,194.888356 C140.059728,194.63001 140.289914,194.281719 140.403662,193.88962 C140.509505,193.484007 140.316156,193.059794 139.94058,192.873604 C139.515513,192.71118 139.062798,193.004926 138.717215,193.302128 C138.371631,193.599329 137.981122,193.938001 137.528407,193.875796 C138.000514,193.44952 138.213231,192.806117 138.088253,192.182437 C138.069625,192.055004 138.015762,191.93531 137.93274,191.836854 C137.697743,191.584578 137.26922,191.695164 136.989297,191.892147 C136.09078,192.524565 135.838504,193.744475 135.835048,194.839974 C135.78604,194.437415 135.780248,194.030768 135.817769,193.626976 C135.853082,193.215284 135.68226,192.812815 135.361599,192.552211 C135.150051,192.436788 134.911247,192.380669 134.670432,192.389787 C134.265666,192.330135 133.854657,192.44577 133.540374,192.707724 C133.238709,193.124937 133.257181,193.693313 133.5853,194.090058 C133.917857,194.466198 134.313057,194.78189 134.753372,195.023133 C135.087767,195.224087 135.373403,195.49674 135.589684,195.821431 C135.614015,195.86655 135.633699,195.914023 135.648433,195.963121 L138.18156,195.963121 C138.748652,195.677499 139.274168,195.315917 139.743598,194.888356 Z" id="Path" fill="#BF0C3F"></path>
                        <path d="M154.513836,204.40227 C154.829317,204.143338 155.059358,203.795265 155.173901,203.403533 C155.28017,202.996948 155.08693,202.571532 154.710819,202.384062 C154.285751,202.221638 153.833037,202.515384 153.487453,202.812585 C153.14187,203.109787 152.75136,203.451915 152.298646,203.386254 C152.771355,202.960371 152.984187,202.316618 152.858491,201.692895 C152.842148,201.564806 152.788007,201.444492 152.702979,201.347311 C152.467982,201.095035 152.039458,201.202166 151.759536,201.399149 C150.861019,202.031567 150.608743,203.251476 150.605287,204.350432 C150.562017,203.946102 150.562017,203.538308 150.605287,203.133978 C150.639375,202.722482 150.468785,202.320562 150.149117,202.059213 C149.936354,201.947003 149.698422,201.891088 149.45795,201.896789 C149.052682,201.838087 148.641613,201.954996 148.327892,202.218182 C147.982308,202.5845 148.075616,203.199639 148.372818,203.600516 C148.705233,203.97774 149.100421,204.294592 149.54089,204.537047 C149.875911,204.735698 150.161783,205.007395 150.377202,205.331889 C150.401393,205.376815 150.418672,205.425197 150.439407,205.473578 L152.969078,205.473578 C153.52928,205.186647 154.048767,204.826376 154.513836,204.40227 Z" id="Path" fill="#BF0C3F"></path>
                        <path d="M196.402012,185.139446 C196.402012,185.139446 197.352366,186.38009 195.963121,188.249697 C194.573875,190.119304 193.433449,191.705532 193.88962,192.870148 C193.88962,192.870148 195.9804,189.393578 197.691038,189.345197 C199.401676,189.296815 198.275074,187.230226 196.402012,185.139446 Z" id="Path" fill="#BF0C3F"></path>
                        <path d="M196.402012,185.139446 C196.484602,185.258601 196.549768,185.388933 196.595538,185.526499 C198.257795,187.479046 199.142489,189.300271 197.545893,189.348652 C196.056428,189.390123 194.273217,192.051115 193.844694,192.721547 C193.858333,192.773402 193.875656,192.824217 193.896531,192.873604 C193.896531,192.873604 195.987311,189.397034 197.69795,189.348652 C199.408588,189.300271 198.275074,187.230226 196.402012,185.139446 Z" id="Path" fill="#000000" opacity="0.1"></path>
                        <path d="M198.164487,186.718762 C198.164487,187.157653 198.116106,187.510148 198.057357,187.510148 C197.998607,187.510148 197.94677,187.164565 197.94677,186.718762 C197.94677,186.272959 198.008975,186.487221 198.067724,186.487221 C198.126473,186.487221 198.164487,186.283327 198.164487,186.718762 Z" id="Path" fill="#FFD037"></path>
                        <path d="M198.769259,187.240593 C198.389117,187.451399 198.053901,187.586177 198.022798,187.523972 C197.991696,187.461767 198.281986,187.257872 198.665583,187.050522 C199.049181,186.843172 198.897124,186.991773 198.928227,187.050522 C198.959329,187.109271 199.152856,187.033243 198.769259,187.240593 Z" id="Path" fill="#FFD037"></path>
                        <path d="M191.391051,185.139446 C191.391051,185.139446 190.440696,186.38009 191.829942,188.249697 C193.219188,190.119304 194.359613,191.705532 193.903443,192.870148 C193.903443,192.870148 191.829942,189.393578 190.102025,189.345197 C188.374107,189.296815 189.517988,187.230226 191.391051,185.139446 Z" id="Path" fill="#BF0C3F"></path>
                        <path d="M191.391051,185.139446 C191.30846,185.258601 191.243294,185.388933 191.197524,185.526499 C189.535268,187.479046 188.650574,189.300271 190.24717,189.348652 C191.736634,189.390123 193.519845,192.051115 193.948369,192.721547 C193.93473,192.773402 193.917407,192.824217 193.896531,192.873604 C193.896531,192.873604 191.82303,189.397034 190.095113,189.348652 C188.367195,189.300271 189.517988,187.230226 191.391051,185.139446 Z" id="Path" fill="#000000" opacity="0.1"></path>
                        <path d="M189.635487,186.718762 C189.635487,187.157653 189.683868,187.510148 189.742618,187.510148 C189.801367,187.510148 189.853204,187.164565 189.853204,186.718762 C189.853204,186.272959 189.790999,186.487221 189.73225,186.487221 C189.673501,186.487221 189.635487,186.283327 189.635487,186.718762 Z" id="Path" fill="#FFD037"></path>
                        <path d="M189.020348,187.240593 C189.403946,187.451399 189.739162,187.586177 189.766809,187.523972 C189.794455,187.461767 189.511077,187.257872 189.127479,187.050522 C188.743881,186.843172 188.895938,186.991773 188.864836,187.050522 C188.833733,187.109271 188.63675,187.033243 189.020348,187.240593 Z" id="Path" fill="#FFD037"></path>
                        <path d="M189.929233,192.71118 C189.929233,192.71118 192.583314,192.631696 193.385068,192.061483 C194.186821,191.49127 197.466409,190.813926 197.663391,191.715899 C197.860374,192.617872 201.647969,196.256867 198.655216,196.281057 C195.662463,196.305248 191.695164,195.81452 190.896867,195.327247 C190.098569,194.839974 189.929233,192.71118 189.929233,192.71118 Z" id="Path" fill="#A8A8A8"></path>
                        <path d="M198.703598,195.973488 C195.710845,195.997679 191.747002,195.50695 190.948704,195.019678 C190.340477,194.649903 190.098569,193.322863 190.019084,192.707724 L189.929233,192.707724 C189.929233,192.707724 190.098569,194.846886 190.893411,195.334159 C191.688253,195.821431 195.655551,196.31216 198.65176,196.287969 C199.515719,196.287969 199.812921,195.973488 199.799097,195.517318 C199.678143,195.793785 199.349839,195.966576 198.703598,195.973488 Z" id="Path" fill="#000000" opacity="0.2"></path>
                        <path d="M128.294417,20.7833914 C128.294417,20.7833914 118.79087,12.9006319 136.125338,0.224629271 C136.125338,0.224629271 144.730368,16.6813153 133.201702,22.2521212 C133.201702,22.2521212 133.41942,14.1274533 132.351567,14.1412766 C131.283714,14.1550999 128.294417,20.7833914 128.294417,20.7833914 Z" id="Path" fill="#029E83"></path>
                        <path d="M113.752263,28.7974726 C113.752263,28.7974726 96.9741844,30.3491425 101.490961,1.39270148 C101.490961,1.39270148 125.681805,8.99553836 119.907105,25.4867827 C119.907105,25.4867827 112.283533,17.4312315 111.267518,18.4748936 C110.251502,19.5185558 113.752263,28.7974726 113.752263,28.7974726 Z" id="Path" fill="#029E83"></path>
                        <path d="M34.0503417,65.8301999 C34.0503417,65.8301999 17.4554223,68.7503804 19.6084075,39.5140168 C19.6084075,39.5140168 44.3279948,45.119381 39.9252611,62.0287814 C39.9252611,62.0287814 31.6727273,54.6229271 30.7431077,55.7460735 C29.8134881,56.8692199 34.0503417,65.8301999 34.0503417,65.8301999 Z" id="Path" fill="#029E83"></path>
                        <path d="M158.612456,27.6259446 C158.612456,27.6259446 174.574958,33.0170471 176.876544,3.80141844 C176.876544,3.80141844 151.597112,5.60190845 153.376867,22.9813024 C153.376867,22.9813024 162.655783,16.9094004 163.398788,18.1604126 C164.141792,19.4114249 158.612456,27.6259446 158.612456,27.6259446 Z" id="Path" fill="#029E83"></path>
                        <path d="M74.4006705,36.179136 C74.4006705,36.179136 58.4796389,30.6705351 74.5389039,6.15829787 C74.5389039,6.15829787 93.4319536,23.0538749 81.3745455,35.7022308 C81.3745455,35.7022308 77.7562863,25.2206834 76.3981431,25.752882 C75.04,26.2850806 74.4006705,36.179136 74.4006705,36.179136 Z" id="Path" fill="#029E83"></path>
                        <path d="M132.164952,27.6259446 C132.164952,27.6259446 131.224965,18.6649645 146.738208,20.8905222 C146.738208,20.8905222 142.833114,33.8671825 133.979265,30.8951644 C133.979265,30.8951644 138.233398,26.7654417 137.670097,26.2297872 C137.106796,25.6941328 132.164952,27.6259446 132.164952,27.6259446 Z" id="Path" fill="#029E83"></path>
                        <path d="M116.447814,46.2010574 C116.447814,46.2010574 115.504371,37.2400774 131.017614,39.4656351 C131.017614,39.4656351 127.115977,52.4422953 118.258672,49.4875564 C118.258672,49.4875564 122.512805,45.3405545 121.949504,44.8221792 C121.386202,44.303804 116.447814,46.2010574 116.447814,46.2010574 Z" id="Path" fill="#029E83"></path>
                        <path d="M149.319716,50.1441651 C149.319716,50.1441651 142.515177,44.241599 155.363972,35.2840748 C155.363972,35.2840748 161.373669,47.4313346 152.87577,51.3053256 C152.87577,51.3053256 153.166061,45.3854803 152.385042,45.3785687 C151.604023,45.371657 149.319716,50.1441651 149.319716,50.1441651 Z" id="Path" fill="#029E83"></path>
                        <path d="M121.876931,100.889645 C121.876931,100.889645 130.295345,97.6791747 132.130393,113.240799 C132.130393,113.240799 118.586976,112.801908 119.18138,103.481522 C119.18138,103.481522 124.264913,106.533024 124.641599,105.848769 C125.018285,105.164513 121.876931,100.889645 121.876931,100.889645 Z" id="Path" fill="#029E83"></path>
                        <path d="M122.540451,85.1275822 C122.540451,85.1275822 115.735912,79.2250161 128.588162,70.2674919 C128.588162,70.2674919 134.597859,82.4147518 126.096505,86.2921986 C126.096505,86.2921986 126.386796,80.3688975 125.609233,80.3619858 C124.83167,80.3550741 122.540451,85.1275822 122.540451,85.1275822 Z" id="Path" fill="#029E83"></path>
                        <path d="M70.1914636,68.3633269 C70.1914636,68.3633269 62.0253256,72.1647453 59.0913217,56.7690006 C59.0913217,56.7690006 72.6347389,56.2471696 72.6969439,65.5882914 C72.6969439,65.5882914 67.4095164,62.9031077 67.084668,63.6115538 C66.7598195,64.32 70.1914636,68.3633269 70.1914636,68.3633269 Z" id="Path" fill="#029E83"></path>
                        <path d="M50.4413669,50.0888717 C50.4413669,50.0888717 42.271773,53.8902901 39.341225,38.4945455 C39.341225,38.4945455 52.8846422,37.9727144 52.9468472,47.3172921 C52.9468472,47.3172921 47.6594197,44.6321083 47.3345712,45.3405545 C47.0097228,46.0490006 50.4413669,50.0888717 50.4413669,50.0888717 Z" id="Path" fill="#029E83"></path>
                        <path d="M77.929078,92.5057898 C77.929078,92.5057898 68.9439072,92.8513733 72.2027595,77.510922 C72.2027595,77.510922 84.8822179,82.2903417 81.3157963,90.9230174 C81.3157963,90.9230174 77.4867311,86.3958736 76.9096067,86.9211605 C76.3324823,87.4464475 77.929078,92.5057898 77.929078,92.5057898 Z" id="Path" fill="#029E83"></path>
                        <path d="M76.3359381,103.384758 C76.3359381,103.384758 77.9359897,112.248975 62.3017924,111.177666 C62.3017924,111.177666 65.2357963,97.945274 74.286628,100.257228 C74.286628,100.257228 70.3469761,104.687608 70.9517473,105.181792 C71.5565184,105.675977 76.3359381,103.384758 76.3359381,103.384758 Z" id="Path" fill="#029E83"></path>
                        <path d="M55.3659317,96.52147 C55.3659317,96.52147 51.9550226,104.8604 39.341225,95.5572921 C39.341225,95.5572921 48.9242553,85.9742618 55.31755,92.7926241 C55.31755,92.7926241 49.6154223,94.4134107 49.8573308,95.1529594 C50.0992392,95.8925081 55.3659317,96.52147 55.3659317,96.52147 Z" id="Path" fill="#029E83"></path>
                        <path d="M126.324591,63.8430948 C126.324591,63.8430948 116.821044,55.9637911 134.155513,43.2843327 C134.155513,43.2843327 142.760542,59.7444745 131.231876,65.3152805 C131.231876,65.3152805 131.449594,57.1906125 130.381741,57.2044358 C129.313888,57.2182592 126.324591,63.8430948 126.324591,63.8430948 Z" id="Path" fill="#029E83"></path>
                        <path d="M165.575964,47.5833914 C165.575964,47.5833914 158.629736,37.3748549 178.801444,30.003559 C178.801444,30.003559 182.502643,48.2054417 169.881934,50.3584268 C169.881934,50.3584268 172.342489,42.6139007 171.31265,42.3305222 C170.282811,42.0471438 165.575964,47.5833914 165.575964,47.5833914 Z" id="Path" fill="#029E83"></path>
                        <path d="M164.490832,79.6915538 C164.490832,79.6915538 154.987286,71.8122502 172.321754,59.1327917 C172.321754,59.1327917 180.926783,75.5894778 169.398117,81.1602837 C169.398117,81.1602837 169.615835,73.0390716 168.547982,73.0528949 C167.480129,73.0667182 164.490832,79.6915538 164.490832,79.6915538 Z" id="Path" fill="#029E83"></path>
                        <path d="M147.519226,95.0458285 C147.519226,95.0458285 151.292998,83.2959897 169.51216,94.658775 C169.51216,94.658775 157.440928,108.772405 147.982308,100.146641 C147.982308,100.146641 155.585145,97.3232237 155.19118,96.3452224 C154.797215,95.3672211 147.519226,95.0458285 147.519226,95.0458285 Z" id="Path" fill="#029E83"></path>
                        <path d="M171.865583,86.5030045 C171.865583,86.5030045 175.639355,74.7531657 193.858517,86.115951 C193.858517,86.115951 181.787286,100.229581 172.32521,91.6038169 C172.32521,91.6038169 179.928046,88.7803997 179.537537,87.8023985 C179.147028,86.8243972 171.865583,86.5030045 171.865583,86.5030045 Z" id="Path" fill="#029E83"></path>
                        <path d="M93.7844487,42.0022179 C93.7844487,42.0022179 81.6302772,39.8284977 90.4633914,20.2546486 C90.4633914,20.2546486 106.06303,30.3353191 98.7781302,40.8617924 C98.7781302,40.8617924 94.9767118,33.687479 94.0401805,34.2265893 C93.1036493,34.7656995 93.7844487,42.0022179 93.7844487,42.0022179 Z" id="Path" fill="#029E83"></path>
                        <path d="M64.8798453,46.5535525 C64.8798453,46.5535525 52.6600129,48.3609542 54.8233656,26.9866151 C54.8233656,26.9866151 72.8178981,31.5932431 69.2514765,43.8891038 C69.2514765,43.8891038 63.3558221,38.2975629 62.6508317,39.0993166 C61.9458414,39.9010703 64.8798453,46.5535525 64.8798453,46.5535525 Z" id="Path" fill="#029E83"></path>
                        <path d="M57.3011992,78.2331915 C57.3011992,78.2331915 45.0848227,80.0302257 47.2481754,58.6627982 C47.2481754,58.6627982 65.2427079,63.2694262 61.6762863,75.5652869 C61.6762863,75.5652869 55.7806319,69.973746 55.0756415,70.7754997 C54.3706512,71.5772534 57.3011992,78.2331915 57.3011992,78.2331915 Z" id="Path" fill="#029E83"></path>
                        <path d="M44.3694649,87.854236 C44.3694649,87.854236 33.8326241,94.2855448 27.4669761,73.7751644 C27.4669761,73.7751644 45.8278272,70.9759381 47.3553063,83.6899549 C47.3553063,83.6899549 39.7524694,80.8492585 39.4068859,81.8618182 C39.0613024,82.8743778 44.3694649,87.854236 44.3694649,87.854236 Z" id="Path" fill="#029E83"></path>
                        <path d="M143.361857,78.0120181 C143.361857,78.0120181 133.854855,70.1292585 151.189323,57.453256 C151.189323,57.453256 159.794352,73.909942 148.269142,79.4807479 C148.269142,79.4807479 148.483404,71.3560799 147.415551,71.3699033 C146.347698,71.3837266 143.361857,78.0120181 143.361857,78.0120181 Z" id="Path" fill="#029E83"></path>
                        <path d="M75.9385171,195.061148 C75.9385171,195.061148 98.574236,194.107337 100.958762,149.78971 C103.343288,105.472083 79.750303,97.9521857 79.750303,97.9521857 C79.750303,97.9521857 72.275332,93.7775371 68.9611863,93.6047453 C65.6470406,93.4319536 54.5710896,94.4756157 54.5710896,94.4756157 L66.7840103,92.1221921 C66.7840103,92.1221921 49.601599,85.5802966 44.4558607,85.0550097 L63.0309736,88.9808382 C63.0309736,88.9808382 63.293617,78.6893617 58.8459574,75.2888201 C58.8459574,75.2888201 62.6473759,75.0054417 64.6586718,82.4182076 C65.8182385,86.7549873 68.9643452,90.2857036 73.1392908,91.935577 C80.0302257,94.6242166 89.5545068,98.8645261 91.7247711,102.500064 C91.7247711,102.500064 95.7369955,106.685081 95.1287685,95.7853772 C94.5205416,84.8856738 91.6383752,75.5480077 90.5912573,75.2853643 C90.5912573,75.2853643 82.3940168,66.5662927 70.8929981,66.0444616 C70.8929981,66.0444616 77.6076854,63.3385429 88.9462798,71.7984268 C88.9462798,71.7984268 89.9035461,67.5270148 85.6321341,62.4676725 C81.3607221,57.4083301 74.7289749,46.7678143 67.4890006,45.6343005 C67.4890006,45.6343005 77.6076854,45.0226177 85.6321341,58.1064088 C85.6321341,58.1064088 88.5972405,60.0243972 88.8598839,55.1413024 C89.1225274,50.2582076 90.8642682,44.1517473 90.8642682,44.1517473 C90.8642682,44.1517473 93.3075435,55.4039458 88.1618053,60.4598324 C88.1618053,60.4598324 98.0143907,73.28098 97.5789555,87.6745326 C97.5789555,87.6745326 100.633914,94.2129723 101.767427,86.5375629 C101.767427,86.5375629 102.424036,75.9696196 103.733798,67.0017279 C104.806805,59.6981107 102.789511,52.2775739 98.1664475,46.52245 C95.9858156,43.8096196 94.4687041,41.1728175 95.3119278,39.7904836 L106.736918,53.3961057 C106.736918,53.3961057 116.330316,31.1578079 123.324926,26.361109 C130.319536,21.5644101 131.176583,20.5172921 131.176583,20.5172921 L119.924384,33.687479 L134.055293,28.7145326 L119.882914,35.2633398 C119.882914,35.2633398 113.341019,40.5818698 109.591438,55.1482141 C105.841857,69.7145583 105.492818,78.7723017 105.492818,78.7723017 C105.492818,78.7723017 125.640335,62.813256 129.476312,63.335087 L116.437447,73.2084075 C109.263729,78.6351195 104.793799,86.9043641 104.183056,95.8786847 L104.183056,95.8786847 C104.183056,95.8786847 129.389916,89.423185 135.496377,88.2032753 L147.007763,76.4292456 L138.285235,87.5915925 L156.255577,87.3324049 L166.547054,80.0060348 C166.547054,80.0060348 158.436209,86.807118 159.220683,87.2425532 C160.005158,87.6779884 171.869039,88.2032753 171.869039,88.2032753 C171.869039,88.2032753 141.689233,88.0270277 138.375087,90.2076596 C135.060941,92.3882914 127.661999,93.172766 127.661999,93.172766 L149.029426,96.4005158 L123.563378,94.5689233 C123.563378,94.5689233 104.276364,98.0593166 103.239613,104.075925 C103.239613,104.075925 107.165442,114.31902 109.781509,118.379626 C111.951773,121.755977 116.319948,132.683327 117.194275,142.276725 C118.068601,151.870123 119.267776,166.609259 115.970909,175.594429 C112.674043,184.5796 111.436854,189.721883 113.095654,192.427801 C114.754455,195.13372 116.319948,198.620658 110.915023,199.31528 C105.510097,200.009903 81.782334,198.969697 81.782334,198.969697 C81.782334,198.969697 74.5285364,200.396957 75.9385171,195.061148 Z" id="Path" fill="#B77B7F"></path>
                        <path d="M88.6041522,190.302463 C90.9766437,189.102032 93.6940182,188.768319 96.2864732,189.35902 C100.730677,190.319742 107.53176,189.808279 108.15381,189.704603" id="Path" fill="#000000" opacity="0.1"></path>
                        <path d="M102.81109,138.074429 C102.81109,138.074429 103.892766,155.122063 101.971322,158.484591 L102.81109,138.074429 Z" id="Path" fill="#000000" opacity="0.1"></path>
                        <path d="M106.799123,158.484591 C106.799123,158.484591 105.416789,174.454004 104.456067,177.574623 C103.495345,180.695242 106.799123,158.484591 106.799123,158.484591 Z" id="Path" fill="#000000" opacity="0.1"></path>
                        <path d="M108.15381,119.226306 C109.131812,119.571889 113.337563,128.111257 112.494339,130.630561 C111.651115,133.149865 108.15381,119.226306 108.15381,119.226306 Z" id="Path" fill="#000000" opacity="0.1"></path>
                        <path d="M97.4960155,110.375912 C97.9521857,110.583262 99.9150999,115.494004 99.5176789,116.941999 C99.1202579,118.389994 97.4960155,110.375912 97.4960155,110.375912 Z" id="Path" fill="#000000" opacity="0.1"></path>
                        <path d="M115.680619,139.007505 C115.196802,143.95626 114.934159,147.197834 115.241728,151.161676 C115.502302,154.239941 115.458315,157.336414 115.110406,160.406035" id="Path" fill="#000000" opacity="0.1"></path>
                        <path d="M63.0758994,81.3607221 C63.6259965,82.0797097 63.9148617,82.9645877 63.8949323,83.8696583 C63.922579,84.7681754 63.8085364,85.6666925 63.8672856,86.5617537 C63.9260348,87.456815 64.3752934,88.6110638 65.3118246,88.7389297" id="Path" fill="#000000" opacity="0.1"></path>
                        <path d="M79.1800903,51.8444358 C80.3732983,53.031134 81.4325294,54.3453222 82.3387234,55.7633527 C82.6012226,56.2124902 82.9006074,56.6390269 83.2337847,57.0385558 C83.7726905,57.5543292 84.3503567,58.0280155 84.9617021,58.4554481 C86.3248656,59.5625808 87.2944485,61.079978 87.7263701,62.7821534" id="Path" fill="#000000" opacity="0.1"></path>
                        <path d="M124.772921,26.361109 C124.485287,26.9185624 124.106888,27.4242623 123.65323,27.8574855 C123.259265,28.2341715 122.806551,28.5486525 122.4506,28.9633527 C122.164396,29.3223782 121.905629,29.7024423 121.676493,30.1003224 C120.716516,31.5527446 119.635607,32.9215102 118.445287,34.1920309" id="Path" fill="#000000" opacity="0.1"></path>
                        <path d="M103.657769,51.5921599 C104.411141,52.0621534 104.608124,53.0678014 104.590845,53.9524952 C104.573565,54.8371889 104.421509,55.7598968 104.753269,56.5823856 C104.90187,56.9590716 105.143778,57.2735525 105.302747,57.6606061 C105.529956,58.3184042 105.617065,59.0164539 105.558478,59.7099162 C105.558478,60.5116699 105.53544,61.3180314 105.489362,62.1290006 C105.447892,63.0931786 105.354584,64.1437524 104.697975,64.8521986" id="Path" fill="#000000" opacity="0.1"></path>
                        <path d="M109.978491,76.6124049 C109.275109,76.9838696 108.617504,77.4361905 108.019033,77.9601805 C107.417916,78.4897198 107.0166,79.209406 106.882063,79.9991231 C106.840593,80.3447066 106.861328,80.6902901 106.788756,81.0116828 C106.656559,81.4642665 106.42783,81.8828168 106.118324,82.2385042 C105.612042,82.8865364 105.06,83.4974781 104.466435,84.0666409" id="Path"></path>
                        <path d="M104.276364,99.3863572 C104.771751,98.9789274 105.298693,98.6114553 105.852224,98.2874017 C106.359537,97.9788604 106.905778,97.739444 107.476467,97.5754997 C108.343881,97.3439587 109.259678,97.3785171 110.154739,97.2852095 C111.0498,97.191902 111.986331,96.939626 112.598014,96.2830174" id="Path" fill="#000000" opacity="0.1"></path>
                        <path d="M139.743598,88.3656995 C138.682656,88.3968021 137.580245,88.4348162 136.633346,88.9186331 C136.152985,89.1674533 135.734829,89.5234043 135.251012,89.7860477 C134.638242,90.1247647 133.950229,90.3041946 133.250084,90.3078788" id="Path" fill="#000000" opacity="0.1"></path>
                        <path d="M125.032108,92.7442424 C125.294637,92.604197 125.620345,92.6811825 125.792392,92.9239458 C125.982463,93.1382076 126.086138,93.4215861 126.283121,93.632392 C126.670174,94.0540039 127.319871,94.0989297 127.872805,94.1196647" id="Path" fill="#000000" opacity="0.1"></path>
                        <path d="M118.963662,70.2052869 L117.926912,70.7374855 C116.867205,71.2495293 115.860205,71.8641468 114.920335,72.5725338" id="Path" fill="#000000" opacity="0.1"></path>
                        <path d="M107.310587,80.1753707 C106.640155,80.0164023 106.06303,80.7317602 105.928253,81.4091038 C105.793475,82.0864475 105.948988,82.7914378 105.755461,83.4653256 C105.546561,84.0412739 105.20155,84.5581984 104.749813,84.9720696" id="Path" fill="#000000" opacity="0.1"></path>
                        <path d="M73.5885493,113.47234 L69.6903675,121.766344 C69.6903675,121.766344 69.1166989,123.32147 68.7469246,123.61176 C68.3771502,123.90205 66.7390845,128.816248 66.7390845,128.816248 L62.5575242,135.26138 L62.5575242,135.26138 L62.2741457,135.700271 L60.6326241,135.247556 L59.4852869,130.955409 L59.5544036,129.711309 L59.5544036,129.55234 C59.5544036,129.55234 62.1393681,126.849877 62.7130368,126.642527 C62.7130368,126.642527 63.1622953,126.694365 64.0227982,124.600129 C64.8833011,122.505893 65.6643198,122.053179 65.6643198,122.053179 L66.1135783,120.532611 L70.9517473,112.826099 C70.9517473,112.826099 75.0088975,107.009929 76.1147647,109.591438 C77.2206319,112.172946 73.5885493,113.47234 73.5885493,113.47234 Z" id="Path" fill="#FFD2C6"></path>
                        <path d="M26.4578723,122.181044 C26.2485038,122.620578 26.0963584,123.085144 26.005158,123.563378 C25.9809671,123.684333 25.9533204,123.812199 25.9222179,123.94352 C25.6561186,125.325854 25.4695035,127.053772 25.3796518,128.069787 C25.334726,128.577795 25.3105351,128.902643 25.3105351,128.902643 C25.3105351,128.902643 15.5236106,128.246035 17.2204255,126.607969 C17.6544381,126.151876 17.9628199,125.591074 18.1154868,124.980271 C18.1638685,124.807479 18.2087943,124.634687 18.2433527,124.448072 C18.3234084,124.039715 18.3753678,123.626349 18.3988652,123.210883 L18.3988652,122.892946 C18.4199444,122.216412 18.3875895,121.53927 18.3021019,120.867827 C18.3021019,120.867827 21.4849259,120.847092 23.8832753,121.123559 C25.5075177,121.310174 26.7654417,121.624655 26.4578723,122.181044 Z" id="Path" fill="#D38884"></path>
                        <path d="M57.4014184,172.311386 C57.3895402,172.452351 57.3445456,172.588518 57.2700967,172.708807 C56.8208382,173.365416 54.2773436,186.767144 54.2773436,186.767144 C54.4812379,187.672573 53.9110251,189.476518 53.5412508,190.299007 C53.1714765,191.121496 52.3489877,195.379084 52.3489877,195.379084 C52.3489877,195.379084 52.1450935,204.564694 51.6163507,205.995409 C51.087608,207.426125 51.7856867,210.505274 51.7856867,210.505274 C51.7338491,211.918711 52.5839845,213.415087 53.0885364,214.175371 C53.1230948,214.223752 53.1576531,214.272134 53.1852998,214.31706 C53.3511799,214.552057 53.4583108,214.686834 53.4583108,214.686834 C53.5977494,214.960591 53.793202,215.201964 54.0319794,215.39528 L54.1460219,215.485132 C54.8432262,215.951507 55.623334,216.279974 56.4441522,216.452766 L56.5236364,216.470045 C56.8519407,216.542618 57.0662025,216.57372 57.0662025,216.57372 L57.2770084,217.696867 L55.1032882,218.146125 L50.9562863,218.432959 C50.9562863,218.432959 46.0766473,218.802734 47.1825145,216.629014 C47.2598558,216.480615 47.3268287,216.327039 47.3829529,216.169387 L47.3829529,216.169387 C47.424423,216.065712 47.4624371,215.955126 47.4969955,215.844539 C48.1605158,213.771038 47.7112573,211.217176 47.7112573,211.217176 L46.7678143,203.800954 C45.2126886,196.913475 47.9946357,189.244977 47.9946357,189.244977 C47.9946357,189.244977 47.7527273,188.633295 48.2849259,187.074713 C48.8171244,185.516132 48.2918375,182.101767 48.2918375,182.101767 C48.2918375,182.101767 48.0084591,177.712856 47.6386847,175.53568 C47.4905696,174.622075 47.4407517,173.695231 47.4900838,172.771012 C47.5069423,172.229398 47.5565667,171.6893 47.6386847,171.153681 L56.9694391,169.916493 C56.9694391,169.916493 57.5120052,171.447427 57.4014184,172.311386 Z" id="Path" fill="#FFD2C6"></path>
                        <path d="M57.2770084,217.696867 L55.1032882,218.146125 L50.9562863,218.432959 C50.9562863,218.432959 46.0766473,218.802734 47.1825145,216.629014 C47.2598558,216.480615 47.3268287,216.327039 47.3829529,216.169387 L47.3829529,216.169387 C47.424423,216.065712 47.4624371,215.955126 47.4969955,215.844539 C48.3426324,215.871396 49.1778107,216.0396 49.9679175,216.342179 C51.3502515,216.877834 52.3870019,215.481676 52.3870019,215.481676 L53.0781689,214.19265 L53.1749323,214.006035 C53.3408124,214.241032 53.4479433,214.375809 53.4479433,214.375809 C53.611848,214.692898 53.8487416,214.96651 54.1391103,215.174107 L54.0250677,215.41256 L53.3684591,216.794894 C53.3684591,216.794894 54.208227,216.881289 55.3555642,217.064449 C55.8163757,217.190433 56.2942913,216.929335 56.4372405,216.473501 L56.5167247,216.49078 C56.845029,216.563353 57.0592908,216.594455 57.0592908,216.594455 L57.2770084,217.696867 Z" id="Path" fill="#000000" opacity="0.1"></path>
                        <path d="M59.2779368,218.702515 C59.1155126,219.442063 54.5434429,219.666692 54.5434429,219.666692 C54.5434429,219.666692 52.0034043,219.421328 51.2880464,220.012276 C50.5726886,220.603224 48.4749968,220.461534 48.3955126,220.461534 C48.3160284,220.461534 47.2067054,220.420064 46.774726,218.436415 C46.3427466,216.452766 47.3380271,216.162476 47.3864088,216.145197 L47.3864088,216.145197 C48.2709036,216.158176 49.1460962,216.327832 49.9713733,216.646293 C51.3537073,217.181947 52.3904578,215.78579 52.3904578,215.78579 L53.1645648,214.310148 C53.3304449,214.545145 53.4375758,214.679923 53.4375758,214.679923 C53.6014805,214.997012 53.8383741,215.270624 54.1287427,215.478221 L53.3580916,217.095551 C53.3580916,217.095551 54.1978594,217.181947 55.3451966,217.365106 C55.6229159,217.428384 55.9143744,217.363759 56.1393192,217.189025 C56.3642639,217.014291 56.498974,216.747875 56.5063572,216.463133 C56.5088476,216.421701 56.5088476,216.380156 56.5063572,216.338723 C56.5063572,216.338723 57.221715,216.546074 58.1029529,216.791438 C58.9356222,217.021169 59.4487757,217.855798 59.2779368,218.702515 Z" id="Path" fill="#626696"></path>
                        <path d="M67.8864217,182.081032 C67.7792908,182.73764 67.6687041,184.434455 67.6687041,184.434455 C68.0523017,185.854803 67.0673888,189.227698 67.0673888,189.227698 L66.5766602,191.156054 C66.7943778,193.616609 65.2254288,199.626306 65.2254288,199.626306 C65.2254288,199.626306 64.1886783,205.204023 63.6253772,207.609284 C63.3004557,208.947095 63.3994852,210.352831 63.9087556,211.631876 C63.9364023,211.697537 63.9536815,211.72864 63.9536815,211.72864 C63.9607494,211.774264 63.9711447,211.81931 63.984784,211.863417 C64.0020632,211.929078 64.0227982,211.994739 64.0435332,212.056944 C64.1647724,212.393055 64.3475979,212.703624 64.5826435,212.97274 C64.6725522,213.080481 64.7707684,213.181008 64.8763894,213.273398 L64.8763894,213.273398 C65.3861892,213.727585 65.9708015,214.090045 66.6043069,214.344707 L66.6043069,214.344707 L66.8773179,214.451838 C67.1615926,214.561022 67.4524577,214.652206 67.7481883,214.724848 L67.7481883,214.724848 L67.8449516,214.749039 L67.627234,216.038066 L64.7312444,215.295061 L60.8503417,214.037137 L58.9427208,212.945093 L59.00147,212.637524 C59.00147,212.637524 59.00147,212.616789 59.00147,212.606422 C59.00147,212.520026 59.0325725,212.419807 59.0567634,212.305764 C59.3539652,210.612405 60.0935139,205.881367 59.7271954,202.394429 C59.2641135,198.078092 61.0611476,192.120232 61.5000387,190.699884 C61.7596033,189.887774 61.8708125,189.03556 61.828343,188.184036 C61.116441,187.147286 60.9540168,183.000284 60.9540168,183.000284 C60.9540168,183.000284 59.6407995,180.322012 58.5556673,177.470948 C58.1968431,176.543225 57.9351061,175.58082 57.7746486,174.599149 C57.6479726,173.906298 57.5946886,173.202024 57.6156802,172.498001 C57.6156802,172.498001 66.4176918,164.463185 67.3853256,172.24227 C67.4198839,172.504913 67.4475306,172.757189 67.4786331,173.002553 C68.3806061,180.138852 67.9900967,181.448614 67.8864217,182.081032 Z" id="Path" fill="#FFD2C6"></path>
                        <path d="M67.8864217,214.769774 L67.6687041,216.058801 L64.7727144,215.315796 L60.8918117,214.057872 L58.9841908,212.965828 L59.04294,212.658259 C59.04294,212.658259 59.04294,212.637524 59.04294,212.627157 C59.04294,212.540761 59.0740426,212.440542 59.0982334,212.326499 L59.3712444,212.298852 L59.3919794,212.298852 C59.9431894,212.247101 60.4989185,212.322774 61.0162218,212.520026 C61.6486396,212.755023 62.4745841,213.028034 62.6473759,212.913991 C62.9390903,212.787737 63.2561392,212.730952 63.5735397,212.748111 L63.9778723,211.866873 L64.0366215,211.732095 C64.1578607,212.068207 64.3406862,212.378776 64.5757318,212.647892 C64.671415,212.761404 64.7753745,212.867674 64.8867569,212.965828 L64.8867569,213.276854 L64.8660219,213.719201 C65.2958714,213.994516 65.7608239,214.210719 66.2483559,214.361986 C66.3754882,214.39318 66.5082771,214.39318 66.6354094,214.361986 L66.6354094,214.361986 L66.9084204,214.469117 C67.1926951,214.578302 67.4835602,214.669485 67.7792908,214.742128 L67.7792908,214.742128 L67.8864217,214.769774 Z" id="Path" fill="#000000" opacity="0.1"></path>
                        <path d="M66.4384268,217.517163 C65.6297614,217.285622 63.6737589,216.912392 63.3661896,217.202682 C63.0586202,217.492972 60.3457898,217.202682 60.3457898,217.202682 C59.7743324,217.187254 59.2514723,216.877459 58.9634558,216.383649 C58.4036106,215.505867 58.856325,212.678994 58.856325,212.678994 L59.0567634,212.658259 L59.4023469,212.627157 L59.4230819,212.627157 C59.9742919,212.575405 60.530021,212.651079 61.0473243,212.84833 C61.6797421,213.083327 62.5056867,213.356338 62.6784784,213.242295 C62.9696648,213.114299 63.2871322,213.057439 63.6046422,213.076415 L64.067724,212.0604 C64.1889632,212.396511 64.3717887,212.70708 64.6068343,212.976196 C64.7025175,213.089709 64.806477,213.195978 64.9178594,213.294133 L64.8798453,214.047505 C65.3096947,214.32282 65.7746472,214.539023 66.2621792,214.69029 C66.5072053,214.785366 66.7853416,214.696017 66.9291554,214.476028 C66.950879,214.441418 66.9682874,214.40428 66.9809929,214.365442 L66.9809929,214.365442 C67.0051838,214.410368 67.271283,214.503675 68.1248743,214.745583 L68.1248743,214.745583 C69.0475822,214.693746 69.9426435,215.091167 70.3538878,216.352547 C70.7651322,217.613926 67.2436364,217.745248 66.4384268,217.517163 Z" id="Path" fill="#626696"></path>
                        <path d="M57.4014184,172.311386 L56.9003224,172.463443 C56.5061483,172.582249 56.1027061,172.667792 55.694236,172.719175 C53.1058156,173.064758 48.8447711,172.86432 47.4900838,172.777924 C47.5069423,172.236309 47.5565667,171.696212 47.6386847,171.160593 L56.9694391,169.923404 C56.9694391,169.923404 57.5120052,171.447427 57.4014184,172.311386 Z" id="Path" fill="#000000" opacity="0.1"></path>
                        <path d="M65.5710123,170.044358 C65.5710123,170.044358 62.1393681,170.573101 59.3505093,171.184784 C58.4208897,171.388678 57.556931,171.599484 56.9314249,171.806834 C56.5376712,171.927274 56.1340874,172.012847 55.7253385,172.062566 C52.615087,172.498001 47.0857511,172.097124 47.0857511,172.097124 C45.5720954,167.176015 48.931167,160.986615 48.931167,160.986615 C48.8516828,160.492431 49.622334,158.978775 49.622334,158.978775 L49.622334,158.930393 L50.0992392,157.174829 L62.8478143,157.174829 L63.0033269,157.928201 L63.3281754,159.462592 L65.3291038,168.966138 L65.5710123,170.044358 Z" id="Path" fill="#626696"></path>
                        <path d="M67.5270148,173.023288 L67.4509865,173.057847 L65.9580658,173.721367 C64.3441908,174.464371 59.5129336,174.606061 57.8230303,174.619884 C57.6963542,173.927033 57.6430703,173.222759 57.6640619,172.518736 C57.6640619,172.518736 66.4660735,164.48392 67.4337073,172.263005 C67.4682656,172.525648 67.4959123,172.771012 67.5270148,173.023288 Z" id="Path" fill="#000000" opacity="0.1"></path>
                        <path d="M67.7620116,172.263005 L67.4509865,172.401238 L65.9580658,173.064758 C64.3165442,173.821586 59.3297743,173.956364 57.7297228,173.963275 L57.3115667,173.963275 C56.5720181,173.939084 55.8359252,173.247917 55.8359252,173.068214 C55.8359252,172.967995 55.7598968,172.484178 55.694236,172.066022 L55.5905609,171.443972 C55.5905609,171.443972 52.3109736,170.023623 50.6314378,168.876286 C49.3769697,168.022695 49.6949065,161.964616 49.9402708,158.920026 C50.0232108,157.883275 50.0992392,157.192108 50.0992392,157.192108 L63.0033269,157.94548 L64.8141844,158.052611 L65.8509349,158.280696 L66.1274017,158.339446 C66.1274017,158.339446 66.8669504,163.751283 67.2367247,164.214365 C67.606499,164.677447 67.3611348,166.180735 67.3162089,167.044694 C67.3151483,167.416558 67.2746029,167.787259 67.1952547,168.150561 C67.1952547,168.150561 67.7274533,169.667672 67.6030432,170.517808 C67.546972,171.104364 67.6008849,171.696233 67.7620116,172.263005 L67.7620116,172.263005 Z" id="Path" fill="#626696"></path>
                        <path d="M9.5139136,168.74842 C6.17903288,168.637834 8.63613153,161.698517 9.01972921,160.75853 C9.40332689,159.818543 8.44951644,157.541148 8.44951644,157.541148 C8.44951644,157.541148 7.32637008,150.92668 7.32637008,150.491244 C7.26809197,149.590104 7.14100773,148.694738 6.94622824,147.812972 C6.82052156,146.9147 6.97245758,145.999466 7.38166344,145.189994 C7.76526112,144.588678 7.72724694,142.183417 7.72724694,142.183417 L7.72724694,139.073166 L8.46679562,138.088253 L10.3709607,139.885287 L10.8997034,140.382927 L11.8258672,143.866409 L11.4975629,148.856634 L11.3144036,153.715538 L12.4617408,160.437137 C12.4617408,160.437137 12.8487943,168.855551 9.5139136,168.74842 Z" id="Path" fill="#D38884"></path>
                        <polygon id="Path" fill="#000000" opacity="0.1" points="10.5506641 140.707776 7.70996776 139.532792 7.70996776 139.06971 8.44951644 138.084797 10.3536815 139.881831"></polygon>
                        <path d="M9.24090264,133.602579 C8.87623111,134.49911 8.61197674,135.433272 8.45297228,136.387982 C8.30552646,137.30556 8.05632148,138.203857 7.70996776,139.066254 L10.8789684,140.379471 L9.24090264,133.602579 Z" id="Path" fill="#4C4981"></path>
                        <path d="M9.24090264,133.602579 C8.87623111,134.49911 8.61197674,135.433272 8.45297228,136.387982 C8.30552646,137.30556 8.05632148,138.203857 7.70996776,139.066254 L10.8789684,140.379471 L9.24090264,133.602579 Z" id="Path" fill="#000000" opacity="0.05"></path>
                        <path d="M34.399381,202.62597 L34.1229142,203.18236 C34.1229142,203.18236 33.8360799,205.038143 33.8360799,205.079613 C33.8360799,205.121083 33.0170471,206.361728 33.0170471,206.361728 L30.9435461,206.804075 L30.0692199,206.696944 C30.02331,206.187889 29.9448168,205.682301 29.8342231,205.183288 C29.8031206,205.041599 29.7685622,204.896454 29.730548,204.751309 C29.4240451,203.594016 28.9377645,202.492013 28.2894649,201.485545 C28.2894649,201.485545 26.7619858,197.715229 26.2159639,197.2245 C25.669942,196.733772 23.5895293,191.757369 23.7968794,190.554739 C23.9143778,189.894674 23.8210703,187.686396 23.7104836,185.844436 C23.6240877,184.341148 23.5238685,183.079768 23.5238685,183.079768 L28.7076209,180.007531 L29.312392,180.961341 L29.6579755,181.528098 C29.6579755,181.528098 29.6579755,181.635229 29.6579755,181.814932 C29.6579755,181.835667 29.6579755,181.859858 29.6579755,181.880593 C29.5956189,182.653309 29.4401316,183.415661 29.1948936,184.151077 C29.1948936,184.151077 28.8043843,186.939936 29.1948936,187.430664 C29.585403,187.921393 30.819136,194.497847 31.092147,197.538981 C31.092147,197.632289 31.092147,197.725596 31.1163378,197.811992 C31.2234687,199.194326 32.0908833,200.455706 32.9582979,201.368046 L32.9582979,201.368046 L33.1310896,201.544294 C33.5287327,201.933309 33.9524827,202.294709 34.399381,202.62597 Z" id="Path" fill="#D38884"></path>
                        <path d="M30.0934107,206.696944 L30.9677369,206.804075 L33.0412379,206.361728 C33.0412379,206.361728 33.8602708,205.121083 33.8602708,205.079613 C33.8602708,205.038143 34.1229142,203.18236 34.1229142,203.18236 L34.3855577,202.62597 L34.4166602,202.556854 C33.9135331,202.205054 33.4386407,201.81451 32.9963121,201.388781 L32.9963121,201.388781 L32.8546228,201.247092 C32.8546228,201.247092 33.1483688,203.054494 31.5759639,203.863159 C30.8156802,204.253669 30.1936299,204.554326 29.751283,204.761676 L30.0934107,206.696944 Z" id="Path" fill="#000000" opacity="0.1"></path>
                        <path d="M34.7587879,202.885158 L34.4684977,203.527943 C34.4684977,203.527943 34.1816634,205.383727 34.1816634,205.425197 C34.1816634,205.466667 33.3626306,206.707311 33.3626306,206.707311 L31.2891296,207.149658 L30.1037782,207.007969 C30.1037782,206.766061 30.065764,206.430845 30.003559,206.0196 C29.9655448,205.77078 29.9171631,205.494313 29.8515023,205.200567 C30.2903933,204.996673 30.9988395,204.658001 31.9008124,204.194919 C33.4732173,203.38971 33.1760155,201.582308 33.1760155,201.582308 C33.5163468,201.923548 33.8776051,202.243256 34.2576918,202.539574 C34.4684977,202.691631 34.6551128,202.812585 34.7587879,202.885158 Z" id="Path" fill="#CEDDF9"></path>
                        <path d="M34.7587879,202.885158 L34.4684977,203.527943 C34.4684977,203.527943 34.1816634,205.383727 34.1816634,205.425197 C34.1816634,205.466667 33.3626306,206.707311 33.3626306,206.707311 L31.2891296,207.149658 L30.1037782,207.007969 C30.1037782,206.766061 30.065764,206.430845 30.003559,206.0196 C30.2563007,206.029768 30.5074548,206.06449 30.7534752,206.123275 C30.7534752,206.123275 33.5699807,206.724591 33.7047582,204.495577 C33.7842424,203.230741 34.0503417,202.733101 34.2576918,202.539574 C34.4684977,202.691631 34.6551128,202.812585 34.7587879,202.885158 Z" id="Path" fill="#000000" opacity="0.1"></path>
                        <path d="M34.5514378,202.736557 C34.5514378,202.736557 33.8602708,202.581044 33.7116699,204.810058 C33.563069,207.039072 30.7603868,206.437756 30.7603868,206.437756 C30.7603868,206.437756 29.3780529,206.092173 29.3780529,206.669297 C29.4239071,207.199724 29.5485333,207.720358 29.7478272,208.214055 C29.7478272,208.214055 29.8273114,209.53764 30.0934107,209.852121 C30.35951,210.166602 30.1867182,211.341586 30.1867182,211.341586 C30.1867182,211.341586 30.297305,212.215912 32.4710251,211.341586 C32.4710251,211.341586 34.4132044,210.944165 36.0236235,208.528536 C36.075461,208.445596 35.8300967,208.182953 37.2400774,207.69568 C38.650058,207.208407 42.6761057,203.949555 42.3616248,202.363327 C42.3010999,201.827829 41.9250875,201.380974 41.4078143,201.229813 C40.9828947,201.113306 40.5288748,201.174424 40.1498904,201.399149 C39.7694911,201.603458 39.3771177,201.784642 38.9749065,201.941715 C38.438348,202.158859 37.8721596,202.293999 37.2953707,202.342592 C36.8534357,202.378677 36.4166505,202.462095 35.992521,202.591412 C35.5052482,202.729645 34.9004771,202.860967 34.5514378,202.736557 Z" id="Path" fill="#CC8294"></path>
                        <path d="M18.613127,187.423752 C18.3040464,187.685422 18.0371207,187.993145 17.8217408,188.336093 C17.0268988,189.549091 16.5499936,191.245906 16.0108833,191.975087 C15.3197163,192.921986 15.1261896,194.763946 15.1261896,194.763946 C14.9430303,195.973488 12.3822566,202.432444 11.6703546,203.579781 C10.9584526,204.727118 10.0115538,207.840825 10.0115538,207.840825 C9.42060606,208.58383 9.45516441,209.682785 9.51736944,210.208072 C9.51736944,210.297924 9.53810445,210.370496 9.54501612,210.418878 L9.56229529,210.505274 L9.54501612,210.536377 L8.59811734,212.146796 L5.58462927,211.72864 L4.05715023,210.667698 C4.18721425,210.46177 4.30269145,210.246982 4.40273372,210.024913 C5.23558994,208.165674 5.82999355,204.841161 5.82999355,204.841161 C5.82999355,204.841161 6.66630561,201.039742 6.60410058,200.168872 C6.6254826,198.962786 6.7085311,197.758583 6.8529207,196.56098 C6.8529207,196.56098 9.20980013,189.303727 9.96317215,188.114919 C10.2819414,187.653233 10.4781531,187.11811 10.5333849,186.559794 C10.5489386,186.445124 10.5489386,186.32888 10.5333849,186.21421 L11.5528562,185.201651 C11.5528562,185.201651 19.9263443,186.38009 18.613127,187.423752 Z" id="Path" fill="#D38884"></path>
                        <path d="M9.58648614,210.17697 C9.58648614,210.17697 9.58648614,210.270277 9.56920696,210.418878 L9.56920696,210.536377 L8.62230819,212.146796 L5.60882012,211.72864 L4.05715023,210.667698 C4.18721425,210.46177 4.30269145,210.246982 4.40273372,210.024913 C5.15956157,209.810651 6.89439072,210.422334 6.89439072,210.422334 C6.89439072,210.422334 8.76745326,210.767917 9.55538362,210.208072 L9.58648614,210.17697 Z" id="Path" fill="#000000" opacity="0.1"></path>
                        <path d="M8.83656995,214.479484 L5.7850677,215.222489 L2.97892972,213.148988 L3.12061896,211.980916 C3.31755462,211.854435 3.49165474,211.695525 3.63553836,211.510922 C3.84265737,211.270206 3.98323612,210.979518 4.04332689,210.667698 C4.20575113,209.810651 6.87365571,210.750638 6.87365571,210.750638 C6.87365571,210.750638 8.82274662,211.120413 9.57957447,210.505274 C9.52587721,211.071576 9.57505039,211.642922 9.72471954,212.191721 C9.79581417,212.458911 9.95388782,212.694806 10.1739781,212.862153 C10.9480851,213.394352 8.83656995,214.479484 8.83656995,214.479484 Z" id="Path" fill="#CEDDF9"></path>
                        <path d="M8.83656995,214.479484 L5.7850677,215.222489 L2.97892972,213.148988 L3.12061896,211.980916 C3.31755462,211.854435 3.49165474,211.695525 3.63553836,211.510922 C3.84044745,211.500317 4.04576789,211.500317 4.25067698,211.510922 C4.72067054,211.552392 5.82653772,213.563688 5.82653772,213.563688 C8.59120567,213.746847 9.42751773,212.841418 9.72471954,212.181354 C9.79581417,212.448544 9.95388782,212.684438 10.1739781,212.851786 C10.9480851,213.394352 8.83656995,214.479484 8.83656995,214.479484 Z" id="Path" fill="#000000" opacity="0.1"></path>
                        <path d="M5.82308188,213.895448 C5.82308188,213.895448 4.7172147,211.884152 4.24722115,211.842682 C3.85122688,211.821811 3.45440819,211.821811 3.05841393,211.842682 C3.05841393,211.842682 1.82813669,214.755951 1.37542231,215.02205 C0.92270793,215.28815 0.255731786,216.660116 0.255731786,216.660116 C0.255731786,216.660116 3.5007608,219.798014 6.6455706,219.203611 C7.64631039,219.217298 8.63034227,219.462123 9.52082527,219.918968 C10.9757318,220.679252 17.0407221,220.105583 17.7802708,218.771631 C18.3332044,217.772895 18.550922,217.043714 18.0671051,216.514971 C17.7722336,216.206366 17.3448995,216.06177 16.9232237,216.127917 C16.1594842,216.231593 14.4488459,216.207402 12.9421019,214.365442 C12.9421019,214.365442 10.1774339,211.828859 9.94934881,211.825403 C9.7212637,211.821947 10.1497872,214.196106 5.82308188,213.895448 Z" id="Path" fill="#CC8294"></path>
                        <path d="M29.7201805,181.86677 L29.6994455,181.890961 C29.5128304,182.098311 28.1719665,183.563585 27.7710896,183.670716 C27.0985487,183.923541 26.4408846,184.214298 25.8012637,184.541586 C25.8012637,184.541586 24.9822308,185.637086 24.3256222,185.688923 C24.1279191,185.718452 23.9342706,185.770633 23.7484977,185.844436 C23.6621019,184.341148 23.5618827,183.079768 23.5618827,183.079768 L28.7456351,180.007531 L29.3504062,180.961341 C29.4886396,181.348395 29.6406963,181.70089 29.6959897,181.814932 L29.7201805,181.86677 Z" id="Path" fill="#000000" opacity="0.1"></path>
                        <path d="M10.823675,160.75853 C10.823675,160.75853 8.80201161,163.391876 10.823675,166.889181 C12.8453385,170.386486 14.970677,172.135139 14.970677,172.135139 L21.858156,186.400825 C21.858156,186.400825 23.6621019,185.415912 24.3187105,185.364075 C24.9753191,185.312237 25.794352,184.216738 25.794352,184.216738 C26.4333462,183.888577 27.0897797,183.595547 27.7607221,183.338956 C28.1996132,183.231825 29.7132689,181.538466 29.7132689,181.538466 C29.7132689,181.538466 28.9633527,179.896944 29.1292328,179.464965 C29.2951128,179.032985 28.6350484,177.93403 28.6350484,177.93403 C28.435607,177.383764 28.2897848,176.815521 28.1996132,176.237215 C28.1996132,175.801779 27.4877112,174.761573 27.4877112,174.761573 C27.4877112,174.761573 26.779265,173.669529 26.779265,173.068214 C26.779265,172.466899 25.7425145,170.116931 25.7425145,170.116931 L25.4695035,159.749426 L10.823675,160.75853 Z" id="Path" fill="#CEDDF9"></path>
                        <path d="M29.7201805,181.538466 C29.7201805,181.538466 28.2065248,183.228369 27.7710896,183.342411 C27.0985487,183.595237 26.4408846,183.885994 25.8012637,184.213282 C25.8012637,184.213282 24.9822308,185.308781 24.3256222,185.360619 C23.8576431,185.460163 23.4053871,185.622928 22.9813024,185.844436 C22.3938104,186.113991 21.8685235,186.400825 21.8685235,186.400825 L14.9810445,172.135139 C14.3784066,171.604597 13.8190882,171.026789 13.3084204,170.407221 C12.3755778,169.314487 11.543913,168.139283 10.823675,166.896093 C10.0357514,165.627444 9.7567506,164.107754 10.0426564,162.64196 C10.169771,161.968978 10.4357674,161.32988 10.823675,160.765442 L15.724049,160.419858 L25.4729594,159.728691 L25.5558994,162.797473 L25.7459703,170.113475 C25.7459703,170.113475 25.9083946,170.479794 26.0915538,170.960155 C26.3922115,171.699703 26.7827208,172.688072 26.7827208,173.064758 C26.7827208,173.666074 27.491167,174.758117 27.491167,174.758117 C27.491167,174.758117 28.203069,175.794868 28.203069,176.233759 C28.2932407,176.812065 28.4390629,177.380309 28.6385042,177.930574 C28.6385042,177.930574 29.2951128,179.022618 29.1292328,179.458053 C28.9633527,179.893488 29.7201805,181.538466 29.7201805,181.538466 Z" id="Path" fill="#000000" opacity="0.05"></path>
                        <path d="M18.613127,187.423752 C18.3040464,187.685422 18.0371207,187.993145 17.8217408,188.336093 C14.8497228,188.550355 11.3938878,186.995229 10.4953707,186.566705 C10.5109244,186.452036 10.5109244,186.335791 10.4953707,186.221122 L11.514842,185.208562 C11.514842,185.208562 19.9263443,186.38009 18.613127,187.423752 Z" id="Path" fill="#000000" opacity="0.1"></path>
                        <path d="M27.3874919,163.993191 C27.3874919,163.993191 26.9486009,165.520671 26.7861767,166.177279 C26.6237524,166.833888 26.2954481,170.058182 26.2954481,170.058182 L26.1053772,170.960155 L22.9951257,185.844436 L22.3039587,189.079097 C21.1013282,189.735706 18.0947518,187.983598 18.0947518,187.983598 C14.5974468,188.370651 10.2776531,186.127814 10.2776531,186.127814 C10.2776531,186.127814 10.9895551,183.83314 10.823675,182.671979 C10.657795,181.510819 11.808588,180.598478 11.808588,180.598478 C11.535577,179.561728 12.5170342,175.024217 12.5170342,175.024217 C12.5170342,175.024217 12.7382076,173.330858 13.5537847,172.891966 C14.3693617,172.453075 13.4466538,171.799923 13.2082012,171.416325 C13.1010703,171.22971 13.1770986,170.801186 13.2876854,170.414133 C13.3577504,170.161205 13.4408005,169.912054 13.5365055,169.667672 C11.4630045,167.594172 11.117421,164.328407 11.117421,162.521006 C11.1123201,162.079061 11.1319338,161.637176 11.1761702,161.197421 L15.6929465,160.409491 L25.5524436,158.681573 L26.5546357,161.791825 L26.5546357,161.791825 L26.8069117,162.569387 L27.3874919,163.993191 Z" id="Path" fill="#CEDDF9"></path>
                        <path d="M26.4578723,122.181044 C26.2485038,122.620578 26.0963584,123.085144 26.005158,123.563378 C25.9809671,123.684333 25.9533204,123.812199 25.9222179,123.94352 C24.9718633,124.562115 24.3843714,124.565571 23.15755,124.565571 C22.7393939,124.565571 22.5043972,123.763817 22.1207995,123.680877 C22.1207995,123.680877 21.5263959,121.534803 21.35706,123.335293 C20.2131786,123.096841 19.2248098,123.991902 18.4126886,123.210883 L18.4126886,123.210883 L18.4126886,122.892946 C18.4337677,122.216412 18.4014128,121.53927 18.3159252,120.867827 C18.3159252,120.867827 21.4987492,120.847092 23.8970986,121.123559 C25.5075177,121.310174 26.7654417,121.624655 26.4578723,122.181044 Z" id="Path" fill="#000000" opacity="0.1"></path>
                        <path d="M28.7145326,118.514404 C28.712626,121.876575 25.9875233,124.601678 22.6253514,124.603585 C22.2132171,124.604487 21.802093,124.562795 21.39853,124.479175 C21.39853,124.479175 21.39853,124.479175 21.39853,124.479175 C18.261012,123.833807 16.1599409,120.867968 16.5917523,117.694003 C17.0235636,114.520037 19.8405978,112.223296 23.0364923,112.439576 C26.2323867,112.655856 28.7142919,115.311199 28.7145326,118.514404 L28.7145326,118.514404 Z" id="Path" fill="#D38884"></path>
                        <path d="M25.3796518,128.069787 C25.334726,128.577795 25.3105351,128.902643 25.3105351,128.902643 C25.3105351,128.902643 15.5236106,128.246035 17.2204255,126.607969 C17.6544381,126.151876 17.9628199,125.591074 18.1154868,124.980271 L22.3592521,125.671438 C22.3592521,125.671438 23.5584268,126.604513 24.4915023,127.475384 C24.7564663,127.716428 25.0557866,127.916752 25.3796518,128.069787 L25.3796518,128.069787 Z" id="Path" fill="#000000" opacity="0.1"></path>
                        <path d="M26.8380142,162.897692 C26.4082777,162.951971 25.9719822,162.917867 25.5558994,162.797473 C25.3736704,162.742016 25.1985407,162.665469 25.0340683,162.569387 C24.2150355,162.078659 21.4849259,162.679974 21.4849259,162.679974 C21.4849259,162.679974 14.0479691,163.174159 13.7196647,162.679974 C13.5330496,162.400052 12.226744,162.441522 11.1485235,162.527917 C10.7130883,162.562476 10.3122115,162.603946 10.0426564,162.635048 C10.169771,161.962066 10.4357674,161.322968 10.823675,160.75853 L15.724049,160.412946 L25.5835461,158.685029 L26.5857382,161.79528 L26.5857382,161.79528 C26.6997808,162.424242 26.8380142,162.897692 26.8380142,162.897692 Z" id="Path" fill="#000000" opacity="0.1"></path>
                        <path d="M22.3730754,126.003198 L17.0372663,125.128872 C16.8478295,125.554681 16.4796296,125.8748 16.0316183,126.003198 C15.3197163,126.169078 12.1507157,127.807144 10.7303675,129.77697 L9.31001934,131.74334 C9.31001934,131.74334 8.15922631,133.163688 8.54282398,134.311025 C8.92642166,135.458362 9.36185687,139.342721 9.36185687,139.342721 L9.91133462,143.659059 C9.91133462,143.659059 10.9480851,146.76931 10.6197808,148.151644 C10.2914765,149.533978 10.7856609,155.256841 10.7856609,155.256841 L9.69016119,162.362037 C9.69016119,162.362037 13.4086396,161.871309 13.7369439,162.362037 C14.0652482,162.852766 21.4987492,162.362037 21.4987492,162.362037 C21.4987492,162.362037 24.2288588,161.760722 25.0513475,162.251451 C25.5991045,162.556244 26.2301599,162.677367 26.8518375,162.597034 C26.8518375,162.597034 26.1986847,160.357653 26.5788266,159.099729 C26.9589684,157.841805 26.8518375,155.547131 26.8518375,155.547131 C26.8518375,155.547131 27.4013153,152.21225 27.1283043,151.610935 C26.8552934,151.00962 27.7296196,148.825532 27.7296196,148.825532 L30.6256093,133.574932 C30.6256093,133.574932 30.2800258,130.841367 28.7283559,129.911747 C27.176686,128.982128 25.4314894,128.709117 24.5018698,127.838246 C23.5722502,126.967376 22.3730754,126.003198 22.3730754,126.003198 Z" id="Path" fill="#4C4981"></path>
                        <path d="M24.8163507,141.03608 L24.8163507,142.840026 L26.5200774,147.374081 L27.1317602,151.583288 C27.1317602,151.583288 28.223804,154.589865 28.223804,155.630071 C28.223804,156.670277 30.8847969,161.71234 30.8847969,161.71234 C30.8847969,161.71234 31.6139781,163.409155 31.2511154,163.734004 C30.8882527,164.058852 27.7157963,171.260812 31.7038298,171.043095 C35.6918633,170.825377 34.4373952,163.281289 34.4373952,163.281289 L33.8913733,160.001702 C33.8913733,160.001702 33.1241779,151.804462 33.1241779,151.203146 C33.1241779,151.203146 32.1427208,147.702386 32.0321341,146.938646 C31.9215474,146.174907 31.2131012,142.294004 31.2131012,142.294004 L30.6117859,139.778156 L24.8163507,141.03608 Z" id="Path" fill="#D38884"></path>
                        <polygon id="Path" fill="#000000" opacity="0.1" points="22.9190974 146.720928 16.9750613 150.12147 15.1296454 152.910329 17.586744 150.408304"></polygon>
                        <path d="M21.1151515,153.238633 C21.1151515,153.238633 18.4092328,155.001109 17.1374855,155.001109 C15.8657382,155.001109 12.9144552,158.035332 12.9144552,158.035332 C12.9144552,158.035332 17.0960155,155.332869 17.4070406,155.412353 C17.7180658,155.491838 21.1151515,153.238633 21.1151515,153.238633 Z" id="Path" fill="#000000" opacity="0.1"></path>
                        <path d="M14.1862025,154.182076 C14.1862025,154.182076 11.6461638,156.47675 12.2993166,156.722115 C12.9524694,156.967479 16.3599226,154.182076 16.3599226,154.182076 L14.1862025,154.182076 Z" id="Path" fill="#000000" opacity="0.1"></path>
                        <path d="M25.417666,145.98138 C25.417666,145.98138 23.4512959,148.645828 23.9834945,148.604358 C24.5156931,148.562888 26.0328046,147.049233 26.0328046,147.049233 L25.417666,145.98138 Z" id="Path" fill="#000000" opacity="0.1"></path>
                        <path d="M25.7045003,148.604358 C25.7045003,148.604358 23.5722502,151.023443 23.6551902,151.638582 C23.7381302,152.25372 25.7045003,148.604358 25.7045003,148.604358 Z" id="Path" fill="#000000" opacity="0.1"></path>
                        <path d="M26.2401547,149.813901 C26.2401547,149.813901 24.8025274,152.37813 25.417666,152.924152 C26.0328046,153.470174 26.2401547,149.813901 26.2401547,149.813901 Z" id="Path" fill="#000000" opacity="0.1"></path>
                        <path d="M24.3947389,143.233991 C24.3947389,143.233991 23.3268859,145.037937 24.1079046,145.162347 C24.8889233,145.286757 24.9614958,145.162347 24.9614958,145.162347 L24.3947389,143.233991 Z" id="Path" fill="#000000" opacity="0.1"></path>
                        <path d="M24.6815732,136.636802 C24.4147291,137.739827 24.0492429,138.816623 23.5895293,139.854184 C23.417236,139.324481 23.2741792,138.785711 23.1610058,138.240309 C23.613052,137.656379 24.1224505,137.119195 24.6815732,136.636802 Z" id="Path" fill="#000000" opacity="0.1"></path>
                        <path d="M27.9335139,115.518195 C27.828041,115.749 27.6895047,115.963207 27.5222695,116.154068 C27.2411224,116.406346 26.9916303,116.691812 26.779265,117.004204 C26.5511799,117.439639 26.5926499,117.964926 26.5131657,118.455654 C26.4336815,118.946383 26.1261122,119.492405 25.6353836,119.492405 C25.3830175,119.468462 25.1377117,119.395692 24.9131141,119.278143 C24.6865249,119.158211 24.4135995,119.166084 24.1943005,119.298878 C24.051647,119.443885 23.9700169,119.638066 23.9662153,119.841444 C23.904082,120.264661 23.879795,120.692574 23.8936428,121.120103 C23.8936428,121.290591 23.9040103,121.459927 23.9247453,121.628111 C23.9765828,122.177589 24.0837137,122.765081 23.8245261,123.255809 C23.5904059,123.632719 23.2342876,123.918101 22.8154223,124.064475 C22.3611886,124.254491 21.8853245,124.387965 21.39853,124.461896 C21.39853,124.461896 21.39853,124.461896 21.39853,124.461896 C20.4712393,124.576124 19.5356029,124.607351 18.6027595,124.555203 C18.5179778,124.55676 18.4336333,124.542703 18.3539394,124.513733 C18.3142516,124.497538 18.2779233,124.4741 18.2468085,124.444616 C18.3468688,123.931998 18.4023693,123.411681 18.4126886,122.889491 C16.6863728,121.234921 16.0882462,118.723107 16.8835848,116.468068 C17.6789234,114.213029 19.7204931,112.63222 22.1028339,112.426748 C24.4851747,112.221277 26.7672644,113.42918 27.9369697,115.514739 L27.9335139,115.518195 Z" id="Path" fill="#000000" opacity="0.1"></path>
                        <path d="M25.3865635,110.348266 C24.8267182,110.292972 24.3014313,110.590174 23.7519536,110.711128 C22.6184397,110.963404 21.4572792,110.445029 20.2961186,110.448485 C19.2955463,110.504559 18.3223032,110.795821 17.4554223,111.29862 C16.7507959,111.627531 16.1087968,112.07658 15.5581689,112.625661 C15.0048435,113.177028 14.6823199,113.918462 14.656196,114.699162 C14.656196,115.14842 14.7875177,115.62187 14.614726,116.040026 C14.4952161,116.262532 14.3564528,116.474146 14.2000258,116.672444 C13.9069699,117.138626 13.8360716,117.710876 14.006499,118.234481 C14.2389695,118.743672 14.5542718,119.210786 14.9395745,119.616815 C15.6894907,120.580993 16.1594842,121.731786 16.8299162,122.747801 C17.1209055,123.192877 17.4504799,123.611494 17.8148291,123.998814 C17.8728677,124.06899 17.944595,124.126607 18.0256351,124.16815 C18.1057774,124.195013 18.1899477,124.207872 18.2744552,124.206164 C19.6982592,124.244178 21.1773565,124.27528 22.487118,123.715435 C22.9059833,123.569062 23.2621016,123.28368 23.4962218,122.90677 C23.7554094,122.419497 23.6482785,121.828549 23.596441,121.279072 C23.5376477,120.684042 23.5515737,120.084066 23.637911,119.492405 C23.6440871,119.289536 23.7253679,119.096186 23.8659961,118.949839 C24.0863643,118.816428 24.3606068,118.808555 24.5882656,118.929104 C24.8103693,119.049719 25.0551849,119.122693 25.3070793,119.143366 C25.8012637,119.126086 26.108833,118.590432 26.1883172,118.106615 C26.2678014,117.622798 26.2228756,117.097511 26.4544165,116.65862 C26.6656066,116.347387 26.9139551,116.063062 27.1939652,115.811941 C27.8783555,114.941063 28.1068161,113.796193 27.8091038,112.729336 C27.5049903,111.7306 26.5200774,110.465764 25.3865635,110.348266 Z" id="Path" fill="#1E1637"></path>
                        <circle id="Oval" fill="#FFD2C6" cx="53.9490393" cy="122.042811" r="5.28742747"></circle>
                        <path d="M51.3675306,124.247634 C51.3675306,124.247634 51.737305,129.255139 50.710922,130.405932 C49.684539,131.556725 47.0235461,133.723533 47.0235461,133.723533 L47.842579,137.127531 L52.4733978,137.659729 L57.8852353,131.881573 L56.6549581,130.364462 C56.6549581,130.364462 55.7115152,127.167814 56.4925338,125.567763 C57.2735525,123.967711 51.3675306,124.247634 51.3675306,124.247634 Z" id="Path" fill="#FFD2C6"></path>
                        <path d="M62.5575242,135.251012 L62.5575242,135.251012 L62.2741457,135.689903 L60.6326241,135.237189 L59.4852869,130.955409 L59.5544036,129.711309 L59.8999871,129.224036 C59.8999871,129.224036 61.7039329,129.265506 61.6279046,130.907028 C61.5415087,132.337743 62.3605416,134.70499 62.5575242,135.251012 Z" id="Path" fill="#000000" opacity="0.1"></path>
                        <path d="M66.1239458,158.978775 C66.1239458,158.978775 64.8176402,159.269065 63.3247195,159.462592 C61.8317988,159.656119 60.1038814,159.759794 59.398891,159.345093 C58.2135397,158.653926 51.7960542,158.843997 49.936815,158.91657 L49.6188781,158.91657 L50.0957834,157.161006 L62.8443585,157.161006 L62.9998711,157.914378 L64.8107286,158.021509 L65.847479,158.249594 C66.016815,158.688485 66.1239458,158.978775 66.1239458,158.978775 Z" id="Path" fill="#000000" opacity="0.1"></path>
                        <path d="M59.5647711,129.545429 C59.5647711,129.545429 61.368717,129.583443 61.2926886,131.224965 C61.2166602,132.866486 62.2741457,135.693359 62.2741457,135.693359 L61.8663572,136.636802 C61.8663572,136.636802 61.2926886,138.931476 61.7419471,139.505145 C62.1912057,140.078814 63.8327273,140.078814 62.8892843,144.792573 C62.8892843,144.792573 62.6853901,148.317524 63.1761186,149.464861 C63.6668472,150.612199 63.670303,153.359587 64.4063959,154.506925 C65.1424887,155.654262 66.1343133,158.308343 66.1343133,158.308343 C66.1343133,158.308343 60.8054159,159.49715 59.4127144,158.674662 C58.0200129,157.852173 49.4495422,158.266873 49.4495422,158.266873 C49.4495422,158.266873 49.4910123,156.832701 49.4495422,156.666821 C49.3785465,156.307415 49.4531246,155.934525 49.6568923,155.630071 C49.9437266,155.239562 50.3929852,154.59332 50.1476209,154.009284 C49.9022566,153.425248 50.7627595,152.592392 50.313501,151.700787 C49.8642424,150.809181 49.3113088,150.636389 49.4218956,150.149117 C49.5324823,149.661844 49.245648,149.008691 48.9173436,148.597447 C48.5890393,148.186202 46.377305,143.856041 46.377305,143.856041 L46.0075306,141.834378 C46.0075306,141.834378 43.153011,139.743598 43.2083043,138.758685 C43.2635977,137.773772 44.2865248,136.412173 44.2865248,136.412173 L47.0511928,133.716622 C47.0511928,133.716622 48.5648485,135.358143 50.0439458,134.784475 C51.5230432,134.210806 54.688588,131.463417 54.688588,131.463417 C54.688588,131.463417 55.8221019,130.848279 55.9050419,130.39902 C55.9879819,129.949761 56.6826048,130.35755 56.6826048,130.35755 C56.6826048,130.35755 57.7193553,129.794249 57.912882,129.994687 C58.1064088,130.195126 59.0187492,130.35755 59.0187492,130.35755 L59.5647711,129.545429 Z" id="Path" fill="#FFCDE5"></path>
                        <path d="M44.0722631,138.084797 L43.1979368,138.775964 C43.1979368,138.775964 42.3063314,140.376015 42.1024371,143.244358 C41.8709198,145.568103 41.5016478,147.876053 40.99657,150.156028 L39.2686525,153.238633 C39.2686525,153.238633 36.4383237,159.179213 36.0685493,160.75853 C35.698775,162.337847 34.0192392,165.002295 34.0192392,165.002295 C34.0192392,165.002295 28.3205674,170.123843 32.2913217,171.046551 C36.2620761,171.969259 36.389942,166.972121 36.389942,166.972121 C36.389942,166.972121 37.3161057,165.935371 37.4681625,165.244204 C37.6202192,164.553037 42.6519149,155.633527 42.6519149,155.633527 C42.6519149,155.633527 44.4143907,153.235177 44.0342489,151.96343 C44.0342489,151.96343 46.3289233,146.565416 46.3289233,145.214184 C46.2862313,144.081364 46.1626586,142.953041 45.9591489,141.837834 L46.3289233,139.010961 L44.0722631,138.084797 Z" id="Path" fill="#FFD2C6"></path>
                        <path d="M55.8946744,149.385377 C55.8946744,149.385377 51.8755384,151.486525 51.0979755,151.597112 C50.3204126,151.707698 54.4985171,151.147853 54.4985171,151.147853 L55.8946744,149.385377 Z" id="Path" fill="#000000" opacity="0.1"></path>
                        <path d="M59.1569826,151.023443 C59.1569826,151.023443 53.8280851,152.827389 51.4919407,152.499084 C51.4919407,152.499084 57.3115667,153.608407 59.1569826,151.023443 Z" id="Path" fill="#000000" opacity="0.1"></path>
                        <path d="M59.4852869,151.610935 C59.4852869,151.610935 54.688588,154.631335 51.8582592,154.140606 C51.8582592,154.140606 58.4589039,155.450368 59.4852869,154.755745 L56.5340039,153.933256 C56.5340039,153.933256 59.8135912,152.201883 59.4852869,151.610935 Z" id="Path" fill="#000000" opacity="0.1"></path>
                        <path d="M53.955951,112.736248 C52.573617,112.456325 51.0323146,112.629117 49.9229916,113.499987 C49.1005029,114.146228 48.5406576,115.134597 47.6283172,115.618414 C47.1404816,115.823284 46.6407913,115.998695 46.1319407,116.143701 C44.2822099,116.899526 43.1898601,118.822919 43.488227,120.798711 C43.633372,121.610832 44.0135139,122.360748 44.2035848,123.165957 C44.5491683,124.596673 44.241599,126.09305 43.8787363,127.516854 C42.8698942,131.469547 41.3381127,135.269945 39.3239458,138.817434 C39.164537,139.036507 39.0852341,139.303696 39.0993166,139.574262 C39.1482188,139.758448 39.2447638,139.926508 39.3792392,140.061534 C41.2730368,142.249078 44.3556415,143.00245 47.2481754,143.099213 C48.3160284,143.137228 49.4322631,143.099213 50.3584268,142.580838 C50.9620951,142.238 51.4825173,141.765961 51.88245,141.198504 C52.8863042,139.820605 53.3842897,138.138683 53.2924307,136.436364 C53.2129465,135.05403 52.7533204,133.671696 53.0989039,132.341199 C53.1362555,132.154819 53.2207285,131.981114 53.3442682,131.836647 C53.6552934,131.518711 54.1736686,131.605106 54.6160155,131.553269 C55.8221019,131.41158 56.5962089,130.143288 56.741354,128.940658 C56.886499,127.738027 56.5823856,126.521573 56.5754739,125.315487 C56.5689528,123.715572 57.0698567,122.154784 58.0061896,120.85746 C58.4070664,120.304526 58.9150741,119.76196 59.04294,119.070793 C59.2088201,118.206834 58.6973565,117.570961 58.2792005,116.886705 C57.5880335,115.825764 57.2770084,114.581663 56.2540812,113.776454 C55.5789406,113.256408 54.7922193,112.900313 53.955951,112.736248 L53.955951,112.736248 Z" id="Path" fill="#000000" opacity="0.1"></path>
                        <path d="M53.6276467,112.407943 C52.2453127,112.131476 50.7040103,112.300812 49.5946873,113.175139 C48.7721986,113.82138 48.2123533,114.806293 47.3000129,115.29011 C46.8116522,115.494594 46.3120527,115.671127 45.8036364,115.818852 C43.9531702,116.571563 42.8610009,118.495725 43.1633785,120.470406 C43.3085235,121.282527 43.6886654,122.035899 43.8752805,122.837653 C44.220864,124.268369 43.9167505,125.764745 43.550432,127.188549 C42.5430857,131.141732 41.0112258,134.942325 38.9956415,138.48913 C38.8364872,138.708328 38.7572117,138.975426 38.7710123,139.245957 C38.8199145,139.430143 38.9164594,139.598203 39.0509349,139.73323 C40.9447324,141.920774 44.0273372,142.674146 46.9233269,142.770909 C47.987724,142.808923 49.1039587,142.770909 50.0335783,142.25599 C50.6380956,141.906883 51.1584021,141.429051 51.5576015,140.856377 C52.5614557,139.478477 53.0594412,137.796555 52.9675822,136.094236 C52.888098,134.711902 52.428472,133.329568 52.7740554,131.999072 C52.8115228,131.813763 52.896017,131.641205 53.0194197,131.497975 C53.3304449,131.176583 53.8488201,131.262979 54.291167,131.211141 C55.4972534,131.069452 56.2713604,129.801161 56.4165055,128.59853 C56.5616505,127.395899 56.2575371,126.179446 56.2506254,124.973359 C56.2467079,123.373847 56.7473603,121.813844 57.6813411,120.515332 C58.0822179,119.962398 58.5936815,119.419832 58.7180916,118.728665 C58.8874275,117.864707 58.3725081,117.232289 57.954352,116.544578 C57.263185,115.483636 56.9521599,114.242992 55.9292328,113.434326 C55.2517826,112.918732 54.4639206,112.567388 53.6276467,112.407943 L53.6276467,112.407943 Z" id="Path" fill="#985C7E"></path>
                        <path d="M31.2407479,136.277395 C31.1198747,137.018962 31.1198747,137.775209 31.2407479,138.516776 C31.1854545,139.118092 31.2407479,142.452972 31.2407479,142.452972 C29.4368021,141.90695 24.8474533,143.00245 24.8474533,143.00245 L24.2979755,141.360928 C23.985094,140.958996 23.7506268,140.501785 23.6068085,140.013153 C23.4324723,139.484055 23.2893844,138.945167 23.178285,138.399278 C22.9403034,137.265467 22.76151,136.120036 22.6426306,134.967634 C22.4145455,133.239716 24.99951,131.359742 26.9555126,130.319536 C28.9115152,129.279329 30.6256093,133.706254 30.6256093,133.706254 C30.6256093,133.706254 31.4584655,135.403069 31.2407479,136.277395 Z" id="Path" fill="#000000" opacity="0.1"></path>
                        <path d="M31.2407479,135.949091 C31.1198747,136.690658 31.1198747,137.446905 31.2407479,138.188472 C31.1854545,138.789787 31.2407479,142.124668 31.2407479,142.124668 C29.4368021,141.578646 24.8474533,142.674146 24.8474533,142.674146 L24.2979755,141.032624 C23.9843911,140.63114 23.7498522,140.173789 23.6068085,139.684848 C23.4324723,139.15575 23.2893844,138.616863 23.178285,138.070974 C22.9403034,136.937163 22.76151,135.791731 22.6426306,134.639329 C22.4145455,132.911412 24.99951,131.031438 26.9555126,129.991231 C28.9115152,128.951025 30.6256093,133.37795 30.6256093,133.37795 C30.6256093,133.37795 31.4584655,135.074765 31.2407479,135.949091 Z" id="Path" fill="#4C4981"></path>
                        <path d="M51.8582592,163.664887 C51.8582592,163.664887 52.8950097,168.58254 54.6609413,169.923404 L51.8582592,163.664887 Z" id="Path" fill="#000000" opacity="0.1"></path>
                        <path d="M27.7710896,112.746615 C27.6755556,112.437492 27.5396018,112.142344 27.3667569,111.868833 C27.3944036,111.944861 27.4220503,112.017434 27.4427853,112.090006 C27.7404976,113.156864 27.512037,114.301734 26.8276467,115.172611 C26.5474921,115.424585 26.2980946,115.708782 26.0846422,116.019291 C25.8565571,116.458182 25.8980271,116.980013 25.8219987,117.470741 C25.7459703,117.96147 25.4314894,118.507492 24.9407608,118.507492 C24.6888664,118.48682 24.4440508,118.413846 24.2219471,118.29323 C23.9932224,118.175779 23.720031,118.184929 23.4996776,118.317421 C23.3584196,118.461955 23.2769566,118.654504 23.2715925,118.856531 C23.1852552,119.448192 23.1713292,120.048169 23.2301225,120.643198 C23.28196,121.192676 23.3890909,121.783623 23.1299033,122.270896 C22.8957831,122.647806 22.5396648,122.933188 22.1207995,123.079562 C20.8075822,123.642863 19.3319407,123.61176 17.9046809,123.57029 C17.8202092,123.571467 17.7361275,123.558622 17.6558607,123.532276 C17.5751507,123.491737 17.5043577,123.433923 17.4485106,123.36294 C17.0850109,122.976125 16.7554898,122.558731 16.4635977,122.115384 C15.7897099,121.095912 15.3197163,119.948575 14.573256,118.984397 C14.3693617,118.718298 14.1412766,118.462566 13.9546615,118.189555 C13.9530969,118.206799 13.9530969,118.224149 13.9546615,118.241393 C14.1859414,118.75125 14.5013708,119.218553 14.8877369,119.623727 C15.6341973,120.587905 16.1041908,121.738698 16.7780787,122.754713 C17.0678676,123.199723 17.396289,123.618345 17.7595358,124.005725 C17.8183412,124.07512 17.8899003,124.132602 17.9703417,124.175061 C18.0506085,124.201407 18.1346902,124.214253 18.2191618,124.213075 C19.6464217,124.25109 21.1220632,124.282192 22.4352805,123.722347 C22.8541458,123.575974 23.2102641,123.290591 23.4443843,122.913681 C23.7035719,122.426409 23.596441,121.835461 23.5446035,121.285983 C23.4863768,120.691028 23.4991379,120.091257 23.5826177,119.499317 C23.5916462,119.296412 23.6739056,119.103655 23.8141586,118.95675 C24.0345267,118.823339 24.3087693,118.815466 24.5364281,118.936015 C24.7572868,119.056644 25.00098,119.129634 25.2517859,119.150277 C25.7459703,119.132998 26.0569955,118.597344 26.1330239,118.113527 C26.2090522,117.62971 26.1675822,117.104423 26.3991231,116.665532 C26.6115502,116.354227 26.8610502,116.069913 27.1421277,115.818852 C27.8264334,114.952142 28.059743,113.812514 27.7710896,112.746615 L27.7710896,112.746615 Z" id="Path" fill="#000000" opacity="0.2"></path>
                        <g id="Group" opacity="0.1" transform="translate(38.705351, 117.152805)" fill="#000000">
                            <path d="M4.76905222,4.42001289 C4.71375887,4.22648614 4.648098,4.03641522 4.58243714,3.84634429 C4.6377305,4.03987105 4.70339136,4.22994197 4.76905222,4.42001289 Z" id="Path"></path>
                            <path d="M19.72245,0.127865893 C19.7377138,0.282423979 19.7307311,0.43837237 19.701715,0.590947776 C19.5669375,1.28211476 19.0554739,1.82468085 18.6649645,2.37761444 C17.730291,3.67708356 17.2296036,5.23840595 17.2342489,6.83909736 C17.2342489,8.04863959 17.5418182,9.25818182 17.4001289,10.4608124 C17.2584397,11.6634429 16.4808769,12.9351902 15.2782463,13.0734236 C14.8324436,13.1252611 14.3175242,13.0423211 14.0030432,13.3602579 C13.8796405,13.5034873 13.7951462,13.6760459 13.7576789,13.861354 C13.4120954,15.1918504 13.8717215,16.5845519 13.9512057,17.9565184 C14.0430152,19.659903 13.5450731,21.3428986 12.541225,22.7221148 C12.1407627,23.2878437 11.6218797,23.7595555 11.0206576,24.1044487 C10.0806705,24.6124565 8.94715667,24.6573823 7.91040619,24.622824 C5.06279819,24.5226048 2.03548678,23.7934236 0.134777563,21.6853643 C0.0827064138,21.8097323 0.0659647146,21.9460576 0.0863958736,22.0793295 C0.13529808,22.2635155 0.231843059,22.4315753 0.366318504,22.5666022 C2.26011605,24.7541457 5.34272083,25.5075177 8.23871051,25.6042811 C9.30310767,25.6422953 10.4193424,25.6042811 11.348962,25.0893617 C11.9534792,24.7402555 12.4737857,24.262423 12.8729852,23.6897485 C13.8768393,22.3118492 14.3748248,20.6299275 14.2829658,18.927608 C14.2034816,17.545274 13.7438556,16.16294 14.0894391,14.8324436 C14.1269064,14.6471355 14.2114006,14.4745769 14.3348034,14.3313475 C14.6458285,14.0099549 15.1642037,14.0963507 15.6065506,14.0445132 C16.812637,13.902824 17.586744,12.6345326 17.7318891,11.431902 C17.8770342,10.2292714 17.5729207,9.01281754 17.566009,7.80673114 C17.5620915,6.20721946 18.0627439,4.64721583 18.9967247,3.34870406 C19.3976015,2.79577047 19.9090651,2.25320438 20.0334752,1.5620374 C20.1120703,1.06192722 20.001156,0.55048908 19.72245,0.127865893 L19.72245,0.127865893 Z" id="Path"></path>
                        </g>
                    </g>
                </g>
            </g>
        </g>
    </g>
</svg>