<?xml version="1.0" encoding="UTF-8"?>
<svg width="336px" height="209px" viewBox="0 0 336 209" version="1.1" xmlns="http://www.w3.org/2000/svg" xmlns:xlink="http://www.w3.org/1999/xlink">
    <!-- Generator: Sketch 54 (76480) - https://sketchapp.com -->
    <title>undraw_creative_team_r90h</title>
    <desc>Created with Sketch.</desc>
    <g id="principal" stroke="none" stroke-width="1" fill="none" fill-rule="evenodd">
        <g id="onboarding_v2" transform="translate(-19.000000, -188.000000)" fill-rule="nonzero">
            <g id="undraw_creative_team_r90h" transform="translate(19.000000, 188.000000)">
                <circle id="Oval" fill="#F2F2F2" cx="256" cy="111" r="76"></circle>
                <circle id="Oval" fill="#FF6584" cx="41" cy="29" r="29"></circle>
                <circle id="Oval" fill="#6BA4B8" opacity="0.391671317" cx="93" cy="80" r="76"></circle>
                <ellipse id="Oval" fill="#828383" cx="89.5" cy="155.5" rx="83.5" ry="4.5"></ellipse>
                <ellipse id="Oval" fill="#000000" opacity="0.1" cx="72" cy="155.5" rx="63" ry="3.5"></ellipse>
                <ellipse id="Oval" fill="#828383" cx="252.5" cy="187.5" rx="83.5" ry="4.5"></ellipse>
                <ellipse id="Oval" fill="#000000" opacity="0.1" cx="236" cy="187.5" rx="63" ry="3.5"></ellipse>
                <ellipse id="Oval" fill="#828383" cx="120.5" cy="176" rx="53.5" ry="3"></ellipse>
                <ellipse id="Oval" fill="#3F3D56" cx="26" cy="165.5" rx="26" ry="1.5"></ellipse>
                <ellipse id="Oval" fill="#828383" cx="285" cy="206.5" rx="48" ry="2.5"></ellipse>
                <rect id="Rectangle" fill="#196690" x="184" y="129" width="96" height="57"></rect>
                <path d="M300.204053,133 C300.204053,133 312.421893,138.801527 308.058378,145.519084 C303.694864,152.236641 290.604322,165.061069 290.313421,167.80916 C290.02252,170.557252 288.277115,173 288.277115,173 C288.277115,173 282.459096,166.587786 283.040898,165.977099 C283.6227,165.366412 289.440718,159.564885 289.731619,158.038168 C290.02252,156.51145 298.749548,144.603053 298.749548,144.603053 L290.895223,137.274809 L300.204053,133 Z" id="Path" fill="#FFB9B9"></path>
                <path d="M300.204053,133 C300.204053,133 312.421893,138.801527 308.058378,145.519084 C303.694864,152.236641 290.604322,165.061069 290.313421,167.80916 C290.02252,170.557252 288.277115,173 288.277115,173 C288.277115,173 282.459096,166.587786 283.040898,165.977099 C283.6227,165.366412 289.440718,159.564885 289.731619,158.038168 C290.02252,156.51145 298.749548,144.603053 298.749548,144.603053 L290.895223,137.274809 L300.204053,133 Z" id="Path" fill="#000000" opacity="0.1"></path>
                <path d="M285,145.636581 C285,145.636581 293.285714,149.345847 292.714286,155.21885 C292.142857,161.091853 302.714286,177.783546 302.714286,177.783546 C302.714286,177.783546 303.857143,181.801917 303.571429,183.038339 C303.285714,184.27476 311,183.965655 311,183.965655 L311,181.183706 C311,181.183706 305,170.055911 304.428571,166.964856 C303.857143,163.873802 300.428571,151.81869 300.428571,151.81869 C300.428571,151.81869 299.285714,141 293.571429,141 C290.199029,141 287.02344,142.717786 285,145.636581 L285,145.636581 Z" id="Path" fill="#FFB9B9"></path>
                <path d="M284.530684,119 C284.530684,119 302.587163,133.765092 301.98528,134.970405 C301.383398,136.175719 292.6561,140.695645 291.151393,140.996973 C289.646687,141.298302 279,119 279,119 L284.530684,119 Z" id="Path" fill="#2F2E41"></path>
                <path d="M284.530684,119 C284.530684,119 302.587163,133.765092 301.98528,134.970405 C301.383398,136.175719 292.6561,140.695645 291.151393,140.996973 C289.646687,141.298302 279,119 279,119 L284.530684,119 Z" id="Path" fill="#4D4F51" opacity="0.1"></path>
                <path d="M265.32679,122.232659 C265.32679,122.232659 263.547601,130.088292 268.292105,133.288735 C273.03661,136.489177 281.042962,149 281.932557,149 C282.822152,149 295.573009,142.308165 294.979946,141.144367 C294.386882,139.98057 287.863188,129.797342 287.863188,129.797342 L285.787467,119.032216 C285.787467,119.032216 267.699042,118.450317 265.32679,122.232659 Z" id="Path" fill="#4D4F51"></path>
                <path d="M285,95 L287.513646,112.478346 L291.982351,124.833728 C291.982351,124.833728 298.685408,132.367498 294.775291,132.9702 C290.865175,133.572901 288.630822,124.833728 288.630822,124.833728 L285,117.601309 L285,95 Z" id="Path" fill="#FFB9B9"></path>
                <path d="M285,95 L287.513646,112.478346 L291.982351,124.833728 C291.982351,124.833728 298.685408,132.367498 294.775291,132.9702 C290.865175,133.572901 288.630822,124.833728 288.630822,124.833728 L285,117.601309 L285,95 Z" id="Path" fill="#000000" opacity="0.1"></path>
                <path d="M275.239703,77 C275.239703,77 275.239703,83.0576923 273.261571,83.6346154 C271.283439,84.2115385 281.174098,92 281.174098,92 C281.174098,92 280.043737,81.9038462 284,79.3076923 L275.239703,77 Z" id="Path" fill="#FFB9B9"></path>
                <path d="M275.239703,77 C275.239703,77 275.239703,83.0576923 273.261571,83.6346154 C271.283439,84.2115385 281.174098,92 281.174098,92 C281.174098,92 280.043737,81.9038462 284,79.3076923 L275.239703,77 Z" id="Path" fill="#000000" opacity="0.1"></path>
                <circle id="Oval" fill="#FFB9B9" cx="280" cy="74" r="7"></circle>
                <path d="M280.134883,88.5774382 C280.134883,88.5774382 273.666691,80.7057578 272.742663,81.0085147 C271.818636,81.3112716 265.042434,87.9719243 264.426415,90.0912229 C263.810397,92.2105214 262.57836,107.348368 263.502388,110.375938 C264.426415,113.403507 264.426415,121.275188 264.118406,121.880701 C263.810397,122.486215 261.962342,124 263.810397,124 C265.658452,124 272.126645,119.458646 276.438773,120.366917 C280.750902,121.275188 286.603076,120.06416 286.911085,119.458646 C287.219095,118.853132 286.603076,103.109771 286.911085,101.898743 C287.219095,100.687716 286.295067,94.6325769 285.987058,93.4215492 C285.679049,92.2105214 285.679049,87.3664104 282.598957,86.1553827 L281.285606,86.027813 L281.212047,89.0225544 L280.134883,88.5774382 Z" id="Path" fill="#BF0C3F"></path>
                <path d="M268,105 C268,105 268.564379,114.187838 272.797225,118.040802 C277.030071,121.893766 286.060143,128.414168 286.624522,129.599695 C287.188902,130.785222 292.550507,137.009242 293.679266,134.341805 C294.006844,133.510235 294.085772,132.593666 293.905565,131.713861 C293.574304,129.946314 292.563144,128.400732 291.110916,127.442171 L288.599851,125.746731 L276.183502,112.113165 L275.619123,105 L268,105 Z" id="Path" fill="#FFB9B9"></path>
                <path d="M283.608417,165.129996 C283.608417,165.129996 280.419681,164.381219 279.310555,166.477796 C278.20143,168.574373 280.419681,174.265082 280.419681,174.265082 C280.419681,174.265082 286.797153,188.641611 287.906279,186.844544 C289.015405,185.047478 287.074435,178.458236 287.074435,178.458236 C287.074435,178.458236 289.847249,171.868994 288.738123,171.569483 C287.628997,171.269972 283.608417,168.724128 283.608417,165.129996 Z" id="Path" fill="#2F2E41"></path>
                <path d="M306.074714,182.375501 C306.074714,182.375501 304.291494,181.484688 303.994291,182.375501 C303.697088,183.266313 301.913869,187.720377 303.994291,188.314252 C306.074714,188.908127 326.581736,189.502002 325.987329,188.314252 C325.392923,187.126502 322.123688,185.641814 320.043265,185.047939 C317.962843,184.454064 312.613185,180 312.613185,180 C312.613185,180 309.641152,183.860188 306.074714,182.375501 Z" id="Path" fill="#2F2E41"></path>
                <path d="M286.820075,69.0076525 C286.689918,68.5882255 286.40317,68.2294418 286.014579,67.9998047 C286.034641,67.550506 285.977182,67.1011147 285.84452,66.669759 C285.401425,65.4140672 284.35174,65.4860425 283.361335,64.9308772 C282.931637,64.6900106 282.958177,64.4771282 282.734486,64.0815098 C282.441372,63.5628935 282.002348,63.1335097 281.467322,62.8421716 C280.831915,62.4541028 280.161182,62.0544465 279.409502,62.0053309 C277.829821,61.9021197 276.618682,63.3263733 275.108873,63.7834693 C274.44338,63.9849261 273.72829,63.9932445 273.059285,64.1837123 C272.39028,64.37418 271.722824,64.8289724 271.623128,65.4910862 C271.577101,65.796763 271.658304,66.1103477 271.611619,66.4159407 C271.518807,67.0233143 270.962907,67.4487003 270.590772,67.9482699 C269.767845,69.0530049 269.861969,70.6136883 270.520062,71.8156833 C270.658741,72.0643979 270.817398,72.3023921 270.994597,72.5275109 C271.049493,73.0956474 271.219694,73.6480228 271.495629,74.1535768 C272.153722,75.3555689 273.286142,76.2537686 274.469097,77 C274.372215,76.6013647 274.313485,76.1950861 274.293638,75.7862182 C274.276941,75.6499583 274.295431,75.511853 274.347481,75.3840503 C274.479219,75.1200696 274.827328,75.0498632 275.092744,74.9052854 C275.642482,74.6058286 275.858062,73.9431166 275.873958,73.3371968 C275.889855,72.7312771 275.7559,72.1243573 275.822126,71.521591 C275.827345,71.2412757 275.956052,70.9761647 276.176417,70.7918259 C276.379304,70.6808782 276.611079,70.6279082 276.844363,70.6391725 C277.970722,70.5951237 279.147593,70.5752959 280.14111,70.0647026 C280.461524,69.8607036 280.80595,69.6936896 281.16723,69.5671302 C282.011559,69.3560717 282.874514,69.9233504 283.361115,70.6176394 C283.847717,71.3119285 284.090332,72.1381414 284.539294,72.8553624 C284.988256,73.5725834 285.763871,74.2121814 286.631915,74.1272053 C286.730796,74.1274192 286.825086,74.087228 286.891153,74.0167047 C286.928598,73.9522255 286.945219,73.878538 286.938908,73.80499 L286.987408,70.6242901 C287.027703,70.0802135 286.971118,69.533531 286.820075,69.0076525 L286.820075,69.0076525 Z" id="Path" fill="#2F2E41"></path>
                <path d="M269.74031,89 C269.74031,89 276.114872,91.9279669 275.825119,98.0766974 C275.535366,104.225428 277.563636,104.811021 272.637838,105.396615 C267.71204,105.982208 266.553029,105.396615 266.263276,105.982208 C265.973524,106.567801 264.235007,92.5135603 265.394018,91.0495768 C266.553029,89.5855934 269.74031,89 269.74031,89 Z" id="Path" fill="#BF0C3F"></path>
                <circle id="Oval" fill="#2F2E41" cx="137.5" cy="28.5" r="9.5"></circle>
                <path d="M142.963048,134 L137.629804,148.821537 C137.629804,148.821537 133.185435,152.451301 135.852057,153.661222 C138.518678,154.871143 143.851922,152.451301 143.851922,152.451301 L148,141.562008 L147.407417,134 L142.963048,134 Z" id="Path" fill="#2F2E41"></path>
                <path d="M142.963048,134 L137.629804,148.821537 C137.629804,148.821537 133.185435,152.451301 135.852057,153.661222 C138.518678,154.871143 143.851922,152.451301 143.851922,152.451301 L148,141.562008 L147.407417,134 L142.963048,134 Z" id="Path" fill="#000000" opacity="0.1"></path>
                <path d="M144.047105,47 L148.568885,47.5925041 C148.568885,47.5925041 150.679049,63.8863656 149.774693,65.0713737 C148.870337,66.2563818 144.348557,70.9964142 142.539845,69.8114061 C140.731133,68.626398 144.047105,47 144.047105,47 Z" id="Path" fill="#FFFFFF"></path>
                <path d="M101.226866,77 C101.226866,77 95.0208955,79.722489 93.838806,80.0249878 C92.6567164,80.3274865 90.8835821,83.3524743 92.9522388,83.9574718 C95.0208955,84.5624694 103,78.5124939 103,78.5124939 L101.226866,77 Z" id="Path" fill="#A0616A"></path>
                <path d="M146,140.008142 L149.27027,152.206487 C149.27027,152.206487 149.567568,156.669296 151.054054,156.966817 C152.540541,157.264337 157,155.479214 157,154.884172 C157,154.289131 155.216216,149.528802 155.216216,149.528802 C155.216216,149.528802 155.216216,145.958554 153.432432,144.470951 C151.648649,142.983348 150.041605,138 150.041605,138 L146,140.008142 Z" id="Path" fill="#2F2E41"></path>
                <path d="M149.9,112.165714 C150.506,113.592171 150.431,123.9408 149.768018,130.827771 C149.446997,134.174343 148.987991,136.7032 148.4,137 L144.100979,135.915771 L142.4,135.485714 L142.355,131.718171 L142.1,110.954286 L137,89.4514286 L137,84 L149.9,85.2114286 L151.946021,88.4550286 L152,88.5428571 C152,88.5428571 149,110.045714 149.9,112.165714 Z" id="Path" fill="#196690"></path>
                <path d="M147.236838,118.828571 C147.881157,119.800743 148.956025,125.621657 149.814131,130.827771 C149.491951,134.174343 149.031287,136.7032 148.441172,137 L144.126625,135.915771 C144.060387,135.776457 143.994166,135.631086 143.92492,135.485714 C143.373916,134.322743 142.856074,133.038629 142.37434,131.718171 L142.118419,110.954286 L137,89.4514286 L137,84 L149.94659,85.2114286 L152,88.4550286 L140.010835,87.6342857 L142.720586,99.4457143 L146.032504,111.862857 C146.032504,111.862857 146.032504,117.011429 147.236838,118.828571 Z" id="Path" fill="#000000" opacity="0.1"></path>
                <path d="M126.349781,71.9265306 C126.349781,71.9265306 122.383079,81.2897959 128.049796,94.277551 C131.556323,102.359953 134.677007,110.626302 137.399879,119.044898 C137.399879,119.044898 139.38323,129.012245 142.216588,135.355102 C145.049947,141.697959 144.483275,142 144.483275,142 L149.016649,139.281633 C149.016649,139.281633 146.466626,120.555102 145.333283,118.742857 C144.199939,116.930612 144.199939,111.795918 144.199939,111.795918 L141.083245,99.4122449 L138.533222,87.6326531 L151,88.5387755 C151,88.5387755 151,71.322449 145.333283,68 L126.349781,71.9265306 Z" id="Path" fill="#196690"></path>
                <path d="M131.669315,33 C131.669315,33 131.669315,37.7659574 130.234498,38.0638298 C128.799681,38.3617021 125.930046,38.3617021 125.069156,39.8510638 C124.208265,41.3404255 131.669315,61 131.669315,61 L139.417329,55.9361702 L142,42.5319149 C142,42.5319149 138.269475,40.1489362 138.269475,38.9574468 L138.269475,33.5957447 L131.669315,33 Z" id="Path" fill="#A0616A"></path>
                <path d="M131.669315,33 C131.669315,33 131.669315,37.7659574 130.234498,38.0638298 C128.799681,38.3617021 125.930046,38.3617021 125.069156,39.8510638 C124.208265,41.3404255 131.669315,61 131.669315,61 L139.417329,55.9361702 L142,42.5319149 C142,42.5319149 138.269475,40.1489362 138.269475,38.9574468 L138.269475,33.5957447 L131.669315,33 Z" id="Path" fill="#000000" opacity="0.1"></path>
                <circle id="Oval" fill="#A0616A" cx="136" cy="31" r="7"></circle>
                <path d="M131.925926,55.7068966 C131.925926,55.7068966 129.342593,39 128.768519,39 C128.194444,39 120.157407,40.7586207 119.583333,41.0517241 C119.009259,41.3448276 117,43.9827586 117,43.9827586 L121.018519,55.7068966 C121.018519,55.7068966 122.740741,63.9137931 123.888889,65.3793103 C125.037037,66.8448276 127.333333,70.9482759 126.185185,71.5344828 C125.037037,72.1206897 123.888889,73 125.037037,73 C126.185185,73 135.657407,71.2413793 136.231481,72.1206897 C136.805556,73 146.277778,68.8965517 146.277778,68.6034483 C146.277778,68.3103448 145.12963,54.5344828 145.12963,54.5344828 L148,47.7931034 L139.388889,41.637931 L131.925926,55.7068966 Z" id="Path" fill="#FFFFFF"></path>
                <path d="M119.929577,42 L116.971831,43.5079365 C116.971831,43.5079365 108.690141,62.8095238 108.098592,63.1111111 C107.507042,63.4126984 104.549296,69.1428571 104.253521,70.3492063 C103.957746,71.5555556 103.366197,75.4761905 102.478873,76.0793651 C102.002915,76.4089441 101.50918,76.711007 101,76.984127 C101,76.984127 102.774648,80 103.661972,80 C104.549296,80 107.507042,75.7777778 107.507042,75.7777778 C107.507042,75.7777778 114.014085,80 115.788732,76.6825397 C117.56338,73.3650794 122,52.2539683 122,52.2539683 L119.929577,42 Z" id="Path" fill="#FFFFFF"></path>
                <path d="M143,51.4431927 C143,51.4431927 138.405987,41.977468 135.780837,43.0910827 C133.155687,44.2046973 137.7497,50.8863853 140.702994,52 L143,51.4431927 Z" id="Path" fill="#A0616A"></path>
                <path d="M138.351132,51.9353124 L142.260772,51 L143.088228,55.4739848 C143.088228,55.4739848 146.710714,62.2564401 145.874755,65.2053338 C145.038797,68.1542274 140.023048,72.8724572 138.351132,70.218453 C136.679216,67.5644487 135.285952,63.4359976 136.400563,61.0768827 C137.515174,58.7177678 139.18709,53.1148698 138.351132,51.9353124 Z" id="Path" fill="#000000" opacity="0.1"></path>
                <path d="M139.351132,50.9353124 L143.260772,50 L144.088228,54.4739848 C144.088228,54.4739848 147.710714,61.2564401 146.874755,64.2053338 C146.038797,67.1542274 141.023048,71.8724572 139.351132,69.218453 C137.679216,66.5644487 136.285952,62.4359976 137.400563,60.0768827 C138.515174,57.7177678 140.18709,52.1148698 139.351132,50.9353124 Z" id="Path" fill="#FFFFFF"></path>
                <ellipse id="Oval" fill="#2F2E41" transform="translate(137.695896, 27.089996) rotate(-64.898700) translate(-137.695896, -27.089996) " cx="137.695896" cy="27.0899958" rx="3.44264108" ry="7.18661188"></ellipse>
                <circle id="Oval" fill="#2F2E41" cx="143.5" cy="20.5" r="4.5"></circle>
                <path d="M138.972941,19.5 C138.973255,17.2016331 140.709582,15.2728966 143,15.0266855 C141.281395,14.8394157 139.606717,15.6487286 138.688593,17.1102371 C137.770469,18.5717457 137.770469,20.4282543 138.688593,21.8897629 C139.606717,23.3512714 141.281395,24.1605843 143,23.9733145 C140.709582,23.7271034 138.973255,21.7983669 138.972941,19.5 L138.972941,19.5 Z" id="Path" fill="#2F2E41"></path>
                <rect id="Rectangle" fill="#B3143C" x="19" y="83" width="105" height="73"></rect>
                <path d="M296,199.803458 C296,205.878845 292.418592,208 288,208 C287.897651,208 287.795307,207.998508 287.693695,207.996281 C287.488999,207.991828 287.285777,207.982179 287.085504,207.968075 C283.097652,207.683719 280,205.453426 280,199.803458 C280,193.957485 287.408745,186.579856 287.966864,186.032677 L287.967601,186.031934 C287.988957,186.010407 288,186 288,186 C288,186 296,193.728811 296,199.803458 Z" id="Path" fill="#029E83"></path>
                <path d="M288.355908,207.074022 L291.409811,202.951294 L288.348219,207.526987 L288.340536,208 C288.126899,207.995546 287.914801,207.985896 287.70578,207.971789 L288.034682,201.893137 L288.032381,201.845615 L288.037759,201.837445 L288.069268,201.2627 L285,196.675867 L288.078489,200.832012 L288.086175,200.953801 L288.334392,196.361025 L285.706987,191.621227 L288.366664,195.555343 L288.625641,186.032671 L288.62641,186 L288.62641,186.03194 L288.583375,193.540764 L291.199254,190.563816 L288.572615,194.187543 L288.503455,198.299874 L290.946422,194.353131 L288.493465,198.905064 L288.455042,201.191427 L292,195.69792 L288.441209,201.988944 L288.355908,207.074022 Z" id="Path" fill="#3F3D56"></path>
                <path d="M33,158.803458 C33,164.878845 29.4185923,167 25,167 C24.8976506,167 24.7953072,166.998508 24.6936948,166.996281 C24.4889991,166.991828 24.2857773,166.982179 24.0855036,166.968075 C20.0976524,166.683719 17,164.453426 17,158.803458 C17,152.957485 24.4087452,145.579856 24.9668643,145.032677 L24.9676013,145.031934 C24.9889567,145.010407 25,145 25,145 C25,145 33,152.728811 33,158.803458 Z" id="Path" fill="#029E83"></path>
                <path d="M25.3559079,166.074022 L28.4098105,161.951294 L25.3482189,166.526987 L25.3405362,167 C25.1268994,166.995546 24.9148011,166.985896 24.7057795,166.971789 L25.034682,160.893137 L25.0323805,160.845615 L25.0377588,160.837445 L25.0692681,160.2627 L22,155.675867 L25.0784893,159.832012 L25.0861751,159.953801 L25.3343919,155.361025 L22.7069874,150.621227 L25.3666643,154.555343 L25.6256406,145.032671 L25.6264098,145 L25.6264098,145.03194 L25.5833748,152.540764 L28.1992537,149.563816 L25.5726152,153.187543 L25.5034552,157.299874 L27.9464217,153.353131 L25.4934649,157.905064 L25.455042,160.191427 L29,154.69792 L25.4412087,160.988944 L25.3559079,166.074022 Z" id="Path" fill="#3F3D56"></path>
            </g>
        </g>
    </g>
</svg>