<?xml version="1.0" encoding="UTF-8"?>
<svg width="274px" height="177px" viewBox="0 0 274 177" version="1.1" xmlns="http://www.w3.org/2000/svg" xmlns:xlink="http://www.w3.org/1999/xlink">
    <!-- Generator: Sketch 55 (78076) - https://sketchapp.com -->
    <title>undraw_wallet_aym5</title>
    <desc>Created with Sketch.</desc>
    <defs>
        <linearGradient x1="49.9879247%" y1="99.9938906%" x2="49.9879247%" y2="-0.00738901634%" id="linearGradient-1">
            <stop stop-color="#808080" stop-opacity="0.25" offset="0%"></stop>
            <stop stop-color="#808080" stop-opacity="0.12" offset="54%"></stop>
            <stop stop-color="#808080" stop-opacity="0.1" offset="100%"></stop>
        </linearGradient>
    </defs>
    <g id="principal" stroke="none" stroke-width="1" fill="none" fill-rule="evenodd">
        <g id="Simulador-beneficio-tributario-v2" transform="translate(-68.000000, -186.000000)">
            <g id="undraw_wallet_aym5" transform="translate(46.000000, 155.000000)">
                <rect id="Rectangle" fill="#85848B" fill-rule="nonzero" x="22.1553885" y="205.893935" width="273.574737" height="1.99919799"></rect>
                <path d="M238.897644,170.593885 C238.897644,172.131729 229.933835,176.614937 219.286216,176.614937 C208.638596,176.614937 200.342055,172.131729 200.342055,170.593885 C200.342055,169.05604 208.972231,169.551278 219.630276,169.551278 C230.288321,169.551278 238.897644,169.053434 238.897644,170.593885 Z" id="Path" fill="#504F60" fill-rule="nonzero"></path>
                <path d="M238.897644,170.593885 C238.897644,172.131729 229.933835,176.614937 219.286216,176.614937 C208.638596,176.614937 200.342055,172.131729 200.342055,170.593885" id="Path" fill="#000000" fill-rule="nonzero" opacity="0.2"></path>
                <path d="M131.66817,142.375739 C133.396291,142.597293 135.189574,142.738045 136.844712,142.201103 C137.105363,142.120301 137.39208,141.940451 137.366015,141.679799 C137.347377,141.585085 137.307249,141.495912 137.248722,141.419148 C136.624811,140.483403 136.100647,139.484871 135.684812,138.4399 C135.668332,138.385399 135.634459,138.337794 135.588371,138.304361 C135.534477,138.284849 135.475448,138.284849 135.421554,138.304361 C134.657845,138.505063 133.998396,138.997694 133.2399,139.208822 C132.853163,139.31492 132.449522,139.345016 132.051328,139.297444 C131.707268,139.258346 131.238095,138.974236 130.925313,139.010727 C131.102556,140.149774 131.535238,141.213233 131.66817,142.375739 Z" id="Path" fill="#FF6347" fill-rule="nonzero"></path>
                <path d="M164.351278,139.490326 C165.490326,138.708371 166.671078,137.887318 167.343559,136.680501 C167.39157,136.608322 167.419462,136.524645 167.424361,136.438095 C167.412891,136.352916 167.379678,136.272125 167.32792,136.203509 C166.68734,135.185149 165.862643,134.295042 164.89604,133.578747 C164.391707,133.93501 163.936058,134.355609 163.540652,134.829875 C163.253935,135.132231 162.461554,135.61183 162.453734,136.073183 C162.453734,136.333835 162.75609,136.63619 162.896842,136.855138 C163.087118,137.136642 163.266967,137.423358 163.438997,137.715288 C163.538045,137.858647 164.442506,139.432982 164.351278,139.490326 Z" id="Path" fill="#FF6347" fill-rule="nonzero"></path>
                <path d="M138.442506,145.865865 C138.462856,146.134395 138.389134,146.401638 138.233985,146.621754 C138.112307,146.744138 137.961681,146.833796 137.79609,146.882406 C135.37985,147.747769 132.583058,146.668672 130.17203,147.521003 C129.676792,147.695639 129.207619,147.948471 128.709774,148.115288 C128.116254,148.29373 127.503914,148.402202 126.885213,148.438496 C126.032882,148.519298 125.175338,148.571429 124.320401,148.594887 C123.670821,148.640879 123.018056,148.583696 122.386366,148.425464 C121.747522,148.261949 121.208312,147.834561 120.903258,147.249925 C120.772201,146.990801 120.746062,146.691134 120.830276,146.413233 C120.868076,146.317944 120.921845,146.229797 120.989273,146.152581 C121.152671,145.969275 121.344536,145.813494 121.557494,145.691228 L122.446316,145.117794 C122.863104,144.823065 123.315992,144.583043 123.793885,144.403609 C124.145764,144.288922 124.518496,144.239398 124.875589,144.142957 C126.12411,143.778045 127.078095,142.787569 127.964311,141.83619 L129.173734,140.545965 C129.286802,140.404002 129.430183,140.289119 129.593383,140.209724 C129.761123,140.153785 129.939414,140.136847 130.114687,140.160201 C131.289491,140.244079 132.423881,140.624301 133.41193,141.265363 C133.664456,141.454785 133.937198,141.615633 134.225163,141.744962 C134.934135,142.021253 135.84381,141.812732 136.498045,141.463459 C136.808221,141.296642 136.740451,141.202807 136.870777,140.905664 C137.001103,140.608521 137.319098,140.418246 137.595388,140.689323 C137.678749,140.783066 137.737821,140.89584 137.767419,141.017744 C138.02807,141.877895 137.929023,142.803208 137.929023,143.705063 C137.921376,143.846074 137.939031,143.987315 137.981153,144.122105 C138.047663,144.258003 138.127093,144.387186 138.218346,144.50787 C138.236921,144.539811 138.253461,144.572893 138.26787,144.606917 C138.427315,145.006195 138.487249,145.438263 138.442506,145.865865 Z" id="Path" fill="#514E7F" fill-rule="nonzero"></path>
                <path d="M138.442506,145.865865 C138.462856,146.134395 138.389134,146.401638 138.233985,146.621754 C138.112307,146.744138 137.961681,146.833796 137.79609,146.882406 C135.37985,147.747769 132.583058,146.668672 130.17203,147.521003 C129.676792,147.695639 129.207619,147.948471 128.709774,148.115288 C128.116254,148.29373 127.503914,148.402202 126.885213,148.438496 C126.032882,148.519298 125.175338,148.571429 124.320401,148.594887 C123.670821,148.640879 123.018056,148.583696 122.386366,148.425464 C121.747522,148.261949 121.208312,147.834561 120.903258,147.249925 C120.772201,146.990801 120.746062,146.691134 120.830276,146.413233 C120.868076,146.317944 120.921845,146.229797 120.989273,146.152581 C121.130025,146.447118 121.231679,146.838095 121.320301,146.978847 C121.562505,147.40082 121.974674,147.698075 122.451529,147.794687 C122.804332,147.816349 123.158055,147.771249 123.494135,147.661754 C125.683609,147.119599 128.011228,147.111779 130.114687,146.290727 C130.836692,146.006617 131.524812,145.628672 132.283308,145.456642 C133.041805,145.284612 133.847218,145.331529 134.629173,145.266366 C135.864662,145.167318 137.061053,144.794586 138.278296,144.599098 C138.435472,145.001655 138.491846,145.436536 138.442506,145.865865 L138.442506,145.865865 Z" id="Path" fill="#464353" fill-rule="nonzero"></path>
                <path d="M169.884912,139.331328 C169.770226,140.248822 169.188972,141.038596 168.550376,141.708471 C167.911779,142.378346 167.189774,142.980451 166.681504,143.75198 C166.05594,144.708571 165.774436,145.894536 164.961203,146.702556 C164.649034,146.996396 164.29827,147.246316 163.918596,147.445414 C163.493272,147.696356 163.0435,147.903339 162.576241,148.063158 C161.361604,148.451529 160.053133,148.362907 158.783759,148.269073 C158.37164,148.265111 157.963647,148.186515 157.579549,148.037093 C157.404693,147.948264 157.237328,147.845404 157.079098,147.729524 C156.760904,147.533582 156.493084,147.265763 156.297143,146.947569 C156.200928,146.774559 156.173915,146.571495 156.221554,146.379348 C156.294092,146.167696 156.41868,145.977678 156.58386,145.826767 C156.869503,145.529722 157.176124,145.253589 157.501353,145.000501 C157.947602,144.712517 158.349716,144.361325 158.695138,143.957895 C158.907062,143.639107 159.063082,143.286519 159.156491,142.915288 C159.34112,142.264915 159.453874,141.596257 159.492732,140.921303 C159.491304,140.472817 159.537614,140.025452 159.630877,139.586767 C159.823759,138.898647 160.334637,138.283509 160.277293,137.57193 C160.254095,137.470036 160.263206,137.363447 160.303358,137.266967 C160.364038,137.191578 160.448637,137.139163 160.543158,137.118396 C160.941483,136.959635 161.361547,136.862088 161.789073,136.829073 C162.22332,136.79912 162.648095,136.965586 162.946366,137.282607 C163.123609,137.496341 163.240902,137.80391 163.501554,137.887318 C163.630714,137.922568 163.766208,137.927916 163.897744,137.902957 C164.538947,137.837794 165.216642,137.756992 165.722306,137.342556 C166.194809,136.918752 166.468827,136.316857 166.478195,135.682206 C166.478195,135.445013 166.371328,135.197393 166.738847,135.160902 C167.015138,135.124411 167.234085,135.421554 167.374837,135.60401 C167.883108,136.284311 168.404411,136.99589 168.594687,137.824762 C168.668685,137.796041 168.747292,137.781026 168.826667,137.780451 C169.156635,137.777547 169.467161,137.936217 169.658145,138.205313 C169.865724,138.541549 169.94616,138.940954 169.884912,139.331328 L169.884912,139.331328 Z" id="Path" fill="#514E7F" fill-rule="nonzero"></path>
                <path d="M169.884912,139.331328 C169.770226,140.248822 169.188972,141.038596 168.550376,141.708471 C167.911779,142.378346 167.189774,142.980451 166.681504,143.75198 C166.05594,144.708571 165.774436,145.894536 164.961203,146.702556 C164.649034,146.996396 164.29827,147.246316 163.918596,147.445414 C163.493272,147.696356 163.0435,147.903339 162.576241,148.063158 C161.361604,148.451529 160.053133,148.362907 158.783759,148.269073 C158.37164,148.265111 157.963647,148.186515 157.579549,148.037093 C157.404693,147.948264 157.237328,147.845404 157.079098,147.729524 C156.760904,147.533582 156.493084,147.265763 156.297143,146.947569 C156.541475,146.830094 156.808063,146.766113 157.079098,146.7599 C157.642105,146.791178 158.053935,147.322907 158.593484,147.487118 C159.362406,147.719098 160.128722,147.176942 160.90807,146.99188 C161.416341,146.87198 161.950677,146.903258 162.453734,146.731228 C162.872961,146.56921 163.260318,146.334502 163.597995,146.037895 C164.060826,145.706983 164.472685,145.310054 164.820451,144.859749 C165.109263,144.409418 165.349535,143.929747 165.537243,143.428772 C165.948817,142.46869 166.433308,141.541535 166.986466,140.655439 C167.068284,140.515145 167.167221,140.385564 167.281003,140.269674 C167.403509,140.157594 167.541654,140.079398 167.679799,139.980351 C168.201103,139.586767 168.417444,138.937744 168.5999,138.301754 C168.649328,138.108446 168.718322,137.920676 168.805815,137.741353 C169.135783,137.738449 169.446309,137.89712 169.637293,138.166216 C169.861563,138.510399 169.949823,138.925686 169.884912,139.331328 L169.884912,139.331328 Z" id="Path" fill="#464353" fill-rule="nonzero"></path>
                <g id="Group" transform="translate(0.140752, 0.200702)"></g>
                <path d="M127.393484,97.6166416 C127.737544,98.9198997 127.239699,100.290927 126.833083,101.581153 C126.220892,103.524561 125.803533,105.524045 125.587168,107.550075 C125.560632,108.065675 125.456957,108.574385 125.279599,109.059248 C125.086717,109.494536 124.758296,109.862055 124.534135,110.276491 C123.918997,111.366015 123.934637,112.695338 124.067569,113.941253 C124.15619,114.762306 124.289123,115.580752 124.453333,116.388772 C124.654035,117.376642 124.901654,118.408822 124.612331,119.373233 C125.097143,119.266366 125.425564,119.894536 125.394286,120.387168 C125.363008,120.879799 125.20401,121.429774 125.441203,121.854637 C126.040702,122.073584 126.045915,122.897243 126.027669,123.53584 C126.03761,124.643129 126.177583,125.745419 126.444712,126.82005 C127.351779,131.181621 128.314453,135.531028 129.332732,139.868271 C131.535238,140.551178 134.10787,141.262757 136.208722,140.316591 C136.599699,140.141955 136.990677,139.863058 137.079298,139.440802 C137.102197,139.213224 137.073693,138.983409 136.99589,138.768321 L136.000201,135.145263 C135.757794,134.269474 135.515388,133.365013 135.643108,132.465764 C135.739549,131.79589 136.031479,131.073885 135.703058,130.482206 C135.590977,130.278897 135.413734,130.1199 135.283409,129.927018 C134.762105,129.163308 135.035789,128.141554 135.077494,127.216241 C135.093755,127.008529 135.079706,126.799556 135.035789,126.59589 C134.964381,126.358028 134.864617,126.12962 134.738647,125.915589 C133.915771,124.318058 133.520654,122.534646 133.591779,120.739048 C133.622919,120.509909 133.591392,120.276615 133.500551,120.06396 C133.437313,119.976186 133.380682,119.883835 133.331128,119.787669 C133.292268,119.620323 133.311574,119.444731 133.385865,119.289825 C133.087138,119.063162 132.817501,118.800529 132.583058,118.50787 C132.875987,118.325782 133.069036,118.019225 133.106679,117.676375 C133.144321,117.333524 133.022384,116.992384 132.77594,116.751078 C132.99271,116.707427 133.166501,116.545563 133.225427,116.332438 C133.284353,116.119313 133.218396,115.891162 133.054837,115.742356 C132.927118,115.653734 132.757694,115.614637 132.666466,115.481704 C132.525714,115.288822 132.640401,115.020351 132.755088,114.814436 L133.362406,113.717093 C133.81594,112.901253 133.917594,111.892531 134.405013,111.110576 C135.103559,109.971529 135.559699,108.702155 136.010627,107.445815 L137.764812,102.605514 L138.945564,103.629875 C139.338846,103.930335 139.668447,104.306009 139.915188,104.735038 C140.083076,105.159061 140.189286,105.60497 140.230576,106.059148 C140.663258,108.686516 142.315789,110.964612 142.928321,113.552882 C143.06386,114.128922 143.155088,114.733634 143.486115,115.226266 C143.604573,115.377512 143.710902,115.537877 143.80411,115.705865 C143.890387,115.962112 143.935261,116.230476 143.937043,116.500852 C144.047657,117.572083 144.618401,118.542348 145.500952,119.159499 C146.082206,119.558296 146.804211,119.83198 147.119599,120.462757 C147.182678,120.658088 147.27026,120.844637 147.380251,121.017945 C147.661754,121.356792 148.269073,121.39589 148.388972,121.820752 C148.456742,122.057945 148.331629,122.342055 148.464561,122.550576 C148.540102,122.64708 148.639959,122.721748 148.753885,122.766917 L150.450727,123.614035 C152.348271,124.562807 153.317895,126.741855 154.717594,128.329223 C155.200964,128.846233 155.629017,129.412311 155.994787,130.018246 C156.599499,131.09995 156.878396,132.457945 157.90015,133.146065 C158.174814,133.28848 158.424762,133.47418 158.640401,133.69604 C158.961003,134.118296 158.843709,134.709975 158.872381,135.241704 C158.901053,135.773434 159.307669,136.406817 159.813333,136.245213 C159.636139,136.88922 159.636139,137.569126 159.813333,138.213133 C162.033293,138.099099 164.150362,137.241622 165.82396,135.778647 C166.319198,135.345965 166.79619,134.793383 166.801404,134.136541 C166.809008,134.023171 166.783662,133.91002 166.728421,133.810727 C166.628209,133.682429 166.496092,133.582667 166.345263,133.521404 C164.757895,132.661253 164.280902,130.667268 163.478095,129.048622 C162.776942,127.620251 161.739549,126.389975 160.871579,125.063258 C158.984461,122.209123 157.696842,118.755489 154.842707,116.870977 C154.214536,116.456541 153.484712,116.089023 153.169323,115.403509 C152.994687,115.020351 152.973835,114.582456 152.835689,114.186266 C152.697544,113.790075 152.366516,113.404311 151.944261,113.404311 C152.178847,112.830877 152.13193,112.132331 152.147569,111.51198 C152.163593,111.236656 152.131846,110.960637 152.053734,110.69614 C151.945304,110.411597 151.804495,110.140474 151.634085,109.88812 C150.889414,108.627308 150.517083,107.181362 150.560201,105.717694 C150.581053,104.964411 150.713985,104.187669 150.487218,103.468271 C150.372531,103.105965 150.17183,102.774937 150.033684,102.425664 C149.825518,101.792795 149.715636,101.131745 149.70787,100.465564 L149.551479,97.9607018 C149.527863,97.1264904 149.419572,96.2968352 149.228271,95.4845113 C148.706967,93.5400501 148.185664,85.3946867 146.400201,84.477193 C144.614737,83.5596992 141.546867,89.8283709 139.537243,89.9508772 C138.648207,89.9878811 137.76968,90.1574367 136.930727,90.4539348 C135.593584,90.954386 134.472782,91.8875188 133.380652,92.7997995 L129.684612,95.9041604 C128.902657,96.5479699 128.256241,97.1631078 127.393484,97.6166416 Z" id="Path" fill="#464353" fill-rule="nonzero"></path>
                <path d="M185.701253,104.41183 L185.701253,101.174536 C185.699814,96.2120231 181.676498,92.1898745 176.713985,92.1898747 L48.8669674,92.1898747 C43.904454,92.1898745 39.8811385,96.2120231 39.8796992,101.174536 L39.8796992,107.143459 L185.701253,104.41183 Z" id="Path" fill="#196690" fill-rule="nonzero"></path>
                <path d="M84.4328822,88.394787 C84.4328822,88.394787 84.0679699,111.034987 88.082005,118.484411 C92.0960401,125.933835 93.8163409,158.340652 93.8163409,158.340652 C93.8163409,158.340652 135.89594,162.693534 165.219248,153.127619 C194.542556,143.561704 256.937343,139.649323 256.937343,139.649323 L246.422657,68.7807519 C246.422657,68.7807519 194.477393,65.4496241 164.927318,79.5430576 C135.377243,93.6364912 84.4328822,88.394787 84.4328822,88.394787 Z" id="Path" fill="#8DD070" fill-rule="nonzero"></path>
                <path d="M84.4328822,88.394787 C84.4328822,88.394787 84.0679699,111.034987 88.082005,118.484411 C92.0960401,125.933835 93.8163409,158.340652 93.8163409,158.340652 C93.8163409,158.340652 135.89594,162.693534 165.219248,153.127619 C194.542556,143.561704 256.937343,139.649323 256.937343,139.649323 L246.422657,68.7807519 C246.422657,68.7807519 194.477393,65.4496241 164.927318,79.5430576 C135.377243,93.6364912 84.4328822,88.394787 84.4328822,88.394787 Z" id="Path" fill="#000000" fill-rule="nonzero" opacity="0.1"></path>
                <path d="M93.7459649,96.6652632 C93.7459649,96.6652632 92.4296742,115.346165 95.7321303,121.315088 C99.0345865,127.28401 99.1883709,153.930426 99.1883709,153.930426 C99.1883709,153.930426 137.058446,155.687218 163.996792,146.517494 C190.935138,137.347769 247.543459,131.399699 247.543459,131.399699 L241.110576,73.4438095 C241.110576,73.4438095 194.271479,72.961604 166.934336,85.8690727 C139.597193,98.7765414 93.7459649,96.6652632 93.7459649,96.6652632 Z" id="Path" fill="#8DD070" fill-rule="nonzero"></path>
                <ellipse id="Oval" fill="#000000" fill-rule="nonzero" opacity="0.1" transform="translate(163.912032, 114.981233) rotate(-7.100000) translate(-163.912032, -114.981233) " cx="163.912032" cy="114.981233" rx="9.83177945" ry="21.0867168"></ellipse>
                <path d="M217.94386,34.2574436 C217.94386,34.2574436 167.479098,47.0293734 143.681604,69.5105764 C119.88411,91.9917794 69.7868672,102.636792 69.7868672,102.636792 C69.7868672,102.636792 76.3865664,124.294336 82.4910276,130.153784 C88.5954887,136.013233 100.173634,166.332231 100.173634,166.332231 C100.173634,166.332231 141.557293,157.558697 166.527719,139.448622 C191.498145,121.338546 249.693835,98.4663659 249.693835,98.4663659 L217.94386,34.2574436 Z" id="Path" fill="#000000" fill-rule="nonzero" opacity="0.2"></path>
                <path d="M69.0283709,99.3942857 C69.0283709,99.3942857 75.6254637,121.054436 81.7247118,126.913885 C87.8239599,132.773333 99.4073183,163.089724 99.4073183,163.089724 C99.4073183,163.089724 140.79619,154.318797 165.769223,136.208722 C190.742256,118.098647 248.932732,95.2342857 248.932732,95.2342857 L217.182757,31.0175439 C217.182757,31.0175439 166.720602,43.7894737 142.923108,66.2706767 C119.125614,88.7518797 69.0283709,99.3942857 69.0283709,99.3942857 Z" id="Path" fill="#8DD070" fill-rule="nonzero"></path>
                <path d="M69.0283709,99.3942857 C69.0283709,99.3942857 75.6254637,121.054436 81.7247118,126.913885 C87.8239599,132.773333 99.4073183,163.089724 99.4073183,163.089724 C99.4073183,163.089724 140.79619,154.318797 165.769223,136.208722 C190.742256,118.098647 248.932732,95.2342857 248.932732,95.2342857 L217.182757,31.0175439 C217.182757,31.0175439 166.720602,43.7894737 142.923108,66.2706767 C119.125614,88.7518797 69.0283709,99.3942857 69.0283709,99.3942857 Z" id="Path" fill="#000000" fill-rule="nonzero" opacity="0.1"></path>
                <path d="M80.4214536,104.409223 C80.4214536,104.409223 84.9020551,122.594887 89.8778947,127.260551 C94.8537343,131.926216 103.171128,157.235489 103.171128,157.235489 C103.171128,157.235489 139.750977,147.28381 162.576241,130.289323 C185.401504,113.294837 237.458847,90.2871178 237.458847,90.2871178 L213.554486,37.0829073 C213.554486,37.0829073 168.829273,50.9938847 146.770326,71.6687719 C124.711378,92.3436591 80.4214536,104.409223 80.4214536,104.409223 Z" id="Path" fill="#8DD070" fill-rule="nonzero"></path>
                <ellipse id="Oval" fill="#000000" fill-rule="nonzero" opacity="0.1" transform="translate(152.830765, 100.309225) rotate(-24.970000) translate(-152.830765, -100.309225) " cx="152.830765" cy="100.309225" rx="9.83177945" ry="21.0867168"></ellipse>
                <path d="M189.152281,107.589173 L189.152281,197.513985 C189.152281,199.576558 188.332749,201.554615 186.874045,203.01283 C185.415341,204.471045 183.437009,205.289915 181.374436,205.289223 L47.6601504,205.289223 C43.3670229,205.287784 39.8875186,201.807113 39.8875188,197.513985 L39.8875188,98.5237093 C43.7190977,99.9468672 43.7190977,99.9468672 47.6601504,99.8269674 L181.374436,99.8269674 C185.663921,99.8269587 189.143656,103.299697 189.152281,107.589173 Z" id="Path" fill="#000000" fill-rule="nonzero" opacity="0.1"></path>
                <path d="M189.152281,108.733434 L189.152281,198.658246 C189.150842,202.952813 185.669003,206.433484 181.374436,206.433484 L47.6601504,206.433484 C43.3670229,206.432045 39.8875186,202.951373 39.8875188,198.658246 L39.8875188,99.6653634 C43.7190977,101.085915 43.7190977,101.085915 47.6601504,100.968622 L181.374436,100.968622 C185.664937,100.968616 189.145092,104.442939 189.152281,108.733434 Z" id="Path" fill="#196690" fill-rule="nonzero"></path>
                <path d="M188.771729,141.979549 L188.771729,170.737243 L160.882005,170.737243 C153.016282,170.631338 146.695453,164.224832 146.695453,156.358396 C146.695453,148.49196 153.016282,142.085454 160.882005,141.979549 L188.771729,141.979549 Z" id="Path" fill="#000000" fill-rule="nonzero" opacity="0.1"></path>
                <path d="M189.152281,141.213233 L189.152281,169.97614 L161.262556,169.97614 C153.396834,169.870235 147.076005,163.463729 147.076005,155.597293 C147.076005,147.730858 153.396834,141.324351 161.262556,141.218446 L189.152281,141.213233 Z" id="Path" fill="#D1103A" fill-rule="nonzero"></path>
                <circle id="Oval" fill="#000000" fill-rule="nonzero" opacity="0.1" cx="162.599699" cy="156.359699" r="5.60661654"></circle>
                <circle id="Oval" fill="#FFFFFF" fill-rule="nonzero" cx="162.980251" cy="155.598596" r="5.60661654"></circle>
                <path d="M237.563108,140.965614 C237.784662,143.366216 235.96792,145.696441 236.497043,148.047519 C236.611729,148.550576 236.82807,149.024962 236.906266,149.533233 C237.125213,150.930326 236.293734,152.25183 235.498747,153.419549 L228.669674,163.438997 C228.396171,163.87945 228.068687,164.283989 227.694837,164.643208 C226.391579,165.805714 224.431479,165.685815 222.716391,166.032481 C221.510689,166.277226 220.372411,166.780558 219.38005,167.507769 C219.293864,167.581391 219.280139,167.70949 219.348772,167.799699 C219.92464,168.583942 220.85893,169.022626 221.830175,168.964812 C222.010025,169.202005 221.830175,169.548672 221.569524,169.718095 C221.202005,169.978747 220.698947,170.041303 220.625965,170.661654 C220.600019,170.878177 220.64385,171.09733 220.751078,171.287218 C221.026227,171.708599 221.454223,172.006701 221.944862,172.118697 C224.308972,172.840702 226.863358,171.571328 228.633183,169.843208 C230.403008,168.115088 231.672381,165.933434 233.408321,164.174035 C234.370125,163.201805 235.462256,162.367719 236.452732,161.42416 C238.428471,159.542256 239.963709,157.253734 241.446817,154.962607 C241.892531,154.27188 242.340852,153.562907 242.528521,152.762707 C242.71619,151.962506 242.627569,151.154486 242.838697,150.380351 C243.114987,149.36381 243.857845,148.555789 244.475589,147.703459 C245.687619,146.035288 246.495639,143.994386 246.336642,141.940451 C246.177644,139.886516 244.903058,137.85604 242.96381,137.157494 C242.362831,136.916122 241.699842,136.875885 241.074085,137.042807 C240.279098,137.28782 239.692632,137.944662 239.150476,138.572832 L237.847218,140.071579 C237.522257,140.400416 237.265386,140.79015 237.091328,141.218446 C236.92081,141.657666 237.022722,142.156016 237.35198,142.493033" id="Path" fill="#FBBEBE" fill-rule="nonzero"></path>
                <path d="M237.563108,140.965614 C237.784662,143.366216 235.96792,145.696441 236.497043,148.047519 C236.611729,148.550576 236.82807,149.024962 236.906266,149.533233 C237.125213,150.930326 236.293734,152.25183 235.498747,153.419549 L228.669674,163.438997 C228.396171,163.87945 228.068687,164.283989 227.694837,164.643208 C226.391579,165.805714 224.431479,165.685815 222.716391,166.032481 C221.510689,166.277226 220.372411,166.780558 219.38005,167.507769 C219.293864,167.581391 219.280139,167.70949 219.348772,167.799699 C219.92464,168.583942 220.85893,169.022626 221.830175,168.964812 C222.010025,169.202005 221.830175,169.548672 221.569524,169.718095 C221.202005,169.978747 220.698947,170.041303 220.625965,170.661654 C220.600019,170.878177 220.64385,171.09733 220.751078,171.287218 C221.026227,171.708599 221.454223,172.006701 221.944862,172.118697 C224.308972,172.840702 226.863358,171.571328 228.633183,169.843208 C230.403008,168.115088 231.672381,165.933434 233.408321,164.174035 C234.370125,163.201805 235.462256,162.367719 236.452732,161.42416 C238.428471,159.542256 239.963709,157.253734 241.446817,154.962607 C241.892531,154.27188 242.340852,153.562907 242.528521,152.762707 C242.71619,151.962506 242.627569,151.154486 242.838697,150.380351 C243.114987,149.36381 243.857845,148.555789 244.475589,147.703459 C245.687619,146.035288 246.495639,143.994386 246.336642,141.940451 C246.177644,139.886516 244.903058,137.85604 242.96381,137.157494 C242.362831,136.916122 241.699842,136.875885 241.074085,137.042807 C240.279098,137.28782 239.692632,137.944662 239.150476,138.572832 L237.847218,140.071579 C237.522257,140.400416 237.265386,140.79015 237.091328,141.218446 C236.92081,141.657666 237.022722,142.156016 237.35198,142.493033" id="Path" fill="#000000" fill-rule="nonzero" opacity="0.05"></path>
                <path d="M242.73183,202.766115 C241.240902,203.675789 239.382456,203.730526 237.649123,203.519398 C237.370226,203.485514 237.039198,203.464662 236.867168,203.681003 C236.606516,203.993784 236.914085,204.462957 237.23208,204.705363 C238.254453,205.472997 239.455659,205.967294 240.722206,206.141554 C241.853167,206.301895 242.994509,206.377694 244.136742,206.368321 C247.264561,206.423058 250.392381,206.475188 253.470677,206.026867 C253.653033,206.013088 253.830544,205.961609 253.99198,205.875689 C254.190431,205.736334 254.328366,205.526635 254.377744,205.289223 C254.588872,204.486416 254.182256,203.626266 253.567118,203.068471 C252.95198,202.510677 252.162206,202.200501 251.390677,201.900752 L248.6799,200.845113 C248.04391,200.597494 247.024762,199.940652 246.334035,199.992782 C245.03599,200.086617 243.808321,202.135338 242.73183,202.766115 Z" id="Path" fill="#3F3D56" fill-rule="nonzero"></path>
                <path d="M242.73183,202.766115 C241.240902,203.675789 239.382456,203.730526 237.649123,203.519398 C237.370226,203.485514 237.039198,203.464662 236.867168,203.681003 C236.606516,203.993784 236.914085,204.462957 237.23208,204.705363 C238.254453,205.472997 239.455659,205.967294 240.722206,206.141554 C241.853167,206.301895 242.994509,206.377694 244.136742,206.368321 C247.264561,206.423058 250.392381,206.475188 253.470677,206.026867 C253.653033,206.013088 253.830544,205.961609 253.99198,205.875689 C254.190431,205.736334 254.328366,205.526635 254.377744,205.289223 C254.588872,204.486416 254.182256,203.626266 253.567118,203.068471 C252.95198,202.510677 252.162206,202.200501 251.390677,201.900752 L248.6799,200.845113 C248.04391,200.597494 247.024762,199.940652 246.334035,199.992782 C245.03599,200.086617 243.808321,202.135338 242.73183,202.766115 Z" id="Path" fill="#000000" fill-rule="nonzero" opacity="0.05"></path>
                <path d="M244.63198,166.780551 C243.503358,168.281905 242.335639,170.015238 242.614536,171.873684 C242.765714,172.874586 243.326115,173.758195 243.737945,174.683509 C244.295739,175.93985 244.587669,177.290025 244.874386,178.634987 C245.296642,180.600301 245.721504,182.570827 245.979549,184.567419 C246.274085,186.822055 244.890025,193.346165 244.762306,195.616441 C244.731028,196.16381 244.665865,196.755489 244.285313,197.149073 C244.136742,197.305464 243.938647,197.430576 243.870877,197.633885 C243.831151,197.829777 243.86355,198.033426 243.962105,198.207318 C244.598095,199.640902 245.898747,200.709574 247.350576,201.319499 C248.802406,201.929424 252.302957,202.982456 253.885113,203.037193 C254.093674,203.06017 254.304699,203.03245 254.500251,202.956391 C254.710731,202.828019 254.876414,202.637757 254.974637,202.411629 C256.108471,200.243008 255.018947,192.532932 255.034586,190.085414 C255.050226,188.044511 255.532431,186.016642 255.44381,183.978346 C255.370827,182.341454 254.922506,180.741053 254.773935,179.109373 C254.513283,176.435088 255.003308,173.747769 255.49594,171.104762 C255.871278,169.076892 256.249223,167.049023 256.731429,165.047218 C257.025965,163.824762 257.367419,162.59188 258.034687,161.531028 C258.55599,160.689123 259.288421,159.985363 259.895739,159.185163 C261.581377,156.975115 262.330339,154.190848 261.980952,151.433383 C261.944461,151.172732 258.071178,152.41604 257.729724,152.564612 C256.336499,153.154533 255.054659,153.978825 253.93985,155.001704 C253.043208,155.856642 252.336842,156.998296 251.552281,157.954887 C250.441905,159.308538 249.34543,160.671746 248.262857,162.044511 C247.027368,163.613634 245.817076,165.192314 244.63198,166.780551 Z" id="Path" fill="#B3143C" fill-rule="nonzero"></path>
                <path d="M244.63198,166.689323 C243.503358,168.190677 242.335639,169.926617 242.614536,171.782456 C242.765714,172.785965 243.326115,173.669574 243.737945,174.594887 C244.295739,175.848622 244.587669,177.201404 244.874386,178.543759 C245.296642,180.511679 245.721504,182.482206 245.979549,184.47619 C246.274085,186.733434 244.890025,193.254937 244.762306,195.525213 C244.731028,196.072581 244.665865,196.666867 244.285313,197.060451 C244.136742,197.214236 243.938647,197.339348 243.870877,197.542657 C243.830912,197.738543 243.863324,197.942277 243.962105,198.11609 C244.598095,199.552281 245.898747,200.618346 247.350576,201.24391 C248.802406,201.869474 252.302957,202.414236 253.885113,202.466366 C254.093674,202.489343 254.304699,202.461623 254.500251,202.385564 C254.711108,202.258809 254.876994,202.069225 254.974637,201.843409 C256.108471,199.674787 255.018947,192.45995 255.034586,190.009825 C255.050226,187.966316 255.532431,185.941053 255.44381,183.90015 C255.370827,182.263258 254.922506,180.662857 254.773935,179.033784 C254.513283,176.356892 255.003308,173.669574 255.49594,171.026566 C255.871278,169.001303 256.249223,166.973434 256.731429,164.969023 C257.025965,163.746566 257.367419,162.513684 258.034687,161.452832 C258.55599,160.610927 259.288421,159.907168 259.895739,159.106967 C261.58189,156.897172 262.330909,154.112692 261.980952,151.355188 C261.944461,151.094536 258.071178,152.337845 257.729724,152.486416 C256.336888,153.078217 255.055214,153.903284 253.93985,154.926115 C253.043208,155.778446 252.336842,156.9201 251.552281,157.876692 C250.441905,159.230343 249.34543,160.594419 248.262857,161.968922 C247.027368,163.525881 245.817076,165.099348 244.63198,166.689323 Z" id="Path" fill="#BE0A3D" fill-rule="nonzero" opacity="0.05"></path>
                <circle id="Oval" fill="#FBBEBE" fill-rule="nonzero" cx="232.073784" cy="127.388271" r="6.32601504"></circle>
                <path d="M237.771629,127.122406 C238.952545,129.006046 240.848305,130.328844 243.023759,130.787168 L242.546767,132.520501 C241.723108,135.497143 240.797794,138.645815 238.498847,140.710175 C238.759499,139.701454 238.425865,138.624962 237.857644,137.749173 C237.289424,136.873383 236.49183,136.185263 235.709875,135.504962 L232.068571,132.351078 C231.963438,132.265532 231.875063,132.161249 231.80792,132.043509 C231.718062,131.821132 231.718062,131.572552 231.80792,131.350175 C232.27188,129.906165 233.59599,129.004311 234.675088,128.029474 C235.216581,127.525378 235.700048,126.962353 236.116491,126.350877 C236.843709,125.313484 237.294637,126.35609 237.771629,127.122406 Z" id="Path" fill="#FBBEBE" fill-rule="nonzero"></path>
                <path d="M223.740752,121.028371 L223.597393,119.839799 C224.595689,120.100451 225.544461,119.250727 226.183058,118.372331 C226.821654,117.493935 227.413333,116.459148 228.385564,116.091629 C229.566316,115.648521 230.817444,116.352281 231.946065,116.946566 C233.2096,117.647708 234.596307,118.099029 236.030476,118.27589 C236.259249,118.283481 236.486115,118.32027 236.705564,118.385363 C237.440602,118.646015 237.789875,119.568722 237.896742,120.405414 C238.003609,121.242105 237.974937,122.130927 238.337243,122.876391 C238.597895,123.442005 239.082707,123.861654 239.37985,124.419449 C240.161805,125.915589 239.405915,127.961704 240.221754,129.429173 L238.193885,127.570727 C238.008822,127.401303 237.74817,127.22406 237.542256,127.367419 C237.380652,127.482105 237.367619,127.729724 237.302456,127.92782 C237.106967,128.506466 236.382356,128.678496 235.858446,128.449123 C235.334536,128.219749 234.951378,127.721905 234.555188,127.268371 C233.658546,126.210125 232.589875,125.279599 231.338747,124.828672 C230.229386,124.41393 228.995335,124.495567 227.950276,125.052832 C227.00411,125.587168 226.310777,126.833083 225.150877,126.877393 C223.560902,126.937343 222.898847,123.976341 222.16381,122.806015 C222.719023,122.388298 222.894773,121.632573 222.580852,121.012732 C222.687719,120.968421 223.717293,120.845915 223.740752,121.028371 Z" id="Path" fill="#464353" fill-rule="nonzero"></path>
                <ellipse id="Oval" fill="#504F60" fill-rule="nonzero" cx="219.627669" cy="170.593885" rx="19.2777945" ry="2.78636591"></ellipse>
                <path d="M236.212932,170.729424 C235.874085,169.277594 235.662957,168.003008 235.662957,168.003008 C235.662957,168.003008 235.741153,166.423459 235.03218,165.237494 L235.03218,164.841303 L235.03218,164.841303 L235.03218,161.922005 C235.234009,161.391907 235.480789,160.880034 235.769825,160.39198 C236.291128,159.474486 235.769825,156.11208 235.769825,156.11208 C235.769825,156.11208 233.822757,151.370827 234.294536,148.362907 C234.766316,145.354987 230.29614,135.007118 230.29614,135.007118 C230.32368,134.009145 230.464465,133.017529 230.715789,132.051328 C230.763518,131.848195 230.782817,131.639418 230.773133,131.430977 C230.773133,131.404912 230.773133,131.381454 230.773133,131.355388 C230.773133,131.329323 230.773133,131.371028 230.773133,131.378847 C230.705363,129.395288 229.136241,125.678396 229.136241,125.678396 L229.347368,118.593885 C229.347368,118.593885 230.348271,114.423459 228.716591,108.806416 C228.145764,106.848922 227.780852,105.282406 227.548872,104.072982 C227.522807,103.937444 227.496742,103.812331 227.47589,103.679398 C230.835689,103.158095 233.403108,102.741053 233.403108,102.741053 C233.403108,102.741053 231.453434,94.5852632 230.137143,93.1568922 C228.820852,91.7285213 227.76782,87.2427068 227.76782,87.2427068 C227.76782,87.2427068 227.082306,81.4849123 228.190075,79.8011028 C229.297845,78.1172932 229.454236,75.2136341 229.454236,75.2136341 C229.454236,75.2136341 231.97995,73.3890727 232.297945,72.562807 C232.61594,71.7365414 233.13985,69.9119799 233.13985,68.9449624 C233.13985,67.9779449 232.824461,67.120401 232.928722,66.5990977 C233.032982,66.0777945 232.191078,64.1515789 232.613333,63.2340852 C232.722572,62.9522472 232.779115,62.652742 232.78015,62.3504762 C232.781141,62.341816 232.781141,62.3330712 232.78015,62.324411 C232.78015,62.324411 232.78015,62.324411 232.78015,62.324411 C232.784043,61.5215207 232.709842,60.7201548 232.558596,59.9316291 C231.827974,59.3146866 230.975278,58.859027 230.056341,58.5944862 L230.001604,58.3755388 L229.858246,57.8021053 C229.778277,57.7492146 229.695627,57.7004946 229.610627,57.6561404 L229.610627,57.447619 L229.587168,56.6187469 L229.983358,54.7576942 C230.765313,51.520401 226.441103,51.0381955 226.441103,51.0381955 C226.17888,50.5416231 225.742675,50.1592476 225.21604,49.9643108 C224.34807,49.6593484 225.072682,54.8332832 225.476692,55.1773434 C225.781654,55.437995 226.725213,57.0488221 227.181353,57.846416 L227.181353,57.846416 L227.254336,57.9767419 C227.18292,58.0409281 227.116683,58.1106518 227.056241,58.1852632 L227.220451,59.3086717 L227.246516,59.4807018 C226.959921,59.836589 226.727192,60.2326683 226.555789,60.6562406 C226.555789,60.6562406 227.337744,61.521604 227.189173,62.480802 C227.040602,63.44 227.431579,64.6572431 227.449825,64.722406 C227.402907,64.6676692 226.847719,64.0681704 226.292531,64.2141353 C225.737343,64.3601003 224.186466,64.8266667 224.186466,64.8266667 C224.186466,64.8266667 223.029173,65.0299749 223.14386,65.2854135 C223.258546,65.5408521 222.361905,66.6616541 222.361905,66.6616541 L219.249724,63.7110777 C219.218446,63.6224561 219.184561,63.5338346 219.158496,63.4504261 C219.031482,63.0250056 218.944224,62.5887154 218.897845,62.1471679 C219.237016,62.0665618 219.569808,61.9611487 219.893534,61.8317794 C220.220549,61.719505 220.515625,61.5299411 220.753684,61.279198 C221.069073,60.9064662 221.129023,60.400802 221.256742,59.9368421 C221.501754,59.0297744 222.038697,58.2243609 222.411429,57.361604 C223.042657,55.9037392 223.246064,54.2963677 222.997895,52.727218 C222.950119,52.2436569 222.786502,51.7787333 222.520902,51.3718296 C222.012632,50.6732832 221.089925,50.3891729 220.42005,49.8313784 C219.750175,49.273584 219.317494,48.4212531 218.535539,48.006817 C217.829173,47.6288722 216.971629,47.673183 216.174035,47.8035088 C214.616237,48.0603796 213.119828,48.6048494 211.761203,49.4091228 C211.307669,49.6697744 210.807218,49.9903759 210.285915,49.8939348 C209.837594,49.8131328 209.50396,49.4560401 209.222456,49.1119799 C209.225625,49.0977383 209.229985,49.0837879 209.235489,49.0702757 C209.222787,49.0575788 209.211432,49.0436031 209.201604,49.0285714 C208.871767,49.7605877 208.706284,50.5559707 208.716792,51.358797 C208.716792,51.4839098 208.716792,51.6194486 208.732431,51.7315288 L208.732431,51.8618546 C208.732431,51.8983459 208.732431,51.9348371 208.732431,51.9687218 L208.732431,51.9687218 C208.732327,52.0242862 208.72443,52.0795613 208.708972,52.1329323 C208.643326,52.2923739 208.543702,52.4355834 208.417043,52.5525815 C208.321365,52.6612553 208.234222,52.7771554 208.156391,52.8992481 C208.156391,52.8575439 208.182456,52.8158396 208.198095,52.7715288 C207.999273,53.0617636 207.887169,53.4025951 207.874887,53.7541855 C207.860322,54.0101241 207.944259,54.2619328 208.109474,54.4579449 C208.265456,54.60948 208.435665,54.7456469 208.617744,54.8645614 C208.555791,55.2086511 208.524391,55.5575457 208.52391,55.9071679 C208.535844,58.0152394 209.648957,59.9636826 211.458847,61.0446115 C211.495338,61.1306266 211.529223,61.2192481 211.563108,61.3052632 C211.961905,62.3478697 212.261654,63.5729323 212.128722,64.6937343 C212.128722,64.7745363 212.105263,64.8579449 212.092231,64.9387469 C212.079198,65.0195489 212.014035,65.0247619 211.98015,65.0690727 L211.98015,65.0690727 C211.98015,65.0690727 206.837494,65.121203 205.62807,64.0264662 C204.418647,62.9317293 202.573233,66.7033584 202.573233,66.7033584 C202.573233,66.7033584 200.730426,67.0604511 200.360301,66.7033584 C199.990175,66.3462657 197.834586,66.6538346 197.834586,66.6538346 C196.951424,65.8684267 195.802202,65.4490028 194.620752,65.4809023 C193.904902,64.9369059 193.114956,64.4980466 192.274887,64.1776441 L192.274887,64.1776441 L192.217544,64.156792 L192.217544,64.156792 C191.846779,64.0216466 191.450333,63.9717568 191.057644,64.0108271 C191.057644,64.0108271 188.529323,61.925614 187.791679,60.799599 C187.054035,59.673584 183.543058,55.5161905 183.527419,55.4979449 L183.527419,55.2972431 L183.488321,54.6925313 C183.383967,54.7088983 183.278557,54.7176099 183.172932,54.7185965 C183.154687,54.6586466 183.128622,54.5882707 183.102556,54.5074687 C182.900264,53.9176249 182.650976,53.3449608 182.357093,52.7949875 C182.357093,52.7949875 182.357093,52.0312782 182.578647,51.838396 C182.800201,51.6455138 182.487419,48.8435088 182.487419,48.8435088 C182.487419,48.8435088 180.209323,43.518396 178.168421,47.4933333 C178.168421,47.4933333 174.310777,50.0659649 177.54807,53.0634586 C177.54807,53.0634586 178.851328,53.6890226 179.023358,54.1842607 C179.143258,54.5048622 179.581153,55.4041103 179.875689,56.0088221 L180.008622,56.2694737 L179.97213,56.3007519 L180.019048,56.801203 L180.0399,56.9940852 C179.429975,57.3407519 179.015539,57.684812 179.117193,57.9428571 C179.29676,58.384433 179.42023,58.8467888 179.484712,59.3190977 C179.484712,59.3190977 183.962707,64.9283208 184.541353,67.3237093 C184.541353,67.3237093 196.549574,74.4603509 200.498446,74.9686216 L199.7999,78.5265163 C199.698123,79.4919612 199.645924,80.4619903 199.643509,81.432782 C199.695639,82.1964912 199.169123,85.6631579 199.169123,85.6631579 C199.169123,85.6631579 198.483609,90.7615038 197.904962,91.4756892 C197.326316,92.1898747 197.430576,95.2473183 197.430576,95.2473183 C197.29397,96.7109895 197.032364,98.1602866 196.648622,99.5793484 C196.069975,101.51599 196.489624,103.913985 196.489624,103.913985 C196.489624,103.913985 194.490426,108.501454 199.281203,105.39188 C199.281203,105.39188 201.627068,105.245915 204.343058,105.15208 C204.343058,105.240702 204.343058,105.33193 204.343058,105.412732 C204.343058,105.762005 204.343058,106.13995 204.324812,106.53614 C204.288321,109.163509 204.272682,112.791779 204.392581,115.523409 C204.603709,120.366316 206.078997,129.950476 206.078997,129.950476 L206.078997,134.775138 C205.983747,135.227648 205.936568,135.688955 205.938246,136.151378 C205.907061,137.848918 206.359044,139.520352 207.241504,140.970827 L207.611629,144.182055 C207.611629,144.182055 208.476992,146.298546 208.492632,147.570526 C208.489289,147.673043 208.47708,147.775078 208.45614,147.875489 C208.422429,148.037417 208.408426,148.202829 208.414436,148.36812 C208.364912,149.827769 209.243308,153.320501 209.243308,153.320501 C209.243308,153.320501 209.295439,156.836692 209.821955,157.042607 C210.272882,157.217243 209.21985,159.06787 208.907068,159.599599 C208.898704,159.567044 208.892608,159.533949 208.888822,159.500551 L208.823659,159.604812 C208.714998,159.889449 208.659344,160.191568 208.659449,160.496241 C208.598866,160.986311 208.826215,161.467397 209.243308,161.731729 C210.244211,162.344261 210.781153,162.852531 209.931429,163.05584 C209.618849,163.104366 209.309098,163.169623 209.003509,163.251328 C209.003509,163.212231 208.972231,163.170526 208.959198,163.134035 C208.712051,163.230538 208.567083,163.487775 208.612531,163.749173 C208.620583,164.162647 208.726903,164.56827 208.922707,164.932531 C209.764612,166.819649 210.348471,167.539048 210.348471,167.539048 L210.752481,167.494737 C210.692873,167.649107 210.614057,167.795355 210.517895,167.930025 C210.364125,168.148626 210.16038,168.32735 209.923609,168.451328 C209.702892,168.583422 209.456933,168.667776 209.201604,168.698947 C208.624255,168.71771 208.082144,168.981183 207.710677,169.423559 C207.189373,170.10386 206.855739,171.029173 207.893133,171.842406 L211.659549,173.145664 C211.659549,173.145664 218.139348,173.987569 217.795288,172.533133 C217.451228,171.078697 217.242707,169.806717 217.242707,169.806717 C217.270523,168.918693 217.092084,168.03631 216.721404,167.228872 C216.653453,167.097084 216.576827,166.969954 216.49203,166.848321 L216.721404,166.824862 C216.721404,166.824862 217.195789,163.611028 217.826566,163.001103 C217.972531,162.860351 218.006416,162.740451 217.972531,162.667469 C218.037694,162.492832 217.870877,162.391178 217.659749,162.331228 L217.612832,162.458947 C217.406418,162.413959 217.195914,162.390376 216.984662,162.388571 C216.984662,162.388571 216.773534,160.707368 217.459048,160.094837 C217.570866,159.953685 217.619015,159.772421 217.59198,159.594386 C217.597156,159.363697 217.572627,159.133301 217.518997,158.908872 C217.512178,158.923313 217.504339,158.93725 217.495539,158.950576 C217.151479,157.423158 215.983759,154.996491 215.983759,154.996491 C215.983759,154.996491 215.931629,153.469073 216.353885,152.856541 C216.77614,152.24401 216.299148,144.546967 216.299148,144.546967 C216.299148,144.546967 216.458145,140.827469 215.983759,139.094135 C215.509373,137.360802 216.562406,135.3199 216.562406,135.3199 C216.562406,135.3199 216.562406,135.280802 216.562406,135.210426 L216.562406,135.184361 L216.502456,134.597895 C216.500983,134.610014 216.500983,134.622267 216.502456,134.634386 C216.395589,133.649123 216.194887,131.863659 216.046316,131.04 C215.835188,129.867068 216.101053,124.263058 216.101053,124.263058 L217.047218,121.865063 L218.733634,125.996391 L220.524311,131.501353 C220.524311,131.501353 221.410526,132.66386 221.431378,133.847218 C221.431378,133.904561 221.431378,133.961905 221.431378,134.019248 C221.416931,134.141214 221.409967,134.26395 221.410526,134.386767 C221.378787,135.082286 221.569614,135.769811 221.955288,136.349474 C221.955288,136.349474 222.429674,138.95599 223.167318,139.610226 C223.904962,140.264461 223.904962,141.546867 223.904962,141.546867 C223.904962,141.546867 224.798997,145.321103 225.208221,145.977945 C225.562707,146.535739 225.580952,148.063158 225.578346,148.54015 L225.578346,148.54015 C225.578346,148.626165 225.578346,148.675689 225.578346,148.675689 C225.578346,148.675689 225.703459,150.025865 225.698246,151.157093 C225.698246,151.297845 225.698246,151.433383 225.698246,151.561103 C225.699473,151.551585 225.699473,151.541949 225.698246,151.532431 C225.698002,151.841506 225.661256,152.14947 225.588772,152.449925 L225.573133,152.502055 C225.573133,152.436892 225.573133,152.374336 225.591378,152.311779 C225.40812,153.079999 225.320571,153.867934 225.330727,154.657644 C225.307268,156.013033 225.513183,157.618647 226.334236,158.567419 C227.757393,160.199098 228.651429,159.995789 228.651429,159.995789 C228.651429,159.995789 227.968521,162.034085 227.12401,162.443308 C227.092044,162.458384 227.062239,162.47767 227.035388,162.500652 C227.035388,162.458947 227.019749,162.41985 227.014536,162.380752 C226.82418,162.586326 226.729516,162.862744 226.753885,163.141855 C226.693935,164.038496 227.259549,165.487719 227.796491,166.162807 C227.995906,166.358058 228.240273,166.501277 228.50807,166.57985 C228.465671,166.609809 228.421254,166.636807 228.375138,166.660652 C228.281384,166.712129 228.184788,166.758252 228.085815,166.798797 C227.948724,166.857033 227.803816,166.894796 227.655739,166.910877 C227.077571,166.926307 226.534165,167.19041 226.164812,167.635489 C225.643509,168.313183 225.309875,169.238496 226.347268,170.051729 L230.113684,171.354987 C230.113684,171.354987 236.551779,172.181253 236.212932,170.729424 Z" id="Path" fill="url(#linearGradient-1)" fill-rule="nonzero"></path>
                <path d="M211.474486,173.137845 L207.825363,171.834586 C206.819248,171.021353 207.13985,170.09604 207.64812,169.415739 C208.002025,168.976751 208.528656,168.712484 209.09213,168.691128 C209.339227,168.659632 209.576613,168.575168 209.78807,168.443509 C210.019383,168.317832 210.217669,168.139196 210.366717,167.922206 C210.632962,167.499694 210.776454,167.01146 210.781153,166.51208 C210.781153,166.51208 214.784762,165.339148 215.879499,166.51208 C216.074881,166.724407 216.238209,166.96413 216.364311,167.223659 C216.728,168.033359 216.90611,168.914112 216.885614,169.801504 C216.885614,169.801504 217.088922,171.073484 217.41995,172.52792 C217.750977,173.982356 211.474486,173.137845 211.474486,173.137845 Z" id="Path" fill="#2D293D" fill-rule="nonzero"></path>
                <path d="M229.313484,171.339348 L225.664361,170.03609 C224.658246,169.222857 224.978847,168.297544 225.487118,167.61985 C225.838421,167.179049 226.365175,166.914243 226.928521,166.895238 C227.07264,166.880451 227.213448,166.842608 227.345564,166.783158 C227.441936,166.742471 227.535921,166.696348 227.627068,166.645013 C228.646216,166.084612 228.62015,164.708371 228.62015,164.708371 C228.62015,164.708371 232.621153,163.535439 233.718496,164.708371 C233.865337,164.867239 233.993863,165.042104 234.101654,165.229674 C234.787168,166.415639 234.711579,167.997794 234.711579,167.997794 C234.711579,167.997794 234.914887,169.272381 235.232882,170.724211 C235.550877,172.17604 229.313484,171.339348 229.313484,171.339348 Z" id="Path" fill="#2D293D" fill-rule="nonzero"></path>
                <path d="M215.882105,166.509474 C216.077488,166.721801 216.240815,166.961523 216.366917,167.221053 L216.366917,167.221053 L210.37193,167.916992 C210.638175,167.494481 210.781667,167.006247 210.786366,166.506867 C210.786366,166.506867 214.787368,165.336541 215.882105,166.509474 Z" id="Path" fill="#000000" fill-rule="nonzero" opacity="0.1"></path>
                <path d="M234.106867,165.234887 L234.106867,166.358296 C233.173734,167.893534 228.661855,167.557293 227.350777,166.788371 C227.447149,166.747684 227.541134,166.701561 227.632281,166.650226 C228.651429,166.089825 228.625363,164.713584 228.625363,164.713584 C228.625363,164.713584 232.626366,163.540652 233.723709,164.713584 C233.87055,164.872452 233.999076,165.047317 234.106867,165.234887 L234.106867,165.234887 Z" id="Path" fill="#000000" fill-rule="nonzero" opacity="0.1"></path>
                <path d="M234.818446,160.39198 C234.539474,160.881497 234.301469,161.39325 234.106867,161.922005 L234.106867,165.949073 C233.085113,167.630276 227.786065,167.069875 227.069273,166.152381 C226.352481,165.234887 225.604411,162.847318 226.409825,162.432882 C227.215238,162.018446 227.887719,159.985363 227.887719,159.985363 C227.887719,159.985363 227.019749,160.188672 225.643509,158.556992 C224.267268,156.925313 224.676491,153.307469 224.93193,152.442105 C225.187368,151.576742 224.93193,148.670476 224.93193,148.670476 C224.93193,148.670476 224.98406,146.629574 224.577444,145.967519 C224.170827,145.305464 223.302857,141.536441 223.302857,141.536441 C223.302857,141.536441 223.302857,140.261855 222.588672,139.599799 C221.874486,138.937744 221.415739,136.336441 221.415739,136.336441 C220.998185,135.686398 220.818589,134.911829 220.907469,134.144361 C221.058647,132.869774 220.039499,131.493534 220.039499,131.493534 L218.306165,125.985965 L216.674486,121.857243 L215.756992,124.252632 C215.756992,124.252632 215.496341,129.859248 215.707469,131.029574 C215.918596,132.1999 216.228772,135.31208 216.228772,135.31208 C216.228772,135.31208 215.209624,137.350376 215.668371,139.083709 C216.127118,140.817043 215.960301,144.541754 215.960301,144.541754 C215.960301,144.541754 216.419048,152.23619 216.009825,152.848722 C215.600602,153.461253 215.652732,154.991278 215.652732,154.991278 C215.652732,154.991278 217.737945,159.474486 217.081103,160.087018 C216.424261,160.699549 216.622356,162.380752 216.622356,162.380752 C216.622356,162.380752 218.04812,162.380752 217.438195,162.993283 C216.828271,163.605815 216.366917,166.817043 216.366917,166.817043 L210.202506,167.539048 C210.202506,167.539048 209.639499,166.827469 208.823659,164.932531 C208.00782,163.037594 208.974837,163.251328 209.79589,163.045414 C210.616942,162.839499 210.098246,162.333835 209.128622,161.721303 C208.158997,161.108772 208.722005,159.732531 208.722005,159.732531 C208.722005,159.732531 210.1999,157.235489 209.689023,157.03218 C209.178145,156.828872 209.128622,153.310075 209.128622,153.310075 C209.128622,153.310075 208.109474,149.139649 208.364912,148.008421 C208.620351,146.877193 207.549073,144.187268 207.549073,144.187268 L207.19198,140.97604 C206.101317,139.153795 205.703438,136.999694 206.071178,134.90807 L206.071178,129.955689 C206.071178,129.955689 204.642807,120.374135 204.439499,115.531228 C204.309173,112.429474 204.345664,108.196491 204.387368,105.55609 C204.413434,104.075589 204.439499,103.092932 204.439499,103.092932 L226.459348,100.799198 C226.459348,100.799198 226.438496,101.815739 226.858145,104.070376 C227.084912,105.279799 227.436792,106.846316 227.989373,108.80381 C229.568922,114.410426 228.601905,118.588672 228.601905,118.588672 L228.39599,125.675789 C228.39599,125.675789 230.332632,130.414436 229.926015,132.046115 C229.680249,133.014964 229.542136,134.007974 229.514185,135.007118 C229.514185,135.007118 233.846216,145.354987 233.387469,148.362907 C232.928722,151.370827 234.813233,156.11208 234.813233,156.11208 C234.813233,156.11208 235.329323,159.474486 234.818446,160.39198 Z" id="Path" fill="#4D4F51" fill-rule="nonzero"></path>
                <path d="M222.228972,133.836792 L228.932932,132.942757 C228.932932,132.942757 225.135238,136.818647 222.228972,133.836792 Z" id="Path" fill="#000000" fill-rule="nonzero" opacity="0.05"></path>
                <path d="M227.963308,126.392581 C227.963308,126.392581 228.192682,128.764511 226.740852,129.65594 C226.740852,129.65594 229.339549,129.249323 227.963308,126.392581 Z" id="Path" fill="#000000" fill-rule="nonzero" opacity="0.1"></path>
                <path d="M227.551479,118.849323 C227.551479,118.849323 221.947469,123.462857 219.909173,123.079699 C217.870877,122.696541 227.551479,118.849323 227.551479,118.849323 Z" id="Path" fill="#000000" fill-rule="nonzero" opacity="0.1"></path>
                <path d="M213.919398,136.000201 C213.919398,136.000201 209.662957,136.967218 209.535238,138.677093 C209.407519,140.386967 213.919398,136.000201 213.919398,136.000201 Z" id="Path" fill="#000000" fill-rule="nonzero" opacity="0.1"></path>
                <path d="M214.855138,157.258947 C214.855138,157.258947 208.841905,158.379749 210.549173,159.143459 C212.256441,159.907168 215.061053,160.519699 215.061053,160.519699 C215.061053,160.519699 217.002907,160.621353 214.855138,157.258947 Z" id="Path" fill="#000000" fill-rule="nonzero" opacity="0.05"></path>
                <g id="Group" opacity="0.05" transform="translate(204.090226, 102.696742)" fill="#000000" fill-rule="nonzero">
                    <path d="M5.24431078,57.6613534 C4.93799338,57.4700385 4.73554286,57.1495718 4.69433584,56.7907769 L4.63177945,56.8976441 C4.63177945,56.8976441 4.07137845,58.2738847 5.04100251,58.8838095 C5.15047619,58.9541855 5.25734336,59.0245614 5.35378446,59.0923308 C5.53363409,59.0584461 5.72651629,59.032381 5.91157895,58.9854637 C6.73263158,58.7821554 6.21393484,58.2738847 5.24431078,57.6613534 Z" id="Path"></path>
                    <path d="M12.9908772,57.2521303 C13.1576942,57.1009524 13.1524812,56.7099749 13.0508271,56.2095238 C12.7901754,56.6031078 12.7145865,57.2182456 12.7093734,57.684812 C12.772649,57.5228606 12.8684561,57.3756015 12.9908772,57.2521303 L12.9908772,57.2521303 Z" id="Path"></path>
                    <path d="M12.0655639,31.8933333 C11.8440968,32.4962436 11.7072562,33.1269384 11.6589474,33.7674185 C11.7751866,33.3249784 11.9313495,32.8940036 12.1255138,32.4797995 L12.0655639,31.8933333 Z" id="Path"></path>
                    <path d="M25.838396,29.2190476 C25.8784296,29.0359024 25.8968013,28.8486869 25.8931328,28.6612531 C25.8175439,29.0418045 25.7654135,29.3936842 25.7263158,29.7038596 C25.7602005,29.5448622 25.7966917,29.3936842 25.838396,29.2190476 Z" id="Path"></path>
                    <path d="M11.9222055,50.0164411 C12.005614,49.8913283 12.0525313,49.4690727 12.0733835,48.8826065 C11.8847677,49.3364268 11.784789,49.8221641 11.7788471,50.313584 C11.8144748,50.2091173 11.8626107,50.1093447 11.9222055,50.0164411 L11.9222055,50.0164411 Z" id="Path"></path>
                    <path d="M13.1733333,59.6292732 C12.8572603,60.651695 12.622807,61.6975833 12.4721805,62.7570927 L6.30776942,63.4686717 C6.30776942,63.4686717 5.7447619,62.7570927 4.92892231,60.8621554 C4.86312287,60.7157826 4.8048349,60.5661478 4.75428571,60.4138346 C4.3841604,60.5832581 4.23298246,60.966416 4.72300752,62.0846115 C5.53884712,63.9717293 6.10446115,64.6911278 6.10446115,64.6911278 L12.2688722,63.9769424 C12.2688722,63.9769424 12.727619,60.7657143 13.3375439,60.153183 C13.6503258,59.8586466 13.4574436,59.7048622 13.1733333,59.6292732 Z" id="Path"></path>
                    <path d="M5.04100251,50.475188 C5.04100251,50.475188 5.09052632,53.9913784 5.60140351,54.1946867 L5.60140351,54.1946867 C5.86205514,53.6134336 6.0314787,53.0608521 5.80210526,52.9696241 C5.28080201,52.7663158 5.24170426,49.2475188 5.24170426,49.2475188 C5.24170426,49.2475188 4.22255639,45.0770927 4.47799499,43.9458647 C4.73343358,42.8146366 3.66215539,40.1247118 3.66215539,40.1247118 L3.30506266,36.9134837 C2.21440013,35.0912386 1.81652061,32.9371374 2.18426065,30.8455138 L2.18426065,25.8931328 C2.18426065,25.8931328 0.755889724,16.3115789 0.552581454,11.4686717 C0.422255639,8.36691729 0.458746867,4.13393484 0.500451128,1.49353383 C0.500451128,1.01654135 0.516090226,0.594285714 0.523909774,0.237192982 L0.349273183,0.255438596 C0.349273183,0.255438596 0.320601504,1.23548872 0.297142857,2.71859649 C0.255438596,5.35899749 0.216340852,9.59197995 0.349273183,12.6911278 C0.552581454,17.5340351 1.97834586,27.1181955 1.97834586,27.1181955 L1.97834586,32.0705764 C1.61250548,34.161669 2.01126214,36.3145849 3.10175439,38.1359398 L3.4562406,41.3471679 C3.4562406,41.3471679 4.5275188,44.0475188 4.2720802,45.1709273 C4.0166416,46.2943358 5.04100251,50.475188 5.04100251,50.475188 Z" id="Path"></path>
                    <path d="M23.1875689,62.0950376 C22.6867977,61.3700455 22.3529747,60.5430547 22.2101253,59.673584 C21.5819549,60.2418045 22.3039599,62.4469173 22.9920802,63.3227068 C23.7036591,64.2402005 29.0053133,64.8006015 30.0296742,63.116792 L30.0296742,62.1471679 C28.640401,63.5103759 23.8600501,62.9630075 23.1875689,62.0950376 Z" id="Path"></path>
                    <path d="M30.9341353,56.3346366 C30.6545943,56.8242361 30.4157298,57.335964 30.2199499,57.8646617 L30.2199499,58.5866667 C30.3372431,58.326015 30.5014536,57.9767419 30.7412531,57.5649123 C30.9025834,57.1635591 30.9789113,56.7331055 30.9654135,56.3007519 C30.9654135,56.3007519 30.9419549,56.3242105 30.9341353,56.3346366 Z" id="Path"></path>
                    <path d="M23.5003509,57.1400501 C23.6941933,56.7473996 23.8622354,56.3425312 24.0034085,55.9280201 C24.0034085,55.9280201 23.1354386,56.1313283 21.759198,54.4996491 C20.7582957,53.3136842 20.7009524,51.0720802 20.8443108,49.607218 C20.5836591,50.475188 20.1796491,54.0930326 21.5558897,55.7247118 C22.4551378,56.7907769 23.1354386,57.0722807 23.5003509,57.1400501 Z" id="Path"></path>
                    <path d="M20.8417043,45.835589 C20.9316297,46.839906 20.9655669,47.848451 20.9433584,48.8565414 C20.9688609,48.6973789 21.0036742,48.5398487 21.047619,48.3847619 C21.3082707,47.516792 21.047619,44.6131328 21.047619,44.6131328 C21.047619,44.6131328 21.0997494,42.5722306 20.6905263,41.9101754 C20.2813033,41.2481203 19.4289724,37.4738847 19.4289724,37.4738847 C19.4289724,37.4738847 19.4289724,36.1992982 18.714787,35.5372431 C18.0006015,34.875188 17.5418546,32.2738847 17.5418546,32.2738847 C17.1205479,31.6251495 16.9363856,30.8507472 17.0205514,30.0818045 C17.1743358,28.807218 16.155188,27.4309774 16.155188,27.4309774 L14.4218546,21.926015 L12.7901754,17.7972932 L11.8700752,20.1952882 C11.8700752,20.1952882 11.8700752,20.4976441 11.838797,20.9772431 L12.5842607,19.0301754 L14.2159398,23.1510777 L15.9492732,28.6560401 C15.9492732,28.6560401 16.9684211,30.0322807 16.8146366,31.3068672 C16.7304708,32.0758099 16.9146331,32.8502122 17.3359398,33.4989474 C17.3359398,33.4989474 17.7946867,36.1054637 18.5088722,36.7623058 C19.2230576,37.4191479 19.2204511,38.6989474 19.2204511,38.6989474 C19.2204511,38.6989474 20.0884211,42.4705764 20.4950376,43.1300251 C20.9016541,43.7894737 20.8417043,45.835589 20.8417043,45.835589 Z" id="Path"></path>
                </g>
                <path d="M229.21183,54.7498747 L228.828672,56.6109273 L228.85213,57.4397995 L228.867769,58.0497243 L226.740852,58.2686717 L226.503659,57.8281704 L226.503659,57.8281704 C226.063158,57.0305764 225.148271,55.4093233 224.853734,55.1590977 C224.46015,54.8306767 223.758997,49.6541353 224.593083,49.9617043 C225.106542,50.1600083 225.528191,50.5417221 225.776441,51.0329825 C225.776441,51.0329825 229.965113,51.5125815 229.21183,54.7498747 Z" id="Path" fill="#FFCDD3" fill-rule="nonzero"></path>
                <path d="M228.867769,58.0497243 L226.740852,58.2686717 L226.503659,57.8281704 L226.503659,57.8281704 C227.093556,57.1565957 228.075633,56.9950985 228.849524,57.442406 L228.867769,58.0497243 Z" id="Path" fill="#000000" fill-rule="nonzero" opacity="0.1"></path>
                <path d="M229.404712,59.0584461 L226.6001,59.7074687 L226.54015,59.2904261 L226.381153,58.1670175 C226.381153,58.1670175 227.491529,56.6865163 229.097143,57.7968922 L229.237895,58.3677193 L229.404712,59.0584461 Z" id="Path" fill="#FF6347" fill-rule="nonzero"></path>
                <path d="M183.973133,54.953183 L180.978246,56.558797 L180.717594,55.9957895 C180.433484,55.3988972 180.008622,54.4996491 179.891328,54.1712281 C179.714085,53.67599 178.465564,53.0504261 178.465564,53.0504261 C175.337744,50.0555388 179.065063,47.4803008 179.065063,47.4803008 C181.040802,43.5053634 183.235489,48.8304762 183.235489,48.8304762 C183.235489,48.8304762 183.543058,51.6376942 183.326717,51.8253634 C183.110376,52.0130326 183.110376,52.7819549 183.110376,52.7819549 C183.395821,53.332852 183.637242,53.9054649 183.832381,54.4944361 C183.923609,54.7785464 183.973133,54.953183 183.973133,54.953183 Z" id="Path" fill="#FFCDD3" fill-rule="nonzero"></path>
                <path d="M183.973133,54.953183 L180.978246,56.558797 L180.717594,55.9957895 C181.13985,55.6413033 182.638596,54.4318797 183.131228,54.4814035 C183.366379,54.5107573 183.603851,54.5168687 183.840201,54.4996491 C183.923609,54.7785464 183.973133,54.953183 183.973133,54.953183 Z" id="Path" fill="#000000" fill-rule="nonzero" opacity="0.1"></path>
                <path d="M184.278095,55.8576441 L180.913083,57.5153885 L180.845313,56.7933835 L180.798396,56.2929323 C180.798396,56.2929323 182.74807,54.6221554 183.32411,54.6873183 C183.615388,54.729525 183.911229,54.729525 184.202506,54.6873183 L184.241604,55.2920301 L184.278095,55.8576441 Z" id="Path" fill="#FF6347" fill-rule="nonzero"></path>
                <path d="M221.05604,67.1125815 C221.05604,67.1125815 206.386566,68.7677193 209.128622,67.8762907 C211.036591,67.2533333 211.795088,66.0517293 211.954085,64.6963409 C212.084411,63.5677193 211.792481,62.3504762 211.409323,61.3078697 C211.064551,60.3829413 210.62795,59.4948947 210.106065,58.6570426 C210.106065,58.6570426 221.314085,52.4900251 219.075088,58.0966416 C218.729795,58.9446679 218.515352,59.840234 218.439098,60.7526817 C218.371777,61.6594468 218.469811,62.570898 218.728421,63.4426065 C219.151259,64.8570589 219.956784,66.1271358 221.05604,67.1125815 L221.05604,67.1125815 Z" id="Path" fill="#FFCDD3" fill-rule="nonzero"></path>
                <path d="M219.067268,58.0888221 C218.721976,58.9368484 218.507532,59.8324145 218.431278,60.7448622 C217.375639,61.6336842 216.218346,61.5737343 214.730025,61.5737343 C213.588371,61.5737343 212.321604,61.8500251 211.409323,61.3000501 C211.064551,60.3751218 210.62795,59.4870751 210.106065,58.6492231 C210.106065,58.6492231 221.311479,52.4822055 219.067268,58.0888221 Z" id="Path" fill="#000000" fill-rule="nonzero" opacity="0.1"></path>
                <circle id="Oval" fill="#FFCDD3" fill-rule="nonzero" cx="214.53193" cy="55.8993484" r="6.06536341"></circle>
                <path d="M221.05604,67.1125815 C221.05604,67.1125815 206.386566,68.7677193 209.128622,67.8762907 C211.036591,67.2533333 211.795088,66.0517293 211.954085,64.6963409 C212.68391,63.914386 214.151378,63.3331328 215.081905,63.0307769 C215.942223,62.7414776 216.87107,62.7259968 217.740551,62.9864662 C218.082451,63.0894745 218.408027,63.2404155 218.707569,63.434787 C219.134935,64.8544388 219.947931,66.1276213 221.05604,67.1125815 Z" id="Path" fill="#000000" fill-rule="nonzero" opacity="0.1"></path>
                <path d="M229.404712,59.0584461 L226.6001,59.7074687 L226.54015,59.2904261 C227.155308,58.4453653 228.234062,58.0764003 229.237895,58.3677193 L229.404712,59.0584461 Z" id="Path" fill="#000000" fill-rule="nonzero" opacity="0.1"></path>
                <path d="M184.278095,55.8576441 L180.913083,57.5153885 L180.845313,56.7933835 C181.935272,56.2073531 183.067993,55.7045992 184.233784,55.2894236 L184.278095,55.8576441 Z" id="Path" fill="#000000" fill-rule="nonzero" opacity="0.1"></path>
                <path d="M226.858145,104.075589 C221.173333,104.982657 213.093133,106.13995 211.810727,105.748972 C210.744662,105.425764 207.345764,105.459649 204.387368,105.561303 C204.413434,104.080802 204.439499,103.098145 204.439499,103.098145 L226.459348,100.804411 C226.459348,100.804411 226.438496,101.820952 226.858145,104.075589 Z" id="Path" fill="#000000" fill-rule="nonzero" opacity="0.1"></path>
                <path d="M232.524712,102.741053 C232.524712,102.741053 213.817744,105.952281 211.810727,105.347569 C209.803709,104.742857 199.494937,105.397093 199.494937,105.397093 C194.855338,108.506667 196.79198,103.919198 196.79198,103.919198 C196.79198,103.919198 196.385363,101.52381 196.945764,99.5871679 C197.322145,98.1652977 197.579343,96.7145268 197.714687,95.2499248 C197.714687,95.2499248 197.613033,92.1898747 198.173434,91.4756892 C198.733835,90.7615038 199.398496,85.6657644 199.398496,85.6657644 C199.398496,85.6657644 199.906767,82.1990977 199.857243,81.4353885 C199.807719,80.6716792 200.008421,78.5291228 200.008421,78.5291228 L200.673083,74.960802 C196.849323,74.4525313 185.226867,67.3158897 185.226867,67.3158897 C184.666466,64.9205013 180.334436,59.3138847 180.334436,59.3138847 C180.271332,58.8424176 180.15143,58.3803145 179.977343,57.9376441 C179.672381,57.1218045 184.25985,55.4901253 184.25985,55.4901253 C184.25985,55.4901253 187.674386,59.6605514 188.388571,60.7917794 C189.102757,61.9230075 191.547669,64.0030075 191.547669,64.0030075 C191.927536,63.9639369 192.311282,64.0139131 192.668471,64.1489724 L192.728421,64.167218 L192.728421,64.167218 C193.547767,64.4888746 194.316028,64.9278803 195.009123,65.4704762 C196.158567,65.4432133 197.273603,65.8638053 198.118697,66.6434085 C198.118697,66.6434085 200.20391,66.3358396 200.566216,66.6929323 C200.928521,67.0500251 202.706165,66.6929323 202.706165,66.6929323 C202.706165,66.6929323 204.489023,62.9213033 205.661955,64.0160401 C206.834887,65.1107769 211.810727,65.0586466 211.810727,65.0586466 C212.472782,64.1776441 214.086216,63.5468672 215.094937,63.2340852 C215.95546,62.9459764 216.883938,62.9305018 217.753584,63.1897744 C218.128741,63.301715 218.481544,63.4781166 218.79619,63.7110777 L221.822356,66.6668672 C221.822356,66.6668672 222.687719,65.5434586 222.586065,65.2906266 C222.484411,65.0377945 223.605213,64.8318797 223.605213,64.8318797 C223.605213,64.8318797 225.083108,64.3731328 225.643509,64.2193484 C226.20391,64.0655639 226.717393,64.6728822 226.764311,64.727619 C226.746065,64.6624561 226.362907,63.4243609 226.503659,62.486015 C226.644411,61.5476692 225.891128,60.6614536 225.891128,60.6614536 C227.673985,56.2772932 231.701053,59.9472682 231.701053,59.9472682 C231.701053,59.9472682 232.159799,62.3426566 231.753183,63.2601504 C231.346566,64.1776441 232.159799,66.1142857 232.058145,66.6251629 C231.956491,67.1360401 232.26406,68.0014035 232.26406,68.9710276 C232.26406,69.9406516 231.742757,71.7730326 231.448221,72.5888722 C231.153684,73.4047118 228.695739,75.2396992 228.695739,75.2396992 C228.695739,75.2396992 228.541955,78.1459649 227.470677,79.8271679 C226.399398,81.5083709 227.07188,87.2583459 227.07188,87.2583459 C227.07188,87.2583459 228.091028,91.7441604 229.365614,93.1725313 C230.640201,94.6009023 232.524712,102.741053 232.524712,102.741053 Z" id="Path" fill="#196690" fill-rule="nonzero"></path>
                <path d="M205.255338,69.200401 C205.255338,69.200401 204.694937,67.519198 204.18406,67.3758396 C203.676839,67.1892825 203.183043,66.9680759 202.706165,66.7137845 L203.034586,66.085614 C203.034586,66.085614 204.947769,66.6069173 205.255338,67.1725313 C205.562907,67.7381454 205.255338,69.200401 205.255338,69.200401 Z" id="Path" fill="#000000" fill-rule="nonzero" opacity="0.1"></path>
                <path d="M195.009123,65.4809023 C194.907469,66.0022055 190.369524,66.4479198 190.369524,66.4479198 L192.663258,64.1489724 L192.663258,64.1489724 L192.720602,64.1698246 L192.720602,64.1698246 C193.543147,64.493221 194.314107,64.9348988 195.009123,65.4809023 L195.009123,65.4809023 Z" id="Path" fill="#000000" fill-rule="nonzero" opacity="0.1"></path>
                <circle id="Oval" fill="#575988" fill-rule="nonzero" cx="181.882707" cy="58.4850125" r="1"></circle>
                <circle id="Oval" fill="#575988" fill-rule="nonzero" cx="182.40401" cy="59.3008521" r="1"></circle>
                <circle id="Oval" fill="#575988" fill-rule="nonzero" cx="182.914887" cy="60.0541353" r="1"></circle>
                <circle id="Oval" fill="#575988" fill-rule="nonzero" cx="183.449223" cy="60.8673684" r="1"></circle>
                <circle id="Oval" fill="#575988" fill-rule="nonzero" cx="231.497744" cy="60.8230576" r="1"></circle>
                <circle id="Oval" fill="#575988" fill-rule="nonzero" cx="231.549875" cy="61.5763409" r="1"></circle>
                <circle id="Oval" fill="#575988" fill-rule="nonzero" cx="231.594185" cy="62.3270175" r="1"></circle>
                <path d="M205.273584,83.0149373 C205.22406,82.9549875 216.71619,97.4654637 225.635689,89.0803008 C225.643509,89.0829073 211.550075,90.9934837 205.273584,83.0149373 Z" id="Path" fill="#000000" fill-rule="nonzero" opacity="0.1"></path>
                <path d="M198.679098,90.5581955 C198.679098,90.5581955 205.555088,90.7458647 206.274486,92.7242105 L206.274486,94.7833584 C205.876468,95.0042025 205.392705,95.0042025 204.994687,94.7833584 C204.301353,94.4080201 200.14396,92.2967419 198.679098,93.3132832 L198.679098,90.5581955 Z" id="Path" fill="#000000" fill-rule="nonzero" opacity="0.1"></path>
                <path d="M198.806817,90.5581955 C198.806817,90.5581955 205.383058,90.7380451 206.071178,92.6251629 L206.071178,94.5852632 C205.69023,94.7968409 205.227064,94.7968409 204.846115,94.5852632 C204.18406,94.2307769 200.209123,92.2159398 198.806817,93.1855639 L198.806817,90.5581955 Z" id="Path" fill="#3F3D56" fill-rule="nonzero"></path>
                <path d="M202.432481,75.6280702 C203.134978,77.2541265 204.030209,78.7899344 205.098947,80.2025063 C206.261248,81.7638437 207.669783,83.1257209 209.269373,84.234787 C209.269373,84.234787 202.547168,76.5716291 202.432481,75.6280702 Z" id="Path" fill="#000000" fill-rule="nonzero" opacity="0.1"></path>
                <path d="M200.183058,67.6390977 C200.183058,67.6390977 201.329925,72.5914787 204.285714,74.2726817 L200.183058,67.6390977 Z" id="Path" fill="#000000" fill-rule="nonzero" opacity="0.1"></path>
                <path d="M198.423659,68.1395489 C198.394987,68.0483208 197.404511,72.0493233 202.234386,74.2726817 C202.234386,74.2726817 200.183058,73.5767419 198.423659,68.1395489 Z" id="Path" fill="#000000" fill-rule="nonzero" opacity="0.1"></path>
                <path d="M228.44812,64.8188471 C228.372531,64.8188471 230.830476,66.3827569 231.500351,67.1125815 C231.500351,67.1125815 229.89995,64.7145865 228.44812,64.8188471 Z" id="Path" fill="#000000" fill-rule="nonzero" opacity="0.1"></path>
                <path d="M212.892431,61.3964912 C212.894263,61.6640103 213.008035,61.9185388 213.206144,62.0983232 C213.404254,62.2781076 213.668597,62.3667183 213.935038,62.3426566 C215.783058,62.4573434 217.709273,62.5381454 219.408722,61.8213534 C219.727475,61.707579 220.013743,61.5179261 220.242807,61.2687719 C220.545163,60.8960401 220.605113,60.3903759 220.727619,59.926416 C220.967419,59.0193484 221.478296,58.2139348 221.845815,57.3511779 C222.46761,55.8935536 222.67593,54.2928303 222.44792,52.7246115 C222.399814,52.2439048 222.24101,51.7808753 221.98396,51.3718296 C221.493935,50.6706767 220.5999,50.3865664 219.950877,49.8287719 C219.301855,49.2709774 218.884812,48.4186466 218.126316,48.0042105 C217.443409,47.6236591 216.606717,47.6705764 215.837794,47.8009023 C214.325339,48.0577325 212.876073,48.601871 211.568321,49.4039098 C211.12782,49.6645614 210.645614,49.9851629 210.13995,49.8887218 C209.696842,49.8053133 209.373634,49.4325815 209.097343,49.0833083 C208.741911,49.9174321 208.592605,50.8248918 208.662055,51.7289223 C208.681264,51.8615829 208.676852,51.9965959 208.649023,52.1277193 C208.585301,52.2862473 208.488434,52.4293258 208.364912,52.5473684 C207.908772,53.0686717 207.624662,53.9157895 208.075589,54.4527318 C208.271078,54.6847118 208.573434,54.8124311 208.763709,55.0496241 C209.105163,55.4744862 208.990476,56.0922306 208.982657,56.634386 C208.963851,56.8236952 209.011794,57.0136246 209.118195,57.1713283 C209.318772,57.358291 209.602623,57.4265339 209.866266,57.3511779 C210.124498,57.2733969 210.395613,57.2477031 210.66386,57.275589 C210.94648,57.3674808 211.190434,57.550905 211.357193,57.7968922 C212.199098,58.8942356 212.532732,60.0880201 212.892431,61.3964912 Z" id="Path" fill="#2D293D" fill-rule="nonzero"></path>
                <g id="Group" opacity="0.1" transform="translate(207.739348, 49.002506)" fill="#000000" fill-rule="nonzero">
                    <path d="M12.7197995,11.8049123 C12.4907357,12.0540665 12.2044672,12.2437193 11.8857143,12.3574937 C10.1758396,13.0690727 8.25223058,12.9882707 6.41203008,12.878797 C6.21445608,12.8807668 6.01909894,12.8370568 5.84120301,12.7510777 C5.55969925,12.5868672 5.45283208,12.242807 5.36681704,11.9300251 C5.00711779,10.6267669 4.67609023,9.43037594 3.82115288,8.34345865 C3.65638777,8.09274126 3.41223895,7.90458145 3.12781955,7.80912281 C2.85956701,7.78381972 2.58894901,7.80946653 2.33022556,7.88471178 C2.06703683,7.96075062 1.78324812,7.89351148 1.58215539,7.70746867 C1.47575436,7.54976494 1.42781102,7.35983558 1.44661654,7.17052632 C1.44661654,6.62315789 1.56912281,6.01062657 1.22766917,5.58576441 C1.03739348,5.34857143 0.735037594,5.22085213 0.539548872,4.98626566 C0.279731467,4.63388924 0.23466588,4.16721005 0.422255639,3.77162907 C0.0964411028,4.29293233 -0.0417042607,4.94716792 0.336240602,5.39548872 C0.531729323,5.62746867 0.834085213,5.75518797 1.0243609,5.99238095 C1.36581454,6.41984962 1.25112782,7.03498747 1.24330827,7.57714286 C1.2232935,7.76617361 1.27034539,7.95622634 1.3762406,8.11408521 C1.57737513,8.30197178 1.86247781,8.37027763 2.12691729,8.29393484 C2.38515005,8.21615378 2.65626433,8.19045994 2.92451128,8.21834586 C3.20713145,8.31023772 3.45108561,8.49366191 3.61784461,8.73964912 C4.47017544,9.82656642 4.80380952,11.0203509 5.16350877,12.3288221 C5.20563113,12.6508032 5.36643826,12.9454613 5.61443609,13.1550877 C5.79311839,13.2412012 5.98955682,13.2840604 6.18786967,13.2802005 C8.03588972,13.3948872 9.96210526,13.4782957 11.6615539,12.7588972 C11.9806874,12.6458846 12.2671283,12.4561175 12.4956391,12.2063158 C12.610536,12.0594901 12.6987594,11.89363 12.7562907,11.7162907 C12.7588972,11.7501754 12.7406516,11.7788471 12.7197995,11.8049123 Z" id="Path"></path>
                    <path d="M0.922706767,2.96621554 C1.00461122,2.87730151 1.06757506,2.77265739 1.10776942,2.65864662 C1.13127589,2.52675345 1.13127589,2.39174279 1.10776942,2.25984962 C1.05696997,1.51671443 1.15352283,0.770865749 1.3918797,0.0651629073 L1.35799499,0.0260651629 C1.00138519,0.858928662 0.852022683,1.76583632 0.922706767,2.66907268 C0.930527672,2.76796591 0.930527672,2.86732231 0.922706767,2.96621554 Z" id="Path"></path>
                </g>
                <path d="M211.810727,65.0716792 C211.810727,65.0716792 219.38787,66.0777945 220.06817,64.9387469" id="Path" fill="#000000" fill-rule="nonzero" opacity="0.1"></path>
                <path d="M226.54015,61.9360401 C226.54015,61.9360401 230.752281,61.9360401 231.677594,63.520802" id="Path" fill="#000000" fill-rule="nonzero" opacity="0.1"></path>
                <path d="M250.105664,202.727018 C248.856354,203.843922 247.232905,204.450507 245.557293,204.426466 C245.129825,204.426466 244.538145,204.507268 244.535539,204.934737 C244.545868,205.060124 244.589018,205.180583 244.660652,205.28401 C245.189588,206.165677 246.024678,206.821687 247.006516,207.126817 C247.918797,207.403108 248.893634,207.35619 249.845013,207.306667 L252.620952,207.163308 C253.142256,207.134637 253.663559,207.108571 254.184862,207.043409 C254.706165,206.978246 255.274386,206.871378 255.819148,206.782757 C257.157748,206.592473 258.511383,206.529635 259.861855,206.595088 C260.221554,206.60812 260.64381,206.595088 260.857544,206.334436 C261.071278,206.073784 260.961805,205.57594 260.881003,205.184962 C260.714185,204.379549 260.881003,203.535038 260.727218,202.727018 C260.466566,201.309073 259.238897,200.222155 257.893935,199.708672 C256.642807,199.234286 254.427268,198.689524 253.24391,199.481905 C251.995388,200.313383 251.231679,201.702657 250.105664,202.727018 Z" id="Path" fill="#3F3D56" fill-rule="nonzero"></path>
                <path d="M252.863358,155.220652 C253.108371,156.385764 254.236992,157.277193 254.268271,158.465764 C254.296942,159.419749 253.616642,160.21995 253.126617,161.035789 C252.664864,161.880777 252.275115,162.763162 251.961504,163.673584 C251.038878,166.044113 249.893851,168.321949 248.541754,170.476591 C247.890125,171.519198 247.160301,172.63218 247.308872,173.844211 C247.412684,174.410996 247.612803,174.955814 247.900551,175.455038 L249.855439,179.338747 C250.283627,180.114161 250.618714,180.937443 250.853734,181.791479 C251.023158,182.529123 251.038797,183.292832 251.137845,184.043509 C251.445414,186.425865 252.563609,188.82386 251.901554,191.133233 C251.844211,191.331328 251.640902,191.571128 251.481905,191.432982 C252.128321,192.639799 252.647018,193.854436 252.597494,195.222857 C252.571429,195.939649 252.352481,196.687719 252.615739,197.354987 C252.72782,197.633885 252.923308,197.894536 252.920702,198.194286 C252.920702,198.392381 252.829474,198.577444 252.808622,198.770326 C252.753885,199.320301 253.259549,199.779048 253.783459,199.953684 C254.307368,200.128321 254.878195,200.115288 255.407318,200.274286 C256.42386,200.579248 257.151078,201.455038 258.013835,202.062356 C258.898959,202.672084 259.942102,203.011649 261.016541,203.039799 C261.169825,203.056132 261.324438,203.02521 261.459649,202.951178 C261.614635,202.815685 261.703885,202.620096 261.704662,202.414236 C261.800532,201.425658 261.397892,200.454239 260.630777,199.823358 C260.465191,199.719722 260.32811,199.57637 260.23198,199.406316 C260.183312,199.255824 260.17081,199.095978 260.195489,198.939749 C260.352833,196.80338 260.314444,194.657096 260.080802,192.527719 C259.975436,191.852866 259.941363,191.1688 259.979148,190.486817 C260.033885,189.918596 260.205915,189.355589 260.143358,188.789975 C260.080802,188.224361 259.791479,187.708271 259.622055,187.163509 C259.319699,186.193885 259.403108,185.151278 259.361404,184.137343 C259.309273,182.375338 258.905263,180.644612 258.50386,178.924311 C258.344862,178.249223 258.170226,177.542857 257.693233,177.042406 C257.286617,176.617544 256.629774,176.210927 256.783559,175.645313 C256.868735,175.436818 256.995567,175.247901 257.156291,175.090125 C257.53778,174.611403 257.705559,173.996838 257.620251,173.390677 C257.973836,173.480885 258.341839,173.30835 258.498647,172.978847 C261.673383,171.4801 264.232982,168.482607 265.374637,165.159298 C265.441966,164.912491 265.545622,164.677067 265.682206,164.460752 C265.976742,164.048922 266.487619,163.871679 266.941153,163.644912 C268.364311,162.92812 269.346967,161.585764 270.248822,160.27208 C270.770125,159.510977 271.291429,158.72381 271.526015,157.827168 C271.649336,157.247237 271.707907,156.65541 271.700652,156.062556 L271.781454,152.9999 C271.799161,152.798242 271.779725,152.595046 271.72411,152.400401 C271.646805,152.218556 271.534305,152.053792 271.393083,151.915589 C270.526143,150.998837 269.387645,150.384816 268.145363,150.16401 C267.311278,150.015439 266.458947,150.04411 265.614436,149.973734 C263.977544,149.838195 262.361504,149.329925 260.724612,149.452431 C258.15198,149.642707 255.860852,151.425564 254.648822,153.703659 C254.22396,154.506466 253.775639,155.205013 252.863358,155.220652 Z" id="Path" fill="#BE0A3D" fill-rule="nonzero"></path>
                <path d="M238.579649,135.306867 C238.614354,135.779677 238.550447,136.25454 238.39198,136.701353 C238.191278,137.128822 237.688221,137.462456 237.247719,137.28782 C237.380652,136.98807 237.028772,136.646617 236.700351,136.683108 C236.372384,136.758721 236.102486,136.990619 235.978346,137.303459 C235.760604,137.741218 235.687584,138.236841 235.769825,138.718797 C235.874085,139.318296 236.220752,139.894336 236.129524,140.496441 C236.056541,140.996892 235.689023,141.494737 235.884511,141.958697 C236.011325,142.170675 236.170508,142.361518 236.356291,142.524311 C236.891112,143.183043 236.816661,144.145171 236.186867,144.713784 L241.118396,144.812832 C240.938546,145.636491 241.308672,146.478396 241.730927,147.210827 C244.128454,151.292949 248.299769,154.016266 253.001504,154.569023 C252.747568,154.717288 252.573624,154.971738 252.527659,155.262174 C252.481695,155.55261 252.568568,155.848337 252.764311,156.067769 C253.165714,156.466566 253.846015,156.417043 254.349073,156.158997 C254.85213,155.900952 255.245714,155.473484 255.704461,155.142456 C256.514327,154.568628 257.502301,154.302458 258.490827,154.391779 C259.108571,154.451729 259.70807,154.652431 260.328421,154.683709 C262.152982,154.78015 263.716892,153.466466 265.473684,152.929524 C266.753484,152.53594 268.205313,152.53594 269.279198,151.735739 C269.743158,151.391679 270.123709,150.826065 269.98817,150.268271 C269.87601,149.947694 269.698494,149.653905 269.466867,149.405514 C268.849123,148.605313 268.484211,147.643509 268.041103,146.733835 C267.163242,144.932834 265.954537,143.312974 264.477995,141.958697 C263.363484,140.98456 262.182481,140.089228 260.943559,139.279198 C260.644039,139.058131 260.324679,138.865293 259.989574,138.703158 C259.556892,138.512882 259.077293,138.421654 258.686316,138.181855 C258.107669,137.816942 257.774035,137.173133 257.328321,136.654436 C256.350877,135.512782 254.849524,134.988872 253.645313,134.092231 C252.837293,133.490125 252.123108,132.697744 251.158697,132.408421 C250.689524,132.265063 250.191679,132.254637 249.722506,132.113885 C248.656441,131.790677 247.879699,130.844511 246.834486,130.461353 C246.008221,130.158997 245.09594,130.237193 244.22797,130.130326 C243.249563,130.009636 242.314965,129.653684 241.50416,129.092932 C241.242959,128.880172 240.950099,128.709558 240.63619,128.587268 C239.314687,128.185865 239.20782,130.646416 239.072281,131.498747 C238.897644,132.765514 238.579649,134.024461 238.579649,135.306867 Z" id="Path" fill="#196690" fill-rule="nonzero"></path>
                <path d="M239.867268,143.559098 C240.088822,145.962306 238.274687,148.289925 238.80381,150.643609 C238.91589,151.14406 239.132231,151.621053 239.210426,152.129323 C239.43198,153.52381 238.597895,154.845313 237.802907,156.013033 L230.973835,166.035088 C230.699651,166.475056 230.372232,166.879514 229.998997,167.239298 C228.695739,168.399198 226.735639,168.281905 225.020551,168.625965 C223.815749,168.873531 222.678053,169.376606 221.684211,170.101253 C221.591108,170.173203 221.57258,170.30637 221.642506,170.401003 C222.21786,171.18444 223.150959,171.623026 224.121303,171.566115 C224.301153,171.800702 224.121303,172.149975 223.873684,172.319398 C223.508772,172.58005 223.003108,172.64 222.930125,173.262957 C222.905443,173.479429 222.949196,173.698195 223.055238,173.888521 C223.331273,174.308533 223.75903,174.605535 224.249023,174.717393 C226.613133,175.442005 229.167519,174.170025 230.937343,172.441905 C232.707168,170.713784 233.976541,168.53213 235.712481,166.775338 C236.674286,165.800501 237.766416,164.969023 238.756892,164.025464 C240.732632,162.140952 242.270476,159.855038 243.750977,157.56391 C244.196692,156.873183 244.647619,156.164211 244.832682,155.36401 C245.017744,154.56381 244.931729,153.753183 245.142857,152.979048 C245.419148,151.965113 246.162005,151.154486 246.779749,150.304762 C247.991779,148.636591 248.802406,146.595689 248.640802,144.539148 C248.479198,142.482607 247.207218,140.454737 245.26797,139.75619 C244.666459,139.517198 244.004244,139.477008 243.378246,139.641504 C242.583258,139.886516 241.996792,140.543358 241.454637,141.174135 L240.151378,142.670276 C239.834063,143.001574 239.585174,143.392179 239.418947,143.819749 C239.247298,144.259711 239.34928,144.759424 239.679599,145.096942" id="Path" fill="#FBBEBE" fill-rule="nonzero"></path>
                <path d="M243.328722,133.701253 C242.43208,133.753383 241.444211,133.842005 240.810827,134.483208 C240.545208,134.777635 240.330291,135.114103 240.174837,135.478897 C239.559699,136.732632 238.960201,138.043709 238.91589,139.440802 C238.879398,140.556391 239.202607,141.648521 239.37203,142.751078 C239.512782,143.668571 239.155689,144.604311 239.08792,145.532231 C240.200902,145.190777 241.670977,144.726817 242.679699,144.150777 C243.36782,143.757193 244.032481,143.308872 244.783158,143.058647 C245.854436,142.701554 247.650326,143.319298 248.669474,143.814536 C248.724211,143.100351 248.187268,141.854436 248.244612,141.137644 C248.25257,140.835906 248.306177,140.537114 248.403609,140.251429 C248.556055,139.949229 248.736707,139.662106 248.943158,139.393885 C249.739024,138.099942 249.61172,136.440789 248.627769,135.283409 C247.723308,134.266867 246.30797,133.886316 244.957794,133.719499 C244.107512,133.620924 243.25065,133.591287 242.395589,133.630877" id="Path" fill="#196690" fill-rule="nonzero"></path>
            </g>
        </g>
    </g>
</svg>