<?xml version="1.0" encoding="UTF-8"?>
<svg width="311px" height="246px" viewBox="0 0 311 246" version="1.1" xmlns="http://www.w3.org/2000/svg" xmlns:xlink="http://www.w3.org/1999/xlink">
    <!-- Generator: Sketch 55 (78076) - https://sketchapp.com -->
    <title>Group 2</title>
    <desc>Created with Sketch.</desc>
    <defs>
        <linearGradient x1="50.0366418%" y1="100.01391%" x2="50.0366418%" y2="-0.00325046985%" id="linearGradient-1">
            <stop stop-color="#808080" stop-opacity="0.25" offset="0%"></stop>
            <stop stop-color="#808080" stop-opacity="0.12" offset="54%"></stop>
            <stop stop-color="#808080" stop-opacity="0.1" offset="100%"></stop>
        </linearGradient>
        <linearGradient x1="50%" y1="58%" x2="50%" y2="42%" id="linearGradient-2">
            <stop stop-color="#808080" stop-opacity="0.25" offset="0%"></stop>
            <stop stop-color="#808080" stop-opacity="0.12" offset="54%"></stop>
            <stop stop-color="#808080" stop-opacity="0.1" offset="100%"></stop>
        </linearGradient>
        <linearGradient x1="50.1133825%" y1="99.9786495%" x2="50.1133825%" y2="0.34848182%" id="linearGradient-3">
            <stop stop-color="#808080" stop-opacity="0.25" offset="0%"></stop>
            <stop stop-color="#808080" stop-opacity="0.12" offset="54%"></stop>
            <stop stop-color="#808080" stop-opacity="0.1" offset="100%"></stop>
        </linearGradient>
        <linearGradient x1="49.9915974%" y1="99.9808511%" x2="49.9915974%" y2="-0.00714750836%" id="linearGradient-4">
            <stop stop-color="#808080" stop-opacity="0.25" offset="0%"></stop>
            <stop stop-color="#808080" stop-opacity="0.12" offset="54%"></stop>
            <stop stop-color="#808080" stop-opacity="0.1" offset="100%"></stop>
        </linearGradient>
    </defs>
    <g id="principal" stroke="none" stroke-width="1" fill="none" fill-rule="evenodd">
        <g id="Intro-Simulador-BT-V0" transform="translate(-32.000000, -204.000000)">
            <g id="Group-2" transform="translate(32.000000, 204.000000)">
                <g id="undraw_btc_p2p_lth5">
                    <path d="M79.236138,28.6273738 C75.3414315,30.6547992 71.4403193,33.2074974 69.4577343,37.1246241 C68.0004222,40.0072194 67.7345829,43.3125953 67.4943666,46.5282904 L64.6117714,84.9180536 C63.9711946,93.4729557 63.2697631,102.264871 59.5352008,109.990227 C53.1006076,123.298208 39.0911946,130.892245 28.5729248,141.275994 C11.338208,158.292915 3.93954686,186.97794 16.8823996,207.450772 C22.5922665,216.399701 31.4129614,222.917956 41.6438929,225.748847 C47.6460968,227.382317 53.9173429,227.670577 60.1309372,227.949228 C112.177796,230.206193 164.259887,231.111541 216.377209,230.665273 C222.56518,230.610824 228.922904,230.505129 234.633646,228.154212 C242.522348,224.909691 248.191452,217.767261 252.095767,210.182832 C256.000082,202.598404 258.501535,194.36379 262.194459,186.676869 C269.753265,170.982739 282.052338,158.190422 292.769186,144.472472 C298.678507,136.913666 304.209887,128.903254 307.528074,119.903151 C312.803223,105.599073 311.880793,88.7743254 303.636571,75.9467765 C300.074964,70.402585 295.225798,65.6014624 292.801215,59.474346 C289.415767,50.9066323 291.305469,41.310793 292.112595,32.1345314 C292.919722,22.9582698 292.035726,12.4816375 284.973368,6.56591143 C281.075458,3.30217302 275.91241,2.0146138 270.88068,1.27795057 C246.791792,-2.24522142 222.597209,4.72745623 198.710103,9.42928939 C177.631926,13.5930381 156.262286,15.9759835 134.879835,17.8752935 C115.899547,19.5664161 96.5573326,19.6112564 79.236138,28.6273738 Z" id="Path" fill="#B3143C" opacity="0.123232887"></path>
                    <path d="M71.0783934,207.610917 C71.0783934,207.610917 61.7547992,175.956818 72.8271679,152.659042 C77.474552,142.880639 79.0183419,131.904356 76.869207,121.293203 C75.8429086,116.256753 74.3569556,111.325019 72.4300103,106.559938" id="Path" stroke="#535461" stroke-width="2"></path>
                    <path d="M79.3162101,91.8522966 C79.3162101,95.7309887 72.2922863,106.979516 72.2922863,106.979516 C72.2922863,106.979516 65.2683625,95.7309887 65.2683625,91.8522966 C65.2683625,87.9730906 68.4130803,84.8283728 72.2922863,84.8283728 C76.1714923,84.8283728 79.3162101,87.9730906 79.3162101,91.8522966 Z" id="Path" fill="#B3143C"></path>
                    <path d="M90.9266632,113.327631 C88.8191658,116.584964 76.8083522,122.209228 76.8083522,122.209228 C76.8083522,122.209228 77.0261483,108.949289 79.1336457,105.691957 C80.4976276,103.585337 82.8818671,102.366416 85.3882442,102.494349 C87.8946213,102.622282 90.1423578,104.077633 91.284753,106.312186 C92.4271482,108.546739 92.2906452,111.221012 90.9266632,113.327631 Z" id="Path" fill="#B3143C"></path>
                    <path d="M90.4206076,150.058301 C86.9582904,151.803872 73.7656128,150.599588 73.7656128,150.599588 C73.7656128,150.599588 80.6261895,139.270989 84.0949125,137.515808 C87.5525529,135.807689 91.7407206,137.20685 93.4773688,140.65025 C95.2140171,144.09365 93.8495312,148.293242 90.4206076,150.058301 L90.4206076,150.058301 Z" id="Path" fill="#B3143C"></path>
                    <path d="M83.7810299,177.753635 C80.6614212,180.059712 67.4463234,181.103852 67.4463234,181.103852 C67.4463234,181.103852 72.3147065,168.766344 75.4311123,166.460268 C77.4466181,164.93254 80.1278195,164.60631 82.4508628,165.606153 C84.7739062,166.605997 86.3800689,168.777519 86.6560157,171.291494 C86.9319624,173.805469 85.8350818,176.273691 83.7842327,177.753635 L83.7810299,177.753635 Z" id="Path" fill="#B3143C"></path>
                    <path d="M62.0494645,122.971514 C64.8327703,125.674748 77.7948404,128.474068 77.7948404,128.474068 C77.7948404,128.474068 74.6207827,115.598476 71.8374768,112.895242 C69.0511287,110.217256 64.6248207,110.29326 61.9320556,113.065328 C59.2392905,115.837396 59.2917555,120.264046 62.0494645,122.971514 L62.0494645,122.971514 Z" id="Path" fill="#B3143C"></path>
                    <path d="M54.7052523,155.461565 C58.1675695,157.207137 71.3602472,156.002853 71.3602472,156.002853 C71.3602472,156.002853 64.4772503,144.664645 61.0149331,142.919073 C58.7714728,141.764239 56.0809607,141.901499 53.9666734,143.27865 C51.8523861,144.655802 50.6392411,147.061207 50.7886313,149.580024 C50.9380215,152.098841 52.4269889,154.343985 54.6892379,155.461565 L54.7052523,155.461565 Z" id="Path" fill="#B3143C"></path>
                    <path d="M51.8899176,188.02208 C55.0095263,190.328157 68.2246241,191.372297 68.2246241,191.372297 C68.2246241,191.372297 63.356241,179.034789 60.2398352,176.728713 C57.1202577,174.477547 52.7702217,175.154716 50.4825556,178.247627 C48.1948895,181.340537 48.8208982,185.69823 51.8867147,188.02208 L51.8899176,188.02208 Z" id="Path" fill="#B3143C"></path>
                    <path d="M79.3162101,91.8522966 C79.3162101,95.7309887 72.2922863,106.979516 72.2922863,106.979516 C72.2922863,106.979516 65.2683625,95.7309887 65.2683625,91.8522966 C65.2683625,87.9730906 68.4130803,84.8283728 72.2922863,84.8283728 C76.1714923,84.8283728 79.3162101,87.9730906 79.3162101,91.8522966 Z" id="Path" fill="#000000" opacity="0.25"></path>
                    <path d="M90.9266632,113.327631 C88.8191658,116.584964 76.8083522,122.209228 76.8083522,122.209228 C76.8083522,122.209228 77.0261483,108.949289 79.1336457,105.691957 C80.4976276,103.585337 82.8818671,102.366416 85.3882442,102.494349 C87.8946213,102.622282 90.1423578,104.077633 91.284753,106.312186 C92.4271482,108.546739 92.2906452,111.221012 90.9266632,113.327631 Z" id="Path" fill="#000000" opacity="0.25"></path>
                    <path d="M90.4206076,150.058301 C86.9582904,151.803872 73.7656128,150.599588 73.7656128,150.599588 C73.7656128,150.599588 80.6261895,139.270989 84.0949125,137.515808 C87.5525529,135.807689 91.7407206,137.20685 93.4773688,140.65025 C95.2140171,144.09365 93.8495312,148.293242 90.4206076,150.058301 L90.4206076,150.058301 Z" id="Path" fill="#000000" opacity="0.25"></path>
                    <path d="M83.7810299,177.753635 C80.6614212,180.059712 67.4463234,181.103852 67.4463234,181.103852 C67.4463234,181.103852 72.3147065,168.766344 75.4311123,166.460268 C77.4466181,164.93254 80.1278195,164.60631 82.4508628,165.606153 C84.7739062,166.605997 86.3800689,168.777519 86.6560157,171.291494 C86.9319624,173.805469 85.8350818,176.273691 83.7842327,177.753635 L83.7810299,177.753635 Z" id="Path" fill="#000000" opacity="0.25"></path>
                    <path d="M62.0494645,122.971514 C64.8327703,125.674748 77.7948404,128.474068 77.7948404,128.474068 C77.7948404,128.474068 74.6207827,115.598476 71.8374768,112.895242 C69.0511287,110.217256 64.6248207,110.29326 61.9320556,113.065328 C59.2392905,115.837396 59.2917555,120.264046 62.0494645,122.971514 L62.0494645,122.971514 Z" id="Path" fill="#000000" opacity="0.25"></path>
                    <path d="M54.7052523,155.461565 C58.1675695,157.207137 71.3602472,156.002853 71.3602472,156.002853 C71.3602472,156.002853 64.4772503,144.664645 61.0149331,142.919073 C58.7714728,141.764239 56.0809607,141.901499 53.9666734,143.27865 C51.8523861,144.655802 50.6392411,147.061207 50.7886313,149.580024 C50.9380215,152.098841 52.4269889,154.343985 54.6892379,155.461565 L54.7052523,155.461565 Z" id="Path" fill="#000000" opacity="0.25"></path>
                    <path d="M51.8899176,188.02208 C55.0095263,190.328157 68.2246241,191.372297 68.2246241,191.372297 C68.2246241,191.372297 63.356241,179.034789 60.2398352,176.728713 C57.1202577,174.477547 52.7702217,175.154716 50.4825556,178.247627 C48.1948895,181.340537 48.8208982,185.69823 51.8867147,188.02208 L51.8899176,188.02208 Z" id="Path" fill="#000000" opacity="0.25"></path>
                    <path d="M249.921009,190.590793 C249.921009,190.590793 240.597415,158.939897 251.660175,135.642122 C256.307559,125.863718 257.851349,114.887436 255.702214,104.276282 C254.675916,99.2398327 253.189963,94.3080982 251.263018,89.5430175" id="Path" stroke="#535461" stroke-width="2"></path>
                    <path d="M258.158826,74.832173 C258.158826,78.7108651 251.134902,89.9593924 251.134902,89.9593924 C251.134902,89.9593924 244.110978,78.7108651 244.110978,74.832173 C244.110978,70.952967 247.255696,67.8082492 251.134902,67.8082492 C255.014108,67.8082492 258.158826,70.952967 258.158826,74.832173 Z" id="Path" fill="#B3143C"></path>
                    <path d="M269.769279,96.3203193 C267.661782,99.5776519 255.650968,105.201916 255.650968,105.201916 C255.650968,105.201916 255.868764,91.9419773 257.976262,88.6846447 C259.340243,86.578025 261.724483,85.3591037 264.23086,85.4870368 C266.737237,85.6149699 268.984974,87.0703213 270.127369,89.3048742 C271.269764,91.539427 271.133261,94.2136996 269.769279,96.3203193 L269.769279,96.3203193 Z" id="Path" fill="#B3143C"></path>
                    <path d="M269.276035,133.038177 C265.813718,134.783749 252.62104,133.579464 252.62104,133.579464 C252.62104,133.579464 259.504037,122.241256 262.966354,120.495685 C265.218216,119.267902 267.960265,119.365152 270.119489,120.749377 C272.278714,122.133602 273.511772,124.584696 273.336145,127.143501 C273.160519,129.702306 271.604135,131.961944 269.276035,133.038177 Z" id="Path" fill="#B3143C"></path>
                    <path d="M262.623646,160.730309 C259.504037,163.036385 246.288939,164.080525 246.288939,164.080525 C246.288939,164.080525 251.157322,151.743018 254.273728,149.436941 C256.28774,147.883873 258.983965,147.54084 261.322705,148.540122 C263.661445,149.539404 265.277306,151.724877 265.547193,154.253795 C265.81708,156.782714 264.698827,159.259972 262.623646,160.730309 L262.623646,160.730309 Z" id="Path" fill="#B3143C"></path>
                    <path d="M240.901689,105.960999 C243.684995,108.664233 256.647065,111.463553 256.647065,111.463553 C256.647065,111.463553 253.473007,98.5943666 250.69931,95.8751184 C248.897641,94.124942 246.299122,93.4688913 243.88259,94.1540942 C241.466059,94.8392972 239.598643,96.7616551 238.98378,99.1970345 C238.368917,101.632414 239.10002,104.210823 240.901689,105.960999 Z" id="Path" fill="#B3143C"></path>
                    <path d="M233.547868,138.441442 C237.010185,140.187013 250.202863,138.982729 250.202863,138.982729 C250.202863,138.982729 243.332678,127.644521 239.873563,125.89895 C237.630103,124.744115 234.939591,124.881376 232.825304,126.258527 C230.711016,127.635678 229.497871,130.041084 229.647262,132.5599 C229.796652,135.078717 231.285619,137.323861 233.547868,138.441442 L233.547868,138.441442 Z" id="Path" fill="#B3143C"></path>
                    <path d="M230.732533,171.001957 C233.852142,173.308033 247.06724,174.352173 247.06724,174.352173 C247.06724,174.352173 242.198857,162.014665 239.082451,159.708589 C235.962874,157.457423 231.612838,158.134593 229.325171,161.227503 C227.037505,164.320414 227.663514,168.678106 230.729331,171.001957 L230.732533,171.001957 Z" id="Path" fill="#B3143C"></path>
                    <path d="M258.158826,74.832173 C258.158826,78.7108651 251.134902,89.9593924 251.134902,89.9593924 C251.134902,89.9593924 244.110978,78.7108651 244.110978,74.832173 C244.110978,70.952967 247.255696,67.8082492 251.134902,67.8082492 C255.014108,67.8082492 258.158826,70.952967 258.158826,74.832173 Z" id="Path" fill="#000000" opacity="0.25"></path>
                    <path d="M269.769279,96.3203193 C267.661782,99.5776519 255.650968,105.201916 255.650968,105.201916 C255.650968,105.201916 255.868764,91.9419773 257.976262,88.6846447 C259.340243,86.578025 261.724483,85.3591037 264.23086,85.4870368 C266.737237,85.6149699 268.984974,87.0703213 270.127369,89.3048742 C271.269764,91.539427 271.133261,94.2136996 269.769279,96.3203193 L269.769279,96.3203193 Z" id="Path" fill="#000000" opacity="0.25"></path>
                    <path d="M269.276035,133.038177 C265.813718,134.783749 252.62104,133.579464 252.62104,133.579464 C252.62104,133.579464 259.504037,122.241256 262.966354,120.495685 C265.218216,119.267902 267.960265,119.365152 270.119489,120.749377 C272.278714,122.133602 273.511772,124.584696 273.336145,127.143501 C273.160519,129.702306 271.604135,131.961944 269.276035,133.038177 Z" id="Path" fill="#000000" opacity="0.25"></path>
                    <path d="M262.623646,160.730309 C259.504037,163.036385 246.288939,164.080525 246.288939,164.080525 C246.288939,164.080525 251.157322,151.743018 254.273728,149.436941 C256.28774,147.883873 258.983965,147.54084 261.322705,148.540122 C263.661445,149.539404 265.277306,151.724877 265.547193,154.253795 C265.81708,156.782714 264.698827,159.259972 262.623646,160.730309 L262.623646,160.730309 Z" id="Path" fill="#000000" opacity="0.25"></path>
                    <path d="M240.901689,105.960999 C243.684995,108.664233 256.647065,111.463553 256.647065,111.463553 C256.647065,111.463553 253.473007,98.5943666 250.69931,95.8751184 C248.897641,94.124942 246.299122,93.4688913 243.88259,94.1540942 C241.466059,94.8392972 239.598643,96.7616551 238.98378,99.1970345 C238.368917,101.632414 239.10002,104.210823 240.901689,105.960999 Z" id="Path" fill="#000000" opacity="0.25"></path>
                    <path d="M233.547868,138.441442 C237.010185,140.187013 250.202863,138.982729 250.202863,138.982729 C250.202863,138.982729 243.332678,127.644521 239.873563,125.89895 C237.630103,124.744115 234.939591,124.881376 232.825304,126.258527 C230.711016,127.635678 229.497871,130.041084 229.647262,132.5599 C229.796652,135.078717 231.285619,137.323861 233.547868,138.441442 L233.547868,138.441442 Z" id="Path" fill="#000000" opacity="0.25"></path>
                    <path d="M230.732533,171.001957 C233.852142,173.308033 247.06724,174.352173 247.06724,174.352173 C247.06724,174.352173 242.198857,162.014665 239.082451,159.708589 C235.962874,157.457423 231.612838,158.134593 229.325171,161.227503 C227.037505,164.320414 227.663514,168.678106 230.729331,171.001957 L230.732533,171.001957 Z" id="Path" fill="#000000" opacity="0.25"></path>
                    <g id="Group" opacity="0.1" transform="translate(0.320288, 244.700309)" fill="#00FFFF">
                        <path d="M0.278650875,0.883333333 C3.8338517,-0.45 0.714243048,0.636666667 0.0992893924,0.85 C0.156351993,0.873412994 0.217328752,0.884745185 0.278650875,0.883333333 L0.278650875,0.883333333 Z" id="Path"></path>
                    </g>
                    <g id="Group" opacity="0.1" transform="translate(0.000000, 245.340886)" fill="#00FFFF">
                        <polygon id="Path" points="0.655 0.27 0.505 0.225 0.505 0.325"></polygon>
                    </g>
                    <path d="M244.383223,205.468187 C244.383223,205.429753 244.383223,205.388115 244.405644,205.346478 C244.428064,205.30484 244.405644,205.324058 244.405644,205.314449 C244.41214,205.234509 244.41214,205.154173 244.405644,205.074233 C244.405644,205.074233 243.976457,204.251092 243.476807,203.120474 L243.476807,203.120474 C242.794593,201.567075 241.984264,199.430752 241.984264,198.031092 C241.984264,198.031092 234.499125,171.837909 229.438568,168.977734 C229.438568,168.977734 225.27482,161.563059 225.31966,157.389701 C225.325577,156.055974 225.21843,154.724145 224.999372,153.408517 C224.259506,148.805973 223.026395,139.99484 224.153811,138.38379 C225.585499,136.337147 227.971648,127.433131 222.273718,120.710278 L223.273018,120.55654 C223.273018,120.55654 223.218568,120.489279 223.128888,120.357961 L223.273018,120.335541 C223.273018,120.335541 221.069434,117.689959 221.069434,111.844696 C221.101462,108.478465 221.860546,104.080906 224.153811,98.5431205 C224.457017,97.8085925 224.7346,97.0815379 224.98656,96.3619567 C226.053883,95.8314714 227.027532,95.1304445 227.869156,94.2864882 L227.971648,94.180793 L228.090154,94.0686921 C230.194449,91.9547889 231.469197,89.1490628 232.356395,86.3016993 C233.170875,83.6846079 233.691875,80.9850782 233.909794,78.2528527 C234.146807,75.2837796 234.021895,72.301895 233.909794,69.3264161 C233.765664,65.8544902 233.589506,62.2800721 232.199454,59.1124202 C231.651761,57.8729042 230.918301,56.7006488 230.581998,55.3874665 C230.395272,54.4858739 230.26583,53.5733612 230.194449,52.6554068 C229.736437,49.0585685 228.032503,45.5706282 225.239588,43.2613491 C222.446674,40.95207 218.542358,39.9239444 215.048012,40.8912152 C213.049413,41.4453141 211.265407,42.5919464 209.60311,43.8474768 C208.890947,44.384127 208.218708,44.9718012 207.591699,45.6058599 C205.583491,47.5756334 204.068527,50.1571576 205.522636,52.87 C205.629399,53.0664435 205.743635,53.2586165 205.865345,53.4465191 C204.311006,55.926545 203.933296,58.9671009 204.833601,61.7520518 C205.733906,64.5370026 207.820002,66.7810722 210.531946,67.8819156 L210.79138,68.336725 L210.820206,68.336725 C211.579289,69.7395881 212.405633,71.4915654 212.623429,72.8207621 C211.672614,73.4981391 210.81163,74.293473 210.061123,75.1876931 C207.46999,78.2784758 206.051112,80.3763646 205.276014,81.7439959 C204.543057,83.0112925 203.692694,84.206948 202.736128,85.3152111 C201.560669,86.7052626 200.173821,89.418105 200.173821,94.4658496 C200.173821,94.8352489 200.173821,95.2185273 200.173821,95.6156849 C193.969835,102.370566 169.775252,97.4189083 169.775252,97.4189083 C166.860628,96.2850875 163.468774,97.6527188 161.880144,98.4566426 C161.617183,98.585912 161.427578,98.8281051 161.365203,99.1144066 C161.302828,99.4007082 161.3745,99.6998244 161.559856,99.9267662 C164.122163,103.014346 170.425438,101.163079 170.425438,101.163079 C170.425438,101.163079 193.095448,105.125046 194.857034,106.444634 C196.054912,107.344645 198.172019,106.611184 199.401926,106.05068 L199.148898,106.335736 L199.469186,106.178795 L197.726818,121.850505 L197.752441,121.850505 L197.726818,122.071504 C197.726818,122.071504 198.130381,122.036272 198.774161,121.991432 L199.312245,123.384686 L199.267405,123.384686 L199.824706,124.704274 L199.824706,124.704274 L200.282719,125.790051 C198.915088,130.735304 193.402925,151.092832 193.982647,155.740216 C193.982647,155.740216 190.459475,164.102945 191.782266,168.727909 C191.782266,168.727909 186.939506,203.50482 183.858332,205.266406 L184.290721,205.461782 C181.001359,207.341874 173.836509,210.877858 168.891256,209.228373 C168.891256,209.228373 165.810082,210.109166 170.652842,213.19034 C170.652842,213.19034 190.462678,218.471895 193.105057,216.713512 L192.666262,209.100257 L192.890463,209.18033 C192.922492,208.751143 193.210752,205.602709 194.427848,204.167817 C194.427848,204.167817 202.351782,182.596395 201.912987,171.591287 L209.308445,153.719197 C210.109166,155.769042 210.95793,157.508208 211.816303,158.606797 L214.897477,166.530731 L219.961236,173.135077 C219.961236,173.135077 235.809104,198.226468 234.694501,205.711607 L235.066035,205.80449 C233.5831,208.443666 229.893378,213.853337 224.566982,213.853337 C224.566982,213.853337 219.945221,218.696097 228.52895,218.036303 C228.52895,218.036303 239.313059,217.376509 247.236993,212.972544 L244.383223,205.468187 Z" id="Path" fill="url(#linearGradient-1)"></path>
                    <path d="M188.217456,203.434356 C188.217456,203.434356 178.029083,210.227673 171.661751,208.104161 C171.661751,208.104161 168.689475,208.952925 173.359279,211.925201 C173.359279,211.925201 192.46448,217.020989 195.010772,215.320257 L194.370196,204.28312 L188.217456,203.434356 Z" id="Path" fill="#333333"></path>
                    <path d="M236.190247,203.434356 C236.190247,203.434356 232.157817,212.562575 225.364501,212.562575 C225.364501,212.562575 220.906087,217.232379 229.185541,216.595005 C229.185541,216.595005 239.585304,215.954428 247.227384,211.713811 L243.572894,202.188435 L236.190247,203.434356 Z" id="Path" fill="#333333"></path>
                    <polygon id="Path" fill="#FDB797" points="199.891967 122.452647 201.493409 126.593975 211.886766 125.850906 210.823409 118.8462"></polygon>
                    <path d="M202.226869,126.593975 C202.226869,126.593975 195.222163,151.441946 195.859537,156.524923 C195.859537,156.524923 192.46448,164.589784 193.736025,169.048198 C193.736025,169.048198 189.06622,202.585592 186.093944,204.279918 C186.093944,204.279918 194.74173,208.193841 195.00757,208.100958 C197.979846,207.040803 194.796179,208.100958 194.796179,208.100958 C194.796179,208.100958 195.00757,204.705901 196.282317,203.219763 C196.282317,203.219763 203.924398,182.417034 203.498414,171.805881 L213.686787,147.182111 L202.226869,126.593975 Z" id="Path" fill="#0D5176"></path>
                    <path d="M202.226869,126.593975 C202.226869,126.593975 195.222163,151.441946 195.859537,156.524923 C195.859537,156.524923 192.46448,164.589784 193.736025,169.048198 C193.736025,169.048198 189.06622,202.585592 186.093944,204.279918 C186.093944,204.279918 194.74173,208.193841 195.00757,208.100958 C197.979846,207.040803 194.796179,208.100958 194.796179,208.100958 C194.796179,208.100958 195.00757,204.705901 196.282317,203.219763 C196.282317,203.219763 203.924398,182.417034 203.498414,171.805881 L213.686787,147.182111 L202.226869,126.593975 Z" id="Path" fill="#196690" opacity="0.1"></path>
                    <path d="M200.955324,125.319228 L205.625129,136.356365 C205.625129,136.356365 209.234779,154.398208 213.055819,159.279403 L216.028095,166.921483 L220.912492,173.292019 C220.912492,173.292019 236.196653,197.489804 235.133296,204.705901 C235.133296,204.705901 244.684295,207.268208 244.472904,204.065324 C244.472904,204.065324 242.138002,199.60691 242.138002,197.272008 C242.138002,197.272008 234.921905,172.014068 230.037508,169.253182 C230.037508,169.253182 226.027497,162.101143 226.065932,158.078321 C226.068107,156.790413 225.96096,155.504645 225.745644,154.234861 C225.031401,149.795664 223.843131,141.301617 224.932111,139.748218 C226.418249,137.624706 228.964542,127.862317 221.748445,121.280391 L200.955324,125.319228 Z" id="Path" fill="#196690"></path>
                    <path d="M244.466498,204.07173 C244.466498,204.07173 242.131596,199.613316 242.131596,197.278414 C242.131596,197.278414 234.915499,172.020474 230.031102,169.259588 C230.031102,169.259588 226.021092,162.107549 226.059526,158.084727 C226.061701,156.796819 225.954554,155.51105 225.739238,154.241267 C225.024995,149.80207 223.836725,141.308023 224.925705,139.754624 C226.411843,137.631112 228.958136,127.868723 221.742039,121.286797 L220.512132,121.527013 C227.411143,128.102533 224.909691,137.656735 223.44277,139.754624 C221.97585,141.852513 224.723924,156.947703 224.723924,156.947703 C223.663769,160.557353 228.544964,169.259588 228.544964,169.259588 C233.426159,172.020474 240.645458,197.278414 240.645458,197.278414 C240.645458,199.613316 242.98036,204.07173 242.98036,204.07173 C243.050824,205.122276 242.054727,205.54826 240.690299,205.647549 C242.74655,205.766056 244.562585,205.477796 244.466498,204.07173 Z" id="Path" fill="#000000" opacity="0.1"></path>
                    <path d="M210.717714,69.9189495 C210.717714,69.9189495 214.750144,76.0748919 213.68999,77.9838105 L224.089753,75.4215036 C224.089753,75.4215036 221.328867,72.4492276 221.966241,65.2331308 L210.717714,69.9189495 Z" id="Path" fill="#FDB797"></path>
                    <path d="M225.575891,74.3773635 C225.575891,74.3773635 216.873656,72.4556334 211.355088,79.0471679 C208.856838,82.0258496 207.489207,84.0500721 206.739732,85.3696601 C206.033616,86.5914114 205.214353,87.7441697 204.292729,88.81276 C202.912286,90.4430278 201.221164,93.9565911 202.015479,101.121442 L199.453172,124.04448 C199.453172,124.04448 206.883862,123.403903 208.792781,124.04448 C210.701699,124.685057 224.076941,122.558342 224.076941,122.558342 C224.076941,122.558342 218.769763,116.191009 224.925705,101.332832 C231.081648,86.474655 225.575891,74.3773635 225.575891,74.3773635 Z" id="Path" fill="#000000" opacity="0.1"></path>
                    <path d="M225.575891,74.1659732 C225.575891,74.1659732 216.873656,72.244243 211.355088,78.8357775 C208.856838,81.8144593 207.489207,83.8386818 206.739732,85.1582698 C206.033616,86.3800211 205.214353,87.5327794 204.292729,88.6013697 C202.912286,90.2316375 201.221164,93.7452008 202.015479,100.910051 L199.453172,123.83309 C199.453172,123.83309 206.883862,123.192513 208.792781,123.83309 C210.701699,124.473666 224.076941,122.346952 224.076941,122.346952 C224.076941,122.346952 218.769763,115.979619 224.925705,101.121442 C231.081648,86.2632647 225.575891,74.1659732 225.575891,74.1659732 Z" id="Path" fill="#D1103A"></path>
                    <path d="M215.070433,93.7900412 C215.070433,93.7900412 206.790978,105.685551 202.976344,107.809063 L200.852832,108.869217 C200.852832,108.869217 214.221668,93.7900412 215.070433,93.7900412 Z" id="Path" fill="#000000" opacity="0.1"></path>
                    <path d="M207.322657,87.7494027 C207.322657,87.7494027 212.767559,85.6066735 215.102461,92.7106694 C215.296004,93.2978839 215.156266,93.9438648 214.737333,94.3985891 L202.015479,108.126148 C202.015479,108.126148 198.405829,110.24966 196.708301,108.974912 C195.010772,107.700165 173.147889,103.879125 173.147889,103.879125 C173.147889,103.879125 167.078424,105.663131 164.599392,102.687652 C164.417831,102.471384 164.345743,102.183668 164.403884,101.907341 C164.462025,101.631015 164.643943,101.396744 164.897261,101.271977 C166.082327,100.673038 168.058507,101.01895 170.390206,100.73069 C172.180272,100.516948 173.991439,100.554681 175.77105,100.842791 C183.051205,101.983018 200.202647,103.866313 202.864243,96.8744181 C206.2593,87.9639959 207.322657,87.7494027 207.322657,87.7494027 Z" id="Path" fill="#FDB797"></path>
                    <path d="M207.216962,87.8550978 C207.216962,87.8550978 213.795685,86.7949434 215.281823,93.3736663 L215.281823,92.9476828 C215.281823,92.9476828 213.372904,85.7347889 207.216962,87.8550978 Z" id="Path" fill="#000000" opacity="0.1"></path>
                    <path d="M222.193646,65.6751287 L210.929104,70.3449331 C210.929104,70.3449331 211.438363,71.1200309 212.043708,72.2058084 C213.142297,72.6478064 214.660463,72.3627497 215.915994,72.3627497 C218.478301,72.3627497 220.351988,71.6869413 222.071936,70.0278476 C221.914995,68.7530999 222.023893,67.4335118 222.193646,65.6751287 Z" id="Path" fill="#000000" opacity="0.1"></path>
                    <circle id="Oval" fill="#FDB797" cx="215.387518" cy="62.914243" r="9.55099897"></circle>
                    <path d="M215.403532,61.6234809 C215.61172,62.3601442 214.999969,63.0423584 214.557971,63.6669207 C213.010978,65.8544902 213.296035,68.833172 214.003872,71.4146962 C214.349784,72.6798352 214.868651,74.0250463 215.999269,74.6880433 C216.902482,75.2165191 218.013883,75.1940989 219.025994,75.4599382 C220.848435,75.9371679 222.321761,77.3816684 223.189743,79.043965 C224.057724,80.7062616 224.368404,82.6247889 224.470896,84.5080844 C224.780394,89.9554975 223.470954,95.3726802 220.707508,100.077302 C223.54206,100.560937 226.472698,99.2701751 228.506529,97.2299382 C230.54036,95.1897013 231.763862,92.4864676 232.619032,89.7415963 C233.404705,87.218269 233.907442,84.6154231 234.117981,81.9810093 C234.345386,79.1176313 234.22688,76.2414418 234.117981,73.3716581 C233.980257,70.0246447 233.820113,66.5879506 232.468496,63.5227909 C231.940021,62.3249125 231.235386,61.1974974 230.908692,59.9291555 C230.728354,59.0603513 230.603191,58.181003 230.533955,57.2963852 C230.091957,53.8276622 228.448877,50.4646344 225.755252,48.2354274 C223.061627,46.0062204 219.298239,45.0325438 215.928805,45.9517714 C214.007075,46.4866529 212.283924,47.5916478 210.688888,48.8023378 C208.107364,50.7657055 205.144696,53.9269516 206.967137,57.2899794 C208.552564,60.2334295 212.056519,62.1487539 215.403532,61.6234809 Z" id="Path" fill="#000000" opacity="0.1"></path>
                    <path d="M215.614923,61.4120906 C215.82311,62.1487539 215.211359,62.8309681 214.769361,63.4555304 C213.222369,65.6430999 213.507425,68.6217817 214.215263,71.2033059 C214.561174,72.4684449 215.080041,73.813656 216.210659,74.4766529 C217.113872,75.0051287 218.225273,74.9827085 219.237384,75.2485479 C221.059825,75.7257775 222.533151,77.1702781 223.401133,78.8325747 C224.269114,80.4948713 224.579794,82.4133986 224.682286,84.2966941 C224.991771,89.7479741 223.680024,95.1688222 220.912492,99.8755201 C223.747044,100.359156 226.677683,99.0683934 228.711514,97.0281565 C230.745345,94.9879197 231.968847,92.2846859 232.824016,89.5398146 C233.609689,87.0164873 234.112427,84.4136414 234.322966,81.7792276 C234.550371,78.9158496 234.431864,76.0396601 234.322966,73.1698764 C234.185242,69.822863 234.025098,66.3861689 232.673481,63.3210093 C232.145005,62.1231308 231.440371,60.9957158 231.113677,59.7273738 C230.933339,58.8585696 230.808176,57.9792214 230.738939,57.0946035 C230.296941,53.6258805 228.653862,50.2628527 225.960237,48.0336457 C223.266612,45.8044387 219.503223,44.8307621 216.13379,45.7499897 C214.21206,46.2848713 212.488908,47.3898661 210.893872,48.6005561 C208.312348,50.5639238 205.349681,53.7251699 207.172122,57.0881977 C208.767158,60.0220391 212.264706,61.9373635 215.614923,61.4120906 Z" id="Path" fill="#72351C"></path>
                    <path d="M216.556571,108.869217 C216.556571,108.869217 220.589001,108.869217 222.075139,106.947487" id="Path" fill="#000000" opacity="0.1"></path>
                    <path d="M216.556571,110.355355 C216.556571,110.355355 220.589001,110.355355 222.075139,108.433625" id="Path" fill="#000000" opacity="0.1"></path>
                    <path d="M220.377611,85.9461792 C220.377611,85.9461792 219.737034,91.041967 217.405335,93.3768692" id="Path" fill="#000000" opacity="0.1"></path>
                    <g id="Group" opacity="0.1" transform="translate(128.115345, 212.671473)" fill="url(#linearGradient-2)">
                        <polygon id="Path" points="0.365 0.725 0.365 0.645 0.245 0.685"></polygon>
                    </g>
                    <g id="Group" opacity="0.1" transform="translate(126.513903, 212.351184)" fill="url(#linearGradient-3)">
                        <path d="M1.61105046,0.816666667 C1.66032418,0.817903383 1.70933524,0.808835431 1.75518023,0.79 C1.26193615,0.61 -1.2331102,-0.243333333 1.61105046,0.816666667 Z" id="Path"></path>
                    </g>
                    <path d="M159.977631,100.695458 C158.356972,99.904346 154.897858,98.5527291 151.925582,99.6705355 C151.925582,99.6705355 123.419918,105.320422 119.826282,96.1922039 C119.657597,95.7651528 119.49425,95.354116 119.336241,94.9590937 C119.408128,94.360827 119.439161,93.7583568 119.429125,93.1558702 C119.441529,92.4149722 119.389015,91.6744114 119.272183,90.9426777 C119.084229,89.8717826 118.672801,88.8524896 118.064696,87.9511843 C117.357597,86.7658935 116.778875,85.5085966 116.338342,84.2006076 C114.939401,80.3875848 111.97449,77.3562168 108.193409,75.8731102 C108.247858,74.5086818 109.211926,72.494068 110.086313,70.9278579 L110.115139,70.9278579 L110.380978,70.4794542 C114.147086,69.044806 116.648898,65.4484503 116.684253,61.4184964 C116.684039,59.5211962 116.116279,57.6673343 115.053986,56.0953038 C118.067899,55.6116684 117.036571,53.0493615 115.172492,50.8521833 C114.811007,50.4264271 114.424935,50.0221737 114.016251,49.6414933 C112.196175,47.8490032 109.904981,46.6095593 107.408702,46.0670752 C107.110834,46.0030175 106.809763,45.9549743 106.508692,45.9133368 C102.875621,44.6617777 98.868689,45.1520127 95.6445108,47.2425335 C94.8485094,44.9834604 92.7035983,43.4809928 90.3085067,43.5047683 C87.2081153,43.5047683 84.6970546,45.935757 84.6970546,48.9496704 C84.6970546,51.9635839 87.2081153,54.3945726 90.3085067,54.3945726 L90.6287951,54.3945726 C90.4212452,55.2515122 90.3137646,56.1296286 90.3085067,57.0113285 C90.3085067,62.4946653 94.1936045,67.1004119 99.4463337,68.3879712 L99.5392173,68.474449 C99.5392173,68.5641298 99.5232029,68.6570134 99.5103913,68.7466941 L99.5328115,68.7659114 C99.3326851,70.3789298 98.8237666,71.9383081 98.033862,73.3588465 L97.8352832,73.3108033 C93.6939547,76.1933986 92.1950051,80.5653347 92.2302369,85.1198352 C92.2078167,88.9889186 93.2775798,93.0373635 94.7925438,96.3299279 C95.3489527,97.6463878 95.6238804,99.064666 95.5996704,100.493677 C95.5195984,105.426117 93.2487539,111.345046 91.704964,114.810566 C91.0932132,116.184604 82.2244284,137.631112 82.2244284,137.631112 L82.4262101,137.579866 L82.2244284,138.066704 C84.1653759,137.522214 86.2472503,137.772039 88.015242,138.249269 C90.474036,138.894835 93.0891001,138.525541 95.2729763,137.224346 C95.5104246,138.254322 95.9185564,139.237303 96.4804634,140.132564 C97.6302987,141.734006 96.3747683,150.420227 95.6188877,154.965118 C95.3975175,156.264302 95.2903453,157.580377 95.2985994,158.89826 C95.3402369,163.020371 91.0996189,170.342163 91.0996189,170.342163 C85.9365705,173.167106 78.3040989,199.027188 78.3040989,199.027188 C78.3040989,200.410834 77.4777549,202.518332 76.7827291,204.052513 L76.7827291,204.052513 C76.2766735,205.170319 75.8218641,205.974243 75.8218641,205.974243 C75.8152539,206.053109 75.8152539,206.13239 75.8218641,206.211256 C75.8218641,206.211256 75.8218641,206.233677 75.8218641,206.243285 C75.827241,206.284213 75.8347243,206.324837 75.8442842,206.364995 L72.8976313,213.798888 C80.9785067,218.145201 91.9772091,218.798589 91.9772091,218.798589 C100.73069,219.439166 96.0192482,214.670072 96.0192482,214.670072 C90.574346,214.670072 86.8269722,209.327662 85.3120082,206.723718 L85.6931514,206.630834 C84.5721421,199.241782 100.746704,174.467477 100.746704,174.467477 L105.909753,167.946406 L109.051782,160.089732 C109.926169,159.007158 110.79415,157.290412 111.614089,155.266189 L119.153677,172.901267 C118.705273,183.768651 126.786148,205.064624 126.786148,205.064624 C128.038476,206.480299 128.32033,209.590299 128.352358,210.013079 L128.579763,209.93621 L128.131359,217.453378 C130.824985,219.192544 151.028774,213.975046 151.028774,213.975046 C155.967621,210.932307 152.825592,210.064325 152.825592,210.064325 C147.784253,211.69139 140.475273,208.200247 137.131462,206.345778 L137.570257,206.153605 C134.428229,204.414439 129.489382,170.079526 129.489382,170.079526 C130.837796,165.515417 127.247364,157.267992 127.247364,157.267992 C127.657333,154.097137 125.075808,143.447549 122.993934,135.590875 C125.666533,135.568112 128.331163,135.295752 130.9531,134.777343 C130.78655,134.671648 130.632812,134.559547 130.463059,134.457055 C130.783347,134.3962 130.9531,134.357765 130.9531,134.357765 C124.015654,129.921771 120.063296,114.938682 118.356159,106.45104 C118.78316,106.813535 119.243182,107.135229 119.730196,107.411905 L121.972214,108.497683 L121.715984,108.219032 C122.968311,108.773131 125.127055,109.500185 126.350556,108.606581 C128.147374,107.303007 151.265788,103.392286 151.265788,103.392286 C151.265788,103.392286 157.671555,105.221133 160.307528,102.171988 C160.506819,101.947998 160.586192,101.641814 160.520817,101.349214 C160.455442,101.056615 160.253303,100.813328 159.977631,100.695458 Z" id="Path" fill="url(#linearGradient-4)"></path>
                    <circle id="Oval" fill="#FFC533" cx="103.206519" cy="59.198898" r="11.4631205"></circle>
                    <path d="M111.803059,70.5563234 C111.803059,70.5563234 107.770628,76.7122657 108.830783,78.6211843 L98.4310196,76.0588774 C98.4310196,76.0588774 101.191905,73.0866014 100.554531,65.8705046 L111.803059,70.5563234 Z" id="Path" fill="#FDB797"></path>
                    <path d="M100.339938,66.3125026 L111.588465,70.9823069 C111.588465,70.9823069 111.079207,71.7574047 110.473862,72.8431823 C109.375273,73.2851802 107.857106,73.0001236 106.601576,73.0001236 C104.039269,73.0001236 102.165582,72.3243151 100.445633,70.6652214 C100.605778,69.3904737 100.484068,68.0708857 100.339938,66.3125026 Z" id="Path" fill="#000000" opacity="0.1"></path>
                    <circle id="Oval" fill="#FDB797" cx="107.133254" cy="63.5516169" r="9.55099897"></circle>
                    <circle id="Oval" fill="#FFC533" cx="91.7433986" cy="51.3454274" r="5.30717817"></circle>
                    <path d="M113.916962,58.430206 C111.527611,58.3885685 108.811565,57.9081359 107.021153,59.4871576 C105.74,60.6209784 105.394089,62.4530278 104.958496,64.1121215 C104.31792,66.603965 102.850999,69.3424305 100.301504,69.713965 C98.7449022,69.9413697 97.1786921,69.1662719 96.0736972,68.0452626 C94.9687024,66.9242533 94.2544593,65.4829557 93.5786509,64.070484 C92.9028424,62.6580124 92.2430484,61.1878888 92.2974974,59.6216787 C92.364758,57.7608033 93.4505355,56.0985067 94.5587333,54.6091658 C95.2271588,53.6739167 95.9716912,52.7954755 96.7847374,51.9828012 C99.3229188,49.5370162 102.776291,48.2774397 106.293096,48.5147402 C109.809901,48.7520406 113.062756,50.4641276 115.249361,53.228723 C117.238352,55.6404943 118.228043,58.5038723 113.916962,58.430206 Z" id="Path" fill="#000000" opacity="0.1"></path>
                    <path d="M113.705572,58.2188157 C111.31622,58.1771782 108.600175,57.6967456 106.809763,59.2757673 C105.52861,60.4095881 105.182698,62.2416375 104.747106,63.9007312 C104.106529,66.3925747 102.639609,69.1310402 100.090113,69.5025747 C98.5335118,69.7299794 96.9673018,68.9548816 95.8623069,67.8338723 C94.757312,66.712863 94.043069,65.2715654 93.3672606,63.8590937 C92.6914521,62.446622 92.0316581,60.9764985 92.0861071,59.4102884 C92.1533677,57.549413 93.2391452,55.8871164 94.3473429,54.3977755 C95.0157684,53.4625264 95.7603009,52.5840852 96.5733471,51.7714109 C99.1115285,49.3256259 102.5649,48.0660494 106.081706,48.3033499 C109.598511,48.5406503 112.851366,50.2527372 115.037971,53.0173326 C117.023759,55.429104 118.016653,58.292482 113.705572,58.2188157 Z" id="Path" fill="#FFC533"></path>
                    <path d="M134.303316,204.07173 C134.303316,204.07173 144.491689,210.865046 150.859022,208.741535 C150.859022,208.741535 153.831298,209.590299 149.161493,212.562575 C149.161493,212.562575 130.056292,217.658363 127.51,215.957631 L128.150577,204.920494 L134.303316,204.07173 Z" id="Path" fill="#333333"></path>
                    <path d="M86.3305252,204.07173 C86.3305252,204.07173 90.3629557,213.199949 97.1562719,213.199949 C97.1562719,213.199949 101.614686,217.869753 93.3352317,217.232379 C93.3352317,217.232379 82.9354686,216.591802 75.2933883,212.351184 L78.9478785,202.825808 L86.3305252,204.07173 Z" id="Path" fill="#333333"></path>
                    <path d="M120.293903,127.231349 C120.293903,127.231349 127.29861,152.066509 126.661236,157.159094 C126.661236,157.159094 130.056292,165.223955 128.784748,169.682369 C128.784748,169.682369 133.454552,203.219763 136.426828,204.914089 C136.426828,204.914089 127.779042,208.828012 127.513203,208.735129 C124.540927,207.674974 127.724593,208.735129 127.724593,208.735129 C127.724593,208.735129 127.513203,205.340072 126.238455,203.853934 C126.238455,203.853934 118.596375,183.051205 119.022358,172.440051 L108.833986,147.816282 L120.293903,127.231349 Z" id="Path" fill="#3AD29F"></path>
                    <path d="M120.293903,127.231349 C120.293903,127.231349 127.29861,152.066509 126.661236,157.159094 C126.661236,157.159094 130.056292,165.223955 128.784748,169.682369 C128.784748,169.682369 133.454552,203.219763 136.426828,204.914089 C136.426828,204.914089 127.779042,208.828012 127.513203,208.735129 C124.540927,207.674974 127.724593,208.735129 127.724593,208.735129 C127.724593,208.735129 127.513203,205.340072 126.238455,203.853934 C126.238455,203.853934 118.596375,183.051205 119.022358,172.440051 L108.833986,147.816282 L120.293903,127.231349 Z" id="Path" fill="#000000" opacity="0.1"></path>
                    <path d="M121.568651,125.956601 L116.898847,136.993738 C116.898847,136.993738 113.289197,155.035582 109.468157,159.916777 L106.495881,167.558857 L101.614686,173.926189 C101.614686,173.926189 86.3305252,198.123975 87.3938826,205.340072 C87.3938826,205.340072 77.8428836,207.902379 78.0542739,204.699495 C78.0542739,204.699495 80.3891761,200.241081 80.3891761,197.906179 C80.3891761,197.906179 87.6052729,172.648239 92.4896704,169.887353 C92.4896704,169.887353 96.4996807,162.735314 96.4612461,158.712492 C96.4590711,157.424584 96.5662185,156.138816 96.7815345,154.869032 C97.4957775,150.429835 98.6840474,141.935788 97.5950669,140.382389 C96.1089289,138.258877 93.5626365,128.496488 100.778733,121.914562 L121.568651,125.956601 Z" id="Path" fill="#3AD29F"></path>
                    <path d="M78.0638826,204.705901 C78.0638826,204.705901 80.3987848,200.247487 80.3987848,197.912585 C80.3987848,197.912585 87.6148816,172.654645 92.4992791,169.893759 C92.4992791,169.893759 96.5092894,162.74172 96.4708548,158.718898 C96.4686797,157.43099 96.5758271,156.145221 96.7911432,154.875438 C97.5053862,150.436241 98.693656,141.942194 97.6046756,140.388795 C96.1185376,138.265283 93.5722451,128.502894 100.788342,121.920968 L102.018249,122.161184 C95.0968177,128.739907 97.6014727,138.310124 99.0683934,140.391998 C100.535314,142.473872 97.78724,157.585077 97.78724,157.585077 C98.8473944,161.194727 93.9661998,169.896962 93.9661998,169.896962 C89.0850051,172.657848 81.8657055,197.915788 81.8657055,197.915788 C81.8657055,200.25069 79.5308033,204.709104 79.5308033,204.709104 C79.4603399,205.75965 80.4564367,206.185633 81.8208651,206.284923 C79.7742225,206.403429 77.9581874,206.11517 78.0638826,204.705901 Z" id="Path" fill="#000000" opacity="0.1"></path>
                    <path d="M98.8634089,75.5336045 L106.752111,77.474552 C111.225541,78.5805316 114.839037,81.8688129 116.360762,86.2184243 C116.775235,87.49318 117.321617,88.7211982 117.99103,89.8825232 C118.567769,90.7686831 118.9559,91.7640876 119.131256,92.8067559 C119.451545,94.8854274 119.425922,98.2516581 117.247961,102.069495 C117.247961,102.069495 120.838393,129.028167 130.161988,135.184109 C130.161988,135.184109 121.062595,137.278795 113.087415,134.687662 C107.741802,132.951699 101.877322,133.681957 97.2971988,136.96171 L97.09862,137.105839 C94.9503301,138.711055 92.1849369,139.24336 89.5942636,138.55034 C87.9223584,138.085922 85.952585,137.842503 84.1173326,138.374181 C84.1173326,138.374181 92.5056849,117.430525 93.0854068,116.085314 C95.0391658,111.540422 98.2420494,102.67484 96.0000309,97.6335015 C92.8836251,90.6159835 91.7433986,80.2162204 98.8634089,75.5336045 Z" id="Path" fill="#000000" opacity="0.1"></path>
                    <path d="M98.8634089,75.1204325 L106.752111,77.06138 C111.225541,78.1673596 114.839037,81.4556409 116.360762,85.8052523 C116.775235,87.0800081 117.321617,88.3080262 117.99103,89.4693512 C118.567769,90.3555111 118.9559,91.3509156 119.131256,92.3935839 C119.451545,94.4722554 119.425922,97.8384861 117.247961,101.656323 C117.247961,101.656323 120.838393,128.614995 130.161988,134.770937 C130.161988,134.770937 121.062595,136.865623 113.087415,134.27449 C107.741802,132.538527 101.877322,133.268785 97.2971988,136.548538 L97.09862,136.692667 C94.9487314,138.294559 92.1834772,138.823298 89.5942636,138.127559 C87.9223584,137.663141 85.952585,137.419722 84.1173326,137.951401 C84.1173326,137.951401 92.5056849,117.007745 93.0854068,115.662533 C95.0391658,111.114439 98.2420494,102.248857 96.0000309,97.1947065 C92.8836251,90.19 91.7433986,80.2162204 98.8634089,75.1204325 Z" id="Path" fill="#535461"></path>
                    <path d="M107.453543,94.4306179 C107.453543,94.4306179 115.732997,106.316519 119.554037,108.440031 L121.677549,109.500185 C121.677549,109.500185 108.302307,94.4306179 107.453543,94.4306179 Z" id="Path" fill="#000000" opacity="0.1"></path>
                    <path d="M115.198115,88.3867765 C115.198115,88.3867765 109.753213,86.2440474 107.418311,93.3480433 C107.224768,93.9352578 107.364506,94.5812387 107.78344,95.0359629 L120.505294,108.766725 C120.505294,108.766725 124.114943,110.890237 125.812472,109.615489 C127.51,108.340742 149.372884,104.519701 149.372884,104.519701 C149.372884,104.519701 155.400711,106.290896 157.895757,103.357055 C158.083166,103.140019 158.161469,102.849415 158.108474,102.567603 C158.055478,102.28579 157.876959,102.043482 157.623512,101.909351 C156.307127,101.246354 153.898558,101.268774 151.307425,101.047775 C150.411289,100.970395 149.508864,101.011316 148.623409,101.169485 C143.08242,102.15277 122.583965,105.208321 119.656529,97.5149949 C116.261473,88.5981668 115.198115,88.3867765 115.198115,88.3867765 Z" id="Path" fill="#FDB797"></path>
                    <path d="M115.307013,88.4924717 C115.307013,88.4924717 108.72829,87.4323172 107.242152,94.0110402 L107.242152,93.5850566 C107.242152,93.5850566 109.151071,86.3689598 115.307013,88.4924717 Z" id="Path" fill="#000000" opacity="0.1"></path>
                    <path d="M157.796468,202.688084 C157.796468,202.688084 152.748723,185.552657 158.757333,172.939701 C161.303419,167.666834 162.070998,161.710512 160.944902,155.964418 C160.388157,153.240276 159.583003,150.57287 158.539537,147.995644" id="Path" stroke="#535461" stroke-width="2"></path>
                    <path d="M162.258084,140.017261 C162.258084,142.118352 158.456262,148.207034 158.456262,148.207034 C158.456262,148.207034 154.654439,142.121555 154.654439,140.017261 C154.654439,138.658428 155.379367,137.402815 156.556151,136.723398 C157.732934,136.043982 159.182792,136.043982 160.359575,136.723398 C161.536359,137.402815 162.261287,138.658428 162.261287,140.017261 L162.258084,140.017261 Z" id="Path" fill="#B3143C"></path>
                    <path d="M168.542142,151.650134 C167.401916,153.41172 160.900062,156.454459 160.900062,156.454459 C160.900062,156.454459 161.018568,149.276797 162.158795,147.512008 C163.300622,145.749296 165.655217,145.245969 167.41793,146.387796 C169.180643,147.529623 169.68397,149.884218 168.542142,151.646931 L168.542142,151.650134 Z" id="Path" fill="#B3143C"></path>
                    <path d="M168.266694,171.530433 C166.393007,172.491298 159.240968,171.821895 159.240968,171.821895 C159.240968,171.821895 162.965922,165.68517 164.842812,164.737116 C166.055748,164.125499 167.502843,164.207435 168.638988,164.95206 C169.775133,165.696685 170.427721,166.990874 170.350929,168.347117 C170.274137,169.70336 169.479631,170.915612 168.266694,171.52723 L168.266694,171.530433 Z" id="Path" fill="#B3143C"></path>
                    <path d="M164.673059,186.526334 C162.985139,187.775458 155.826694,188.339166 155.826694,188.339166 C155.826694,188.339166 158.462667,181.661153 160.150587,180.412029 C161.242802,179.604167 162.68304,179.440362 163.928777,179.982317 C165.174513,180.524273 166.036491,181.689653 166.190013,183.03947 C166.343534,184.389287 165.765274,185.718472 164.673059,186.526334 Z" id="Path" fill="#B3143C"></path>
                    <path d="M152.915273,156.867631 C154.420628,158.331349 161.441349,159.846313 161.441349,159.846313 C161.441349,159.846313 159.721401,152.873635 158.216045,151.41312 C157.254563,150.409458 155.822017,150.010465 154.480134,150.372594 C153.138251,150.734723 152.100929,151.80025 151.774921,153.151363 C151.448913,154.502476 151.886184,155.923805 152.915273,156.858023 L152.915273,156.867631 Z" id="Path" fill="#B3143C"></path>
                    <path d="M148.934089,174.454665 C150.807775,175.41553 157.959815,174.746128 157.959815,174.746128 C157.959815,174.746128 154.231658,168.609403 152.370783,167.664552 C151.157846,167.052934 149.710752,167.13487 148.574607,167.879496 C147.438462,168.624121 146.785873,169.918309 146.862665,171.274552 C146.939457,172.630795 147.733963,173.843048 148.9469,174.454665 L148.934089,174.454665 Z" id="Path" fill="#B3143C"></path>
                    <path d="M147.409516,192.083337 C149.097436,193.332461 156.255881,193.896169 156.255881,193.896169 C156.255881,193.896169 153.619907,187.218157 151.931988,185.969032 C150.243569,184.720186 147.862445,185.07653 146.613599,186.764949 C145.364753,188.453367 145.721097,190.834491 147.409516,192.083337 Z" id="Path" fill="#B3143C"></path>
                    <path d="M162.258084,140.017261 C162.258084,142.118352 158.456262,148.207034 158.456262,148.207034 C158.456262,148.207034 154.654439,142.121555 154.654439,140.017261 C154.654439,138.658428 155.379367,137.402815 156.556151,136.723398 C157.732934,136.043982 159.182792,136.043982 160.359575,136.723398 C161.536359,137.402815 162.261287,138.658428 162.261287,140.017261 L162.258084,140.017261 Z" id="Path" fill="#FFFFFF" opacity="0.5"></path>
                    <path d="M168.542142,151.650134 C167.401916,153.41172 160.900062,156.454459 160.900062,156.454459 C160.900062,156.454459 161.018568,149.276797 162.158795,147.512008 C163.300622,145.749296 165.655217,145.245969 167.41793,146.387796 C169.180643,147.529623 169.68397,149.884218 168.542142,151.646931 L168.542142,151.650134 Z" id="Path" fill="#FFFFFF" opacity="0.5"></path>
                    <path d="M168.266694,171.530433 C166.393007,172.491298 159.240968,171.821895 159.240968,171.821895 C159.240968,171.821895 162.965922,165.68517 164.842812,164.737116 C166.055748,164.125499 167.502843,164.207435 168.638988,164.95206 C169.775133,165.696685 170.427721,166.990874 170.350929,168.347117 C170.274137,169.70336 169.479631,170.915612 168.266694,171.52723 L168.266694,171.530433 Z" id="Path" fill="#FFFFFF" opacity="0.5"></path>
                    <path d="M164.673059,186.526334 C162.985139,187.775458 155.826694,188.339166 155.826694,188.339166 C155.826694,188.339166 158.462667,181.661153 160.150587,180.412029 C161.242802,179.604167 162.68304,179.440362 163.928777,179.982317 C165.174513,180.524273 166.036491,181.689653 166.190013,183.03947 C166.343534,184.389287 165.765274,185.718472 164.673059,186.526334 Z" id="Path" fill="#FFFFFF" opacity="0.5"></path>
                    <path d="M152.915273,156.867631 C154.420628,158.331349 161.441349,159.846313 161.441349,159.846313 C161.441349,159.846313 159.721401,152.873635 158.216045,151.41312 C157.254563,150.409458 155.822017,150.010465 154.480134,150.372594 C153.138251,150.734723 152.100929,151.80025 151.774921,153.151363 C151.448913,154.502476 151.886184,155.923805 152.915273,156.858023 L152.915273,156.867631 Z" id="Path" fill="#FFFFFF" opacity="0.5"></path>
                    <path d="M148.934089,174.454665 C150.807775,175.41553 157.959815,174.746128 157.959815,174.746128 C157.959815,174.746128 154.231658,168.609403 152.370783,167.664552 C151.157846,167.052934 149.710752,167.13487 148.574607,167.879496 C147.438462,168.624121 146.785873,169.918309 146.862665,171.274552 C146.939457,172.630795 147.733963,173.843048 148.9469,174.454665 L148.934089,174.454665 Z" id="Path" fill="#FFFFFF" opacity="0.5"></path>
                    <path d="M147.409516,192.083337 C149.097436,193.332461 156.255881,193.896169 156.255881,193.896169 C156.255881,193.896169 153.619907,187.218157 151.931988,185.969032 C150.243569,184.720186 147.862445,185.07653 146.613599,186.764949 C145.364753,188.453367 145.721097,190.834491 147.409516,192.083337 Z" id="Path" fill="#FFFFFF" opacity="0.5"></path>
                </g>
                <circle id="Oval" fill="#B3143C" fill-rule="nonzero" cx="142" cy="88" r="14"></circle>
                <circle id="Oval-Copy" fill="#196690" fill-rule="nonzero" cx="179" cy="87" r="14"></circle>
                <path d="M149.22125,95 L147.53375,95 C147.338749,95 147.181251,94.9512505 147.06125,94.85375 C146.941249,94.7562495 146.85125,94.6325007 146.79125,94.4825 L145.28375,90.59 L138.05,90.59 L136.5425,94.4825 C136.49,94.6175007 136.400001,94.7374995 136.2725,94.8425 C136.144999,94.9475005 135.987501,95 135.8,95 L134.1125,95 L140.55875,78.87875 L142.775,78.87875 L149.22125,95 Z M138.6575,89.015 L144.67625,89.015 L142.145,82.45625 C141.979999,82.051248 141.818751,81.545003 141.66125,80.9375 C141.57875,81.2450015 141.498125,81.5281237 141.419375,81.786875 C141.340625,82.0456263 141.26375,82.272499 141.18875,82.4675 L138.6575,89.015 Z" id="A" fill="#FFFFFF"></path>
                <path d="M172.9575,94 L172.9575,77.87875 L178.09875,77.87875 C179.088755,77.87875 179.941871,77.976249 180.658125,78.17125 C181.374379,78.366251 181.963123,78.6437482 182.424375,79.00375 C182.885627,79.3637518 183.226874,79.8043724 183.448125,80.325625 C183.669376,80.8468776 183.78,81.4337467 183.78,82.08625 C183.78,82.483752 183.718126,82.8662482 183.594375,83.23375 C183.470624,83.6012518 183.283126,83.9424984 183.031875,84.2575 C182.780624,84.5725016 182.465627,84.8537488 182.086875,85.10125 C181.708123,85.3487512 181.263753,85.5512492 180.75375,85.70875 C181.931256,85.9412512 182.819997,86.3649969 183.42,86.98 C184.020003,87.5950031 184.32,88.404995 184.32,89.41 C184.32,90.0925034 184.194376,90.7149972 183.943125,91.2775 C183.691874,91.8400028 183.324377,92.323748 182.840625,92.72875 C182.356873,93.133752 181.764379,93.4468739 181.063125,93.668125 C180.361871,93.8893761 179.561254,94 178.66125,94 L172.9575,94 Z M175.14,86.65375 L175.14,92.2675 L178.6275,92.2675 C179.250003,92.2675 179.784373,92.1962507 180.230625,92.05375 C180.676877,91.9112493 181.044374,91.7106263 181.333125,91.451875 C181.621876,91.1931237 181.833749,90.8856268 181.96875,90.529375 C182.103751,90.1731232 182.17125,89.7812521 182.17125,89.35375 C182.17125,88.5212458 181.876878,87.8631274 181.288125,87.379375 C180.699372,86.8956226 179.808756,86.65375 178.61625,86.65375 L175.14,86.65375 Z M175.14,85.10125 L178.02,85.10125 C178.635003,85.10125 179.167498,85.0337507 179.6175,84.89875 C180.067502,84.7637493 180.440624,84.5762512 180.736875,84.33625 C181.033126,84.0962488 181.252499,83.8056267 181.395,83.464375 C181.537501,83.1231233 181.60875,82.750002 181.60875,82.345 C181.60875,81.3999953 181.323753,80.7062522 180.75375,80.26375 C180.183747,79.8212478 179.298756,79.6 178.09875,79.6 L175.14,79.6 L175.14,85.10125 Z" id="B" fill="#FFFFFF"></path>
            </g>
        </g>
    </g>
</svg>