<?xml version="1.0" encoding="UTF-8"?>
<svg width="268px" height="193px" viewBox="0 0 268 193" version="1.1" xmlns="http://www.w3.org/2000/svg" xmlns:xlink="http://www.w3.org/1999/xlink">
    <!-- Generator: Sketch 55 (78076) - https://sketchapp.com -->
    <title>undraw_fatherhood_7i19</title>
    <desc>Created with Sketch.</desc>
    <defs>
        <linearGradient x1="50.0018299%" y1="100.05197%" x2="50.0018299%" y2="0.0067543714%" id="linearGradient-1">
            <stop stop-color="#808080" stop-opacity="0.25" offset="0%"></stop>
            <stop stop-color="#808080" stop-opacity="0.12" offset="54%"></stop>
            <stop stop-color="#808080" stop-opacity="0.1" offset="100%"></stop>
        </linearGradient>
    </defs>
    <g id="principal" stroke="none" stroke-width="1" fill="none" fill-rule="evenodd">
        <g id="Intro-simulador-version-terceros-5" transform="translate(-54.000000, -170.000000)">
            <g id="undraw_fatherhood_7i19" transform="translate(54.000000, 170.000000)">
                <path d="M4,105 C8.22940203,123.013365 17.1827733,138.584488 31.330318,146.141847 C60.7387925,161.82707 127.057083,153.735622 176.550345,144.442473 C201.560351,139.762182 224.261983,126.831046 241,107.731137 L4,105 Z" id="Path" fill="#6BA4B8" fill-rule="nonzero" opacity="0.380087426"></path>
                <path d="M262.275307,19.4925822 L235.057654,19.4925822 C233.759035,19.4925822 232.706295,18.4513306 232.706295,17.1668817 C232.706295,15.8824327 233.759035,14.8411811 235.057654,14.8411811 L239.762814,14.8411811 C238.493014,14.8007141 237.484814,13.7708683 237.484814,12.514273 C237.484814,11.2576777 238.493014,10.2278319 239.762814,10.1873649 L236.403032,10.1873649 C235.133232,10.1468979 234.125033,9.1170521 234.125033,7.86045679 C234.125033,6.60386148 235.133232,5.57401565 236.403032,5.53354869 L250.608854,5.53354869 C247.456617,4.08451406 243.772089,3.05328442 239.525969,2.51231149 C200.790809,-2.40716106 186.961008,0.848336733 182.082488,4.20285189 C176.063692,8.33260057 169.349012,11.3707432 162.17285,12.8342681 C138.273471,17.7102697 93.5781155,23.5788599 53.0678377,10.9553532 C32.933563,4.6762032 17.9708131,15.2831367 9,33 L267,33 C266.663045,27.851097 265.654622,23.0982634 263.803812,18.9347039 C263.37859,19.2962044 262.836015,19.494235 262.275307,19.4925822 Z" id="Path" fill="#6BA4B8" fill-rule="nonzero" opacity="0.380087426"></path>
                <path d="M0.587687238,67 C-0.460897927,77.4451413 -0.105117863,87.9815314 1.64574736,98.3343419 L241.34535,107 C248.018377,99.4136891 253.620862,90.9689866 258,81.8962179 L0.587687238,67 Z M95.3918338,89.3515885 L90.6721999,89.3515885 C91.9748144,89.3515885 93.0307922,90.3952188 93.0307922,91.6826021 C93.0307922,92.9699854 91.9748144,94.0136157 90.6721999,94.0136157 L63.3708197,94.0136157 C62.5281758,94.0136158 61.7495407,93.5693271 61.3282187,92.848109 C60.9068967,92.1268908 60.9068967,91.2383134 61.3282187,90.5170953 C61.7495407,89.7958771 62.5281758,89.3515884 63.3708197,89.3515885 L68.0904537,89.3515885 C66.8167476,89.3110291 65.8054463,88.2788306 65.8054463,87.0193646 C65.8054463,85.7598986 66.8167476,84.7277001 68.0904537,84.6871407 L64.7203362,84.6871407 C63.4466302,84.6465813 62.4353288,83.6143828 62.4353288,82.3549168 C62.4353288,81.0954508 63.4466302,80.0632523 64.7203362,80.0226929 L92.0217164,80.0226929 C93.2954224,80.0632523 94.3067238,81.0954508 94.3067238,82.3549168 C94.3067238,83.6143828 93.2954224,84.6465813 92.0217164,84.6871407 L95.3918338,84.6871407 C96.6655398,84.7277001 97.6768412,85.7598986 97.6768412,87.0193646 C97.6768412,88.2788306 96.6655398,89.3110291 95.3918338,89.3515885 L95.3918338,89.3515885 Z" id="Shape" fill="#6BA4B8" fill-rule="nonzero" opacity="0.380087426"></path>
                <path d="M267.878902,34 L7.23746039,40.2935524 C4.06628381,48.3807673 1.97574664,57.5185212 1,67 L263.312408,67 C265.024502,61.4330316 266.291213,55.7406761 267.100745,49.9759407 C267.881342,44.4061468 268.193581,39.0178977 267.878902,34 Z M53.9147402,54.6138047 L49.2140808,54.6138047 C50.053337,54.6138047 50.8288417,55.0580974 51.2484699,55.7793222 C51.668098,56.5005469 51.668098,57.3891325 51.2484699,58.1103573 C50.8288417,58.831582 50.053337,59.2758748 49.2140808,59.2758747 L22.0224613,59.2758747 C20.7250837,59.2758746 19.6733514,58.2322347 19.6733514,56.9448397 C19.6733514,55.6574447 20.7250837,54.6138048 22.0224613,54.6138047 L26.7231208,54.6138047 C25.4545354,54.573245 24.4472998,53.541037 24.4472998,52.2815595 C24.4472998,51.0220819 25.4545354,49.9898739 26.7231208,49.9493142 L23.3665523,49.9493142 C22.097967,49.9087544 21.0907314,48.8765464 21.0907314,47.6170689 C21.0907314,46.3575913 22.097967,45.3253834 23.3665523,45.2848236 L50.5581718,45.2848236 C51.8267571,45.3253834 52.8339927,46.3575913 52.8339927,47.6170689 C52.8339927,48.8765464 51.8267571,49.9087544 50.5581718,49.9493142 L53.9147402,49.9493142 C55.1833255,49.9898739 56.1905611,51.0220819 56.1905611,52.2815595 C56.1905611,53.541037 55.1833255,54.573245 53.9147402,54.6138047 L53.9147402,54.6138047 Z" id="Shape" fill="#6BA4B8" fill-rule="nonzero" opacity="0.380087426"></path>
                <ellipse id="Oval" fill="#BF0C3F" fill-rule="nonzero" opacity="0.1" cx="137" cy="188.5" rx="85" ry="4.5"></ellipse>
                <path d="M207.856474,155 C207.856474,155 209.255492,156.766585 207.209205,159.422604 C205.162917,162.078624 203.475941,164.336609 204.151241,166 C204.151241,166 207.237236,161.04914 209.757507,160.980344 C212.277779,160.911548 210.618834,157.977887 207.856474,155 Z" id="Path" fill="#BF0C3F" fill-rule="nonzero"></path>
                <path d="M207.814783,155 C207.936866,155.170829 208.033985,155.356685 208.103469,155.552455 C210.583078,158.329464 211.902786,160.919866 209.521125,160.983705 C207.299272,161.045089 204.636656,164.826339 204,165.781473 C204.020235,165.855694 204.045198,165.928671 204.074749,166 C204.074749,166 207.196169,161.052455 209.745372,160.983705 C212.294575,160.914955 210.608853,157.975893 207.814783,155 Z" id="Path" fill="#000000" fill-rule="nonzero" opacity="0.1"></path>
                <path d="M210.15485,157.522485 C210.15485,158.338667 210.08657,159 210.001219,159 C209.915869,159 209.84515,158.338667 209.84515,157.522485 C209.84515,156.706304 209.932939,157.0902 210.018289,157.0902 C210.10364,157.0902 210.15485,156.706304 210.15485,157.522485 Z" id="Path" fill="#FFD037" fill-rule="nonzero"></path>
                <path d="M211.523931,157.505465 C210.742953,157.857193 210.063995,158.069393 210.00419,157.979281 C209.944385,157.889168 210.531878,157.531627 211.312856,157.179899 C212.093834,156.828171 211.784257,157.083973 211.844062,157.179899 C211.903866,157.275824 212.304909,157.153737 211.523931,157.505465 Z" id="Path" fill="#FFD037" fill-rule="nonzero"></path>
                <path d="M201.143609,155 C201.143609,155 199.744316,156.766585 201.791004,159.422604 C203.837693,162.078624 205.522451,164.336609 204.849567,166 C204.849567,166 201.760419,161.04914 199.242202,160.980344 C196.723985,160.911548 198.378158,157.977887 201.143609,155 Z" id="Path" fill="#BF0C3F" fill-rule="nonzero"></path>
                <path d="M201.184922,155 C201.061614,155.170148 200.9644,155.356171 200.896213,155.552455 C198.416413,158.329464 197.094024,160.919866 199.478448,160.983705 C201.697895,161.045089 204.376183,164.826339 205,165.781473 C204.979378,165.855134 204.9536,165.926339 204.925245,166 C204.925245,166 201.801006,161.052455 199.254183,160.983705 C196.707361,160.914955 198.388057,157.975893 201.184922,155 Z" id="Path" fill="#000000" fill-rule="nonzero" opacity="0.1"></path>
                <path d="M197.84515,157.522485 C197.84515,158.338667 197.91343,159 197.998781,159 C198.084131,159 198.15485,158.338667 198.15485,157.522485 C198.15485,156.706304 198.067061,157.0902 197.981711,157.0902 C197.89636,157.0902 197.84515,156.706304 197.84515,157.522485 Z" id="Path" fill="#FFD037" fill-rule="nonzero"></path>
                <path d="M197.47399,157.505465 C198.254232,157.857193 198.936066,158.069393 198.995814,157.979281 C199.055562,157.889168 198.468623,157.531627 197.688381,157.179899 C196.908138,156.828171 197.217424,157.083973 197.157675,157.179899 C197.097927,157.275824 196.693747,157.153737 197.47399,157.505465 Z" id="Path" fill="#FFD037" fill-rule="nonzero"></path>
                <path d="M199,165.008804 C199,165.008804 202.76157,164.892869 203.897877,164.098238 C205.034185,163.303607 209.68472,162.349566 209.966348,163.615179 C210.247975,164.880793 215.618498,169.964985 211.372038,169.998799 C207.125579,170.032613 201.505264,169.34667 200.373855,168.667973 C199.242445,167.989275 199,165.008804 199,165.008804 Z" id="Path" fill="#A8A8A8" fill-rule="nonzero"></path>
                <path d="M211.448191,169.4714 C207.199979,169.511951 201.577346,168.689358 200.44547,167.875455 C199.583088,167.252717 199.240095,165.025344 199.124947,164 L199,164 C199,164 199.244995,167.585809 200.369521,168.402609 C201.494048,169.219409 207.124031,170.039105 211.372242,169.998555 C212.597217,169.998555 213.023508,169.4714 212.999008,168.706737 C212.827512,169.175962 212.359572,169.462711 211.448191,169.4714 Z" id="Path" fill="#000000" fill-rule="nonzero" opacity="0.2"></path>
                <path d="M66.036713,166.486915 C66.4827403,166.12427 66.808087,165.635589 66.9699302,165.085193 C67.0890126,164.530798 66.8508478,163.874725 66.3186223,163.659261 C65.72078,163.431693 65.0816234,163.845673 64.5955728,164.262074 C64.1095221,164.678475 63.5578547,165.1554 62.9235586,165.065825 C63.5871286,164.467274 63.8861432,163.565395 63.7109606,162.690887 C63.6833068,162.51277 63.607721,162.345445 63.4922378,162.2067 C63.1592931,161.853243 62.5590206,162.003341 62.160459,162.281749 C60.8967274,163.167811 60.5443406,164.879413 60.5370499,166.416708 C60.4106767,165.862313 60.5176079,165.28371 60.5151776,164.722052 C60.5127474,164.160395 60.3547809,163.511584 59.8735908,163.213809 C59.5749725,163.054937 59.2398859,162.976493 58.9014895,162.986241 C58.3328102,162.964453 57.7009444,163.022555 57.3121038,163.434114 C56.8260532,163.949774 56.9548566,164.811627 57.3752904,165.370863 C57.7957242,165.930099 58.4324506,166.29324 59.0181416,166.683011 C59.4894971,166.962163 59.8915591,167.34365 60.1943842,167.799062 C60.2287907,167.863653 60.2580439,167.930839 60.2818733,168 L63.8421943,168 C64.6388547,167.596538 65.3770563,167.08756 66.036713,166.486915 L66.036713,166.486915 Z" id="Path" fill="#BF0C3F" fill-rule="nonzero"></path>
                <path d="M36.7645574,170 C36.7645574,170 32.2837627,158.408497 37.6027146,149.878259 C39.8669648,146.310334 40.5513696,142.278603 39.5531032,138.388798 C39.0606149,136.546503 38.3469287,134.742641 37.4210608,133" id="Path" stroke="#535461" stroke-width="2"></path>
                <path d="M40,127.482778 C40,128.89776 37.0014171,133 37.0014171,133 C37.0014171,133 34,128.888085 34,127.482778 C34.0498287,126.099408 35.3782695,125 37,125 C38.6217305,125 39.9501713,126.099408 40,127.482778 L40,127.482778 Z" id="Path" fill="#BF0C3F" fill-rule="nonzero"></path>
                <path d="M45.5931485,136.821802 C44.7599586,137.98722 40,140 40,140 C40,140 40.0867359,135.252878 40.9225541,134.089833 C41.7765481,132.968063 43.4642124,132.664081 44.7294225,133.40414 C45.9946326,134.144199 46.3775404,135.65932 45.5931485,136.821802 L45.5931485,136.821802 Z" id="Path" fill="#BF0C3F" fill-rule="nonzero"></path>
                <path d="M44.6478644,148.603967 C43.4746908,149.335716 39,148.829335 39,148.829335 C39,148.829335 41.3328624,144.074357 42.506036,143.342608 C43.267617,142.8433 44.1877295,142.892657 44.9115699,143.471645 C45.6354104,144.050633 46.0498907,145.068795 45.9951837,146.13352 C45.9404768,147.198245 45.4251295,148.143187 44.6478644,148.603967 L44.6478644,148.603967 Z" id="Path" fill="#BF0C3F" fill-rule="nonzero"></path>
                <path d="M42.8835881,160.774009 C41.7608572,161.627299 37,162 37,162 C37,162 38.7533714,157.441765 39.8665472,156.588475 C40.5884897,155.981048 41.5776553,155.831083 42.4398494,156.19834 C43.3020436,156.565598 43.8971307,157.390388 43.9879613,158.344021 C44.0787919,159.297654 43.650603,160.225132 42.874033,160.756845 L42.8835881,160.774009 Z" id="Path" fill="#BF0C3F" fill-rule="nonzero"></path>
                <path d="M32.8839554,139.821854 C33.9638638,140.889933 39,142 39,142 C39,142 37.7654508,136.906288 36.6803876,135.835585 C35.986777,135.113781 34.9632104,134.831877 34.0068227,135.099249 C33.0504349,135.366622 32.3117529,136.141189 32.0773787,137.122426 C31.8430046,138.103663 32.1498267,139.137131 32.8788007,139.821854 L32.8839554,139.821854 Z" id="Path" fill="#BF0C3F" fill-rule="nonzero"></path>
                <path d="M31.282298,151.600437 C32.4699783,152.338708 37,151.827813 37,151.827813 C37,151.827813 34.638291,147.03326 33.4506108,146.292182 C32.2675253,145.593213 30.8486127,146.190282 30.2582725,147.635497 C29.6679323,149.080711 30.1230854,150.843025 31.282298,151.600437 L31.282298,151.600437 Z" id="Path" fill="#BF0C3F" fill-rule="nonzero"></path>
                <path d="M29.9459763,162.742186 C31.1016998,163.615109 36,164 36,164 C36,164 34.1975632,159.323449 33.0492167,158.448011 C31.8941852,157.659803 30.3378161,157.937283 29.5115005,159.07874 C28.685185,160.220196 28.879572,161.824131 29.9533533,162.724577 L29.9459763,162.742186 Z" id="Path" fill="#BF0C3F" fill-rule="nonzero"></path>
                <path d="M40,127.482778 C40,128.89776 37.0014171,133 37.0014171,133 C37.0014171,133 34,128.888085 34,127.482778 C34.0498287,126.099408 35.3782695,125 37,125 C38.6217305,125 39.9501713,126.099408 40,127.482778 L40,127.482778 Z" id="Path" fill="#BF0C3F" fill-rule="nonzero"></path>
                <path d="M45.5931485,136.821802 C44.7599586,137.98722 40,140 40,140 C40,140 40.0867359,135.252878 40.9225541,134.089833 C41.7765481,132.968063 43.4642124,132.664081 44.7294225,133.40414 C45.9946326,134.144199 46.3775404,135.65932 45.5931485,136.821802 L45.5931485,136.821802 Z" id="Path" fill="#BF0C3F" fill-rule="nonzero"></path>
                <path d="M44.6478644,148.603967 C43.4746908,149.335716 39,148.829335 39,148.829335 C39,148.829335 41.3328624,144.074357 42.506036,143.342608 C43.267617,142.8433 44.1877295,142.892657 44.9115699,143.471645 C45.6354104,144.050633 46.0498907,145.068795 45.9951837,146.13352 C45.9404768,147.198245 45.4251295,148.143187 44.6478644,148.603967 L44.6478644,148.603967 Z" id="Path" fill="#BF0C3F" fill-rule="nonzero"></path>
                <path d="M42.8835881,160.774009 C41.7608572,161.627299 37,162 37,162 C37,162 38.7533714,157.441765 39.8665472,156.588475 C40.5884897,155.981048 41.5776553,155.831083 42.4398494,156.19834 C43.3020436,156.565598 43.8971307,157.390388 43.9879613,158.344021 C44.0787919,159.297654 43.650603,160.225132 42.874033,160.756845 L42.8835881,160.774009 Z" id="Path" fill="#BF0C3F" fill-rule="nonzero"></path>
                <path d="M32.8839554,139.821854 C33.9638638,140.889933 39,142 39,142 C39,142 37.7654508,136.906288 36.6803876,135.835585 C35.986777,135.113781 34.9632104,134.831877 34.0068227,135.099249 C33.0504349,135.366622 32.3117529,136.141189 32.0773787,137.122426 C31.8430046,138.103663 32.1498267,139.137131 32.8788007,139.821854 L32.8839554,139.821854 Z" id="Path" fill="#BF0C3F" fill-rule="nonzero"></path>
                <path d="M31.282298,151.600437 C32.4699783,152.338708 37,151.827813 37,151.827813 C37,151.827813 34.638291,147.03326 33.4506108,146.292182 C32.2675253,145.593213 30.8486127,146.190282 30.2582725,147.635497 C29.6679323,149.080711 30.1230854,150.843025 31.282298,151.600437 L31.282298,151.600437 Z" id="Path" fill="#BF0C3F" fill-rule="nonzero"></path>
                <path d="M29.9459763,162.742186 C31.1016998,163.615109 36,164 36,164 C36,164 34.1975632,159.323449 33.0492167,158.448011 C31.8941852,157.659803 30.3378161,157.937283 29.5115005,159.07874 C28.685185,160.220196 28.879572,161.824131 29.9533533,162.724577 L29.9459763,162.742186 Z" id="Path" fill="#BF0C3F" fill-rule="nonzero"></path>
                <path d="M30,169.959689 C30,169.959689 34.0771677,169.153175 35.1631422,168.078615 C36.2491168,167.004055 41.1407654,165.122981 41.6837527,166.465589 C42.22674,167.808196 49.0188441,172.376856 44.3986891,173.18337 C39.7785342,173.989883 33.5317989,174.25793 32.1743307,173.719464 C30.8168624,173.180998 30,169.959689 30,169.959689 Z" id="Path" fill="#A8A8A8" fill-rule="nonzero"></path>
                <path d="M44.4069888,173.380784 C39.7888451,174.371703 33.5392272,174.701038 32.1816501,174.042368 C31.1479862,173.538165 30.4287085,171.127899 30.1452846,170 L30,170.037888 C30,170.037888 30.8169279,173.998651 32.174505,174.657321 C33.5320821,175.315991 39.7816999,174.986656 44.3998436,173.998651 C45.7336036,173.707204 46.1146778,173.039791 45.971775,172.19168 C45.8645978,172.742515 45.4001636,173.168027 44.4069888,173.380784 Z" id="Path" fill="#000000" fill-rule="nonzero" opacity="0.2"></path>
                <path d="M176.107683,63.2788752 C177.411744,61.8135665 176.901776,59.530127 176.901776,59.530127 C176.901776,59.530127 170.748165,43.7585209 170.06578,43.5851261 C169.383395,43.4117312 167.67136,39.4334181 167.67136,39.4334181 C167.67136,39.4334181 151.262541,23.7472883 150.672435,23.7472883 C150.08233,23.7472883 144.091423,19.4148589 143.324043,19.3293826 C142.556663,19.2439062 141.357025,18.809198 140.07482,18.108292 C138.792615,17.407386 125.80058,18.1962105 125.288184,18.8018714 C124.775788,19.4075323 122.374083,19.8422406 122.374083,19.8422406 C122.374083,19.8422406 117.502677,20.1011118 116.817863,20.9680861 C116.133049,21.8350604 111.094082,22.2941905 111.094082,22.2941905 C111.094082,22.2941905 108.614667,23.2222194 111.980454,25.6863802 L111.980454,25.6863802 C110.902237,25.8573329 109.641888,25.9892106 108.362112,26.0820135 C108.041561,26.1039932 107.716153,26.1259728 107.390745,26.1430681 L107.1989,26.1430681 C106.983979,25.4895748 106.564916,24.9233744 106.004118,24.5287863 C105.637436,24.3285606 105.258674,24.1515649 104.870047,23.998833 C104.268256,23.6770046 103.704529,23.2878602 103.189582,22.8387969 C100.698121,20.8462911 98.0395721,19.0747747 95.243799,17.5441481 C94.8122117,17.2724045 94.3307828,17.0905341 93.8280314,17.0093104 C92.7862401,16.909181 91.8561561,17.6442775 90.8362206,17.8909378 C89.0440483,18.3232039 87.2373055,17.2242224 85.3941363,17.2071271 C83.0919963,17.1851475 80.9962717,18.9874772 80.2944589,21.2098621 C80.0346182,22.0328771 79.9180542,22.9486951 79.3570897,23.6007574 C78.6285643,24.4530787 77.3973565,24.5776299 76.3992768,25.0831614 C74.9251766,25.8563888 74.0005838,27.389484 74,29.0614746 L74,29.081012 C74,29.2104476 74,29.3398832 74.0218558,29.4693188 C74.1359914,30.5145724 74.6168181,31.4792339 74.9689387,32.4707595 C75.3307941,33.4867102 75.5593734,34.5457765 75.6488957,35.6211732 C75.650101,35.6325379 75.650101,35.6439992 75.6488957,35.6553638 C75.6634662,35.833643 75.6756083,36.0119222 75.6828935,36.1926436 C75.6828935,36.2292764 75.6828935,36.2683513 75.6828935,36.3074262 C75.6828935,36.4783788 75.6828935,36.6517737 75.6828935,36.8251686 C75.6828935,37.7580818 75.6513241,38.6983215 75.6537525,39.6312347 L75.6537525,39.6800784 L75.6537525,40.1025757 C75.6537525,40.1367663 75.6537525,40.1709568 75.6537525,40.2051473 C75.6537525,40.3296986 75.6537525,40.4493654 75.668323,40.5812432 L75.668323,40.713121 C75.668323,40.8279035 75.685322,40.9451282 75.697464,41.0599107 C75.697464,41.1087544 75.697464,41.1600402 75.7096061,41.2088838 C75.7096061,41.3212241 75.7363187,41.4311223 75.7508892,41.5410204 L75.772745,41.69732 C75.7897439,41.8072182 75.8091713,41.9171163 75.8285986,42.0270145 L75.8577396,42.1784297 C75.8820238,42.2956544 75.9111648,42.4226478 75.9403058,42.5301038 C75.9524479,42.5716209 75.9597332,42.6106958 75.9694468,42.6522129 C76.0131584,42.815025 76.0617267,42.9713245 76.1151519,43.1211117 C76.8527474,45.2012954 78.5382147,46.7991195 80.6465795,47.4169084 C81.0379101,47.5254183 81.442793,47.5764183 81.8486463,47.5683236 C82.5771717,47.5512283 83.2741276,47.3241055 83.706386,46.8234583 C83.8132363,46.9455674 83.9176583,47.0676765 84.0293655,47.1897855 C87.2438425,50.7054669 91.9618212,52.4227256 96.6691184,51.7904262 C101.376416,51.1581269 105.480853,48.2558129 107.665156,44.01495 C107.92014,43.9587798 108.172695,43.907494 108.427679,43.8586504 C108.869651,43.7756162 109.314052,43.6974664 109.760881,43.6144323 L110.190711,43.5460512 L110.190711,43.5460512 L110.3607,43.516745 C112.546276,43.1699553 114.668713,42.9379481 116.188903,42.7840907 L110.180997,43.5338403 C110.180997,43.5338403 108.723946,50.5697643 108.30383,51.3488201 C107.883714,52.1278759 109.760881,53.4271163 109.760881,53.4271163 C109.760881,53.4271163 111.385492,55.4199361 111.385492,56.0280392 C111.385492,56.6361423 113.265087,58.3676488 113.777484,59.3200995 C113.842655,59.4409072 113.924404,59.5518931 114.020325,59.6497939 C113.640983,59.7973991 113.290712,60.0115643 112.985819,60.2823188 C111.798323,61.4130487 112.194155,63.3960999 111.65019,64.9493271 C111.310211,65.9261996 110.598685,66.7174663 109.913871,67.4867533 C109.667942,67.7378851 109.461577,68.0253033 109.30191,68.3390746 C109.212878,68.5469726 109.157931,68.768005 109.139206,68.9935791 L109.139206,68.9935791 C109.127031,69.1185494 109.122165,69.244131 109.124635,69.369675 L109.124635,69.4136343 C109.124635,69.5113215 109.124635,69.6065666 109.144062,69.7018117 C109.144062,69.7433288 109.144062,69.7848458 109.144062,69.8263629 C109.263055,70.8471947 109.60789,71.8338359 109.712312,72.8546676 C109.816734,73.8754993 109.690456,74.9036576 109.8993,75.8976253 C109.971676,76.2442095 110.084149,76.5810812 110.234422,76.9013618 L106.756928,80.8088517 C106.756928,80.8088517 106.735072,81.001784 106.727787,81.3192676 C103.828256,83.7394691 99.3453966,88.306348 100.945724,92.3335047 C101.12057,92.7747255 101.282465,93.1972228 101.431408,93.6009968 C100.253625,94.3556307 99.865078,95.2519112 101.630538,96.1457496 C101.909806,96.2873961 102.17936,96.4095051 102.444058,96.5194033 C103.349858,99.1935917 103.704407,99.9384569 105.222168,97.9676167 C105.384872,97.7527048 105.574288,97.4791805 105.780704,97.1836766 C107.917711,97.1397173 109.153776,96.1457496 109.153776,96.1457496 C109.153776,96.1457496 115.134969,95.7989598 116.681871,96.7538527 C117.456537,97.2422889 119.27785,97.3399762 120.890319,97.3277652 C120.868687,99.0747717 120.949775,100.821536 121.133161,102.558917 C121.133161,102.558917 120.875749,109.924536 121.560563,111.48509 C122.245377,113.045643 122.62421,115.732043 122.62421,115.732043 C122.62421,115.732043 121.475568,118.330523 122.157953,119.717682 C122.840339,121.104841 121.560563,123.097661 121.560563,123.097661 L121.560563,128.209146 L122.046246,128.174956 C122.00982,128.519303 121.96368,128.880746 121.90297,129.225094 C121.762121,130.023687 121.550849,130.739246 121.225441,130.971253 C120.370638,131.589125 120.285643,134.878743 120.285643,134.878743 C120.285643,134.878743 118.918444,138.866825 119.173428,139.560404 C119.428412,140.253984 117.551245,141.638701 117.978646,142.67907 C118.406048,143.719439 119.280278,150.30356 120.040373,152.203576 C120.800468,154.103593 118.491043,153.590735 118.491043,153.590735 L119.173428,158.528826 C119.173428,158.528826 119.858242,163.554835 119.345846,163.901624 C118.83345,164.248414 115.88535,166.761419 117.913079,168.234054 C118.070926,168.348836 118.231202,168.45385 118.398763,168.55398 C118.407786,168.782046 118.402107,169.010462 118.381764,169.23779 C118.342909,169.626097 118.245772,169.936254 118.029643,169.970445 C117.427396,170.058363 116.230186,170.664024 115.97763,170.405153 C115.725075,170.146282 114.277738,171.059657 112.820687,171.357604 L112.619128,171.389352 L110.727391,170.900916 C107.990357,169.852308 104.985851,169.740717 102.17936,170.583432 C102.17936,170.583432 100.807304,170.798344 100.141918,171.828944 C99.8043676,172.356456 99.6562341,173.098879 99.9573579,174.134364 C100.870443,177.196859 107.094478,178.251881 107.094478,178.251881 C107.094478,178.251881 109.250913,178.6988 111.842035,179.289808 C111.75704,179.289808 111.669617,179.289808 111.582194,179.289808 C110.099702,179.279502 108.855459,180.41082 108.71673,181.895208 C108.578001,183.379595 109.590843,184.724255 111.049281,184.991929 C112.50772,185.259602 113.927573,184.361425 114.31917,182.923448 C114.710767,181.48547 113.944103,179.985081 112.553561,179.468087 C115.467662,180.142129 118.69503,180.962702 120.006375,181.541499 C120.982725,181.911231 121.983156,182.213143 123.000614,182.445106 C123.103617,183.688989 123.997546,184.721685 125.208434,184.995651 C126.419322,185.269617 127.666907,184.721443 128.289708,183.641775 C132.255315,184.474559 136.075216,185.180349 136.075216,185.180349 L142.454669,185.285363 L142.498381,185.285363 C140.933031,185.296127 139.671224,186.578168 139.676576,188.152417 C139.681928,189.726666 140.952422,191 142.517808,191 C144.083195,191 145.353689,189.726666 145.359041,188.152417 C145.364392,186.578168 144.102585,185.296127 142.537236,185.285363 L152.195053,185.444105 C151.878395,186.523724 152.219198,187.689807 153.066379,188.425413 C153.91356,189.161018 155.110374,189.330045 156.126257,188.857561 C157.142139,188.385077 157.789132,187.358502 157.780414,186.232929 C157.779938,185.997379 157.750575,185.762787 157.692991,185.534465 L166.211881,185.67367 L167.911773,183.79319 C168.006767,183.610471 168.063779,183.410216 168.079334,183.204624 C168.130331,182.586753 167.812208,181.648955 165.636346,181.25088 C165.47607,181.221573 161.036923,181.292397 157.115028,181.358335 L157.115028,179.809993 C157.115028,179.809993 157.005749,178.957671 156.937753,177.953935 C156.918326,177.658431 156.901327,177.350716 156.894042,177.047886 C157.115922,177.200755 157.362385,177.313944 157.622567,177.382465 C159.247179,177.643778 161.469181,172.87664 161.469181,172.87664 C161.469181,172.87664 161.469181,170.190241 161.981577,168.024026 C162.493973,165.857811 163.438628,158.577669 163.438628,158.577669 L165.493069,149.827334 C165.493069,149.827334 166.343015,131.97499 165.915614,131.28141 C165.488212,130.587831 166.430438,129.374067 166.430438,129.374067 C166.430438,129.374067 167.112824,125.561822 166.088032,124.262582 C165.063239,122.963341 166.685422,121.661659 166.685422,121.661659 C166.685422,121.661659 167.112824,117.155834 165.915614,115.424328 C164.718404,113.692821 166.476578,112.479057 166.476578,112.479057 L166.90398,105.460229 C168.698581,103.640804 170.320764,92.8097301 170.408187,90.4701205 C170.430629,89.153139 170.721564,87.8547981 171.26299,86.6554335 C171.26299,86.6554335 172.457771,84.8360085 172.630189,83.6222444 C172.802607,82.4084804 174.08724,79.8979181 174.08724,79.8979181 L176.309242,71.5774068 C177.205328,68.2218499 176.977057,65.7405938 176.382095,63.9724546 C176.294672,63.7233521 176.202392,63.4962293 176.107683,63.2788752 Z M135.963509,63.7673114 C137.330708,64.6342857 136.903306,64.8931569 137.330708,65.4133415 C137.758109,65.9335261 137.415703,65.8456076 137.073296,66.7125819 C136.730889,67.5795562 136.988301,67.320685 137.15829,68.2731357 C137.32828,69.2255863 137.245713,69.2255863 137.245713,69.2255863 L137.673115,69.2866409 L137.078152,73.3089133 C136.106785,73.9463226 135.662385,75.1674132 135.460826,76.4275787 C134.88772,75.6753869 134.309756,74.8938889 133.792503,74.1661189 C133.969778,73.7680434 133.93578,73.2942602 133.940637,72.847341 C133.960064,71.3820323 134.50403,69.9826625 134.754157,68.5393334 C135.009623,67.0710896 134.962509,65.5657247 134.615737,64.1165433 C134.491244,63.5712553 134.299535,63.0437338 134.045059,62.5462208 C134.598738,62.9174323 135.300551,63.357025 135.963509,63.7770801 L135.963509,63.7673114 Z M137.500697,148.689278 C137.500697,148.689278 138.581343,147.956623 139.63042,147.289908 C139.98254,149.861525 140.315233,152.535713 140.55079,154.953472 C140.174385,154.113362 139.912116,153.541892 139.912116,153.541892 C139.526637,153.075915 139.295685,152.500387 139.251586,151.895862 C139.210303,150.95318 137.500697,148.699046 137.500697,148.699046 L137.500697,148.689278 Z M131.092103,59.6180456 C131.334944,59.6522361 131.67978,59.9623931 132.005188,60.3336047 C131.704064,60.0893865 131.400512,59.8451684 131.089674,59.6156034 L131.092103,59.6180456 Z M115.450664,91.6790002 C114.464726,91.9915994 111.123223,91.9451979 109.136777,91.8279732 C109.879873,90.5507125 110.618112,89.2514721 111.273785,88.0865516 C111.660469,88.1872366 112.054194,88.2582638 112.451568,88.2990214 L118.957299,82.5525691 C121.404519,83.415745 124.073699,83.3984826 126.509678,82.5037255 L126.686953,82.7821341 C126.762234,82.9042432 126.842371,83.0263522 126.929794,83.1631144 L126.76709,82.8969166 C126.76709,82.8969166 124.256106,84.4013002 124.51109,85.0948797 C124.766074,85.7884591 124.171112,87.5199656 123.231314,89.3760233 C122.988472,89.8400377 122.7772,90.2991678 122.573213,90.76074 C120.445919,90.9609989 116.436601,91.366401 115.450664,91.6790002 Z M127.794311,171.743468 L127.757885,171.057215 C128.170716,170.966855 128.442699,170.88382 128.442699,170.88382 C128.357354,169.865446 128.214658,168.852757 128.015297,167.850631 C127.757885,166.810262 127.891448,167.157052 128.891956,166.385323 C129.892464,165.613593 128.891956,156.860816 128.891956,156.860816 C128.891956,156.860816 129.37764,156.252713 130.147448,157.813267 C130.917257,159.37382 131.689493,160.326271 131.946906,160.411747 C132.204318,160.497224 130.919685,162.233615 131.946906,163.879645 C132.584705,164.944405 133.018765,166.119781 133.226682,167.3451 C133.226682,167.3451 132.544296,170.097438 133.569089,171.320971 C133.707514,171.463551 133.872563,171.57725 134.054772,171.65555 C134.054772,171.882672 134.054772,172.124448 134.054772,172.351571 C134.054772,172.808259 134.054772,173.199008 134.032917,173.282042 C134.012707,173.401094 133.931955,173.500795 133.820112,173.544787 C133.708269,173.588778 133.581684,173.570627 133.486523,173.496954 C133.221825,173.323559 131.543788,173.711866 131.657924,174.798637 C131.26111,175.270184 130.811279,175.693881 130.317437,176.061244 L127.988585,175.455584 L127.794311,171.743468 Z" id="Shape" fill="url(#linearGradient-1)" fill-rule="nonzero"></path>
                <path d="M107.034765,82.9463869 C107.034765,82.9463869 106.177544,89.3449883 112.976453,90 L114,85.5710956 L111.858228,82.9463869 L108.790147,82 L107.034765,82.9463869 Z" id="Path" fill="#BF0C3F" fill-rule="nonzero"></path>
                <path d="M108.7972,82 L107.034902,82.9443311 C107.034902,82.9443311 106.174304,89.3447974 113,90" id="Path" fill="#000000" fill-rule="nonzero" opacity="0.1"></path>
                <path d="M119,45.5413996 C119,45.5413996 114.739398,45.8091484 110.466915,46.5345041 C110.029687,46.6107719 109.594835,46.6919079 109.162359,46.777912 C108.910477,46.8265936 108.663348,46.8777093 108.416219,46.9336931 C106.177799,47.4059046 104.138983,48.0192926 102.950862,48.8030663 C101.525117,49.7401869 101.049869,47.2160464 101.00472,43.7085377 C100.98571,42.4744593 101.026106,41.1211111 101.090265,39.7531583 C101.173433,38.1710066 101.294622,36.5693822 101.422939,35.1284071 C101.705711,31.9348947 102.031257,29.4521335 102.031257,29.4521335 C102.031257,29.4521335 103.523536,29.4521335 105.517203,29.3815452 L106.158789,29.3572044 C106.78374,29.3328636 107.446712,29.2987865 108.114436,29.2574071 C108.430476,29.2403686 108.748892,29.2208959 109.064933,29.1965551 C110.329093,29.1040601 111.57662,28.9726198 112.629295,28.8022342 C113.750882,28.6172442 114.660982,28.3835726 115.155241,28.0720104 C117.41267,26.6943213 119,45.5413996 119,45.5413996 Z" id="Path" fill="#F8BDC5" fill-rule="nonzero"></path>
                <path d="M138.380275,69.5398928 L137.565141,75.1821181 C137.565141,75.1821181 135.788149,77.4895284 136.021044,78.7719628 C136.25394,80.0543971 138.30342,136.729252 138.30342,136.729252 C138.30342,136.729252 142.320866,160.663169 140.925822,163.740525 C139.530779,166.817882 140.844309,174 140.844309,174 L149.205255,172.632556 L152,68 L138.380275,69.5398928 Z" id="Path" fill="#474847" fill-rule="nonzero"></path>
                <path d="M138.380275,69.5398928 L137.565141,75.1821181 C137.565141,75.1821181 135.788149,77.4895284 136.021044,78.7719628 C136.25394,80.0543971 138.30342,136.729252 138.30342,136.729252 C138.30342,136.729252 142.320866,160.663169 140.925822,163.740525 C139.530779,166.817882 140.844309,174 140.844309,174 L149.205255,172.632556 L152,68 L138.380275,69.5398928 Z" id="Path" fill="#9B9B9B" fill-rule="nonzero" opacity="0.1"></path>
                <path d="M157.973027,175.512581 C157.69758,175.96678 157.719326,177.30294 157.796644,178.439638 C157.864298,179.417727 157.973027,180.249223 157.973027,180.249223 L157.973027,186 C157.973027,186 148.704479,182.786966 143.601462,179.403308 C141.49695,178.007068 140.897733,176.709358 141.01371,175.67119 C141.182844,174.193243 142.801699,173.229573 143.601462,173.229573 C144.364981,173.229573 146.77635,171.905428 148.752803,170.735086 C150.30642,169.81948 151.596672,169 151.596672,169 C151.596672,169 158.482845,174.666667 157.973027,175.512581 Z" id="Path" fill="#474847" fill-rule="nonzero"></path>
                <path d="M157.973748,175.899185 C157.705664,176.380346 157.726829,177.795825 157.80208,179 C155.796156,177.98167 149.585551,171.459267 149,170.838086 C150.512086,169.868126 151.767846,169 151.767846,169 C151.767846,169 158.469938,175.003055 157.973748,175.899185 Z" id="Path" fill="#000000" fill-rule="nonzero" opacity="0.1"></path>
                <path d="M176.398666,73.1528325 L174.154673,81.395488 C174.154673,81.395488 172.859779,83.8836527 172.683203,85.0862657 C172.506626,86.2888786 171.302473,88.0915783 171.302473,88.0915783 C170.757481,89.2781148 170.46364,90.5634581 170.439211,91.8677342 C170.353375,94.1875819 168.722495,104.918402 166.900324,106.721102 L166.468693,113.675766 C166.468693,113.675766 164.751977,114.87594 165.951226,116.603019 C167.150474,118.330098 166.728653,122.784401 166.728653,122.784401 C166.728653,122.784401 165.087963,124.072392 166.12535,125.360383 C167.162736,126.648374 166.468693,130.426969 166.468693,130.426969 C166.468693,130.426969 165.519595,131.627143 165.951226,132.315047 C166.382857,133.002952 165.524499,150.688436 165.524499,150.688436 L163.449726,159.357983 C163.449726,159.357983 162.498175,166.571221 161.978256,168.717873 C161.458336,170.864525 161.460789,173.523446 161.460789,173.523446 C161.460789,173.523446 159.216796,178.24608 157.576107,177.989946 C155.935417,177.733811 147.996834,170.003425 147.996834,170.003425 L149.117604,143.902089 C149.117604,143.902089 150.066703,132.827316 149.4634,130.680665 C148.860097,128.534013 148.428466,117.803192 148.428466,117.803192 L147.219408,100.89099 L135.148445,82.0028929 C135.148445,82.0028929 134.272921,76.5069761 136.77442,74.8774721 L137.228124,71.9087501 L137.637683,69.210799 L151.967352,67.6642338 L173.889809,62 C173.889809,62 175.579547,63.0367353 176.464882,65.6249145 C177.070637,67.3690692 177.30362,69.8279614 176.398666,73.1528325 Z" id="Path" fill="#828383" fill-rule="nonzero"></path>
                <path d="M139,82.2884854 C139,82.2884854 128.916137,94.9030582 129.343482,91.3783981 C129.610572,89.1646643 128.231416,86.4611882 127.158199,84.7520373 C126.524468,83.7354511 126,83.0700942 126,83.0700942 C126,83.0700942 132.152783,71.5809392 132.495144,73.1466303 C132.604408,73.6413194 133.315839,74.776631 134.231229,76.0727165 C136.161561,78.7885598 139,82.2884854 139,82.2884854 Z" id="Path" fill="#FFC1C8" fill-rule="nonzero"></path>
                <path d="M158,185.720335 L158,187 C158,187 148.716723,183.578176 143.605596,179.974639 C141.49774,178.487669 140.89757,177.105631 141.013732,176 C143.8355,177.510005 149.084569,180.389251 150.674536,181.686831 C152.024919,182.787343 155.514618,184.530247 158,185.720335 Z" id="Path" fill="#FFFFFF" fill-rule="nonzero" opacity="0.3"></path>
                <circle id="Oval" fill="#474463" fill-rule="nonzero" cx="155" cy="186" r="3"></circle>
                <circle id="Oval" fill="#474463" fill-rule="nonzero" cx="127" cy="182" r="3"></circle>
                <path d="M168.995077,184.475484 C168.978913,184.685898 168.921334,184.890752 168.82583,185.077639 L167.108827,187 L143.11004,186.604442 L136.656564,186.496105 C136.656564,186.496105 123.072622,183.956471 120.425985,182.772317 C117.779349,181.588162 107.374314,179.421412 107.374314,179.421412 C107.374314,179.421412 101.090086,178.338037 100.16781,175.206326 C99.8562969,174.145626 100.01328,173.387263 100.354228,172.848095 C101.023859,171.792434 102.412178,171.57072 102.412178,171.57072 C105.248024,170.710322 108.279914,170.825337 111.046247,171.898252 L151.27316,182.527928 L151.896186,182.691694 C151.896186,182.691694 166.235609,182.417071 166.525047,182.46998 C168.725263,182.883174 169.046587,183.843095 168.995077,184.475484 Z" id="Path" fill="#BF0C3F" fill-rule="nonzero"></path>
                <path d="M168.995079,183.988095 C166.581464,183.683333 162.372355,183.233333 161.288191,183.666667 C161.288191,183.666667 153.632813,182.747619 143.100229,186 L136.656565,185.897619 C136.656565,185.897619 123.072623,183.497619 120.425986,182.378571 C117.779349,181.259524 107.374315,179.211905 107.374315,179.211905 C107.374315,179.211905 101.090086,178.188095 100.16781,175.228571 C99.8562969,174.22619 100.01328,173.509524 100.354228,173 C100.783478,174.214286 101.610092,175.97381 102.929731,176.466667 C105.002398,177.240476 113.521183,178.816667 113.521183,178.816667 L130.382147,182.82381 C130.382147,182.82381 140.117551,184.87381 143.907221,183.538095 C145.459881,182.995238 148.37388,182.511905 151.265802,182.133333 L151.888829,182.288095 C151.888829,182.288095 166.228252,182.028571 166.51769,182.078571 C168.725264,182.483333 169.046589,183.390476 168.995079,183.988095 Z" id="Path" fill="#FFFFFF" fill-rule="nonzero" opacity="0.3"></path>
                <path d="M145.977706,181.80256 C145.957852,182.17721 145.914092,182.54998 145.846728,182.918278 C145.846728,182.918278 136.587765,183.271546 131.767769,182.509097 C130.436555,182.298152 129.684026,181.843224 129.310143,181.299343 C128.970912,180.777084 128.905337,180.106014 129.136299,179.520294 C129.189597,179.354611 129.257369,179.19464 129.33872,179.042493 C129.698315,178.371537 130.250804,177.896277 130.553245,177.959814 C131.391505,178.140261 132.829883,176.305299 132.829883,176.305299 C132.715575,175.184498 134.365899,174.780399 134.623093,174.963387 C134.716412,175.040056 134.840548,175.058945 134.950226,175.013165 C135.059905,174.967385 135.139094,174.863628 135.158912,174.739736 C135.175582,174.655866 135.180345,174.251768 135.180345,173.779049 C135.180345,172.991184 135.158912,172 135.158912,172 L144.465504,173.207212 L144.834624,175.105711 C145.172786,176.798349 145.644307,179.123821 145.846728,179.91931 C145.987446,180.535049 146.031704,181.171397 145.977706,181.80256 L145.977706,181.80256 Z" id="Path" fill="#474847" fill-rule="nonzero"></path>
                <path d="M146,181.640311 C145.97975,182.065725 145.935116,182.489004 145.866409,182.907205 C145.866409,182.907205 136.422775,183.30834 131.506644,182.442581 C130.148878,182.203054 129.38134,181.686485 129,181.06891 C130.260609,180.979449 131.900129,180.930389 132.915416,181.224747 C134.363052,181.651855 143.022146,181.651855 146,181.640311 Z" id="Path" fill="#000000" fill-rule="nonzero" opacity="0.1"></path>
                <path d="M128.996671,178.110926 C129.017613,178.298492 128.938626,178.482915 128.791395,178.590213 C127.60321,179.558986 121.90137,178.506083 121.90137,178.506083 C121.90137,178.506083 110.251359,177.741263 108.510137,176.486957 C108.352974,176.377918 108.221608,176.232264 108.12615,176.061207 C107.401647,174.679432 110.024348,172.359476 110.251359,172.359476 C110.47837,172.359476 113.610639,171.908232 113.820745,171.864893 C115.269751,171.556415 116.718757,170.608038 116.960258,170.878274 C117.201759,171.148511 118.409265,170.518809 118.998527,170.42958 C119.213463,170.396437 119.312479,170.075213 119.348704,169.664759 C119.382669,169.109342 119.364873,168.551745 119.295574,168 L128.600609,170.643729 L128.682719,172.209062 L128.950786,177.420038 L128.984596,178.059938 C128.990437,178.076396 128.994488,178.093502 128.996671,178.110926 L128.996671,178.110926 Z" id="Path" fill="#474847" fill-rule="nonzero"></path>
                <path d="M121.862531,178.494347 C121.862531,178.494347 110.138679,177.714051 108.38642,176.434365 C108.228262,176.323119 108.096064,176.174518 108,176 C110.37442,176.208079 114.333407,176.559212 115.047921,176.754286 C116.075945,177.014385 121.852809,177.394129 121.852809,177.394129 L128.956627,177.394129 L128.990652,178.046977 C129.299302,179.888476 121.862531,178.494347 121.862531,178.494347 Z" id="Path" fill="#000000" fill-rule="nonzero" opacity="0.1"></path>
                <circle id="Oval" fill="#474463" fill-rule="nonzero" cx="112" cy="182" r="3"></circle>
                <circle id="Oval" fill="#474463" fill-rule="nonzero" cx="143" cy="189" r="3"></circle>
                <path d="M114,86.2238684 C114,86.2238684 113.456711,87.1843843 112.639331,88.6107503 C110.681533,92.0013712 107.159945,98.0117991 105.645099,99.9136204 C103.491522,102.617473 103.665276,100.084112 101.337944,94.4218711 C99.6101879,90.2100092 104.928056,85.3906209 107.771756,83.2006448 C108.750655,82.439436 109.435884,82 109.435884,82 L114,86.2238684 Z" id="Path" fill="#F8BDC5" fill-rule="nonzero"></path>
                <path d="M124.980109,93 C124.980109,93 117.717323,93.6301221 116.317478,94.0809412 C114.917633,94.5317602 108.880644,94.2602442 108.360986,94.0809412 C107.841328,93.9016381 97.5078336,96.3350365 102.234487,98.7684348 C106.961141,101.201833 109.942339,98.7684348 109.942339,98.7684348 C109.942339,98.7684348 116.068838,98.4072673 117.65019,99.4011184 C119.231543,100.39497 125,99.8519375 125,99.8519375 L124.980109,93 Z" id="Path" fill="#FFC1C8" fill-rule="nonzero"></path>
                <path d="M110.540281,40.431834 C111.461918,42.7132465 110.885895,44.6998838 109.800412,46.7385402 C107.081583,47.2339609 104.524041,47.9151645 103.100625,48.7994905 C99.0454228,51.3286135 102.109865,29.096607 102.109865,29.096607 C102.109865,29.096607 104.070903,29.096607 106.556762,29 C105.804092,32.3242733 108.656046,35.7748788 110.540281,40.431834 Z" id="Path" fill="#000000" fill-rule="nonzero" opacity="0.1"></path>
                <path d="M109.999988,39.5192679 C109.990585,46.8934578 104.447179,53.0858241 97.1187039,53.9085491 C89.7902291,54.731274 83.0116514,49.9222246 81.3672358,42.7336992 C79.7228202,35.5451739 83.736503,28.2675482 90.6938821,25.8225869 C97.6512613,23.3776256 105.335608,26.5443313 108.550097,33.1811016 C109.507025,35.1568161 110.002787,37.3240294 109.999988,39.5192679 Z" id="Path" fill="#F8BDC5" fill-rule="nonzero"></path>
                <path d="M176,65.5410395 C175.548684,66.1998021 174.872717,66.6702033 174.099525,66.8635677 C170.837834,67.785763 147.844461,73.321318 146.34071,72.9853243 C145.012753,72.6898405 139.313703,71.8677284 138,71.6794766 L138.396724,69.043952 L152.277319,67.533172 L173.512753,62 C173.512753,62 175.142411,63.0127468 176,65.5410395 Z" id="Path" fill="#000000" fill-rule="nonzero" opacity="0.1"></path>
                <path d="M118,45.0991553 C115.324644,45.2617207 112.659197,45.5623921 110.014031,46 C110.051615,45.8779787 110.046661,45.7465664 110,45.6278089 L115.472084,44.9426928 C115.472084,44.9426928 114.672318,31.9041511 111.730488,28.7796424 C112.834259,28.5994735 113.729904,28.3718916 114.216311,28.0684492 C116.437884,26.7432592 118,45.0991553 118,45.0991553 Z" id="Path" fill="#000000" fill-rule="nonzero" opacity="0.1"></path>
                <path d="M111.853751,25.3910117 C111.853751,25.3910117 116.992302,24.9375734 117.687504,24.0840425 C118.382705,23.2305116 123.348075,22.9759072 123.348075,22.9759072 C123.348075,22.9759072 125.784991,22.5491417 126.316906,21.9502152 C126.848822,21.3512886 140.07249,20.5850506 141.378776,21.2688453 C142.685062,21.95264 143.904756,22.3769806 144.689023,22.4642736 C145.473289,22.5515665 151.566815,26.8143715 152.175425,26.8143715 C152.784035,26.8143715 169.493607,42.2627964 169.493607,42.2627964 C169.493607,42.2627964 171.225425,46.1885538 171.932996,46.35829 C172.640568,46.5280263 178.899853,62.0613193 178.899853,62.0613193 C178.899853,62.0613193 179.77071,65.8149156 176.376347,66.7557394 C172.981983,67.6965633 149.033412,73.3269577 147.467354,72.9850603 C145.901295,72.643163 138.49901,71.6198958 138.49901,71.6198958 C138.49901,71.6198958 138.585601,71.6198958 138.412419,70.6814968 C138.239237,69.7430977 137.97699,69.9977021 138.323354,69.1441712 C138.669718,68.2906402 139.021029,68.3755084 138.585601,67.8638748 C138.150172,67.3522412 138.585601,67.095212 137.192724,66.241681 C135.799848,65.3881501 134.223893,64.449751 134.144724,64.1951466 C134.065555,63.9405422 132.838439,62.2310556 132.229828,62.1461874 C131.621218,62.0613193 114.552913,57.3668992 114.552913,57.3668992 L110.547465,56.0866028 C110.547465,56.0866028 108.632569,54.8063064 109.063049,54.0400684 C109.49353,53.2738304 110.975471,46.3413164 110.975471,46.3413164 L117.098686,45.6017512 C117.098686,45.6017512 116.18577,31.1499207 112.75677,28.7251169 C109.32777,26.3003131 111.853751,25.3910117 111.853751,25.3910117 Z" id="Path" fill="#BF0C3F" fill-rule="nonzero"></path>
                <path d="M115,86.4725754 C115,86.4725754 114.389391,87.4896477 113.470727,89 C113.327701,84.3316382 109.796071,83.4264439 108,83.2713404 C109.100196,82.4653106 109.870334,82 109.870334,82 L115,86.4725754 Z" id="Path" fill="#000000" fill-rule="nonzero" opacity="0.1"></path>
                <path d="M110.572567,53 L110.984759,55.3281229 C110.984759,55.3281229 112.606858,57.3131541 112.606858,57.9160154 C112.606858,58.5188767 114.483547,60.2441383 114.997575,61.1925421 C115.511604,62.1409458 117.301005,62.3149424 116.61725,63.9544311 C115.933495,65.5939197 112.010391,78.0996158 112.010391,78.0996158 L108,82.5843158 C108,82.5843158 114.655698,81.9790038 113.630066,90 L122.24974,82.4029673 L129,69.9903961 C129,69.9903961 122.429165,57.398927 122.174576,56.3647503 C121.919986,55.3305736 110.572567,53 110.572567,53 Z" id="Path" fill="#BF0C3F" fill-rule="nonzero"></path>
                <path d="M130,58 C130,58 136,53.5287378 136,53.0319309 C136,52.535124 130,58 130,58 Z" id="Path" fill="#000000" fill-rule="nonzero" opacity="0.1"></path>
                <path d="M139,63 C139,63 142.677843,62.207166 142.984329,60.4275067 C143.290816,58.6478474 139,63 139,63 Z" id="Path" fill="#000000" fill-rule="nonzero" opacity="0.1"></path>
                <path d="M142,66 C142,66 147.212265,63.4760807 146.993289,63.0388426 C146.774312,62.6016044 142,66 142,66 Z" id="Path" fill="#000000" fill-rule="nonzero" opacity="0.1"></path>
                <path d="M164,53 C164,53 161.361567,54.4122818 162.145559,55.7349439 C162.92955,57.057606 164,53 164,53 Z" id="Path" fill="#000000" fill-rule="nonzero" opacity="0.1"></path>
                <path d="M169,53 C169,53 162.805161,58.886949 164.206301,58.9984912 C165.60744,59.1100334 169,53 169,53 Z" id="Path" fill="#000000" fill-rule="nonzero" opacity="0.1"></path>
                <path d="M158,125 C158,125 164.810882,126.422558 164.996464,126.930409 C165.182047,127.438259 158,125 158,125 Z" id="Path" fill="#000000" fill-rule="nonzero" opacity="0.1"></path>
                <path d="M160,130 C160,130 163.89876,132.260942 163.998218,132.919157 C164.097677,133.577372 160,130 160,130 Z" id="Path" fill="#000000" fill-rule="nonzero" opacity="0.1"></path>
                <path d="M159,134 C159,134 159.65569,136.585641 160.749543,136.969404 C161.843396,137.353168 159,134 159,134 Z" id="Path" fill="#000000" fill-rule="nonzero" opacity="0.1"></path>
                <path d="M108.918303,33.3114284 C108.918303,33.3361522 108.918303,33.3633484 108.906097,33.3880722 C108.788915,34.1619274 108.47643,35.0000646 107.758692,35.2571922 C107.325049,35.380733 106.861619,35.3375861 106.457486,35.1360456 C105.236842,34.5945941 104.150469,33.2941217 102.846822,33.6081141 C102.226735,33.756457 101.792186,34.2336265 101.484584,34.8195808 C101.271317,35.241363 101.107453,35.6869415 100.996326,36.1472494 C100.752198,37.1164227 100.556895,38.169657 100.930412,39.0918551 C100.991848,39.242709 101.065331,39.3882377 101.150127,39.5269942 C101.49679,40.0882247 101.985048,40.5653942 102.326828,41.1315694 C102.751612,41.8386704 102.86147,42.8993218 102.199881,43.3839085 C101.8637,43.6076709 101.446052,43.6666686 101.062241,43.5446133 C100.577586,43.390395 100.11162,43.1813983 99.6731486,42.9215733 C98.8089329,42.4641828 97.7201188,42.179859 96.8998463,42.7089485 C96.616657,42.8869599 96.3896173,43.1440875 96.1186344,43.3319885 C95.5553806,43.685266 94.8872054,43.8262057 94.2315194,43.7300418 C92.6788607,43.5693371 92.0978344,42.5729675 90.9113688,41.8015847 C90.0422705,41.232937 88.2259529,40.9906437 87.7084,42.1526628 C87.3763849,42.8943771 87.8695249,43.8289371 87.5448337,44.5854857 C87.2201425,45.3420342 86.187478,45.574438 85.7089857,46.2765942 C85.0791336,47.2012647 85.6650426,48.5388228 85.2036393,49.5648609 C85.1329668,49.7238086 85.0382456,49.8706196 84.9228913,50 C79.546165,44.1325964 79.7168711,35.0086413 85.3092136,29.3517264 C90.9015561,23.6948115 99.9109587,23.532659 105.698245,28.9847617 L106.357393,28.9600379 C106.999452,28.9353141 107.680571,28.9007007 108.366572,28.8586702 C108.52877,29.2065105 108.655558,29.5701795 108.744972,29.9440455 C109.010567,31.0455939 109.069365,32.1878833 108.918303,33.3114284 Z" id="Path" fill="#000000" fill-rule="nonzero" opacity="0.1"></path>
                <path d="M87.6154135,41.3391877 C87.2795496,42.0883901 87.774765,43.0323851 87.4511589,43.7940742 C87.1275528,44.5557634 86.0831877,44.7930108 85.6075848,45.5022557 C84.9726305,46.4387588 85.5610052,47.7898204 85.1001117,48.8237198 C84.5705744,50.0049623 82.9721565,50.1897655 81.7463759,49.8451324 C79.6218977,49.2271153 77.919307,47.6051961 77.1717626,45.4872717 C76.3406833,43.0773373 76.8775752,40.4251607 76.6618379,37.8803699 C76.5699761,36.7898502 76.3392272,35.7161392 75.9754007,34.6862702 C75.6199243,33.6873337 75.1345152,32.7033812 75.0192918,31.6420111 C74.850562,29.7994902 75.8001296,28.0379761 77.4169187,27.1942461 C78.426962,26.6947778 79.6699035,26.5524293 80.4053719,25.6958413 C80.969231,25.0315484 81.0893575,24.1050348 81.3516745,23.2684254 C82.0601757,21.0208182 84.1758731,19.1877696 86.4999531,19.2102457 C88.3582366,19.2252297 90.177295,20.3415413 91.9939019,19.9020093 C93.0211061,19.6522751 93.9551509,18.9030727 95.0142253,19.0104584 C95.5214781,19.0917209 96.0075231,19.2760113 96.4434856,19.5523815 C99.2631576,21.1038124 101.946131,22.900239 104.462542,24.9216654 C104.98307,25.3783251 105.553071,25.7729624 106.161474,26.0979132 C106.553272,26.2534684 106.935581,26.4327649 107.306353,26.6348416 C108.098208,27.1343099 108.512522,28.085797 108.738065,29.0098133 C109.008808,30.1217696 109.070365,31.2759003 108.919481,32.4111922 C108.811612,33.2128388 108.502715,34.1118817 107.754989,34.3790972 C107.318182,34.5032221 106.851701,34.4578386 106.445855,34.2517328 C105.220075,33.7098097 104.131582,32.3962082 102.822448,32.7108732 C101.753567,32.9606073 101.238739,34.194294 100.959261,35.2756428 C100.714105,36.2546006 100.513077,37.318468 100.893069,38.2524737 C101.206869,39.0266495 101.873694,39.593546 102.292911,40.310283 C102.712128,41.02702 102.832254,42.0983794 102.16543,42.585361 C101.429961,43.1272841 100.432176,42.5503982 99.6256121,42.1208555 C98.7626625,41.6588474 97.6643631,41.3716531 96.84309,41.9035868 C96.5611605,42.0833954 96.3331653,42.3431189 96.0585904,42.5354142 C95.4925574,42.8888179 94.8232747,43.0301197 94.1659852,42.9349888 C92.6043406,42.7726616 92.0208691,41.766233 90.8318619,40.9870625 C89.9566545,40.4076793 88.1375961,40.1629399 87.6154135,41.3391877 Z" id="Path" fill="#828383" fill-rule="nonzero"></path>
                <path d="M134,76.8668263 C133.936283,77.214101 133.450147,77.2534588 133.351032,77.5914729 C132.40708,80.8581703 130.330383,83.7961143 127.125664,85 C126.509735,84.0484673 126,83.425688 126,83.425688 C126,83.425688 131.979941,72.6717479 132.312684,74.1372471 C132.418879,74.5933346 133.110324,75.65368 134,76.8668263 Z" id="Path" fill="#000000" fill-rule="nonzero" opacity="0.1"></path>
                <path d="M134.999934,73.9975089 C135.000892,78.4467289 132.321482,82.4583826 128.211212,84.161689 C124.100942,85.8649954 119.369341,84.9244835 116.222928,81.7787484 C113.076514,78.6330133 112.134983,73.9016165 113.837406,69.7909814 C115.539828,65.6803464 119.550906,63.0000744 124.000128,63.0000743 C126.920327,62.9893322 129.724057,64.1444613 131.789186,66.2091449 C133.854315,68.2738285 135.010048,71.0773086 134.999934,73.9975089 Z" id="Path" fill="#FFC1C8" fill-rule="nonzero"></path>
                <path d="M127.921276,171.954627 L128,173.70404 C127.057628,173.960469 125.2655,174.296675 124.22125,173.510294 C122.871366,172.493127 120.877798,172.245246 119.050939,170.860532 C119.083503,170.239798 119.066442,169.616629 119,169 L127.921276,171.954627 Z" id="Path" fill="#000000" fill-rule="nonzero" opacity="0.1"></path>
                <path d="M145,174.389081 C144.933514,174.767795 144.871953,175 144.871953,175 C144.871953,175 137.226053,174.12094 135.022162,172.935038 C135.022162,172.078093 135,171 135,171 L144.623246,172.313062 L145,174.389081 Z" id="Path" fill="#000000" fill-rule="nonzero" opacity="0.1"></path>
                <path d="M143.086097,140.442803 C142.570726,141.842594 142.31182,142.106143 142.829633,142.804796 C143.347447,143.503448 143.086097,147.180698 142.265412,147.528781 C141.444726,147.876864 138.357386,149.977795 138.357386,149.977795 C138.357386,149.977795 140.067147,152.252767 140.11844,153.209995 C140.163355,153.821571 140.395733,154.403366 140.782804,154.873336 C140.782804,154.873336 143.430492,160.649029 143.958076,162.486411 C144.485659,164.323793 144.969278,167.210397 144.969278,167.210397 C144.969278,167.210397 144.043564,169.835938 144.683503,171.325237 C145.323442,172.814535 144.683503,175 144.683503,175 C144.683503,175 135.448349,174.037799 134.424934,172.802104 C133.40152,171.566408 134.082982,168.786716 134.082982,168.786716 C133.871944,167.547982 133.434496,166.36054 132.793333,165.285994 C131.760149,163.622654 133.037585,161.874779 132.793333,161.785272 C132.549082,161.695765 131.760149,160.73605 130.983429,159.162217 C130.206708,157.588384 129.72309,158.19753 129.72309,158.19753 C129.72309,158.19753 130.729407,167.036355 129.72309,167.824515 C128.716773,168.612674 128.579993,168.262105 128.838899,169.3163 C129.039491,170.328158 129.18302,171.350875 129.268782,172.379431 C129.268782,172.379431 126.174114,173.341632 124.628001,172.379431 C123.081888,171.41723 120.75417,171.240702 118.709784,169.75389 C116.665398,168.267078 119.635497,165.728557 120.150868,165.377987 C120.666239,165.027418 119.979892,159.952863 119.979892,159.952863 L119.291103,154.965329 C119.291103,154.965329 121.611493,155.48994 120.849428,153.565537 C120.087363,151.641135 119.205615,144.990261 118.775732,143.941039 C118.345849,142.891817 120.241242,141.489539 119.979892,140.790886 C119.718543,140.092234 121.096122,136.066901 121.096122,136.066901 C121.096122,136.066901 121.184053,132.742707 122.041376,132.118643 C122.368673,131.88493 122.581172,131.158928 122.722838,130.355851 C122.873142,129.408078 122.962079,128.451273 122.989072,127.491624 C122.989072,127.491624 142.673312,126.091832 145.853469,128.016235 C147.284783,128.88147 147.18464,130.475194 146.586223,132.088808 C145.853469,134.057964 144.348878,136.066901 143.970288,136.795389 C143.259516,138.137995 143.601468,139.043012 143.086097,140.442803 Z" id="Path" fill="#196690" fill-rule="nonzero"></path>
                <path d="M145.585097,131.747814 C143.170323,132.399651 139.953844,133.357688 139.429838,133.907458 C138.579838,134.807503 135.689353,128.845864 135.689353,128.845864 C135.689353,128.845864 135.860802,133.327532 132.0358,131.453211 C128.725145,129.829418 123.381251,130.042831 122,130.13098 C122.148597,129.246716 122.236523,128.354025 122.26321,127.458681 C122.26321,127.458681 141.723873,126.152687 144.867909,127.948138 C146.282966,128.755395 146.183961,130.242326 145.585097,131.747814 Z" id="Path" fill="#000000" fill-rule="nonzero" opacity="0.1"></path>
                <path d="M136.08056,81.4425845 C136.08056,81.4425845 137.815667,79.4080615 138.175082,80.1713086 C138.534497,80.9345557 140.581923,82.4586421 140.581923,82.4586421 C140.581923,82.4586421 141.16938,84.2379469 142.203008,84.4931651 C143.236636,84.7483834 151,94.9161829 151,94.9161829 L148.206478,100.422637 L145.938445,113.811966 C145.938445,113.811966 146.037594,115.930759 145.420392,116.701229 C144.80319,117.471699 142.445923,117.293528 143.53904,118.225315 C144.632158,119.157103 146.20119,120.00462 147.073701,124.244614 C147.946212,128.484608 148.992233,130.938074 148.992233,130.938074 C148.992233,130.938074 140.792614,132.972597 139.920103,133.904385 C139.047592,134.836172 136.08056,128.650741 136.08056,128.650741 C136.08056,128.650741 136.256549,133.300047 132.33025,131.357018 C128.403951,129.413988 121.686609,130.006287 121.686609,130.006287 L121.686609,124.99823 C121.686609,124.99823 122.995375,123.047978 122.298854,121.692432 C121.602332,120.336885 122.774769,117.794334 122.774769,117.794334 C122.774769,117.794334 122.385609,115.167512 121.686609,113.643425 C120.987609,112.119339 121.250353,104.915442 121.250353,104.915442 C121.250353,104.915442 120.719906,100.254097 121.203258,97.8800856 C121.613432,95.8223933 122.337778,93.8357682 123.352311,91.9859882 C124.311578,90.1705677 124.918865,88.4755332 124.658599,87.7965563 C124.398333,87.1175794 126.961334,85.6488705 126.961334,85.6488705 L128.381643,87.8808265 L128.743536,89.2147031 C128.743536,89.2147031 136.256549,83.9851363 136.08056,81.4425845 Z" id="Path" fill="#DCE6F2" fill-rule="nonzero"></path>
                <path d="M149.355031,92 C149.355031,92 154.312729,96.9238978 154.843462,97.7305519 C155.374195,98.5372059 157.152527,102.730789 154.851008,104.003114 C152.549489,105.275439 143.532063,107.237364 142.636608,106.560487 C141.741154,105.883611 136.348305,107.323882 136.348305,107.323882 C136.348305,107.323882 127.328363,109.563175 129.275222,105.891245 C131.22208,102.219315 135.827634,102.837664 135.827634,102.837664 C135.827634,102.837664 143.267954,102.824941 144.062795,102.074269 C144.857637,101.323598 150.854163,99.7128342 149.495889,96.3946106 C148.137616,93.076387 149.355031,92 149.355031,92 Z" id="Path" fill="#FFC1C8" fill-rule="nonzero"></path>
                <path d="M134,113 C134,113 122.979802,123 124.076781,123 C125.17376,123 134,113 134,113 Z" id="Path" fill="#000000" fill-rule="nonzero" opacity="0.1"></path>
                <path d="M142,117 C142,117 137.189509,118.170533 138.119296,118.877522 C139.049082,119.584511 142,117 142,117 Z" id="Path" fill="#000000" fill-rule="nonzero" opacity="0.1"></path>
                <path d="M130,94 C130,94 135.920226,94.5574124 134.876627,96.5066458 C133.833029,98.4558793 130,94 130,94 Z" id="Path" fill="#000000" fill-rule="nonzero" opacity="0.1"></path>
                <path d="M126.358447,135 C126.358447,135 125.551941,136.721942 126.358447,137.645442 C127.164953,138.568942 126.358447,140.771874 126.358447,140.771874 L126.358447,148.467705 C126.358447,148.467705 126.24743,154.054398 129,156 L126.358447,135 Z" id="Path" fill="#000000" fill-rule="nonzero" opacity="0.1"></path>
                <path d="M120,159 C120,159 121.730727,161.117174 121.980486,161.892395 C122.230245,162.667615 120,159 120,159 Z" id="Path" fill="#000000" fill-rule="nonzero" opacity="0.1"></path>
                <path d="M121,156.148531 C121,156.148531 124.429269,155.634351 124.956849,155.934086 C125.484429,156.233821 121,156.148531 121,156.148531 Z" id="Path" fill="#000000" fill-rule="nonzero" opacity="0.1"></path>
                <path d="M120.209168,166 C120.209168,166 119.373745,166.095379 121.042097,167.090042 C122.710449,168.084706 125.957375,169.343704 125.99977,168.913138 C126.042165,168.482571 120.209168,166 120.209168,166 Z" id="Path" fill="#000000" fill-rule="nonzero" opacity="0.1"></path>
                <path d="M132,158.071509 C132.312678,158.071509 136.215855,157.692854 135.990621,158.678216 C135.765387,159.663578 132,158.071509 132,158.071509 Z" id="Path" fill="#000000" fill-rule="nonzero" opacity="0.1"></path>
                <path d="M136,154 C136,154 136.704459,152.530889 136.963886,153.153995 C137.223312,153.7771 136,154 136,154 Z" id="Path" fill="#000000" fill-rule="nonzero" opacity="0.1"></path>
                <path d="M134.997632,72.4882333 C134.998886,73.5547261 134.857031,74.6161545 134.576195,75.6416372 C134.116875,76.0762488 133.32372,76.0811876 132.757857,75.7576983 C132.094921,75.377413 131.661645,74.6859854 131.230737,74.0291292 C130.799829,73.3722729 130.30973,72.7154166 129.604177,72.4339068 C128.711581,72.0832542 127.693501,72.4339068 126.91692,73.0166815 C126.140338,73.5994563 125.520019,74.3699042 124.786055,74.9921891 C124.05209,75.614474 123.116877,76.1182284 122.181665,75.9651265 C121.57792,75.8688205 121.042836,75.5132292 120.524325,75.1699848 C119.814037,74.7032711 119.051661,73.9772721 118.272712,73.6636603 C117.493762,73.3500484 116.852135,73.9105987 116.111068,73.9105987 C115.521528,74.1328433 114.879901,74.6390671 114.998283,75.2786377 C115.061694,75.515915 115.164245,75.7398599 115.301339,75.9404327 C115.787859,76.9401089 115.650591,78.1468126 114.953298,79 C112.260176,74.9391539 112.360276,69.5366239 115.201812,65.5873297 C118.043347,61.6380355 122.988875,60.0279254 127.479899,61.5899663 C131.970922,63.1520072 134.999966,67.5357852 135,72.473417 L134.997632,72.4882333 Z" id="Path" fill="#000000" fill-rule="nonzero" opacity="0.1"></path>
                <path d="M115.452772,75.1116751 C114.842291,75.334052 114.177872,75.8405772 114.298007,76.4829994 C114.366126,76.7191656 114.473031,76.9421592 114.61428,77.1427176 C115.330186,78.4300329 114.724608,80.2782322 113.388414,80.8761791 C113.178988,80.9861255 112.939712,81.0242919 112.706833,80.9848967 C112.522165,80.9271 112.353991,80.8254086 112.216486,80.6883941 C111.497846,80.0410852 111.002366,79.1799983 110.801837,78.2298937 C110.590988,77.2415518 110.72093,76.1939095 110.613054,75.1783882 C110.505177,74.1628669 110.159483,73.1621708 110.039348,72.1392369 C109.954304,71.6336394 110.007707,71.1142402 110.193807,70.6369573 C110.355513,70.3220397 110.563845,70.0337656 110.811644,69.7820416 C111.500581,69.008664 112.218938,68.2179905 112.564632,67.2370612 C113.111368,65.6754811 112.714188,63.6864431 113.910633,62.5424374 C114.464724,62.0186162 115.239472,61.8234186 115.925956,61.4923241 C116.572324,61.1464861 117.191188,60.7507935 117.777014,60.3087847 C119.995831,58.7719131 122.692736,57.5908446 125.3308,58.1344326 C126.384806,58.3916162 127.394099,58.8081458 128.324364,59.3698599 C130.052283,60.3298055 131.693091,61.4410286 133.227828,62.6906886 C133.891492,63.1854065 134.471097,63.7853863 134.94404,64.4672331 C135.296372,65.0510252 135.549908,65.6898082 135.69427,66.357437 C136.046565,67.8140571 136.094986,69.3285201 135.836471,70.8049754 C135.591298,72.2528962 135.034754,73.6588126 135.012689,75.1289711 C135.012689,75.623142 135.051917,76.1568466 134.799388,76.5818336 C134.394852,77.2588478 133.392094,77.32309 132.705609,76.9475201 C132.019124,76.5719502 131.570457,75.8751692 131.126694,75.2179219 C130.68293,74.5606745 130.17297,73.9034272 129.442354,73.6242206 C128.518051,73.2708884 127.463806,73.6242206 126.659638,74.2048714 C125.85547,74.7855223 125.215568,75.5588998 124.45308,76.1815552 C123.690591,76.8042106 122.736868,77.3082649 121.756175,77.1550719 C121.130983,77.0587086 120.576892,76.7053764 120.039962,76.3619276 C119.304443,75.8924652 118.514985,75.1660339 117.710817,74.8547062 C116.906649,74.5433785 116.217713,75.1116751 115.452772,75.1116751 Z" id="Path" fill="#EEBA76" fill-rule="nonzero"></path>
                <path d="M142.226645,93 C142.226645,93 129.808003,104.491493 132.340705,110.237239 C134.873407,115.982986 146.024498,105.843292 146.024498,105.843292 L150,96.6424143 L142.226645,93 Z" id="Path" fill="#F8BDC5" fill-rule="nonzero"></path>
                <g id="Group" opacity="0.1" transform="translate(110.000000, 69.000000)" fill="#000000" fill-rule="nonzero">
                    <path d="M3.64626168,11.1623529 C3.4316204,11.267036 3.18615379,11.3033937 2.94728972,11.2658824 C2.75638894,11.2113889 2.58297969,11.1135619 2.44261682,10.9811765 C1.70291936,10.3653985 1.19218003,9.54638907 0.98411215,8.64235294 C0.769626168,7.68941176 0.903364486,6.70117647 0.792336449,5.73411765 C0.681308411,4.76705882 0.322990654,3.81647059 0.201869159,2.84 C0.201869159,2.79294118 0.201869159,2.74352941 0.189252336,2.69411765 C0.161910054,2.96354776 0.166140639,3.23495411 0.201869159,3.50352941 C0.322990654,4.47764706 0.681308411,5.41882353 0.792336449,6.39764706 C0.903364486,7.37647059 0.769626168,8.35294118 0.98411215,9.30352941 C1.19151755,10.2084723 1.70232372,11.028413 2.44261682,11.6447059 C2.58376823,11.7756266 2.75698031,11.8725348 2.94728972,11.9270588 C3.18615379,11.9645701 3.4316204,11.9282124 3.64626168,11.8235294 C4.73130841,11.3741176 5.34448598,10.1905882 5.20065421,9.10823529 C5.09371447,9.99588641 4.50728094,10.7708538 3.64626168,11.1623529 L3.64626168,11.1623529 Z" id="Path"></path>
                    <path d="M26.7375701,1.57411765 C26.4852336,2.95294118 25.9124299,4.29176471 25.892243,5.69176471 C25.892243,6.16235294 25.9326168,6.67058824 25.6701869,7.07529412 C25.2563551,7.72 24.2242991,7.78117647 23.517757,7.42352941 C22.811215,7.06588235 22.3494393,6.40470588 21.8901869,5.77647059 C21.4309346,5.14823529 20.9111215,4.52470588 20.1566355,4.25882353 C19.2078505,3.92470588 18.1228037,4.25882353 17.2951402,4.81411765 C16.4674766,5.36941176 15.8063551,6.10117647 15.0241121,6.69647059 C14.2418692,7.29176471 13.2451402,7.76941176 12.2484112,7.62588235 C11.6049533,7.53176471 11.0346729,7.19529412 10.4820561,6.86823529 C9.72504673,6.42117647 8.91252336,5.73176471 8.08485981,5.43294118 C7.25719626,5.13411765 6.57084112,5.66823529 5.78102804,5.66823529 C5.15271028,5.88235294 4.4688785,6.36235294 4.59,6.97647059 C4.60543726,7.04282255 4.62827166,7.10748777 4.65813084,7.16941176 C4.90534303,6.76781788 5.30658507,6.46850355 5.78102804,6.33176471 C6.56831776,6.33176471 7.26476636,5.80470588 8.08485981,6.09647059 C8.90495327,6.38823529 9.73261682,7.08470588 10.4820561,7.53176471 C11.0296262,7.85882353 11.5999065,8.19529412 12.2484112,8.28705882 C13.257757,8.43294118 14.2469159,7.96 15.0241121,7.36 C15.8013084,6.76 16.47,6.01882353 17.2951402,5.47764706 C18.1202804,4.93647059 19.2078505,4.58823529 20.1566355,4.92470588 C20.9136449,5.19058824 21.4334579,5.82352941 21.8901869,6.44235294 C22.3469159,7.06117647 22.811215,7.71764706 23.517757,8.08941176 C24.2242991,8.46117647 25.2563551,8.38588235 25.6701869,7.74117647 C25.9225234,7.33647059 25.8846729,6.83058824 25.892243,6.35764706 C25.9124299,4.95764706 26.4776636,3.61882353 26.7375701,2.24 C26.870715,1.53182388 26.9248356,0.812692528 26.8990654,0.0941176471 C26.8830274,0.590403155 26.8290588,1.08499066 26.7375701,1.57411765 Z" id="Path"></path>
                </g>
                <path d="M126.598919,32.903102 C126.598919,32.903102 122.063482,41.3656633 128.269869,45.6840477 C134.476257,50.0024322 135.075412,49.5705937 135.075412,49.5705937 C135.075412,49.5705937 134.989477,50.6060245 135.075412,50.866109 C135.161347,51.1261936 136.746363,51.7273323 136.746363,51.7273323 C136.746363,51.7273323 138.677504,54.9170481 141.448895,56.3058012 C144.220286,57.6945544 144.726345,60.9676935 144.726345,60.9676935 C144.726345,60.9676935 144.726345,62.0914549 146.158588,63.1268857 C147.590831,64.1623165 148.693659,67.1851856 148.693659,67.1851856 L148.693659,69.9504238 C148.693659,70.3822623 149.197331,71.6679631 148.106439,71.8053662 C147.015547,71.9427694 147.936957,74.5264392 147.936957,74.5264392 C147.936957,74.5264392 146.762517,75.9986157 147.01316,76.6856314 C147.263803,77.3726471 146.509488,78.756493 146.509488,78.756493 C146.509488,78.756493 145.585691,80.1378853 145.669238,80.3979698 C145.752786,80.6580543 144.661894,81.6076082 144.912536,82.2112005 C145.163179,82.8147929 143.654549,83.5925928 143.905192,84.2845158 C144.155835,84.9764387 142.83101,85.3199466 142.83101,85.3199466 L139.200273,93.9567154 C139.200273,93.9567154 146.838904,95.6742547 148.810625,100 L158.440074,81.865239 C158.440074,81.865239 163.815761,68.308947 163.985243,67.4452702 C164.154725,66.5815933 162.808416,63.4728472 162.808416,63.4728472 L156.255903,51.2047096 L146.42594,36.9564947 C146.42594,36.9564947 138.613053,19.8645254 126.598919,32.903102 Z" id="Path" fill="#000000" fill-rule="nonzero" opacity="0.1"></path>
                <path d="M136.291035,36.6790391 C136.291035,36.6790391 124.654164,40.9231697 130.783293,45.228455 C136.912422,49.5337403 137.493795,49.1007656 137.493795,49.1007656 C137.493795,49.1007656 137.411414,50.1355018 137.493795,50.3923512 C137.576175,50.6492006 139.14141,51.2534082 139.14141,51.2534082 C139.14141,51.2534082 141.047936,54.4334485 143.780624,55.8179891 C146.513311,57.2025297 147.012304,60.4657402 147.012304,60.4657402 C147.012304,60.4657402 147.012304,61.5860929 148.424545,62.6183829 C149.836787,63.6506728 150.910091,66.6643725 150.910091,66.6643725 L150.910091,69.4187766 C150.910091,69.8493052 151.406729,71.131106 150.328718,71.2705385 C149.250707,71.4099711 150.163956,73.9833575 150.163956,73.9833575 C150.163956,73.9833575 149.003564,75.4510684 149.25306,76.133554 C149.502556,76.8160395 148.756422,78.2005801 148.756422,78.2005801 C148.756422,78.2005801 147.845526,79.5777822 147.927907,79.8370778 C148.010288,80.0963733 146.932277,81.0430469 147.181773,81.6448083 C147.431269,82.2465698 145.939,83.0220104 146.188496,83.7118345 C146.437992,84.4016586 145.126961,84.7441245 145.126961,84.7441245 L141.549282,93.3522489 C141.549282,93.3522489 147.75373,93.68493 149.712039,98 L160.518042,81.309681 C160.518042,81.309681 165.821009,67.7945099 165.985771,66.9334529 C166.150532,66.0723958 164.830086,62.9632949 164.830086,62.9632949 L158.369081,50.7323708 L143.629985,41.8967513 C143.629985,41.8967513 148.137389,23.6775668 136.291035,36.6790391 Z" id="Path" fill="#000000" fill-rule="nonzero" opacity="0.1"></path>
                <path d="M126.599032,32.9022488 C126.599032,32.9022488 122.063274,41.3649177 128.270101,45.683357 C134.476928,50.0017964 135.076125,49.5699524 135.076125,49.5699524 C135.076125,49.5699524 134.992572,50.6053964 135.076125,50.8654842 C135.159679,51.1255721 136.747194,51.7267184 136.747194,51.7267184 C136.747194,51.7267184 138.680859,54.9164748 141.452446,56.3052456 C144.224033,57.6940164 144.730128,60.9671972 144.730128,60.9671972 C144.730128,60.9671972 144.730128,62.0909729 146.162473,63.1264168 C147.594818,64.1618608 148.695336,67.1847683 148.695336,67.1847683 L148.695336,69.9500417 C148.695336,70.3818857 149.199044,71.6676028 148.105687,71.8050077 C147.012331,71.9424126 147.938581,74.5261152 147.938581,74.5261152 C147.938581,74.5261152 146.761671,75.9983105 147.014718,76.6853349 C147.267766,77.3723593 146.51101,78.7562228 146.51101,78.7562228 C146.51101,78.7562228 145.587148,80.1376327 145.670701,80.3977205 C145.754255,80.6578083 144.660898,81.6073743 144.913946,82.2109743 C145.166994,82.8145744 143.653483,83.5923842 143.90653,84.2843159 C144.159578,84.9762477 142.829884,85.3197599 142.829884,85.3197599 L139.201278,93.9566386 C139.201278,93.9566386 146.826126,95.6741997 148.809924,100 L158.440054,81.8650084 C158.440054,81.8650084 163.818509,68.308544 163.985615,67.4448562 C164.152722,66.5811683 162.808706,63.4723827 162.808706,63.4723827 L156.255729,51.2040891 L146.427457,36.9606003 C146.427457,36.9606003 138.611629,19.8635064 126.599032,32.9022488 Z" id="Path" fill="#BF0C3F" fill-rule="nonzero"></path>
                <g id="Group" opacity="0.1" transform="translate(75.000000, 32.000000)" fill="#000000" fill-rule="nonzero">
                    <path d="M1.85057143,6.34307692 C1.76074203,5.27841794 1.53212695,4.2301678 1.17057143,3.22512821 C0.818428571,2.25076923 0.337571429,1.29102564 0.223428571,0.255769231 C0.223428571,0.224102564 0.223428571,0.194871795 0.223428571,0.163205128 C0.197939036,0.422405272 0.197939036,0.683492163 0.223428571,0.942692308 C0.337571429,1.97794872 0.818428571,2.93038462 1.17057143,3.91205128 C1.53213553,4.91624918 1.76075395,5.96369569 1.85057143,7.0275641 C1.88457143,7.42705128 1.89914286,7.83141026 1.904,8.24551282 C1.91128571,7.6 1.904,6.96910256 1.85057143,6.34307692 Z" id="Path"></path>
                    <path d="M10.2097143,17.0171795 C9.68757143,18.1669231 8.10171429,18.3496154 6.88742857,18.0110256 C4.78463018,17.4065574 3.0989556,15.8263406 2.35571429,13.7628205 C2.01814604,12.7160042 1.85406284,11.6207364 1.87,10.520641 C1.85542857,11.8628205 1.90642857,13.1879487 2.35571429,14.4473077 C3.09865127,16.5115362 4.78429086,18.0926263 6.88742857,18.6979487 C8.10171429,19.0341026 9.68757143,18.8538462 10.2097143,17.7016667 C10.4307143,17.2144872 10.4088571,16.649359 10.3991429,16.0939744 C10.394656,16.4109428 10.3303814,16.7241937 10.2097143,17.0171795 Z" id="Path"></path>
                    <path d="M33.8057143,1.00358974 C33.7012857,1.78307692 33.3928571,2.66 32.6521429,2.92064103 C32.2204618,3.04160477 31.7594348,2.998226 31.3577143,2.79884615 C30.1434286,2.26782051 29.0627143,0.986538462 27.7658571,1.29589744 C26.707,1.53948718 26.1994286,2.74038462 25.9201429,3.7975641 C25.7175809,4.46555943 25.62971,5.16323319 25.6602857,5.86076923 C25.7066735,5.39447798 25.7936237,4.93314831 25.9201429,4.48205128 C26.1994286,3.42730769 26.707,2.23371795 27.7658571,1.98038462 C29.0627143,1.67346154 30.1337143,2.95474359 31.3577143,3.48333333 C31.7588679,3.68443359 32.2202476,3.72871379 32.6521429,3.6075641 C33.3928571,3.34692308 33.7012857,2.47 33.8057143,1.68807692 C33.8724732,1.19007507 33.8968469,0.6872771 33.8785714,0.185128205 C33.8664286,0.457948718 33.8421429,0.733205128 33.8057143,1.00358974 Z" id="Path"></path>
                    <path d="M27.115,10.9274359 C26.3864286,11.4560256 25.398,10.8933333 24.599,10.4719231 C23.7441429,10.0212821 22.6561429,9.74115385 21.8425714,10.26 C21.5632857,10.4353846 21.3374286,10.6887179 21.0654286,10.8762821 C20.5057068,11.2235238 19.8417802,11.3615403 19.1905714,11.2660256 C17.6435714,11.1076923 17.0655714,10.1260256 15.8877143,9.36602564 C15.0231429,8.80820513 13.2162857,8.56948718 12.7014286,9.71435897 C12.57793,10.0514038 12.5436243,10.414798 12.6018571,10.7691026 C12.617817,10.6424448 12.6513311,10.5186427 12.7014286,10.4012821 C13.2187143,9.25397436 15.0231429,9.49269231 15.8877143,10.0529487 C17.0655714,10.8129487 17.6435714,11.7946154 19.1905714,11.9529487 C19.8420286,12.0464732 20.5055475,11.9076794 21.0654286,11.5607692 C21.3374286,11.375641 21.5632857,11.1223077 21.8425714,10.9469231 C22.6634286,10.4353846 23.7441429,10.7033333 24.599,11.1588462 C25.398,11.5778205 26.3815714,12.1332051 27.115,11.6119231 C27.5424286,11.305 27.6444286,10.759359 27.5497143,10.2210256 C27.499854,10.5034564 27.34436,10.756134 27.115,10.9274359 Z" id="Path"></path>
                    <path d="M12.5387143,12.1112821 C12.206,12.8761538 11.1835714,13.085641 10.7124286,13.775 C10.3602857,14.2865385 10.3894286,14.9247436 10.4015714,15.5653846 C10.3971254,15.1752186 10.5050655,14.7920597 10.7124286,14.4619231 C11.1835714,13.7725641 12.206,13.560641 12.5387143,12.7957692 C12.6550833,12.4629626 12.6868036,12.106288 12.631,11.7580769 C12.616043,11.879406 12.5850071,11.9981899 12.5387143,12.1112821 Z" id="Path"></path>
                </g>
            </g>
        </g>
    </g>
</svg>