<?xml version="1.0" encoding="UTF-8"?>
<svg width="222px" height="176px" viewBox="0 0 222 176" version="1.1" xmlns="http://www.w3.org/2000/svg" xmlns:xlink="http://www.w3.org/1999/xlink">
    <!-- Generator: Sketch 54 (76480) - https://sketchapp.com -->
    <title>undraw_road_sign_mfpo</title>
    <desc>Created with Sketch.</desc>
    <g id="principal" stroke="none" stroke-width="1" fill="none" fill-rule="evenodd">
        <g id="Intro-simulador-version-resultados" transform="translate(-77.000000, -438.000000)" fill-rule="nonzero">
            <g id="undraw_road_sign_mfpo" transform="translate(77.000000, 438.000000)">
                <circle id="Oval" fill="#FF6584" cx="118.5" cy="23.5" r="14.5"></circle>
                <path d="M75,92.9987861 C75,121.165303 58.2106764,131 37.5,131 C16.7893236,131 0,121.165303 0,92.9987861 C0,64.832269 37.5,29 37.5,29 C37.5,29 75,64.8322622 75,92.9987861 Z" id="Path" fill="#ECEDED"></path>
                <polygon id="Path" fill="#3F3D56" points="35.8614367 126.164401 36.2399113 102.718826 52 73.7131706 36.2993859 99.0407375 36.4694742 88.4987276 47.3314705 67.5132948 36.5145307 85.7088288 36.5145307 85.7088288 36.8209149 66.7483957 48.4518004 50.0414121 36.8689001 63.7669888 37.060165 29 35.8580575 75.0249443 35.9567312 73.126408 24.1314269 54.9168225 35.7672686 76.7711807 34.6654119 97.9467618 34.6325206 97.3847026 21 78.2218828 34.5912939 99.3702674 34.453421 102.018518 34.4288652 102.058406 34.4401294 102.275751 31.6445987 156 35.3795574 156 35.8276443 128.250366 49.3855965 107.153881"></polygon>
                <path d="M185,77.8024349 C185,112.044084 164.628957,124 139.5,124 C114.371045,124 94,112.044084 94,77.8024349 C94,43.5607854 139.5,0 139.5,0 C139.5,0 185,43.5607877 185,77.8024349 Z" id="Path" fill="#ECEDED"></path>
                <polygon id="Path" fill="#3F3D56" points="138.696495 119.351488 139.172775 90.5520948 159 54.9230911 139.247476 86.0342658 139.461837 73.0848728 153.12665 47.3077715 139.518443 69.6581044 139.518443 69.6581044 139.903551 46.3680194 154.536235 25.8461471 139.964101 42.7056292 140.204909 0 138.692319 56.5346157 138.816667 54.2023258 123.939694 31.8349024 138.578178 58.6793653 137.191792 84.6902653 137.15073 84.0000351 120 60.4615675 137.098763 86.43897 136.925233 89.6918706 136.894378 89.7408635 136.90853 90.0079318 133.391526 156 138.090299 156 138.654272 121.913703 155.710813 95.9998773"></polygon>
                <ellipse id="Oval" fill="#3F3D56" cx="90.5" cy="156.5" rx="70.5" ry="2.5"></ellipse>
                <ellipse id="Oval" fill="#9B9B9B" cx="190" cy="173" rx="32" ry="3"></ellipse>
                <rect id="Rectangle" fill="#4D4F51" x="88" y="79" width="8" height="77"></rect>
                <polygon id="Path" fill="#B3143C" points="128.62807 96 79 96 79 82 128.62807 82 143 89"></polygon>
                <polygon id="Path" fill="#000000" opacity="0.1" points="128.62807 94.9552239 79 94.9552239 79 96 128.62807 96 143 89.5223881 141.841039 89"></polygon>
                <polygon id="Path" fill="#ECEDED" points="54.3719298 115 104 115 104 101 54.3719298 101 40 108"></polygon>
                <polygon id="Path" fill="#000000" opacity="0.1" points="41.1589614 107 40 107.522388 54.3719298 114 104 114 104 112.955224 54.3719298 112.955224"></polygon>
                <rect id="Rectangle" fill="#ECEDED" x="107" y="86" width="8" height="8"></rect>
                <circle id="Oval" fill="#B3143C" cx="71" cy="108" r="4"></circle>
                <circle id="Oval" fill="#2F2E41" cx="91.5" cy="88.5" r="2.5"></circle>
                <circle id="Oval" fill="#2F2E41" cx="91.5" cy="108.5" r="2.5"></circle>
                <path d="M74,147.29388 C74,152.264458 71.0899922,154 67.5,154 C67.4168349,154 67.3338027,153.999061 67.2509034,153.997184 C67.0845681,153.993565 66.919819,153.985523 66.7570525,153.974263 C63.5171542,153.741438 61,151.916628 61,147.29388 C61,142.509886 67.0208076,136.473293 67.4730687,136.026538 L67.4738618,136.025735 C67.4912916,136.008444 67.5,136 67.5,136 C67.5,136 74,142.323301 74,147.29388 Z" id="Path" fill="#029E83"></path>
                <path d="M66.8763894,153.242291 L69.4937773,149.868806 L66.8698481,153.612701 L66.8628774,154 C66.6797474,153.99638 66.4983637,153.988337 66.3191628,153.977075 L66.6012686,149.003313 L66.5990858,148.964703 L66.6038832,148.957463 L66.6304802,148.487717 L64,144.734573 L66.6387629,148.135406 L66.6448749,148.235146 L66.85808,144.477175 L64.6060716,140.598947 L66.8855501,143.817589 L67.1074793,136.026551 L67.1083524,136 L67.1083524,136.025739 L67.0712922,142.169446 L69.3132787,139.733837 L67.0621363,142.698733 L67.0028401,146.063372 L69.0961445,142.834267 L66.9941207,146.558459 L66.9609849,148.428997 L70,143.934632 L66.9496485,149.081738 L66.8763894,153.242291 Z" id="Path" fill="#3F3D56"></path>
                <path d="M178.825038,168 C178.825038,168 175.595329,170.559652 173.895483,170.399674 C172.195638,170.239697 168.965926,170.239697 170.325804,171.999456 C171.685682,173.759216 177.295176,174.719088 179.674962,174.879068 C182.054747,175.039047 187.32427,175.199023 186.984302,174.239153 C186.644334,173.279283 186.304371,168.799877 184.944487,168.479926 C183.584602,168.159975 178.825038,168 178.825038,168 Z" id="Path" fill="#474847"></path>
                <path d="M197.908702,164.090238 C197.908702,164.090238 195.430085,167.386108 193.677306,167.663102 C191.924526,167.940096 188.684649,168.76036 190.572177,170.116963 C192.459705,171.473566 198.372337,170.977248 200.807196,170.527568 C203.242054,170.077887 208.575753,168.894283 207.949239,168.052276 C207.322726,167.210268 205.649477,162.964302 204.190159,163.000227 C202.73084,163.036151 197.908702,164.090238 197.908702,164.090238 Z" id="Path" fill="#474847"></path>
                <path d="M177.698408,115.196228 C177.698408,115.196228 175.581027,130.160081 176.074592,132.876417 C176.568158,135.592754 176.897187,139.837044 176.897187,139.837044 C176.897187,139.837044 176.568151,143.402243 176.897187,145.099958 C177.226224,146.797673 179.200455,162.925957 179.200455,163.2655 C179.200455,163.605043 178.871416,164.623669 179.200455,165.472527 C179.529494,166.321385 180.187568,165.642298 179.200455,167.000469 C178.213342,168.358641 178.871416,168.698185 179.035937,168.698185 C179.200457,168.698185 185.616695,169.377269 185.94574,168.698185 C186.274785,168.0191 185.781219,167.849327 185.94574,167.000469 C186.11026,166.151612 186.274776,165.981841 186.603815,165.812071 C186.932853,165.6423 187.590928,165.981841 187.097371,165.132984 C186.603815,164.284126 185.452183,163.2655 185.781219,162.756181 C186.110256,162.246863 185.616701,158.511898 185.616701,158.511898 C185.616701,158.511898 185.287663,150.193097 185.123144,145.099956 C184.958626,140.006815 186.603815,134.743905 186.603815,134.743905 C186.808721,138.91115 188.308571,142.899541 190.881307,146.118591 C195.158799,151.381505 197.297546,161.228246 197.297546,161.228246 C197.297546,161.228246 198.28466,162.756188 197.791103,164.11436 C197.297546,165.472532 195.816876,164.623674 197.297546,165.472532 C198.778217,166.321389 203.878304,165.132988 204.371861,164.623674 C204.865418,164.11436 203.713786,163.435275 204.042822,162.077103 C204.371859,160.718932 205.688013,161.058475 204.536379,160.379391 C203.384745,159.700306 203.055709,159.870074 203.055709,159.190989 C203.055709,158.511905 200.094369,143.741791 195.487838,139.497505 L195.158799,124.048307 C195.158799,124.048307 199.271773,113.182938 194.994281,112.16431 C190.716789,111.145681 177.698408,115.196228 177.698408,115.196228 Z" id="Path" fill="#196690"></path>
                <path d="M181,74.444276 C181,74.444276 184.016129,81.7929203 183.306453,82.8427183 C182.596776,83.8925162 192,79.3433675 192,79.3433675 C192,79.3433675 188.983871,71.9947232 188.983871,71.1199013 C188.983871,70.2450795 181,74.444276 181,74.444276 Z" id="Path" fill="#E4A7B0"></path>
                <circle id="Oval" fill="#E4A7B0" cx="182.5" cy="70.5" r="6.5"></circle>
                <path d="M190.902292,77.0668762 C190.902292,77.0668762 186.509425,76.5611264 184.312991,79.2584577 C182.116556,81.9557889 181.778645,82.6301234 181.778645,82.6301234 C181.778645,82.6301234 176.540996,91.0592889 177.554734,95.2738672 C177.801821,95.654386 178.027447,96.0483584 178.230561,96.4539491 C178.568472,97.1282837 178.568472,106.568946 178.230561,108.086196 C177.89265,109.603445 177.554734,110.109197 177.892648,112.300778 C178.230561,114.49236 175.189344,118.03261 178.73743,118.706943 C182.285517,119.381275 184.988818,118.875527 186.171512,117.358278 C187.354206,115.841029 186.34047,114.829527 190.057509,114.829527 C193.774549,114.829527 196.139941,112.300778 196.139941,112.300778 C196.139941,112.300778 194.28142,110.277779 194.957247,109.94061 C195.633075,109.60344 194.957247,108.760528 194.619334,107.917611 C194.28142,107.074694 194.28142,106.400362 194.78829,106.400362 C195.295159,106.400362 194.957247,106.063194 194.619334,105.220277 C194.28142,104.37736 200.532808,89.8791979 196.815766,85.6646174 C193.098724,81.4500369 191.240215,79.0898684 191.240215,79.0898684 C191.240215,79.0898684 191.91603,76.5611264 190.902292,77.0668762 Z" id="Path" fill="#B3143C"></path>
                <path d="M181.851706,93 L181.851706,100.512198 L176.54716,118.609755 C176.54716,118.609755 173.06605,128 176.54716,128 C180.02827,128 179.841754,119.037381 179.841754,119.037381 L187.322014,105.4634 C187.322014,105.4634 190.30582,94.7073002 189.974285,93.8536409 C189.642751,92.9999817 181.851706,93 181.851706,93 Z" id="Path" fill="#E4A7B0"></path>
                <path d="M184.91049,82.0017491 C184.91049,82.0017491 179.887684,83.9514863 181.227098,89.1507884 C182.566511,94.3500905 181.227098,94.187611 181.227098,94.187611 C181.227098,94.187611 188.091602,93.5376971 190.26815,95 L190.770431,93.0502628 C190.770431,93.0502628 192.779556,81.8392718 184.91049,82.0017491 Z" id="Path" fill="#B3143C"></path>
                <path d="M180.055937,65.8772682 C179.260875,66.1575734 178.377192,66.020931 177.705446,65.5138157 C177.066529,64.9907331 176.795518,64.0255909 177.171356,63.2926514 C177.495905,62.6597336 178.190102,62.3125066 178.855781,62.0535531 C180.324194,61.4828117 181.870952,61.135769 183.4437,61.0241714 C184.193521,60.9711806 184.981019,60.979577 185.650156,61.3199401 C185.981244,61.4883485 186.268809,61.7314066 186.596712,61.9058586 C187.199646,62.226631 187.901263,62.2979491 188.552851,62.5044067 C189.901637,62.9416234 190.99325,63.9386887 191.54505,65.2374435 C191.722206,65.6733551 191.845951,66.1288582 191.91362,66.5941383 C192.108504,67.8680007 191.972351,69.1702218 191.518099,70.3770718 C190.795565,72.2886378 189.280156,73.9598172 189.194629,76 C188.267095,75.3313361 187.923151,74.1244309 187.179865,73.2577939 C186.626883,72.6172059 185.871615,72.1819008 185.037457,72.0229989 C184.806515,72.0090249 184.584642,71.9286377 184.39885,71.7916234 C184.269447,71.6380231 184.188344,71.4500106 184.165628,71.2509705 L183.530971,68.2734541 C183.401812,67.6674883 183.238589,67.0068252 182.73735,66.6385881 C182.425276,66.440221 182.071248,66.3162869 181.702957,66.2764804 C180.827775,66.1245045 179.94151,66.0442082 179.053099,66.0364012" id="Path" fill="#2F2E41"></path>
            </g>
        </g>
    </g>
</svg>