<?xml version="1.0" encoding="UTF-8"?>
<svg width="101px" height="81px" viewBox="0 0 101 81" version="1.1" xmlns="http://www.w3.org/2000/svg" xmlns:xlink="http://www.w3.org/1999/xlink">
    <!-- Generator: Sketch 55 (78076) - https://sketchapp.com -->
    <title>illus-benefits-home</title>
    <desc>Created with Sketch.</desc>
    <defs>
        <linearGradient x1="50.0366418%" y1="100.01391%" x2="50.0366418%" y2="-0.00325046985%" id="linearGradient-1">
            <stop stop-color="#808080" stop-opacity="0.25" offset="0%"></stop>
            <stop stop-color="#808080" stop-opacity="0.12" offset="54%"></stop>
            <stop stop-color="#808080" stop-opacity="0.1" offset="100%"></stop>
        </linearGradient>
        <linearGradient x1="50%" y1="58%" x2="50%" y2="42%" id="linearGradient-2">
            <stop stop-color="#808080" stop-opacity="0.25" offset="0%"></stop>
            <stop stop-color="#808080" stop-opacity="0.12" offset="54%"></stop>
            <stop stop-color="#808080" stop-opacity="0.1" offset="100%"></stop>
        </linearGradient>
        <linearGradient x1="50.1133825%" y1="99.9786495%" x2="50.1133825%" y2="0.34848182%" id="linearGradient-3">
            <stop stop-color="#808080" stop-opacity="0.25" offset="0%"></stop>
            <stop stop-color="#808080" stop-opacity="0.12" offset="54%"></stop>
            <stop stop-color="#808080" stop-opacity="0.1" offset="100%"></stop>
        </linearGradient>
        <linearGradient x1="49.9915974%" y1="99.9808511%" x2="49.9915974%" y2="-0.00714750836%" id="linearGradient-4">
            <stop stop-color="#808080" stop-opacity="0.25" offset="0%"></stop>
            <stop stop-color="#808080" stop-opacity="0.12" offset="54%"></stop>
            <stop stop-color="#808080" stop-opacity="0.1" offset="100%"></stop>
        </linearGradient>
    </defs>
    <g id="Page-1" stroke="none" stroke-width="1" fill="none" fill-rule="evenodd">
        <g id="illus-benefits-home">
            <g id="undraw_btc_p2p_lth5">
                <path d="M9.942112,75.298833 C9.942112,75.298833 5.7521567,61.0737116 10.7279985,50.6038611 C12.8164991,46.2095177 13.510267,41.2768565 12.5444614,36.5082815 C12.0832504,34.2449378 11.415474,32.0286522 10.5495188,29.8872597" id="Path" stroke="#535461" stroke-width="2"></path>
                <path d="M13.6441268,23.2777527 C13.6441268,25.0208087 10.4876266,30.0758149 10.4876266,30.0758149 C10.4876266,30.0758149 7.3311265,25.0208087 7.3311265,23.2777527 C7.3311265,21.5344658 8.7443397,20.1212526 10.4876266,20.1212526 C12.2309135,20.1212526 13.6441268,21.5344658 13.6441268,23.2777527 Z" id="Path" fill="#B3143C" fill-rule="nonzero"></path>
                <path d="M18.8617798,32.9286116 C17.9146858,34.3924332 12.5171137,36.9199363 12.5171137,36.9199363 C12.5171137,36.9199363 12.6149897,30.9610167 13.5620837,29.4971951 C14.1750472,28.5504956 15.2465071,28.0027213 16.3728547,28.0602135 C17.4992023,28.1177057 18.5093187,28.77173 19.0227028,29.7759217 C19.5360869,30.7801135 19.4747434,31.9819121 18.8617798,32.9286116 Z" id="Path" fill="#B3143C" fill-rule="nonzero"></path>
                <path d="M18.6343621,49.4351068 C17.078422,50.2195539 11.1497288,49.6783574 11.1497288,49.6783574 C11.1497288,49.6783574 14.232822,44.5873674 15.7916408,43.7986022 C17.3454792,43.0309858 19.2276113,43.6597586 20.0080483,45.2071973 C20.7884854,46.754636 20.1752954,48.6419024 18.6343621,49.4351068 L18.6343621,49.4351068 Z" id="Path" fill="#B3143C" fill-rule="nonzero"></path>
                <path d="M15.6505843,61.8811884 C14.2486549,62.9175222 8.3098862,63.3867512 8.3098862,63.3867512 C8.3098862,63.3867512 10.4977021,57.8423651 11.8981921,56.8060313 C12.8039458,56.1194813 14.0088582,55.9728759 15.0528169,56.4221984 C16.0967756,56.8715208 16.8185735,57.847387 16.9425819,58.9771491 C17.0665904,60.1069112 16.5736603,61.2161122 15.6520236,61.8811884 L15.6505843,61.8811884 Z" id="Path" fill="#B3143C" fill-rule="nonzero"></path>
                <path d="M5.8845772,37.2625022 C7.1353745,38.4773158 12.9604343,39.7353099 12.9604343,39.7353099 C12.9604343,39.7353099 11.5340359,33.9491126 10.2832386,32.734299 C9.0310741,31.5308318 7.0419235,31.5649875 5.8318144,32.8107345 C4.6217054,34.0564816 4.6452828,36.0457857 5.8845772,37.2625022 L5.8845772,37.2625022 Z" id="Path" fill="#B3143C" fill-rule="nonzero"></path>
                <path d="M2.5841417,51.8632946 C4.1400818,52.6477417 10.068775,52.1065452 10.068775,52.1065452 C10.068775,52.1065452 6.9756064,47.0112371 5.4196663,46.2267899 C4.4114716,45.7078158 3.202375,45.7694997 2.2522297,46.3883814 C1.3020844,47.0072631 0.7569059,48.0882348 0.8240408,49.2201728 C0.8911756,50.3521107 1.5603068,51.3610621 2.576945,51.8632946 L2.5841417,51.8632946 Z" id="Path" fill="#B3143C" fill-rule="nonzero"></path>
                <path d="M1.3189508,66.4957527 C2.7208802,67.5320865 8.6596489,68.0013155 8.6596489,68.0013155 C8.6596489,68.0013155 6.471833,62.4569294 5.071343,61.4205956 C3.6694275,60.408938 1.7145531,60.713253 0.6864926,62.1031845 C-0.3415679,63.4931159 -0.0602441,65.4514312 1.3175115,66.4957527 L1.3189508,66.4957527 Z" id="Path" fill="#B3143C" fill-rule="nonzero"></path>
                <path d="M13.6441268,23.2777527 C13.6441268,25.0208087 10.4876266,30.0758149 10.4876266,30.0758149 C10.4876266,30.0758149 7.3311265,25.0208087 7.3311265,23.2777527 C7.3311265,21.5344658 8.7443397,20.1212526 10.4876266,20.1212526 C12.2309135,20.1212526 13.6441268,21.5344658 13.6441268,23.2777527 Z" id="Path" fill="#000000" fill-rule="nonzero" opacity="0.25"></path>
                <path d="M18.8617798,32.9286116 C17.9146858,34.3924332 12.5171137,36.9199363 12.5171137,36.9199363 C12.5171137,36.9199363 12.6149897,30.9610167 13.5620837,29.4971951 C14.1750472,28.5504956 15.2465071,28.0027213 16.3728547,28.0602135 C17.4992023,28.1177057 18.5093187,28.77173 19.0227028,29.7759217 C19.5360869,30.7801135 19.4747434,31.9819121 18.8617798,32.9286116 Z" id="Path" fill="#000000" fill-rule="nonzero" opacity="0.25"></path>
                <path d="M18.6343621,49.4351068 C17.078422,50.2195539 11.1497288,49.6783574 11.1497288,49.6783574 C11.1497288,49.6783574 14.232822,44.5873674 15.7916408,43.7986022 C17.3454792,43.0309858 19.2276113,43.6597586 20.0080483,45.2071973 C20.7884854,46.754636 20.1752954,48.6419024 18.6343621,49.4351068 L18.6343621,49.4351068 Z" id="Path" fill="#000000" fill-rule="nonzero" opacity="0.25"></path>
                <path d="M15.6505843,61.8811884 C14.2486549,62.9175222 8.3098862,63.3867512 8.3098862,63.3867512 C8.3098862,63.3867512 10.4977021,57.8423651 11.8981921,56.8060313 C12.8039458,56.1194813 14.0088582,55.9728759 15.0528169,56.4221984 C16.0967756,56.8715208 16.8185735,57.847387 16.9425819,58.9771491 C17.0665904,60.1069112 16.5736603,61.2161122 15.6520236,61.8811884 L15.6505843,61.8811884 Z" id="Path" fill="#000000" fill-rule="nonzero" opacity="0.25"></path>
                <path d="M5.8845772,37.2625022 C7.1353745,38.4773158 12.9604343,39.7353099 12.9604343,39.7353099 C12.9604343,39.7353099 11.5340359,33.9491126 10.2832386,32.734299 C9.0310741,31.5308318 7.0419235,31.5649875 5.8318144,32.8107345 C4.6217054,34.0564816 4.6452828,36.0457857 5.8845772,37.2625022 L5.8845772,37.2625022 Z" id="Path" fill="#000000" fill-rule="nonzero" opacity="0.25"></path>
                <path d="M2.5841417,51.8632946 C4.1400818,52.6477417 10.068775,52.1065452 10.068775,52.1065452 C10.068775,52.1065452 6.9756064,47.0112371 5.4196663,46.2267899 C4.4114716,45.7078158 3.202375,45.7694997 2.2522297,46.3883814 C1.3020844,47.0072631 0.7569059,48.0882348 0.8240408,49.2201728 C0.8911756,50.3521107 1.5603068,51.3610621 2.576945,51.8632946 L2.5841417,51.8632946 Z" id="Path" fill="#000000" fill-rule="nonzero" opacity="0.25"></path>
                <path d="M1.3189508,66.4957527 C2.7208802,67.5320865 8.6596489,68.0013155 8.6596489,68.0013155 C8.6596489,68.0013155 6.471833,62.4569294 5.071343,61.4205956 C3.6694275,60.408938 1.7145531,60.713253 0.6864926,62.1031845 C-0.3415679,63.4931159 -0.0602441,65.4514312 1.3175115,66.4957527 L1.3189508,66.4957527 Z" id="Path" fill="#000000" fill-rule="nonzero" opacity="0.25"></path>
                <path d="M90.31268,67.6501135 C90.31268,67.6501135 86.122725,53.4264315 91.094249,42.9565809 C93.182749,38.5622376 93.876517,33.6295763 92.910712,28.8610013 C92.449501,26.5976576 91.781724,24.3813721 90.915769,22.2399795" id="Path" stroke="#535461" stroke-width="2"></path>
                <path d="M94.014695,15.6290332 C94.014695,17.3720892 90.858195,22.4270954 90.858195,22.4270954 C90.858195,22.4270954 87.701695,17.3720892 87.701695,15.6290332 C87.701695,13.8857463 89.114908,12.4725331 90.858195,12.4725331 C92.601482,12.4725331 94.014695,13.8857463 94.014695,15.6290332 Z" id="Path" fill="#B3143C" fill-rule="nonzero"></path>
                <path d="M99.232348,25.2856495 C98.285254,26.7494711 92.887682,29.2769742 92.887682,29.2769742 C92.887682,29.2769742 92.985558,23.3180546 93.932652,21.854233 C94.545615,20.9075335 95.617075,20.3597592 96.743423,20.4172514 C97.869771,20.4747436 98.879887,21.1287679 99.393271,22.1329596 C99.906655,23.1371514 99.845312,24.33895 99.232348,25.2856495 L99.232348,25.2856495 Z" id="Path" fill="#B3143C" fill-rule="nonzero"></path>
                <path d="M99.010688,41.7863873 C97.454748,42.5708344 91.526054,42.0296379 91.526054,42.0296379 C91.526054,42.0296379 94.619223,36.9343298 96.175163,36.1498827 C97.187133,35.5981262 98.41939,35.6418293 99.38973,36.26389 C100.36007,36.8859507 100.914197,37.9874544 100.835272,39.1373629 C100.756347,40.2872713 100.056919,41.302736 99.010688,41.7863873 Z" id="Path" fill="#B3143C" fill-rule="nonzero"></path>
                <path d="M96.021153,54.2310295 C94.619223,55.2673634 88.680454,55.7365923 88.680454,55.7365923 C88.680454,55.7365923 90.86827,50.1922062 92.26876,49.1558724 C93.173843,48.4579347 94.385507,48.3037785 95.436519,48.7528484 C96.487532,49.2019184 97.213688,50.1840539 97.334974,51.3205315 C97.456259,52.457009 96.953724,53.5702709 96.021153,54.2310295 L96.021153,54.2310295 Z" id="Path" fill="#B3143C" fill-rule="nonzero"></path>
                <path d="M86.259463,29.6181008 C87.510261,30.8329143 93.335321,32.0909085 93.335321,32.0909085 C93.335321,32.0909085 91.908922,26.3075899 90.662443,25.0855795 C89.852786,24.299063 88.685031,24.0042386 87.599059,24.3121638 C86.513087,24.620089 85.673884,25.4839827 85.397569,26.5784244 C85.121254,27.6728661 85.449807,28.8315842 86.259463,29.6181008 Z" id="Path" fill="#B3143C" fill-rule="nonzero"></path>
                <path d="M82.95471,44.2145751 C84.51065,44.9990222 90.439343,44.4578256 90.439343,44.4578256 C90.439343,44.4578256 87.351932,39.3625176 85.797431,38.5780704 C84.789237,38.0590963 83.58014,38.1207802 82.629995,38.7396619 C81.679849,39.3585436 81.134671,40.4395153 81.201806,41.5714533 C81.268941,42.7033912 81.938072,43.7123426 82.95471,44.2145751 L82.95471,44.2145751 Z" id="Path" fill="#B3143C" fill-rule="nonzero"></path>
                <path d="M81.689519,58.8470332 C83.091448,59.883367 89.030217,60.352596 89.030217,60.352596 C89.030217,60.352596 86.842401,54.8082099 85.441911,53.7718761 C84.039996,52.7602185 82.085121,53.0645335 81.057061,54.454465 C80.029,55.8443964 80.310324,57.8027117 81.68808,58.8470332 L81.689519,58.8470332 Z" id="Path" fill="#B3143C" fill-rule="nonzero"></path>
                <path d="M94.014695,15.6290332 C94.014695,17.3720892 90.858195,22.4270954 90.858195,22.4270954 C90.858195,22.4270954 87.701695,17.3720892 87.701695,15.6290332 C87.701695,13.8857463 89.114908,12.4725331 90.858195,12.4725331 C92.601482,12.4725331 94.014695,13.8857463 94.014695,15.6290332 Z" id="Path" fill="#000000" fill-rule="nonzero" opacity="0.25"></path>
                <path d="M99.232348,25.2856495 C98.285254,26.7494711 92.887682,29.2769742 92.887682,29.2769742 C92.887682,29.2769742 92.985558,23.3180546 93.932652,21.854233 C94.545615,20.9075335 95.617075,20.3597592 96.743423,20.4172514 C97.869771,20.4747436 98.879887,21.1287679 99.393271,22.1329596 C99.906655,23.1371514 99.845312,24.33895 99.232348,25.2856495 L99.232348,25.2856495 Z" id="Path" fill="#000000" fill-rule="nonzero" opacity="0.25"></path>
                <path d="M99.010688,41.7863873 C97.454748,42.5708344 91.526054,42.0296379 91.526054,42.0296379 C91.526054,42.0296379 94.619223,36.9343298 96.175163,36.1498827 C97.187133,35.5981262 98.41939,35.6418293 99.38973,36.26389 C100.36007,36.8859507 100.914197,37.9874544 100.835272,39.1373629 C100.756347,40.2872713 100.056919,41.302736 99.010688,41.7863873 Z" id="Path" fill="#000000" fill-rule="nonzero" opacity="0.25"></path>
                <path d="M96.021153,54.2310295 C94.619223,55.2673634 88.680454,55.7365923 88.680454,55.7365923 C88.680454,55.7365923 90.86827,50.1922062 92.26876,49.1558724 C93.173843,48.4579347 94.385507,48.3037785 95.436519,48.7528484 C96.487532,49.2019184 97.213688,50.1840539 97.334974,51.3205315 C97.456259,52.457009 96.953724,53.5702709 96.021153,54.2310295 L96.021153,54.2310295 Z" id="Path" fill="#000000" fill-rule="nonzero" opacity="0.25"></path>
                <path d="M86.259463,29.6181008 C87.510261,30.8329143 93.335321,32.0909085 93.335321,32.0909085 C93.335321,32.0909085 91.908922,26.3075899 90.662443,25.0855795 C89.852786,24.299063 88.685031,24.0042386 87.599059,24.3121638 C86.513087,24.620089 85.673884,25.4839827 85.397569,26.5784244 C85.121254,27.6728661 85.449807,28.8315842 86.259463,29.6181008 Z" id="Path" fill="#000000" fill-rule="nonzero" opacity="0.25"></path>
                <path d="M82.95471,44.2145751 C84.51065,44.9990222 90.439343,44.4578256 90.439343,44.4578256 C90.439343,44.4578256 87.351932,39.3625176 85.797431,38.5780704 C84.789237,38.0590963 83.58014,38.1207802 82.629995,38.7396619 C81.679849,39.3585436 81.134671,40.4395153 81.201806,41.5714533 C81.268941,42.7033912 81.938072,43.7123426 82.95471,44.2145751 L82.95471,44.2145751 Z" id="Path" fill="#000000" fill-rule="nonzero" opacity="0.25"></path>
                <path d="M81.689519,58.8470332 C83.091448,59.883367 89.030217,60.352596 89.030217,60.352596 C89.030217,60.352596 86.842401,54.8082099 85.441911,53.7718761 C84.039996,52.7602185 82.085121,53.0645335 81.057061,54.454465 C80.029,55.8443964 80.310324,57.8027117 81.68808,58.8470332 L81.689519,58.8470332 Z" id="Path" fill="#000000" fill-rule="nonzero" opacity="0.25"></path>
                <path d="M87.82404,74.3359061 C87.82404,74.3186339 87.82404,74.2999223 87.834115,74.2812107 C87.844191,74.2624991 87.834115,74.2711352 87.834115,74.2668172 C87.837034,74.2308926 87.837034,74.1947903 87.834115,74.1588657 C87.834115,74.1588657 87.641242,73.7889521 87.416703,73.2808607 L87.416703,73.2808607 C87.110121,72.5827747 86.745965,71.6227265 86.745965,70.9937294 C86.745965,70.9937294 83.382198,59.2227042 81.108021,57.9373624 C81.108021,57.9373624 79.236862,54.6052612 79.257013,52.7297848 C79.259672,52.1304174 79.211521,51.5319032 79.113078,50.9406696 C78.780588,48.87232 78.226437,44.9126611 78.733089,44.1886667 C79.37648,43.2689204 80.448797,39.2675203 77.888189,36.2463193 L78.337267,36.1772304 C78.337267,36.1772304 78.312798,36.147004 78.272496,36.0879905 L78.337267,36.077915 C78.337267,36.077915 77.3469924,34.8890098 77.3469924,32.2621914 C77.3613859,30.7494319 77.7025125,28.7732008 78.733089,26.2845602 C78.869348,25.9544687 78.994092,25.6277357 79.107321,25.3043611 C79.586968,25.0659649 80.024518,24.7509285 80.402738,24.3716607 L80.448797,24.324162 L80.502053,24.2737847 C81.447708,23.323812 82.02057,22.0629392 82.419271,20.7833547 C82.785292,19.6072529 83.019426,18.394104 83.117357,17.1662618 C83.223869,15.8319819 83.167734,14.4919447 83.117357,13.1547862 C83.052586,11.594528 82.973422,9.9882105 82.348743,8.5646909 C82.102613,8.0076614 81.773002,7.4808584 81.62187,6.8907238 C81.537956,6.4855547 81.479786,6.0754781 81.447708,5.6629561 C81.24188,4.0465632 80.476145,2.4791082 79.221029,1.441335 C77.965914,0.4035618 76.2113432,-0.0584703 74.6410096,0.3762141 C73.7428536,0.6252221 72.9411342,1.1405103 72.1941102,1.7047366 C71.8740693,1.9459032 71.5719698,2.2099997 71.2901968,2.4949411 C70.3877228,3.3801429 69.706909,4.5402611 70.3603751,5.7593927 C70.4083535,5.847673 70.4596904,5.9340342 70.5143858,6.0184762 C69.815877,7.1329817 69.6461373,8.4993854 70.0507277,9.750922 C70.455318,11.0024586 71.3927943,12.0109272 72.6115225,12.5056382 L72.72811,12.7100262 L72.7410642,12.7100262 C73.0821908,13.3404626 73.4535437,14.1277885 73.5514197,14.7251198 C73.12413,15.0295281 72.7372101,15.3869454 72.3999377,15.7888014 C71.2355014,17.1777766 70.5978683,18.1205525 70.2495449,18.735156 C69.9201594,19.3046699 69.5380124,19.8419888 69.1081384,20.3400341 C68.579896,20.9647132 67.9566563,22.1838448 67.9566563,24.4522644 C67.9566563,24.6182697 67.9566563,24.7905123 67.9566563,24.968992 C65.1686304,28.0045865 54.2957612,25.7793475 54.2957612,25.7793475 C52.9859503,25.2698167 51.461676,25.8844202 50.7477571,26.2456977 C50.6295842,26.3037904 50.5443772,26.4126302 50.5163463,26.541292 C50.4883154,26.6699539 50.5205245,26.8043745 50.6038218,26.9063605 C51.7553039,28.2938964 54.5879497,27.4619506 54.5879497,27.4619506 C54.5879497,27.4619506 64.7756872,29.2424297 65.5673311,29.835443 C66.1056489,30.2399011 67.057061,29.9102893 67.6097723,29.6584026 L67.4960635,29.786505 L67.6399987,29.7159767 L66.856991,36.7587288 L66.8685058,36.7587288 L66.856991,36.8580441 C66.856991,36.8580441 67.0383494,36.8422113 67.3276592,36.8220603 L67.5694705,37.4481787 L67.5493195,37.4481787 L67.7997669,38.0411919 L67.7997669,38.0411919 L68.0055943,38.5291325 C67.3909908,40.7514928 64.913865,49.9000177 65.1743878,51.9885182 C65.1743878,51.9885182 63.5911,55.7466678 64.1855526,57.8250929 C64.1855526,57.8250929 62.0092515,73.453583 60.6245944,74.2452269 L60.818907,74.3330274 C59.3406919,75.1779273 56.1208602,76.7669726 53.8984999,76.025706 C53.8984999,76.025706 52.5138427,76.421528 54.6901438,77.8061851 C54.6901438,77.8061851 63.5925393,80.1796775 64.7800052,79.3894729 L64.5828139,75.9681319 L64.6835686,76.0041157 C64.6979621,75.8112425 64.8275038,74.3963589 65.3744578,73.751529 C65.3744578,73.751529 68.9354161,64.0574895 68.7382248,59.1118741 L72.0616898,51.0802868 C72.421528,52.0014724 72.8029564,52.7830409 73.1887029,53.2767388 L74.57336,56.837697 L76.8489764,59.805642 C76.8489764,59.805642 83.970893,71.08153 83.469998,74.4452969 L83.636963,74.4870381 C82.970543,75.6730646 81.312409,78.1041311 78.918765,78.1041311 C78.918765,78.1041311 76.8417797,80.2804322 80.699245,79.9839255 C80.699245,79.9839255 85.545545,79.6874189 89.106503,77.7083091 L87.82404,74.3359061 Z" id="Path" fill="url(#linearGradient-1)" fill-rule="nonzero"></path>
                <path d="M62.5835532,73.4219172 C62.5835532,73.4219172 58.0049727,76.474784 55.1435398,75.5204933 C55.1435398,75.5204933 53.8078206,75.9019217 55.9063967,77.2376409 C55.9063967,77.2376409 64.4921347,79.5276508 65.63642,78.7633546 L65.3485495,73.8033456 L62.5835532,73.4219172 Z" id="Path" fill="#333333" fill-rule="nonzero"></path>
                <path d="M84.142176,73.4219172 C84.142176,73.4219172 82.330031,77.524072 79.277164,77.524072 C79.277164,77.524072 77.2735854,79.622648 80.994312,79.3362169 C80.994312,79.3362169 85.66789,79.0483464 89.102185,77.1426436 L87.459884,72.8620091 L84.142176,73.4219172 Z" id="Path" fill="#333333" fill-rule="nonzero"></path>
                <polygon id="Path" fill="#FDB797" fill-rule="nonzero" points="67.8299933 37.0293271 68.5496696 38.8904099 73.2203686 38.5564802 72.7425036 35.4086161"></polygon>
                <path d="M68.8792813,38.8904099 C68.8792813,38.8904099 65.7314173,50.0569071 66.0178484,52.3411596 C66.0178484,52.3411596 64.4921347,55.9654494 65.0635577,57.9690281 C65.0635577,57.9690281 62.9649816,73.0404888 61.6292625,73.8019063 C61.6292625,73.8019063 65.5155144,75.5607951 65.6349806,75.5190539 C66.9706998,75.0426282 65.5399834,75.5190539 65.5399834,75.5190539 C65.5399834,75.5190539 65.6349806,73.9933402 66.207843,73.3254806 C66.207843,73.3254806 69.6421382,63.9768857 69.4507043,59.2083107 L74.0292848,48.1425682 L68.8792813,38.8904099 Z" id="Path" fill="#0D5176" fill-rule="nonzero"></path>
                <path d="M68.8792813,38.8904099 C68.8792813,38.8904099 65.7314173,50.0569071 66.0178484,52.3411596 C66.0178484,52.3411596 64.4921347,55.9654494 65.0635577,57.9690281 C65.0635577,57.9690281 62.9649816,73.0404888 61.6292625,73.8019063 C61.6292625,73.8019063 65.5155144,75.5607951 65.6349806,75.5190539 C66.9706998,75.0426282 65.5399834,75.5190539 65.5399834,75.5190539 C65.5399834,75.5190539 65.6349806,73.9933402 66.207843,73.3254806 C66.207843,73.3254806 69.6421382,63.9768857 69.4507043,59.2083107 L74.0292848,48.1425682 L68.8792813,38.8904099 Z" id="Path" fill="#196690" fill-rule="nonzero" opacity="0.1"></path>
                <path d="M68.3078583,38.3175476 L70.4064344,43.2775565 C70.4064344,43.2775565 72.0285847,51.3854295 73.7457323,53.5790028 L75.0814515,57.013298 L77.2764641,59.8761703 C77.2764641,59.8761703 84.145055,70.7504789 83.66719,73.9933402 C83.66719,73.9933402 87.959339,75.1448222 87.864342,73.7054697 C87.864342,73.7054697 86.815054,71.7018909 86.815054,70.6526029 C86.815054,70.6526029 83.572192,59.3018686 81.37718,58.0611467 C81.37718,58.0611467 79.57511,54.8470724 79.592382,53.0392456 C79.59336,52.4604692 79.545209,51.8826541 79.448447,51.3120225 C79.127472,49.3170799 78.593472,45.4999169 79.082852,44.8018309 C79.750711,43.8475402 80.894996,39.4603936 77.6521352,36.502524 L68.3078583,38.3175476 Z" id="Path" fill="#196690" fill-rule="nonzero"></path>
                <path d="M87.861463,73.7083484 C87.861463,73.7083484 86.812175,71.7047696 86.812175,70.6554816 C86.812175,70.6554816 83.569314,59.3047473 81.374301,58.0640254 C81.374301,58.0640254 79.572231,54.8499511 79.589504,53.0421243 C79.590481,52.4633479 79.54233,51.8855328 79.445568,51.3149012 C79.124593,49.3199586 78.590593,45.5027956 79.079973,44.8047096 C79.747832,43.8504189 80.892118,39.4632723 77.6492565,36.5054028 L77.0965451,36.6133542 C80.19691,39.568345 79.072776,43.8619337 78.413553,44.8047096 C77.7543292,45.7474855 78.989294,52.5311542 78.989294,52.5311542 C78.512868,54.1533045 80.706441,58.0640254 80.706441,58.0640254 C82.900015,59.3047473 86.144315,70.6554816 86.144315,70.6554816 C86.144315,71.7047696 87.193603,73.7083484 87.193603,73.7083484 C87.225269,74.180456 86.77763,74.3718899 86.164466,74.4165098 C87.088531,74.4697659 87.904643,74.3402242 87.861463,73.7083484 Z" id="Path" fill="#000000" fill-rule="nonzero" opacity="0.1"></path>
                <path d="M72.6950049,13.4210664 C72.6950049,13.4210664 74.5071498,16.187502 74.0307241,17.0453561 L78.704302,15.8938741 C78.704302,15.8938741 77.46358,14.5581549 77.7500111,11.3152936 L72.6950049,13.4210664 Z" id="Path" fill="#FDB797" fill-rule="nonzero"></path>
                <path d="M79.372161,15.4246452 C79.372161,15.4246452 75.4614406,14.5610336 72.9814361,17.5232212 C71.8587411,18.8618191 71.2441376,19.7714899 70.9073291,20.3645031 C70.5900056,20.9135493 70.2218349,21.4315905 69.8076637,21.9118071 C69.1873028,22.6444376 68.4273246,24.2234074 68.784284,27.443239 L67.632802,37.7446853 C67.632802,37.7446853 70.9720999,37.4568148 71.8299541,37.7446853 C72.6878082,38.0325558 78.698544,37.0768257 78.698544,37.0768257 C78.698544,37.0768257 76.3135373,34.2153928 79.079973,27.5382363 C81.846409,20.8610798 79.372161,15.4246452 79.372161,15.4246452 Z" id="Path" fill="#000000" fill-rule="nonzero" opacity="0.1"></path>
                <path d="M79.372161,15.3296479 C79.372161,15.3296479 75.4614406,14.4660363 72.9814361,17.4282239 C71.8587411,18.7668218 71.2441376,19.6764926 70.9073291,20.2695059 C70.5900056,20.818552 70.2218349,21.3365932 69.8076637,21.8168099 C69.1873028,22.5494403 68.4273246,24.1284101 68.784284,27.3482418 L67.632802,37.649688 C67.632802,37.649688 70.9720999,37.3618175 71.8299541,37.649688 C72.6878082,37.9375586 78.698544,36.9818285 78.698544,36.9818285 C78.698544,36.9818285 76.3135373,34.1203956 79.079973,27.443239 C81.846409,20.7660825 79.372161,15.3296479 79.372161,15.3296479 Z" id="Path" fill="#D1103A" fill-rule="nonzero"></path>
                <path d="M74.6510851,24.148561 C74.6510851,24.148561 70.9303587,29.4943164 69.2160898,30.4486072 L68.2617991,30.9250329 C68.2617991,30.9250329 74.2696566,24.148561 74.6510851,24.148561 Z" id="Path" fill="#000000" fill-rule="nonzero" opacity="0.1"></path>
                <path d="M71.1692912,21.4339421 C71.1692912,21.4339421 73.6161906,20.4710152 74.6654786,23.6634992 C74.7524554,23.9273891 74.6896582,24.2176882 74.5013924,24.422038 L68.784284,30.5911031 C68.784284,30.5911031 67.1621337,31.5453938 66.3992768,30.9725315 C65.63642,30.3996692 55.8113994,28.6825216 55.8113994,28.6825216 C55.8113994,28.6825216 53.0838263,29.484241 51.9697674,28.1470824 C51.8881749,28.0498931 51.855779,27.9205955 51.8819072,27.7964166 C51.9080353,27.6722376 51.989788,27.5669576 52.1036272,27.5108886 C52.6361877,27.2417297 53.5242682,27.3971798 54.5721169,27.267638 C55.3765596,27.1715841 56.1904849,27.1885409 56.9902292,27.3180154 C60.2618775,27.8304249 67.9696105,28.6767642 69.1657125,25.5346575 C70.6914262,21.5303787 71.1692912,21.4339421 71.1692912,21.4339421 Z" id="Path" fill="#FDB797" fill-rule="nonzero"></path>
                <path d="M71.1217926,21.4814407 C71.1217926,21.4814407 74.0782228,21.005015 74.7460823,23.9614452 L74.7460823,23.7700113 C74.7460823,23.7700113 73.8882282,20.5285893 71.1217926,21.4814407 Z" id="Path" fill="#000000" fill-rule="nonzero" opacity="0.1"></path>
                <path d="M77.8522052,11.5139242 L72.7900022,13.6125003 C72.7900022,13.6125003 73.0188593,13.9608236 73.2908969,14.4487641 C73.7845948,14.6473948 74.4668479,14.5192924 75.0310741,14.5192924 C76.1825562,14.5192924 77.0245774,14.215589 77.7975098,13.4700044 C77.7269815,12.8971421 77.7759195,12.3041288 77.8522052,11.5139242 Z" id="Path" fill="#000000" fill-rule="nonzero" opacity="0.1"></path>
                <circle id="Oval" fill="#FDB797" fill-rule="nonzero" cx="74.793581" cy="10.2732023" r="4.29214933"></circle>
                <path d="M74.8007777,9.6931433 C74.8943357,10.0241943 74.6194193,10.3307764 74.4207887,10.6114502 C73.7255814,11.594528 73.8536838,12.9331259 74.1717807,14.093244 C74.3272307,14.6617883 74.5604059,15.2663164 75.0684973,15.5642624 C75.4743947,15.8017555 75.9738501,15.7916801 76.4286855,15.9111463 C77.2476771,16.1256099 77.9097793,16.7747579 78.299844,17.5217818 C78.689908,18.2688058 78.829526,19.130978 78.875585,19.9773173 C79.014671,22.425345 78.426218,24.8597874 77.1843456,26.9740101 C78.458173,27.1913523 79.77518,26.6112933 80.689169,25.6944257 C81.603158,24.7775581 82.152991,23.5627445 82.537298,22.3292194 C82.890373,21.1952545 83.1163,20.0255545 83.210915,18.8416681 C83.313109,17.5548869 83.259853,16.2623483 83.210915,14.9726885 C83.149023,13.468565 83.077055,11.9241397 82.469648,10.5466793 C82.232155,10.0083615 81.915497,9.5017094 81.768683,8.9317258 C81.687641,8.5412915 81.631394,8.1461188 81.600279,7.748578 C81.401649,6.1897591 80.663261,4.6784389 79.452765,3.6766496 C78.24227,2.6748602 76.5510304,2.237297 75.0368316,2.6503912 C74.17322,2.8907631 73.3988483,3.3873397 72.6820508,3.931415 C71.5219326,4.8137381 70.1905315,6.2343791 71.0095231,7.7456992 C71.7220026,9.0684642 73.2966543,9.9291971 74.8007777,9.6931433 Z" id="Path" fill="#000000" fill-rule="nonzero" opacity="0.1"></path>
                <path d="M74.895775,9.598146 C74.9893329,9.9291971 74.7144166,10.2357792 74.5157859,10.5164529 C73.8205786,11.4995307 73.948681,12.8381286 74.2667779,13.9982468 C74.422228,14.566791 74.6554031,15.1713191 75.1634946,15.4692651 C75.569392,15.7067583 76.0688473,15.6966828 76.5236828,15.8161491 C77.3426744,16.0306126 78.004777,16.6797606 78.394841,17.4267846 C78.784906,18.1738085 78.924523,19.0359807 78.970582,19.88232 C79.109662,22.3320855 78.520173,24.7681752 77.2764641,26.8833309 C78.550291,27.1006731 79.867299,26.520614 80.781288,25.6037465 C81.695277,24.6868789 82.245109,23.4720653 82.629416,22.2385402 C82.982492,21.1045753 83.208418,19.9348753 83.303033,18.7509889 C83.405227,17.4642077 83.351971,16.1716691 83.303033,14.8820092 C83.241141,13.3778858 83.169174,11.8334605 82.561767,10.4560001 C82.324274,9.9176823 82.007616,9.4110302 81.860802,8.8410465 C81.779759,8.4506123 81.723512,8.0554396 81.692398,7.6578987 C81.493767,6.0990799 80.755379,4.5877597 79.544884,3.5859703 C78.334388,2.584181 76.643149,2.1466178 75.1289501,2.559712 C74.2653386,2.8000838 73.4909669,3.2966605 72.7741693,3.8407357 C71.6140512,4.7230589 70.28265,6.1436998 71.1016417,7.65502 C71.8184392,8.973467 73.3902122,9.8341998 74.895775,9.598146 Z" id="Path" fill="#72351C" fill-rule="nonzero"></path>
                <path d="M75.3189447,30.9250329 C75.3189447,30.9250329 77.1310895,30.9250329 77.7989491,30.0614213" id="Path" fill="#000000" fill-rule="nonzero" opacity="0.1"></path>
                <path d="M75.3189447,31.5928925 C75.3189447,31.5928925 77.1310895,31.5928925 77.7989491,30.7292809" id="Path" fill="#000000" fill-rule="nonzero" opacity="0.1"></path>
                <path d="M77.0360923,20.6235866 C77.0360923,20.6235866 76.7482218,22.9135965 75.7003731,23.9628845" id="Path" fill="#000000" fill-rule="nonzero" opacity="0.1"></path>
                <g id="Group" opacity="0.1" transform="translate(34.574102, 77.573010)" fill="url(#linearGradient-2)" fill-rule="nonzero">
                    <polygon id="Path" points="1.365 0.725 1.365 0.645 1.245 0.685"></polygon>
                </g>
                <g id="Group" opacity="0.1" transform="translate(34.854426, 77.429075)" fill="url(#linearGradient-3)" fill-rule="nonzero">
                    <path d="M0.838333333,0.816666667 C0.863973622,0.817903383 0.889477236,0.808835431 0.913333333,0.79 C0.656666667,0.61 -0.641666667,-0.243333333 0.838333333,0.816666667 Z" id="Path"></path>
                </g>
                <path d="M49.8927817,27.2518051 C49.1644693,26.8962851 47.6099685,26.2888783 46.2742493,26.7912123 C46.2742493,26.7912123 33.4640116,29.3302302 31.849058,25.2280754 C31.7732521,25.0361618 31.6998451,24.8514449 31.628837,24.6739247 C31.6611426,24.405068 31.6750887,24.1343223 31.6705783,23.8635692 C31.6761528,23.530615 31.6525531,23.1978124 31.60005,22.8689766 C31.5155847,22.3877242 31.3306921,21.9296613 31.0574141,21.5246213 C30.7396486,20.9919602 30.4795753,20.4269402 30.281603,19.8391395 C29.6529292,18.1255948 28.3205197,16.7633201 26.6213295,16.0968228 C26.6457985,15.4836586 27.0790436,14.5783058 27.4719868,13.8744624 L27.484941,13.8744624 L27.6044073,13.6729531 C29.2968684,13.0282327 30.4211648,11.4120566 30.4370531,9.6010247 C30.4369566,8.7483918 30.1818098,7.9152798 29.7044227,7.2088207 C31.0588534,6.9914785 30.5953819,5.8399965 29.7576787,4.8526006 C29.59523,4.6612688 29.4217318,4.4796003 29.2380724,4.3085253 C28.4201436,3.5029933 27.3904976,2.9459963 26.2686881,2.7022079 C26.1348283,2.6734208 25.9995292,2.6518305 25.86423,2.633119 C24.2315546,2.0706774 22.4308683,2.2909855 20.9819462,3.2304503 C20.6242289,2.2152393 19.6603215,1.5400413 18.5839848,1.5507258 C17.1906915,1.5507258 16.0622391,2.6431944 16.0622391,3.9976252 C16.0622391,5.3520559 17.1906915,6.4445245 18.5839848,6.4445245 L18.72792,6.4445245 C18.6346486,6.8296269 18.5863477,7.224246 18.5839848,7.6204756 C18.5839848,10.0846472 20.3299194,12.1544361 22.6904576,12.7330559 L22.7321989,12.7719184 C22.7321989,12.8122203 22.7250021,12.8539615 22.7192447,12.8942634 L22.7293202,12.9028995 C22.6393848,13.6277781 22.4106805,14.3285514 22.0557032,14.966931 L21.9664633,14.9453408 C20.1053804,16.2407581 19.4317634,18.2054743 19.4475963,20.2522336 C19.4375209,21.9909715 19.9182646,23.8103132 20.5990784,25.2899676 C20.8491245,25.8815751 20.972675,26.518939 20.9617952,27.1611259 C20.9258114,29.3777289 19.9053104,32.0376524 19.2115425,33.5950319 C18.9366262,34.2125141 14.9510589,43.8504189 14.9510589,43.8504189 L15.0417381,43.8273892 L14.9510589,44.0461708 C15.8233066,43.8014809 16.7588857,43.9137504 17.5534084,44.1282139 C18.6583724,44.4183267 19.8335632,44.2523686 20.8149813,43.6676211 C20.9216888,44.1304849 21.1051002,44.5722292 21.3576172,44.9745532 C21.8743447,45.6942295 21.3101185,49.5977536 20.9704313,51.6401949 C20.8709492,52.2240387 20.8227868,52.8154729 20.8264961,53.4077199 C20.8452077,55.2601666 18.9395049,58.5505266 18.9395049,58.5505266 C16.6192685,59.8200355 13.1892914,71.4413681 13.1892914,71.4413681 C13.1892914,72.0631684 12.8179384,73.0102624 12.5055989,73.6997123 L12.5055989,73.6997123 C12.2781812,74.2020463 12.0737932,74.5633238 12.0737932,74.5633238 C12.0708226,74.5987657 12.0708226,74.634394 12.0737932,74.6698359 C12.0737932,74.6698359 12.0737932,74.6799114 12.0737932,74.6842294 C12.0762095,74.7026222 12.0795725,74.7208783 12.0838686,74.7389248 L10.7596643,78.0796621 C14.3911508,80.0328635 19.3338875,80.3264915 19.3338875,80.3264915 C23.267638,80.614362 21.1503504,78.471166 21.1503504,78.471166 C18.7034511,78.471166 17.0194086,76.0703259 16.3385948,74.9001323 L16.5098778,74.8583911 C16.0061044,71.5378047 23.2748348,60.4044127 23.2748348,60.4044127 L25.5950711,57.4738909 L27.007076,53.943159 C27.4000192,53.4566579 27.7900838,52.6851649 28.158558,51.7754941 L31.5467939,59.7005693 C31.3452846,64.5842925 34.9767711,74.1545477 34.9767711,74.1545477 C35.5395579,74.7907415 35.666221,76.1883528 35.6806145,76.3783474 L35.7828085,76.3438029 L35.5812992,79.7219634 C36.7917947,80.5035318 45.8712306,78.1588265 45.8712306,78.1588265 C48.0907123,76.7914416 46.6787074,76.401377 46.6787074,76.401377 C44.4131665,77.1325681 41.1285639,75.5636738 39.6258799,74.7302887 L39.8230712,74.6439275 C38.4110663,73.8623591 36.1915847,58.4324997 36.1915847,58.4324997 C36.7975521,56.3814223 35.1840379,52.6750894 35.1840379,52.6750894 C35.368275,51.2501304 34.2081568,46.4642831 33.2725777,42.9335513 C34.4736241,42.9233217 35.6710893,42.8009248 36.8493688,42.5679557 C36.7745224,42.5204571 36.7054335,42.4700798 36.6291478,42.4240205 C36.7730831,42.3966728 36.8493688,42.3794006 36.8493688,42.3794006 C33.7317311,40.3858973 31.9555701,33.652606 31.1883952,29.8383217 C31.3802863,30.0012241 31.587017,30.145791 31.8058774,30.2701275 L32.8134242,30.758068 L32.698276,30.6328443 C33.2610628,30.8818523 34.2311865,31.2085853 34.7810192,30.807006 C35.5884959,30.2211895 45.9777427,28.46374 45.9777427,28.46374 C45.9777427,28.46374 48.8564478,29.2856103 50.041035,27.9153467 C50.1305949,27.8146873 50.1662643,27.6770905 50.1368854,27.5455984 C50.1075065,27.4141063 50.0166666,27.3047751 49.8927817,27.2518051 Z" id="Path" fill="url(#linearGradient-4)" fill-rule="nonzero"></path>
                <circle id="Oval" fill="#FFC533" fill-rule="nonzero" cx="24.3802575" cy="8.6035534" r="5.15144281"></circle>
                <path d="M28.2434798,13.7074976 C28.2434798,13.7074976 26.4313349,16.4739332 26.9077606,17.3317873 L22.2341829,16.1803052 C22.2341829,16.1803052 23.4749048,14.8445861 23.1884736,11.6017248 L28.2434798,13.7074976 Z" id="Path" fill="#FDB797" fill-rule="nonzero"></path>
                <path d="M23.092037,11.8003554 L28.1470432,13.8989314 C28.1470432,13.8989314 27.9181861,14.2472548 27.6461485,14.7351953 C27.1524506,14.9338259 26.4701975,14.8057236 25.9059713,14.8057236 C24.7544892,14.8057236 23.912468,14.5020202 23.1395356,13.7564355 C23.2115033,13.1835732 23.1568079,12.59056 23.092037,11.8003554 Z" id="Path" fill="#000000" fill-rule="nonzero" opacity="0.1"></path>
                <circle id="Oval" fill="#FDB797" fill-rule="nonzero" cx="26.1449038" cy="10.5596335" r="4.29214933"></circle>
                <circle id="Oval" fill="#FFC533" fill-rule="nonzero" cx="19.2288147" cy="5.0742609" r="2.38500719"></circle>
                <path d="M29.1934525,8.2581088 C28.1196955,8.2393972 26.8991245,8.0234943 26.0945264,8.7330951 C25.5187854,9.2426259 25.3633353,10.0659356 25.1675834,10.8115202 C24.8797129,11.9313365 24.2204894,13.1619829 23.0747648,13.3289478 C22.3752394,13.4311419 21.671396,13.0828185 21.1748194,12.5790451 C20.6782428,12.0752717 20.3572671,11.4275631 20.0535638,10.7928086 C19.7498604,10.1580541 19.4533537,9.4973913 19.4778227,8.7935479 C19.5080491,7.9572841 19.9959897,7.2102601 20.4940056,6.5409612 C20.7943912,6.120667 21.1289786,5.725902 21.4943557,5.3606921 C22.6349959,4.2615741 24.1869161,3.6955296 25.7673427,3.8021707 C27.3477692,3.9088118 28.8095788,4.6782112 29.7922232,5.9206002 C30.6860611,7.0044327 31.1308211,8.2912139 29.1934525,8.2581088 Z" id="Path" fill="#000000" fill-rule="nonzero" opacity="0.1"></path>
                <path d="M29.0984552,8.1631115 C28.0246982,8.1443999 26.8041273,7.928497 25.9995292,8.6380978 C25.4237882,9.1476286 25.2683381,9.9709383 25.0725861,10.7165229 C24.7847156,11.8363392 24.1254921,13.0669857 22.9797675,13.2339506 C22.2802422,13.3361446 21.5763988,12.9878213 21.0798221,12.4840479 C20.5832455,11.9802745 20.2622699,11.3325658 19.9585665,10.6978113 C19.6548631,10.0630569 19.3583565,9.402394 19.3828255,8.6985506 C19.4130519,7.8622868 19.9009924,7.1152628 20.3990084,6.4459639 C20.6993939,6.0256697 21.0339814,5.6309047 21.3993584,5.2656948 C22.5399986,4.1665768 24.0919188,3.6005323 25.6723454,3.7071734 C27.252772,3.8138145 28.7145816,4.5832139 29.6972259,5.8256029 C30.5896245,6.9094354 31.0358238,8.1962166 29.0984552,8.1631115 Z" id="Path" fill="#FFC533" fill-rule="nonzero"></path>
                <path d="M38.3549316,73.7083484 C38.3549316,73.7083484 42.9335121,76.7612152 45.7949449,75.8069244 C45.7949449,75.8069244 47.1306641,76.1883528 45.0320881,77.524072 C45.0320881,77.524072 36.4463501,79.8140819 35.3020648,79.0497857 L35.5899353,74.0897768 L38.3549316,73.7083484 Z" id="Path" fill="#333333" fill-rule="nonzero"></path>
                <path d="M16.7963089,73.7083484 C16.7963089,73.7083484 18.6084538,77.8105032 21.6613206,77.8105032 C21.6613206,77.8105032 23.6648993,79.9090792 19.944173,79.622648 C19.944173,79.622648 15.2705952,79.3347775 11.8363,77.4290747 L13.4786013,73.1484402 L16.7963089,73.7083484 Z" id="Path" fill="#333333" fill-rule="nonzero"></path>
                <path d="M32.0592035,39.1768411 C32.0592035,39.1768411 35.2070675,50.3375809 34.9206363,52.6261514 C34.9206363,52.6261514 36.4463501,56.2504412 35.8749271,58.2540199 C35.8749271,58.2540199 37.9735031,73.3254806 39.3092223,74.0868981 C39.3092223,74.0868981 35.4229704,75.8457869 35.3035041,75.8040457 C33.967785,75.32762 35.3985014,75.8040457 35.3985014,75.8040457 C35.3985014,75.8040457 35.3035041,74.278332 34.7306418,73.6104724 C34.7306418,73.6104724 31.2963466,64.2618775 31.4877805,59.4933025 L26.9092,48.42756 L32.0592035,39.1768411 Z" id="Path" fill="#3AD29F" fill-rule="nonzero"></path>
                <path d="M32.0592035,39.1768411 C32.0592035,39.1768411 35.2070675,50.3375809 34.9206363,52.6261514 C34.9206363,52.6261514 36.4463501,56.2504412 35.8749271,58.2540199 C35.8749271,58.2540199 37.9735031,73.3254806 39.3092223,74.0868981 C39.3092223,74.0868981 35.4229704,75.8457869 35.3035041,75.8040457 C33.967785,75.32762 35.3985014,75.8040457 35.3985014,75.8040457 C35.3985014,75.8040457 35.3035041,74.278332 34.7306418,73.6104724 C34.7306418,73.6104724 31.2963466,64.2618775 31.4877805,59.4933025 L26.9092,48.42756 L32.0592035,39.1768411 Z" id="Path" fill="#000000" fill-rule="nonzero" opacity="0.1"></path>
                <path d="M32.6320658,38.6039788 L30.5334897,43.5639877 C30.5334897,43.5639877 28.9113394,51.6718607 27.1941918,53.865434 L25.8584726,57.2997292 L23.6648993,60.1611621 C23.6648993,60.1611621 16.7963089,71.0354707 17.274174,74.278332 C17.274174,74.278332 12.9820246,75.429814 13.0770219,73.9904615 C13.0770219,73.9904615 14.1263099,71.9868827 14.1263099,70.9375947 C14.1263099,70.9375947 17.3691712,59.5868604 19.5641839,58.3461385 C19.5641839,58.3461385 21.3662533,55.1320642 21.3489811,53.3242374 C21.3480036,52.745461 21.3961549,52.1676459 21.4929163,51.5970143 C21.8138919,49.6020717 22.3478917,45.7849087 21.8585119,45.0868227 C21.1906523,44.132532 20.046367,39.7453854 23.2892283,36.7875159 L32.6320658,38.6039788 Z" id="Path" fill="#3AD29F" fill-rule="nonzero"></path>
                <path d="M13.08134,73.9933402 C13.08134,73.9933402 14.130628,71.9897614 14.130628,70.9404734 C14.130628,70.9404734 17.3734893,59.5897391 19.5685019,58.3490172 C19.5685019,58.3490172 21.3705713,55.1349429 21.3532991,53.3271161 C21.3523217,52.7483397 21.4004729,52.1705246 21.4972344,51.5998931 C21.81821,49.6049504 22.3522098,45.7877874 21.8628299,45.0897014 C21.1949703,44.1354107 20.050685,39.7482641 23.2935464,36.7903946 L23.8462578,36.898346 C20.7358169,39.8547762 21.8613906,44.1555616 22.520614,45.0911408 C23.1798375,46.0267199 21.944873,52.8175853 21.944873,52.8175853 C22.4212987,54.4397357 20.2277254,58.3504566 20.2277254,58.3504566 C18.0341521,59.5911785 14.7898514,70.9419128 14.7898514,70.9419128 C14.7898514,71.9912008 13.7405634,73.9947795 13.7405634,73.9947795 C13.7088977,74.4668872 14.1565363,74.6583211 14.7697005,74.702941 C13.8499542,74.756197 13.0338413,74.6266553 13.08134,73.9933402 Z" id="Path" fill="#000000" fill-rule="nonzero" opacity="0.1"></path>
                <path d="M22.4284955,15.9442514 L25.9736208,16.8164991 C27.9839477,17.3135182 29.6078264,18.7912479 30.2916785,20.7459316 C30.4779394,21.3187975 30.7234796,21.8706599 31.024309,22.3925509 C31.2834912,22.7907847 31.4579147,23.2381122 31.5367185,23.7066798 C31.6806537,24.6408196 31.6691389,26.1535791 30.6903792,27.8692874 C30.6903792,27.8692874 32.3038934,39.9843179 36.4938487,42.7507535 C36.4938487,42.7507535 32.4046481,43.6920901 28.8206602,42.5276539 C26.4183808,41.7475248 23.7829262,42.0756972 21.7246521,43.5495942 L21.6354122,43.614365 C20.6699864,44.3357371 19.4272389,44.5749514 18.2630092,44.2635131 C17.5116671,44.0548069 16.6264653,43.9454161 15.8017163,44.1843487 C15.8017163,44.1843487 19.5713806,34.7724223 19.8319035,34.1678942 C20.7099085,32.1254529 22.1492611,28.141325 21.1417143,25.8757841 C19.7412242,22.7221626 19.2288147,18.0485849 22.4284955,15.9442514 Z" id="Path" fill="#000000" fill-rule="nonzero" opacity="0.1"></path>
                <path d="M22.4284955,15.7585749 L25.9736208,16.6308226 C27.9839477,17.1278418 29.6078264,18.6055714 30.2916785,20.5602551 C30.4779394,21.133121 30.7234796,21.6849834 31.024309,22.2068744 C31.2834912,22.6051082 31.4579147,23.0524358 31.5367185,23.5210033 C31.6806537,24.4551431 31.6691389,25.9679027 30.6903792,27.6836109 C30.6903792,27.6836109 32.3038934,39.7986414 36.4938487,42.565077 C36.4938487,42.565077 32.4046481,43.5064136 28.8206602,42.3419774 C26.4183808,41.5618483 23.7829262,41.8900207 21.7246521,43.3639177 L21.6354122,43.4286886 C20.669268,44.1485672 19.4265829,44.3861783 18.2630092,44.0735185 C17.5116671,43.8648124 16.6264653,43.7554216 15.8017163,43.9943541 C15.8017163,43.9943541 19.5713806,34.5824277 19.8319035,33.9778997 C20.7099085,31.934019 22.1492611,27.9498911 21.1417143,25.6785928 C19.7412242,22.5307287 19.2288147,18.0485849 22.4284955,15.7585749 Z" id="Path" fill="#535461" fill-rule="nonzero"></path>
                <path d="M26.288839,24.4364315 C26.288839,24.4364315 30.0095654,29.7778689 31.726713,30.7321596 L32.6810038,31.2085853 C32.6810038,31.2085853 26.6702675,24.4364315 26.288839,24.4364315 Z" id="Path" fill="#000000" fill-rule="nonzero" opacity="0.1"></path>
                <path d="M29.7691935,21.7203733 C29.7691935,21.7203733 27.3222942,20.7574464 26.2730062,23.9499304 C26.1860294,24.2138203 26.2488265,24.5041194 26.4370924,24.7084692 L32.1542007,30.8789736 C32.1542007,30.8789736 33.7763511,31.8332643 34.5392079,31.260402 C35.3020648,30.6875397 45.1270854,28.9703921 45.1270854,28.9703921 C45.1270854,28.9703921 47.8359469,29.7663541 48.9572025,28.4479071 C49.041423,28.3503729 49.0766117,28.2197776 49.0527958,28.0931332 C49.0289799,27.9664887 48.948755,27.8575973 48.8348575,27.7973198 C48.2432836,27.4993738 47.1608905,27.5094493 45.9964543,27.4101339 C45.5937369,27.3753597 45.1881941,27.3937495 44.7902769,27.4648293 C42.3001969,27.9067106 33.0883405,29.2798529 31.7727723,25.8225281 C30.2470586,21.8153705 29.7691935,21.7203733 29.7691935,21.7203733 Z" id="Path" fill="#FDB797" fill-rule="nonzero"></path>
                <path d="M29.8181315,21.7678719 C29.8181315,21.7678719 26.8617014,21.2914462 26.1938418,24.2478763 L26.1938418,24.0564425 C26.1938418,24.0564425 27.0516959,20.8135811 29.8181315,21.7678719 Z" id="Path" fill="#000000" fill-rule="nonzero" opacity="0.1"></path>
                <path d="M48.9125826,73.0865481 C48.9125826,73.0865481 46.644163,65.3860119 49.3443884,59.7178415 C50.4885809,57.3482534 50.8335253,54.6715255 50.3274662,52.0892729 C50.0772688,50.8650633 49.7154386,49.6663503 49.2465124,48.5081638" id="Path" stroke="#535461" stroke-width="2"></path>
                <path d="M50.9176007,44.9227365 C50.9176007,45.8669518 49.2090892,48.603161 49.2090892,48.603161 C49.2090892,48.603161 47.5005777,45.8683912 47.5005777,44.9227365 C47.5005777,44.312087 47.8263553,43.7478236 48.3551933,43.4424988 C48.8840313,43.137174 49.5355865,43.137174 50.0644245,43.4424988 C50.5932625,43.7478236 50.9190401,44.312087 50.9190401,44.9227365 L50.9176007,44.9227365 Z" id="Path" fill="#B3143C" fill-rule="nonzero"></path>
                <path d="M53.7416104,50.150465 C53.2292009,50.9421089 50.3073152,52.3094939 50.3073152,52.3094939 C50.3073152,52.3094939 50.3605713,49.0839048 50.8729808,48.2908215 C51.3861097,47.4986713 52.4442475,47.2724799 53.2363977,47.7856088 C54.0285479,48.2987377 54.2547393,49.3568755 53.7416104,50.1490257 L53.7416104,50.150465 Z" id="Path" fill="#B3143C" fill-rule="nonzero"></path>
                <path d="M53.6178261,59.0845264 C52.7758049,59.5163321 49.5617306,59.2155074 49.5617306,59.2155074 C49.5617306,59.2155074 51.2356976,56.4577079 52.0791582,56.0316596 C52.6242432,55.756803 53.2745568,55.7936244 53.7851321,56.1282536 C54.2957074,56.4628828 54.5889758,57.0444816 54.5544661,57.6539674 C54.5199563,58.2634532 54.1629112,58.8082305 53.6178261,59.083087 L53.6178261,59.0845264 Z" id="Path" fill="#B3143C" fill-rule="nonzero"></path>
                <path d="M52.0028725,65.8235751 C51.2443337,66.3849226 48.0273808,66.6382486 48.0273808,66.6382486 C48.0273808,66.6382486 49.2119679,63.6371985 49.9705067,63.075851 C50.4613403,62.7128038 51.1085727,62.639191 51.6683976,62.8827418 C52.2282225,63.1262926 52.6155893,63.6500058 52.6845805,64.2566038 C52.7535718,64.8632018 52.4937062,65.4605279 52.0028725,65.8235751 Z" id="Path" fill="#B3143C" fill-rule="nonzero"></path>
                <path d="M46.7190093,52.4951703 C47.395505,53.1529545 50.5505658,53.8337682 50.5505658,53.8337682 C50.5505658,53.8337682 49.7776335,50.7002977 49.1011378,50.0439529 C48.6690544,49.5929144 48.0252787,49.41361 47.4222463,49.5763481 C46.8192139,49.7390862 46.3530492,50.2179261 46.2065434,50.8251064 C46.0600377,51.4322866 46.2565442,52.0710216 46.7190093,52.4908523 L46.7190093,52.4951703 Z" id="Path" fill="#B3143C" fill-rule="nonzero"></path>
                <path d="M44.9298941,60.3986553 C45.7719153,60.830461 48.9859896,60.5296363 48.9859896,60.5296363 C48.9859896,60.5296363 47.3105832,57.7718368 46.4743194,57.3472278 C45.9292343,57.0723712 45.2789208,57.1091927 44.7683455,57.4438219 C44.2577702,57.7784511 43.9645017,58.3600499 43.9990115,58.9695356 C44.0335213,59.5790214 44.3905664,60.1237987 44.9356515,60.3986553 L44.9298941,60.3986553 Z" id="Path" fill="#B3143C" fill-rule="nonzero"></path>
                <path d="M44.2447622,68.3208517 C45.003301,68.8821992 48.220254,69.1355253 48.220254,69.1355253 C48.220254,69.1355253 47.0356668,66.1344752 46.277128,65.5731277 C45.518365,65.0119054 44.4483054,65.1720438 43.8870831,65.9308068 C43.3258608,66.6895699 43.4859992,67.7596294 44.2447622,68.3208517 Z" id="Path" fill="#B3143C" fill-rule="nonzero"></path>
                <path d="M50.9176007,44.9227365 C50.9176007,45.8669518 49.2090892,48.603161 49.2090892,48.603161 C49.2090892,48.603161 47.5005777,45.8683912 47.5005777,44.9227365 C47.5005777,44.312087 47.8263553,43.7478236 48.3551933,43.4424988 C48.8840313,43.137174 49.5355865,43.137174 50.0644245,43.4424988 C50.5932625,43.7478236 50.9190401,44.312087 50.9190401,44.9227365 L50.9176007,44.9227365 Z" id="Path" fill="#FFFFFF" fill-rule="nonzero" opacity="0.5"></path>
                <path d="M53.7416104,50.150465 C53.2292009,50.9421089 50.3073152,52.3094939 50.3073152,52.3094939 C50.3073152,52.3094939 50.3605713,49.0839048 50.8729808,48.2908215 C51.3861097,47.4986713 52.4442475,47.2724799 53.2363977,47.7856088 C54.0285479,48.2987377 54.2547393,49.3568755 53.7416104,50.1490257 L53.7416104,50.150465 Z" id="Path" fill="#FFFFFF" fill-rule="nonzero" opacity="0.5"></path>
                <path d="M53.6178261,59.0845264 C52.7758049,59.5163321 49.5617306,59.2155074 49.5617306,59.2155074 C49.5617306,59.2155074 51.2356976,56.4577079 52.0791582,56.0316596 C52.6242432,55.756803 53.2745568,55.7936244 53.7851321,56.1282536 C54.2957074,56.4628828 54.5889758,57.0444816 54.5544661,57.6539674 C54.5199563,58.2634532 54.1629112,58.8082305 53.6178261,59.083087 L53.6178261,59.0845264 Z" id="Path" fill="#FFFFFF" fill-rule="nonzero" opacity="0.5"></path>
                <path d="M52.0028725,65.8235751 C51.2443337,66.3849226 48.0273808,66.6382486 48.0273808,66.6382486 C48.0273808,66.6382486 49.2119679,63.6371985 49.9705067,63.075851 C50.4613403,62.7128038 51.1085727,62.639191 51.6683976,62.8827418 C52.2282225,63.1262926 52.6155893,63.6500058 52.6845805,64.2566038 C52.7535718,64.8632018 52.4937062,65.4605279 52.0028725,65.8235751 Z" id="Path" fill="#FFFFFF" fill-rule="nonzero" opacity="0.5"></path>
                <path d="M46.7190093,52.4951703 C47.395505,53.1529545 50.5505658,53.8337682 50.5505658,53.8337682 C50.5505658,53.8337682 49.7776335,50.7002977 49.1011378,50.0439529 C48.6690544,49.5929144 48.0252787,49.41361 47.4222463,49.5763481 C46.8192139,49.7390862 46.3530492,50.2179261 46.2065434,50.8251064 C46.0600377,51.4322866 46.2565442,52.0710216 46.7190093,52.4908523 L46.7190093,52.4951703 Z" id="Path" fill="#FFFFFF" fill-rule="nonzero" opacity="0.5"></path>
                <path d="M44.9298941,60.3986553 C45.7719153,60.830461 48.9859896,60.5296363 48.9859896,60.5296363 C48.9859896,60.5296363 47.3105832,57.7718368 46.4743194,57.3472278 C45.9292343,57.0723712 45.2789208,57.1091927 44.7683455,57.4438219 C44.2577702,57.7784511 43.9645017,58.3600499 43.9990115,58.9695356 C44.0335213,59.5790214 44.3905664,60.1237987 44.9356515,60.3986553 L44.9298941,60.3986553 Z" id="Path" fill="#FFFFFF" fill-rule="nonzero" opacity="0.5"></path>
                <path d="M44.2447622,68.3208517 C45.003301,68.8821992 48.220254,69.1355253 48.220254,69.1355253 C48.220254,69.1355253 47.0356668,66.1344752 46.277128,65.5731277 C45.518365,65.0119054 44.4483054,65.1720438 43.8870831,65.9308068 C43.3258608,66.6895699 43.4859992,67.7596294 44.2447622,68.3208517 Z" id="Path" fill="#FFFFFF" fill-rule="nonzero" opacity="0.5"></path>
            </g>
            <circle id="Oval" fill="#B3143C" fill-rule="nonzero" cx="41.8137652" cy="21.5465587" r="6.29149798"></circle>
            <circle id="Oval-Copy" fill="#196690" fill-rule="nonzero" cx="58.4412955" cy="21.097166" r="6.29149798"></circle>
            <path d="M45.0589423,24.6923077 L44.3005921,24.6923077 C44.2129601,24.6923077 44.1421814,24.6704 44.088254,24.626584 C44.0343267,24.582768 43.9938817,24.5271562 43.966918,24.459747 L43.2894585,22.7104858 L40.038664,22.7104858 L39.3612045,24.459747 C39.3376112,24.5204153 39.2971663,24.5743419 39.2398684,24.6215283 C39.1825706,24.6687148 39.1117919,24.6923077 39.0275304,24.6923077 L38.2691802,24.6923077 L41.1660779,17.4475354 L42.1620445,17.4475354 L45.0589423,24.6923077 Z M40.31167,22.0026923 L43.0164524,22.0026923 L41.8789271,19.0552379 C41.804777,18.8732329 41.7323131,18.6457301 41.6615334,18.3727227 C41.6244583,18.5109116 41.5882264,18.6381447 41.5528365,18.7544256 C41.5174467,18.8707066 41.4829,18.9726615 41.4491953,19.0602935 L40.31167,22.0026923 Z" id="A" fill="#FFFFFF" fill-rule="nonzero"></path>
            <path d="M55.7258401,24.242915 L55.7258401,16.9981427 L58.0362804,16.9981427 C58.4811814,16.9981427 58.8645657,17.0419581 59.1864448,17.1295901 C59.508324,17.2172221 59.7729013,17.3419273 59.9801847,17.5037095 C60.1874681,17.6654917 60.3408219,17.8635034 60.4402505,18.0977505 C60.5396791,18.3319976 60.5893927,18.5957323 60.5893927,18.8889626 C60.5893927,19.067597 60.5615868,19.239488 60.5059742,19.4046407 C60.4503616,19.5697933 60.3661013,19.7231471 60.2531908,19.8647065 C60.1402803,20.0062659 59.998723,20.1326563 59.8285147,20.2438816 C59.6583063,20.3551068 59.4586094,20.4461079 59.229418,20.5168877 C59.7585806,20.621372 60.1579744,20.8118002 60.4276113,21.0881781 C60.6972483,21.364556 60.8320648,21.7285605 60.8320648,22.1802024 C60.8320648,22.4869145 60.7756104,22.7666587 60.6626999,23.0194433 C60.5497894,23.272228 60.3846392,23.4896195 60.1672444,23.6716245 C59.9498496,23.8536295 59.6835871,23.9943441 59.3684489,24.0937728 C59.0533107,24.1932014 58.6935192,24.242915 58.2890638,24.242915 L55.7258401,24.242915 Z M56.7066397,20.9415638 L56.7066397,23.4643421 L58.2738968,23.4643421 C58.5536451,23.4643421 58.793787,23.4323232 58.9943295,23.3682844 C59.194872,23.3042456 59.3600221,23.2140871 59.4897849,23.0978062 C59.6195477,22.9815252 59.7147618,22.8433384 59.7754302,22.6832414 C59.8360985,22.5231444 59.8664322,22.3470404 59.8664322,22.1549241 C59.8664322,21.7808028 59.7341435,21.4850492 59.4695622,21.2676544 C59.204981,21.0502595 58.8047446,20.9415638 58.2688411,20.9415638 L56.7066397,20.9415638 Z M56.7066397,20.2438816 L58.0008907,20.2438816 C58.2772686,20.2438816 58.5165678,20.2135479 58.7187955,20.1528796 C58.9210233,20.0922112 59.0887013,20.0079509 59.2218345,19.9000962 C59.3549678,19.7922414 59.4535523,19.6616379 59.5175911,19.5082819 C59.5816299,19.3549259 59.6136488,19.1872479 59.6136488,19.0052429 C59.6136488,18.5805647 59.4855731,18.2688016 59.229418,18.0699443 C58.9732629,17.8710871 58.5755543,17.7716599 58.0362804,17.7716599 L56.7066397,17.7716599 L56.7066397,20.2438816 Z" id="B" fill="#FFFFFF" fill-rule="nonzero"></path>
        </g>
    </g>
</svg>