<?xml version="1.0" encoding="UTF-8"?>
<svg width="309px" height="201px" viewBox="0 0 309 201" version="1.1" xmlns="http://www.w3.org/2000/svg" xmlns:xlink="http://www.w3.org/1999/xlink">
    <!-- Generator: Sketch 55 (78076) - https://sketchapp.com -->
    <title>undraw_problem_solving_ft81</title>
    <desc>Created with Sketch.</desc>
    <g id="principal" stroke="none" stroke-width="1" fill="none" fill-rule="evenodd">
        <g id="Intro-simulador-version-terceros-2" transform="translate(-33.000000, -163.000000)">
            <g id="undraw_problem_solving_ft81" transform="translate(33.000000, 164.000000)">
                <path d="M258.139057,198.949305 C258.344505,198.768168 258.545504,198.582327 258.742055,198.391784 C261.056281,196.145522 265.206441,191.474792 267.172983,189.23824 C267.4515,188.921454 267.581689,188.501076 267.530917,188.082478 C267.480144,187.66388 267.253224,187.286745 266.907035,187.045605 L263.087707,184.381055 C263.23533,184.30663 263.317744,184.264554 263.317744,184.264554 L260.577184,180.304292 C260.880144,174.254132 247.989869,157.789701 244.764011,155.327779 C241.538154,152.865856 252.333281,133.419278 252.333281,133.419278 C253.974742,132.78441 255.302035,131.436056 256.318349,130.006778 C256.380344,130.017849 256.441847,130.029821 256.504791,130.038839 L257.886195,129.911628 C259.077573,129.802534 260.016675,128.851092 260.109316,127.659296 C260.251364,126.031047 260.302537,124.396157 260.262597,122.762222 C260.543914,121.915293 260.549843,120.386104 262.390784,119.1729 C264.797849,117.586568 280.257415,77.8933052 273.144278,70.6274139 C273.144278,70.6274139 270.113921,66.100538 268.400145,65.5463763 C268.400145,65.5463763 268.671411,64.2207506 267.652542,63.6246964 L267.159152,62.0710243 C267.159152,62.0710243 266.496828,62.3629096 265.510614,62.8206446 C264.738219,61.6860528 264.048831,60.4972116 263.447828,59.263396 C263.789753,57.7801471 268.920132,51.2457748 264.318724,46.7280727 C259.650147,42.1443753 257.344241,39.0340926 253.866054,40.2740483 C250.387868,41.5140039 242.21536,43.3642697 242.454584,46.2792247 C242.693737,49.1941548 241.849322,50.3399085 243.355157,51.5362205 C244.860945,52.7325387 244.913347,52.6337593 244.913347,52.6337593 L244.913487,52.6335661 C244.160055,55.5756989 244.943071,58.6990596 246.995608,60.9389038 C249.048145,63.178748 252.093126,64.2327142 255.092527,63.7415085 C255.789996,65.0777092 256.365328,66.474088 256.811521,67.9136479 C256.381057,68.7307333 256.23515,69.6677763 256.396823,70.5769117 C254.830047,72.8908304 253.40519,75.2975795 252.130101,77.7839 C251.110017,79.7506133 249.22295,83.9153895 247.155249,88.3530927 C243.523473,87.1827314 240.239559,85.9988152 240.239559,85.9988152 C240.239559,85.9988152 240.049238,86.2229727 239.750244,86.5910054 C238.721829,86.4162238 237.681775,86.3185099 236.638779,86.2986807 L227.871088,77.4764655 C227.628255,77.1977974 227.214502,77.1462372 226.910606,77.3567742 L219.205311,81.0058408 C219.020097,81.1770746 218.913245,81.4166938 218.909681,81.6687968 C218.906118,81.9208998 219.006155,82.1634385 219.186456,82.3398301 L226.820543,90.4377088 C226.221453,91.0799805 227.241151,91.8649962 228.888291,92.6310756 L230.893825,94.7584504 C231.024974,94.9233967 231.222484,95.0218588 231.433249,95.0273622 C231.644014,95.0328656 231.846402,94.9448455 231.985994,94.7869687 L232.665652,94.0713228 C233.906112,94.4794718 235.134824,94.8409919 236.128092,95.1192569 C236.055238,95.476131 236.106764,95.7380709 236.338422,95.8512808 C236.758703,96.0566672 238.990472,97.2970279 242.035308,98.847478 C240.816335,101.141886 239.757205,102.891637 239.040863,103.582657 C236.847497,105.698642 236.90042,111.53728 237.012791,113.827541 C236.313461,114.874341 235.334321,116.478802 235.356079,117.225874 C231.489685,122.97959 224.614552,133.829537 223.550127,139.718849 C223.550127,139.718849 218.552895,146.379294 217.846467,155.136608 C217.140039,163.893921 208.203565,184.177996 207.636465,184.467544 C207.55035,184.511543 207.563763,184.692253 207.669663,184.958403 C204.716955,185.979131 212.392436,199.011103 213.955086,198.570522 C215.313325,198.187585 217.365863,191.243982 217.362857,189.110481 C217.410045,189.098329 217.455826,189.08979 217.503308,189.076859 C217.503308,189.076859 219.38143,184.008962 220.7992,183.285071 C222.216971,182.56118 229.49646,160.086047 229.465252,156.528942 C229.460464,155.983222 229.933288,155.067101 230.734753,153.909038 C231.295266,156.218082 232.675525,158.24536 234.619133,159.614284 C244.93315,166.4964 251.956864,187.921374 253.242199,188.336995 C253.316887,188.356428 253.394084,188.364481 253.471178,188.360883 C253.580565,191.416541 253.520157,197.210498 251.546445,197.95674 C250.952745,198.179893 250.41858,198.536906 249.98551,199" id="Path" fill="#F2F2F2" fill-rule="nonzero"></path>
                <path d="M302,153.645891 C300.011605,152.626464 297.621443,152.825497 295.826609,154.15996 C293.184891,156.184736 292.782334,160.146749 293.775717,163.335394 C294.769099,166.524038 296.848373,169.232977 298.476228,172.145588 C300.662704,176.057708 302.070844,180.53426 301.707861,185.007792 C301.344878,189.481323 299.01232,193.918564 295.122334,196.114538 C291.511761,198.152779 287.137794,198.074909 283,197.942221" id="Path" stroke="#F2F2F2"></path>
                <ellipse id="Oval" fill="#F2F2F2" fill-rule="nonzero" transform="translate(304.330966, 155.920948) rotate(-59.769460) translate(-304.330966, -155.920948) " cx="304.330966" cy="155.920948" rx="2.20930361" ry="4.54827259"></ellipse>
                <ellipse id="Oval" fill="#F2F2F2" fill-rule="nonzero" transform="translate(300.147000, 170.329497) rotate(-59.769460) translate(-300.147000, -170.329497) " cx="300.147" cy="170.329497" rx="2.20930361" ry="4.54827259"></ellipse>
                <ellipse id="Oval" fill="#F2F2F2" fill-rule="nonzero" transform="translate(291.783777, 168.162925) rotate(-59.769460) translate(-291.783777, -168.162925) " cx="291.783777" cy="168.162925" rx="2.20930361" ry="4.54827259"></ellipse>
                <ellipse id="Oval" fill="#F2F2F2" fill-rule="nonzero" transform="translate(296.861232, 185.261517) rotate(-59.769460) translate(-296.861232, -185.261517) " cx="296.861232" cy="185.261517" rx="2.20930361" ry="4.54827259"></ellipse>
                <ellipse id="Oval" fill="#F2F2F2" fill-rule="nonzero" transform="translate(304.720444, 189.841901) rotate(-59.769460) translate(-304.720444, -189.841901) " cx="304.720444" cy="189.841901" rx="2.20930361" ry="4.54827259"></ellipse>
                <path d="M275.650316,150 C273.368722,150.129557 271.355933,151.544313 270.451617,153.654079 C269.151679,156.812937 270.825446,160.523474 273.338079,162.826958 C275.850711,165.130442 279.078338,166.447074 282.010903,168.177719 C285.94983,170.502258 289.489279,173.729104 291.460146,177.871256 C293.431012,182.013407 293.640635,187.144334 291.32397,191.101494 C289.173706,194.774415 285.263821,196.972644 281.534806,199" id="Path" stroke="#3F3D56"></path>
                <ellipse id="Oval" fill="#BF0C3F" fill-rule="nonzero" cx="279.5" cy="150.5" rx="4.5" ry="2.5"></ellipse>
                <ellipse id="Oval" fill="#BF0C3F" fill-rule="nonzero" cx="283.5" cy="165.5" rx="4.5" ry="2.5"></ellipse>
                <ellipse id="Oval" fill="#BF0C3F" fill-rule="nonzero" cx="275.5" cy="167.5" rx="4.5" ry="2.5"></ellipse>
                <ellipse id="Oval" fill="#BF0C3F" fill-rule="nonzero" cx="287.5" cy="180.5" rx="4.5" ry="2.5"></ellipse>
                <ellipse id="Oval" fill="#BF0C3F" fill-rule="nonzero" cx="297.5" cy="180.5" rx="4.5" ry="2.5"></ellipse>
                <path d="M173,198.5 L302,198.5" id="Path" stroke="#3F3D56"></path>
                <path d="M204.993208,89.2308087 C204.993208,89.2308087 190.354093,91.2768789 192.153217,88.6949056 C193.952341,86.1129323 203.532142,83.5331886 205.289095,84.0719627 C207.046048,84.6107369 204.993208,89.2308087 204.993208,89.2308087 Z" id="Path" fill="#FFC1C7" fill-rule="nonzero"></path>
                <path d="M204.993208,89.2308087 C204.993208,89.2308087 190.354093,91.2768789 192.153217,88.6949056 C193.952341,86.1129323 203.532142,83.5331886 205.289095,84.0719627 C207.046048,84.6107369 204.993208,89.2308087 204.993208,89.2308087 Z" id="Path" fill="#000000" fill-rule="nonzero" opacity="0.1"></path>
                <path d="M222.268908,57.5945207 C222.268908,57.5945207 213.078296,60.1053909 217.337358,68.0944599 C217.337358,68.0944599 224.286359,82.0182941 221.372263,82.9313314 C218.458168,83.8443688 205.008489,83.3878533 205.008489,83.3878533 C205.008489,83.3878533 201.870234,91.1486773 203.43935,91.3769382 C205.008467,91.6051991 230.114537,96.8551656 232.804473,91.83346 C235.494409,86.8117545 232.804473,65.1270932 232.804473,65.1270932 C232.804473,65.1270932 228.993746,54.3988962 222.268908,57.5945207 Z" id="Path" fill="#BF0C3F" fill-rule="nonzero"></path>
                <path d="M222.268908,57.5945207 C222.268908,57.5945207 213.078296,60.1053909 217.337358,68.0944599 C217.337358,68.0944599 224.286359,82.0182941 221.372263,82.9313314 C218.458168,83.8443688 205.008489,83.3878533 205.008489,83.3878533 C205.008489,83.3878533 201.870234,91.1486773 203.43935,91.3769382 C205.008467,91.6051991 230.114537,96.8551656 232.804473,91.83346 C235.494409,86.8117545 232.804473,65.1270932 232.804473,65.1270932 C232.804473,65.1270932 228.993746,54.3988962 222.268908,57.5945207 Z" id="Path" fill="#000000" fill-rule="nonzero" opacity="0.1"></path>
                <path d="M247,175.555564 C247,175.555564 251.310562,185.111114 248.915817,186.888892 C246.521072,188.66667 247,192 248.67634,192 C250.35268,192 254.184282,188.88889 256.339563,185.111114 C257.945108,182.296915 260.613793,176.646411 261.870709,173.947002 C262.048711,173.564659 262.04267,173.130041 261.854099,172.752086 C261.665528,172.374131 261.312305,172.088669 260.882966,171.967253 L253.944805,170 L247,175.555564 Z" id="Path" fill="#3F3D56" fill-rule="nonzero"></path>
                <path d="M204.975155,186 C204.975155,186 196.275181,193.243217 191.696247,193.009564 C187.117314,192.77591 186.430472,197.682605 191.696247,198.383563 C196.962022,199.08452 212.759344,199.318177 214.133026,198.383563 C215.506708,197.448948 215.048818,187.635565 214.133026,187.401915 C213.217234,187.168264 204.975155,186 204.975155,186 Z" id="Path" fill="#3F3D56" fill-rule="nonzero"></path>
                <path d="M233.542786,114.582236 C233.542786,114.582236 233.542786,121.618419 229.949631,124.569079 C229.949631,124.569079 225.682759,146.585524 229.500484,147.947368 C233.318209,149.309212 250.610266,161.11184 252.182272,167.013157 L256,169.963814 C256,169.963814 249.038264,177 247.690829,177 C246.343394,177 233.093639,158.61513 221.191313,155.210526 C221.191313,155.210526 213.780429,153.394726 214.005003,143.634867 C214.229576,133.875009 222.987888,108 222.987888,108 L233.093639,108 L233.542786,114.582236 Z" id="Path" fill="#2F2E41" fill-rule="nonzero"></path>
                <path d="M233.542786,114.582236 C233.542786,114.582236 233.542786,121.618419 229.949631,124.569079 C229.949631,124.569079 225.682759,146.585524 229.500484,147.947368 C233.318209,149.309212 250.610266,161.11184 252.182272,167.013157 L256,169.963814 C256,169.963814 249.038264,177 247.690829,177 C246.343394,177 233.093639,158.61513 221.191313,155.210526 C221.191313,155.210526 213.780429,153.394726 214.005003,143.634867 C214.229576,133.875009 222.987888,108 222.987888,108 L233.093639,108 L233.542786,114.582236 Z" id="Path" fill="#000000" fill-rule="nonzero" opacity="0.1"></path>
                <path d="M210.937338,109.272002 C210.937338,109.272002 204.298126,130.407197 205.404662,138.726369 C205.404662,138.726369 202.748976,146.595854 204.740736,155.139871 C206.732497,163.683887 204.519428,185.718448 204.076811,186.168132 C203.634194,186.617817 208.945566,191.33951 214.699551,187.517196 C214.699551,187.517196 214.920859,182.120974 216.027401,180.996761 C217.133943,179.872548 217.133943,156.26409 216.027401,152.891451 C214.920859,149.518812 227.977985,125.010981 227.977985,125.010981 C227.977985,125.010981 235.059811,118.49055 232.404126,115.117914 C229.74844,111.745278 232.625434,105 232.625434,105 L212.486491,106.349063 L210.937338,109.272002 Z" id="Path" fill="#2F2E41" fill-rule="nonzero"></path>
                <circle id="Oval" fill="#FFC1C7" fill-rule="nonzero" cx="207" cy="49" r="9"></circle>
                <path d="M213.75272,45 C213.75272,45 220.931802,53.1219489 222.726561,53.3414625 C224.521321,53.560976 216.893559,63 216.893559,63 C216.893559,63 212.630978,55.9756096 209.714477,55.3170721 C206.797976,54.6585345 213.75272,45 213.75272,45 Z" id="Path" fill="#FFC1C7" fill-rule="nonzero"></path>
                <path d="M223,53.6153937 L221.903248,52 C221.903248,52 214.345748,59.0880974 214.066538,60.9671288 C213.878258,62.0215172 214.093235,63.1114736 214.664724,64 L219.051709,61.9230653 L221.245196,57.30769 L223,53.6153937 Z" id="Path" fill="#3F3D56" fill-rule="nonzero"></path>
                <path d="M209.967867,108.479432 C209.967867,108.479432 208.137993,114.232418 209.510399,113.992712 C210.882804,113.753006 210.882804,110.636802 212.483924,110.636802 C214.085044,110.636802 215,108 215,108 L209.967867,108.479432 Z" id="Path" fill="#3F3D56" fill-rule="nonzero"></path>
                <path d="M221,110 C221,110 226.367443,121.025001 233.135088,119.9225 L234.456619,119.387357 C235.59658,118.926406 236.218754,117.756047 235.929485,116.616778 C235.284651,114.077207 234.099217,110 233.135088,110 L221,110 Z" id="Path" fill="#3F3D56" fill-rule="nonzero"></path>
                <path d="M198.471374,49.9156463 C198.471374,49.9156463 199.363748,47.0122893 202.32771,48.1726511 C205.291671,49.3330129 207.799642,51.8858068 208.483634,50.0292402 C209.167626,48.1726736 210.917995,46.4647177 212.094783,47.8988717 C213.271571,49.3330257 218.629503,52.0018565 218.401508,50.6094211 C218.173513,49.2169857 221.25147,40.9784229 215.323544,37.9614849 C209.395618,34.9445469 206.203662,32.6238234 203.2397,34.9445469 C200.275739,37.2652704 192.979829,41.6746406 194.119815,44.4595082 C195.259801,47.2443758 194.80381,48.636808 196.627798,49.3330257 C198.451786,50.0292434 198.471374,49.9156463 198.471374,49.9156463 Z" id="Path" fill="#2F2E41" fill-rule="nonzero"></path>
                <path d="M224.578842,54.6562764 C224.578842,54.6562764 224.355854,52.6114907 222.348965,53.0658875 C220.342076,53.5202843 214.990416,62.6081607 214.990416,62.6081607 C214.116961,65.5097383 213.44632,68.4707091 212.983527,71.4688449 C212.091576,76.9215751 210.307693,96.9149118 208.523801,100.322869 C206.739909,103.730826 210.084715,111.68272 210.084715,111.68272 C210.084715,111.68272 212.091604,109.410736 218.558194,110.773926 C225.024783,112.137117 233.498278,113.500288 234.167237,112.818712 C234.836197,112.137136 233.498274,110.319529 235.282176,108.047574 C237.066077,105.775618 239.518914,62.8353654 230.599463,58.0642398 C230.599469,58.0642272 226.362743,54.6562764 224.578842,54.6562764 Z" id="Path" fill="#BF0C3F" fill-rule="nonzero"></path>
                <path d="M221.509454,61.5868378 C221.509454,61.5868378 212.507307,64.0652243 216.679034,71.950934 C216.679034,71.950934 223.485535,85.6946326 220.631196,86.5958578 C217.776858,87.497083 204.602983,87.0464736 204.602983,87.0464736 C204.602983,87.0464736 203.175805,91.8905645 204.712766,92.1158693 C206.249727,92.341174 229.194217,100.339556 231.82899,95.3828146 C234.463763,90.4260728 231.82899,69.0219536 231.82899,69.0219536 C231.82899,69.0219536 228.0964,58.4325277 221.509454,61.5868378 Z" id="Path" fill="#000000" fill-rule="nonzero" opacity="0.1"></path>
                <path d="M182.505026,85.5272406 L197.296277,93.878997 C197.469839,93.9975454 197.685555,94.0310157 197.885423,93.9704085 C198.085291,93.9098012 198.248798,93.7613369 198.331979,93.5649347 L201.955395,85.7793776 C202.097304,85.3206773 201.891196,84.8243021 201.470802,84.6123219 L189.190348,78.1054785 C188.87713,77.9118427 188.472351,77.9913875 188.250701,78.2901327 L182.116488,84.2307641 C181.994458,84.4543597 181.966948,84.7196091 182.040376,84.9646257 C182.113805,85.2096423 182.281749,85.4129957 182.505026,85.5272406 L182.505026,85.5272406 Z" id="Path" fill="#2F2E41" fill-rule="nonzero"></path>
                <polygon id="Path" fill="#3F3D56" fill-rule="nonzero" points="184 85.1463678 197.427132 93 201 86.4099004 189.481522 80"></polygon>
                <circle id="Oval" fill="#F2F2F2" fill-rule="nonzero" transform="translate(195.758238, 82.404566) rotate(-39.841520) translate(-195.758238, -82.404566) " cx="195.758238" cy="82.4045659" r="1"></circle>
                <circle id="Oval" fill="#F2F2F2" fill-rule="nonzero" transform="translate(190.549002, 89.289910) rotate(-39.841520) translate(-190.549002, -89.289910) " cx="190.549002" cy="89.2899099" r="1"></circle>
                <path d="M204.640319,92.8129055 C204.640319,92.8129055 190.19095,93.8266697 192.18978,91.1346012 C194.188611,88.4425326 203.762996,86.4121667 205.422117,87.1545857 C207.081237,87.8970047 204.640319,92.8129055 204.640319,92.8129055 Z" id="Path" fill="#FFC1C7" fill-rule="nonzero"></path>
                <path d="M222.268906,60.5945291 C222.268906,60.5945291 213.078294,63.1053831 217.337359,71.0944666 C217.337359,71.0944666 224.286357,85.0182953 221.372262,85.9313357 C218.458166,86.8443761 205.00849,86.3878575 205.00849,86.3878575 C205.00849,86.3878575 201.870232,94.1486802 203.439352,94.3769379 C205.008471,94.6051956 230.114542,99.8551675 232.804474,94.8334597 C235.494407,89.8117518 232.804474,68.1270973 232.804474,68.1270973 C232.804474,68.1270973 228.993753,57.3988767 222.268906,60.5945291 Z" id="Path" fill="#BF0C3F" fill-rule="nonzero"></path>
                <rect id="Rectangle" fill="#F2F2F2" fill-rule="nonzero" x="83" y="50" width="81" height="41" rx="13.52362"></rect>
                <circle id="Oval" fill="#BF0C3F" fill-rule="nonzero" cx="5.5" cy="7.5" r="5.5"></circle>
                <circle id="Oval" stroke="#3F3D56" cx="7.5" cy="5.5" r="5.5"></circle>
                <circle id="Oval" fill="#F2F2F2" fill-rule="nonzero" cx="69.5" cy="73.5" r="5.5"></circle>
                <circle id="Oval" stroke="#3F3D56" cx="70.5" cy="72.5" r="5.5"></circle>
                <circle id="Oval" fill="#BF0C3F" fill-rule="nonzero" cx="111.5" cy="34.5" r="5.5"></circle>
                <circle id="Oval" stroke="#3F3D56" cx="113.5" cy="32.5" r="5.5"></circle>
                <rect id="Rectangle" fill="#BF0C3F" fill-rule="nonzero" x="12" y="19" width="81" height="41" rx="13.52362"></rect>
                <rect id="Rectangle" stroke="#3F3D56" x="17" y="15" width="81" height="41" rx="13.52362"></rect>
                <rect id="Rectangle" stroke="#3F3D56" x="87" y="47" width="81" height="41" rx="13.52362"></rect>
            </g>
        </g>
    </g>
</svg>