<?xml version="1.0" encoding="UTF-8"?>
<svg width="217px" height="220px" viewBox="0 0 217 220" version="1.1" xmlns="http://www.w3.org/2000/svg" xmlns:xlink="http://www.w3.org/1999/xlink">
    <!-- Generator: Sketch 54 (76480) - https://sketchapp.com -->
    <title>undraw_happy_feeling_slmw</title>
    <desc>Created with Sketch.</desc>
    <g id="principal" stroke="none" stroke-width="1" fill="none" fill-rule="evenodd">
        <g id="onboarding_v3" transform="translate(-72.000000, -167.000000)">
            <g id="undraw_happy_feeling_slmw" transform="translate(72.000000, 167.000000)">
                <path d="M191.278671,83.6894294 C179.1359,35.9131611 137.178804,1.42537652 87.9302542,0.0421000326 C61.8940215,-0.689195575 34.4966361,7.95095277 14.549322,38.1859774 C-21.1086616,92.2343528 16.7405867,129.58344 43.1280822,147.330982 C55.8764405,155.922487 67.363421,166.253032 77.2563102,178.023399 C95.0802044,199.186775 129.369314,225.485245 170.206092,184.279587 C199.80464,154.413676 199.366968,115.513145 191.278671,83.6894294 Z" id="Path" fill="#6BA4B8" fill-rule="nonzero" opacity="0.40843564"></path>
                <path d="M212,193.839789 C212,203.269516 167.632622,220 112.902688,220 C58.1727538,220 19,186.095635 19,176.665911 C19,167.236187 58.1727597,185.851939 112.902688,185.851939 C167.632616,185.851939 212,184.410062 212,193.839789 Z" id="Path" fill="#02C6A3" fill-rule="nonzero"></path>
                <path d="M212,193.839789 C212,203.269516 167.632622,220 112.902688,220 C58.1727538,220 19,186.095635 19,176.665911 C19,167.236187 58.1727597,185.851939 112.902688,185.851939 C167.632616,185.851939 212,184.410062 212,193.839789 Z" id="Path" fill="#02C6A3" fill-rule="nonzero" opacity="0.1"></path>
                <path d="M212,193.076964 C212,202.423298 167.632622,210 112.902688,210 C58.1727538,210 19,185.50026 19,176.153926 C19,166.807592 58.1727597,176.153926 112.902688,176.153926 C167.632616,176.153926 212,183.730628 212,193.076964 Z" id="Path" fill="#029E83" fill-rule="nonzero"></path>
                <g id="Group" opacity="0.7" transform="translate(176.000000, 30.000000)">
                    <path d="M32.1826625,21.1272824 C28.6408998,28.1444529 17.4153763,36.4131294 10.5409249,32.7978324 C3.66647356,29.1825353 3.74631593,15.0523059 7.28807864,8.03513529 C10.8306085,1.01946473 19.2735825,-1.73713006 26.1471813,1.87771916 C33.0207802,5.49256838 35.7227863,14.1103464 32.1826625,21.1272824 L32.1826625,21.1272824 Z" id="Path" fill="#BF0C3F" fill-rule="nonzero"></path>
                    <path d="M11.1225497,34.6534265 C10.6695142,33.7521705 9.70499634,33.2449265 8.72307458,33.3915324 L9.95930017,30.9422382 L12.3587781,32.2041324 L11.1225497,34.6534265 Z" id="Path" fill="#BF0C3F" fill-rule="nonzero"></path>
                    <path d="M9.37367034,32.1183176 C9.93271977,32.9069662 10.8288544,33.3735101 11.7825098,33.3724049" id="Path" stroke="#2F2E41" stroke-width="2"></path>
                    <ellipse id="Oval" fill="#FFFFFF" fill-rule="nonzero" opacity="0.4" transform="translate(27.613483, 11.944325) rotate(-62.742160) translate(-27.613483, -11.944325) " cx="27.6134833" cy="11.9443254" rx="3.60092787" ry="2.96527726"></ellipse>
                    <path d="M10.4765871,32.8857029 L0.0302657627,59.7187559" id="Path" stroke="#2F2E41" stroke-width="2"></path>
                </g>
                <path d="M211.188805,94.1272106 C203.385418,101.984096 184.549291,108.210337 176.676861,100.422359 C168.804431,92.6343798 174.876822,73.7813273 182.680212,65.9244448 C190.484419,58.0722103 203.188374,58.0185769 211.058865,65.8046362 C218.929355,73.5906955 218.987524,86.2695469 211.188805,94.1272106 Z" id="Path" fill="#FF6584" fill-rule="nonzero"></path>
                <path d="M176.013213,103 C175.751124,101.462346 174.539902,100.261746 173,100.013212 L175.986787,97 L179,99.9867852 L176.013213,103 Z" id="Path" fill="#FF6584" fill-rule="nonzero"></path>
                <path d="M175,99 C175.468315,100.432024 176.584373,101.548082 178,102" id="Path" stroke="#2F2E41" stroke-width="2"></path>
                <path d="M176,101 L150,127" id="Path" stroke="#2F2E41" stroke-width="2"></path>
                <ellipse id="Oval" fill="#FFFFFF" fill-rule="nonzero" opacity="0.4" transform="translate(208.590828, 79.649892) rotate(-45.252360) translate(-208.590828, -79.649892) " cx="208.590828" cy="79.6498916" rx="5.10887338" ry="4.25738282"></ellipse>
                <path d="M186.441377,68.0542421 C183.824637,78.9832289 170.753318,94.3130967 159.780796,91.7067404 C148.808273,89.1003841 144.089613,69.5447701 146.706364,58.615798 C149.329195,47.693721 160.341389,40.9544443 171.308727,43.5595677 C182.276066,46.164691 189.049548,57.1286832 186.441377,68.0542421 Z" id="Path" fill="#BF0C3F" fill-rule="nonzero"></path>
                <path d="M162.037203,94 C161.035973,92.8485059 159.413137,92.4614901 158,93.0372033 L158.962797,89 L163,89.9627936 L162.037203,94 Z" id="Path" fill="#BF0C3F" fill-rule="nonzero"></path>
                <path d="M158,91 C159.105547,91.8760707 160.593625,92.2020342 162,91.8762002" id="Path" stroke="#2F2E41" stroke-width="2"></path>
                <ellipse id="Oval" fill="#FFFFFF" fill-rule="nonzero" opacity="0.4" transform="translate(176.942577, 57.321248) rotate(-76.586590) translate(-176.942577, -57.321248) " cx="176.942577" cy="57.3212482" rx="5.10972847" ry="4.25667013"></ellipse>
                <path d="M160,93 L151,129" id="Path" stroke="#2F2E41" stroke-width="2"></path>
                <g id="Group" opacity="0.8" transform="translate(39.000000, 139.000000)">
                    <path d="M26.712878,24.9713185 C21.1644004,30.5446519 7.93209343,34.7967319 2.53291815,29.0692711 C-2.86625713,23.3418104 1.61225259,9.80369185 7.16072731,4.23034667 C10.7499633,0.625025048 15.9298635,-0.729826059 20.7492097,0.676152644 C25.5685559,2.08213135 29.2951748,6.03533825 30.5252851,11.0466386 C31.7553953,16.0579389 30.3021139,21.3659969 26.712878,24.9713185 L26.712878,24.9713185 Z" id="Path" fill="#BF0C3F" fill-rule="nonzero"></path>
                    <path d="M2.50686093,31.0415022 C2.35762603,30.0276041 1.6000953,29.2240139 0.622316389,29.0423733 L2.5589725,27.097037 L4.44351704,29.0961659 L2.50686093,31.0415022 Z" id="Path" fill="#BF0C3F" fill-rule="nonzero"></path>
                    <path d="M1.63660194,28.0337393 C1.92155804,28.974343 2.62685468,29.7164111 3.53246435,30.0284444" id="Path" stroke="#2F2E41" stroke-width="2"></path>
                    <ellipse id="Oval" fill="#FFFFFF" fill-rule="nonzero" opacity="0.4" transform="translate(25.236788, 14.656016) rotate(-44.218670) translate(-25.236788, -14.656016) " cx="25.2367883" cy="14.656016" rx="3.60266802" ry="3.005109"></ellipse>
                </g>
                <path d="M126.98226,48 L131.017743,48 C136.530791,48 141,52.4692093 141,57.9822584 L141,72 L117,72 L117,57.9822613 C116.999999,55.3348008 118.051698,52.7957731 119.923735,50.9237358 C121.795772,49.0516985 124.3348,47.9999992 126.98226,48 L126.98226,48 Z" id="Path" fill="#2F2E41" fill-rule="nonzero"></path>
                <path d="M116.037826,109 L113.006717,115.408903 C113.006717,115.408903 110.53615,124.018402 113.335556,124.938746 C116.134962,125.859091 116.681404,116.103752 116.681404,116.103752 L119,109.643906 L116.037826,109 Z" id="Path" fill="#FFB9B9" fill-rule="nonzero"></path>
                <path d="M116.037826,109 L113.006717,115.408903 C113.006717,115.408903 110.53615,124.018402 113.335556,124.938746 C116.134962,125.859091 116.681404,116.103752 116.681404,116.103752 L119,109.643906 L116.037826,109 Z" id="Path" fill="#000000" fill-rule="nonzero" opacity="0.1"></path>
                <polygon id="Path" fill="#196690" fill-rule="nonzero" points="116.789427 100 113 112.92311 119 116 119 100.615263"></polygon>
                <path d="M126.842105,64.8219184 C126.842105,64.8219184 126.526315,69.7534262 125.894736,69.7534262 C125.263156,69.7534262 124,75.6095893 124,75.6095893 L129.36842,79 L136,73.1438369 L134.105252,68.5205485 C134.105252,68.5205485 133.157883,66.6712349 133.473673,64.8219184 C133.789463,62.972602 126.842105,64.8219184 126.842105,64.8219184 Z" id="Path" fill="#FFB9B9" fill-rule="nonzero"></path>
                <path d="M126.842105,64.8219184 C126.842105,64.8219184 126.526315,69.7534262 125.894736,69.7534262 C125.263156,69.7534262 124,75.6095893 124,75.6095893 L129.36842,79 L136,73.1438369 L134.105252,68.5205485 C134.105252,68.5205485 133.157883,66.6712349 133.473673,64.8219184 C133.789463,62.972602 126.842105,64.8219184 126.842105,64.8219184 Z" id="Path" fill="#000000" fill-rule="nonzero" opacity="0.1"></path>
                <path d="M146,113.957972 L146.666111,120.983097 C146.666111,120.983097 148.9975,129.604842 151.994996,128.966194 C154.992492,128.327546 150.329718,119.705801 150.329718,119.705801 L148.9975,113 L146,113.957972 Z" id="Path" fill="#FFB9B9" fill-rule="nonzero"></path>
                <path d="M133,182.064097 C133,182.064097 134.799999,193.403104 133.6,195.548323 C132.4,197.693543 134.799999,198 134.799999,198 L142,196.161249 L142,192.790184 C142,192.790184 139.600001,181.757637 139.600001,181.144717 C139.600001,180.531797 133,182.064097 133,182.064097 Z" id="Path" fill="#FFB9B9" fill-rule="nonzero"></path>
                <path d="M118,130.607127 C118,130.607127 120.195953,153.299951 123.646738,160.549049 C127.097524,167.798146 130.234601,187.654367 131.803141,187.969546 C133.371681,188.284724 145.292574,186.078478 146.861111,184.817765 C148.429648,183.557051 136.195047,152.984773 136.195047,152.669594 C136.195047,152.354416 133.371669,124.303562 133.371669,124.303562 L129.607176,118 L118,130.607127 Z" id="Path" fill="#828383" fill-rule="nonzero"></path>
                <path d="M118,130.607127 C118,130.607127 120.195953,153.299951 123.646738,160.549049 C127.097524,167.798146 130.234601,187.654367 131.803141,187.969546 C133.371681,188.284724 145.292574,186.078478 146.861111,184.817765 C148.429648,183.557051 136.195047,152.984773 136.195047,152.669594 C136.195047,152.354416 133.371669,124.303562 133.371669,124.303562 L129.607176,118 L118,130.607127 Z" id="Path" fill="#828383" fill-rule="nonzero" opacity="0.1"></path>
                <path d="M136.149992,196.004875 C136.149992,196.004875 132.974854,194.480277 132.339826,195.395036 L129.799726,199.05407 C129.799726,199.05407 119.004257,203.932781 122.814423,204.54262 C126.624588,205.15246 133.927405,205.15246 134.879948,204.54262 C135.83249,203.932781 146.310444,198.444231 145.99293,198.139311 C145.675416,197.834391 143.135298,191.431082 142.817793,192.040921 C142.500287,192.650761 138.055076,197.22456 136.149992,196.004875 Z" id="Path" fill="#2F2E41" fill-rule="nonzero"></path>
                <path d="M83.4389035,169 C83.4389035,169 76.0821955,173.869566 72.5637525,172.956522 C69.0453094,172.043478 72.5637525,179.652174 72.5637525,179.652174 L78.9608994,183 L80.8800423,181.478262 C80.8800423,181.478262 87.5970469,172.956522 90.4757657,172.652174 C93.3544845,172.347826 83.4389035,169 83.4389035,169 Z" id="Path" fill="#FFB9B9" fill-rule="nonzero"></path>
                <path d="M116.067491,111.340449 L117.317094,117.937472 L93.8870559,153.749897 C93.8870559,153.749897 79.8290326,167.886376 81.0786299,169.457108 C82.3282272,171.027841 90.1382466,180.138004 92.0126484,178.88143 C93.8870501,177.624856 137.310726,130.50323 136.998322,124.220351 C136.685919,117.937472 126.376705,106 126.376705,106 L116.067488,110.712161 L116.067491,111.340449 Z" id="Path" fill="#9B9B9B" fill-rule="nonzero"></path>
                <path d="M73.8149414,175.422281 C73.8149414,175.422281 76.6283763,172.206248 75.0653543,171.884644 C73.3073503,171.565867 71.5330179,171.351112 69.7511022,171.241437 C69.1258958,171.241437 60.6856172,166.738989 60.0604107,168.346998 C59.4352043,169.955007 63.8116466,178.316702 66.3124696,179.281513 C68.8132925,180.246324 77.8787688,187 77.8787688,187 C77.8787688,187 82.5678144,182.819159 81.942608,181.854348 C81.3174015,180.889537 72.5645284,178.959918 73.8149414,175.422281 Z" id="Path" fill="#2F2E41" fill-rule="nonzero"></path>
                <circle id="Oval" fill="#FFB9B9" fill-rule="nonzero" cx="129.5" cy="60.5" r="7.5"></circle>
                <path d="M131.102659,71.5821786 C131.102659,71.5821786 125.82609,71.8986166 124.27416,70.9493054 C122.72223,69.9999941 119.307978,83.9232602 119.307978,83.9232602 L117.135278,102.276648 C117.135278,102.276648 116.824892,104.491711 117.135278,105.757463 C117.445665,107.023216 114.031416,105.124587 115.272959,108.605412 C116.514502,112.086236 114.341802,113.668415 116.514505,113.984853 C118.687208,114.301291 130.171502,109.554726 130.171502,109.554726 L135.44807,81.3917616 L137,70 L131.102659,71.5821786 Z" id="Path" fill="#D0CDE1" fill-rule="nonzero"></path>
                <path d="M126,69.2505808 C126,69.2505808 123.226279,68.6617135 122.322993,69.2894156 C121.419708,69.9171177 118.107666,74.6248805 118.107666,75.8802818 C118.107666,77.135683 116.903286,90.9451204 116.903286,92.2005246 C116.903286,93.4559288 116,100.046792 116,100.674494 C116,101.302196 116.772314,104 116.772314,104 L118.709854,100.360643 C118.709854,100.360643 118.107666,95.6528833 120.21533,88.1204639 C122.322993,80.5880446 126,69.2505808 126,69.2505808 Z" id="Path" fill="#196690" fill-rule="nonzero"></path>
                <path d="M129.746617,73.0297597 C129.746617,73.0297597 133.929281,66.4120637 134.186162,67.042321 C134.443043,67.6725783 139.139475,68.6179614 139.139475,68.6179614 C139.139475,68.6179614 147.593044,74.6054 146.966853,77.1264293 C146.340662,79.6474585 141.957332,98.5551604 141.957332,98.5551604 C141.957332,98.5551604 137.887093,108.32414 141.018045,115.256965 C144.148997,122.189789 140.391854,124.710816 140.391854,124.710816 C140.391854,124.710816 137.887093,125.97133 138.513284,127.231842 C139.139475,128.492354 131.312106,133.219283 130.372808,129.752871 C129.43351,126.286459 117.849,105.487985 120.353764,97.9249031 C122.858528,90.3618212 129.746617,73.0297597 129.746617,73.0297597 Z" id="Path" fill="#196690" fill-rule="nonzero"></path>
                <path d="M145.173143,77 C145.173143,77 148.729677,83.5280677 148.083043,84.4606496 C147.436409,85.3932315 150.346291,90.9887172 150.346291,90.9887172 C150.144975,91.4887396 150.144975,92.0429952 150.346291,92.5430175 C150.669613,93.4755995 152.609543,97.5167849 152.609543,99.0710881 C152.609543,100.625391 152.286221,105.599156 152.609543,107.775177 C152.932864,109.951199 157.136039,115.235827 153.579504,115.546688 C150.02297,115.857548 144.203187,118.655291 144.526509,115.546688 C144.84983,112.438084 145.819795,104.977434 144.526509,103.733992 C143.233222,102.490549 142.26326,102.490552 142.9099,100.93624 C143.556541,99.3819285 140,95.3407546 140,95.3407546 L145.173143,77 Z" id="Path" fill="#196690" fill-rule="nonzero"></path>
                <polygon id="Path" fill="#2F2E41" fill-rule="nonzero" points="135.932255 58 123.756894 58 121 52 138 52"></polygon>
                <ellipse id="Oval" fill="#FFB9B9" fill-rule="nonzero" transform="translate(121.811581, 61.198452) rotate(-16.160120) translate(-121.811581, -61.198452) " cx="121.811581" cy="61.1984524" rx="1" ry="1.59760246"></ellipse>
                <ellipse id="Oval" fill="#FFB9B9" fill-rule="nonzero" transform="translate(136.783884, 61.198476) rotate(-73.839880) translate(-136.783884, -61.198476) " cx="136.783884" cy="61.1984761" rx="1.59760246" ry="1"></ellipse>
                <path d="M207,180.313039 C207,187.493104 202.746824,190 197.5,190 C197.37806,190 197.256117,189.998345 197.135806,189.996691 C196.891925,189.990078 196.651343,189.978505 196.414058,189.961971 C191.678066,189.626278 188,186.990395 188,180.313039 C188,173.404185 196.796355,164.686247 197.460454,164.038029 C197.460895,164.038039 197.461319,164.037867 197.461631,164.037555 C197.461942,164.037243 197.462113,164.036816 197.462103,164.036375 C197.486824,164.013219 197.5,164 197.5,164 C197.5,164 207,173.132986 207,180.313039 Z" id="Path" fill="#F2F2F2" fill-rule="nonzero"></path>
                <path d="M197.835315,188.905157 L201.324654,184.032954 L197.827031,189.439356 L197.817088,190 C197.57211,189.993387 197.330445,189.981812 197.092093,189.965276 L197.467846,182.782651 L197.464531,182.726418 L197.471156,182.716495 L197.507567,182.03677 L194,176.617135 L197.51749,181.527384 L197.525774,181.672921 L197.810477,176.245021 L194.807786,170.643467 L197.846914,175.290753 L198.143197,164.038034 L198.144854,164 L198.144854,164.036379 L198.095207,172.910887 L201.084646,169.393167 L198.081951,173.674958 L198.004158,178.535584 L200.79497,173.871765 L197.992559,179.250045 L197.947863,181.952423 L202,175.461097 L197.932966,182.895107 L197.835315,188.905157 Z" id="Path" fill="#3F3D56" fill-rule="nonzero"></path>
            </g>
        </g>
    </g>
</svg>