<?xml version="1.0" encoding="UTF-8"?>
<svg width="107px" height="23px" viewBox="0 0 107 23" version="1.1" xmlns="http://www.w3.org/2000/svg" xmlns:xlink="http://www.w3.org/1999/xlink">
    <!-- Generator: Sketch 54 (76480) - https://sketchapp.com -->
    <title>logo-habitat</title>
    <desc>Created with Sketch.</desc>
    <g id="Symbols" stroke="none" stroke-width="1" fill="none" fill-rule="evenodd">
        <g id="header/volver-atras" transform="translate(-134.000000, -37.000000)" fill="#FFFFFF" fill-rule="nonzero">
            <g id="logo-habitat" transform="translate(134.000000, 37.000000)">
                <g id="XMLID_2_">
                    <path d="M0.15483871,6.82580645 L4.23548387,6.82580645 L4.23548387,13.0580645 L12.4709677,13.0580645 L12.4709677,6.82580645 L16.5516129,6.82580645 L16.5516129,22.2580645 L12.4709677,22.2580645 L12.4709677,15.5064516 L4.23548387,15.5064516 L4.23548387,22.2580645 L0.15483871,22.2580645 L0.15483871,6.82580645 Z M29.9806452,16.3225806 L24.4903226,16.3225806 L27.2354839,9.94193548 L27.3096774,9.94193548 L29.9806452,16.3225806 L29.9806452,16.3225806 Z M17.1451613,22.2580645 L21.5225806,22.2580645 L23.3774194,18.6967742 L31.9096774,18.6967742 L33.6903226,22.2580645 L38.2903226,22.2580645 L30.0548387,6.82580645 L25.3064516,6.82580645 L17.1451613,22.2580645 Z M43.483871,15.3580645 L45.4870968,15.3580645 C47.5645161,15.3580645 49.7903226,15.6548387 49.7903226,17.6580645 C49.7903226,19.4387097 47.416129,19.8096774 45.4870968,19.8096774 L43.483871,19.8096774 L43.483871,15.3580645 Z M43.483871,9.27419355 L45.116129,9.27419355 C47.0451613,9.27419355 49.1967742,9.42258065 49.1967742,11.2032258 C49.1967742,12.7612903 47.0451613,13.0580645 45.2645161,13.0580645 L43.483871,13.0580645 L43.483871,9.27419355 L43.483871,9.27419355 Z M39.2548387,22.2580645 L46.5258065,22.2580645 C49.1967742,22.2580645 53.8709677,21.6645161 53.8709677,17.8064516 C53.8709677,15.8774194 51.9419355,14.4677419 49.0483871,14.3193548 L49.0483871,14.2451613 C51.4967742,13.9483871 53.2032258,12.6129032 53.2032258,10.8322581 C53.2032258,7.41935484 49.1225806,6.9 46.4516129,6.9 L39.1806452,6.9 L39.1806452,22.2580645 L39.2548387,22.2580645 Z M55.7258065,22.2580645 L59.9548387,22.2580645 L59.9548387,6.82580645 L55.7258065,6.82580645 L55.7258065,22.2580645 Z M67.7451613,22.2580645 L71.9,22.2580645 L71.9,9.27419355 L77.8354839,9.27419355 L77.8354839,6.82580645 L61.7354839,6.82580645 L61.7354839,9.27419355 L67.6709677,9.27419355 L67.6709677,22.2580645 L67.7451613,22.2580645 Z M87.183871,16.3225806 L81.1,16.3225806 L84.1419355,9.94193548 L84.216129,9.94193548 L87.183871,16.3225806 Z M73.7548387,22.2580645 L78.0580645,22.2580645 L79.9129032,18.6967742 L88.3709677,18.6967742 L90.1516129,22.2580645 L94.7516129,22.2580645 L86.5903226,6.82580645 L81.916129,6.82580645 L73.7548387,22.2580645 Z M96.6806452,22.2580645 L100.909677,22.2580645 L100.909677,9.27419355 L104.916129,9.27419355 L106.919355,6.82580645 L90.6709677,6.82580645 L90.6709677,9.27419355 L96.6806452,9.27419355 L96.6806452,22.2580645 L96.6806452,22.2580645 Z M5.49677419,3.78387097 L2.00967742,3.78387097 L3.79032258,0.519354839 L5.49677419,3.78387097 L5.49677419,3.78387097 Z M0.0806451613,5.86129032 L0.822580645,5.86129032 L1.71290323,4.30322581 L5.79354839,4.30322581 L6.68387097,5.86129032 L7.5,5.86129032 L4.23548387,0 L3.34516129,0 L0.0806451613,5.86129032 Z M7.72258065,5.86129032 L8.53870968,5.86129032 L8.53870968,3.11612903 L11.4322581,3.11612903 L11.4322581,2.59677419 L8.53870968,2.59677419 L8.53870968,0.519354839 L11.5806452,0.519354839 L11.5806452,0 L7.79677419,0 L7.79677419,5.86129032 L7.72258065,5.86129032 Z M13.1387097,0.519354839 L14.4,0.519354839 C15.3645161,0.519354839 15.9580645,0.964516129 15.9580645,1.70645161 C15.9580645,2.74516129 14.8451613,2.89354839 13.6580645,2.89354839 L13.1387097,2.89354839 L13.1387097,0.519354839 Z M12.3967742,5.86129032 L13.2129032,5.86129032 L13.2129032,3.33870968 L14.3258065,3.33870968 C15.7354839,3.33870968 16.8483871,2.74516129 16.8483871,1.63225806 C16.7741935,0.519354839 15.8096774,0 14.3258065,0 L12.3967742,0 L12.3967742,5.86129032 Z" id="XMLID_9_"></path>
                </g>
            </g>
        </g>
    </g>
</svg>