<?xml version="1.0" encoding="UTF-8" standalone="no"?>
<svg
   width="100.2624"
   height="94.323898"
   viewBox="0 0 100.2624 94.323898"
   fill="none"
   version="1.1"
   id="svg3576"
   sodipodi:docname="biometric.svg"
   inkscape:version="1.2 (dc2aeda, 2022-05-15)"
   xmlns:inkscape="http://www.inkscape.org/namespaces/inkscape"
   xmlns:sodipodi="http://sodipodi.sourceforge.net/DTD/sodipodi-0.dtd"
   xmlns="http://www.w3.org/2000/svg"
   xmlns:svg="http://www.w3.org/2000/svg">
  <defs
     id="defs3580" />
  <sodipodi:namedview
     id="namedview3578"
     pagecolor="#ffffff"
     bordercolor="#000000"
     borderopacity="0.25"
     inkscape:showpageshadow="2"
     inkscape:pageopacity="0.0"
     inkscape:pagecheckerboard="0"
     inkscape:deskcolor="#d1d1d1"
     showgrid="false"
     inkscape:zoom="1.9186992"
     inkscape:cx="45.864406"
     inkscape:cy="42.997881"
     inkscape:window-width="1360"
     inkscape:window-height="715"
     inkscape:window-x="1440"
     inkscape:window-y="25"
     inkscape:window-maximized="1"
     inkscape:current-layer="svg3576" />
  <path
     d="m 32.472,52.6625 c 4.4104,0 8.1707,-1.3882 11.2457,-4.1469 0.984,-0.8961 1.1597,-1.9504 0.4393,-2.7411 -0.7029,-0.7732 -1.7044,-0.7205 -2.6884,0.1054 -5.3242,4.4983 -12.4406,4.4983 -17.7823,0 -0.984,-0.8259 -1.9856,-0.861 -2.6885,-0.0879 -0.7204,0.7907 -0.5447,1.845 0.4569,2.7412 3.1277,2.7763 6.8177,4.1117 11.0173,4.1293 z M 36.0214,30.909 c 0,-1.9504 0,-3.9008 0,-5.8688 0,-1.3706 -0.6501,-2.1613 -1.7396,-2.1613 -1.0718,0 -1.7219,0.8083 -1.7219,2.1613 0,3.2507 0,6.519 0,9.7697 0,2.6181 -10e-5,2.6006 -2.5128,2.9871 -0.9137,0.1406 -1.4408,0.7029 -1.476,1.599 -0.0527,0.8962 0.4042,1.599 1.3003,1.7396 4.0063,0.615 6.1852,-1.5639 6.15,-4.797 -0.0176,-1.8099 0,-3.6197 0,-5.4296 z M 47.847,27.1312 c 0,-0.7907 0.0176,-1.599 0,-2.3897 -0.0176,-1.0895 -0.6677,-1.8275 -1.5814,-1.845 -0.9137,-0.0176 -1.6518,0.7028 -1.6693,1.7747 -0.0352,1.5638 -0.0352,3.1101 0,4.674 0.0351,1.0367 0.8083,1.7923 1.7044,1.7395 0.8786,-0.0351 1.5111,-0.7555 1.5463,-1.7747 0.0176,-0.738 0,-1.4584 0,-2.1788 z M 17.6944,26.9906 c 0,0.7556 -0.0351,1.5287 0,2.2843 0.0527,1.0894 0.738,1.8098 1.6342,1.8098 0.861,0 1.5814,-0.7028 1.6165,-1.722 0.0527,-1.599 0.0527,-3.1804 0,-4.7794 -0.0351,-1.0191 -0.7731,-1.6868 -1.6517,-1.6868 -0.8786,0 -1.5463,0.6852 -1.6166,1.722 -0.0175,0.7731 0.0176,1.5814 0.0176,2.3721 z"
     fill="#ffffff"
     id="path3544" />
  <path
     d="M 32.472,52.6633 C 28.29,52.6457 24.6,51.3103 21.4547,48.5165 20.4531,47.6379 20.295,46.5836 20.9979,45.7753 c 0.7028,-0.7731 1.7044,-0.738 2.6884,0.0879 5.3417,4.4983 12.4406,4.5158 17.7823,0 0.984,-0.8435 1.9855,-0.8786 2.6884,-0.1054 0.7204,0.7907 0.5623,1.8449 -0.4393,2.7411 -3.075,2.7763 -6.8528,4.1644 -11.2457,4.1644 z"
     fill="#b4123b"
     id="path3546" />
  <path
     d="m 36.0214,30.909 c 0,1.8099 -0.0176,3.6197 0,5.4296 0.0352,3.2331 -2.1437,5.412 -6.15,4.797 -0.9137,-0.1406 -1.353,-0.8259 -1.3003,-1.7396 0.0527,-0.8961 0.5623,-1.4584 1.476,-1.599 2.5127,-0.369 2.5127,-0.369 2.5127,-2.9871 0,-3.2507 0,-6.519 0,-9.7697 0,-1.3706 0.6502,-2.1613 1.722,-2.1613 1.0719,0 1.722,0.8083 1.7396,2.1613 0.0176,1.968 0,3.9184 0,5.8688 z"
     fill="#b4123b"
     id="path3548" />
  <path
     d="m 47.847,27.1315 c 0,0.7204 0.0176,1.4408 0,2.1788 -0.0351,1.0192 -0.6677,1.7396 -1.5463,1.7748 -0.8961,0.0351 -1.6693,-0.7029 -1.7044,-1.7396 -0.0351,-1.5639 -0.0351,-3.1102 0,-4.674 0.0176,-1.0543 0.7731,-1.7923 1.6693,-1.7747 0.9137,0.0175 1.5463,0.7555 1.5814,1.845 0.0176,0.7907 0,1.5814 0,2.3897 z"
     fill="#b4123b"
     id="path3550" />
  <path
     d="m 17.6947,26.9906 c 0,-0.7907 -0.0351,-1.599 0,-2.3897 0.0528,-1.0192 0.738,-1.7044 1.6166,-1.722 0.8786,0 1.599,0.6677 1.6517,1.6868 0.0527,1.599 0.0527,3.1805 0,4.7795 -0.0351,1.0015 -0.7731,1.7044 -1.6165,1.722 -0.8962,0 -1.5815,-0.7205 -1.6342,-1.8099 -0.0527,-0.738 -0.0176,-1.5111 -0.0176,-2.2667 z"
     fill="#b4123b"
     id="path3552" />
  <path
     d="m 54.2078,3.3561 c -2.091,-0.0176 -4.1995,-0.0176 -6.2905,0 C 46.986,3.3737 45.7736,2.8817 45.7736,1.6868 45.7736,0.5447 47.0211,0 47.9173,0 c 3.1101,0 8.1883,0 8.1883,0 0,0 0.1405,0 0.9137,0.0175 3.6548,0 8.1707,4.6565 8.1707,8.5222 0,0.1581 0,0.5974 0,0.5974 0,0 0,5.0606 0,8.1883 0,0.9137 -0.5447,2.1437 -1.6869,2.1437 -1.1948,0 -1.6693,-1.2124 -1.6693,-2.1437 0.0176,-2.091 0.0176,-4.1996 0,-6.2906 C 61.7811,6.3257 58.8467,3.3913 54.1551,3.3561"
     fill="#b4123b"
     id="path3554" />
  <path
     d="m 11.0173,61.8513 c 2.091,0.0175 4.1996,0.0175 6.2906,0 0.9312,-0.0176 2.1437,0.4744 2.1437,1.6692 0,1.1422 -1.2476,1.6869 -2.1437,1.6869 -3.1102,0 -8.1883,0 -8.1883,0 0,0 -0.1406,0 -0.9137,-0.0176 -3.6549,0 -8.1708,-4.6564 -8.1708,-8.5221 0,-0.1582 0,-0.5974 0,-0.5974 0,0 0,-5.0606 0,-8.1883 0,-0.9137 0.5448,-2.1437 1.6869,-2.1437 1.1949,0 1.6693,1.2124 1.6693,2.1437 -0.0176,2.091 -0.0176,4.1995 0,6.2905 0.0527,4.7092 2.9871,7.6436 7.6787,7.6788"
     fill="#b4123b"
     id="path3556" />
  <path
     d="m 61.8866,54.1901 c 0.0175,-2.091 0.0175,-4.1996 0,-6.2906 -0.0176,-0.9312 0.4744,-2.1437 1.6692,-2.1437 1.1422,0 1.6869,1.2476 1.6869,2.1437 0,3.1102 0,8.1883 0,8.1883 0,0 0,0.1406 -0.0176,0.9138 0,3.6548 -4.6564,8.1707 -8.5221,8.1707 -0.1582,0 -0.5974,0 -0.5974,0 0,0 -5.0606,0 -8.1883,0 -0.9137,0 -2.1437,-0.5447 -2.1437,-1.6869 0,-1.1948 1.2124,-1.6693 2.1437,-1.6693 2.091,0.0176 4.1995,0.0176 6.2905,0 4.7092,-0.0527 7.6436,-2.9871 7.6788,-7.6787"
     fill="#b4123b"
     id="path3558" />
  <path
     d="m 3.3561,11.0173 c -0.0175,2.091 -0.0175,4.1996 0,6.2906 0.0176,0.9312 -0.4744,2.1437 -1.6693,2.1437 C 0.5447,19.4516 0,18.204 0,17.3079 0,14.1977 0,9.1196 0,9.1196 c 0,0 0,-0.1406 0.0176,-0.9138 0,-3.6548 4.6564,-8.1707 8.5221,-8.1707 0.1581,0 0.5974,0 0.5974,0 0,0 5.0606,0 8.1883,0 0.9137,0 2.1437,0.5447 2.1437,1.6869 0,1.1948 -1.2124,1.6693 -2.1437,1.6693 -2.091,-0.0176 -4.1996,-0.0176 -6.2906,0 C 6.3257,3.444 3.3913,6.3784 3.3561,11.07"
     fill="#b4123b"
     id="path3560" />
  <path
     d="m 100.2624,59.2338 c 0,19.4691 -13.934,35.0901 -31.1365,35.0901 -17.2024,0 -31.1365,-15.621 -31.1365,-35.0901 0,-19.4692 13.9341,-32.2787 31.1365,-32.2787 17.2025,0 31.1365,12.792 31.1365,32.2787 z"
     fill="#ffffff"
     id="path3562"
     style="fill:#f5f3f4;fill-opacity:1" />
  <path
     d="m 50.342,79.1944 c -0.6677,-1.599 -1.0015,-3.2683 -1.3002,-4.9903 -0.0703,-0.369 -0.123,-0.7731 -0.1758,-1.1245 0,-0.0703 -0.0702,-0.4218 0,0 0,-0.123 0,-0.1758 -0.0702,-0.2988 0,-0.2284 -0.0703,-0.4744 -0.0703,-0.7204 -0.123,-0.8961 -0.123,-1.7923 -0.123,-2.7411 0,-0.9489 0.0703,-1.968 0.1757,-2.9169 0,-0.123 0,-0.2284 0.0703,-0.369 -0.0703,0.2987 0,-0.0703 0,-0.123 0.0703,-0.2284 0.0703,-0.4744 0.123,-0.7204 0.123,-0.5272 0.1757,-1.0719 0.369,-1.5463 0.5974,-2.1437 1.3003,-3.8657 2.6181,-5.7107 0.5974,-0.8259 1.3003,-1.6693 2.1437,-2.4425 0.9489,-0.8961 1.8977,-1.6692 3.0399,-2.3897 2.7938,-1.7923 6.0094,-3.0398 9.348,-3.3385 3.6373,-0.369 7.257,0.1757 10.6483,1.4935 2.6708,1.0016 5.1308,2.5655 7.0813,4.6389 1.0716,1.0718 1.8976,2.3194 2.6706,3.6373 0.422,0.7204 0.826,1.4935 1.195,2.2667 0.176,0.4217 0.422,0.8258 0.597,1.2476 -0.123,-0.2285 -0.07,-0.0703 0,0 0.176,0.4217 0.299,0.8258 0.422,1.2475 0.123,0.369 0.176,0.7205 0.229,1.0719 0.07,0.1757 0.07,0.4217 0.123,0.6677 0,0.123 0.07,0.2284 0.07,0.369 -0.07,-0.369 0,0.1757 0,0.2284 0.07,0.4745 0.07,0.9489 0.07,1.4936 v 0.7731 0.4218 0.2284 c -0.176,1.1948 -0.422,1.845 -1.124,2.7938 0.123,-0.1757 -0.123,0.1758 -0.123,0.1758 l -0.299,0.2987 c -0.176,0.1757 -0.369,0.369 -0.475,0.4217 -0.597,0.4744 -1.3,0.7731 -2.02,0.9488 -1.5465,0.4745 -3.3388,0.369 -4.8324,-0.4217 -1.1245,-0.5974 -1.968,-1.4233 -2.5654,-2.5654 -0.123,-0.2284 -0.1757,-0.369 -0.2987,-0.7204 -0.0703,-0.1757 -0.123,-0.4217 -0.123,-0.5975 -0.0703,-0.2284 -0.2284,-0.7204 0,-0.1757 -0.123,-0.2987 0,-0.7204 -0.0703,-1.0015 0,-0.4745 -0.123,-0.9489 -0.1757,-1.4936 -1.3003,-6.5542 -10.6483,-8.5749 -14.883,-3.69 -3.2156,3.69 -2.3194,9.102 -0.5974,13.284 1.968,4.8322 5.7107,8.6272 10.3495,10.9472 1.4936,0.773 3.0926,1.37 4.6916,1.898 1.6693,0.527 2.3897,-2.091 0.7204,-2.619 -2.8641,-0.948 -5.781,-2.319 -8.0301,-4.234 -1.8977,-1.547 -3.2156,-3.2159 -4.3929,-5.2893 -0.2284,-0.4745 -0.4744,-0.9489 -0.7204,-1.4233 -0.123,-0.2285 0.0703,0.123 -0.0703,-0.123 -0.0703,-0.123 -0.123,-0.2285 -0.123,-0.2987 -0.123,-0.2285 -0.1757,-0.4745 -0.2284,-0.7205 -0.2987,-0.8258 -0.5271,-1.722 -0.7204,-2.6181 -0.0703,-0.4217 -0.123,-0.7732 -0.1757,-1.1246 0,-0.123 0,-0.1757 -0.0703,-0.2284 -0.0703,-0.2987 0,0.123 0,0 0,-0.1757 -0.0703,-0.369 -0.0703,-0.5272 -0.1757,-1.4935 0.0703,-2.9695 0.8258,-4.2874 1.6693,-2.7411 4.9376,-3.2156 7.6788,-2.091 1.0015,0.4217 1.968,1.1246 2.5654,2.091 0.7204,1.1246 0.6677,2.3897 0.8258,3.7603 0.0703,0.369 0,0.123 0,0.0703 0,0.1757 0.0703,0.2987 0.0703,0.4744 0.0703,0.1757 0.0703,0.4217 0.123,0.5974 0.123,0.4218 0.2987,0.8962 0.4745,1.2476 0.1757,0.4217 0.4744,0.8962 0.7731,1.2476 1.1246,1.4936 2.6709,2.5654 4.5334,3.0925 3.2156,0.9489 7.1511,0.123 9.3481,-2.4951 2.671,-3.2156 2.39,-7.9247 1.124,-11.7201 -0.825,-2.4952 -2.266,-4.8849 -3.865,-6.9056 -1.793,-2.3194 -4.0416,-4.2874 -6.6598,-5.658 -6.7826,-3.567 -14.9533,-4.059 -21.9116,-0.8259 -4.8321,2.1965 -8.9965,5.9567 -11.07,10.8943 -1.599,3.813 -2.091,8.0302 -1.6692,12.2122 0.2284,2.4951 0.7204,4.9903 1.5462,7.38 0.0703,0.123 0.123,0.2284 0.123,0.369 0.2988,0.7204 0.8962,1.1946 1.6693,0.9486 0.369,-0.0876 0.9665,-0.9311 0.6677,-1.6515 z"
     fill="#b4123b"
     id="path3564" />
  <path
     d="m 46.0546,54.3325 c 0.0703,-0.123 0.123,-0.1757 0.2285,-0.2987 0.123,-0.123 0.1757,-0.2285 0.2284,-0.369 0.0703,-0.123 0.2987,-0.369 0,0 0.0703,-0.123 0.1757,-0.1757 0.2284,-0.2987 0.7732,-0.9489 1.6693,-1.8978 2.5655,-2.7939 1.3705,-1.3003 2.5654,-2.2667 4.1117,-3.2683 1.845,-1.1948 3.813,-2.1964 5.8337,-2.9168 2.3897,-0.8259 4.8848,-1.3706 7.4503,-1.5463 1.1245,-0.0703 2.2667,-0.0703 3.3385,0 0.5272,0 1.1246,0.0703 1.6693,0.0703 0.2987,0 0.6677,0.0702 0.9489,0.123 0.1757,0 0.369,0.0702 0.5271,0.0702 0.369,0.0703 -0.2987,-0.0702 0.0703,0 0.123,0 0.2284,0 0.2987,0.0703 1.7923,0.2987 3.567,0.7205 5.289,1.3003 5.1309,1.7923 9.6995,5.4296 12.9855,9.8927 0.422,0.5975 1.195,0.8962 1.845,0.4745 0.597,-0.369 0.896,-1.2476 0.474,-1.845 -3.215,-4.4632 -7.432,-8.1005 -12.4931,-10.2969 -3.3912,-1.4936 -7.0285,-2.3194 -10.7185,-2.4951 -3.5143,-0.1758 -7.1516,0.0702 -10.5429,1.0015 -4.3928,1.2476 -8.4518,3.567 -11.9134,6.5542 -1.722,1.5463 -3.4616,3.2683 -4.6916,5.2363 -1.0015,1.4408 1.3179,2.8114 2.2667,1.3354 z"
     fill="#b4123b"
     id="path3566" />
  <path
     d="m 53.3819,40.5559 c 0.5272,-0.369 1.0719,-0.5975 1.6693,-0.8962 0.2987,-0.123 0.5272,-0.2284 0.8259,-0.4217 0.0703,-0.0703 0.5271,-0.2284 0.369,-0.1757 -0.1757,0.123 0.123,-0.0703 0.123,-0.0703 0.123,-0.0703 0.2284,-0.123 0.4217,-0.1757 0.7731,-0.2987 1.599,-0.5974 2.4424,-0.8259 4.6916,-1.4232 9.6994,-1.845 14.6546,-1.1245 3.813,0.5974 7.5557,1.845 10.9466,3.567 0.668,0.369 1.494,0.1757 1.845,-0.4745 0.369,-0.5974 0.176,-1.5462 -0.474,-1.845 -5.9568,-2.9695 -12.6163,-4.5861 -19.3462,-4.1644 -4.3401,0.2987 -8.5748,1.3003 -12.4933,3.0926 -0.7731,0.369 -1.5463,0.7204 -2.2667,1.1948 -0.5974,0.4217 -0.8961,1.1949 -0.4744,1.845 0.2636,0.5975 1.1597,0.8962 1.7571,0.4745 z"
     fill="#b4123b"
     id="path3568" />
  <path
     d="m 84.8704,69.7252 c 0.123,-3.4616 -1.248,-6.8528 -3.3918,-9.5237 -3.3912,-4.2874 -9.348,-6.3081 -14.7072,-5.5877 -5.1836,0.6677 -10.2969,4.1644 -12.4406,8.9966 -1.3706,3.1628 -1.599,6.6068 -1.1246,9.9454 0.8962,6.0621 4.059,11.6151 8.4519,15.8321 1.2475,1.195 3.1628,-0.721 1.8977,-1.898 -3.69,-3.567 -6.4312,-8.0301 -7.503,-13.0907 -0.123,-0.4217 -0.1757,-0.8258 -0.2284,-1.1948 0,-0.0703 0,-0.1758 -0.0703,-0.2285 -0.0703,-0.369 0.0703,0.2987 0,-0.0703 0,-0.1757 -0.0703,-0.4217 -0.0703,-0.5974 -0.0703,-0.5271 -0.123,-1.1246 -0.123,-1.6693 0,-1.1948 0.123,-2.3194 0.369,-3.4615 0.4744,-2.1965 1.5463,-4.2348 3.0926,-5.781 0.7731,-0.7732 1.3705,-1.1949 2.1437,-1.7923 1.0718,-0.7205 2.1437,-1.3003 3.3913,-1.722 2.8641,-0.9489 5.8337,-0.8259 8.6275,0.0703 2.091,0.6677 3.8657,1.722 5.289,3.2155 0.7732,0.7732 1.1949,1.3003 1.7923,2.3195 0.2284,0.369 0.4217,0.7731 0.5974,1.1948 0.0703,0.123 0.123,0.1757 0.123,0.2987 0.123,0.2987 -0.0702,-0.1757 0.0703,0.123 0.0703,0.1757 0.1757,0.4217 0.2285,0.5975 0.2284,0.7204 0.4744,1.4232 0.5974,2.1964 0,0.1757 0.0703,0.2987 0.0703,0.4744 -0.0703,-0.4744 0,0 0,0.123 0.0703,0.4744 0.0703,0.9489 0.0703,1.3706 0.123,1.6517 2.847,1.6517 2.847,-0.1406 z"
     fill="#b4123b"
     id="path3570" />
  <path
     d="m 34.3697,91.0909 c 9.1804,0 16.6226,-7.442 16.6226,-16.6227 0,-9.1803 -7.4422,-16.6225 -16.6226,-16.6225 -9.1804,0 -16.6226,7.4422 -16.6226,16.6225 0,9.1807 7.4422,16.6227 16.6226,16.6227 z"
     fill="#b4123b"
     id="path3572" />
  <path
     d="m 42.9445,72.624 -8.9614,8.9619 c -0.6326,0.632 -1.2827,0.896 -2.0559,0.896 -0.7731,0 -1.5287,-0.264 -2.0558,-0.896 l -4.4456,-4.4987 c -1.1597,-1.1598 -1.1597,-3.075 0,-4.2172 1.1597,-1.1597 3.075,-1.1597 4.2172,0 l 2.3018,2.3019 6.7826,-6.7826 c 1.1597,-1.1597 3.075,-1.1597 4.2171,0 1.1597,1.2827 1.1597,3.075 0,4.2347 z"
     fill="#ffffff"
     id="path3574" />
</svg>
