<svg width="71" height="70" viewBox="0 0 71 70" fill="none" xmlns="http://www.w3.org/2000/svg">
<path d="M34.8579 56.5435C30.3593 56.531 26.4011 55.0846 23.0209 52.098C21.9463 51.1483 21.7682 50.0143 22.5398 49.1614C23.2896 48.3335 24.3643 48.371 25.4233 49.2614C31.1559 54.0974 38.788 54.1005 44.5112 49.2676C45.5734 48.371 46.6418 48.3273 47.3978 49.1489C48.1757 49.9987 47.9945 51.1327 46.9323 52.0886C43.6333 55.0565 39.5877 56.5466 34.8579 56.5435Z" fill="#B4123B"/>
<path d="M38.6819 33.1934C38.6819 35.1366 38.66 37.0766 38.685 39.0198C38.7319 42.4968 36.3826 44.8305 32.0839 44.1713C31.1092 44.0214 30.6344 43.2779 30.6844 42.3094C30.7375 41.341 31.2935 40.738 32.2745 40.5912C34.9674 40.1882 34.9674 40.1913 34.9674 37.389C34.9674 33.8932 34.9643 30.3974 34.9674 26.9016C34.9705 25.4365 35.661 24.5742 36.8106 24.5742C37.9665 24.5742 38.6663 25.4365 38.6725 26.9016C38.6882 28.9979 38.6819 31.0972 38.6819 33.1934Z" fill="#B4123B"/>
<path d="M51.3623 29.1264C51.3623 29.9043 51.3842 30.6822 51.3561 31.4569C51.3186 32.5503 50.6313 33.3157 49.6972 33.3595C48.7412 33.4063 47.904 32.6003 47.8759 31.485C47.8321 29.8137 47.8353 28.1423 47.8759 26.471C47.904 25.3369 48.6975 24.5528 49.6722 24.5747C50.65 24.5965 51.3311 25.3838 51.3623 26.5616C51.3811 27.4144 51.3654 28.2704 51.3623 29.1264Z" fill="#B4123B"/>
<path d="M18.994 28.9792C18.994 28.1232 18.9533 27.2672 19.0033 26.4143C19.0689 25.3178 19.8 24.5805 20.7309 24.5743C21.665 24.568 22.4554 25.2959 22.496 26.3862C22.5585 28.0951 22.5585 29.807 22.5023 31.5159C22.4648 32.5999 21.6806 33.3497 20.7622 33.3622C19.7968 33.3716 19.0564 32.5937 19.0002 31.4284C18.9596 30.613 18.9908 29.7977 18.9908 28.9792C18.9908 28.9792 18.9908 28.9792 18.994 28.9792Z" fill="#B4123B"/>
<path d="M58.201 3.60202C55.9486 3.58015 53.6961 3.58015 51.4437 3.60515C50.4502 3.61764 49.1475 3.09905 49.1475 1.81819C49.1475 0.584198 50.4815 0 51.4531 0C54.7989 0 60.241 0 60.241 0C60.241 0 60.3909 5.72006e-06 61.2313 0.0156259C65.1551 0.0156259 70.0036 5.01409 70.0036 9.15969C70.0036 9.32214 70.0036 9.80949 70.0036 9.80949C70.0036 9.80949 70.0036 15.2516 70.0036 18.5974C70.0036 19.569 69.4225 20.903 68.1854 20.903C66.9077 20.903 66.3891 19.6002 66.3985 18.6068C66.4235 16.3544 66.4235 14.1019 66.4016 11.8495C66.3516 6.80104 63.2026 3.652 58.151 3.60202" fill="#B4123B"/>
<path d="M3.60202 11.828C3.58015 14.0804 3.58015 16.3329 3.60515 18.5853C3.61764 19.5788 3.09905 20.8815 1.81819 20.8815C0.584198 20.8815 0 19.5475 0 18.5759C0 15.2301 0 9.78802 0 9.78802C0 9.78802 9.53149e-07 9.63806 0.0156212 8.79769C0.0156212 4.8739 5.01409 0.0253906 9.15969 0.0253906C9.32214 0.0253906 9.80949 0.0253906 9.80949 0.0253906C9.80949 0.0253906 15.2516 0.0253906 18.5974 0.0253906C19.569 0.0253906 20.903 0.606464 20.903 1.84358C20.903 3.12132 19.6002 3.6399 18.6068 3.63053C16.3544 3.60553 14.1019 3.60554 11.8495 3.62741C6.80104 3.67739 3.65201 6.82643 3.60202 11.878" fill="#B4123B"/>
<path d="M11.8244 66.3986C14.0768 66.4205 16.3292 66.4205 18.5817 66.3955C19.5751 66.383 20.8778 66.9016 20.8778 68.1824C20.8778 69.4164 19.5439 70.0006 18.5723 70.0006C15.2264 70.0006 9.78436 70.0006 9.78436 70.0006C9.78436 70.0006 9.6344 70.0006 8.79403 69.985C4.87024 69.985 0.0217285 64.9865 0.0217285 60.8409C0.0217285 60.6785 0.0217285 60.1911 0.0217285 60.1911C0.0217285 60.1911 0.0217285 54.749 0.0217285 51.4032C0.0217285 50.4316 0.602802 49.0977 1.83992 49.0977C3.11766 49.0977 3.63624 50.4004 3.62687 51.3938C3.60188 53.6463 3.60188 55.8987 3.62375 58.1511C3.67373 63.1996 6.82277 66.3486 11.8743 66.3986" fill="#B4123B"/>
<path d="M66.4514 58.1765C66.4733 55.9241 66.4733 53.6716 66.4483 51.4192C66.4358 50.4258 66.9544 49.123 68.2352 49.123C69.4692 49.123 70.0534 50.457 70.0534 51.4286C70.0534 54.7744 70.0534 60.2165 70.0534 60.2165C70.0534 60.2165 70.0534 60.3665 70.0378 61.2068C70.0378 65.1306 65.0393 69.9791 60.8937 69.9791C60.7313 69.9791 60.2439 69.9791 60.2439 69.9791C60.2439 69.9791 54.8018 69.9791 51.456 69.9791C50.4844 69.9791 49.1505 69.3981 49.1505 68.161C49.1505 66.8832 50.4532 66.3646 51.4466 66.374C53.699 66.399 55.9515 66.399 58.2039 66.3771C63.2524 66.3271 66.4014 63.1781 66.4514 58.1265" fill="#B4123B"/>
</svg>
