<svg width="70" height="70" viewBox="0 0 70 70" fill="none" xmlns="http://www.w3.org/2000/svg">
<rect x="2" y="2" width="66" height="66" rx="18" fill="white" stroke="#B4123B" stroke-width="4"/>
<path d="M26.5813 22.2954C26.8897 22.0857 27.2042 21.95 27.5496 21.7773C27.7222 21.7095 27.8579 21.6416 28.0306 21.5368C28.0676 21.4998 28.339 21.4011 28.2403 21.4319C28.1354 21.4998 28.3081 21.3949 28.3081 21.3949C28.376 21.3579 28.4438 21.3271 28.5487 21.2901C28.9989 21.1174 29.4799 20.9447 29.9671 20.809C32.6931 19.9826 35.5978 19.7359 38.4656 20.1553C40.6735 20.5007 42.8505 21.2284 44.8179 22.2275C45.2003 22.4372 45.6813 22.3324 45.891 21.95C46.1007 21.6046 45.9958 21.0496 45.6135 20.8769C42.1598 19.1501 38.2929 18.2188 34.389 18.4593C31.8666 18.632 29.4182 19.2179 27.1364 20.254C26.6861 20.4637 26.2359 20.6672 25.8227 20.9447C25.4774 21.1852 25.3047 21.6355 25.5452 22.0178C25.7179 22.3632 26.2359 22.5359 26.5813 22.2954Z" fill="#B4123B"/>
<path d="M24.8174 45.1193C24.435 44.188 24.2315 43.2198 24.0588 42.2207C24.0218 42.011 23.991 41.7705 23.954 41.5669C23.954 41.5299 23.917 41.3264 23.954 41.5669C23.954 41.4991 23.954 41.4621 23.917 41.3943C23.917 41.2586 23.88 41.1167 23.88 40.9811C23.8121 40.463 23.8121 39.945 23.8121 39.3899C23.8121 38.8349 23.8491 38.249 23.917 37.7001C23.917 37.6322 23.917 37.5644 23.954 37.4904C23.917 37.6631 23.954 37.4534 23.954 37.4225C23.991 37.2869 23.991 37.145 24.0218 37.0093C24.0897 36.701 24.1267 36.3864 24.2315 36.1089C24.5769 34.8631 24.9901 33.864 25.7487 32.7909C26.094 32.3099 26.5072 31.8227 26.9944 31.3725C27.5495 30.8544 28.0984 30.4042 28.7583 29.991C30.3803 28.9549 32.249 28.2272 34.1793 28.0545C36.2885 27.8448 38.3915 28.1593 40.3589 28.9179C41.9131 29.5038 43.3315 30.4042 44.4663 31.613C45.0892 32.2359 45.5702 32.9575 46.0204 33.7222C46.261 34.1354 46.5015 34.5856 46.7112 35.0358C46.816 35.2763 46.9517 35.5169 47.0565 35.7636C46.9887 35.6279 47.0195 35.7266 47.0565 35.7636C47.1614 36.0041 47.2292 36.2446 47.2971 36.4913C47.3649 36.701 47.4019 36.9045 47.4328 37.1142C47.4698 37.219 47.4698 37.3547 47.5006 37.4966C47.5006 37.5644 47.5376 37.6322 47.5376 37.7062C47.5006 37.4966 47.5376 37.8111 47.5376 37.8419C47.5746 38.1194 47.5746 38.397 47.5746 38.7053V39.1555V39.3961V39.5317C47.4698 40.2225 47.3341 40.6049 46.9209 41.1537C46.9887 41.0489 46.853 41.2586 46.853 41.2586L46.6803 41.4313C46.5755 41.5361 46.4707 41.641 46.4028 41.6718C46.0575 41.9493 45.6442 42.122 45.231 42.2268C44.3306 42.5044 43.2945 42.4365 42.4311 41.9863C41.7774 41.641 41.2902 41.1599 40.9448 40.5C40.877 40.3643 40.8399 40.2903 40.7721 40.0868C40.7351 39.982 40.7043 39.8463 40.7043 39.7414C40.6673 39.6058 40.5686 39.3282 40.7043 39.6366C40.6364 39.4639 40.7043 39.2234 40.6673 39.0507C40.6673 38.7732 40.5994 38.4957 40.5624 38.1873C39.8038 34.3883 34.3828 33.2165 31.9283 36.0472C30.0657 38.1873 30.5838 41.3326 31.5829 43.7502C32.7238 46.5501 34.9009 48.758 37.5898 50.1024C38.4532 50.5526 39.3845 50.898 40.3157 51.2064C41.284 51.5147 41.6972 49.9976 40.7289 49.6892C39.0699 49.1342 37.3801 48.3448 36.0665 47.2347C34.9626 46.3342 34.204 45.3721 33.5132 44.1634C33.3776 43.8858 33.2357 43.6083 33.1 43.337C33.0322 43.2013 33.137 43.4048 33.063 43.2691C33.026 43.2013 32.9952 43.1334 32.9952 43.0964C32.9274 42.9607 32.8904 42.8189 32.8595 42.6832C32.6868 42.2022 32.5512 41.6841 32.4463 41.1661C32.4093 40.9256 32.3785 40.7159 32.3415 40.5123C32.3415 40.4445 32.3415 40.4075 32.3045 40.3767C32.2675 40.204 32.3045 40.4445 32.3045 40.3767C32.3045 40.2718 32.2675 40.167 32.2675 40.0683C32.1626 39.2049 32.3045 38.3415 32.7485 37.5829C33.7168 35.9917 35.6163 35.7204 37.2013 36.3741C37.7872 36.6146 38.3422 37.0278 38.6876 37.5829C39.1008 38.2366 39.0699 38.9644 39.1686 39.7599C39.2056 39.9696 39.1686 39.8278 39.1686 39.7969C39.1686 39.9018 39.2056 39.9696 39.2056 40.0745C39.2426 40.1793 39.2426 40.315 39.2735 40.4198C39.3413 40.6604 39.4461 40.9379 39.551 41.1476C39.6558 41.3881 39.8285 41.6656 40.0012 41.8753C40.6549 42.7387 41.5554 43.3616 42.6285 43.67C44.491 44.225 46.7729 43.7378 48.0495 42.2207C49.6036 40.3582 49.4309 37.6261 48.7032 35.4182C48.2222 33.9689 47.3896 32.5874 46.4583 31.4095C45.4222 30.065 44.1086 28.9241 42.5914 28.1285C38.6567 26.0563 33.9203 25.7788 29.8807 27.6474C27.0808 28.9241 24.6632 31.1011 23.4544 33.9689C22.5232 36.1768 22.2457 38.6313 22.4862 41.0489C22.6219 42.4982 22.8994 43.9475 23.3866 45.329C23.4236 45.3968 23.4544 45.4647 23.4544 45.5387C23.6271 45.9519 23.9725 46.2294 24.4227 46.0937C24.6447 46.0197 24.9901 45.5387 24.8174 45.1193Z" fill="#B4123B"/>
<path d="M22.3319 30.6882C22.3689 30.6204 22.3998 30.5834 22.4676 30.5155C22.5355 30.4477 22.5725 30.3799 22.6033 30.3058C22.6403 30.238 22.776 30.0962 22.6033 30.3058C22.6403 30.238 22.7081 30.201 22.739 30.1332C23.1892 29.5781 23.7072 29.0292 24.2253 28.5112C25.0209 27.7526 25.7116 27.1975 26.6058 26.6117C27.679 25.9209 28.8137 25.335 29.9917 24.9218C31.3731 24.4408 32.8224 24.1263 34.3088 24.0214C34.9625 23.9844 35.6224 23.9844 36.2453 24.0214C36.5536 24.0214 36.899 24.0584 37.2135 24.0584C37.3862 24.0584 37.5959 24.0954 37.7686 24.1263C37.8734 24.1263 37.9783 24.1633 38.077 24.1633C38.2866 24.2003 37.9043 24.1263 38.114 24.1633C38.1818 24.1633 38.2496 24.1633 38.2866 24.2003C39.3227 24.3729 40.3588 24.6135 41.3579 24.9588C44.3306 25.9949 46.9886 28.1041 48.8882 30.6944C49.1287 31.0398 49.5789 31.2124 49.9613 30.9719C50.3066 30.7622 50.4793 30.2442 50.2388 29.8988C48.3763 27.3086 45.9217 25.1994 42.9861 23.9227C41.0187 23.0593 38.9095 22.5783 36.7695 22.4734C34.7343 22.3686 32.6251 22.5104 30.6577 23.0593C28.1045 23.7871 25.7548 25.1315 23.7504 26.8583C22.7513 27.7588 21.746 28.7579 21.0245 29.8988C20.4324 30.7561 21.7769 31.5516 22.3319 30.6882Z" fill="#B4123B"/>
<path d="M34.7653 39.1512C34.7283 40.6375 35.2463 42.1238 35.9741 43.4005C37.0102 45.263 38.6692 46.7184 40.7044 47.3352C42.2955 47.8162 43.8805 47.7484 45.5395 47.5757C45.9527 47.5387 46.3351 47.2303 46.3351 46.7801C46.3351 46.3669 45.9897 45.9537 45.5395 45.9845C44.195 46.1202 42.8444 46.2251 41.6048 45.9167C41.0497 45.781 40.6735 45.6392 40.2603 45.4357C40.0506 45.3308 39.8471 45.1951 39.6374 45.0903C39.5326 45.0224 39.4647 44.9546 39.3599 44.9176C39.2921 44.8806 39.2551 44.8498 39.2242 44.8128C39.1872 44.7758 39.1872 44.7758 39.2242 44.8128C39.1872 44.7758 39.1564 44.7758 39.1564 44.7449C38.811 44.4674 38.4656 44.122 38.1881 43.7767C38.1203 43.7088 38.0524 43.604 37.9784 43.5361C38.0833 43.641 37.8736 43.4005 37.8736 43.3635C37.7379 43.1908 37.6331 42.9811 37.4912 42.8084C37.2815 42.463 37.1089 42.1177 36.9362 41.7353C36.9362 41.6983 36.8992 41.6675 36.8992 41.6305C36.967 41.8031 36.9362 41.6983 36.8992 41.6675C36.8622 41.5626 36.8313 41.4948 36.7943 41.3899C36.7265 41.2172 36.6895 41.0446 36.6216 40.8719C36.5168 40.5635 36.449 40.249 36.3811 39.9406C36.3811 39.9036 36.3441 39.6631 36.3441 39.8358C36.3811 40.0085 36.3441 39.7679 36.3441 39.7309V39.1142C36.3564 38.146 34.8023 38.146 34.7653 39.1512Z" fill="#B4123B"/>
<path d="M44.8487 39.2183C44.9165 37.214 44.1209 35.2466 42.8813 33.6925C40.914 31.2071 37.4603 30.0291 34.352 30.4485C31.3486 30.8309 28.3759 32.866 27.1363 35.666C26.3407 37.4977 26.2051 39.502 26.4826 41.4324C27.0006 44.9539 28.8323 48.167 31.3856 50.6216C32.1133 51.3123 33.2172 50.2084 32.4895 49.5177C30.3495 47.4455 28.7583 44.8552 28.1354 41.9196C28.0676 41.6791 28.0306 41.4385 27.9997 41.2289C27.9997 41.1918 27.9997 41.124 27.9627 41.0932C27.9257 40.8835 27.9997 41.2659 27.9627 41.0562C27.9627 40.9513 27.9257 40.8156 27.9257 40.7108C27.8887 40.4024 27.8579 40.0571 27.8579 39.7425C27.8579 39.0518 27.9257 38.3981 28.0676 37.7382C28.3451 36.4616 28.968 35.2836 29.8622 34.3894C30.3125 33.9392 30.6578 33.6986 31.108 33.3533C31.7309 32.9401 32.3538 32.5947 33.0754 32.3542C34.7344 31.7991 36.4612 31.8731 38.0832 32.3912C39.292 32.7735 40.3281 33.3903 41.1545 34.2537C41.6047 34.7039 41.8452 35.0123 42.1906 35.5981C42.3263 35.8078 42.4311 36.0484 42.536 36.2889C42.573 36.3567 42.6038 36.3937 42.6038 36.4616C42.6716 36.6342 42.5668 36.3567 42.6408 36.5294C42.6778 36.6342 42.7456 36.7699 42.7765 36.8748C42.9122 37.288 43.054 37.7012 43.1219 38.1514C43.1219 38.2562 43.1589 38.3241 43.1589 38.4289C43.1219 38.1514 43.1589 38.4289 43.1589 38.4968C43.1959 38.7743 43.1959 39.0518 43.1959 39.2923C43.2637 40.2544 44.8487 40.2544 44.8487 39.2183Z" fill="#B4123B"/>
</svg>
