<svg width="84px" height="152px" viewBox="0 0 84 152" version="1.1" xmlns="http://www.w3.org/2000/svg" xmlns:xlink="http://www.w3.org/1999/xlink">
    <g id="APP---Flujo-Privado" stroke="none" stroke-width="1" fill="none" fill-rule="evenodd">
        <g id="2G---Tutorial-" transform="translate(-138.000000, -141.000000)" fill="#B4123B" stroke="#B4123B">
            <g id="Icon" transform="translate(139.000000, 142.000000)">
                <path d="M80.6499287,124.926528 C78.929415,122.872981 75.9891666,122.31185 73.6254155,123.585936 L72.0063827,121.631266 C70.5406733,119.924404 68.0316641,119.555069 66.1308605,120.766368 L64.5379412,121.812895 L63.5804487,120.679878 C62.1177199,118.974304 59.6117299,118.604866 57.713631,119.81498 L46.9026702,126.812007 L34.8904915,121.899385 C31.1031653,120.364042 26.7767537,120.979105 23.5746709,123.508095 L8.25479087,135.616671 C7.80492154,135.931518 7.56802871,136.468397 7.63978475,137.010481 C7.71154079,137.552565 8.08009378,138.01032 8.59659861,138.198873 C9.11310344,138.387427 9.69224921,138.275637 10.1001401,137.908651 L25.4200201,125.800076 C27.7930096,123.920431 31.0050646,123.466856 33.8111363,124.615165 L55.0500609,133.264147 C56.3930524,133.863388 57.0201004,135.409481 56.4705221,136.766534 C55.9209437,138.123588 54.3909077,138.807209 53.0045088,138.315153 L38.6334167,132.745208 C38.1348348,132.51777 37.5505326,132.583081 37.1152673,132.914902 C36.6800019,133.246722 36.4652173,133.790587 36.557208,134.327986 C36.6491987,134.865385 37.0328656,135.30811 37.5540615,135.478287 L51.8816312,141.091476 C52.5451689,141.346984 53.250381,141.478918 53.9620013,141.480681 C57.0096433,141.475287 59.5192977,139.099473 59.6721384,136.075067 L59.8375234,135.988577 L74.8092244,126.27577 C76.0473108,125.511176 77.6720773,125.85417 78.4903682,127.052874 C79.3086591,128.251577 79.0285725,129.878386 77.8557915,130.738645 L57.5743593,145.026763 C54.9680765,146.870861 51.6581153,147.434393 48.5826343,146.557633 L31.4609274,141.766097 C28.3104946,140.883262 24.9247049,141.583869 22.390862,143.642926 L17.7774891,147.405234 C17.3040394,147.801592 17.1289574,148.448906 17.3386564,149.02769 C17.5483554,149.606473 18.0985045,149.994369 18.7175726,149.999928 C19.0573875,150.00331 19.3874011,149.886856 19.6489517,149.671267 L24.305847,145.952205 C26.0895221,144.499313 28.4756015,144.005113 30.6949334,144.62891 L47.7731179,149.411798 C51.7029131,150.513652 55.9236876,149.781794 59.245619,147.422532 L79.5705735,133.134413 C80.8628936,132.227177 81.7145872,130.824368 81.9195977,129.265379 C82.1246082,127.706391 81.6642601,126.133239 80.6499287,124.926528 Z M59.2630279,122.271291 C59.9154667,121.85986 60.7732672,121.989001 61.2737622,122.574005 L62.0049383,123.438903 L53.0306222,129.311562 L50.219076,128.161248 L59.2630279,122.271291 Z M58.9322578,133.056572 C58.3414503,132.003608 57.4261101,131.166864 56.3209146,130.669453 L67.7150754,123.222679 C68.3662712,122.813083 69.2210046,122.938086 69.7258097,123.516744 L71.1011171,125.194647 L58.9322578,133.056572 Z" id="Shape" fill-rule="nonzero"></path>
                <path d="M49.1418151,114.278052 C37.9444521,114.278052 28.8671959,105.200796 28.8671959,94.0034327 C28.8671959,82.8060698 37.9444521,73.7288136 49.1418151,73.7288136 C60.339178,73.7288136 69.4164342,82.8060698 69.4164342,94.0034327 C69.4069483,105.196864 60.3352465,114.268566 49.1418151,114.278052 Z M49.1418151,76.6620529 C42.1236199,76.6620538 35.7966435,80.8901724 33.1117008,87.3744724 C30.426758,93.8587723 31.9127261,101.321983 36.8765698,106.283366 C41.8404136,111.244749 49.3043604,112.727015 55.7873281,110.038857 C62.2702958,107.350699 66.4952763,101.021627 66.4917968,94.0034327 C66.4775743,84.4285927 58.7166609,76.6715271 49.1418151,76.6620529 Z" id="Shape" fill-rule="nonzero"></path>
                <path d="M48.7296636,88.6787023 C50.1859502,88.725244 51.6326998,88.9259963 53.0443301,89.2774095 C53.8402561,89.4899746 54.6625251,89.0342891 54.8809194,88.2596073 C55.0993137,87.4849256 54.6311318,86.6846039 53.8352059,86.4720388 C52.6489211,86.1768959 51.4416904,85.9681961 50.22354,85.8476728 L50.22354,83.8719392 C50.22354,83.0689154 49.5547087,82.4179361 48.7296636,82.4179361 C47.9046184,82.4179361 47.2357871,83.0689154 47.2357871,83.8719392 L47.2357871,85.8647787 C43.2286834,86.3950622 42.7453704,89.0550326 42.7453704,90.2695528 C42.7453704,93.2887475 45.9440234,94.5460325 47.8597002,95.3329047 L48.2287756,95.4783051 L48.7911761,95.700682 C50.7244279,96.4447895 51.5680287,96.9152022 51.5680287,98.2665698 C51.5680287,99.6179374 50.6365529,100.276515 48.8175386,100.353492 L48.7296636,100.353492 L48.5011883,100.353492 C46.7879086,100.20017 45.1065909,99.8054653 43.5098836,99.1817365 C43.0062885,98.9677014 42.4226213,99.0400438 41.9902116,99.3700914 C41.5578019,99.7001391 41.3464695,100.2346 41.4399735,100.761648 C41.5334774,101.288695 41.91672,101.723228 42.4378076,101.893025 C43.9889223,102.468261 45.596707,102.886706 47.2357871,103.141757 L47.2357871,105.100384 C47.2357871,105.903408 47.9046184,106.554387 48.7296636,106.554387 C49.5547087,106.554387 50.22354,105.903408 50.22354,105.100384 L50.22354,103.073333 C52.93888,102.560155 54.5557816,100.806799 54.5557816,98.223805 C54.5557816,94.8026213 51.6383288,93.6736306 49.8984022,92.9979468 L49.0196513,92.6387225 C47.6488,92.0913331 45.7594857,91.3386727 45.7594857,90.2695528 C45.7331232,89.7563752 45.7331232,88.6787023 48.7296636,88.6787023 Z" id="Path"></path>
                <path d="M19.7033898,68.6440678 C8.82150811,68.6440678 -5.93979657e-15,59.8225597 0,48.940678 C2.96989828e-15,38.0587962 8.82150811,29.2372881 19.7033898,29.2372881 C30.5852716,29.2372881 39.4067797,38.0587962 39.4067797,48.940678 C39.397561,59.8187389 30.5814508,68.6348491 19.7033898,68.6440678 Z M19.7033898,32.0878846 C12.8829295,32.0878855 6.73421317,36.1968786 4.12491764,42.4984859 C1.51562212,48.8000933 2.95972361,56.0530312 7.78371301,60.8746289 C12.6077024,65.6962267 19.8613556,67.1367312 26.1616682,64.5243109 C32.4619808,61.9118907 36.5679242,55.7611374 36.5645427,48.940678 C36.550721,39.6356053 29.0084682,32.0970919 19.7033898,32.0878846 Z" id="Shape" fill-rule="nonzero"></path>
                <path d="M19.5039659,44.2283206 C20.9736552,44.2721592 22.4337197,44.4612525 23.8583417,44.7922567 C24.6615927,44.9924767 25.4914293,44.5632559 25.7118336,43.8335653 C25.9322378,43.1038747 25.4597471,42.3500333 24.6564961,42.1498133 C23.4592936,41.8718114 22.2409524,41.6752323 21.0115909,41.5617085 L21.0115909,39.7007194 C21.0115909,38.9443328 20.3366042,38.3311604 19.5039659,38.3311604 C18.6713276,38.3311604 17.9963409,38.9443328 17.9963409,39.7007194 L17.9963409,41.577821 C13.9523586,42.0773072 13.4645976,44.5827947 13.4645976,45.7267793 C13.4645976,48.5706285 16.6926887,49.7548943 18.6259961,50.4960674 L18.9984681,50.6330233 L19.5660446,50.8424853 C21.5170887,51.5433773 22.3684534,51.9864699 22.3684534,53.2593542 C22.3684534,54.5322385 21.4284049,55.1525682 19.5926498,55.2250743 L19.5039659,55.2250743 L19.273388,55.2250743 C17.5443405,55.0806572 15.8475491,54.7088754 14.2361468,54.1213708 C13.727917,53.9197663 13.1388781,53.9879072 12.7024888,54.2987867 C12.2660995,54.6096662 12.0528221,55.1130876 12.1471867,55.6095257 C12.2415512,56.1059639 12.6283209,56.5152605 13.1542042,56.6751957 C14.7195943,57.2170241 16.3421759,57.6111674 17.9963409,57.8514052 L17.9963409,59.6962819 C17.9963409,60.4526685 18.6713276,61.0658409 19.5039659,61.0658409 C20.3366042,61.0658409 21.0115909,60.4526685 21.0115909,59.6962819 L21.0115909,57.7869554 C23.7519211,57.3035816 25.3837034,55.6520545 25.3837034,53.2190731 C25.3837034,49.9965812 22.4394005,48.9331588 20.6834608,48.2967167 L19.7966226,47.958355 C18.4131549,47.4427563 16.5064527,46.7338081 16.5064527,45.7267793 C16.4798476,45.2434056 16.4798476,44.2283206 19.5039659,44.2283206 Z" id="Path"></path>
                <path d="M61.0169492,38.1355932 C50.4860959,38.1355932 41.9491525,29.5986499 41.9491525,19.0677966 C41.9491525,8.53694333 50.4860959,2.87409511e-15 61.0169492,0 C71.5478024,-1.43704756e-15 80.0847458,8.53694333 80.0847458,19.0677966 C80.0758244,29.5949523 71.5441049,38.1266719 61.0169492,38.1355932 Z M61.0169492,2.75864177 C54.4165037,2.75864258 48.466133,6.73508751 45.9410083,12.8334172 C43.4158836,18.9317469 44.8134012,25.9507191 49.481778,30.6167814 C54.1501549,35.2828437 61.1698192,36.6768804 67.2668959,34.1487318 C73.3639727,31.6205831 77.3374663,25.6682412 77.3341939,19.0677966 C77.320818,10.0628876 70.0218637,2.76755201 61.0169492,2.75864177 Z" id="Shape" fill-rule="nonzero"></path>
                <path d="M60.2661343,14.8335115 C61.6357373,14.877633 62.9963708,15.0679462 64.3239755,15.4010859 C65.0725249,15.6025976 65.8458493,15.1706077 66.051244,14.4362094 C66.2566386,13.7018112 65.8163247,12.9431062 65.0677753,12.7415945 C63.9521027,12.461799 62.8167311,12.2639516 61.6710895,12.1496955 L61.6710895,10.2767 C61.6710895,9.51543352 61.0420697,8.89830508 60.2661343,8.89830508 C59.490199,8.89830508 58.8611792,9.51543352 58.8611792,10.2767 L58.8611792,12.1659119 C55.0925934,12.6686206 54.6380491,15.1902726 54.6380491,16.3416377 C54.6380491,19.2038343 57.6463061,20.3957405 59.4479546,21.1416954 L59.7950611,21.2795349 L60.3239854,21.4903482 C62.1421628,22.1957621 62.9355492,22.6417134 62.9355492,23.9228099 C62.9355492,25.2039064 62.0595183,25.8282382 60.3487788,25.901212 L60.2661343,25.901212 L60.0512588,25.901212 C58.4399601,25.7558632 56.8587208,25.3816828 55.3570556,24.7903879 C54.8834364,24.5874827 54.3345113,24.6560632 53.9278402,24.9689484 C53.5211692,25.2818336 53.3224161,25.7885028 53.4103544,26.2881438 C53.4982926,26.7877847 53.8587232,27.199722 54.3487936,27.360689 C55.8075801,27.9060131 57.3196633,28.3026993 58.8611792,28.544487 L58.8611792,30.4012661 C58.8611792,31.1625326 59.490199,31.779661 60.2661343,31.779661 C61.0420697,31.779661 61.6710895,31.1625326 61.6710895,30.4012661 L61.6710895,28.4796214 C64.2248022,27.993129 65.7454596,26.3309469 65.7454596,23.8822689 C65.7454596,20.6389867 63.0016648,19.5687035 61.3653052,18.9281553 L60.5388609,18.5876107 C59.2496079,18.0686855 57.4727528,17.3551634 57.4727528,16.3416377 C57.4479595,15.8551454 57.4479595,14.8335115 60.2661343,14.8335115 Z" id="Path"></path>
            </g>
        </g>
    </g>
</svg>