<?xml version="1.0" encoding="UTF-8" standalone="no"?>
<!-- Generator: Adobe Illustrator 26.3.1, SVG Export Plug-In . SVG Version: 6.00 Build 0)  -->

<svg
   version="1.1"
   id="Capa_1"
   x="0px"
   y="0px"
   viewBox="0 0 224.24001 224.07001"
   xml:space="preserve"
   sodipodi:docname="face-id-logo.svg"
   width="224.24001"
   height="224.07001"
   inkscape:version="1.2 (dc2aeda, 2022-05-15)"
   xmlns:inkscape="http://www.inkscape.org/namespaces/inkscape"
   xmlns:sodipodi="http://sodipodi.sourceforge.net/DTD/sodipodi-0.dtd"
   xmlns="http://www.w3.org/2000/svg"
   xmlns:svg="http://www.w3.org/2000/svg"><defs
   id="defs77" /><sodipodi:namedview
   id="namedview75"
   pagecolor="#ffffff"
   bordercolor="#000000"
   borderopacity="0.25"
   inkscape:showpageshadow="2"
   inkscape:pageopacity="0.0"
   inkscape:pagecheckerboard="0"
   inkscape:deskcolor="#d1d1d1"
   showgrid="false"
   inkscape:zoom="1.9927555"
   inkscape:cx="141.01078"
   inkscape:cy="120.93807"
   inkscape:window-width="1440"
   inkscape:window-height="778"
   inkscape:window-x="0"
   inkscape:window-y="25"
   inkscape:window-maximized="1"
   inkscape:current-layer="Capa_1" />
<style
   type="text/css"
   id="style52">
	.st0{fill:#FFFFFF;}
</style>
<g
   id="g64"
   transform="translate(-194.93,-282.99)">
	<path
   class="st0"
   d="m 381.07,294.52 c 16.16,0.16 26.25,10.24 26.41,26.4 m 3.74,28.98 M 306.51,463.98 c 15.14,0.01 28.09,-4.76 38.64,-14.25 3.4,-3.06 3.98,-6.69 1.49,-9.41 -2.41,-2.63 -5.84,-2.49 -9.24,0.38 -18.32,15.47 -42.74,15.46 -61.1,-0.02 -3.39,-2.86 -6.83,-2.98 -9.23,-0.32 -2.47,2.73 -1.9,6.36 1.54,9.4 10.83,9.55 23.51,14.18 37.9,14.22 z m 12.24,-74.74 c 0,-6.71 0.02,-13.43 -0.01,-20.14 -0.02,-4.69 -2.26,-7.45 -5.96,-7.45 -3.68,0 -5.89,2.76 -5.9,7.45 -0.01,11.19 0,22.38 0,33.57 0,8.98 0,8.96 -8.62,10.25 -3.14,0.47 -4.93,2.39 -5.09,5.5 -0.17,3.1 1.36,5.49 4.48,5.96 13.76,2.11 21.27,-5.36 21.13,-16.49 -0.1,-6.22 -0.03,-12.43 -0.03,-18.65 z m 40.6,-13.02 c 0,-2.74 0.05,-5.47 -0.01,-8.21 -0.09,-3.76 -2.28,-6.28 -5.41,-6.36 -3.12,-0.07 -5.67,2.44 -5.75,6.07 -0.13,5.35 -0.14,10.7 0,16.05 0.1,3.58 2.78,6.15 5.83,6 3,-0.14 5.19,-2.59 5.31,-6.09 0.09,-2.48 0.02,-4.97 0.03,-7.46 z m -103.62,-0.47 c 0,0 -0.01,0 -0.01,0 0,2.61 -0.1,5.23 0.03,7.84 0.19,3.73 2.55,6.23 5.64,6.19 2.95,-0.03 5.46,-2.44 5.57,-5.91 0.18,-5.47 0.19,-10.95 -0.02,-16.42 -0.13,-3.49 -2.66,-5.82 -5.65,-5.8 -2.99,0.02 -5.33,2.38 -5.53,5.89 -0.16,2.73 -0.03,5.47 -0.03,8.21 z"
   id="path54" />
	<path
   d="m 306.51,463.98 c -14.4,-0.04 -27.07,-4.67 -37.89,-14.23 -3.44,-3.04 -4.01,-6.67 -1.54,-9.4 2.4,-2.65 5.84,-2.53 9.23,0.32 18.35,15.48 42.78,15.49 61.1,0.02 3.4,-2.87 6.82,-3.01 9.24,-0.38 2.49,2.72 1.91,6.35 -1.49,9.41 -10.56,9.5 -23.51,14.27 -38.65,14.26 z"
   id="path56"
   style="fill:#4c4c4a;fill-opacity:1" />
	<path
   d="m 318.75,389.24 c 0,6.22 -0.07,12.43 0.01,18.65 0.15,11.13 -7.37,18.6 -21.13,16.49 -3.12,-0.48 -4.64,-2.86 -4.48,-5.96 0.17,-3.1 1.95,-5.03 5.09,-5.5 8.62,-1.29 8.62,-1.28 8.62,-10.25 0,-11.19 -0.01,-22.38 0,-33.57 0.01,-4.69 2.22,-7.45 5.9,-7.45 3.7,0 5.94,2.76 5.96,7.45 0.05,6.71 0.03,13.43 0.03,20.14 z"
   id="path58"
   style="fill:#4c4c4d;fill-opacity:1" />
	<path
   d="m 359.34,376.22 c 0,2.49 0.07,4.98 -0.02,7.46 -0.12,3.5 -2.32,5.95 -5.31,6.09 -3.06,0.15 -5.74,-2.43 -5.83,-6 -0.14,-5.35 -0.13,-10.7 0,-16.05 0.09,-3.63 2.63,-6.14 5.75,-6.07 3.13,0.07 5.31,2.59 5.41,6.36 0.06,2.73 0.01,5.47 0,8.21 z"
   id="path60"
   style="fill:#4c4c4a;fill-opacity:1" />
	<path
   d="m 255.73,375.75 c 0,-2.74 -0.13,-5.48 0.03,-8.21 0.21,-3.51 2.55,-5.87 5.53,-5.89 2.99,-0.02 5.52,2.31 5.65,5.8 0.2,5.47 0.2,10.95 0.02,16.42 -0.12,3.47 -2.63,5.87 -5.57,5.91 -3.09,0.03 -5.46,-2.46 -5.64,-6.19 -0.13,-2.61 -0.03,-5.22 -0.03,-7.84 0,0 0,0 0.01,0 z"
   id="path62"
   style="fill:#4c4c4a;fill-opacity:1" />
</g>
<path
   d="m 186.3,11.530003 c -7.21,-0.07 -14.42,-0.07 -21.63,0.01 -3.18,0.04 -7.35,-1.620003 -7.35,-5.720003 0,-3.95 4.27,-5.82 7.38,-5.82 10.71,0 28.13,0 28.13,0 0,0 0.48,0 3.17,0.05 12.56,0 28.08,16.000003 28.08,29.270003 0,0.52 0,2.08 0,2.08 0,0 0,17.42 0,28.13 0,3.11 -1.86,7.38 -5.82,7.38 -4.09,0 -5.75,-4.17 -5.72,-7.35 0.08,-7.21 0.08,-14.42 0.01,-21.63 -0.16,-16.16 -10.24,-26.24 -26.41,-26.4"
   id="path66"
   style="fill:#4c4c4c;fill-opacity:1" />
<path
   d="m 11.53,37.860003 c -0.07,7.21 -0.07,14.42 0.01,21.63 0.04,3.18 -1.62,7.35 -5.72,7.35 -3.95,0 -5.82,-4.27 -5.82,-7.38 0,-10.71 0,-28.13 0,-28.13 0,0 0,-0.48 0.05,-3.17 0,-12.56 16,-28.080003 29.27,-28.080003 0.52,0 2.08,0 2.08,0 0,0 17.42,0 28.13,0 3.11,0 7.38,1.86 7.38,5.82 0,4.09 -4.17,5.750003 -7.35,5.720003 -7.21,-0.08 -14.42,-0.08 -21.63,-0.01 -16.16,0.16 -26.24,10.24 -26.4,26.41"
   id="path68"
   style="fill:#4c4c4a;fill-opacity:1" />
<path
   d="m 37.85,212.54 c 7.21,0.07 14.42,0.07 21.63,-0.01 3.18,-0.04 7.35,1.62 7.35,5.72 0,3.95 -4.27,5.82 -7.38,5.82 -10.71,0 -28.13,0 -28.13,0 0,0 -0.48,0 -3.17,-0.05 -12.56,0 -28.08,-16 -28.08,-29.27 0,-0.52 0,-2.08 0,-2.08 0,0 0,-17.42 0,-28.13 0,-3.11 1.86,-7.38 5.82,-7.38 4.09,0 5.75,4.17 5.72,7.35 -0.08,7.21 -0.08,14.42 -0.01,21.63 0.16,16.16 10.24,26.24 26.41,26.4"
   id="path70"
   style="fill:#4c4c4a;fill-opacity:1" />
<path
   d="m 212.71,186.22 c 0.07,-7.21 0.07,-14.42 -0.01,-21.63 -0.04,-3.18 1.62,-7.35 5.72,-7.35 3.95,0 5.82,4.27 5.82,7.38 0,10.71 0,28.13 0,28.13 0,0 0,0.48 -0.05,3.17 0,12.56 -16,28.08 -29.27,28.08 -0.52,0 -2.08,0 -2.08,0 0,0 -17.42,0 -28.13,0 -3.11,0 -7.38,-1.86 -7.38,-5.82 0,-4.09 4.17,-5.75 7.35,-5.72 7.21,0.08 14.42,0.08 21.63,0.01 16.16,-0.16 26.24,-10.24 26.4,-26.41"
   id="path72"
   style="fill:#4c4c4a;fill-opacity:1" />
</svg>
