<?xml version="1.0" encoding="UTF-8"?>
<svg width="119px" height="25px" viewBox="0 0 119 25" version="1.1" xmlns="http://www.w3.org/2000/svg" xmlns:xlink="http://www.w3.org/1999/xlink">
    <!-- Generator: Sketch 51.2 (57519) - http://www.bohemiancoding.com/sketch -->
    <title>Logo Blanco</title>
    <desc>Created with Sketch.</desc>
    <defs></defs>
    <g id="Symbols" stroke="none" stroke-width="1" fill="none" fill-rule="evenodd">
        <g id="Header-Secundario" transform="translate(-120.000000, -30.000000)" fill="#FFFFFF">
            <g id="Logo-Blanco" transform="translate(120.000000, 30.000000)">
                <g>
                    <polygon id="Shape" fill-rule="nonzero" points="0.118055556 7.81840514 4.69861111 7.81840514 4.69861111 14.739229 13.8361111 14.739229 13.8361111 7.81840514 18.4166667 7.81840514 18.4166667 24.9669312 13.8361111 24.9669312 13.8361111 17.4555933 4.69861111 17.4555933 4.69861111 24.9669312 0.118055556 24.9669312"></polygon>
                    <path d="M30.2930556,11.2433862 L30.2222222,11.2433862 L27.2,18.329554 L33.3388889,18.329554 L30.2930556,11.2433862 Z M28.1208333,7.81840514 L33.4097222,7.81840514 L42.5944444,24.9905518 L37.4,24.9905518 L35.3930556,21.0459184 L25.9013889,21.0459184 L23.8472222,24.9905518 L18.9833333,24.9905518 L28.1208333,7.81840514 Z" id="Shape" fill-rule="nonzero"></path>
                    <path d="M48.3319444,22.2741875 L50.5277778,22.2741875 C52.7,22.2741875 55.3208333,21.8726379 55.3208333,19.888511 C55.3208333,17.6445578 52.8416667,17.31387 50.5277778,17.31387 L48.3319444,17.31387 L48.3319444,22.2741875 Z M48.3319444,14.739229 L50.2208333,14.739229 C52.1805556,14.739229 54.6125,14.4085412 54.6125,12.6606198 C54.6125,10.6764928 52.2513889,10.5111489 50.1027778,10.5111489 L48.3083333,10.5111489 L48.3083333,14.739229 L48.3319444,14.739229 Z M43.6569444,7.81840514 L51.8027778,7.81840514 C54.8013889,7.81840514 59.3111111,8.45616024 59.3111111,12.2118292 C59.3111111,14.2431973 57.4458333,15.6840514 54.6833333,16.0383598 L54.6833333,16.0856009 C57.8472222,16.2981859 60.0194444,17.8807634 60.0194444,19.9829932 C60.0194444,24.3055556 54.7541667,24.9433107 51.8263889,24.9433107 L43.6805556,24.9433107 L43.6805556,7.81840514 L43.6569444,7.81840514 Z" id="Shape" fill-rule="nonzero"></path>
                    <rect id="Rectangle-path" fill-rule="nonzero" x="62.0027778" y="7.81840514" width="4.69861111" height="17.1721466"></rect>
                    <polygon id="Shape" fill-rule="nonzero" points="75.3902778 10.5111489 68.7555556 10.5111489 68.7555556 7.81840514 86.6527778 7.81840514 86.6527778 10.5111489 80.0180556 10.5111489 80.0180556 24.9669312 75.3902778 24.9669312"></polygon>
                    <path d="M93.6652778,11.2433862 L93.5944444,11.2433862 L90.2416667,18.329554 L96.9944444,18.329554 L93.6652778,11.2433862 Z M91.1152778,7.81840514 L96.3569444,7.81840514 L105.447222,24.9905518 L100.3,24.9905518 L98.3166667,21.0459184 L88.9430556,21.0459184 L86.9125,24.9905518 L82.0958333,24.9905518 L91.1152778,7.81840514 Z" id="Shape" fill-rule="nonzero"></path>
                    <polygon id="Shape" fill-rule="nonzero" points="107.619444 10.5111489 100.913889 10.5111489 100.913889 7.81840514 119 7.81840514 116.733333 10.5111489 112.294444 10.5111489 112.294444 24.9669312 107.619444 24.9669312"></polygon>
                    <path d="M4.10833333,0.803099017 L2.14861111,4.4170446 L6.04444444,4.4170446 L4.10833333,0.803099017 Z M3.68333333,0.188964475 L4.675,0.188964475 L8.24027778,6.75547997 L7.31944444,6.75547997 L6.35138889,5.00755858 L1.81805556,5.00755858 L0.85,6.75547997 L0,6.75547997 L3.68333333,0.188964475 Z" id="Shape" fill-rule="nonzero"></path>
                    <polygon id="Shape" fill-rule="nonzero" points="8.54722222 0.188964475 12.7736111 0.188964475 12.7736111 0.732237339 9.44444444 0.732237339 9.44444444 3.07067271 12.6319444 3.07067271 12.6319444 3.63756614 9.44444444 3.63756614 9.44444444 6.73185941 8.54722222 6.73185941"></polygon>
                    <path d="M14.5680556,3.33049887 L15.1819444,3.33049887 C16.5041667,3.33049887 17.7555556,3.21239607 17.7555556,2.0313681 C17.7555556,1.20464853 17.1180556,0.732237339 16.0083333,0.732237339 L14.5916667,0.732237339 L14.5916667,3.33049887 L14.5680556,3.33049887 Z M13.6944444,0.188964475 L15.8666667,0.188964475 C17.5194444,0.188964475 18.6055556,0.803099017 18.6055556,2.05498866 C18.6055556,3.28325775 17.3541667,3.92101285 15.7722222,3.92101285 L14.5444444,3.92101285 L14.5444444,6.75547997 L13.6944444,6.75547997 L13.6944444,0.188964475 Z" id="Shape" fill-rule="nonzero"></path>
                </g>
            </g>
        </g>
    </g>
</svg>