<?xml version="1.0" encoding="UTF-8"?>
<svg width="34px" height="34px" viewBox="0 0 34 34" version="1.1" xmlns="http://www.w3.org/2000/svg" xmlns:xlink="http://www.w3.org/1999/xlink">
    <title>2</title>
    <g id="evolucion-de-saldo" stroke="none" stroke-width="1" fill="none" fill-rule="evenodd">
        <g id="Medium-Copy" transform="translate(-255, -621)" fill="#FFFFFF">
            <g id="2" transform="translate(255.4915, 621.0164)">
                <path d="M32.4552882,29.8254478 C33.1815263,30.551686 33.1815263,31.7291828 32.4552882,32.455421 C31.72905,33.1815263 30.551686,33.1815263 29.8254478,32.455421 L24.1829212,26.8127615 L26.8127615,24.1829212 L32.4552882,29.8254478 L32.4552882,29.8254478 Z M13.9483694,0 C21.6516483,0 27.8966059,6.2449576 27.8966059,13.9482365 C27.8966059,17.1294972 26.8310935,20.0614165 25.0378816,22.4079084 L26.0614165,23.4313105 L23.4315762,26.0612837 L22.4080413,25.0377488 C20.0614165,26.830695 17.1294972,27.8964731 13.9482365,27.8964731 C6.24482476,27.8964731 0,21.6515155 0,13.9482365 C0,6.2449576 6.2449576,0 13.9483694,0 L13.9483694,0 Z M22.308411,5.58832776 C20.1688844,3.44866828 17.2130538,2.12517989 13.9483694,2.12517989 L13.9482365,2.12517989 C10.683685,2.12517989 7.72798725,3.44853544 5.58832776,5.58819492 C3.44880112,7.72798725 2.12531273,10.683685 2.12531273,13.9481037 L2.12531273,13.9482365 C2.12531273,17.2127881 3.44866828,20.1686187 5.58832776,22.3082782 C7.72798725,24.4479377 10.683685,25.7712932 13.9483694,25.7712932 C17.2130538,25.7712932 20.1687515,24.4479377 22.308411,22.3082782 C24.4479377,20.1687515 25.771426,17.2129209 25.771426,13.9483694 C25.771426,10.683685 24.4479377,7.72798725 22.308411,5.58832776 L22.308411,5.58832776 Z" id="Shape" fill-rule="nonzero"></path>
                <path d="M9.81198663,11.360108 L13.2823079,11.360108 L13.2823079,24.4220338 C12.0755862,24.3461819 10.9042,24.0649589 9.81198663,23.596431 L9.81198663,11.360108 L9.81198663,11.360108 Z M5.00476011,19.4426462 C5.43104479,20.1351429 5.94062036,20.7818097 6.52764186,21.3688312 C7.12064118,21.9618305 7.77461421,22.475657 8.47494852,22.9047313 L8.47494852,13.6933159 L5.00476011,13.6933159 L5.00476011,19.4426462 L5.00476011,19.4426462 Z M14.6176191,24.4217681 C15.8243408,24.3456506 16.9958598,24.064029 18.0878075,23.5951026 L18.0878075,15.9516018 L14.6176191,15.9516018 L14.6176191,24.4217681 L14.6176191,24.4217681 Z M19.4217902,22.9047313 C20.1219917,22.4757898 20.7759648,21.9618305 21.3689641,21.3688312 C21.9559856,20.7818097 22.465694,20.1351429 22.8919787,19.442779 L22.8919787,9.8234109 L19.4217902,9.8234109 L19.4217902,22.9047313 L19.4217902,22.9047313 Z" id="Shape"></path>
            </g>
        </g>
    </g>
</svg>