<?xml version="1.0" encoding="UTF-8" standalone="no"?>
<svg
   width="18.000866"
   height="21.067499"
   viewBox="0 0 18.000866 21.067499"
   version="1.1"
   id="svg139"
   sodipodi:docname="claveunica.f53cf24.svg"
   inkscape:version="1.2 (dc2aeda, 2022-05-15)"
   xmlns:inkscape="http://www.inkscape.org/namespaces/inkscape"
   xmlns:sodipodi="http://sodipodi.sourceforge.net/DTD/sodipodi-0.dtd"
   xmlns="http://www.w3.org/2000/svg"
   xmlns:svg="http://www.w3.org/2000/svg"
   xmlns:rdf="http://www.w3.org/1999/02/22-rdf-syntax-ns#"
   xmlns:cc="http://creativecommons.org/ns#"
   xmlns:dc="http://purl.org/dc/elements/1.1/">
  <defs
     id="defs143" />
  <sodipodi:namedview
     id="namedview141"
     pagecolor="#ffffff"
     bordercolor="#000000"
     borderopacity="0.25"
     inkscape:showpageshadow="2"
     inkscape:pageopacity="0.0"
     inkscape:pagecheckerboard="0"
     inkscape:deskcolor="#d1d1d1"
     showgrid="false"
     inkscape:zoom="9.8333333"
     inkscape:cx="9.0508475"
     inkscape:cy="10.525424"
     inkscape:window-width="1280"
     inkscape:window-height="693"
     inkscape:window-x="0"
     inkscape:window-y="25"
     inkscape:window-maximized="1"
     inkscape:current-layer="svg139" />
  <!-- Generator: sketchtool 60.1 (101010) - https://sketch.com -->
  <title
     id="title132">CB8A5968-C80D-4CC6-8C7D-6FB7FD35A0DD</title>
  <desc
     id="desc134">Created with sketchtool.</desc>
  <g
     id="Asset-Artboard-Page"
     stroke="none"
     stroke-width="1"
     fill="none"
     fill-rule="evenodd"
     style="fill:#ffffff"
     transform="translate(-2.9991333,-1.4999999)">
    <g
       id="icon-Atoms-/-Icons-/-white-/-24px-/-logo-/-claveunica"
       fill="#FFFFFF"
       style="fill:#ffffff">
      <path
         d="m 11.4675,13.98 c -0.149083,-0.138815 -0.22662,-0.338107 -0.210549,-0.541177 0.01607,-0.203069 0.123987,-0.387685 0.293049,-0.501323 0.142042,-0.133568 0.333964,-0.200806 0.528307,-0.185087 0.194343,0.01572 0.372964,0.112927 0.491693,0.267587 0.259249,0.312535 0.22268,0.774632 -0.0825,1.0425 -0.142042,0.133568 -0.333963,0.200806 -0.528307,0.185087 C 11.76485,14.231868 11.586229,14.13466 11.4675,13.98 Z M 15.27,5.3174999 C 18.679688,6.6467513 20.944972,9.908285 21,13.5675 c 0,4.970563 -4.029437,9 -9,9 -4.9705628,0 -9.0000001,-4.029437 -9.0000001,-9 C 2.9494735,9.9583237 5.1123493,6.6857469 8.4525,5.3174999 8.82,5.2275 9.09,5.2275 9.27,5.6849999 9.4409507,6.0579197 9.2805604,6.4989933 8.91,6.675 5.4951975,8.1920923 3.7180321,11.991436 4.7423229,15.584941 5.7666138,19.178445 9.2798719,21.469809 12.981356,20.958478 16.68284,20.447147 19.443308,17.289117 19.455,13.5525 19.467505,10.47785 17.59111,7.7109119 14.73,6.585 14.550389,6.5290716 14.405167,6.3958051 14.334053,6.2216471 14.262938,6.0474891 14.273372,5.8506636 14.3625,5.6849999 14.420264,5.5049496 14.554977,5.3598331 14.73024,5.2888585 14.905504,5.2178839 15.103232,5.228376 15.27,5.3174999 Z M 7.5,13.3275 C 7.4842351,11.096562 9.0600415,9.1709269 11.25,8.745 V 2.3324999 c 0.02838,-0.4171363 0.338076,-0.7609012 0.75,-0.8325 h 3.3075 c 0.396543,0.023835 0.705716,0.3527421 0.705,0.75 -0.01649,0.3902411 -0.316523,0.7094293 -0.705,0.75 H 12.75 V 8.76 c 2.220466,0.3741238 3.82258,2.331907 3.75,4.5825 C 16.525349,15.864084 14.520965,17.938622 12,18 9.4731253,17.938574 7.4663739,15.854898 7.5,13.3275 Z m 7.5,0.09 c 0.01305,-1.68206 -1.318721,-3.067103 -3,-3.12 -1.581389,0.174157 -2.7784617,1.5103 -2.7784617,3.10125 0,1.59095 1.1970727,2.927093 2.7784617,3.10125 1.666705,-0.05247 2.992751,-1.414985 3,-3.0825 z"
         id="cl-icons-43"
         style="fill:#ffffff" />
    </g>
  </g>
  <metadata
     id="metadata1340">
    <rdf:RDF>
      <cc:Work
         rdf:about="">
        <dc:title>CB8A5968-C80D-4CC6-8C7D-6FB7FD35A0DD</dc:title>
      </cc:Work>
    </rdf:RDF>
  </metadata>
</svg>
