<svg width="84" height="84" viewBox="0 0 84 84" fill="none" xmlns="http://www.w3.org/2000/svg">
<circle cx="42" cy="42" r="42" fill="white"/>
<path d="M45.0929 44.0487C44.6161 44.0487 44.1712 43.7471 44.0158 43.2657C43.8224 42.6685 44.1438 42.0302 44.741 41.8367C48.9427 40.461 51.7702 36.5656 51.7702 32.1354C51.7702 26.5078 47.1937 21.9314 41.5661 21.9314C35.9385 21.9314 31.3621 26.5078 31.3621 32.1354C31.3621 36.3675 34.022 40.2081 37.983 41.6935C38.568 41.9129 38.8666 42.5664 38.6487 43.153C38.4309 43.7395 37.7758 44.0366 37.1893 43.8187C32.3478 42.0043 29.0937 37.3105 29.0937 32.1369C29.0937 25.2586 34.6863 19.666 41.5646 19.666C48.443 19.666 54.0355 25.2586 54.0355 32.1369C54.0355 37.5482 50.5819 42.3105 45.4463 43.9924C45.326 44.0305 45.2087 44.0487 45.0914 44.0487H45.0929Z" fill="#B4123B" stroke="#B4123B"/>
<path d="M21.1596 66.7822C20.5548 66.7822 20.0521 66.3054 20.0262 65.6945C20.0109 65.3548 19.7611 57.2638 25.4603 51.3345C29.2659 47.3781 34.7685 45.3672 41.816 45.3672C48.9137 45.3672 54.4195 47.3781 58.1763 51.3421C63.7277 57.1998 63.3727 65.1247 63.3529 65.4568C63.3194 66.0799 62.7786 66.5598 62.1586 66.5294C61.5355 66.4958 61.0556 65.9626 61.086 65.3395C61.0891 65.2679 61.3923 58.0194 56.5096 52.8839C53.1992 49.4028 48.2526 47.6341 41.813 47.6341C35.4145 47.6341 30.4679 49.4028 27.1087 52.8869C22.0752 58.1062 22.287 65.5315 22.287 65.6077C22.3098 66.2308 21.8223 66.7609 21.1992 66.7822C21.1886 66.7822 21.1733 66.7822 21.1611 66.7822H21.1596Z" fill="#B4123B" stroke="#B4123B"/>
</svg>
