<?xml version="1.0" encoding="UTF-8"?>
<svg width="51px" height="50px" viewBox="0 0 51 50" version="1.1" xmlns="http://www.w3.org/2000/svg" xmlns:xlink="http://www.w3.org/1999/xlink">
    <title>exito copy</title>
    <g id="prudential" stroke="none" stroke-width="1" fill="none" fill-rule="evenodd">
        <g id="exito" transform="translate(0.1563, 0)">
            <path d="M25,50 C11.1928809,50 0,38.8071191 0,25 C0,11.1928809 11.1928809,0 25,0 C38.8071191,0 50,11.1928809 50,25 C50,38.8071191 38.8071191,50 25,50 Z" id="Oval-3" fill="#5CAE3B"></path>
            <path d="M19.7443901,36.9211807 L10.3031344,28.3121719 C10.0485241,28.1317638 9.83534831,27.9001972 9.677578,27.6326475 C9.5198077,27.3650977 9.42100527,27.0676055 9.3876445,26.7596671 C9.35428372,26.4517288 9.38711756,26.140296 9.48399593,25.8457798 C9.58087431,25.5512636 9.7396092,25.2803126 9.9497977,25.0506838 C10.1599862,24.821055 10.4168839,24.6379314 10.7036531,24.5133166 C10.9904223,24.3887017 11.3005899,24.3254082 11.6138283,24.3275831 C11.9270667,24.3297581 12.236305,24.397354 12.5212757,24.5259386 C12.8062464,24.6545232 13.0605162,24.841195 13.2674219,25.0737198 L20.9819787,32.1074636 L36.6852912,13.299524 C37.0606912,12.8496749 37.6014667,12.5656891 38.1886484,12.5100403 C38.7758301,12.4543915 39.3613181,12.6316361 39.8163185,13.002786 C40.2713189,13.3739358 40.5585595,13.9085861 40.6148455,14.48912 C40.6711316,15.0696539 40.4918572,15.6485189 40.1164573,16.098368 L22.9384087,36.7013796 C22.7464723,36.9327086 22.5087874,37.1228571 22.2399138,37.2601813 C21.9710403,37.3975056 21.676639,37.4791114 21.3747467,37.5 L21.2265337,37.5 C20.6771161,37.4947633 20.149121,37.2885658 19.7443901,36.9211807 Z" id="Vector" fill="#FFFFFF" fill-rule="nonzero"></path>
        </g>
    </g>
</svg>