<?xml version="1.0" encoding="utf-8"?>
<!-- Generator: Adobe Illustrator 22.1.0, SVG Export Plug-In . SVG Version: 6.00 Build 0)  -->
<svg version="1.1" id="Layer_1" xmlns="http://www.w3.org/2000/svg" xmlns:xlink="http://www.w3.org/1999/xlink" x="0px" y="0px"
	 viewBox="0 0 612 274.5" style="enable-background:new 0 0 612 274.5;" xml:space="preserve">
<style type="text/css">
	.st0{fill:#FFFFFF;}
</style>
<g>
	<polygon class="st0" points="54.5,117.1 73.9,117.1 73.9,146.4 112.6,146.4 112.6,117.1 132,117.1 132,189.7 112.6,189.7 
		112.6,157.9 73.9,157.9 73.9,189.7 54.5,189.7 	"/>
	<path class="st0" d="M182.3,131.6H182l-12.8,30h26L182.3,131.6z M173.1,117.1h22.4l38.9,72.7h-22l-8.5-16.7h-40.2l-8.7,16.7h-20.6
		L173.1,117.1z"/>
	<path class="st0" d="M258.7,178.3h9.3c9.2,0,20.3-1.7,20.3-10.1c0-9.5-10.5-10.9-20.3-10.9h-9.3V178.3z M258.7,146.4h8
		c8.3,0,18.6-1.4,18.6-8.8c0-8.4-10-9.1-19.1-9.1h-7.6V146.4z M238.9,117.1h34.5c12.7,0,31.8,2.7,31.8,18.6
		c0,8.6-7.9,14.7-19.6,16.2v0.2c13.4,0.9,22.6,7.6,22.6,16.5c0,18.3-22.3,21-34.7,21h-34.5V117.1z"/>
	<rect x="316.6" y="117.1" class="st0" width="19.9" height="72.7"/>
	<polygon class="st0" points="373.3,128.5 345.2,128.5 345.2,117.1 421,117.1 421,128.5 392.9,128.5 392.9,189.7 373.3,189.7 	"/>
	<path class="st0" d="M450.7,131.6h-0.3l-14.2,30h28.6L450.7,131.6z M439.9,117.1h22.2l38.5,72.7h-21.8l-8.4-16.7h-39.7l-8.6,16.7
		h-20.4L439.9,117.1z"/>
	<polygon class="st0" points="509.8,128.5 481.4,128.5 481.4,117.1 558,117.1 548.4,128.5 529.6,128.5 529.6,189.7 509.8,189.7 	"/>
	<path class="st0" d="M71.4,87.4l-8.3,15.3h16.5L71.4,87.4z M69.6,84.8h4.2l15.1,27.8h-3.9l-4.1-7.4H61.7l-4.1,7.4H54L69.6,84.8z"/>
	<polygon class="st0" points="90.2,84.8 108.1,84.8 108.1,87.1 94,87.1 94,97 107.5,97 107.5,99.4 94,99.4 94,112.5 90.2,112.5 	"/>
	<path class="st0" d="M115.7,98.1h2.6c5.6,0,10.9-0.5,10.9-5.5c0-3.5-2.7-5.5-7.4-5.5h-6V98.1z M112,84.8h9.2c7,0,11.6,2.6,11.6,7.9
		c0,5.2-5.3,7.9-12,7.9h-5.2v12H112V84.8z"/>
</g>
</svg>
