<svg id="c9bd738e-e21b-4324-8c38-600cf14001a6" data-name="Capa 1" xmlns="http://www.w3.org/2000/svg" xmlns:xlink="http://www.w3.org/1999/xlink" viewBox="0 0 77.01 72.02"><defs><style>.cabc88f1-23d6-4395-98ed-771eabf11b6f,.f5149e48-70aa-4a36-b139-2e709ad7ffb0{fill:none;}.cabc88f1-23d6-4395-98ed-771eabf11b6f{clip-rule:evenodd;}.bff21565-baac-4caf-9936-df7e7f258054{clip-path:url(#614e61d9-c86f-44f0-aad3-f21cebc45e9b);}.a354cab2-f229-4377-b474-53a3b353846d{clip-path:url(#b632ca5c-ad4c-4980-a7a5-ffaad7b271f4);}.\37 19e77f6-161a-4890-851f-845e61aeee65{isolation:isolate;}.a10be6fc-d235-492e-9df9-c8208d68aab9{clip-path:url(#3074e35e-c2fe-4f6a-968d-ddc12bc9229e);}</style><clipPath id="614e61d9-c86f-44f0-aad3-f21cebc45e9b" transform="translate(8 6.18)"><path class="cabc88f1-23d6-4395-98ed-771eabf11b6f" d="M50.28,44l-8.57-.34L38.88,32.89l-5.3-.36,5.24,21.23,5.56.07-1.2-4.6L57,49.59,52.88,35.86l4,.25L55.38,31.2l-9-.67ZM6.12,33l5.11.32L14,48.5l16,.41L31,53.66l5.78.08L31.66,32.41,26.15,32l2.51,11.11-9.6-.38L16.19,28.27l-11-.82ZM31.66,24.8l5.22.45-2.54-9.69,8.05.89,3.53,12.36,8.93.7-1.47-4.72-3.94-.36L45.86,12.52,33.13,11l-.94-3.58-5-.66ZM21.07,9.49,6.59,7.72l2.35,13L4,20.26l.88,5.29,10.94.87L13.19,13.21l8.94,1,2.25,10,5.41.47L25.41,6.5l-5.17-.67Z"/></clipPath><clipPath id="b632ca5c-ad4c-4980-a7a5-ffaad7b271f4" transform="translate(8 6.18)"><rect class="f5149e48-70aa-4a36-b139-2e709ad7ffb0" x="4" y="5.82" width="55.22" height="48.01"/></clipPath><clipPath id="3074e35e-c2fe-4f6a-968d-ddc12bc9229e" transform="translate(8 6.18)"><rect class="f5149e48-70aa-4a36-b139-2e709ad7ffb0" x="-8" y="-6.18" width="79.22" height="72.02"/></clipPath></defs><title>habitat</title><g class="bff21565-baac-4caf-9936-df7e7f258054"><g class="a354cab2-f229-4377-b474-53a3b353846d"><g class="719e77f6-161a-4890-851f-845e61aeee65"><g class="a10be6fc-d235-492e-9df9-c8208d68aab9"><g class="a354cab2-f229-4377-b474-53a3b353846d"><rect width="77.01" height="72.02"/></g></g></g></g></g></svg>